M48
INCH,TZ
T01C0.013750
T02C0.030750
T03C0.039200
%
T01
X13489Y28536
X13834Y28329
X13922Y30229
X13952Y28831
X6762Y12411
X7136Y12411
X7156Y15837
X7510Y15837
X7510Y12411
X8622Y26260
X8622Y24409
X8622Y23858
X8622Y22008
X8622Y21693
X8622Y20669
X8622Y20276
X8622Y19882
X8622Y19488
X8622Y19094
X8622Y18701
X8622Y18307
X8622Y17913
X8622Y13701
X8622Y13307
X8780Y12323
X9724Y12323
X10197Y12323
X10669Y12323
X11142Y12323
X11535Y26260
X11614Y12323
X11929Y26260
X12087Y12323
X12559Y12323
X12992Y26260
X13031Y12323
X13504Y12323
X13976Y12323
X14449Y12323
X14685Y26260
X14921Y12323
X15000Y26260
X15315Y26260
X15394Y12323
X15620Y7717
X15620Y7323
X15630Y26260
X15866Y12323
X15945Y26260
X16260Y26260
X16339Y12323
X16575Y26260
X16811Y12323
X16890Y26260
X17205Y26260
X17283Y12323
X17756Y12323
X18150Y26260
X18228Y12323
X18465Y26260
X18701Y12323
X18780Y26260
X19094Y26260
X19173Y12323
X19409Y26260
X19724Y26260
X20039Y26260
X20354Y26260
X20669Y26260
X20984Y26260
X21299Y26260
X21614Y26260
X21772Y20984
X21772Y14882
X21772Y23425
X21772Y23110
X21772Y22795
X21772Y22480
X21772Y22165
X21772Y21850
X21772Y21299
X21772Y20669
X21772Y20354
X21772Y20039
X21772Y19724
X21772Y19409
X21772Y19094
X21772Y18780
X21772Y18465
X21772Y18150
X21772Y17835
X21772Y17520
X21772Y17205
X21772Y16890
X21772Y16575
X25728Y27906
X25728Y27434
X25728Y26962
X25728Y26489
X31407Y29426
X31407Y29032
X591Y22638
X984Y29331
X1181Y28740
X1378Y29724
X1575Y29134
X1772Y30118
X1772Y22638
X1969Y29528
X2165Y30512
X2362Y29921
X2756Y30315
X3150Y28740
X3346Y25012
X3740Y21457
X3937Y27411
X3937Y11220
X4045Y13868
X4046Y12883
X4046Y11898
X4528Y24016
X4528Y11024
X4724Y15551
X4724Y394
X5118Y26181
X5118Y394
X5512Y394
X5886Y12402
X5906Y394
X6102Y15748
X6299Y13583
X6299Y394
X6693Y394
X7087Y23819
X7087Y17323
X7087Y394
X7480Y394
X7677Y29921
X7874Y394
X8268Y25000
X8268Y16929
X8268Y394
X8465Y11811
X8661Y394
X9252Y11811
X9789Y28884
X9843Y9252
X10433Y30315
X12598Y26575
X13583Y26575
X14567Y27559
X14961Y5906
X15157Y8465
X15157Y3150
X16535Y26654
X16929Y591
X17323Y27953
X17323Y591
X17520Y9252
X17717Y591
X18110Y591
X18504Y591
X18701Y11220
X18898Y30709
X18898Y591
X19291Y30709
X19291Y11811
X19291Y591
X19685Y30709
X19685Y591
X19882Y26772
X20079Y30709
X20079Y591
X20472Y30709
X20472Y10039
X20472Y591
X20866Y30709
X20866Y591
X21063Y28150
X21063Y9646
X21260Y30709
X21654Y30709
X22047Y30709
X22146Y28248
X22244Y12205
X22244Y9449
X22441Y30709
X22441Y2953
X22638Y4724
X22736Y28248
X22835Y30709
X23228Y23819
X23425Y9646
X23622Y21850
X23819Y19291
X24016Y9252
X24409Y6102
X24803Y10630
X25197Y12402
X25394Y13189
X25984Y12008
X25984Y2559
X26181Y18307
X26181Y15354
X26181Y5512
X26264Y11220
X26772Y7087
X26772Y3346
X27165Y25787
X27165Y7283
X27195Y13159
X27559Y19882
X28150Y7087
X29528Y19882
X29724Y17126
X31299Y15354
X31496Y17913
X31496Y16339
X31496Y14173
X31496Y7677
X31496Y591
X31693Y11220
X31693Y5906
X31693Y5512
X31890Y3346
X31890Y591
X32283Y591
X32480Y16535
X32480Y12402
X32677Y591
X33071Y21260
X33071Y18307
X33071Y591
X33661Y16142
X33858Y3150
X13489Y28536
X13833Y28329
X13952Y28831
X13922Y30229
X21102Y8951
X21374Y8315
X21160Y7930
X21801Y7501
X21841Y7165
X21644Y6575
X21368Y6319
X21250Y5788
X21644Y5492
X21841Y5984
X21841Y4803
X21841Y3228
X21368Y3248
X20257Y2956
X19210Y2981
X18888Y3269
X17835Y3344
X16723Y3228
X15935Y3228
X16408Y4232
X17053Y4238
X16993Y5484
X16526Y5394
X16358Y5874
X15935Y5591
X16357Y6759
X15661Y6931
X15620Y7323
X15620Y7717
X16302Y7623
X16612Y8112
X16225Y8429
X16622Y8859
X17011Y8480
X17086Y7756
X17038Y7323
X18354Y8308
X18354Y8937
X19273Y8951
X20128Y8951
X19905Y8309
X19321Y7284
X18928Y5837
X19675Y5788
X19242Y5278
X18653Y4280
X17707Y2323
X16775Y2256
X16723Y1851
X15935Y2047
X16329Y2638
X18803Y1498
X18761Y1092
X19590Y1508
X19855Y1911
X21292Y1834
X20883Y2469
X21723Y2702
X6615Y15831
X6868Y15679
X7155Y15837
X7510Y15837
X7176Y14835
X7071Y14561
X7284Y14318
X6771Y14868
X7511Y13389
X7510Y12412
X7136Y12412
X6762Y12412
X31279Y27927
X31279Y29895
X31240Y26588
X30413Y28005
X30256Y29068
X30138Y29895
X29901Y26588
X29508Y27494
X29468Y28478
X28917Y29108
X28878Y29895
X28484Y26588
X28248Y27297
X28169Y29895
X28083Y27988
X27657Y29541
X27146Y28675
X26909Y29620
X26752Y26588
X26437Y29895
X26119Y27413
X25846Y28281
X25846Y29620
X31407Y29033
X31407Y29427
X25728Y26490
X25728Y26962
X25728Y27434
X25728Y27907
X8780Y12323
X9256Y12354
X9488Y12544
X9724Y12323
X9961Y12524
X10197Y12323
X10433Y12524
X10669Y12323
X10906Y12524
X11142Y12323
X11378Y12524
X11614Y12323
X11850Y12524
X12087Y12323
X12323Y12524
X12559Y12323
X12795Y12524
X13032Y12323
X13268Y12524
X13504Y12323
X13740Y12524
X13976Y12323
X14213Y12524
X14449Y12323
X14685Y12524
X14921Y12323
X15158Y12524
X15394Y12323
X15630Y12524
X15866Y12323
X16102Y12524
X16339Y12323
X16575Y12524
X16811Y12323
X17047Y12524
X17284Y12323
X17520Y12524
X17756Y12323
X17992Y12524
X18228Y12323
X18465Y12524
X18701Y12323
X18937Y12524
X19173Y12323
X19488Y12481
X19481Y13016
X19054Y13210
X18603Y13220
X18161Y13227
X17688Y13225
X17183Y14272
X16873Y14272
X16626Y13799
X16028Y14002
X15732Y14011
X15889Y14282
X16006Y14964
X15751Y15232
X15654Y15773
X16093Y15773
X16553Y15653
X16553Y15985
X16553Y16280
X16547Y16571
X16877Y17255
X17422Y17251
X17284Y17835
X16654Y17756
X16584Y18588
X16569Y18974
X16221Y18780
X15987Y18580
X15730Y19013
X15037Y19314
X14439Y19331
X14092Y19035
X13317Y19210
X13335Y18655
X13325Y18108
X12617Y18235
X12662Y19034
X12636Y19799
X12614Y20609
X13317Y20649
X13317Y20364
X13317Y20079
X13317Y20950
X14105Y21266
X14092Y21551
X14060Y21849
X14110Y22331
X14514Y22382
X15144Y22860
X15521Y22848
X16457Y22992
X16782Y22392
X16990Y22595
X16972Y22068
X17330Y22021
X16779Y21837
X16573Y20694
X16350Y20465
X16304Y19782
X16013Y19771
X16500Y19563
X17169Y19563
X18035Y19374
X18229Y19160
X18433Y18956
X18635Y18754
X18632Y19567
X18185Y20032
X18172Y20733
X18548Y20635
X18425Y21103
X18223Y21640
X18463Y21866
X18657Y22264
X18465Y22520
X18364Y22903
X18324Y23209
X18622Y23111
X19126Y22909
X19182Y22608
X19126Y22046
X19273Y21801
X19016Y21418
X18998Y20927
X20226Y20535
X20536Y20221
X20354Y20000
X20319Y19480
X21772Y19410
X21772Y19725
X21772Y20040
X21772Y20355
X21772Y20670
X21772Y20985
X21772Y21299
X21633Y21577
X21772Y21851
X21772Y22166
X21772Y22481
X21772Y22796
X21772Y23111
X21772Y23425
X21415Y23513
X21632Y23757
X21323Y24459
X21319Y25394
X20946Y25438
X20944Y25153
X20571Y25394
X20669Y26260
X20354Y26260
X20039Y26260
X19724Y26260
X19410Y26260
X19095Y26260
X18780Y26260
X18465Y26260
X18150Y26260
X17559Y26063
X17205Y26260
X16890Y26260
X16575Y26260
X16260Y26260
X15945Y26260
X15630Y26260
X15315Y26260
X15000Y26260
X14685Y26260
X14173Y26221
X14267Y25566
X13869Y25530
X13524Y25575
X13245Y25273
X13303Y26028
X12992Y26260
X11929Y26260
X11535Y26260
X11174Y26236
X11182Y25773
X10952Y25328
X10871Y24455
X10431Y24678
X11617Y24990
X12080Y25309
X12037Y24458
X12480Y24410
X12965Y23982
X12973Y23697
X13041Y23337
X13044Y23041
X12314Y23140
X12323Y22756
X12314Y22431
X12653Y22103
X12314Y21723
X12330Y21371
X12310Y21076
X12627Y21394
X11632Y21822
X11629Y22266
X10453Y22122
X10473Y21601
X10472Y21212
X11297Y20747
X11597Y20786
X11620Y20333
X11620Y20046
X11620Y19759
X11620Y19343
X11620Y19057
X11638Y18633
X11638Y18325
X11638Y18036
X11862Y17296
X12142Y17201
X12454Y16806
X12156Y16486
X12156Y15920
X12149Y15634
X12240Y14973
X12037Y14228
X12205Y13996
X11905Y13961
X11280Y13797
X10984Y13797
X10358Y14002
X10072Y14002
X10236Y14285
X10340Y14961
X10181Y15230
X10001Y15807
X10477Y15807
X10963Y15653
X10963Y15985
X10963Y16280
X10956Y16571
X10193Y16793
X10197Y17170
X9394Y17178
X9421Y16844
X9126Y17276
X8647Y17319
X8622Y17914
X8622Y18307
X8622Y18701
X8622Y19095
X8622Y19488
X8622Y19882
X8622Y20276
X8622Y20670
X8661Y21299
X8622Y21693
X8622Y22008
X8622Y22382
X8750Y22865
X8661Y23229
X8622Y23859
X8906Y23969
X8622Y24410
X8643Y25572
X8622Y26260
X9646Y22992
X9772Y22697
X10641Y23182
X12633Y23474
X13510Y23922
X13642Y24311
X13980Y24240
X14403Y23918
X14843Y23819
X15584Y23897
X16112Y24833
X16252Y25112
X16323Y25419
X16585Y24729
X17416Y24758
X17608Y25083
X18352Y24737
X18278Y23889
X18572Y23889
X18863Y23889
X20049Y23947
X20079Y24410
X19804Y24941
X19778Y25845
X18668Y25972
X20984Y26260
X21299Y26260
X21614Y26260
X20420Y23356
X20264Y23117
X20492Y22825
X20709Y22398
X20268Y22400
X20170Y21716
X20686Y21427
X20962Y21981
X20973Y20772
X21772Y19095
X21772Y18780
X21772Y18465
X21772Y18150
X21772Y17835
X21772Y17520
X21772Y17205
X21772Y16890
X21772Y16575
X21253Y15961
X21693Y15355
X21772Y14882
X21201Y14284
X21201Y13965
X21201Y13647
X21201Y13329
X21201Y13010
X20837Y12684
X21555Y12641
X19959Y13472
X20092Y14051
X19528Y14961
X19295Y15665
X19309Y15985
X19304Y16273
X19303Y16571
X18516Y16793
X18507Y17206
X17997Y16821
X17707Y16605
X17707Y16032
X17744Y15646
X18348Y15780
X18848Y15773
X18508Y15227
X18629Y14561
X18312Y14561
X17966Y14561
X18976Y14550
X17165Y14961
X14949Y15646
X14951Y16045
X14951Y16484
X15033Y16868
X15760Y16846
X15709Y17128
X14567Y17260
X14243Y17268
X14221Y17760
X13811Y17480
X13740Y16651
X13763Y16280
X13750Y15985
X13740Y15485
X13445Y15748
X12776Y15793
X12976Y15251
X12905Y14375
X13136Y13795
X13846Y14002
X14138Y14002
X13996Y14292
X14119Y14961
X14765Y13841
X15093Y13790
X13098Y16799
X12899Y17205
X11286Y17255
X10752Y17874
X10752Y18635
X10752Y19396
X10753Y20158
X14436Y20105
X14232Y20430
X14394Y21318
X13315Y22418
X14114Y25041
X14558Y24945
X14651Y24675
X14854Y25038
X17360Y23696
X17418Y23413
X18991Y17880
X19370Y18229
X20457Y18084
X20408Y17355
X20096Y17387
X19633Y17255
X21168Y17562
X14846Y18617
X9360Y16073
X9398Y15608
X9116Y15286
X8625Y15247
X9223Y14695
X8957Y14383
X8622Y13701
X8622Y13307
X8642Y12722
X9213Y12914
X9410Y13797
X8750Y16605
T02
X33268Y23425
X34055Y23425
X34843Y23425
X35630Y23425
X18110Y28346
X19610Y28346
X23642Y8268
X23642Y7283
X25571Y8268
X25571Y7283
X28563Y2165
X28563Y1181
X30492Y2165
X30492Y1181
X14717Y17618
X16295Y17618
X17717Y17618
T03
X1362Y20386
X1362Y19386
X1362Y18386
X1362Y17386
X1362Y16386
X1362Y15386
X1362Y14386
X1362Y13386
X1362Y12386
X1362Y11386
X1362Y10386
X1362Y9386
X1362Y8386
X1362Y7386
X1362Y6386
X1362Y5386
X1362Y4386
X1362Y3386
X1362Y2386
X1362Y1386
X2362Y20386
X2362Y19386
X2362Y18386
X2362Y17386
X2362Y16386
X2362Y15386
X2362Y14386
X2362Y13386
X2362Y12386
X2362Y11386
X2362Y10386
X2362Y9386
X2362Y8386
X2362Y7386
X2362Y6386
X2362Y5386
X2362Y4386
X2362Y3386
X2362Y2386
X2362Y1386
X15797Y8839
X15797Y6378
X15797Y4685
X15797Y3937
X15797Y1417
X21900Y8661
X21900Y3917
X21900Y1969
X21900Y1240
X35039Y20370
X35039Y19370
X35039Y18370
X35039Y17370
X35039Y16370
X35039Y15370
X35039Y14370
X35039Y13370
X35039Y12370
X35039Y11370
X35039Y10370
X35039Y9370
X35039Y8370
X35039Y7370
X35039Y6370
X35039Y5370
X35039Y4370
X35039Y3370
X35039Y2370
X35039Y1370
X35827Y29543
X35827Y28543
X35827Y27543
X35827Y26543
X36039Y20370
X36039Y19370
X36039Y18370
X36039Y17370
X36039Y16370
X36039Y15370
X36039Y14370
X36039Y13370
X36039Y12370
X36039Y11370
X36039Y10370
X36039Y9370
X36039Y8370
X36039Y7370
X36039Y6370
X36039Y5370
X36039Y4370
X36039Y3370
X36039Y2370
X36039Y1370
X21900Y8662
X21900Y3917
X15797Y3937
X15797Y4685
X15797Y6378
X15797Y8839
X15797Y1417
X21900Y1240
X21900Y1969
X8937Y25945
X18016Y24974
X18016Y25774
X20016Y25374
M30
