G04 #@! TF.GenerationSoftware,KiCad,Pcbnew,8.0.7-8.0.7-0~ubuntu24.04.1*
G04 #@! TF.CreationDate,2025-01-03T15:31:29+00:00*
G04 #@! TF.ProjectId,stabildaytona,73746162-696c-4646-9179-746f6e612e6b,D*
G04 #@! TF.SameCoordinates,PX2faf080PY9896800*
G04 #@! TF.FileFunction,Paste,Top*
G04 #@! TF.FilePolarity,Positive*
%FSLAX46Y46*%
G04 Gerber Fmt 4.6, Leading zero omitted, Abs format (unit mm)*
G04 Created by KiCad (PCBNEW 8.0.7-8.0.7-0~ubuntu24.04.1) date 2025-01-03 15:31:29*
%MOMM*%
%LPD*%
G01*
G04 APERTURE LIST*
%ADD10R,1.950000X1.160000*%
%ADD11R,2.000000X0.650000*%
%ADD12O,0.000001X0.000001*%
G04 APERTURE END LIST*
G04 #@! TO.C,C28*
G36*
G01*
X5284999Y67660000D02*
X5284999Y68340000D01*
G75*
G02*
X5369999Y68425000I85000J0D01*
G01*
X6049999Y68425000D01*
G75*
G02*
X6134999Y68340000I0J-85000D01*
G01*
X6134999Y67660000D01*
G75*
G02*
X6049999Y67575000I-85000J0D01*
G01*
X5369999Y67575000D01*
G75*
G02*
X5284999Y67660000I0J85000D01*
G01*
G37*
G36*
G01*
X6865001Y67660000D02*
X6865001Y68340000D01*
G75*
G02*
X6950001Y68425000I85000J0D01*
G01*
X7630001Y68425000D01*
G75*
G02*
X7715001Y68340000I0J-85000D01*
G01*
X7715001Y67660000D01*
G75*
G02*
X7630001Y67575000I-85000J0D01*
G01*
X6950001Y67575000D01*
G75*
G02*
X6865001Y67660000I0J85000D01*
G01*
G37*
G04 #@! TD*
G04 #@! TO.C,F6*
G36*
G01*
X14562500Y52243750D02*
X14562500Y52756250D01*
G75*
G02*
X14781250Y52975000I218750J0D01*
G01*
X15218750Y52975000D01*
G75*
G02*
X15437500Y52756250I0J-218750D01*
G01*
X15437500Y52243750D01*
G75*
G02*
X15218750Y52025000I-218750J0D01*
G01*
X14781250Y52025000D01*
G75*
G02*
X14562500Y52243750I0J218750D01*
G01*
G37*
G36*
G01*
X16137500Y52243750D02*
X16137500Y52756250D01*
G75*
G02*
X16356250Y52975000I218750J0D01*
G01*
X16793750Y52975000D01*
G75*
G02*
X17012500Y52756250I0J-218750D01*
G01*
X17012500Y52243750D01*
G75*
G02*
X16793750Y52025000I-218750J0D01*
G01*
X16356250Y52025000D01*
G75*
G02*
X16137500Y52243750I0J218750D01*
G01*
G37*
G04 #@! TD*
G04 #@! TO.C,L1*
G36*
G01*
X6756250Y57487500D02*
X6243750Y57487500D01*
G75*
G02*
X6025000Y57706250I0J218750D01*
G01*
X6025000Y58143750D01*
G75*
G02*
X6243750Y58362500I218750J0D01*
G01*
X6756250Y58362500D01*
G75*
G02*
X6975000Y58143750I0J-218750D01*
G01*
X6975000Y57706250D01*
G75*
G02*
X6756250Y57487500I-218750J0D01*
G01*
G37*
G36*
G01*
X6756250Y59062500D02*
X6243750Y59062500D01*
G75*
G02*
X6025000Y59281250I0J218750D01*
G01*
X6025000Y59718750D01*
G75*
G02*
X6243750Y59937500I218750J0D01*
G01*
X6756250Y59937500D01*
G75*
G02*
X6975000Y59718750I0J-218750D01*
G01*
X6975000Y59281250D01*
G75*
G02*
X6756250Y59062500I-218750J0D01*
G01*
G37*
G04 #@! TD*
G04 #@! TO.C,R9*
G36*
G01*
X81850000Y28110000D02*
X81850000Y28890000D01*
G75*
G02*
X81920000Y28960000I70000J0D01*
G01*
X82480000Y28960000D01*
G75*
G02*
X82550000Y28890000I0J-70000D01*
G01*
X82550000Y28110000D01*
G75*
G02*
X82480000Y28040000I-70000J0D01*
G01*
X81920000Y28040000D01*
G75*
G02*
X81850000Y28110000I0J70000D01*
G01*
G37*
G36*
G01*
X83450000Y28110000D02*
X83450000Y28890000D01*
G75*
G02*
X83520000Y28960000I70000J0D01*
G01*
X84080000Y28960000D01*
G75*
G02*
X84150000Y28890000I0J-70000D01*
G01*
X84150000Y28110000D01*
G75*
G02*
X84080000Y28040000I-70000J0D01*
G01*
X83520000Y28040000D01*
G75*
G02*
X83450000Y28110000I0J70000D01*
G01*
G37*
G04 #@! TD*
D10*
G04 #@! TO.C,U1*
X72750000Y29920000D03*
X72750000Y28460000D03*
X72750000Y27000000D03*
X72750000Y25540000D03*
X72750000Y24080000D03*
X75000000Y29920000D03*
X75000000Y28460000D03*
X75000000Y27000000D03*
X75000000Y25540000D03*
X75000000Y24080000D03*
D11*
X69075000Y29500000D03*
X69075000Y28500000D03*
X69075000Y27500000D03*
X69075000Y26500000D03*
X69075000Y25500000D03*
X69075000Y24500000D03*
X78675000Y24500000D03*
X78675000Y25500000D03*
X78675000Y26500000D03*
X78675000Y27500000D03*
X78675000Y28500000D03*
X78675000Y29500000D03*
G04 #@! TD*
G04 #@! TO.C,C31*
G36*
G01*
X5284999Y63190000D02*
X5284999Y63870000D01*
G75*
G02*
X5369999Y63955000I85000J0D01*
G01*
X6049999Y63955000D01*
G75*
G02*
X6134999Y63870000I0J-85000D01*
G01*
X6134999Y63190000D01*
G75*
G02*
X6049999Y63105000I-85000J0D01*
G01*
X5369999Y63105000D01*
G75*
G02*
X5284999Y63190000I0J85000D01*
G01*
G37*
G36*
G01*
X6865001Y63190000D02*
X6865001Y63870000D01*
G75*
G02*
X6950001Y63955000I85000J0D01*
G01*
X7630001Y63955000D01*
G75*
G02*
X7715001Y63870000I0J-85000D01*
G01*
X7715001Y63190000D01*
G75*
G02*
X7630001Y63105000I-85000J0D01*
G01*
X6950001Y63105000D01*
G75*
G02*
X6865001Y63190000I0J85000D01*
G01*
G37*
G04 #@! TD*
G04 #@! TO.C,R8*
G36*
G01*
X12549999Y32369144D02*
X12549999Y33619144D01*
G75*
G02*
X12649999Y33719144I100000J0D01*
G01*
X13449999Y33719144D01*
G75*
G02*
X13549999Y33619144I0J-100000D01*
G01*
X13549999Y32369144D01*
G75*
G02*
X13449999Y32269144I-100000J0D01*
G01*
X12649999Y32269144D01*
G75*
G02*
X12549999Y32369144I0J100000D01*
G01*
G37*
G36*
G01*
X14450021Y32369144D02*
X14450021Y33619144D01*
G75*
G02*
X14550021Y33719144I100000J0D01*
G01*
X15350021Y33719144D01*
G75*
G02*
X15450021Y33619144I0J-100000D01*
G01*
X15450021Y32369144D01*
G75*
G02*
X15350021Y32269144I-100000J0D01*
G01*
X14550021Y32269144D01*
G75*
G02*
X14450021Y32369144I0J100000D01*
G01*
G37*
G04 #@! TD*
G04 #@! TO.C,C29*
G36*
G01*
X5284999Y66190000D02*
X5284999Y66870000D01*
G75*
G02*
X5369999Y66955000I85000J0D01*
G01*
X6049999Y66955000D01*
G75*
G02*
X6134999Y66870000I0J-85000D01*
G01*
X6134999Y66190000D01*
G75*
G02*
X6049999Y66105000I-85000J0D01*
G01*
X5369999Y66105000D01*
G75*
G02*
X5284999Y66190000I0J85000D01*
G01*
G37*
G36*
G01*
X6865001Y66190000D02*
X6865001Y66870000D01*
G75*
G02*
X6950001Y66955000I85000J0D01*
G01*
X7630001Y66955000D01*
G75*
G02*
X7715001Y66870000I0J-85000D01*
G01*
X7715001Y66190000D01*
G75*
G02*
X7630001Y66105000I-85000J0D01*
G01*
X6950001Y66105000D01*
G75*
G02*
X6865001Y66190000I0J85000D01*
G01*
G37*
G04 #@! TD*
G04 #@! TO.C,C30*
G36*
G01*
X5284999Y64690000D02*
X5284999Y65370000D01*
G75*
G02*
X5369999Y65455000I85000J0D01*
G01*
X6049999Y65455000D01*
G75*
G02*
X6134999Y65370000I0J-85000D01*
G01*
X6134999Y64690000D01*
G75*
G02*
X6049999Y64605000I-85000J0D01*
G01*
X5369999Y64605000D01*
G75*
G02*
X5284999Y64690000I0J85000D01*
G01*
G37*
G36*
G01*
X6865001Y64690000D02*
X6865001Y65370000D01*
G75*
G02*
X6950001Y65455000I85000J0D01*
G01*
X7630001Y65455000D01*
G75*
G02*
X7715001Y65370000I0J-85000D01*
G01*
X7715001Y64690000D01*
G75*
G02*
X7630001Y64605000I-85000J0D01*
G01*
X6950001Y64605000D01*
G75*
G02*
X6865001Y64690000I0J85000D01*
G01*
G37*
G04 #@! TD*
G04 #@! TO.C,R7*
G36*
G01*
X12549999Y34872072D02*
X12549999Y36122072D01*
G75*
G02*
X12649999Y36222072I100000J0D01*
G01*
X13449999Y36222072D01*
G75*
G02*
X13549999Y36122072I0J-100000D01*
G01*
X13549999Y34872072D01*
G75*
G02*
X13449999Y34772072I-100000J0D01*
G01*
X12649999Y34772072D01*
G75*
G02*
X12549999Y34872072I0J100000D01*
G01*
G37*
G36*
G01*
X14450021Y34872072D02*
X14450021Y36122072D01*
G75*
G02*
X14550021Y36222072I100000J0D01*
G01*
X15350021Y36222072D01*
G75*
G02*
X15450021Y36122072I0J-100000D01*
G01*
X15450021Y34872072D01*
G75*
G02*
X15350021Y34772072I-100000J0D01*
G01*
X14550021Y34772072D01*
G75*
G02*
X14450021Y34872072I0J100000D01*
G01*
G37*
G04 #@! TD*
D10*
G04 #@! TO.C,U2*
X72675000Y15420000D03*
X72675000Y13960000D03*
X72675000Y12500000D03*
X72675000Y11040000D03*
X72675000Y9580000D03*
X74925000Y15420000D03*
X74925000Y13960000D03*
X74925000Y12500000D03*
X74925000Y11040000D03*
X74925000Y9580000D03*
D11*
X69000000Y15000000D03*
X69000000Y14000000D03*
X69000000Y13000000D03*
X69000000Y12000000D03*
X69000000Y11000000D03*
X69000000Y10000000D03*
X78600000Y10000000D03*
X78600000Y11000000D03*
X78600000Y12000000D03*
X78600000Y13000000D03*
X78600000Y14000000D03*
X78600000Y15000000D03*
G04 #@! TD*
G04 #@! TO.C,R21*
G36*
G01*
X11637500Y50110000D02*
X11637500Y50890000D01*
G75*
G02*
X11707500Y50960000I70000J0D01*
G01*
X12267500Y50960000D01*
G75*
G02*
X12337500Y50890000I0J-70000D01*
G01*
X12337500Y50110000D01*
G75*
G02*
X12267500Y50040000I-70000J0D01*
G01*
X11707500Y50040000D01*
G75*
G02*
X11637500Y50110000I0J70000D01*
G01*
G37*
G36*
G01*
X13237500Y50110000D02*
X13237500Y50890000D01*
G75*
G02*
X13307500Y50960000I70000J0D01*
G01*
X13867500Y50960000D01*
G75*
G02*
X13937500Y50890000I0J-70000D01*
G01*
X13937500Y50110000D01*
G75*
G02*
X13867500Y50040000I-70000J0D01*
G01*
X13307500Y50040000D01*
G75*
G02*
X13237500Y50110000I0J70000D01*
G01*
G37*
G04 #@! TD*
G04 #@! TO.C,C13*
G36*
G01*
X83715001Y24840000D02*
X83715001Y24160000D01*
G75*
G02*
X83630001Y24075000I-85000J0D01*
G01*
X82950001Y24075000D01*
G75*
G02*
X82865001Y24160000I0J85000D01*
G01*
X82865001Y24840000D01*
G75*
G02*
X82950001Y24925000I85000J0D01*
G01*
X83630001Y24925000D01*
G75*
G02*
X83715001Y24840000I0J-85000D01*
G01*
G37*
G36*
G01*
X82134999Y24840000D02*
X82134999Y24160000D01*
G75*
G02*
X82049999Y24075000I-85000J0D01*
G01*
X81369999Y24075000D01*
G75*
G02*
X81284999Y24160000I0J85000D01*
G01*
X81284999Y24840000D01*
G75*
G02*
X81369999Y24925000I85000J0D01*
G01*
X82049999Y24925000D01*
G75*
G02*
X82134999Y24840000I0J-85000D01*
G01*
G37*
G04 #@! TD*
G04 #@! TO.C,C27*
G36*
G01*
X5284999Y69160000D02*
X5284999Y69840000D01*
G75*
G02*
X5369999Y69925000I85000J0D01*
G01*
X6049999Y69925000D01*
G75*
G02*
X6134999Y69840000I0J-85000D01*
G01*
X6134999Y69160000D01*
G75*
G02*
X6049999Y69075000I-85000J0D01*
G01*
X5369999Y69075000D01*
G75*
G02*
X5284999Y69160000I0J85000D01*
G01*
G37*
G36*
G01*
X6865001Y69160000D02*
X6865001Y69840000D01*
G75*
G02*
X6950001Y69925000I85000J0D01*
G01*
X7630001Y69925000D01*
G75*
G02*
X7715001Y69840000I0J-85000D01*
G01*
X7715001Y69160000D01*
G75*
G02*
X7630001Y69075000I-85000J0D01*
G01*
X6950001Y69075000D01*
G75*
G02*
X6865001Y69160000I0J85000D01*
G01*
G37*
G04 #@! TD*
G04 #@! TO.C,C25*
G36*
G01*
X63284999Y10660000D02*
X63284999Y11340000D01*
G75*
G02*
X63369999Y11425000I85000J0D01*
G01*
X64049999Y11425000D01*
G75*
G02*
X64134999Y11340000I0J-85000D01*
G01*
X64134999Y10660000D01*
G75*
G02*
X64049999Y10575000I-85000J0D01*
G01*
X63369999Y10575000D01*
G75*
G02*
X63284999Y10660000I0J85000D01*
G01*
G37*
G36*
G01*
X64865001Y10660000D02*
X64865001Y11340000D01*
G75*
G02*
X64950001Y11425000I85000J0D01*
G01*
X65630001Y11425000D01*
G75*
G02*
X65715001Y11340000I0J-85000D01*
G01*
X65715001Y10660000D01*
G75*
G02*
X65630001Y10575000I-85000J0D01*
G01*
X64950001Y10575000D01*
G75*
G02*
X64865001Y10660000I0J85000D01*
G01*
G37*
G04 #@! TD*
G04 #@! TO.C,F1*
G36*
G01*
X76105010Y6400000D02*
X76795010Y6400000D01*
G75*
G02*
X77025010Y6170000I0J-230000D01*
G01*
X77025010Y4830000D01*
G75*
G02*
X76795010Y4600000I-230000J0D01*
G01*
X76105010Y4600000D01*
G75*
G02*
X75875010Y4830000I0J230000D01*
G01*
X75875010Y6170000D01*
G75*
G02*
X76105010Y6400000I230000J0D01*
G01*
G37*
G36*
G01*
X73204990Y6400000D02*
X73894990Y6400000D01*
G75*
G02*
X74124990Y6170000I0J-230000D01*
G01*
X74124990Y4830000D01*
G75*
G02*
X73894990Y4600000I-230000J0D01*
G01*
X73204990Y4600000D01*
G75*
G02*
X72974990Y4830000I0J230000D01*
G01*
X72974990Y6170000D01*
G75*
G02*
X73204990Y6400000I230000J0D01*
G01*
G37*
G04 #@! TD*
G04 #@! TO.C,U4*
G36*
G01*
X9550000Y67255000D02*
X9550000Y67555000D01*
G75*
G02*
X9700000Y67705000I150000J0D01*
G01*
X11350000Y67705000D01*
G75*
G02*
X11500000Y67555000I0J-150000D01*
G01*
X11500000Y67255000D01*
G75*
G02*
X11350000Y67105000I-150000J0D01*
G01*
X9700000Y67105000D01*
G75*
G02*
X9550000Y67255000I0J150000D01*
G01*
G37*
G36*
G01*
X9550000Y65985000D02*
X9550000Y66285000D01*
G75*
G02*
X9700000Y66435000I150000J0D01*
G01*
X11350000Y66435000D01*
G75*
G02*
X11500000Y66285000I0J-150000D01*
G01*
X11500000Y65985000D01*
G75*
G02*
X11350000Y65835000I-150000J0D01*
G01*
X9700000Y65835000D01*
G75*
G02*
X9550000Y65985000I0J150000D01*
G01*
G37*
G36*
G01*
X9550000Y64715000D02*
X9550000Y65015000D01*
G75*
G02*
X9700000Y65165000I150000J0D01*
G01*
X11350000Y65165000D01*
G75*
G02*
X11500000Y65015000I0J-150000D01*
G01*
X11500000Y64715000D01*
G75*
G02*
X11350000Y64565000I-150000J0D01*
G01*
X9700000Y64565000D01*
G75*
G02*
X9550000Y64715000I0J150000D01*
G01*
G37*
G36*
G01*
X9550000Y63445000D02*
X9550000Y63745000D01*
G75*
G02*
X9700000Y63895000I150000J0D01*
G01*
X11350000Y63895000D01*
G75*
G02*
X11500000Y63745000I0J-150000D01*
G01*
X11500000Y63445000D01*
G75*
G02*
X11350000Y63295000I-150000J0D01*
G01*
X9700000Y63295000D01*
G75*
G02*
X9550000Y63445000I0J150000D01*
G01*
G37*
G36*
G01*
X14500000Y63445000D02*
X14500000Y63745000D01*
G75*
G02*
X14650000Y63895000I150000J0D01*
G01*
X16300000Y63895000D01*
G75*
G02*
X16450000Y63745000I0J-150000D01*
G01*
X16450000Y63445000D01*
G75*
G02*
X16300000Y63295000I-150000J0D01*
G01*
X14650000Y63295000D01*
G75*
G02*
X14500000Y63445000I0J150000D01*
G01*
G37*
G36*
G01*
X14500000Y64715000D02*
X14500000Y65015000D01*
G75*
G02*
X14650000Y65165000I150000J0D01*
G01*
X16300000Y65165000D01*
G75*
G02*
X16450000Y65015000I0J-150000D01*
G01*
X16450000Y64715000D01*
G75*
G02*
X16300000Y64565000I-150000J0D01*
G01*
X14650000Y64565000D01*
G75*
G02*
X14500000Y64715000I0J150000D01*
G01*
G37*
G36*
G01*
X14500000Y65985000D02*
X14500000Y66285000D01*
G75*
G02*
X14650000Y66435000I150000J0D01*
G01*
X16300000Y66435000D01*
G75*
G02*
X16450000Y66285000I0J-150000D01*
G01*
X16450000Y65985000D01*
G75*
G02*
X16300000Y65835000I-150000J0D01*
G01*
X14650000Y65835000D01*
G75*
G02*
X14500000Y65985000I0J150000D01*
G01*
G37*
G36*
G01*
X14500000Y67255000D02*
X14500000Y67555000D01*
G75*
G02*
X14650000Y67705000I150000J0D01*
G01*
X16300000Y67705000D01*
G75*
G02*
X16450000Y67555000I0J-150000D01*
G01*
X16450000Y67255000D01*
G75*
G02*
X16300000Y67105000I-150000J0D01*
G01*
X14650000Y67105000D01*
G75*
G02*
X14500000Y67255000I0J150000D01*
G01*
G37*
G04 #@! TD*
G04 #@! TO.C,D8*
G36*
G01*
X10300000Y60175000D02*
X10600000Y60175000D01*
G75*
G02*
X10750000Y60025000I0J-150000D01*
G01*
X10750000Y58850000D01*
G75*
G02*
X10600000Y58700000I-150000J0D01*
G01*
X10300000Y58700000D01*
G75*
G02*
X10150000Y58850000I0J150000D01*
G01*
X10150000Y60025000D01*
G75*
G02*
X10300000Y60175000I150000J0D01*
G01*
G37*
G36*
G01*
X8400000Y60175000D02*
X8700000Y60175000D01*
G75*
G02*
X8850000Y60025000I0J-150000D01*
G01*
X8850000Y58850000D01*
G75*
G02*
X8700000Y58700000I-150000J0D01*
G01*
X8400000Y58700000D01*
G75*
G02*
X8250000Y58850000I0J150000D01*
G01*
X8250000Y60025000D01*
G75*
G02*
X8400000Y60175000I150000J0D01*
G01*
G37*
G36*
G01*
X9350000Y58300000D02*
X9650000Y58300000D01*
G75*
G02*
X9800000Y58150000I0J-150000D01*
G01*
X9800000Y56975000D01*
G75*
G02*
X9650000Y56825000I-150000J0D01*
G01*
X9350000Y56825000D01*
G75*
G02*
X9200000Y56975000I0J150000D01*
G01*
X9200000Y58150000D01*
G75*
G02*
X9350000Y58300000I150000J0D01*
G01*
G37*
G04 #@! TD*
G04 #@! TO.C,U9*
G36*
G01*
X70050000Y56255000D02*
X70050000Y56555000D01*
G75*
G02*
X70200000Y56705000I150000J0D01*
G01*
X71850000Y56705000D01*
G75*
G02*
X72000000Y56555000I0J-150000D01*
G01*
X72000000Y56255000D01*
G75*
G02*
X71850000Y56105000I-150000J0D01*
G01*
X70200000Y56105000D01*
G75*
G02*
X70050000Y56255000I0J150000D01*
G01*
G37*
G36*
G01*
X70050000Y54985000D02*
X70050000Y55285000D01*
G75*
G02*
X70200000Y55435000I150000J0D01*
G01*
X71850000Y55435000D01*
G75*
G02*
X72000000Y55285000I0J-150000D01*
G01*
X72000000Y54985000D01*
G75*
G02*
X71850000Y54835000I-150000J0D01*
G01*
X70200000Y54835000D01*
G75*
G02*
X70050000Y54985000I0J150000D01*
G01*
G37*
G36*
G01*
X70050000Y53715000D02*
X70050000Y54015000D01*
G75*
G02*
X70200000Y54165000I150000J0D01*
G01*
X71850000Y54165000D01*
G75*
G02*
X72000000Y54015000I0J-150000D01*
G01*
X72000000Y53715000D01*
G75*
G02*
X71850000Y53565000I-150000J0D01*
G01*
X70200000Y53565000D01*
G75*
G02*
X70050000Y53715000I0J150000D01*
G01*
G37*
G36*
G01*
X70050000Y52445000D02*
X70050000Y52745000D01*
G75*
G02*
X70200000Y52895000I150000J0D01*
G01*
X71850000Y52895000D01*
G75*
G02*
X72000000Y52745000I0J-150000D01*
G01*
X72000000Y52445000D01*
G75*
G02*
X71850000Y52295000I-150000J0D01*
G01*
X70200000Y52295000D01*
G75*
G02*
X70050000Y52445000I0J150000D01*
G01*
G37*
G36*
G01*
X75000000Y52445000D02*
X75000000Y52745000D01*
G75*
G02*
X75150000Y52895000I150000J0D01*
G01*
X76800000Y52895000D01*
G75*
G02*
X76950000Y52745000I0J-150000D01*
G01*
X76950000Y52445000D01*
G75*
G02*
X76800000Y52295000I-150000J0D01*
G01*
X75150000Y52295000D01*
G75*
G02*
X75000000Y52445000I0J150000D01*
G01*
G37*
G36*
G01*
X75000000Y53715000D02*
X75000000Y54015000D01*
G75*
G02*
X75150000Y54165000I150000J0D01*
G01*
X76800000Y54165000D01*
G75*
G02*
X76950000Y54015000I0J-150000D01*
G01*
X76950000Y53715000D01*
G75*
G02*
X76800000Y53565000I-150000J0D01*
G01*
X75150000Y53565000D01*
G75*
G02*
X75000000Y53715000I0J150000D01*
G01*
G37*
G36*
G01*
X75000000Y54985000D02*
X75000000Y55285000D01*
G75*
G02*
X75150000Y55435000I150000J0D01*
G01*
X76800000Y55435000D01*
G75*
G02*
X76950000Y55285000I0J-150000D01*
G01*
X76950000Y54985000D01*
G75*
G02*
X76800000Y54835000I-150000J0D01*
G01*
X75150000Y54835000D01*
G75*
G02*
X75000000Y54985000I0J150000D01*
G01*
G37*
G36*
G01*
X75000000Y56255000D02*
X75000000Y56555000D01*
G75*
G02*
X75150000Y56705000I150000J0D01*
G01*
X76800000Y56705000D01*
G75*
G02*
X76950000Y56555000I0J-150000D01*
G01*
X76950000Y56255000D01*
G75*
G02*
X76800000Y56105000I-150000J0D01*
G01*
X75150000Y56105000D01*
G75*
G02*
X75000000Y56255000I0J150000D01*
G01*
G37*
G04 #@! TD*
G04 #@! TO.C,L2*
G36*
G01*
X12756250Y57487500D02*
X12243750Y57487500D01*
G75*
G02*
X12025000Y57706250I0J218750D01*
G01*
X12025000Y58143750D01*
G75*
G02*
X12243750Y58362500I218750J0D01*
G01*
X12756250Y58362500D01*
G75*
G02*
X12975000Y58143750I0J-218750D01*
G01*
X12975000Y57706250D01*
G75*
G02*
X12756250Y57487500I-218750J0D01*
G01*
G37*
G36*
G01*
X12756250Y59062500D02*
X12243750Y59062500D01*
G75*
G02*
X12025000Y59281250I0J218750D01*
G01*
X12025000Y59718750D01*
G75*
G02*
X12243750Y59937500I218750J0D01*
G01*
X12756250Y59937500D01*
G75*
G02*
X12975000Y59718750I0J-218750D01*
G01*
X12975000Y59281250D01*
G75*
G02*
X12756250Y59062500I-218750J0D01*
G01*
G37*
G04 #@! TD*
G04 #@! TO.C,U10*
G36*
G01*
X70050000Y48755000D02*
X70050000Y49055000D01*
G75*
G02*
X70200000Y49205000I150000J0D01*
G01*
X71850000Y49205000D01*
G75*
G02*
X72000000Y49055000I0J-150000D01*
G01*
X72000000Y48755000D01*
G75*
G02*
X71850000Y48605000I-150000J0D01*
G01*
X70200000Y48605000D01*
G75*
G02*
X70050000Y48755000I0J150000D01*
G01*
G37*
G36*
G01*
X70050000Y47485000D02*
X70050000Y47785000D01*
G75*
G02*
X70200000Y47935000I150000J0D01*
G01*
X71850000Y47935000D01*
G75*
G02*
X72000000Y47785000I0J-150000D01*
G01*
X72000000Y47485000D01*
G75*
G02*
X71850000Y47335000I-150000J0D01*
G01*
X70200000Y47335000D01*
G75*
G02*
X70050000Y47485000I0J150000D01*
G01*
G37*
G36*
G01*
X70050000Y46215000D02*
X70050000Y46515000D01*
G75*
G02*
X70200000Y46665000I150000J0D01*
G01*
X71850000Y46665000D01*
G75*
G02*
X72000000Y46515000I0J-150000D01*
G01*
X72000000Y46215000D01*
G75*
G02*
X71850000Y46065000I-150000J0D01*
G01*
X70200000Y46065000D01*
G75*
G02*
X70050000Y46215000I0J150000D01*
G01*
G37*
G36*
G01*
X70050000Y44945000D02*
X70050000Y45245000D01*
G75*
G02*
X70200000Y45395000I150000J0D01*
G01*
X71850000Y45395000D01*
G75*
G02*
X72000000Y45245000I0J-150000D01*
G01*
X72000000Y44945000D01*
G75*
G02*
X71850000Y44795000I-150000J0D01*
G01*
X70200000Y44795000D01*
G75*
G02*
X70050000Y44945000I0J150000D01*
G01*
G37*
G36*
G01*
X75000000Y44945000D02*
X75000000Y45245000D01*
G75*
G02*
X75150000Y45395000I150000J0D01*
G01*
X76800000Y45395000D01*
G75*
G02*
X76950000Y45245000I0J-150000D01*
G01*
X76950000Y44945000D01*
G75*
G02*
X76800000Y44795000I-150000J0D01*
G01*
X75150000Y44795000D01*
G75*
G02*
X75000000Y44945000I0J150000D01*
G01*
G37*
G36*
G01*
X75000000Y46215000D02*
X75000000Y46515000D01*
G75*
G02*
X75150000Y46665000I150000J0D01*
G01*
X76800000Y46665000D01*
G75*
G02*
X76950000Y46515000I0J-150000D01*
G01*
X76950000Y46215000D01*
G75*
G02*
X76800000Y46065000I-150000J0D01*
G01*
X75150000Y46065000D01*
G75*
G02*
X75000000Y46215000I0J150000D01*
G01*
G37*
G36*
G01*
X75000000Y47485000D02*
X75000000Y47785000D01*
G75*
G02*
X75150000Y47935000I150000J0D01*
G01*
X76800000Y47935000D01*
G75*
G02*
X76950000Y47785000I0J-150000D01*
G01*
X76950000Y47485000D01*
G75*
G02*
X76800000Y47335000I-150000J0D01*
G01*
X75150000Y47335000D01*
G75*
G02*
X75000000Y47485000I0J150000D01*
G01*
G37*
G36*
G01*
X75000000Y48755000D02*
X75000000Y49055000D01*
G75*
G02*
X75150000Y49205000I150000J0D01*
G01*
X76800000Y49205000D01*
G75*
G02*
X76950000Y49055000I0J-150000D01*
G01*
X76950000Y48755000D01*
G75*
G02*
X76800000Y48605000I-150000J0D01*
G01*
X75150000Y48605000D01*
G75*
G02*
X75000000Y48755000I0J150000D01*
G01*
G37*
G04 #@! TD*
D12*
G04 #@! TO.C,CAN1*
X33812501Y70856666D03*
G04 #@! TD*
G04 #@! TO.C,F7*
G36*
G01*
X14562500Y48243750D02*
X14562500Y48756250D01*
G75*
G02*
X14781250Y48975000I218750J0D01*
G01*
X15218750Y48975000D01*
G75*
G02*
X15437500Y48756250I0J-218750D01*
G01*
X15437500Y48243750D01*
G75*
G02*
X15218750Y48025000I-218750J0D01*
G01*
X14781250Y48025000D01*
G75*
G02*
X14562500Y48243750I0J218750D01*
G01*
G37*
G36*
G01*
X16137500Y48243750D02*
X16137500Y48756250D01*
G75*
G02*
X16356250Y48975000I218750J0D01*
G01*
X16793750Y48975000D01*
G75*
G02*
X17012500Y48756250I0J-218750D01*
G01*
X17012500Y48243750D01*
G75*
G02*
X16793750Y48025000I-218750J0D01*
G01*
X16356250Y48025000D01*
G75*
G02*
X16137500Y48243750I0J218750D01*
G01*
G37*
G04 #@! TD*
G04 #@! TO.C,R4*
G36*
G01*
X49355001Y72625000D02*
X49355001Y71375000D01*
G75*
G02*
X49255001Y71275000I-100000J0D01*
G01*
X48455001Y71275000D01*
G75*
G02*
X48355001Y71375000I0J100000D01*
G01*
X48355001Y72625000D01*
G75*
G02*
X48455001Y72725000I100000J0D01*
G01*
X49255001Y72725000D01*
G75*
G02*
X49355001Y72625000I0J-100000D01*
G01*
G37*
G36*
G01*
X47454979Y72625000D02*
X47454979Y71375000D01*
G75*
G02*
X47354979Y71275000I-100000J0D01*
G01*
X46554979Y71275000D01*
G75*
G02*
X46454979Y71375000I0J100000D01*
G01*
X46454979Y72625000D01*
G75*
G02*
X46554979Y72725000I100000J0D01*
G01*
X47354979Y72725000D01*
G75*
G02*
X47454979Y72625000I0J-100000D01*
G01*
G37*
G04 #@! TD*
G04 #@! TO.C,R2*
G36*
G01*
X61550000Y8110000D02*
X61550000Y8890000D01*
G75*
G02*
X61620000Y8960000I70000J0D01*
G01*
X62180000Y8960000D01*
G75*
G02*
X62250000Y8890000I0J-70000D01*
G01*
X62250000Y8110000D01*
G75*
G02*
X62180000Y8040000I-70000J0D01*
G01*
X61620000Y8040000D01*
G75*
G02*
X61550000Y8110000I0J70000D01*
G01*
G37*
G36*
G01*
X63150000Y8110000D02*
X63150000Y8890000D01*
G75*
G02*
X63220000Y8960000I70000J0D01*
G01*
X63780000Y8960000D01*
G75*
G02*
X63850000Y8890000I0J-70000D01*
G01*
X63850000Y8110000D01*
G75*
G02*
X63780000Y8040000I-70000J0D01*
G01*
X63220000Y8040000D01*
G75*
G02*
X63150000Y8110000I0J70000D01*
G01*
G37*
G04 #@! TD*
G04 #@! TO.C,C26*
G36*
G01*
X83715001Y10340000D02*
X83715001Y9660000D01*
G75*
G02*
X83630001Y9575000I-85000J0D01*
G01*
X82950001Y9575000D01*
G75*
G02*
X82865001Y9660000I0J85000D01*
G01*
X82865001Y10340000D01*
G75*
G02*
X82950001Y10425000I85000J0D01*
G01*
X83630001Y10425000D01*
G75*
G02*
X83715001Y10340000I0J-85000D01*
G01*
G37*
G36*
G01*
X82134999Y10340000D02*
X82134999Y9660000D01*
G75*
G02*
X82049999Y9575000I-85000J0D01*
G01*
X81369999Y9575000D01*
G75*
G02*
X81284999Y9660000I0J85000D01*
G01*
X81284999Y10340000D01*
G75*
G02*
X81369999Y10425000I85000J0D01*
G01*
X82049999Y10425000D01*
G75*
G02*
X82134999Y10340000I0J-85000D01*
G01*
G37*
G04 #@! TD*
G04 #@! TO.C,R6*
G36*
G01*
X16850000Y29110000D02*
X16850000Y29890000D01*
G75*
G02*
X16920000Y29960000I70000J0D01*
G01*
X17480000Y29960000D01*
G75*
G02*
X17550000Y29890000I0J-70000D01*
G01*
X17550000Y29110000D01*
G75*
G02*
X17480000Y29040000I-70000J0D01*
G01*
X16920000Y29040000D01*
G75*
G02*
X16850000Y29110000I0J70000D01*
G01*
G37*
G36*
G01*
X18450000Y29110000D02*
X18450000Y29890000D01*
G75*
G02*
X18520000Y29960000I70000J0D01*
G01*
X19080000Y29960000D01*
G75*
G02*
X19150000Y29890000I0J-70000D01*
G01*
X19150000Y29110000D01*
G75*
G02*
X19080000Y29040000I-70000J0D01*
G01*
X18520000Y29040000D01*
G75*
G02*
X18450000Y29110000I0J70000D01*
G01*
G37*
G04 #@! TD*
G04 #@! TO.C,R20*
G36*
G01*
X11637500Y52110000D02*
X11637500Y52890000D01*
G75*
G02*
X11707500Y52960000I70000J0D01*
G01*
X12267500Y52960000D01*
G75*
G02*
X12337500Y52890000I0J-70000D01*
G01*
X12337500Y52110000D01*
G75*
G02*
X12267500Y52040000I-70000J0D01*
G01*
X11707500Y52040000D01*
G75*
G02*
X11637500Y52110000I0J70000D01*
G01*
G37*
G36*
G01*
X13237500Y52110000D02*
X13237500Y52890000D01*
G75*
G02*
X13307500Y52960000I70000J0D01*
G01*
X13867500Y52960000D01*
G75*
G02*
X13937500Y52890000I0J-70000D01*
G01*
X13937500Y52110000D01*
G75*
G02*
X13867500Y52040000I-70000J0D01*
G01*
X13307500Y52040000D01*
G75*
G02*
X13237500Y52110000I0J70000D01*
G01*
G37*
G04 #@! TD*
G04 #@! TO.C,R26*
G36*
G01*
X11637500Y46110000D02*
X11637500Y46890000D01*
G75*
G02*
X11707500Y46960000I70000J0D01*
G01*
X12267500Y46960000D01*
G75*
G02*
X12337500Y46890000I0J-70000D01*
G01*
X12337500Y46110000D01*
G75*
G02*
X12267500Y46040000I-70000J0D01*
G01*
X11707500Y46040000D01*
G75*
G02*
X11637500Y46110000I0J70000D01*
G01*
G37*
G36*
G01*
X13237500Y46110000D02*
X13237500Y46890000D01*
G75*
G02*
X13307500Y46960000I70000J0D01*
G01*
X13867500Y46960000D01*
G75*
G02*
X13937500Y46890000I0J-70000D01*
G01*
X13937500Y46110000D01*
G75*
G02*
X13867500Y46040000I-70000J0D01*
G01*
X13307500Y46040000D01*
G75*
G02*
X13237500Y46110000I0J70000D01*
G01*
G37*
G04 #@! TD*
G04 #@! TO.C,R28*
G36*
G01*
X11637500Y42110000D02*
X11637500Y42890000D01*
G75*
G02*
X11707500Y42960000I70000J0D01*
G01*
X12267500Y42960000D01*
G75*
G02*
X12337500Y42890000I0J-70000D01*
G01*
X12337500Y42110000D01*
G75*
G02*
X12267500Y42040000I-70000J0D01*
G01*
X11707500Y42040000D01*
G75*
G02*
X11637500Y42110000I0J70000D01*
G01*
G37*
G36*
G01*
X13237500Y42110000D02*
X13237500Y42890000D01*
G75*
G02*
X13307500Y42960000I70000J0D01*
G01*
X13867500Y42960000D01*
G75*
G02*
X13937500Y42890000I0J-70000D01*
G01*
X13937500Y42110000D01*
G75*
G02*
X13867500Y42040000I-70000J0D01*
G01*
X13307500Y42040000D01*
G75*
G02*
X13237500Y42110000I0J70000D01*
G01*
G37*
G04 #@! TD*
G04 #@! TO.C,C11*
G36*
G01*
X63494998Y28160000D02*
X63494998Y28840000D01*
G75*
G02*
X63579998Y28925000I85000J0D01*
G01*
X64259998Y28925000D01*
G75*
G02*
X64344998Y28840000I0J-85000D01*
G01*
X64344998Y28160000D01*
G75*
G02*
X64259998Y28075000I-85000J0D01*
G01*
X63579998Y28075000D01*
G75*
G02*
X63494998Y28160000I0J85000D01*
G01*
G37*
G36*
G01*
X65075000Y28160000D02*
X65075000Y28840000D01*
G75*
G02*
X65160000Y28925000I85000J0D01*
G01*
X65840000Y28925000D01*
G75*
G02*
X65925000Y28840000I0J-85000D01*
G01*
X65925000Y28160000D01*
G75*
G02*
X65840000Y28075000I-85000J0D01*
G01*
X65160000Y28075000D01*
G75*
G02*
X65075000Y28160000I0J85000D01*
G01*
G37*
G04 #@! TD*
G04 #@! TO.C,R22*
G36*
G01*
X11637500Y48110000D02*
X11637500Y48890000D01*
G75*
G02*
X11707500Y48960000I70000J0D01*
G01*
X12267500Y48960000D01*
G75*
G02*
X12337500Y48890000I0J-70000D01*
G01*
X12337500Y48110000D01*
G75*
G02*
X12267500Y48040000I-70000J0D01*
G01*
X11707500Y48040000D01*
G75*
G02*
X11637500Y48110000I0J70000D01*
G01*
G37*
G36*
G01*
X13237500Y48110000D02*
X13237500Y48890000D01*
G75*
G02*
X13307500Y48960000I70000J0D01*
G01*
X13867500Y48960000D01*
G75*
G02*
X13937500Y48890000I0J-70000D01*
G01*
X13937500Y48110000D01*
G75*
G02*
X13867500Y48040000I-70000J0D01*
G01*
X13307500Y48040000D01*
G75*
G02*
X13237500Y48110000I0J70000D01*
G01*
G37*
G04 #@! TD*
G04 #@! TO.C,F8*
G36*
G01*
X14562500Y46243750D02*
X14562500Y46756250D01*
G75*
G02*
X14781250Y46975000I218750J0D01*
G01*
X15218750Y46975000D01*
G75*
G02*
X15437500Y46756250I0J-218750D01*
G01*
X15437500Y46243750D01*
G75*
G02*
X15218750Y46025000I-218750J0D01*
G01*
X14781250Y46025000D01*
G75*
G02*
X14562500Y46243750I0J218750D01*
G01*
G37*
G36*
G01*
X16137500Y46243750D02*
X16137500Y46756250D01*
G75*
G02*
X16356250Y46975000I218750J0D01*
G01*
X16793750Y46975000D01*
G75*
G02*
X17012500Y46756250I0J-218750D01*
G01*
X17012500Y46243750D01*
G75*
G02*
X16793750Y46025000I-218750J0D01*
G01*
X16356250Y46025000D01*
G75*
G02*
X16137500Y46243750I0J218750D01*
G01*
G37*
G04 #@! TD*
G04 #@! TO.C,C32*
G36*
G01*
X5284999Y61690000D02*
X5284999Y62370000D01*
G75*
G02*
X5369999Y62455000I85000J0D01*
G01*
X6049999Y62455000D01*
G75*
G02*
X6134999Y62370000I0J-85000D01*
G01*
X6134999Y61690000D01*
G75*
G02*
X6049999Y61605000I-85000J0D01*
G01*
X5369999Y61605000D01*
G75*
G02*
X5284999Y61690000I0J85000D01*
G01*
G37*
G36*
G01*
X6865001Y61690000D02*
X6865001Y62370000D01*
G75*
G02*
X6950001Y62455000I85000J0D01*
G01*
X7630001Y62455000D01*
G75*
G02*
X7715001Y62370000I0J-85000D01*
G01*
X7715001Y61690000D01*
G75*
G02*
X7630001Y61605000I-85000J0D01*
G01*
X6950001Y61605000D01*
G75*
G02*
X6865001Y61690000I0J85000D01*
G01*
G37*
G04 #@! TD*
G04 #@! TO.C,MAP1*
G36*
G01*
X23190000Y72348700D02*
X23190000Y71841300D01*
G75*
G02*
X23148700Y71800000I-41300J0D01*
G01*
X21211300Y71800000D01*
G75*
G02*
X21170000Y71841300I0J41300D01*
G01*
X21170000Y72348700D01*
G75*
G02*
X21211300Y72390000I41300J0D01*
G01*
X23148700Y72390000D01*
G75*
G02*
X23190000Y72348700I0J-41300D01*
G01*
G37*
G36*
G01*
X23190000Y73618700D02*
X23190000Y73111300D01*
G75*
G02*
X23148700Y73070000I-41300J0D01*
G01*
X21211300Y73070000D01*
G75*
G02*
X21170000Y73111300I0J41300D01*
G01*
X21170000Y73618700D01*
G75*
G02*
X21211300Y73660000I41300J0D01*
G01*
X23148700Y73660000D01*
G75*
G02*
X23190000Y73618700I0J-41300D01*
G01*
G37*
G36*
G01*
X23190000Y74888700D02*
X23190000Y74381300D01*
G75*
G02*
X23148700Y74340000I-41300J0D01*
G01*
X21211300Y74340000D01*
G75*
G02*
X21170000Y74381300I0J41300D01*
G01*
X21170000Y74888700D01*
G75*
G02*
X21211300Y74930000I41300J0D01*
G01*
X23148700Y74930000D01*
G75*
G02*
X23190000Y74888700I0J-41300D01*
G01*
G37*
G36*
G01*
X23190000Y76158700D02*
X23190000Y75651300D01*
G75*
G02*
X23148700Y75610000I-41300J0D01*
G01*
X21211300Y75610000D01*
G75*
G02*
X21170000Y75651300I0J41300D01*
G01*
X21170000Y76158700D01*
G75*
G02*
X21211300Y76200000I41300J0D01*
G01*
X23148700Y76200000D01*
G75*
G02*
X23190000Y76158700I0J-41300D01*
G01*
G37*
G36*
G01*
X13830000Y76158700D02*
X13830000Y75651300D01*
G75*
G02*
X13788700Y75610000I-41300J0D01*
G01*
X11851300Y75610000D01*
G75*
G02*
X11810000Y75651300I0J41300D01*
G01*
X11810000Y76158700D01*
G75*
G02*
X11851300Y76200000I41300J0D01*
G01*
X13788700Y76200000D01*
G75*
G02*
X13830000Y76158700I0J-41300D01*
G01*
G37*
G36*
G01*
X13830000Y74888700D02*
X13830000Y74381300D01*
G75*
G02*
X13788700Y74340000I-41300J0D01*
G01*
X11851300Y74340000D01*
G75*
G02*
X11810000Y74381300I0J41300D01*
G01*
X11810000Y74888700D01*
G75*
G02*
X11851300Y74930000I41300J0D01*
G01*
X13788700Y74930000D01*
G75*
G02*
X13830000Y74888700I0J-41300D01*
G01*
G37*
G36*
G01*
X13830000Y73618700D02*
X13830000Y73111300D01*
G75*
G02*
X13788700Y73070000I-41300J0D01*
G01*
X11851300Y73070000D01*
G75*
G02*
X11810000Y73111300I0J41300D01*
G01*
X11810000Y73618700D01*
G75*
G02*
X11851300Y73660000I41300J0D01*
G01*
X13788700Y73660000D01*
G75*
G02*
X13830000Y73618700I0J-41300D01*
G01*
G37*
G36*
G01*
X13830000Y72348700D02*
X13830000Y71841300D01*
G75*
G02*
X13788700Y71800000I-41300J0D01*
G01*
X11851300Y71800000D01*
G75*
G02*
X11810000Y71841300I0J41300D01*
G01*
X11810000Y72348700D01*
G75*
G02*
X11851300Y72390000I41300J0D01*
G01*
X13788700Y72390000D01*
G75*
G02*
X13830000Y72348700I0J-41300D01*
G01*
G37*
G04 #@! TD*
G04 #@! TO.C,C12*
G36*
G01*
X63494998Y25160000D02*
X63494998Y25840000D01*
G75*
G02*
X63579998Y25925000I85000J0D01*
G01*
X64259998Y25925000D01*
G75*
G02*
X64344998Y25840000I0J-85000D01*
G01*
X64344998Y25160000D01*
G75*
G02*
X64259998Y25075000I-85000J0D01*
G01*
X63579998Y25075000D01*
G75*
G02*
X63494998Y25160000I0J85000D01*
G01*
G37*
G36*
G01*
X65075000Y25160000D02*
X65075000Y25840000D01*
G75*
G02*
X65160000Y25925000I85000J0D01*
G01*
X65840000Y25925000D01*
G75*
G02*
X65925000Y25840000I0J-85000D01*
G01*
X65925000Y25160000D01*
G75*
G02*
X65840000Y25075000I-85000J0D01*
G01*
X65160000Y25075000D01*
G75*
G02*
X65075000Y25160000I0J85000D01*
G01*
G37*
G04 #@! TD*
G04 #@! TO.C,R3*
G36*
G01*
X63850000Y7390000D02*
X63850000Y6610000D01*
G75*
G02*
X63780000Y6540000I-70000J0D01*
G01*
X63220000Y6540000D01*
G75*
G02*
X63150000Y6610000I0J70000D01*
G01*
X63150000Y7390000D01*
G75*
G02*
X63220000Y7460000I70000J0D01*
G01*
X63780000Y7460000D01*
G75*
G02*
X63850000Y7390000I0J-70000D01*
G01*
G37*
G36*
G01*
X62250000Y7390000D02*
X62250000Y6610000D01*
G75*
G02*
X62180000Y6540000I-70000J0D01*
G01*
X61620000Y6540000D01*
G75*
G02*
X61550000Y6610000I0J70000D01*
G01*
X61550000Y7390000D01*
G75*
G02*
X61620000Y7460000I70000J0D01*
G01*
X62180000Y7460000D01*
G75*
G02*
X62250000Y7390000I0J-70000D01*
G01*
G37*
G04 #@! TD*
G04 #@! TO.C,F4*
G36*
G01*
X61394990Y20100000D02*
X60704990Y20100000D01*
G75*
G02*
X60474990Y20330000I0J230000D01*
G01*
X60474990Y21670000D01*
G75*
G02*
X60704990Y21900000I230000J0D01*
G01*
X61394990Y21900000D01*
G75*
G02*
X61624990Y21670000I0J-230000D01*
G01*
X61624990Y20330000D01*
G75*
G02*
X61394990Y20100000I-230000J0D01*
G01*
G37*
G36*
G01*
X64295010Y20100000D02*
X63605010Y20100000D01*
G75*
G02*
X63375010Y20330000I0J230000D01*
G01*
X63375010Y21670000D01*
G75*
G02*
X63605010Y21900000I230000J0D01*
G01*
X64295010Y21900000D01*
G75*
G02*
X64525010Y21670000I0J-230000D01*
G01*
X64525010Y20330000D01*
G75*
G02*
X64295010Y20100000I-230000J0D01*
G01*
G37*
G04 #@! TD*
G04 #@! TO.C,F9*
G36*
G01*
X14562500Y44243750D02*
X14562500Y44756250D01*
G75*
G02*
X14781250Y44975000I218750J0D01*
G01*
X15218750Y44975000D01*
G75*
G02*
X15437500Y44756250I0J-218750D01*
G01*
X15437500Y44243750D01*
G75*
G02*
X15218750Y44025000I-218750J0D01*
G01*
X14781250Y44025000D01*
G75*
G02*
X14562500Y44243750I0J218750D01*
G01*
G37*
G36*
G01*
X16137500Y44243750D02*
X16137500Y44756250D01*
G75*
G02*
X16356250Y44975000I218750J0D01*
G01*
X16793750Y44975000D01*
G75*
G02*
X17012500Y44756250I0J-218750D01*
G01*
X17012500Y44243750D01*
G75*
G02*
X16793750Y44025000I-218750J0D01*
G01*
X16356250Y44025000D01*
G75*
G02*
X16137500Y44243750I0J218750D01*
G01*
G37*
G04 #@! TD*
G04 #@! TO.C,F10*
G36*
G01*
X14562500Y42243750D02*
X14562500Y42756250D01*
G75*
G02*
X14781250Y42975000I218750J0D01*
G01*
X15218750Y42975000D01*
G75*
G02*
X15437500Y42756250I0J-218750D01*
G01*
X15437500Y42243750D01*
G75*
G02*
X15218750Y42025000I-218750J0D01*
G01*
X14781250Y42025000D01*
G75*
G02*
X14562500Y42243750I0J218750D01*
G01*
G37*
G36*
G01*
X16137500Y42243750D02*
X16137500Y42756250D01*
G75*
G02*
X16356250Y42975000I218750J0D01*
G01*
X16793750Y42975000D01*
G75*
G02*
X17012500Y42756250I0J-218750D01*
G01*
X17012500Y42243750D01*
G75*
G02*
X16793750Y42025000I-218750J0D01*
G01*
X16356250Y42025000D01*
G75*
G02*
X16137500Y42243750I0J218750D01*
G01*
G37*
G04 #@! TD*
G04 #@! TO.C,F2*
G36*
G01*
X73894990Y2100000D02*
X73204990Y2100000D01*
G75*
G02*
X72974990Y2330000I0J230000D01*
G01*
X72974990Y3670000D01*
G75*
G02*
X73204990Y3900000I230000J0D01*
G01*
X73894990Y3900000D01*
G75*
G02*
X74124990Y3670000I0J-230000D01*
G01*
X74124990Y2330000D01*
G75*
G02*
X73894990Y2100000I-230000J0D01*
G01*
G37*
G36*
G01*
X76795010Y2100000D02*
X76105010Y2100000D01*
G75*
G02*
X75875010Y2330000I0J230000D01*
G01*
X75875010Y3670000D01*
G75*
G02*
X76105010Y3900000I230000J0D01*
G01*
X76795010Y3900000D01*
G75*
G02*
X77025010Y3670000I0J-230000D01*
G01*
X77025010Y2330000D01*
G75*
G02*
X76795010Y2100000I-230000J0D01*
G01*
G37*
G04 #@! TD*
G04 #@! TO.C,F3*
G36*
G01*
X61394990Y17600000D02*
X60704990Y17600000D01*
G75*
G02*
X60474990Y17830000I0J230000D01*
G01*
X60474990Y19170000D01*
G75*
G02*
X60704990Y19400000I230000J0D01*
G01*
X61394990Y19400000D01*
G75*
G02*
X61624990Y19170000I0J-230000D01*
G01*
X61624990Y17830000D01*
G75*
G02*
X61394990Y17600000I-230000J0D01*
G01*
G37*
G36*
G01*
X64295010Y17600000D02*
X63605010Y17600000D01*
G75*
G02*
X63375010Y17830000I0J230000D01*
G01*
X63375010Y19170000D01*
G75*
G02*
X63605010Y19400000I230000J0D01*
G01*
X64295010Y19400000D01*
G75*
G02*
X64525010Y19170000I0J-230000D01*
G01*
X64525010Y17830000D01*
G75*
G02*
X64295010Y17600000I-230000J0D01*
G01*
G37*
G04 #@! TD*
G04 #@! TO.C,U11*
G36*
G01*
X70050000Y41255000D02*
X70050000Y41555000D01*
G75*
G02*
X70200000Y41705000I150000J0D01*
G01*
X71850000Y41705000D01*
G75*
G02*
X72000000Y41555000I0J-150000D01*
G01*
X72000000Y41255000D01*
G75*
G02*
X71850000Y41105000I-150000J0D01*
G01*
X70200000Y41105000D01*
G75*
G02*
X70050000Y41255000I0J150000D01*
G01*
G37*
G36*
G01*
X70050000Y39985000D02*
X70050000Y40285000D01*
G75*
G02*
X70200000Y40435000I150000J0D01*
G01*
X71850000Y40435000D01*
G75*
G02*
X72000000Y40285000I0J-150000D01*
G01*
X72000000Y39985000D01*
G75*
G02*
X71850000Y39835000I-150000J0D01*
G01*
X70200000Y39835000D01*
G75*
G02*
X70050000Y39985000I0J150000D01*
G01*
G37*
G36*
G01*
X70050000Y38715000D02*
X70050000Y39015000D01*
G75*
G02*
X70200000Y39165000I150000J0D01*
G01*
X71850000Y39165000D01*
G75*
G02*
X72000000Y39015000I0J-150000D01*
G01*
X72000000Y38715000D01*
G75*
G02*
X71850000Y38565000I-150000J0D01*
G01*
X70200000Y38565000D01*
G75*
G02*
X70050000Y38715000I0J150000D01*
G01*
G37*
G36*
G01*
X70050000Y37445000D02*
X70050000Y37745000D01*
G75*
G02*
X70200000Y37895000I150000J0D01*
G01*
X71850000Y37895000D01*
G75*
G02*
X72000000Y37745000I0J-150000D01*
G01*
X72000000Y37445000D01*
G75*
G02*
X71850000Y37295000I-150000J0D01*
G01*
X70200000Y37295000D01*
G75*
G02*
X70050000Y37445000I0J150000D01*
G01*
G37*
G36*
G01*
X75000000Y37445000D02*
X75000000Y37745000D01*
G75*
G02*
X75150000Y37895000I150000J0D01*
G01*
X76800000Y37895000D01*
G75*
G02*
X76950000Y37745000I0J-150000D01*
G01*
X76950000Y37445000D01*
G75*
G02*
X76800000Y37295000I-150000J0D01*
G01*
X75150000Y37295000D01*
G75*
G02*
X75000000Y37445000I0J150000D01*
G01*
G37*
G36*
G01*
X75000000Y38715000D02*
X75000000Y39015000D01*
G75*
G02*
X75150000Y39165000I150000J0D01*
G01*
X76800000Y39165000D01*
G75*
G02*
X76950000Y39015000I0J-150000D01*
G01*
X76950000Y38715000D01*
G75*
G02*
X76800000Y38565000I-150000J0D01*
G01*
X75150000Y38565000D01*
G75*
G02*
X75000000Y38715000I0J150000D01*
G01*
G37*
G36*
G01*
X75000000Y39985000D02*
X75000000Y40285000D01*
G75*
G02*
X75150000Y40435000I150000J0D01*
G01*
X76800000Y40435000D01*
G75*
G02*
X76950000Y40285000I0J-150000D01*
G01*
X76950000Y39985000D01*
G75*
G02*
X76800000Y39835000I-150000J0D01*
G01*
X75150000Y39835000D01*
G75*
G02*
X75000000Y39985000I0J150000D01*
G01*
G37*
G36*
G01*
X75000000Y41255000D02*
X75000000Y41555000D01*
G75*
G02*
X75150000Y41705000I150000J0D01*
G01*
X76800000Y41705000D01*
G75*
G02*
X76950000Y41555000I0J-150000D01*
G01*
X76950000Y41255000D01*
G75*
G02*
X76800000Y41105000I-150000J0D01*
G01*
X75150000Y41105000D01*
G75*
G02*
X75000000Y41255000I0J150000D01*
G01*
G37*
G04 #@! TD*
G04 #@! TO.C,F5*
G36*
G01*
X14562500Y50243750D02*
X14562500Y50756250D01*
G75*
G02*
X14781250Y50975000I218750J0D01*
G01*
X15218750Y50975000D01*
G75*
G02*
X15437500Y50756250I0J-218750D01*
G01*
X15437500Y50243750D01*
G75*
G02*
X15218750Y50025000I-218750J0D01*
G01*
X14781250Y50025000D01*
G75*
G02*
X14562500Y50243750I0J218750D01*
G01*
G37*
G36*
G01*
X16137500Y50243750D02*
X16137500Y50756250D01*
G75*
G02*
X16356250Y50975000I218750J0D01*
G01*
X16793750Y50975000D01*
G75*
G02*
X17012500Y50756250I0J-218750D01*
G01*
X17012500Y50243750D01*
G75*
G02*
X16793750Y50025000I-218750J0D01*
G01*
X16356250Y50025000D01*
G75*
G02*
X16137500Y50243750I0J218750D01*
G01*
G37*
G04 #@! TD*
G04 #@! TO.C,R27*
G36*
G01*
X11637500Y44110000D02*
X11637500Y44890000D01*
G75*
G02*
X11707500Y44960000I70000J0D01*
G01*
X12267500Y44960000D01*
G75*
G02*
X12337500Y44890000I0J-70000D01*
G01*
X12337500Y44110000D01*
G75*
G02*
X12267500Y44040000I-70000J0D01*
G01*
X11707500Y44040000D01*
G75*
G02*
X11637500Y44110000I0J70000D01*
G01*
G37*
G36*
G01*
X13237500Y44110000D02*
X13237500Y44890000D01*
G75*
G02*
X13307500Y44960000I70000J0D01*
G01*
X13867500Y44960000D01*
G75*
G02*
X13937500Y44890000I0J-70000D01*
G01*
X13937500Y44110000D01*
G75*
G02*
X13867500Y44040000I-70000J0D01*
G01*
X13307500Y44040000D01*
G75*
G02*
X13237500Y44110000I0J70000D01*
G01*
G37*
G04 #@! TD*
G04 #@! TO.C,R14*
G36*
G01*
X81350000Y13610000D02*
X81350000Y14390000D01*
G75*
G02*
X81420000Y14460000I70000J0D01*
G01*
X81980000Y14460000D01*
G75*
G02*
X82050000Y14390000I0J-70000D01*
G01*
X82050000Y13610000D01*
G75*
G02*
X81980000Y13540000I-70000J0D01*
G01*
X81420000Y13540000D01*
G75*
G02*
X81350000Y13610000I0J70000D01*
G01*
G37*
G36*
G01*
X82950000Y13610000D02*
X82950000Y14390000D01*
G75*
G02*
X83020000Y14460000I70000J0D01*
G01*
X83580000Y14460000D01*
G75*
G02*
X83650000Y14390000I0J-70000D01*
G01*
X83650000Y13610000D01*
G75*
G02*
X83580000Y13540000I-70000J0D01*
G01*
X83020000Y13540000D01*
G75*
G02*
X82950000Y13610000I0J70000D01*
G01*
G37*
G04 #@! TD*
G04 #@! TO.C,C24*
G36*
G01*
X63284999Y13660000D02*
X63284999Y14340000D01*
G75*
G02*
X63369999Y14425000I85000J0D01*
G01*
X64049999Y14425000D01*
G75*
G02*
X64134999Y14340000I0J-85000D01*
G01*
X64134999Y13660000D01*
G75*
G02*
X64049999Y13575000I-85000J0D01*
G01*
X63369999Y13575000D01*
G75*
G02*
X63284999Y13660000I0J85000D01*
G01*
G37*
G36*
G01*
X64865001Y13660000D02*
X64865001Y14340000D01*
G75*
G02*
X64950001Y14425000I85000J0D01*
G01*
X65630001Y14425000D01*
G75*
G02*
X65715001Y14340000I0J-85000D01*
G01*
X65715001Y13660000D01*
G75*
G02*
X65630001Y13575000I-85000J0D01*
G01*
X64950001Y13575000D01*
G75*
G02*
X64865001Y13660000I0J85000D01*
G01*
G37*
G04 #@! TD*
G04 #@! TO.C,R5*
G36*
G01*
X12549999Y37375000D02*
X12549999Y38625000D01*
G75*
G02*
X12649999Y38725000I100000J0D01*
G01*
X13449999Y38725000D01*
G75*
G02*
X13549999Y38625000I0J-100000D01*
G01*
X13549999Y37375000D01*
G75*
G02*
X13449999Y37275000I-100000J0D01*
G01*
X12649999Y37275000D01*
G75*
G02*
X12549999Y37375000I0J100000D01*
G01*
G37*
G36*
G01*
X14450021Y37375000D02*
X14450021Y38625000D01*
G75*
G02*
X14550021Y38725000I100000J0D01*
G01*
X15350021Y38725000D01*
G75*
G02*
X15450021Y38625000I0J-100000D01*
G01*
X15450021Y37375000D01*
G75*
G02*
X15350021Y37275000I-100000J0D01*
G01*
X14550021Y37275000D01*
G75*
G02*
X14450021Y37375000I0J100000D01*
G01*
G37*
G04 #@! TD*
M02*
