G04 #@! TF.GenerationSoftware,KiCad,Pcbnew,8.0.7-8.0.7-0~ubuntu24.04.1*
G04 #@! TF.CreationDate,2025-01-03T15:31:29+00:00*
G04 #@! TF.ProjectId,stabildaytona,73746162-696c-4646-9179-746f6e612e6b,D*
G04 #@! TF.SameCoordinates,PX2faf080PY9896800*
G04 #@! TF.FileFunction,Copper,L3,Inr*
G04 #@! TF.FilePolarity,Positive*
%FSLAX46Y46*%
G04 Gerber Fmt 4.6, Leading zero omitted, Abs format (unit mm)*
G04 Created by KiCad (PCBNEW 8.0.7-8.0.7-0~ubuntu24.04.1) date 2025-01-03 15:31:29*
%MOMM*%
%LPD*%
G01*
G04 APERTURE LIST*
G04 #@! TA.AperFunction,ComponentPad*
%ADD10C,1.500000*%
G04 #@! TD*
G04 #@! TA.AperFunction,ComponentPad*
%ADD11C,0.600000*%
G04 #@! TD*
G04 #@! TA.AperFunction,Conductor*
%ADD12O,0.200000X3.300000*%
G04 #@! TD*
G04 #@! TA.AperFunction,Conductor*
%ADD13O,0.200000X10.200000*%
G04 #@! TD*
G04 #@! TA.AperFunction,Conductor*
%ADD14O,0.200000X0.300000*%
G04 #@! TD*
G04 #@! TA.AperFunction,Conductor*
%ADD15O,17.000000X0.200000*%
G04 #@! TD*
G04 #@! TA.AperFunction,Conductor*
%ADD16O,15.400000X0.200000*%
G04 #@! TD*
G04 #@! TA.AperFunction,Conductor*
%ADD17O,0.200000X4.800000*%
G04 #@! TD*
G04 #@! TA.AperFunction,Conductor*
%ADD18O,0.200000X2.600000*%
G04 #@! TD*
G04 #@! TA.AperFunction,Conductor*
%ADD19O,0.200000X1.000000*%
G04 #@! TD*
G04 #@! TA.AperFunction,Conductor*
%ADD20O,0.200000X1.500000*%
G04 #@! TD*
G04 #@! TA.AperFunction,ComponentPad*
%ADD21R,1.700000X1.700000*%
G04 #@! TD*
G04 #@! TA.AperFunction,ComponentPad*
%ADD22O,1.700000X1.700000*%
G04 #@! TD*
G04 #@! TA.AperFunction,ComponentPad*
%ADD23O,1.200000X1.750000*%
G04 #@! TD*
G04 #@! TA.AperFunction,Conductor*
%ADD24O,1.225000X0.200000*%
G04 #@! TD*
G04 #@! TA.AperFunction,Conductor*
%ADD25O,0.200000X9.300000*%
G04 #@! TD*
G04 #@! TA.AperFunction,ComponentPad*
%ADD26C,1.524000*%
G04 #@! TD*
G04 #@! TA.AperFunction,ComponentPad*
%ADD27C,0.599999*%
G04 #@! TD*
G04 #@! TA.AperFunction,Conductor*
%ADD28R,0.200000X3.700000*%
G04 #@! TD*
G04 #@! TA.AperFunction,Conductor*
%ADD29R,0.200000X0.400000*%
G04 #@! TD*
G04 #@! TA.AperFunction,Conductor*
%ADD30R,0.200000X1.600000*%
G04 #@! TD*
G04 #@! TA.AperFunction,Conductor*
%ADD31R,0.200000X9.700000*%
G04 #@! TD*
G04 #@! TA.AperFunction,Conductor*
%ADD32R,0.200000X2.300000*%
G04 #@! TD*
G04 #@! TA.AperFunction,Conductor*
%ADD33R,1.400000X0.200000*%
G04 #@! TD*
G04 #@! TA.AperFunction,Conductor*
%ADD34R,6.400000X0.200000*%
G04 #@! TD*
G04 #@! TA.AperFunction,Conductor*
%ADD35R,1.700000X0.200000*%
G04 #@! TD*
G04 #@! TA.AperFunction,Conductor*
%ADD36R,3.300000X0.200000*%
G04 #@! TD*
G04 #@! TA.AperFunction,Conductor*
%ADD37R,0.200000X7.000000*%
G04 #@! TD*
G04 #@! TA.AperFunction,Conductor*
%ADD38R,0.200000X3.300000*%
G04 #@! TD*
G04 #@! TA.AperFunction,Conductor*
%ADD39R,0.200000X6.300000*%
G04 #@! TD*
G04 #@! TA.AperFunction,Conductor*
%ADD40R,0.250000X6.185000*%
G04 #@! TD*
G04 #@! TA.AperFunction,Conductor*
%ADD41R,0.250000X1.115000*%
G04 #@! TD*
G04 #@! TA.AperFunction,Conductor*
%ADD42R,14.275000X0.250000*%
G04 #@! TD*
G04 #@! TA.AperFunction,Conductor*
%ADD43R,15.100000X0.250000*%
G04 #@! TD*
G04 #@! TA.AperFunction,Conductor*
%ADD44R,0.250000X5.175000*%
G04 #@! TD*
G04 #@! TA.AperFunction,ViaPad*
%ADD45C,0.800000*%
G04 #@! TD*
G04 #@! TA.AperFunction,Conductor*
%ADD46C,0.500000*%
G04 #@! TD*
G04 #@! TA.AperFunction,Conductor*
%ADD47C,0.150000*%
G04 #@! TD*
G04 APERTURE END LIST*
D10*
G04 #@! TO.N,/VBAT*
G04 #@! TO.C,M1*
X40125005Y3600003D03*
G04 #@! TO.N,unconnected-(M1-V12-PadE2)*
X40125005Y10000000D03*
G04 #@! TO.N,/VIGN*
X40125005Y11900003D03*
G04 #@! TO.N,+5V*
X40125005Y16200003D03*
D11*
G04 #@! TO.N,/PWR_EN*
X39675006Y18600000D03*
G04 #@! TO.N,Net-(M1-PG_5VP)*
X39675006Y19600001D03*
D12*
G04 #@! TO.N,GND*
X56275001Y7450003D03*
D13*
X56275001Y15950001D03*
D14*
X56275001Y23050003D03*
D15*
X47875003Y23100003D03*
D16*
X47075002Y2500003D03*
D10*
X40125005Y22450003D03*
D14*
X39475004Y2550003D03*
D17*
X39475004Y6750001D03*
D18*
X39475004Y14100003D03*
D19*
X39475004Y17600000D03*
D20*
X39475004Y20900001D03*
D10*
G04 #@! TO.N,+12V_RAW*
X55625002Y3150001D03*
G04 #@! TO.N,/IN_VIGN*
X55625002Y5000000D03*
G04 #@! TO.N,+12V_RAW*
X55625002Y9950003D03*
G04 #@! TO.N,+5VP*
X55625002Y22000001D03*
G04 #@! TD*
D21*
G04 #@! TO.N,/BT_TX*
G04 #@! TO.C,BLUETOOTH1*
X91000000Y75040000D03*
D22*
G04 #@! TO.N,/BT_RX*
X91000000Y72500000D03*
G04 #@! TO.N,GND*
X91000000Y69960000D03*
G04 #@! TO.N,+5VA*
X91000000Y67420000D03*
G04 #@! TD*
G04 #@! TO.N,GND*
G04 #@! TO.C,USB1*
G04 #@! TA.AperFunction,ComponentPad*
G36*
G01*
X91100000Y60125000D02*
X91100000Y58875000D01*
G75*
G02*
X90850000Y58625000I-250000J0D01*
G01*
X90150000Y58625000D01*
G75*
G02*
X89900000Y58875000I0J250000D01*
G01*
X89900000Y60125000D01*
G75*
G02*
X90150000Y60375000I250000J0D01*
G01*
X90850000Y60375000D01*
G75*
G02*
X91100000Y60125000I0J-250000D01*
G01*
G37*
G04 #@! TD.AperFunction*
D23*
G04 #@! TO.N,/USB+*
X88500000Y59500000D03*
G04 #@! TO.N,/USB-*
X86500000Y59500000D03*
G04 #@! TO.N,/VBUS*
X84500000Y59500000D03*
G04 #@! TD*
D11*
G04 #@! TO.N,+5VA*
G04 #@! TO.C,M2*
X19074999Y31525000D03*
D24*
G04 #@! TO.N,GND*
X17099999Y40425000D03*
D25*
X19674999Y35875000D03*
X16574999Y35875000D03*
D11*
X18124999Y31525000D03*
G04 #@! TO.N,/IN_KNOCK*
X17175001Y31525000D03*
G04 #@! TO.N,/IN_KNOCK_RAW*
X18174999Y40225000D03*
G04 #@! TO.N,/VREF1*
X19074999Y40225000D03*
G04 #@! TD*
D26*
G04 #@! TO.N,/12V_KEY*
G04 #@! TO.C,F1*
X77450000Y5500000D03*
G04 #@! TO.N,/IN_VIGN*
X72550000Y5500000D03*
G04 #@! TD*
D27*
G04 #@! TO.N,+5VA*
G04 #@! TO.C,CAN1*
X35137499Y71956662D03*
G04 #@! TO.N,+3.3VA*
X34262497Y72481662D03*
G04 #@! TO.N,/MCU-CAN2TX*
X35437501Y73231660D03*
G04 #@! TO.N,/MCU-CAN2RX*
X35362498Y76781661D03*
G04 #@! TD*
D11*
G04 #@! TO.N,+5VA*
G04 #@! TO.C,MCU1*
X55299990Y37799990D03*
G04 #@! TO.N,unconnected-(MCU1-GNDA-PadE2)*
X55300000Y42099990D03*
G04 #@! TO.N,unconnected-(MCU1-I2C_SCL_(PB10)-PadE3)*
X55300000Y42899980D03*
G04 #@! TO.N,unconnected-(MCU1-I2C_SDA_(PB11)-PadE4)*
X55300000Y43699990D03*
G04 #@! TO.N,/VIGN*
X55300000Y44499990D03*
G04 #@! TO.N,/MCU-CAN2RX*
X55300000Y45299990D03*
G04 #@! TO.N,/MCU-CAN2TX*
X55300000Y46099990D03*
G04 #@! TO.N,/DC1_DIS*
X55300000Y46899990D03*
G04 #@! TO.N,/DC2_DIR*
X55300000Y47699990D03*
G04 #@! TO.N,/LS2*
X55300000Y48499990D03*
G04 #@! TO.N,/LS1*
X55300000Y49299990D03*
G04 #@! TO.N,/INJ6*
X55300000Y50099990D03*
G04 #@! TO.N,/INJ5*
X55300000Y50899990D03*
G04 #@! TO.N,/INJ4*
X55300000Y51699990D03*
G04 #@! TO.N,/INJ3*
X55300000Y52499990D03*
G04 #@! TO.N,/INJ2*
X55299990Y53299980D03*
G04 #@! TO.N,/INJ1*
X55300000Y54099990D03*
G04 #@! TO.N,/LS3*
X55300000Y55499990D03*
G04 #@! TO.N,/LS4*
X55300000Y56299980D03*
G04 #@! TO.N,/DC1_PWM*
X55300000Y57099980D03*
G04 #@! TO.N,/DC1_DIR*
X55300000Y57899980D03*
G04 #@! TO.N,/DC2_PWM*
X55300000Y58699980D03*
G04 #@! TO.N,unconnected-(MCU1-OUT_PWM6_(PD14)-PadE23)*
X55300000Y59499990D03*
D28*
G04 #@! TO.N,GND*
X21699990Y64349980D03*
D29*
X21699990Y61299990D03*
D28*
X21699990Y58249980D03*
D30*
X21699990Y53799990D03*
D31*
X21699990Y40149990D03*
D32*
X21699990Y32149990D03*
D33*
X23500000Y31099980D03*
D34*
X25599990Y66899980D03*
D35*
X31649990Y66899980D03*
D36*
X35149990Y66899980D03*
D33*
X44899990Y66899980D03*
D34*
X52399990Y31099980D03*
D37*
X55500000Y63500000D03*
D29*
X55500000Y54799980D03*
D38*
X55500000Y39949980D03*
D39*
X55500000Y34149980D03*
D11*
G04 #@! TO.N,/VBUS*
X54900000Y66699990D03*
G04 #@! TO.N,/USB-*
X54100000Y66699990D03*
G04 #@! TO.N,/USB+*
X53300000Y66699990D03*
G04 #@! TO.N,/DC2_DIS*
X52499990Y66699990D03*
G04 #@! TO.N,unconnected-(MCU1-SWDIO_(PA13)-PadN5)*
X51700000Y66699990D03*
G04 #@! TO.N,unconnected-(MCU1-SWCLK_(PA14)-PadN6)*
X50900000Y66699990D03*
G04 #@! TO.N,unconnected-(MCU1-nReset-PadN7)*
X50100000Y66699990D03*
G04 #@! TO.N,unconnected-(MCU1-SWO_(PB3)-PadN8)*
X49299990Y66699990D03*
G04 #@! TO.N,/EGT/SPI_CS*
X48500000Y66699980D03*
G04 #@! TO.N,/EGT/SPI_SCK*
X47700000Y66699980D03*
G04 #@! TO.N,/EGT/SPI_SO*
X46900000Y66699980D03*
G04 #@! TO.N,/PG_5VP*
X46100000Y66699980D03*
G04 #@! TO.N,/BT_TX*
X43699990Y66699980D03*
G04 #@! TO.N,/BT_RX*
X42899990Y66699980D03*
G04 #@! TO.N,unconnected-(MCU1-LED_GREEN-PadN14a)*
X42100000Y66699990D03*
G04 #@! TO.N,unconnected-(MCU1-LED_YELLOW-PadN14b)*
X41299990Y66699990D03*
G04 #@! TO.N,+3.3VA*
X40499990Y66699990D03*
G04 #@! TO.N,unconnected-(MCU1-BOOT0-PadN16)*
X39699990Y66699990D03*
G04 #@! TO.N,/VBAT*
X38899990Y66699990D03*
G04 #@! TO.N,unconnected-(MCU1-UART8_RX_(PE0)-PadN18)*
X38099990Y66699980D03*
G04 #@! TO.N,/VR_MAX9924*
X37299990Y66699980D03*
G04 #@! TO.N,/PWR_EN*
X32999990Y66699980D03*
G04 #@! TO.N,+3.3V*
X30299990Y66699980D03*
G04 #@! TO.N,+5V*
X29300000Y66699980D03*
G04 #@! TO.N,unconnected-(MCU1-V33-PadN23)*
X21899990Y66699980D03*
G04 #@! TO.N,/IN_BUTTON3*
X48700010Y31299980D03*
G04 #@! TO.N,/IN_HALL3*
X47500000Y31299980D03*
G04 #@! TO.N,/IN_HALL2*
X46300000Y31299980D03*
G04 #@! TO.N,/IN_HALL1*
X45100000Y31299980D03*
G04 #@! TO.N,unconnected-(MCU1-VREF2-PadS5)*
X43900000Y31299980D03*
G04 #@! TO.N,/IN_VMAIN*
X42700000Y31299980D03*
G04 #@! TO.N,/IN_AUX3*
X41500000Y31299980D03*
G04 #@! TO.N,/IN_PPS2*
X40300000Y31299980D03*
G04 #@! TO.N,/IN_TPS2*
X39100000Y31299980D03*
G04 #@! TO.N,/IN_AUX2*
X37900000Y31299980D03*
G04 #@! TO.N,/IN_AUX1*
X36700000Y31299980D03*
G04 #@! TO.N,/INTERNAL_MAP*
X35500000Y31299980D03*
G04 #@! TO.N,/IN_MAP*
X34300000Y31299980D03*
G04 #@! TO.N,/IN_BUTTON1*
X33100000Y31299980D03*
G04 #@! TO.N,/ADC3*
X31900000Y31299980D03*
G04 #@! TO.N,/IN_BUTTON2*
X30700000Y31299980D03*
G04 #@! TO.N,/IN_FLEX*
X29500000Y31299980D03*
G04 #@! TO.N,/IN_TPS1*
X28299990Y31299980D03*
G04 #@! TO.N,/IN_PPS1*
X27099990Y31299980D03*
G04 #@! TO.N,/IN_IAT*
X25899990Y31299980D03*
G04 #@! TO.N,/IN_CLT*
X24699990Y31299980D03*
G04 #@! TO.N,/VREF1*
X22299990Y31299980D03*
G04 #@! TO.N,GNDA*
X21899990Y33799990D03*
G04 #@! TO.N,+5VA*
X21899990Y34799990D03*
G04 #@! TO.N,/LS_HOT2*
X21899990Y45499980D03*
G04 #@! TO.N,/LS_HOT1*
X21899990Y46499990D03*
G04 #@! TO.N,/IGN6*
X21899990Y47499980D03*
G04 #@! TO.N,/IGN5*
X21899990Y48499980D03*
G04 #@! TO.N,/IGN4*
X21899990Y49499980D03*
G04 #@! TO.N,/IGN3*
X21899990Y50499980D03*
G04 #@! TO.N,/IGN2*
X21899990Y51499980D03*
G04 #@! TO.N,/IGN1*
X21899990Y52499980D03*
G04 #@! TO.N,/CAN1+*
X21899990Y55099980D03*
G04 #@! TO.N,/CAN1-*
X21899990Y55899980D03*
G04 #@! TO.N,unconnected-(MCU1-V33_REF-PadW13)*
X21899990Y60599990D03*
G04 #@! TO.N,unconnected-(MCU1-V5A_SWITCHABLE-PadW14)*
X21899990Y61999980D03*
G04 #@! TD*
D26*
G04 #@! TO.N,Net-(M1-PG_5VP)*
G04 #@! TO.C,R4*
X49810000Y72000000D03*
G04 #@! TO.N,/PG_5VP*
X46000000Y72000000D03*
G04 #@! TD*
G04 #@! TO.N,+12V*
G04 #@! TO.C,F4*
X60050000Y21000000D03*
G04 #@! TO.N,/DC Driver 1/PWR*
X64950000Y21000000D03*
G04 #@! TD*
G04 #@! TO.N,+12V*
G04 #@! TO.C,F2*
X72550000Y3000000D03*
G04 #@! TO.N,+12V_RAW*
X77450000Y3000000D03*
G04 #@! TD*
G04 #@! TO.N,+12V*
G04 #@! TO.C,F3*
X60050000Y18500000D03*
G04 #@! TO.N,/DC Driver 2/PWR*
X64950000Y18500000D03*
G04 #@! TD*
D11*
G04 #@! TO.N,unconnected-(M4-NC-PadE1)*
G04 #@! TO.C,M4*
X65350000Y69682500D03*
G04 #@! TO.N,unconnected-(M4-NC-PadE2)*
X65350000Y70882500D03*
G04 #@! TO.N,/VR_MAX9924*
X65350000Y68482500D03*
G04 #@! TO.N,+5VA*
X65350000Y67282500D03*
D40*
G04 #@! TO.N,GND*
X80000000Y69950000D03*
D41*
X80000000Y76000000D03*
D42*
X72987500Y66982500D03*
D43*
X72575000Y76432500D03*
D44*
X65150000Y73970000D03*
D11*
G04 #@! TO.N,/VR_MAX9924-*
X79775000Y73742500D03*
G04 #@! TO.N,/VR_MAX9924+*
X79775000Y74742500D03*
G04 #@! TD*
D21*
G04 #@! TO.N,/OUT_INJ1*
G04 #@! TO.C,SAGSOKET1*
X91540000Y51740000D03*
D22*
G04 #@! TO.N,/OUT_INJ2*
X89000000Y51740000D03*
G04 #@! TO.N,/OUT_INJ3*
X91540000Y49200000D03*
G04 #@! TO.N,/OUT_INJ4*
X89000000Y49200000D03*
G04 #@! TO.N,/OUT_INJ5*
X91540000Y46660000D03*
G04 #@! TO.N,/OUT_INJ6*
X89000000Y46660000D03*
G04 #@! TO.N,/OUT_LS1*
X91540000Y44120000D03*
G04 #@! TO.N,/OUT_LS2*
X89000000Y44120000D03*
G04 #@! TO.N,/OUT_LS3*
X91540000Y41580000D03*
G04 #@! TO.N,/OUT_LS4*
X89000000Y41580000D03*
G04 #@! TO.N,/OUT_LS_HOT2*
X91540000Y39040000D03*
G04 #@! TO.N,/OUT_LS_HOT1*
X89000000Y39040000D03*
G04 #@! TO.N,unconnected-(SAGSOKET1-Pin_13-Pad13)*
X91540000Y36500000D03*
G04 #@! TO.N,/VR_MAX9924+*
X89000000Y36500000D03*
G04 #@! TO.N,unconnected-(SAGSOKET1-Pin_15-Pad15)*
X91540000Y33960000D03*
G04 #@! TO.N,/VR_MAX9924-*
X89000000Y33960000D03*
G04 #@! TO.N,unconnected-(SAGSOKET1-Pin_17-Pad17)*
X91540000Y31420000D03*
G04 #@! TO.N,GND*
X89000000Y31420000D03*
G04 #@! TO.N,unconnected-(SAGSOKET1-Pin_19-Pad19)*
X91540000Y28880000D03*
G04 #@! TO.N,GND*
X89000000Y28880000D03*
G04 #@! TO.N,unconnected-(SAGSOKET1-Pin_21-Pad21)*
X91540000Y26340000D03*
G04 #@! TO.N,GND*
X89000000Y26340000D03*
G04 #@! TO.N,unconnected-(SAGSOKET1-Pin_23-Pad23)*
X91540000Y23800000D03*
G04 #@! TO.N,/OUT_DC1+*
X89000000Y23800000D03*
G04 #@! TO.N,unconnected-(SAGSOKET1-Pin_25-Pad25)*
X91540000Y21260000D03*
G04 #@! TO.N,/OUT_DC1-*
X89000000Y21260000D03*
G04 #@! TO.N,unconnected-(SAGSOKET1-Pin_27-Pad27)*
X91540000Y18720000D03*
G04 #@! TO.N,/OUT_DC2+*
X89000000Y18720000D03*
G04 #@! TO.N,unconnected-(SAGSOKET1-Pin_29-Pad29)*
X91540000Y16180000D03*
G04 #@! TO.N,/OUT_DC2-*
X89000000Y16180000D03*
G04 #@! TO.N,unconnected-(SAGSOKET1-Pin_31-Pad31)*
X91540000Y13640000D03*
G04 #@! TO.N,unconnected-(SAGSOKET1-Pin_32-Pad32)*
X89000000Y13640000D03*
G04 #@! TO.N,unconnected-(SAGSOKET1-Pin_33-Pad33)*
X91540000Y11100000D03*
G04 #@! TO.N,unconnected-(SAGSOKET1-Pin_34-Pad34)*
X89000000Y11100000D03*
G04 #@! TO.N,unconnected-(SAGSOKET1-Pin_35-Pad35)*
X91540000Y8560000D03*
G04 #@! TO.N,unconnected-(SAGSOKET1-Pin_36-Pad36)*
X89000000Y8560000D03*
G04 #@! TO.N,unconnected-(SAGSOKET1-Pin_37-Pad37)*
X91540000Y6020000D03*
G04 #@! TO.N,/12V_KEY*
X89000000Y6020000D03*
G04 #@! TO.N,unconnected-(SAGSOKET1-Pin_39-Pad39)*
X91540000Y3480000D03*
G04 #@! TO.N,+12V_RAW*
X89000000Y3480000D03*
G04 #@! TD*
D21*
G04 #@! TO.N,/OUT_IGN1*
G04 #@! TO.C,SOLSOKET1*
X6000000Y51780000D03*
D22*
G04 #@! TO.N,/EGT-*
X3460000Y51780000D03*
G04 #@! TO.N,/OUT_IGN2*
X6000000Y49240000D03*
G04 #@! TO.N,/EGT+*
X3460000Y49240000D03*
G04 #@! TO.N,/OUT_IGN3*
X6000000Y46700000D03*
G04 #@! TO.N,/CAN2+*
X3460000Y46700000D03*
G04 #@! TO.N,/OUT_IGN4*
X6000000Y44160000D03*
G04 #@! TO.N,/CAN2-*
X3460000Y44160000D03*
G04 #@! TO.N,/OUT_IGN5*
X6000000Y41620000D03*
G04 #@! TO.N,GND*
X3460000Y41620000D03*
G04 #@! TO.N,/OUT_IGN6*
X6000000Y39080000D03*
G04 #@! TO.N,GND*
X3460000Y39080000D03*
G04 #@! TO.N,/IN_KNOCK_RAW*
X6000000Y36540000D03*
G04 #@! TO.N,/CAN1-*
X3460000Y36540000D03*
G04 #@! TO.N,/IN_BUTTON1*
X6000000Y34000000D03*
G04 #@! TO.N,/CAN1+*
X3460000Y34000000D03*
G04 #@! TO.N,/IN_BUTTON2*
X6000000Y31460000D03*
G04 #@! TO.N,+5VP*
X3460000Y31460000D03*
G04 #@! TO.N,/IN_BUTTON3*
X6000000Y28920000D03*
G04 #@! TO.N,+5VP*
X3460000Y28920000D03*
G04 #@! TO.N,/IN_CLT*
X6000000Y26380000D03*
G04 #@! TO.N,/IN_IAT*
X3460000Y26380000D03*
G04 #@! TO.N,/IN_PPS1*
X6000000Y23840000D03*
G04 #@! TO.N,/IN_TPS1*
X3460000Y23840000D03*
G04 #@! TO.N,/IN_FLEX*
X6000000Y21300000D03*
G04 #@! TO.N,/IN_MAP*
X3460000Y21300000D03*
G04 #@! TO.N,/IN_AUX1*
X6000000Y18760000D03*
G04 #@! TO.N,/IN_AUX2*
X3460000Y18760000D03*
G04 #@! TO.N,/IN_TPS2*
X6000000Y16220000D03*
G04 #@! TO.N,/IN_PPS2*
X3460000Y16220000D03*
G04 #@! TO.N,/IN_AUX3*
X6000000Y13680000D03*
G04 #@! TO.N,/IN_HALL1*
X3460000Y13680000D03*
G04 #@! TO.N,/IN_HALL2*
X6000000Y11140000D03*
G04 #@! TO.N,/IN_HALL3*
X3460000Y11140000D03*
G04 #@! TO.N,GNDA*
X6000000Y8600000D03*
X3460000Y8600000D03*
G04 #@! TO.N,unconnected-(SOLSOKET1-Pin_37-Pad37)*
X6000000Y6060000D03*
G04 #@! TO.N,unconnected-(SOLSOKET1-Pin_38-Pad38)*
X3460000Y6060000D03*
G04 #@! TO.N,unconnected-(SOLSOKET1-Pin_39-Pad39)*
X6000000Y3520000D03*
G04 #@! TO.N,unconnected-(SOLSOKET1-Pin_40-Pad40)*
X3460000Y3520000D03*
G04 #@! TD*
D45*
G04 #@! TO.N,GND*
X59000000Y60500000D03*
X20000000Y1000000D03*
X57000000Y7500000D03*
X68000000Y18000000D03*
X83000000Y1500000D03*
X23500000Y30000000D03*
X43000000Y1500000D03*
X80000000Y41500000D03*
X11500000Y28000000D03*
X85500000Y41000000D03*
X38000000Y15000000D03*
X18000000Y60500000D03*
X50000000Y1500000D03*
X79500000Y39000000D03*
X82000000Y1500000D03*
X25000000Y23500000D03*
X51000000Y1500000D03*
X48000000Y78000000D03*
X70000000Y50500000D03*
X17000000Y1000000D03*
X44000000Y71000000D03*
X2500000Y74500000D03*
X50000000Y78000000D03*
X66500000Y46500000D03*
X80000000Y1500000D03*
X4000000Y74000000D03*
X62000000Y15500000D03*
X5000000Y75000000D03*
X63000000Y27000000D03*
X82500000Y42000000D03*
X60500000Y49000000D03*
X57500000Y12000000D03*
X80000000Y45500000D03*
X4500000Y76500000D03*
X3000000Y73000000D03*
X69000000Y65500000D03*
X21500000Y30000000D03*
X4500000Y57500000D03*
X12000000Y1000000D03*
X48000000Y1500000D03*
X26500000Y77000000D03*
X1500000Y57500000D03*
X56000000Y78000000D03*
X81000000Y1500000D03*
X38500000Y21500000D03*
X3500000Y75500000D03*
X11500000Y61000000D03*
X52000000Y78000000D03*
X21000000Y63500000D03*
X71500000Y18000000D03*
X49000000Y1500000D03*
X53000000Y78000000D03*
X42000000Y67700000D03*
X21000000Y43000000D03*
X58000000Y78000000D03*
X44000000Y1500000D03*
X15500000Y40000000D03*
X60000000Y55500000D03*
X84000000Y1500000D03*
X80000000Y36000000D03*
X75500000Y43500000D03*
X16000000Y1000000D03*
X21000000Y1000000D03*
X61000000Y23500000D03*
X49000000Y78000000D03*
X56500000Y31000000D03*
X5500000Y77500000D03*
X54000000Y78000000D03*
X75000000Y50500000D03*
X53500000Y71500000D03*
X6000000Y76000000D03*
X53000000Y1500000D03*
X32000000Y67500000D03*
X55000000Y78000000D03*
X44500000Y23500000D03*
X34500000Y67500000D03*
X19000000Y1000000D03*
X22000000Y1000000D03*
X66000000Y6500000D03*
X52000000Y1500000D03*
X14000000Y1000000D03*
X15000000Y1000000D03*
X47000000Y1500000D03*
X56500000Y24000000D03*
X13000000Y1000000D03*
X80000000Y19500000D03*
X16000000Y34500000D03*
X57000000Y78000000D03*
X8000000Y73000000D03*
X45000000Y1500000D03*
X7000000Y77000000D03*
X46000000Y1500000D03*
X13000000Y66500000D03*
X9500000Y54500000D03*
X38500000Y8000000D03*
X50500000Y68000000D03*
X86000000Y8000000D03*
X18000000Y1000000D03*
X68000000Y8500000D03*
X81000000Y8500000D03*
X51000000Y78000000D03*
G04 #@! TO.N,/DC Driver 1/PWR*
X66709999Y28500000D03*
G04 #@! TO.N,/DC Driver 2/PWR*
X66500000Y14000000D03*
G04 #@! TO.N,+5VA*
X37000000Y70000000D03*
X14950021Y31500000D03*
X12000000Y39500000D03*
X10000000Y69624990D03*
X66500000Y39000000D03*
X24865000Y73365000D03*
G04 #@! TO.N,+3.3VA*
X8500000Y63530000D03*
G04 #@! TO.N,/VBAT*
X52000000Y25500000D03*
G04 #@! TO.N,+12V_RAW*
X84000000Y54000000D03*
X84000000Y46500000D03*
G04 #@! TO.N,GNDA*
X18000000Y44000000D03*
G04 #@! TO.N,/IN_BUTTON2*
X10276464Y32723536D03*
G04 #@! TO.N,/IN_BUTTON1*
X10274999Y35225001D03*
G04 #@! TO.N,/IN_BUTTON3*
X10277928Y30222072D03*
G04 #@! TO.N,/MCU-CAN2TX*
X56250000Y71750000D03*
G04 #@! TO.N,/MCU-CAN2RX*
X57750000Y71750000D03*
G04 #@! TO.N,+5V*
X59500000Y24500000D03*
G04 #@! TO.N,/PWR_EN*
X53500000Y24500000D03*
G04 #@! TO.N,/DC2_DIS*
X80500000Y14000000D03*
G04 #@! TO.N,/DC2_DIR*
X69000000Y18500000D03*
G04 #@! TO.N,/DC1_DIS*
X80500000Y28500000D03*
G04 #@! TO.N,/DC1_PWM*
X82500000Y31500000D03*
G04 #@! TO.N,/DC1_DIR*
X69075000Y33425000D03*
G04 #@! TO.N,/DC2_PWM*
X80500000Y15000000D03*
G04 #@! TO.N,+3.3V*
X66000000Y30500000D03*
G04 #@! TO.N,/IN_VMAIN*
X49000000Y30000000D03*
G04 #@! TO.N,/INTERNAL_MAP*
X19500000Y76000000D03*
G04 #@! TO.N,/ADC3*
X47500000Y28500000D03*
X10000000Y28500000D03*
G04 #@! TO.N,/LS_HOT2*
X64500000Y33500000D03*
G04 #@! TO.N,/LS_HOT1*
X64000000Y31500000D03*
G04 #@! TD*
D46*
G04 #@! TO.N,+5VA*
X65000000Y40500000D02*
X65000000Y66932500D01*
X66500000Y39000000D02*
X65000000Y40500000D01*
X65000000Y66932500D02*
X65350000Y67282500D01*
G04 #@! TO.N,/VBAT*
X62300000Y32012133D02*
X62300000Y70200000D01*
X38899990Y67124254D02*
X38899990Y66699990D01*
X55787867Y25500000D02*
X62300000Y32012133D01*
X59000000Y73500000D02*
X44000000Y73500000D01*
X40275736Y68500000D02*
X38899990Y67124254D01*
X42000000Y68500000D02*
X40275736Y68500000D01*
X43000000Y69500000D02*
X42000000Y68500000D01*
X44000000Y73500000D02*
X43000000Y72500000D01*
X43000000Y72500000D02*
X43000000Y69500000D01*
X62300000Y70200000D02*
X59000000Y73500000D01*
X52000000Y25500000D02*
X55787867Y25500000D01*
G04 #@! TO.N,GNDA*
X18000000Y44000000D02*
X10500000Y44000000D01*
X10500000Y44000000D02*
X8500000Y42000000D01*
X8500000Y11100000D02*
X6000000Y8600000D01*
X8500000Y42000000D02*
X8500000Y11100000D01*
X6000000Y8600000D02*
X3460000Y8600000D01*
G04 #@! TO.N,/VR_MAX9924+*
X80515000Y74742500D02*
X79775000Y74742500D01*
X85500000Y36500000D02*
X81700000Y40300000D01*
X81700000Y40300000D02*
X81700000Y73557500D01*
X81700000Y73557500D02*
X80515000Y74742500D01*
X89000000Y36500000D02*
X85500000Y36500000D01*
G04 #@! TO.N,/MCU-CAN2TX*
X56099990Y46099990D02*
X55300000Y46099990D01*
X56250000Y71750000D02*
X57000000Y71000000D01*
X57000000Y47000000D02*
X56099990Y46099990D01*
X57000000Y71000000D02*
X57000000Y47000000D01*
G04 #@! TO.N,/MCU-CAN2RX*
X57800000Y46880761D02*
X56219229Y45299990D01*
X57800000Y71700000D02*
X57800000Y46880761D01*
X57750000Y71750000D02*
X57800000Y71700000D01*
X56219229Y45299990D02*
X55300000Y45299990D01*
G04 #@! TO.N,/VIGN*
X61000000Y43000000D02*
X61000000Y32550609D01*
X55724274Y44500000D02*
X59500000Y44500000D01*
X61000000Y32550609D02*
X55599391Y27150000D01*
X36350000Y14614348D02*
X39064345Y11900003D01*
X36350000Y23269239D02*
X36350000Y14614348D01*
X55300000Y44499990D02*
X55724264Y44499990D01*
X55724264Y44499990D02*
X55724274Y44500000D01*
X55599391Y27150000D02*
X40230761Y27150000D01*
X39064345Y11900003D02*
X40125005Y11900003D01*
X59500000Y44500000D02*
X61000000Y43000000D01*
X40230761Y27150000D02*
X36350000Y23269239D01*
G04 #@! TO.N,+5V*
X29300000Y67569238D02*
X31730762Y70000000D01*
X59757717Y75500000D02*
X64300000Y70957717D01*
X66650000Y34269239D02*
X66650000Y32000000D01*
X40500000Y70500000D02*
X41000000Y71000000D01*
X35500000Y70000000D02*
X36500000Y69000000D01*
X38000000Y69000000D02*
X39500000Y70500000D01*
X64300000Y36000000D02*
X64650000Y35650000D01*
X66650000Y32000000D02*
X67000000Y31650000D01*
X41000000Y71000000D02*
X41000000Y73257717D01*
X43242283Y75500000D02*
X59757717Y75500000D01*
X61563172Y29436828D02*
X61063172Y28936827D01*
X31730762Y70000000D02*
X35500000Y70000000D01*
X59500000Y27373655D02*
X59500000Y24500000D01*
X67000000Y31650000D02*
X67000000Y30000000D01*
X64650000Y35650000D02*
X65269239Y35650000D01*
X29300000Y66699980D02*
X29300000Y67569238D01*
X39500000Y70500000D02*
X40500000Y70500000D01*
X61063172Y28936827D02*
X59500000Y27373655D01*
X41000000Y73257717D02*
X43242283Y75500000D01*
X61626344Y29500000D02*
X61563172Y29436828D01*
X67000000Y30000000D02*
X66500000Y29500000D01*
X64300000Y70957717D02*
X64300000Y36000000D01*
X36500000Y69000000D02*
X38000000Y69000000D01*
X66500000Y29500000D02*
X61626344Y29500000D01*
X65269239Y35650000D02*
X66650000Y34269239D01*
G04 #@! TO.N,/PWR_EN*
X42350000Y72769239D02*
X43730761Y74150000D01*
X32999990Y66699980D02*
X32999990Y68499990D01*
X43730761Y74150000D02*
X59269239Y74150000D01*
X34961524Y68700000D02*
X36089772Y67571752D01*
X63000000Y31792894D02*
X55707106Y24500000D01*
X41730762Y69150000D02*
X42350000Y69769238D01*
X55707106Y24500000D02*
X53500000Y24500000D01*
X63000000Y70419239D02*
X63000000Y31792894D01*
X33200000Y68700000D02*
X34961524Y68700000D01*
X36089772Y67571752D02*
X38428249Y67571752D01*
X38428249Y67571752D02*
X40006497Y69150000D01*
X42350000Y69769238D02*
X42350000Y72769239D01*
X40006497Y69150000D02*
X41730762Y69150000D01*
X32999990Y68499990D02*
X33200000Y68700000D01*
X59269239Y74150000D02*
X63000000Y70419239D01*
G04 #@! TO.N,Net-(M1-PG_5VP)*
X37899999Y19600001D02*
X37000000Y20500000D01*
X37000000Y23000000D02*
X40500000Y26500000D01*
X61650000Y69850000D02*
X58650000Y72850000D01*
X55868629Y26500000D02*
X61650000Y32281371D01*
X61650000Y32281371D02*
X61650000Y69850000D01*
X37000000Y20500000D02*
X37000000Y23000000D01*
X58650000Y72850000D02*
X50660000Y72850000D01*
X50660000Y72850000D02*
X49810000Y72000000D01*
X40500000Y26500000D02*
X55868629Y26500000D01*
X39675006Y19600001D02*
X37899999Y19600001D01*
G04 #@! TO.N,/VR_MAX9924-*
X87040000Y33960000D02*
X81000000Y40000000D01*
X89000000Y33960000D02*
X87040000Y33960000D01*
X81000000Y73107450D02*
X80364950Y73742500D01*
X80364950Y73742500D02*
X79775000Y73742500D01*
X81000000Y40000000D02*
X81000000Y73107450D01*
G04 #@! TO.N,+3.3V*
X35230762Y69350000D02*
X32000000Y69350000D01*
X38968630Y69031371D02*
X38159011Y68221752D01*
X63650000Y35500000D02*
X63650000Y70688478D01*
X38159011Y68221752D02*
X36359010Y68221752D01*
X63269239Y71069239D02*
X59538478Y74800000D01*
X39737258Y69800000D02*
X38968630Y69031371D01*
X64150000Y35000000D02*
X63650000Y35500000D01*
X65000000Y35000000D02*
X64150000Y35000000D01*
X66000000Y34000000D02*
X65000000Y35000000D01*
X63650000Y70688478D02*
X63500000Y70838477D01*
X41700000Y73038477D02*
X41700000Y70200000D01*
X30299990Y66699980D02*
X30299990Y67649990D01*
X43461522Y74800000D02*
X43330762Y74669239D01*
X66000000Y30500000D02*
X66000000Y34000000D01*
X41700000Y70200000D02*
X41300000Y69800000D01*
X41300000Y69800000D02*
X39737258Y69800000D01*
X36359010Y68221752D02*
X35230762Y69350000D01*
X43330762Y74669239D02*
X41700000Y73038477D01*
X30299990Y67649990D02*
X32000000Y69350000D01*
X63500000Y70838477D02*
X63269239Y71069239D01*
X59538478Y74800000D02*
X43461522Y74800000D01*
D47*
G04 #@! TO.N,/INTERNAL_MAP*
X19500000Y76000000D02*
X19999999Y75500001D01*
X33200020Y29000000D02*
X35500000Y31299980D01*
X21500000Y29000000D02*
X33200020Y29000000D01*
X20500000Y42000000D02*
X20500000Y30000000D01*
X19999999Y75500001D02*
X19999999Y42500001D01*
X20500000Y30000000D02*
X21500000Y29000000D01*
X19999999Y42500001D02*
X20500000Y42000000D01*
D46*
G04 #@! TO.N,/ADC3*
X10500000Y29000000D02*
X10000000Y28500000D01*
X12500000Y29000000D02*
X10500000Y29000000D01*
X47500000Y28500000D02*
X13000000Y28500000D01*
X13000000Y28500000D02*
X12500000Y29000000D01*
G04 #@! TO.N,/PG_5VP*
X46100000Y66699980D02*
X46100000Y71805000D01*
X46100000Y71805000D02*
X45905000Y72000000D01*
G04 #@! TD*
G04 #@! TA.AperFunction,Conductor*
G04 #@! TO.N,GND*
G36*
X37144788Y19691304D02*
G01*
X37225565Y19637332D01*
X37623385Y19239511D01*
X37726112Y19180202D01*
X37750325Y19173715D01*
X37750326Y19173715D01*
X37840690Y19149501D01*
X38988281Y19149501D01*
X39083569Y19130547D01*
X39164351Y19076571D01*
X39218327Y18995789D01*
X39237281Y18900501D01*
X39218327Y18805213D01*
X39214778Y18797060D01*
X39189842Y18742461D01*
X39189841Y18742457D01*
X39169359Y18600000D01*
X39189841Y18457544D01*
X39189842Y18457540D01*
X39249628Y18326628D01*
X39258796Y18316047D01*
X39343878Y18217857D01*
X39360618Y18207099D01*
X39430529Y18139642D01*
X39469307Y18050561D01*
X39474998Y17997628D01*
X39474998Y16995343D01*
X39456044Y16900055D01*
X39418477Y16837379D01*
X39330870Y16730631D01*
X39242608Y16565503D01*
X39188257Y16386334D01*
X39169906Y16200004D01*
X39169906Y16200003D01*
X39188257Y16013673D01*
X39242608Y15834504D01*
X39242609Y15834502D01*
X39330869Y15669378D01*
X39418478Y15562626D01*
X39464276Y15476946D01*
X39474998Y15404664D01*
X39474998Y12727593D01*
X39456044Y12632305D01*
X39402068Y12551523D01*
X39321286Y12497547D01*
X39225998Y12478593D01*
X39130710Y12497547D01*
X39049928Y12551523D01*
X36873430Y14728021D01*
X36819454Y14808803D01*
X36800500Y14904091D01*
X36800500Y19461258D01*
X36819454Y19556546D01*
X36873430Y19637328D01*
X36954212Y19691304D01*
X37049500Y19710258D01*
X37144788Y19691304D01*
G37*
G04 #@! TD.AperFunction*
G04 #@! TA.AperFunction,Conductor*
G36*
X89250000Y26773012D02*
G01*
X89192993Y26805925D01*
X89065826Y26840000D01*
X88934174Y26840000D01*
X88807007Y26805925D01*
X88750000Y26773012D01*
X88750000Y28446988D01*
X88807007Y28414075D01*
X88934174Y28380000D01*
X89065826Y28380000D01*
X89192993Y28414075D01*
X89250000Y28446988D01*
X89250000Y26773012D01*
G37*
G04 #@! TD.AperFunction*
G04 #@! TA.AperFunction,Conductor*
G36*
X59305545Y44030546D02*
G01*
X59386327Y43976570D01*
X60476570Y42886327D01*
X60530546Y42805545D01*
X60549500Y42710257D01*
X60549500Y32840352D01*
X60530546Y32745064D01*
X60476570Y32664282D01*
X55485718Y27673430D01*
X55404936Y27619454D01*
X55309648Y27600500D01*
X48047709Y27600500D01*
X47952421Y27619454D01*
X47871639Y27673430D01*
X47817663Y27754212D01*
X47798709Y27849500D01*
X47817663Y27944788D01*
X47871639Y28025570D01*
X47896127Y28047045D01*
X47928282Y28071718D01*
X48024536Y28197159D01*
X48085044Y28343238D01*
X48105682Y28500000D01*
X48085044Y28656762D01*
X48024536Y28802841D01*
X47965330Y28880000D01*
X47928286Y28928277D01*
X47928285Y28928278D01*
X47928282Y28928282D01*
X47928277Y28928286D01*
X47928276Y28928287D01*
X47802844Y29024534D01*
X47802843Y29024535D01*
X47802841Y29024536D01*
X47656762Y29085044D01*
X47656760Y29085045D01*
X47500000Y29105682D01*
X47343239Y29085045D01*
X47314144Y29072993D01*
X47197159Y29024536D01*
X47167728Y29001954D01*
X47080594Y28958984D01*
X47016149Y28950500D01*
X34141275Y28950500D01*
X34045987Y28969454D01*
X33965205Y29023430D01*
X33911229Y29104212D01*
X33892275Y29199500D01*
X33911229Y29294788D01*
X33965205Y29375570D01*
X35316184Y30726550D01*
X35396966Y30780526D01*
X35492254Y30799480D01*
X35571961Y30799480D01*
X35710053Y30840027D01*
X35831128Y30917837D01*
X35911817Y31010959D01*
X35988541Y31070561D01*
X36082234Y31096265D01*
X36178632Y31084158D01*
X36263058Y31036083D01*
X36288183Y31010958D01*
X36368868Y30917841D01*
X36368871Y30917838D01*
X36368872Y30917837D01*
X36489947Y30840027D01*
X36489948Y30840027D01*
X36489950Y30840026D01*
X36516365Y30832270D01*
X36628039Y30799480D01*
X36771961Y30799480D01*
X36910053Y30840027D01*
X37031128Y30917837D01*
X37111817Y31010959D01*
X37188541Y31070561D01*
X37282234Y31096265D01*
X37378632Y31084158D01*
X37463058Y31036083D01*
X37488183Y31010958D01*
X37568868Y30917841D01*
X37568871Y30917838D01*
X37568872Y30917837D01*
X37689947Y30840027D01*
X37689948Y30840027D01*
X37689950Y30840026D01*
X37716365Y30832270D01*
X37828039Y30799480D01*
X37971961Y30799480D01*
X38110053Y30840027D01*
X38231128Y30917837D01*
X38311817Y31010959D01*
X38388541Y31070561D01*
X38482234Y31096265D01*
X38578632Y31084158D01*
X38663058Y31036083D01*
X38688183Y31010958D01*
X38768868Y30917841D01*
X38768871Y30917838D01*
X38768872Y30917837D01*
X38889947Y30840027D01*
X38889948Y30840027D01*
X38889950Y30840026D01*
X38916365Y30832270D01*
X39028039Y30799480D01*
X39171961Y30799480D01*
X39310053Y30840027D01*
X39431128Y30917837D01*
X39511817Y31010959D01*
X39588541Y31070561D01*
X39682234Y31096265D01*
X39778632Y31084158D01*
X39863058Y31036083D01*
X39888183Y31010958D01*
X39968868Y30917841D01*
X39968871Y30917838D01*
X39968872Y30917837D01*
X40089947Y30840027D01*
X40089948Y30840027D01*
X40089950Y30840026D01*
X40116365Y30832270D01*
X40228039Y30799480D01*
X40371961Y30799480D01*
X40510053Y30840027D01*
X40631128Y30917837D01*
X40711817Y31010959D01*
X40788541Y31070561D01*
X40882234Y31096265D01*
X40978632Y31084158D01*
X41063058Y31036083D01*
X41088183Y31010958D01*
X41168868Y30917841D01*
X41168871Y30917838D01*
X41168872Y30917837D01*
X41289947Y30840027D01*
X41289948Y30840027D01*
X41289950Y30840026D01*
X41316365Y30832270D01*
X41428039Y30799480D01*
X41571961Y30799480D01*
X41710053Y30840027D01*
X41831128Y30917837D01*
X41911817Y31010959D01*
X41988541Y31070561D01*
X42082234Y31096265D01*
X42178632Y31084158D01*
X42263058Y31036083D01*
X42288183Y31010958D01*
X42368868Y30917841D01*
X42368871Y30917838D01*
X42368872Y30917837D01*
X42489947Y30840027D01*
X42489948Y30840027D01*
X42489950Y30840026D01*
X42516365Y30832270D01*
X42628039Y30799480D01*
X42771961Y30799480D01*
X42910053Y30840027D01*
X43031128Y30917837D01*
X43111817Y31010959D01*
X43188541Y31070561D01*
X43282234Y31096265D01*
X43378632Y31084158D01*
X43463058Y31036083D01*
X43488183Y31010958D01*
X43568868Y30917841D01*
X43568871Y30917838D01*
X43568872Y30917837D01*
X43689947Y30840027D01*
X43689948Y30840027D01*
X43689950Y30840026D01*
X43716365Y30832270D01*
X43828039Y30799480D01*
X43971961Y30799480D01*
X44110053Y30840027D01*
X44231128Y30917837D01*
X44311817Y31010959D01*
X44388541Y31070561D01*
X44482234Y31096265D01*
X44578632Y31084158D01*
X44663058Y31036083D01*
X44688183Y31010958D01*
X44768868Y30917841D01*
X44768871Y30917838D01*
X44768872Y30917837D01*
X44889947Y30840027D01*
X44889948Y30840027D01*
X44889950Y30840026D01*
X44916365Y30832270D01*
X45028039Y30799480D01*
X45171961Y30799480D01*
X45310053Y30840027D01*
X45431128Y30917837D01*
X45511817Y31010959D01*
X45588541Y31070561D01*
X45682234Y31096265D01*
X45778632Y31084158D01*
X45863058Y31036083D01*
X45888183Y31010958D01*
X45968868Y30917841D01*
X45968871Y30917838D01*
X45968872Y30917837D01*
X46089947Y30840027D01*
X46089948Y30840027D01*
X46089950Y30840026D01*
X46116365Y30832270D01*
X46228039Y30799480D01*
X46371961Y30799480D01*
X46510053Y30840027D01*
X46631128Y30917837D01*
X46711817Y31010959D01*
X46788541Y31070561D01*
X46882234Y31096265D01*
X46978632Y31084158D01*
X47063058Y31036083D01*
X47088183Y31010958D01*
X47168868Y30917841D01*
X47168871Y30917838D01*
X47168872Y30917837D01*
X47289947Y30840027D01*
X47289948Y30840027D01*
X47289950Y30840026D01*
X47316365Y30832270D01*
X47428039Y30799480D01*
X47571961Y30799480D01*
X47710053Y30840027D01*
X47831128Y30917837D01*
X47911823Y31010965D01*
X47988547Y31070566D01*
X48082240Y31096270D01*
X48178638Y31084163D01*
X48263064Y31036088D01*
X48288188Y31010964D01*
X48368878Y30917841D01*
X48368882Y30917837D01*
X48437794Y30873550D01*
X48489957Y30840027D01*
X48502518Y30834291D01*
X48581323Y30777468D01*
X48632384Y30694813D01*
X48647928Y30598910D01*
X48625587Y30504358D01*
X48575161Y30431726D01*
X48571719Y30428284D01*
X48475466Y30302845D01*
X48475464Y30302842D01*
X48475464Y30302841D01*
X48471313Y30292819D01*
X48414955Y30156761D01*
X48394318Y30000000D01*
X48414955Y29843240D01*
X48414956Y29843238D01*
X48475464Y29697159D01*
X48475465Y29697157D01*
X48475466Y29697156D01*
X48546784Y29604212D01*
X48571718Y29571718D01*
X48697159Y29475464D01*
X48843238Y29414956D01*
X49000000Y29394318D01*
X49156762Y29414956D01*
X49302841Y29475464D01*
X49428282Y29571718D01*
X49524536Y29697159D01*
X49585044Y29843238D01*
X49605682Y30000000D01*
X49585044Y30156762D01*
X49524536Y30302841D01*
X49428282Y30428282D01*
X49428277Y30428286D01*
X49428276Y30428287D01*
X49302844Y30524534D01*
X49302843Y30524535D01*
X49302841Y30524536D01*
X49171131Y30579092D01*
X49090352Y30633068D01*
X49036376Y30713850D01*
X49017422Y30809138D01*
X49036376Y30904426D01*
X49078239Y30972196D01*
X49114507Y31014052D01*
X49191232Y31073652D01*
X49284925Y31099356D01*
X49302688Y31099990D01*
X55499989Y31099990D01*
X55499990Y31099990D01*
X55499990Y37197612D01*
X55518944Y37292900D01*
X55572920Y37373682D01*
X55614370Y37407084D01*
X55631118Y37417847D01*
X55725367Y37526617D01*
X55785155Y37657533D01*
X55805637Y37799990D01*
X55785155Y37942447D01*
X55725367Y38073363D01*
X55631118Y38182133D01*
X55614369Y38192897D01*
X55544456Y38260358D01*
X55505680Y38349439D01*
X55499990Y38402368D01*
X55499990Y41497606D01*
X55518944Y41592894D01*
X55572920Y41673676D01*
X55614369Y41707078D01*
X55631128Y41717847D01*
X55725377Y41826617D01*
X55785165Y41957533D01*
X55805647Y42099990D01*
X55785165Y42242447D01*
X55725377Y42373363D01*
X55725376Y42373364D01*
X55717979Y42389562D01*
X55720537Y42390731D01*
X55694947Y42455758D01*
X55696675Y42552898D01*
X55720096Y42609442D01*
X55717979Y42610408D01*
X55729476Y42635583D01*
X55785165Y42757523D01*
X55805647Y42899980D01*
X55785165Y43042437D01*
X55725377Y43173353D01*
X55725376Y43173354D01*
X55717979Y43189552D01*
X55720534Y43190720D01*
X55694939Y43255769D01*
X55696671Y43352908D01*
X55720092Y43409453D01*
X55717979Y43410418D01*
X55730394Y43437603D01*
X55785165Y43557533D01*
X55805647Y43699990D01*
X55796291Y43765063D01*
X55801490Y43862078D01*
X55843421Y43949719D01*
X55915698Y44014643D01*
X56007318Y44046965D01*
X56042756Y44049500D01*
X59210257Y44049500D01*
X59305545Y44030546D01*
G37*
G04 #@! TD.AperFunction*
G04 #@! TA.AperFunction,Conductor*
G36*
X89250000Y29313012D02*
G01*
X89192993Y29345925D01*
X89065826Y29380000D01*
X88934174Y29380000D01*
X88807007Y29345925D01*
X88750000Y29313012D01*
X88750000Y30986988D01*
X88807007Y30954075D01*
X88934174Y30920000D01*
X89065826Y30920000D01*
X89192993Y30954075D01*
X89250000Y30986988D01*
X89250000Y29313012D01*
G37*
G04 #@! TD.AperFunction*
G04 #@! TA.AperFunction,Conductor*
G36*
X3710000Y39513012D02*
G01*
X3652993Y39545925D01*
X3525826Y39580000D01*
X3394174Y39580000D01*
X3267007Y39545925D01*
X3210000Y39513012D01*
X3210000Y41186988D01*
X3267007Y41154075D01*
X3394174Y41120000D01*
X3525826Y41120000D01*
X3652993Y41154075D01*
X3710000Y41186988D01*
X3710000Y39513012D01*
G37*
G04 #@! TD.AperFunction*
G04 #@! TA.AperFunction,Conductor*
G36*
X58647941Y72167778D02*
G01*
X58735076Y72124807D01*
X58759564Y72103333D01*
X61126570Y69736327D01*
X61180546Y69655545D01*
X61199500Y69560257D01*
X61199500Y44038743D01*
X61180546Y43943455D01*
X61126570Y43862673D01*
X61045788Y43808697D01*
X60950500Y43789743D01*
X60855212Y43808697D01*
X60774430Y43862673D01*
X59776614Y44860489D01*
X59766369Y44866404D01*
X59673887Y44919799D01*
X59673884Y44919800D01*
X59649674Y44926287D01*
X59649670Y44926289D01*
X59559313Y44950500D01*
X59559309Y44950500D01*
X57107982Y44950500D01*
X57012694Y44969454D01*
X56931912Y45023430D01*
X56877936Y45104212D01*
X56858982Y45199500D01*
X56877936Y45294788D01*
X56931912Y45375570D01*
X57329695Y45773353D01*
X58160490Y46604147D01*
X58219799Y46706874D01*
X58233373Y46757533D01*
X58250500Y46821452D01*
X58250500Y71339603D01*
X58269454Y71434891D01*
X58269454Y71434892D01*
X58274534Y71447157D01*
X58274536Y71447159D01*
X58335044Y71593238D01*
X58355682Y71750000D01*
X58336624Y71894763D01*
X58342979Y71991710D01*
X58385950Y72078845D01*
X58458995Y72142904D01*
X58550994Y72174133D01*
X58647941Y72167778D01*
G37*
G04 #@! TD.AperFunction*
G04 #@! TA.AperFunction,Conductor*
G36*
X48994993Y73030546D02*
G01*
X49075775Y72976570D01*
X49129751Y72895788D01*
X49148705Y72800500D01*
X49129751Y72705212D01*
X49092186Y72642539D01*
X49005838Y72537324D01*
X48916463Y72370115D01*
X48916462Y72370113D01*
X48916461Y72370111D01*
X48861427Y72188685D01*
X48861426Y72188683D01*
X48842843Y72000000D01*
X48861426Y71811318D01*
X48861427Y71811316D01*
X48869050Y71786185D01*
X48916463Y71629885D01*
X49005838Y71462676D01*
X49126117Y71316117D01*
X49272676Y71195838D01*
X49439885Y71106463D01*
X49621317Y71051427D01*
X49810000Y71032843D01*
X49998683Y71051427D01*
X50180115Y71106463D01*
X50347324Y71195838D01*
X50493883Y71316117D01*
X50614162Y71462676D01*
X50703537Y71629885D01*
X50758573Y71811317D01*
X50777157Y72000000D01*
X50771719Y72055212D01*
X50764738Y72126094D01*
X50774261Y72222781D01*
X50820060Y72308464D01*
X50895161Y72370098D01*
X50988133Y72398301D01*
X51012539Y72399500D01*
X55496401Y72399500D01*
X55591689Y72380546D01*
X55672471Y72326570D01*
X55726447Y72245788D01*
X55745401Y72150500D01*
X55726447Y72055212D01*
X55726446Y72055210D01*
X55725465Y72052843D01*
X55725464Y72052841D01*
X55712570Y72021711D01*
X55664955Y71906763D01*
X55644318Y71750000D01*
X55664955Y71593240D01*
X55664956Y71593238D01*
X55725464Y71447159D01*
X55725465Y71447157D01*
X55725466Y71447156D01*
X55805807Y71342453D01*
X55821718Y71321718D01*
X55821722Y71321715D01*
X55821723Y71321714D01*
X55947155Y71225467D01*
X55947159Y71225464D01*
X56093238Y71164956D01*
X56130010Y71160115D01*
X56222009Y71128887D01*
X56273582Y71089315D01*
X56476570Y70886327D01*
X56530546Y70805545D01*
X56549500Y70710257D01*
X56549500Y47289743D01*
X56530546Y47194455D01*
X56476570Y47113673D01*
X56476569Y47113673D01*
X56214865Y46851970D01*
X56134084Y46797994D01*
X56038796Y46779040D01*
X55943507Y46797994D01*
X55862726Y46851971D01*
X55808750Y46932752D01*
X55792331Y46992601D01*
X55785165Y47042447D01*
X55725377Y47173363D01*
X55725376Y47173364D01*
X55717979Y47189562D01*
X55720536Y47190730D01*
X55694943Y47255768D01*
X55696673Y47352908D01*
X55720094Y47409452D01*
X55717979Y47410418D01*
X55725377Y47426617D01*
X55785165Y47557533D01*
X55805647Y47699990D01*
X55785165Y47842447D01*
X55725377Y47973363D01*
X55725376Y47973364D01*
X55717979Y47989562D01*
X55720536Y47990730D01*
X55694943Y48055768D01*
X55696673Y48152908D01*
X55720094Y48209452D01*
X55717979Y48210418D01*
X55729050Y48234660D01*
X55785165Y48357533D01*
X55805647Y48499990D01*
X55785165Y48642447D01*
X55725377Y48773363D01*
X55725376Y48773364D01*
X55717979Y48789562D01*
X55720536Y48790730D01*
X55694943Y48855768D01*
X55696673Y48952908D01*
X55720094Y49009452D01*
X55717979Y49010418D01*
X55728779Y49034067D01*
X55785165Y49157533D01*
X55805647Y49299990D01*
X55785165Y49442447D01*
X55725377Y49573363D01*
X55725376Y49573364D01*
X55717979Y49589562D01*
X55720536Y49590730D01*
X55694943Y49655768D01*
X55696673Y49752908D01*
X55720094Y49809452D01*
X55717979Y49810418D01*
X55780088Y49946417D01*
X55785165Y49957533D01*
X55805647Y50099990D01*
X55785165Y50242447D01*
X55725377Y50373363D01*
X55725376Y50373364D01*
X55717979Y50389562D01*
X55720536Y50390730D01*
X55694943Y50455768D01*
X55696673Y50552908D01*
X55720094Y50609452D01*
X55717979Y50610418D01*
X55725377Y50626617D01*
X55785165Y50757533D01*
X55805647Y50899990D01*
X55785165Y51042447D01*
X55725377Y51173363D01*
X55725376Y51173364D01*
X55717979Y51189562D01*
X55720536Y51190730D01*
X55694943Y51255768D01*
X55696673Y51352908D01*
X55720094Y51409452D01*
X55717979Y51410418D01*
X55758881Y51499980D01*
X55785165Y51557533D01*
X55805647Y51699990D01*
X55785165Y51842447D01*
X55725377Y51973363D01*
X55725376Y51973364D01*
X55717979Y51989562D01*
X55720536Y51990730D01*
X55694943Y52055768D01*
X55696673Y52152908D01*
X55720094Y52209452D01*
X55717979Y52210418D01*
X55725377Y52226617D01*
X55785165Y52357533D01*
X55805647Y52499990D01*
X55785165Y52642447D01*
X55725377Y52773363D01*
X55725376Y52773364D01*
X55717979Y52789562D01*
X55720535Y52790730D01*
X55694942Y52855769D01*
X55696671Y52952909D01*
X55720088Y53009441D01*
X55717969Y53010408D01*
X55725367Y53026607D01*
X55785155Y53157523D01*
X55805637Y53299980D01*
X55785155Y53442437D01*
X55725367Y53573353D01*
X55725366Y53573354D01*
X55717969Y53589552D01*
X55720525Y53590720D01*
X55694932Y53655774D01*
X55696669Y53752913D01*
X55720091Y53809454D01*
X55717979Y53810418D01*
X55725377Y53826617D01*
X55785165Y53957533D01*
X55805647Y54099990D01*
X55785165Y54242447D01*
X55725377Y54373363D01*
X55631128Y54482133D01*
X55631124Y54482137D01*
X55614368Y54492905D01*
X55544454Y54560367D01*
X55505680Y54649449D01*
X55499990Y54702375D01*
X55499990Y54897606D01*
X55518944Y54992894D01*
X55572920Y55073676D01*
X55614369Y55107078D01*
X55631128Y55117847D01*
X55725377Y55226617D01*
X55785165Y55357533D01*
X55805647Y55499990D01*
X55785165Y55642447D01*
X55725377Y55773363D01*
X55725376Y55773364D01*
X55717979Y55789562D01*
X55720537Y55790731D01*
X55694947Y55855758D01*
X55696675Y55952898D01*
X55720096Y56009442D01*
X55717979Y56010408D01*
X55732608Y56042441D01*
X55785165Y56157523D01*
X55805647Y56299980D01*
X55785165Y56442437D01*
X55725377Y56573353D01*
X55725376Y56573354D01*
X55717979Y56589552D01*
X55720536Y56590720D01*
X55694943Y56655758D01*
X55696673Y56752898D01*
X55720094Y56809442D01*
X55717979Y56810408D01*
X55725377Y56826607D01*
X55785165Y56957523D01*
X55805647Y57099980D01*
X55785165Y57242437D01*
X55725377Y57373353D01*
X55725376Y57373354D01*
X55717979Y57389552D01*
X55720536Y57390720D01*
X55694943Y57455758D01*
X55696673Y57552898D01*
X55720094Y57609442D01*
X55717979Y57610408D01*
X55725377Y57626607D01*
X55785165Y57757523D01*
X55805647Y57899980D01*
X55785165Y58042437D01*
X55725377Y58173353D01*
X55725376Y58173354D01*
X55717979Y58189552D01*
X55720536Y58190720D01*
X55694943Y58255758D01*
X55696673Y58352898D01*
X55720094Y58409442D01*
X55717979Y58410408D01*
X55766021Y58515604D01*
X55785165Y58557523D01*
X55805647Y58699980D01*
X55785165Y58842437D01*
X55725377Y58973353D01*
X55725376Y58973354D01*
X55717979Y58989552D01*
X55720534Y58990720D01*
X55694939Y59055769D01*
X55696671Y59152908D01*
X55720092Y59209453D01*
X55717979Y59210418D01*
X55745073Y59269745D01*
X55785165Y59357533D01*
X55805647Y59499990D01*
X55785165Y59642447D01*
X55725377Y59773363D01*
X55631128Y59882133D01*
X55631124Y59882137D01*
X55614368Y59892905D01*
X55544454Y59960367D01*
X55505680Y60049449D01*
X55499990Y60102375D01*
X55499990Y66899989D01*
X55499990Y66899990D01*
X55499989Y66899990D01*
X55499323Y66900656D01*
X55407382Y66918944D01*
X55326600Y66972920D01*
X55314488Y66985930D01*
X55231129Y67082132D01*
X55231128Y67082133D01*
X55110054Y67159943D01*
X55110049Y67159945D01*
X54971961Y67200490D01*
X54828039Y67200490D01*
X54689950Y67159945D01*
X54689947Y67159943D01*
X54634619Y67124386D01*
X54544210Y67088815D01*
X54447070Y67090550D01*
X54365381Y67124386D01*
X54327096Y67148990D01*
X54310053Y67159943D01*
X54310051Y67159944D01*
X54310049Y67159945D01*
X54171961Y67200490D01*
X54028039Y67200490D01*
X53889950Y67159945D01*
X53889947Y67159943D01*
X53834619Y67124386D01*
X53744210Y67088815D01*
X53647070Y67090550D01*
X53565381Y67124386D01*
X53527096Y67148990D01*
X53510053Y67159943D01*
X53510051Y67159944D01*
X53510049Y67159945D01*
X53371961Y67200490D01*
X53228039Y67200490D01*
X53089950Y67159945D01*
X53089943Y67159942D01*
X53034613Y67124383D01*
X52944204Y67088812D01*
X52847065Y67090547D01*
X52765377Y67124383D01*
X52710046Y67159942D01*
X52710039Y67159945D01*
X52571951Y67200490D01*
X52428029Y67200490D01*
X52289940Y67159945D01*
X52289937Y67159943D01*
X52234614Y67124389D01*
X52144205Y67088818D01*
X52047066Y67090553D01*
X51965376Y67124389D01*
X51964844Y67124731D01*
X51910053Y67159943D01*
X51910051Y67159944D01*
X51910049Y67159945D01*
X51771961Y67200490D01*
X51628039Y67200490D01*
X51489950Y67159945D01*
X51489947Y67159943D01*
X51434619Y67124386D01*
X51344210Y67088815D01*
X51247070Y67090550D01*
X51165381Y67124386D01*
X51127096Y67148990D01*
X51110053Y67159943D01*
X51110051Y67159944D01*
X51110049Y67159945D01*
X50971961Y67200490D01*
X50828039Y67200490D01*
X50689950Y67159945D01*
X50689947Y67159943D01*
X50634619Y67124386D01*
X50544210Y67088815D01*
X50447070Y67090550D01*
X50365381Y67124386D01*
X50327096Y67148990D01*
X50310053Y67159943D01*
X50310051Y67159944D01*
X50310049Y67159945D01*
X50171961Y67200490D01*
X50028039Y67200490D01*
X49889950Y67159945D01*
X49889943Y67159942D01*
X49834613Y67124383D01*
X49744204Y67088812D01*
X49647065Y67090547D01*
X49565377Y67124383D01*
X49510046Y67159942D01*
X49510039Y67159945D01*
X49371951Y67200490D01*
X49228029Y67200490D01*
X49089940Y67159945D01*
X49089937Y67159943D01*
X49034606Y67124384D01*
X48944197Y67088813D01*
X48847057Y67090548D01*
X48765368Y67124385D01*
X48710057Y67159931D01*
X48710049Y67159935D01*
X48571961Y67200480D01*
X48428039Y67200480D01*
X48289950Y67159935D01*
X48289947Y67159933D01*
X48234619Y67124376D01*
X48144210Y67088805D01*
X48047070Y67090540D01*
X47965381Y67124376D01*
X47960278Y67127656D01*
X47910053Y67159933D01*
X47910051Y67159934D01*
X47910049Y67159935D01*
X47771961Y67200480D01*
X47628039Y67200480D01*
X47489950Y67159935D01*
X47489947Y67159933D01*
X47434619Y67124376D01*
X47344210Y67088805D01*
X47247070Y67090540D01*
X47165381Y67124376D01*
X47160278Y67127656D01*
X47110053Y67159933D01*
X47110051Y67159934D01*
X47110049Y67159935D01*
X46971961Y67200480D01*
X46828039Y67200480D01*
X46810230Y67200480D01*
X46810230Y67202796D01*
X46737904Y67206677D01*
X46650266Y67248613D01*
X46585348Y67320895D01*
X46553032Y67412518D01*
X46550500Y67447938D01*
X46550500Y71088885D01*
X46569454Y71184173D01*
X46623430Y71264955D01*
X46641518Y71281350D01*
X46683883Y71316117D01*
X46804162Y71462676D01*
X46893537Y71629885D01*
X46948573Y71811317D01*
X46967157Y72000000D01*
X46948573Y72188683D01*
X46893537Y72370115D01*
X46804162Y72537324D01*
X46717814Y72642538D01*
X46672017Y72728218D01*
X46662494Y72824905D01*
X46690696Y72917876D01*
X46752330Y72992979D01*
X46838013Y73038778D01*
X46910295Y73049500D01*
X48899705Y73049500D01*
X48994993Y73030546D01*
G37*
G04 #@! TD.AperFunction*
G04 #@! TA.AperFunction,Conductor*
G36*
X32411432Y68880546D02*
G01*
X32492214Y68826570D01*
X32546190Y68745788D01*
X32565144Y68650500D01*
X32556659Y68586054D01*
X32549490Y68559300D01*
X32549490Y67148990D01*
X32530536Y67053702D01*
X32476560Y66972920D01*
X32395778Y66918944D01*
X32300490Y66899990D01*
X30999490Y66899990D01*
X30904202Y66918944D01*
X30823420Y66972920D01*
X30769444Y67053702D01*
X30750490Y67148990D01*
X30750490Y67360247D01*
X30769444Y67455535D01*
X30823420Y67536317D01*
X32113673Y68826570D01*
X32194455Y68880546D01*
X32289743Y68899500D01*
X32316144Y68899500D01*
X32411432Y68880546D01*
G37*
G04 #@! TD.AperFunction*
G04 #@! TA.AperFunction,Conductor*
G36*
X34767069Y68230546D02*
G01*
X34847850Y68176571D01*
X35699362Y67325058D01*
X35753337Y67244278D01*
X35772291Y67148990D01*
X35753337Y67053702D01*
X35699361Y66972920D01*
X35618579Y66918944D01*
X35523291Y66899990D01*
X33699490Y66899990D01*
X33604202Y66918944D01*
X33523420Y66972920D01*
X33469444Y67053702D01*
X33450490Y67148990D01*
X33450490Y68000500D01*
X33469444Y68095788D01*
X33523420Y68176570D01*
X33604202Y68230546D01*
X33699490Y68249500D01*
X34671781Y68249500D01*
X34767069Y68230546D01*
G37*
G04 #@! TD.AperFunction*
G04 #@! TA.AperFunction,Conductor*
G36*
X45184993Y73030546D02*
G01*
X45265775Y72976570D01*
X45319751Y72895788D01*
X45338705Y72800500D01*
X45319751Y72705212D01*
X45282186Y72642539D01*
X45195838Y72537324D01*
X45106463Y72370115D01*
X45106462Y72370113D01*
X45106461Y72370111D01*
X45051427Y72188685D01*
X45051426Y72188683D01*
X45032843Y72000000D01*
X45051426Y71811318D01*
X45051427Y71811316D01*
X45059050Y71786185D01*
X45106463Y71629885D01*
X45195838Y71462676D01*
X45316117Y71316117D01*
X45462676Y71195838D01*
X45517878Y71166332D01*
X45592979Y71104699D01*
X45638778Y71019016D01*
X45649500Y70946734D01*
X45649500Y67148990D01*
X45630546Y67053702D01*
X45576570Y66972920D01*
X45495788Y66918944D01*
X45400500Y66899990D01*
X44302651Y66899990D01*
X44207363Y66918944D01*
X44126581Y66972920D01*
X44114469Y66985931D01*
X44031122Y67082119D01*
X44031118Y67082123D01*
X43910044Y67159933D01*
X43910039Y67159935D01*
X43771951Y67200480D01*
X43628029Y67200480D01*
X43489940Y67159935D01*
X43489937Y67159933D01*
X43434609Y67124376D01*
X43344200Y67088805D01*
X43247060Y67090540D01*
X43165371Y67124376D01*
X43160268Y67127656D01*
X43110043Y67159933D01*
X43110041Y67159934D01*
X43110039Y67159935D01*
X42971951Y67200480D01*
X42828029Y67200480D01*
X42689940Y67159935D01*
X42689933Y67159932D01*
X42634620Y67124384D01*
X42544211Y67088813D01*
X42447071Y67090548D01*
X42365382Y67124385D01*
X42365380Y67124386D01*
X42348094Y67135496D01*
X42310054Y67159943D01*
X42310049Y67159945D01*
X42171961Y67200490D01*
X42028039Y67200490D01*
X41889950Y67159945D01*
X41889943Y67159942D01*
X41834613Y67124383D01*
X41744204Y67088812D01*
X41647065Y67090547D01*
X41565377Y67124383D01*
X41510046Y67159942D01*
X41510039Y67159945D01*
X41371951Y67200490D01*
X41228029Y67200490D01*
X41089940Y67159945D01*
X41089937Y67159943D01*
X41034609Y67124386D01*
X40944200Y67088815D01*
X40847060Y67090550D01*
X40765371Y67124386D01*
X40727086Y67148990D01*
X40710043Y67159943D01*
X40710041Y67159944D01*
X40710039Y67159945D01*
X40571951Y67200490D01*
X40428029Y67200490D01*
X40289940Y67159945D01*
X40289937Y67159943D01*
X40234609Y67124386D01*
X40144200Y67088815D01*
X40047060Y67090550D01*
X39965537Y67124280D01*
X39964834Y67124731D01*
X39894866Y67192137D01*
X39856020Y67281187D01*
X39854208Y67378326D01*
X39889708Y67468763D01*
X39923214Y67510377D01*
X40389410Y67976570D01*
X40470191Y68030546D01*
X40565479Y68049500D01*
X42059309Y68049500D01*
X42149666Y68073712D01*
X42149667Y68073713D01*
X42149673Y68073714D01*
X42173887Y68080201D01*
X42276614Y68139511D01*
X43360490Y69223387D01*
X43419799Y69326114D01*
X43426065Y69349500D01*
X43450500Y69440691D01*
X43450500Y72210257D01*
X43469454Y72305545D01*
X43523430Y72386327D01*
X44113673Y72976570D01*
X44194455Y73030546D01*
X44289743Y73049500D01*
X45089705Y73049500D01*
X45184993Y73030546D01*
G37*
G04 #@! TD.AperFunction*
G04 #@! TA.AperFunction,Conductor*
G36*
X94645788Y78780546D02*
G01*
X94726570Y78726570D01*
X94780546Y78645788D01*
X94799500Y78550500D01*
X94799500Y449500D01*
X94780546Y354212D01*
X94726570Y273430D01*
X94645788Y219454D01*
X94550500Y200500D01*
X449500Y200500D01*
X354212Y219454D01*
X273430Y273430D01*
X219454Y354212D01*
X200500Y449500D01*
X200500Y41870002D01*
X2129363Y41870002D01*
X2129364Y41870000D01*
X3026988Y41870000D01*
X2994075Y41812993D01*
X2960000Y41685826D01*
X2960000Y41554174D01*
X2994075Y41427007D01*
X3026988Y41370000D01*
X2129364Y41370000D01*
X2129363Y41369999D01*
X2186566Y41156517D01*
X2186566Y41156515D01*
X2286399Y40942424D01*
X2421889Y40748924D01*
X2588923Y40581890D01*
X2628798Y40553969D01*
X2695982Y40483787D01*
X2731194Y40393238D01*
X2729075Y40296106D01*
X2689946Y40207179D01*
X2628798Y40146031D01*
X2588923Y40118111D01*
X2421889Y39951077D01*
X2286400Y39757580D01*
X2286396Y39757572D01*
X2186570Y39543495D01*
X2186566Y39543484D01*
X2129363Y39330002D01*
X2129364Y39330000D01*
X3026988Y39330000D01*
X2994075Y39272993D01*
X2960000Y39145826D01*
X2960000Y39014174D01*
X2994075Y38887007D01*
X3026988Y38830000D01*
X2129364Y38830000D01*
X2129363Y38829999D01*
X2186566Y38616517D01*
X2186566Y38616515D01*
X2286399Y38402424D01*
X2421889Y38208924D01*
X2588923Y38041890D01*
X2782423Y37906400D01*
X2868014Y37866488D01*
X2946364Y37809039D01*
X2996765Y37725980D01*
X3011545Y37629956D01*
X2988453Y37535585D01*
X2931004Y37457235D01*
X2880165Y37421222D01*
X2873552Y37417688D01*
X2873550Y37417687D01*
X2713596Y37286417D01*
X2713583Y37286404D01*
X2582316Y37126453D01*
X2484768Y36943956D01*
X2424700Y36745935D01*
X2404417Y36540000D01*
X2424700Y36334066D01*
X2484768Y36136045D01*
X2582316Y35953548D01*
X2713583Y35793597D01*
X2713596Y35793584D01*
X2873547Y35662317D01*
X2873548Y35662317D01*
X2873550Y35662315D01*
X3056044Y35564769D01*
X3056043Y35564769D01*
X3242270Y35508278D01*
X3327953Y35462480D01*
X3389587Y35387378D01*
X3417790Y35294406D01*
X3408267Y35197719D01*
X3362469Y35112036D01*
X3287367Y35050402D01*
X3242270Y35031722D01*
X3056044Y34975232D01*
X2873547Y34877684D01*
X2713596Y34746417D01*
X2713583Y34746404D01*
X2582316Y34586453D01*
X2484768Y34403956D01*
X2424700Y34205935D01*
X2404417Y34000000D01*
X2424700Y33794066D01*
X2484768Y33596045D01*
X2582316Y33413548D01*
X2713583Y33253597D01*
X2713596Y33253584D01*
X2873547Y33122317D01*
X2873548Y33122317D01*
X2873550Y33122315D01*
X3056044Y33024769D01*
X3056043Y33024769D01*
X3242270Y32968278D01*
X3327953Y32922480D01*
X3389587Y32847378D01*
X3417790Y32754406D01*
X3408267Y32657719D01*
X3362469Y32572036D01*
X3287367Y32510402D01*
X3242270Y32491722D01*
X3056044Y32435232D01*
X2873547Y32337684D01*
X2713596Y32206417D01*
X2713583Y32206404D01*
X2582316Y32046453D01*
X2484768Y31863956D01*
X2424700Y31665935D01*
X2404417Y31460000D01*
X2424700Y31254066D01*
X2484768Y31056045D01*
X2582316Y30873548D01*
X2713583Y30713597D01*
X2713596Y30713584D01*
X2873547Y30582317D01*
X2873548Y30582317D01*
X2873550Y30582315D01*
X3056044Y30484769D01*
X3056043Y30484769D01*
X3242270Y30428278D01*
X3327953Y30382480D01*
X3389587Y30307378D01*
X3417790Y30214406D01*
X3408267Y30117719D01*
X3362469Y30032036D01*
X3287367Y29970402D01*
X3242270Y29951722D01*
X3056044Y29895232D01*
X2873547Y29797684D01*
X2713596Y29666417D01*
X2713583Y29666404D01*
X2582316Y29506453D01*
X2484768Y29323956D01*
X2424700Y29125935D01*
X2404417Y28920000D01*
X2424700Y28714066D01*
X2484768Y28516045D01*
X2582316Y28333548D01*
X2713583Y28173597D01*
X2713596Y28173584D01*
X2873547Y28042317D01*
X2873548Y28042317D01*
X2873550Y28042315D01*
X2948384Y28002315D01*
X3056008Y27944788D01*
X3056044Y27944769D01*
X3056043Y27944769D01*
X3242270Y27888278D01*
X3327953Y27842480D01*
X3389587Y27767378D01*
X3417790Y27674406D01*
X3408267Y27577719D01*
X3362469Y27492036D01*
X3287367Y27430402D01*
X3242270Y27411722D01*
X3056044Y27355232D01*
X2873547Y27257684D01*
X2713596Y27126417D01*
X2713583Y27126404D01*
X2582316Y26966453D01*
X2484768Y26783956D01*
X2424700Y26585935D01*
X2404417Y26380000D01*
X2424700Y26174066D01*
X2484768Y25976045D01*
X2582316Y25793548D01*
X2713583Y25633597D01*
X2713596Y25633584D01*
X2873547Y25502317D01*
X2873548Y25502317D01*
X2873550Y25502315D01*
X3056044Y25404769D01*
X3056043Y25404769D01*
X3242270Y25348278D01*
X3327953Y25302480D01*
X3389587Y25227378D01*
X3417790Y25134406D01*
X3408267Y25037719D01*
X3362469Y24952036D01*
X3287367Y24890402D01*
X3242270Y24871722D01*
X3056044Y24815232D01*
X2873547Y24717684D01*
X2713596Y24586417D01*
X2713583Y24586404D01*
X2582316Y24426453D01*
X2484768Y24243956D01*
X2424700Y24045935D01*
X2404417Y23840000D01*
X2424700Y23634066D01*
X2484768Y23436045D01*
X2582316Y23253548D01*
X2713583Y23093597D01*
X2713596Y23093584D01*
X2873547Y22962317D01*
X2873548Y22962317D01*
X2873550Y22962315D01*
X3056044Y22864769D01*
X3056043Y22864769D01*
X3242270Y22808278D01*
X3327953Y22762480D01*
X3389587Y22687378D01*
X3417790Y22594406D01*
X3408267Y22497719D01*
X3362469Y22412036D01*
X3287367Y22350402D01*
X3242270Y22331722D01*
X3056044Y22275232D01*
X2873547Y22177684D01*
X2713596Y22046417D01*
X2713583Y22046404D01*
X2582316Y21886453D01*
X2484768Y21703956D01*
X2424700Y21505935D01*
X2404417Y21300000D01*
X2424700Y21094066D01*
X2484768Y20896045D01*
X2582316Y20713548D01*
X2713583Y20553597D01*
X2713596Y20553584D01*
X2873547Y20422317D01*
X2873548Y20422317D01*
X2873550Y20422315D01*
X3056044Y20324769D01*
X3056045Y20324769D01*
X3056046Y20324768D01*
X3107574Y20309138D01*
X3242270Y20268278D01*
X3327953Y20222480D01*
X3389587Y20147378D01*
X3417790Y20054406D01*
X3408267Y19957719D01*
X3362469Y19872036D01*
X3287367Y19810402D01*
X3242270Y19791722D01*
X3056044Y19735232D01*
X2873547Y19637684D01*
X2713596Y19506417D01*
X2713583Y19506404D01*
X2582316Y19346453D01*
X2484768Y19163956D01*
X2424700Y18965935D01*
X2404417Y18760000D01*
X2424700Y18554066D01*
X2484768Y18356045D01*
X2582316Y18173548D01*
X2713583Y18013597D01*
X2713596Y18013584D01*
X2873547Y17882317D01*
X2873548Y17882317D01*
X2873550Y17882315D01*
X3056044Y17784769D01*
X3056043Y17784769D01*
X3242270Y17728278D01*
X3327953Y17682480D01*
X3389587Y17607378D01*
X3417790Y17514406D01*
X3408267Y17417719D01*
X3362469Y17332036D01*
X3287367Y17270402D01*
X3242270Y17251722D01*
X3056044Y17195232D01*
X2873547Y17097684D01*
X2713596Y16966417D01*
X2713583Y16966404D01*
X2582316Y16806453D01*
X2484768Y16623956D01*
X2424700Y16425935D01*
X2404417Y16220000D01*
X2424700Y16014066D01*
X2484768Y15816045D01*
X2582316Y15633548D01*
X2713583Y15473597D01*
X2713596Y15473584D01*
X2873547Y15342317D01*
X2873548Y15342317D01*
X2873550Y15342315D01*
X3056044Y15244769D01*
X3056043Y15244769D01*
X3242270Y15188278D01*
X3327953Y15142480D01*
X3389587Y15067378D01*
X3417790Y14974406D01*
X3408267Y14877719D01*
X3362469Y14792036D01*
X3287367Y14730402D01*
X3242270Y14711722D01*
X3056044Y14655232D01*
X2873547Y14557684D01*
X2713596Y14426417D01*
X2713583Y14426404D01*
X2582316Y14266453D01*
X2484768Y14083956D01*
X2424700Y13885935D01*
X2404417Y13680000D01*
X2424700Y13474066D01*
X2484768Y13276045D01*
X2582316Y13093548D01*
X2713583Y12933597D01*
X2713596Y12933584D01*
X2873547Y12802317D01*
X2873548Y12802317D01*
X2873550Y12802315D01*
X3056044Y12704769D01*
X3056043Y12704769D01*
X3242270Y12648278D01*
X3327953Y12602480D01*
X3389587Y12527378D01*
X3417790Y12434406D01*
X3408267Y12337719D01*
X3362469Y12252036D01*
X3287367Y12190402D01*
X3242270Y12171722D01*
X3056044Y12115232D01*
X2873547Y12017684D01*
X2713596Y11886417D01*
X2713583Y11886404D01*
X2582316Y11726453D01*
X2484768Y11543956D01*
X2424700Y11345935D01*
X2404417Y11140000D01*
X2424700Y10934066D01*
X2484768Y10736045D01*
X2582316Y10553548D01*
X2713583Y10393597D01*
X2713596Y10393584D01*
X2873547Y10262317D01*
X2873548Y10262317D01*
X2873550Y10262315D01*
X3056044Y10164769D01*
X3056043Y10164769D01*
X3242270Y10108278D01*
X3327953Y10062480D01*
X3389587Y9987378D01*
X3417790Y9894406D01*
X3408267Y9797719D01*
X3362469Y9712036D01*
X3287367Y9650402D01*
X3242270Y9631722D01*
X3056044Y9575232D01*
X2873547Y9477684D01*
X2713596Y9346417D01*
X2713583Y9346404D01*
X2582316Y9186453D01*
X2484768Y9003956D01*
X2424700Y8805935D01*
X2404417Y8600000D01*
X2424700Y8394066D01*
X2484768Y8196045D01*
X2582316Y8013548D01*
X2713583Y7853597D01*
X2713596Y7853584D01*
X2873547Y7722317D01*
X2873548Y7722317D01*
X2873550Y7722315D01*
X3056044Y7624769D01*
X3056043Y7624769D01*
X3242270Y7568278D01*
X3327953Y7522480D01*
X3389587Y7447378D01*
X3417790Y7354406D01*
X3408267Y7257719D01*
X3362469Y7172036D01*
X3287367Y7110402D01*
X3242270Y7091722D01*
X3056044Y7035232D01*
X2873547Y6937684D01*
X2713596Y6806417D01*
X2713583Y6806404D01*
X2582316Y6646453D01*
X2484768Y6463956D01*
X2424700Y6265935D01*
X2404417Y6060000D01*
X2424700Y5854066D01*
X2484768Y5656045D01*
X2582316Y5473548D01*
X2713583Y5313597D01*
X2713596Y5313584D01*
X2873547Y5182317D01*
X2873548Y5182317D01*
X2873550Y5182315D01*
X3056044Y5084769D01*
X3056043Y5084769D01*
X3242270Y5028278D01*
X3327953Y4982480D01*
X3389587Y4907378D01*
X3417790Y4814406D01*
X3408267Y4717719D01*
X3362469Y4632036D01*
X3287367Y4570402D01*
X3242270Y4551722D01*
X3056044Y4495232D01*
X2873547Y4397684D01*
X2713596Y4266417D01*
X2713583Y4266404D01*
X2582316Y4106453D01*
X2484768Y3923956D01*
X2424700Y3725935D01*
X2404417Y3520000D01*
X2424700Y3314066D01*
X2484768Y3116045D01*
X2582316Y2933548D01*
X2713583Y2773597D01*
X2713596Y2773584D01*
X2873547Y2642317D01*
X2873548Y2642317D01*
X2873550Y2642315D01*
X3056046Y2544768D01*
X3254066Y2484700D01*
X3460000Y2464417D01*
X3665934Y2484700D01*
X3863954Y2544768D01*
X4046450Y2642315D01*
X4206410Y2773590D01*
X4337685Y2933550D01*
X4435232Y3116046D01*
X4491722Y3302270D01*
X4537520Y3387954D01*
X4612622Y3449588D01*
X4705593Y3477791D01*
X4802280Y3468268D01*
X4887964Y3422470D01*
X4949598Y3347368D01*
X4968278Y3302270D01*
X5024767Y3116047D01*
X5024768Y3116045D01*
X5122316Y2933548D01*
X5253583Y2773597D01*
X5253596Y2773584D01*
X5413547Y2642317D01*
X5413548Y2642317D01*
X5413550Y2642315D01*
X5596046Y2544768D01*
X5794066Y2484700D01*
X6000000Y2464417D01*
X6205934Y2484700D01*
X6403954Y2544768D01*
X6586450Y2642315D01*
X6746410Y2773590D01*
X6877685Y2933550D01*
X6975232Y3116046D01*
X7035300Y3314066D01*
X7055583Y3520000D01*
X7035300Y3725934D01*
X6975232Y3923954D01*
X6877685Y4106450D01*
X6857843Y4130628D01*
X6746416Y4266404D01*
X6746403Y4266417D01*
X6586452Y4397684D01*
X6403955Y4495232D01*
X6403953Y4495233D01*
X6217730Y4551722D01*
X6132046Y4597520D01*
X6070412Y4672622D01*
X6042209Y4765593D01*
X6051732Y4862280D01*
X6097530Y4947964D01*
X6172632Y5009598D01*
X6217730Y5028278D01*
X6299053Y5052948D01*
X6403954Y5084768D01*
X6586450Y5182315D01*
X6743639Y5311316D01*
X6746403Y5313584D01*
X6746404Y5313586D01*
X6746410Y5313590D01*
X6877685Y5473550D01*
X6975232Y5656046D01*
X7035300Y5854066D01*
X7055583Y6060000D01*
X7035300Y6265934D01*
X6975232Y6463954D01*
X6877685Y6646450D01*
X6877683Y6646453D01*
X6746416Y6806404D01*
X6746403Y6806417D01*
X6586452Y6937684D01*
X6403955Y7035232D01*
X6403953Y7035233D01*
X6217730Y7091722D01*
X6132046Y7137520D01*
X6070412Y7212622D01*
X6042209Y7305593D01*
X6051732Y7402280D01*
X6097530Y7487964D01*
X6172632Y7549598D01*
X6217730Y7568278D01*
X6299053Y7592948D01*
X6403954Y7624768D01*
X6586450Y7722315D01*
X6746410Y7853590D01*
X6877685Y8013550D01*
X6975232Y8196046D01*
X7035300Y8394066D01*
X7055583Y8600000D01*
X7035300Y8805934D01*
X7033875Y8810629D01*
X7033394Y8815515D01*
X7032914Y8817931D01*
X7033151Y8817979D01*
X7024352Y8907315D01*
X7052553Y9000287D01*
X7096084Y9058982D01*
X7931509Y9894406D01*
X8860489Y10823386D01*
X8919799Y10926113D01*
X8929751Y10963256D01*
X8950500Y11040691D01*
X8950500Y28212727D01*
X8969454Y28308015D01*
X9023430Y28388797D01*
X9104212Y28442773D01*
X9199500Y28461727D01*
X9294788Y28442773D01*
X9375570Y28388797D01*
X9429544Y28308019D01*
X9475464Y28197159D01*
X9475465Y28197157D01*
X9475466Y28197156D01*
X9565208Y28080201D01*
X9571718Y28071718D01*
X9571722Y28071715D01*
X9571723Y28071714D01*
X9631859Y28025570D01*
X9697159Y27975464D01*
X9843238Y27914956D01*
X10000000Y27894318D01*
X10156762Y27914956D01*
X10302841Y27975464D01*
X10428282Y28071718D01*
X10524536Y28197159D01*
X10585044Y28343238D01*
X10585044Y28343242D01*
X10589268Y28359002D01*
X10592252Y28358203D01*
X10614917Y28424985D01*
X10678971Y28498035D01*
X10766104Y28541011D01*
X10830566Y28549500D01*
X12210258Y28549500D01*
X12305546Y28530546D01*
X12386324Y28476573D01*
X12723386Y28139510D01*
X12826113Y28080201D01*
X12850326Y28073714D01*
X12850327Y28073714D01*
X12940691Y28049500D01*
X39963167Y28049500D01*
X40058455Y28030546D01*
X40139237Y27976570D01*
X40193213Y27895788D01*
X40212167Y27800500D01*
X40193213Y27705212D01*
X40139237Y27624430D01*
X40070639Y27578596D01*
X40071007Y27577959D01*
X40061297Y27572354D01*
X40058455Y27570454D01*
X40058451Y27570452D01*
X40056870Y27569798D01*
X39954149Y27510492D01*
X35989511Y23545854D01*
X35930199Y23443124D01*
X35921716Y23411462D01*
X35921716Y23411459D01*
X35899500Y23328549D01*
X35899500Y14555039D01*
X35920822Y14475464D01*
X35930200Y14440462D01*
X35989511Y14337734D01*
X38787732Y11539513D01*
X38787734Y11539512D01*
X38890453Y11480207D01*
X38890454Y11480207D01*
X38890459Y11480204D01*
X39005036Y11449503D01*
X39147344Y11449503D01*
X39242632Y11430549D01*
X39323414Y11376573D01*
X39339819Y11358473D01*
X39418478Y11262626D01*
X39464276Y11176946D01*
X39474998Y11104664D01*
X39474998Y10795340D01*
X39456044Y10700052D01*
X39418477Y10637376D01*
X39330870Y10530628D01*
X39242608Y10365500D01*
X39188257Y10186331D01*
X39169906Y10000001D01*
X39169906Y10000000D01*
X39188257Y9813670D01*
X39242366Y9635300D01*
X39242609Y9634499D01*
X39330869Y9469375D01*
X39418478Y9362623D01*
X39464276Y9276943D01*
X39474998Y9204661D01*
X39474998Y4395343D01*
X39456044Y4300055D01*
X39418477Y4237379D01*
X39330870Y4130631D01*
X39242608Y3965503D01*
X39188257Y3786334D01*
X39169906Y3600004D01*
X39169906Y3600003D01*
X39188257Y3413673D01*
X39242608Y3234504D01*
X39242609Y3234502D01*
X39330869Y3069378D01*
X39418478Y2962626D01*
X39464276Y2876946D01*
X39474998Y2804664D01*
X39474998Y2510003D01*
X54817466Y2510003D01*
X54912754Y2491049D01*
X54975430Y2453482D01*
X55094374Y2355867D01*
X55094375Y2355867D01*
X55094377Y2355865D01*
X55259501Y2267605D01*
X55438671Y2213254D01*
X55625001Y2194902D01*
X55625002Y2194902D01*
X55625003Y2194902D01*
X55718167Y2204078D01*
X55811333Y2213254D01*
X55990503Y2267605D01*
X56155627Y2355865D01*
X56300359Y2474644D01*
X56419138Y2619376D01*
X56507398Y2784500D01*
X56561749Y2963670D01*
X56565327Y3000000D01*
X71582843Y3000000D01*
X71601426Y2811318D01*
X71601427Y2811316D01*
X71652691Y2642317D01*
X71656463Y2629885D01*
X71745838Y2462676D01*
X71866117Y2316117D01*
X72012676Y2195838D01*
X72179885Y2106463D01*
X72361317Y2051427D01*
X72550000Y2032843D01*
X72738683Y2051427D01*
X72920115Y2106463D01*
X73087324Y2195838D01*
X73233883Y2316117D01*
X73354162Y2462676D01*
X73443537Y2629885D01*
X73498573Y2811317D01*
X73517157Y3000000D01*
X76482843Y3000000D01*
X76501426Y2811318D01*
X76501427Y2811316D01*
X76552691Y2642317D01*
X76556463Y2629885D01*
X76645838Y2462676D01*
X76766117Y2316117D01*
X76912676Y2195838D01*
X77079885Y2106463D01*
X77261317Y2051427D01*
X77450000Y2032843D01*
X77638683Y2051427D01*
X77820115Y2106463D01*
X77987324Y2195838D01*
X78133883Y2316117D01*
X78254162Y2462676D01*
X78343537Y2629885D01*
X78398573Y2811317D01*
X78417157Y3000000D01*
X78398573Y3188683D01*
X78343537Y3370115D01*
X78254162Y3537324D01*
X78133883Y3683883D01*
X77987324Y3804162D01*
X77820115Y3893537D01*
X77820112Y3893538D01*
X77820110Y3893539D01*
X77638684Y3948573D01*
X77638682Y3948574D01*
X77450000Y3967157D01*
X77261317Y3948574D01*
X77261315Y3948573D01*
X77079889Y3893539D01*
X77079887Y3893538D01*
X77079885Y3893538D01*
X77079885Y3893537D01*
X77041594Y3873070D01*
X76912674Y3804161D01*
X76766120Y3683886D01*
X76766114Y3683880D01*
X76645839Y3537326D01*
X76556462Y3370113D01*
X76556461Y3370111D01*
X76501427Y3188685D01*
X76501426Y3188683D01*
X76482843Y3000000D01*
X73517157Y3000000D01*
X73498573Y3188683D01*
X73443537Y3370115D01*
X73354162Y3537324D01*
X73233883Y3683883D01*
X73087324Y3804162D01*
X72920115Y3893537D01*
X72920112Y3893538D01*
X72920110Y3893539D01*
X72738684Y3948573D01*
X72738682Y3948574D01*
X72550000Y3967157D01*
X72361317Y3948574D01*
X72361315Y3948573D01*
X72179889Y3893539D01*
X72179887Y3893538D01*
X72179885Y3893538D01*
X72179885Y3893537D01*
X72141594Y3873070D01*
X72012674Y3804161D01*
X71866120Y3683886D01*
X71866114Y3683880D01*
X71745839Y3537326D01*
X71656462Y3370113D01*
X71656461Y3370111D01*
X71601427Y3188685D01*
X71601426Y3188683D01*
X71582843Y3000000D01*
X56565327Y3000000D01*
X56580101Y3150001D01*
X56569043Y3262270D01*
X56561749Y3336332D01*
X56547753Y3382470D01*
X56507398Y3515502D01*
X56419138Y3680626D01*
X56419136Y3680629D01*
X56331522Y3787387D01*
X56285723Y3873070D01*
X56275001Y3945351D01*
X56275001Y4204651D01*
X56293955Y4299939D01*
X56331519Y4362613D01*
X56419138Y4469375D01*
X56507398Y4634499D01*
X56561749Y4813669D01*
X56580101Y5000000D01*
X56561749Y5186331D01*
X56507398Y5365501D01*
X56435507Y5500000D01*
X71582843Y5500000D01*
X71601426Y5311318D01*
X71601427Y5311316D01*
X71652691Y5142317D01*
X71656463Y5129885D01*
X71745838Y4962676D01*
X71866117Y4816117D01*
X72012676Y4695838D01*
X72179885Y4606463D01*
X72361317Y4551427D01*
X72550000Y4532843D01*
X72738683Y4551427D01*
X72920115Y4606463D01*
X73087324Y4695838D01*
X73233883Y4816117D01*
X73354162Y4962676D01*
X73443537Y5129885D01*
X73498573Y5311317D01*
X73517157Y5500000D01*
X76482843Y5500000D01*
X76501426Y5311318D01*
X76501427Y5311316D01*
X76552691Y5142317D01*
X76556463Y5129885D01*
X76645838Y4962676D01*
X76766117Y4816117D01*
X76912676Y4695838D01*
X77079885Y4606463D01*
X77261317Y4551427D01*
X77450000Y4532843D01*
X77638683Y4551427D01*
X77820115Y4606463D01*
X77987324Y4695838D01*
X78133883Y4816117D01*
X78254162Y4962676D01*
X78343537Y5129885D01*
X78398573Y5311317D01*
X78417157Y5500000D01*
X78398573Y5688683D01*
X78343537Y5870115D01*
X78254162Y6037324D01*
X78133883Y6183883D01*
X77987324Y6304162D01*
X77820115Y6393537D01*
X77820112Y6393538D01*
X77820110Y6393539D01*
X77638684Y6448573D01*
X77638682Y6448574D01*
X77450000Y6467157D01*
X77261317Y6448574D01*
X77261315Y6448573D01*
X77079889Y6393539D01*
X77079887Y6393538D01*
X76912674Y6304161D01*
X76766120Y6183886D01*
X76766114Y6183880D01*
X76645839Y6037326D01*
X76556462Y5870113D01*
X76556461Y5870111D01*
X76501427Y5688685D01*
X76501426Y5688683D01*
X76482843Y5500000D01*
X73517157Y5500000D01*
X73498573Y5688683D01*
X73443537Y5870115D01*
X73354162Y6037324D01*
X73233883Y6183883D01*
X73087324Y6304162D01*
X72920115Y6393537D01*
X72920112Y6393538D01*
X72920110Y6393539D01*
X72738684Y6448573D01*
X72738682Y6448574D01*
X72550000Y6467157D01*
X72361317Y6448574D01*
X72361315Y6448573D01*
X72179889Y6393539D01*
X72179887Y6393538D01*
X72012674Y6304161D01*
X71866120Y6183886D01*
X71866114Y6183880D01*
X71745839Y6037326D01*
X71656462Y5870113D01*
X71656461Y5870111D01*
X71601427Y5688685D01*
X71601426Y5688683D01*
X71582843Y5500000D01*
X56435507Y5500000D01*
X56419138Y5530625D01*
X56419136Y5530628D01*
X56331522Y5637386D01*
X56285723Y5723069D01*
X56275001Y5795350D01*
X56275001Y9154654D01*
X56293955Y9249942D01*
X56331519Y9312616D01*
X56419138Y9419378D01*
X56507398Y9584502D01*
X56561749Y9763672D01*
X56580101Y9950003D01*
X56561749Y10136334D01*
X56507398Y10315504D01*
X56419138Y10480628D01*
X56419136Y10480631D01*
X56331522Y10587389D01*
X56285723Y10673072D01*
X56275001Y10745353D01*
X56275001Y14000000D01*
X65894318Y14000000D01*
X65914955Y13843240D01*
X65914956Y13843238D01*
X65975464Y13697159D01*
X65975465Y13697157D01*
X65975466Y13697156D01*
X66063467Y13582470D01*
X66071718Y13571718D01*
X66197159Y13475464D01*
X66343238Y13414956D01*
X66500000Y13394318D01*
X66656762Y13414956D01*
X66802841Y13475464D01*
X66928282Y13571718D01*
X67024536Y13697159D01*
X67085044Y13843238D01*
X67105682Y14000000D01*
X67085044Y14156762D01*
X67024536Y14302841D01*
X66989562Y14348420D01*
X66928286Y14428277D01*
X66928285Y14428278D01*
X66928282Y14428282D01*
X66928277Y14428286D01*
X66928276Y14428287D01*
X66802844Y14524534D01*
X66802843Y14524535D01*
X66802841Y14524536D01*
X66656762Y14585044D01*
X66656760Y14585045D01*
X66500000Y14605682D01*
X66343239Y14585045D01*
X66251117Y14546887D01*
X66197159Y14524536D01*
X66197158Y14524536D01*
X66197155Y14524534D01*
X66071723Y14428287D01*
X66071713Y14428277D01*
X65975466Y14302845D01*
X65914955Y14156761D01*
X65894318Y14000000D01*
X56275001Y14000000D01*
X56275001Y15000000D01*
X79894318Y15000000D01*
X79914955Y14843240D01*
X79914956Y14843238D01*
X79975464Y14697159D01*
X79975465Y14697158D01*
X79975466Y14697156D01*
X80010437Y14651580D01*
X80053407Y14564444D01*
X80059760Y14467497D01*
X80028530Y14375498D01*
X80010437Y14348420D01*
X79975466Y14302845D01*
X79914955Y14156761D01*
X79894318Y14000000D01*
X79914955Y13843240D01*
X79914956Y13843238D01*
X79975464Y13697159D01*
X79975465Y13697157D01*
X79975466Y13697156D01*
X80063467Y13582470D01*
X80071718Y13571718D01*
X80197159Y13475464D01*
X80343238Y13414956D01*
X80500000Y13394318D01*
X80656762Y13414956D01*
X80802841Y13475464D01*
X80928282Y13571718D01*
X81024536Y13697159D01*
X81085044Y13843238D01*
X81105682Y14000000D01*
X81085044Y14156762D01*
X81024536Y14302841D01*
X80989561Y14348421D01*
X80946593Y14435554D01*
X80940238Y14532501D01*
X80971467Y14624500D01*
X80989562Y14651580D01*
X81024536Y14697159D01*
X81085044Y14843238D01*
X81105682Y15000000D01*
X81085044Y15156762D01*
X81024536Y15302841D01*
X80928282Y15428282D01*
X80928277Y15428286D01*
X80928276Y15428287D01*
X80802844Y15524534D01*
X80802843Y15524535D01*
X80802841Y15524536D01*
X80656762Y15585044D01*
X80656760Y15585045D01*
X80500000Y15605682D01*
X80343239Y15585045D01*
X80289123Y15562629D01*
X80197159Y15524536D01*
X80197158Y15524536D01*
X80197155Y15524534D01*
X80071723Y15428287D01*
X80071713Y15428277D01*
X79975466Y15302845D01*
X79914955Y15156761D01*
X79894318Y15000000D01*
X56275001Y15000000D01*
X56275001Y18500000D01*
X59082843Y18500000D01*
X59101426Y18311318D01*
X59101427Y18311316D01*
X59155351Y18133548D01*
X59156463Y18129885D01*
X59245838Y17962676D01*
X59366117Y17816117D01*
X59512676Y17695838D01*
X59679885Y17606463D01*
X59861317Y17551427D01*
X60050000Y17532843D01*
X60238683Y17551427D01*
X60420115Y17606463D01*
X60587324Y17695838D01*
X60733883Y17816117D01*
X60854162Y17962676D01*
X60943537Y18129885D01*
X60998573Y18311317D01*
X61017157Y18500000D01*
X63982843Y18500000D01*
X64001426Y18311318D01*
X64001427Y18311316D01*
X64055351Y18133548D01*
X64056463Y18129885D01*
X64145838Y17962676D01*
X64266117Y17816117D01*
X64412676Y17695838D01*
X64579885Y17606463D01*
X64761317Y17551427D01*
X64950000Y17532843D01*
X65138683Y17551427D01*
X65320115Y17606463D01*
X65487324Y17695838D01*
X65633883Y17816117D01*
X65754162Y17962676D01*
X65843537Y18129885D01*
X65898573Y18311317D01*
X65917157Y18500000D01*
X68394318Y18500000D01*
X68414955Y18343240D01*
X68426131Y18316259D01*
X68475464Y18197159D01*
X68475465Y18197157D01*
X68475466Y18197156D01*
X68527082Y18129888D01*
X68571718Y18071718D01*
X68697159Y17975464D01*
X68843238Y17914956D01*
X69000000Y17894318D01*
X69156762Y17914956D01*
X69302841Y17975464D01*
X69428282Y18071718D01*
X69524536Y18197159D01*
X69585044Y18343238D01*
X69605682Y18500000D01*
X69585044Y18656762D01*
X69524536Y18802841D01*
X69456086Y18892047D01*
X69428286Y18928277D01*
X69428285Y18928278D01*
X69428282Y18928282D01*
X69428277Y18928286D01*
X69428276Y18928287D01*
X69302844Y19024534D01*
X69302843Y19024535D01*
X69302841Y19024536D01*
X69156762Y19085044D01*
X69156760Y19085045D01*
X69000000Y19105682D01*
X68843239Y19085045D01*
X68782663Y19059953D01*
X68697159Y19024536D01*
X68697158Y19024536D01*
X68697155Y19024534D01*
X68571723Y18928287D01*
X68571713Y18928277D01*
X68475466Y18802845D01*
X68475464Y18802842D01*
X68475464Y18802841D01*
X68470316Y18790413D01*
X68414955Y18656761D01*
X68394318Y18500000D01*
X65917157Y18500000D01*
X65898573Y18688683D01*
X65843537Y18870115D01*
X65754162Y19037324D01*
X65633883Y19183883D01*
X65487324Y19304162D01*
X65320115Y19393537D01*
X65320112Y19393538D01*
X65320110Y19393539D01*
X65138684Y19448573D01*
X65138682Y19448574D01*
X64950000Y19467157D01*
X64761317Y19448574D01*
X64761315Y19448573D01*
X64579889Y19393539D01*
X64579887Y19393538D01*
X64412674Y19304161D01*
X64266120Y19183886D01*
X64266114Y19183880D01*
X64145839Y19037326D01*
X64145838Y19037324D01*
X64058205Y18873373D01*
X64056462Y18870113D01*
X64056461Y18870111D01*
X64001427Y18688685D01*
X64001426Y18688683D01*
X63982843Y18500000D01*
X61017157Y18500000D01*
X60998573Y18688683D01*
X60943537Y18870115D01*
X60854162Y19037324D01*
X60733883Y19183883D01*
X60587324Y19304162D01*
X60420115Y19393537D01*
X60420112Y19393538D01*
X60420110Y19393539D01*
X60238684Y19448573D01*
X60238682Y19448574D01*
X60050000Y19467157D01*
X59861317Y19448574D01*
X59861315Y19448573D01*
X59679889Y19393539D01*
X59679887Y19393538D01*
X59512674Y19304161D01*
X59366120Y19183886D01*
X59366114Y19183880D01*
X59245839Y19037326D01*
X59245838Y19037324D01*
X59158205Y18873373D01*
X59156462Y18870113D01*
X59156461Y18870111D01*
X59101427Y18688685D01*
X59101426Y18688683D01*
X59082843Y18500000D01*
X56275001Y18500000D01*
X56275001Y21000000D01*
X59082843Y21000000D01*
X59101426Y20811318D01*
X59101427Y20811316D01*
X59143217Y20673550D01*
X59156463Y20629885D01*
X59245838Y20462676D01*
X59366117Y20316117D01*
X59512676Y20195838D01*
X59679885Y20106463D01*
X59861317Y20051427D01*
X60050000Y20032843D01*
X60238683Y20051427D01*
X60420115Y20106463D01*
X60587324Y20195838D01*
X60733883Y20316117D01*
X60854162Y20462676D01*
X60943537Y20629885D01*
X60998573Y20811317D01*
X61017157Y21000000D01*
X63982843Y21000000D01*
X64001426Y20811318D01*
X64001427Y20811316D01*
X64043217Y20673550D01*
X64056463Y20629885D01*
X64145838Y20462676D01*
X64266117Y20316117D01*
X64412676Y20195838D01*
X64579885Y20106463D01*
X64761317Y20051427D01*
X64950000Y20032843D01*
X65138683Y20051427D01*
X65320115Y20106463D01*
X65487324Y20195838D01*
X65633883Y20316117D01*
X65754162Y20462676D01*
X65843537Y20629885D01*
X65898573Y20811317D01*
X65917157Y21000000D01*
X65898573Y21188683D01*
X65843537Y21370115D01*
X65754162Y21537324D01*
X65633883Y21683883D01*
X65487324Y21804162D01*
X65320115Y21893537D01*
X65320112Y21893538D01*
X65320110Y21893539D01*
X65138684Y21948573D01*
X65138682Y21948574D01*
X64950000Y21967157D01*
X64761317Y21948574D01*
X64761315Y21948573D01*
X64579889Y21893539D01*
X64579887Y21893538D01*
X64412674Y21804161D01*
X64266120Y21683886D01*
X64266114Y21683880D01*
X64145839Y21537326D01*
X64056462Y21370113D01*
X64056461Y21370111D01*
X64001427Y21188685D01*
X64001426Y21188683D01*
X63982843Y21000000D01*
X61017157Y21000000D01*
X60998573Y21188683D01*
X60943537Y21370115D01*
X60854162Y21537324D01*
X60733883Y21683883D01*
X60587324Y21804162D01*
X60420115Y21893537D01*
X60420112Y21893538D01*
X60420110Y21893539D01*
X60238684Y21948573D01*
X60238682Y21948574D01*
X60050000Y21967157D01*
X59861317Y21948574D01*
X59861315Y21948573D01*
X59679889Y21893539D01*
X59679887Y21893538D01*
X59512674Y21804161D01*
X59366120Y21683886D01*
X59366114Y21683880D01*
X59245839Y21537326D01*
X59156462Y21370113D01*
X59156461Y21370111D01*
X59101427Y21188685D01*
X59101426Y21188683D01*
X59082843Y21000000D01*
X56275001Y21000000D01*
X56275001Y21204652D01*
X56293955Y21299940D01*
X56331519Y21362614D01*
X56419138Y21469376D01*
X56507398Y21634500D01*
X56561749Y21813670D01*
X56580101Y22000001D01*
X56561749Y22186332D01*
X56507398Y22365502D01*
X56419138Y22530626D01*
X56406855Y22545593D01*
X56331522Y22637387D01*
X56285723Y22723070D01*
X56275001Y22795351D01*
X56275001Y23100002D01*
X56275001Y23100003D01*
X39474998Y23100003D01*
X39474998Y23100002D01*
X39474998Y20299501D01*
X39456044Y20204213D01*
X39402068Y20123431D01*
X39321286Y20069455D01*
X39225998Y20050501D01*
X38189743Y20050501D01*
X38094455Y20069455D01*
X38013673Y20123431D01*
X37523430Y20613674D01*
X37469454Y20694456D01*
X37450500Y20789744D01*
X37450500Y22710257D01*
X37469454Y22805545D01*
X37523430Y22886327D01*
X40613673Y25976570D01*
X40694455Y26030546D01*
X40789743Y26049500D01*
X51204979Y26049500D01*
X51300267Y26030546D01*
X51381049Y25976570D01*
X51435025Y25895788D01*
X51453979Y25800500D01*
X51435025Y25705214D01*
X51425185Y25681458D01*
X51414955Y25656761D01*
X51394318Y25500000D01*
X51414955Y25343240D01*
X51414956Y25343238D01*
X51475464Y25197159D01*
X51475465Y25197157D01*
X51475466Y25197156D01*
X51529691Y25126488D01*
X51571718Y25071718D01*
X51571722Y25071715D01*
X51571723Y25071714D01*
X51633207Y25024536D01*
X51697159Y24975464D01*
X51843238Y24914956D01*
X52000000Y24894318D01*
X52156762Y24914956D01*
X52302841Y24975464D01*
X52332271Y24998047D01*
X52419406Y25041016D01*
X52483851Y25049500D01*
X52704979Y25049500D01*
X52800267Y25030546D01*
X52881049Y24976570D01*
X52935025Y24895788D01*
X52953979Y24800500D01*
X52935025Y24705214D01*
X52925185Y24681458D01*
X52914955Y24656761D01*
X52894318Y24500000D01*
X52914955Y24343240D01*
X52914956Y24343238D01*
X52975464Y24197159D01*
X52975465Y24197157D01*
X52975466Y24197156D01*
X53070181Y24073720D01*
X53071718Y24071718D01*
X53071722Y24071715D01*
X53071723Y24071714D01*
X53167729Y23998046D01*
X53197159Y23975464D01*
X53343238Y23914956D01*
X53500000Y23894318D01*
X53656762Y23914956D01*
X53802841Y23975464D01*
X53832271Y23998047D01*
X53919406Y24041016D01*
X53983851Y24049500D01*
X55766415Y24049500D01*
X55856772Y24073712D01*
X55856773Y24073713D01*
X55856779Y24073714D01*
X55880993Y24080201D01*
X55983720Y24139511D01*
X58624430Y26780221D01*
X58705212Y26834197D01*
X58800500Y26853151D01*
X58895788Y26834197D01*
X58976570Y26780221D01*
X59030546Y26699439D01*
X59049500Y26604151D01*
X59049500Y24983851D01*
X59030546Y24888563D01*
X58998047Y24832273D01*
X58975464Y24802841D01*
X58964028Y24775232D01*
X58914955Y24656761D01*
X58894318Y24500000D01*
X58914955Y24343240D01*
X58914956Y24343238D01*
X58975464Y24197159D01*
X58975465Y24197157D01*
X58975466Y24197156D01*
X59070181Y24073720D01*
X59071718Y24071718D01*
X59071722Y24071715D01*
X59071723Y24071714D01*
X59167729Y23998046D01*
X59197159Y23975464D01*
X59343238Y23914956D01*
X59500000Y23894318D01*
X59656762Y23914956D01*
X59802841Y23975464D01*
X59928282Y24071718D01*
X60024536Y24197159D01*
X60085044Y24343238D01*
X60105682Y24500000D01*
X60085044Y24656762D01*
X60024536Y24802841D01*
X60001953Y24832272D01*
X59958984Y24919406D01*
X59950500Y24983851D01*
X59950500Y27083913D01*
X59969454Y27179201D01*
X60023427Y27259980D01*
X61423661Y28660213D01*
X61423661Y28660214D01*
X61740017Y28976570D01*
X61820799Y29030546D01*
X61916087Y29049500D01*
X65914978Y29049500D01*
X66010266Y29030546D01*
X66091048Y28976570D01*
X66145024Y28895788D01*
X66163978Y28800500D01*
X66145024Y28705214D01*
X66139546Y28691987D01*
X66124954Y28656761D01*
X66104317Y28500000D01*
X66124954Y28343240D01*
X66124955Y28343238D01*
X66185463Y28197159D01*
X66185464Y28197157D01*
X66185465Y28197156D01*
X66275207Y28080201D01*
X66281717Y28071718D01*
X66281721Y28071715D01*
X66281722Y28071714D01*
X66341858Y28025570D01*
X66407158Y27975464D01*
X66553237Y27914956D01*
X66709999Y27894318D01*
X66866761Y27914956D01*
X67012840Y27975464D01*
X67138281Y28071718D01*
X67234535Y28197159D01*
X67295043Y28343238D01*
X67315681Y28500000D01*
X79894318Y28500000D01*
X79914955Y28343240D01*
X79914956Y28343238D01*
X79975464Y28197159D01*
X79975465Y28197157D01*
X79975466Y28197156D01*
X80065208Y28080201D01*
X80071718Y28071718D01*
X80071722Y28071715D01*
X80071723Y28071714D01*
X80131859Y28025570D01*
X80197159Y27975464D01*
X80343238Y27914956D01*
X80500000Y27894318D01*
X80656762Y27914956D01*
X80802841Y27975464D01*
X80928282Y28071718D01*
X81024536Y28197159D01*
X81085044Y28343238D01*
X81105682Y28500000D01*
X81085044Y28656762D01*
X81024536Y28802841D01*
X80965330Y28880000D01*
X80928286Y28928277D01*
X80928285Y28928278D01*
X80928282Y28928282D01*
X80928277Y28928286D01*
X80928276Y28928287D01*
X80802844Y29024534D01*
X80802843Y29024535D01*
X80802841Y29024536D01*
X80656762Y29085044D01*
X80656760Y29085045D01*
X80500000Y29105682D01*
X80343239Y29085045D01*
X80263576Y29052047D01*
X80197159Y29024536D01*
X80197158Y29024536D01*
X80197155Y29024534D01*
X80071723Y28928287D01*
X80071713Y28928277D01*
X79975466Y28802845D01*
X79975464Y28802842D01*
X79975464Y28802841D01*
X79969298Y28787954D01*
X79914955Y28656761D01*
X79894318Y28500000D01*
X67315681Y28500000D01*
X67295043Y28656762D01*
X67234535Y28802841D01*
X67175329Y28880000D01*
X67138285Y28928277D01*
X67138284Y28928278D01*
X67138281Y28928282D01*
X67138276Y28928286D01*
X67138275Y28928287D01*
X67039378Y29004173D01*
X66975319Y29077218D01*
X66944089Y29169217D01*
X66950443Y29266164D01*
X66993414Y29353299D01*
X67014879Y29377777D01*
X67360490Y29723386D01*
X67419799Y29826113D01*
X67429010Y29860490D01*
X67450500Y29940691D01*
X67450500Y31500000D01*
X81894318Y31500000D01*
X81914955Y31343240D01*
X81914956Y31343238D01*
X81975464Y31197159D01*
X81975465Y31197157D01*
X81975466Y31197156D01*
X82070234Y31073651D01*
X82071718Y31071718D01*
X82071722Y31071715D01*
X82071723Y31071714D01*
X82130508Y31026607D01*
X82197159Y30975464D01*
X82343238Y30914956D01*
X82500000Y30894318D01*
X82656762Y30914956D01*
X82802841Y30975464D01*
X82928282Y31071718D01*
X83024536Y31197159D01*
X83085044Y31343238D01*
X83105682Y31500000D01*
X83085044Y31656762D01*
X83024536Y31802841D01*
X83008387Y31823887D01*
X82928286Y31928277D01*
X82928285Y31928278D01*
X82928282Y31928282D01*
X82928277Y31928286D01*
X82928276Y31928287D01*
X82802844Y32024534D01*
X82802843Y32024535D01*
X82802841Y32024536D01*
X82656762Y32085044D01*
X82656760Y32085045D01*
X82500000Y32105682D01*
X82343239Y32085045D01*
X82251117Y32046887D01*
X82197159Y32024536D01*
X82197158Y32024536D01*
X82197155Y32024534D01*
X82071723Y31928287D01*
X82071713Y31928277D01*
X81975466Y31802845D01*
X81975464Y31802842D01*
X81975464Y31802841D01*
X81971065Y31792220D01*
X81914955Y31656761D01*
X81894318Y31500000D01*
X67450500Y31500000D01*
X67450500Y31709309D01*
X67428284Y31792220D01*
X67428284Y31792222D01*
X67419799Y31823886D01*
X67419799Y31823887D01*
X67360490Y31926614D01*
X67275118Y32011986D01*
X67173430Y32113675D01*
X67119454Y32194456D01*
X67100500Y32289744D01*
X67100500Y33425000D01*
X68469318Y33425000D01*
X68489955Y33268240D01*
X68496023Y33253590D01*
X68550464Y33122159D01*
X68550465Y33122157D01*
X68550466Y33122156D01*
X68625194Y33024768D01*
X68646718Y32996718D01*
X68646722Y32996715D01*
X68646723Y32996714D01*
X68760255Y32909598D01*
X68772159Y32900464D01*
X68918238Y32839956D01*
X69075000Y32819318D01*
X69231762Y32839956D01*
X69377841Y32900464D01*
X69503282Y32996718D01*
X69599536Y33122159D01*
X69660044Y33268238D01*
X69680682Y33425000D01*
X69660044Y33581762D01*
X69599536Y33727841D01*
X69553932Y33787274D01*
X69503286Y33853277D01*
X69503285Y33853278D01*
X69503282Y33853282D01*
X69503277Y33853286D01*
X69503276Y33853287D01*
X69377844Y33949534D01*
X69377843Y33949535D01*
X69377841Y33949536D01*
X69231762Y34010044D01*
X69231760Y34010045D01*
X69075000Y34030682D01*
X68918239Y34010045D01*
X68826117Y33971887D01*
X68772159Y33949536D01*
X68772158Y33949536D01*
X68772155Y33949534D01*
X68646723Y33853287D01*
X68646713Y33853277D01*
X68550466Y33727845D01*
X68489955Y33581761D01*
X68469318Y33425000D01*
X67100500Y33425000D01*
X67100500Y34328549D01*
X67078284Y34411459D01*
X67078284Y34411462D01*
X67069800Y34443124D01*
X67046529Y34483430D01*
X67010489Y34545853D01*
X65545853Y36010489D01*
X65545852Y36010490D01*
X65443124Y36069800D01*
X65404304Y36080201D01*
X65404304Y36080202D01*
X65404301Y36080202D01*
X65328548Y36100500D01*
X64999500Y36100500D01*
X64904212Y36119454D01*
X64823430Y36173430D01*
X64769454Y36254212D01*
X64750500Y36349500D01*
X64750500Y39511257D01*
X64769454Y39606545D01*
X64823430Y39687327D01*
X64904212Y39741303D01*
X64999500Y39760257D01*
X65094788Y39741303D01*
X65175570Y39687327D01*
X65839314Y39023583D01*
X65893290Y38942801D01*
X65910113Y38880018D01*
X65914955Y38843241D01*
X65914955Y38843239D01*
X65914956Y38843238D01*
X65975464Y38697159D01*
X65975465Y38697157D01*
X65975466Y38697156D01*
X66037342Y38616517D01*
X66071718Y38571718D01*
X66071722Y38571715D01*
X66071723Y38571714D01*
X66106978Y38544662D01*
X66197159Y38475464D01*
X66343238Y38414956D01*
X66500000Y38394318D01*
X66656762Y38414956D01*
X66802841Y38475464D01*
X66928282Y38571718D01*
X67024536Y38697159D01*
X67085044Y38843238D01*
X67105682Y39000000D01*
X67085044Y39156762D01*
X67024536Y39302841D01*
X66928282Y39428282D01*
X66928277Y39428286D01*
X66928276Y39428287D01*
X66802844Y39524534D01*
X66802843Y39524535D01*
X66802841Y39524536D01*
X66656762Y39585044D01*
X66656761Y39585045D01*
X66656759Y39585045D01*
X66619982Y39589887D01*
X66527983Y39621118D01*
X66476417Y39660686D01*
X65523430Y40613673D01*
X65469454Y40694455D01*
X65450500Y40789743D01*
X65450500Y66616178D01*
X65469454Y66711466D01*
X65523430Y66792248D01*
X65564873Y66825645D01*
X65681128Y66900357D01*
X65681132Y66900363D01*
X65694589Y66912021D01*
X65695857Y66910558D01*
X65754561Y66956161D01*
X65848254Y66981865D01*
X65866020Y66982500D01*
X80049999Y66982500D01*
X80050000Y66982500D01*
X80050000Y72819207D01*
X80068954Y72914495D01*
X80122930Y72995277D01*
X80203712Y73049253D01*
X80299000Y73068207D01*
X80394288Y73049253D01*
X80475070Y72995277D01*
X80476570Y72993777D01*
X80530546Y72912995D01*
X80549500Y72817707D01*
X80549500Y39940691D01*
X80567236Y39874500D01*
X80580201Y39826113D01*
X80639511Y39723386D01*
X86763386Y33599511D01*
X86838669Y33556046D01*
X86866115Y33540200D01*
X86890325Y33533714D01*
X86890328Y33533714D01*
X86980691Y33509500D01*
X87900403Y33509500D01*
X87995691Y33490546D01*
X88076473Y33436570D01*
X88119999Y33377882D01*
X88122314Y33373550D01*
X88253583Y33213597D01*
X88253596Y33213584D01*
X88365003Y33122156D01*
X88413550Y33082315D01*
X88420159Y33078783D01*
X88495259Y33017152D01*
X88541059Y32931469D01*
X88550583Y32834782D01*
X88522383Y32741810D01*
X88460750Y32666707D01*
X88408016Y32633515D01*
X88322430Y32593605D01*
X88322420Y32593600D01*
X88128923Y32458111D01*
X87961889Y32291077D01*
X87826400Y32097580D01*
X87826396Y32097572D01*
X87726570Y31883495D01*
X87726566Y31883484D01*
X87669363Y31670002D01*
X87669364Y31670000D01*
X88566988Y31670000D01*
X88534075Y31612993D01*
X88500000Y31485826D01*
X88500000Y31354174D01*
X88534075Y31227007D01*
X88566988Y31170000D01*
X87669364Y31170000D01*
X87669363Y31169999D01*
X87726566Y30956517D01*
X87726566Y30956515D01*
X87826399Y30742424D01*
X87961889Y30548924D01*
X88128923Y30381890D01*
X88168798Y30353969D01*
X88235982Y30283787D01*
X88271194Y30193238D01*
X88269075Y30096106D01*
X88229946Y30007179D01*
X88168798Y29946031D01*
X88128923Y29918111D01*
X87961889Y29751077D01*
X87826400Y29557580D01*
X87826396Y29557572D01*
X87726570Y29343495D01*
X87726566Y29343484D01*
X87669363Y29130002D01*
X87669364Y29130000D01*
X88566988Y29130000D01*
X88534075Y29072993D01*
X88500000Y28945826D01*
X88500000Y28814174D01*
X88534075Y28687007D01*
X88566988Y28630000D01*
X87669364Y28630000D01*
X87669363Y28629999D01*
X87726566Y28416517D01*
X87726566Y28416515D01*
X87826399Y28202424D01*
X87961889Y28008924D01*
X88128923Y27841890D01*
X88168798Y27813969D01*
X88235982Y27743787D01*
X88271194Y27653238D01*
X88269075Y27556106D01*
X88229946Y27467179D01*
X88168798Y27406031D01*
X88128923Y27378111D01*
X87961889Y27211077D01*
X87826400Y27017580D01*
X87826396Y27017572D01*
X87726570Y26803495D01*
X87726566Y26803484D01*
X87669363Y26590002D01*
X87669364Y26590000D01*
X88566988Y26590000D01*
X88534075Y26532993D01*
X88500000Y26405826D01*
X88500000Y26274174D01*
X88534075Y26147007D01*
X88566988Y26090000D01*
X87669364Y26090000D01*
X87669363Y26089999D01*
X87726566Y25876517D01*
X87726566Y25876515D01*
X87826399Y25662424D01*
X87961889Y25468924D01*
X88128923Y25301890D01*
X88322423Y25166400D01*
X88408014Y25126488D01*
X88486364Y25069039D01*
X88536765Y24985980D01*
X88551545Y24889956D01*
X88528453Y24795585D01*
X88471004Y24717235D01*
X88420165Y24681222D01*
X88413552Y24677688D01*
X88413550Y24677687D01*
X88253596Y24546417D01*
X88253583Y24546404D01*
X88122316Y24386453D01*
X88024768Y24203956D01*
X87964700Y24005935D01*
X87944417Y23800000D01*
X87964700Y23594066D01*
X88024768Y23396045D01*
X88122316Y23213548D01*
X88253583Y23053597D01*
X88253596Y23053584D01*
X88413547Y22922317D01*
X88413548Y22922317D01*
X88413550Y22922315D01*
X88596044Y22824769D01*
X88596043Y22824769D01*
X88782270Y22768278D01*
X88867953Y22722480D01*
X88929587Y22647378D01*
X88957790Y22554406D01*
X88948267Y22457719D01*
X88902469Y22372036D01*
X88827367Y22310402D01*
X88782270Y22291722D01*
X88596044Y22235232D01*
X88413547Y22137684D01*
X88253596Y22006417D01*
X88253583Y22006404D01*
X88122316Y21846453D01*
X88024768Y21663956D01*
X87964700Y21465935D01*
X87944417Y21260000D01*
X87964700Y21054066D01*
X88024768Y20856045D01*
X88122316Y20673548D01*
X88253583Y20513597D01*
X88253596Y20513584D01*
X88413547Y20382317D01*
X88413548Y20382317D01*
X88413550Y20382315D01*
X88596044Y20284769D01*
X88596043Y20284769D01*
X88782270Y20228278D01*
X88867953Y20182480D01*
X88929587Y20107378D01*
X88957790Y20014406D01*
X88948267Y19917719D01*
X88902469Y19832036D01*
X88827367Y19770402D01*
X88782270Y19751722D01*
X88596044Y19695232D01*
X88413547Y19597684D01*
X88253596Y19466417D01*
X88253583Y19466404D01*
X88122316Y19306453D01*
X88024768Y19123956D01*
X87964700Y18925935D01*
X87944417Y18720000D01*
X87964700Y18514066D01*
X88024768Y18316045D01*
X88122316Y18133548D01*
X88253583Y17973597D01*
X88253596Y17973584D01*
X88413547Y17842317D01*
X88413548Y17842317D01*
X88413550Y17842315D01*
X88596044Y17744769D01*
X88596043Y17744769D01*
X88782270Y17688278D01*
X88867953Y17642480D01*
X88929587Y17567378D01*
X88957790Y17474406D01*
X88948267Y17377719D01*
X88902469Y17292036D01*
X88827367Y17230402D01*
X88782270Y17211722D01*
X88596044Y17155232D01*
X88413547Y17057684D01*
X88253596Y16926417D01*
X88253583Y16926404D01*
X88122316Y16766453D01*
X88024768Y16583956D01*
X87964700Y16385935D01*
X87944417Y16180000D01*
X87964700Y15974066D01*
X88024768Y15776045D01*
X88122316Y15593548D01*
X88253583Y15433597D01*
X88253596Y15433584D01*
X88413547Y15302317D01*
X88413548Y15302317D01*
X88413550Y15302315D01*
X88596044Y15204769D01*
X88596043Y15204769D01*
X88782270Y15148278D01*
X88867953Y15102480D01*
X88929587Y15027378D01*
X88957790Y14934406D01*
X88948267Y14837719D01*
X88902469Y14752036D01*
X88827367Y14690402D01*
X88782270Y14671722D01*
X88596044Y14615232D01*
X88413547Y14517684D01*
X88253596Y14386417D01*
X88253583Y14386404D01*
X88122316Y14226453D01*
X88024768Y14043956D01*
X87964700Y13845935D01*
X87944417Y13640000D01*
X87964700Y13434066D01*
X88024768Y13236045D01*
X88122316Y13053548D01*
X88253583Y12893597D01*
X88253596Y12893584D01*
X88413547Y12762317D01*
X88413548Y12762317D01*
X88413550Y12762315D01*
X88596044Y12664769D01*
X88596043Y12664769D01*
X88782270Y12608278D01*
X88867953Y12562480D01*
X88929587Y12487378D01*
X88957790Y12394406D01*
X88948267Y12297719D01*
X88902469Y12212036D01*
X88827367Y12150402D01*
X88782270Y12131722D01*
X88596044Y12075232D01*
X88413547Y11977684D01*
X88253596Y11846417D01*
X88253583Y11846404D01*
X88122316Y11686453D01*
X88024768Y11503956D01*
X87964700Y11305935D01*
X87944417Y11100000D01*
X87964700Y10894066D01*
X88024768Y10696045D01*
X88122316Y10513548D01*
X88253583Y10353597D01*
X88253596Y10353584D01*
X88413547Y10222317D01*
X88413548Y10222317D01*
X88413550Y10222315D01*
X88596044Y10124769D01*
X88596043Y10124769D01*
X88782270Y10068278D01*
X88867953Y10022480D01*
X88929587Y9947378D01*
X88957790Y9854406D01*
X88948267Y9757719D01*
X88902469Y9672036D01*
X88827367Y9610402D01*
X88782270Y9591722D01*
X88596044Y9535232D01*
X88413547Y9437684D01*
X88253596Y9306417D01*
X88253583Y9306404D01*
X88122316Y9146453D01*
X88024768Y8963956D01*
X87964700Y8765935D01*
X87944417Y8560000D01*
X87964700Y8354066D01*
X88024768Y8156045D01*
X88122316Y7973548D01*
X88253583Y7813597D01*
X88253596Y7813584D01*
X88413547Y7682317D01*
X88413548Y7682317D01*
X88413550Y7682315D01*
X88596044Y7584769D01*
X88596043Y7584769D01*
X88782270Y7528278D01*
X88867953Y7482480D01*
X88929587Y7407378D01*
X88957790Y7314406D01*
X88948267Y7217719D01*
X88902469Y7132036D01*
X88827367Y7070402D01*
X88782270Y7051722D01*
X88596044Y6995232D01*
X88413547Y6897684D01*
X88253596Y6766417D01*
X88253583Y6766404D01*
X88122316Y6606453D01*
X88024768Y6423956D01*
X87964700Y6225935D01*
X87944417Y6020000D01*
X87964700Y5814066D01*
X88024768Y5616045D01*
X88122316Y5433548D01*
X88253583Y5273597D01*
X88253596Y5273584D01*
X88413547Y5142317D01*
X88413548Y5142317D01*
X88413550Y5142315D01*
X88596044Y5044769D01*
X88596043Y5044769D01*
X88782270Y4988278D01*
X88867953Y4942480D01*
X88929587Y4867378D01*
X88957790Y4774406D01*
X88948267Y4677719D01*
X88902469Y4592036D01*
X88827367Y4530402D01*
X88782270Y4511722D01*
X88596044Y4455232D01*
X88413547Y4357684D01*
X88253596Y4226417D01*
X88253583Y4226404D01*
X88122316Y4066453D01*
X88024768Y3883956D01*
X87964700Y3685935D01*
X87944417Y3480000D01*
X87964700Y3274066D01*
X88024768Y3076045D01*
X88122316Y2893548D01*
X88253583Y2733597D01*
X88253596Y2733584D01*
X88413547Y2602317D01*
X88413548Y2602317D01*
X88413550Y2602315D01*
X88596046Y2504768D01*
X88794066Y2444700D01*
X89000000Y2424417D01*
X89205934Y2444700D01*
X89403954Y2504768D01*
X89586450Y2602315D01*
X89746410Y2733590D01*
X89877685Y2893550D01*
X89975232Y3076046D01*
X90031722Y3262270D01*
X90077520Y3347954D01*
X90152622Y3409588D01*
X90245593Y3437791D01*
X90342280Y3428268D01*
X90427964Y3382470D01*
X90489598Y3307368D01*
X90508278Y3262270D01*
X90564767Y3076047D01*
X90564768Y3076045D01*
X90662316Y2893548D01*
X90793583Y2733597D01*
X90793596Y2733584D01*
X90953547Y2602317D01*
X90953548Y2602317D01*
X90953550Y2602315D01*
X91136046Y2504768D01*
X91334066Y2444700D01*
X91540000Y2424417D01*
X91745934Y2444700D01*
X91943954Y2504768D01*
X92126450Y2602315D01*
X92286410Y2733590D01*
X92417685Y2893550D01*
X92515232Y3076046D01*
X92575300Y3274066D01*
X92595583Y3480000D01*
X92575300Y3685934D01*
X92515232Y3883954D01*
X92417685Y4066450D01*
X92417683Y4066453D01*
X92286416Y4226404D01*
X92286403Y4226417D01*
X92126452Y4357684D01*
X91943955Y4455232D01*
X91943953Y4455233D01*
X91757730Y4511722D01*
X91672046Y4557520D01*
X91610412Y4632622D01*
X91582209Y4725593D01*
X91591732Y4822280D01*
X91637530Y4907964D01*
X91712632Y4969598D01*
X91757730Y4988278D01*
X91889593Y5028278D01*
X91943954Y5044768D01*
X92126450Y5142315D01*
X92286410Y5273590D01*
X92417685Y5433550D01*
X92515232Y5616046D01*
X92575300Y5814066D01*
X92595583Y6020000D01*
X92575300Y6225934D01*
X92515232Y6423954D01*
X92417685Y6606450D01*
X92417683Y6606453D01*
X92286416Y6766404D01*
X92286403Y6766417D01*
X92126452Y6897684D01*
X91943955Y6995232D01*
X91943953Y6995233D01*
X91757730Y7051722D01*
X91672046Y7097520D01*
X91610412Y7172622D01*
X91582209Y7265593D01*
X91591732Y7362280D01*
X91637530Y7447964D01*
X91712632Y7509598D01*
X91757730Y7528278D01*
X91889593Y7568278D01*
X91943954Y7584768D01*
X92126450Y7682315D01*
X92286410Y7813590D01*
X92417685Y7973550D01*
X92515232Y8156046D01*
X92575300Y8354066D01*
X92595583Y8560000D01*
X92575300Y8765934D01*
X92515232Y8963954D01*
X92417685Y9146450D01*
X92417683Y9146453D01*
X92286416Y9306404D01*
X92286403Y9306417D01*
X92126452Y9437684D01*
X91943955Y9535232D01*
X91943953Y9535233D01*
X91757730Y9591722D01*
X91672046Y9637520D01*
X91610412Y9712622D01*
X91582209Y9805593D01*
X91591732Y9902280D01*
X91637530Y9987964D01*
X91712632Y10049598D01*
X91757730Y10068278D01*
X91889593Y10108278D01*
X91943954Y10124768D01*
X92126450Y10222315D01*
X92286410Y10353590D01*
X92417685Y10513550D01*
X92515232Y10696046D01*
X92575300Y10894066D01*
X92595583Y11100000D01*
X92575300Y11305934D01*
X92515232Y11503954D01*
X92417685Y11686450D01*
X92417683Y11686453D01*
X92286416Y11846404D01*
X92286403Y11846417D01*
X92126452Y11977684D01*
X91943955Y12075232D01*
X91943953Y12075233D01*
X91757730Y12131722D01*
X91672046Y12177520D01*
X91610412Y12252622D01*
X91582209Y12345593D01*
X91591732Y12442280D01*
X91637530Y12527964D01*
X91712632Y12589598D01*
X91757730Y12608278D01*
X91889593Y12648278D01*
X91943954Y12664768D01*
X92126450Y12762315D01*
X92286410Y12893590D01*
X92417685Y13053550D01*
X92515232Y13236046D01*
X92575300Y13434066D01*
X92595583Y13640000D01*
X92575300Y13845934D01*
X92515232Y14043954D01*
X92417685Y14226450D01*
X92417683Y14226453D01*
X92286416Y14386404D01*
X92286403Y14386417D01*
X92126452Y14517684D01*
X91943955Y14615232D01*
X91943953Y14615233D01*
X91757730Y14671722D01*
X91672046Y14717520D01*
X91610412Y14792622D01*
X91582209Y14885593D01*
X91591732Y14982280D01*
X91637530Y15067964D01*
X91712632Y15129598D01*
X91757730Y15148278D01*
X91889593Y15188278D01*
X91943954Y15204768D01*
X92126450Y15302315D01*
X92219893Y15379002D01*
X92286403Y15433584D01*
X92286404Y15433586D01*
X92286410Y15433590D01*
X92417685Y15593550D01*
X92515232Y15776046D01*
X92575300Y15974066D01*
X92595583Y16180000D01*
X92575300Y16385934D01*
X92515232Y16583954D01*
X92417685Y16766450D01*
X92417683Y16766453D01*
X92286416Y16926404D01*
X92286403Y16926417D01*
X92126452Y17057684D01*
X91943955Y17155232D01*
X91943953Y17155233D01*
X91757730Y17211722D01*
X91672046Y17257520D01*
X91610412Y17332622D01*
X91582209Y17425593D01*
X91591732Y17522280D01*
X91637530Y17607964D01*
X91712632Y17669598D01*
X91757730Y17688278D01*
X91889593Y17728278D01*
X91943954Y17744768D01*
X92126450Y17842315D01*
X92286410Y17973590D01*
X92287951Y17975467D01*
X92414677Y18129885D01*
X92417685Y18133550D01*
X92515232Y18316046D01*
X92575300Y18514066D01*
X92595583Y18720000D01*
X92575300Y18925934D01*
X92515232Y19123954D01*
X92417685Y19306450D01*
X92417683Y19306453D01*
X92286416Y19466404D01*
X92286403Y19466417D01*
X92126452Y19597684D01*
X91943955Y19695232D01*
X91943953Y19695233D01*
X91757730Y19751722D01*
X91672046Y19797520D01*
X91610412Y19872622D01*
X91582209Y19965593D01*
X91591732Y20062280D01*
X91637530Y20147964D01*
X91712632Y20209598D01*
X91757730Y20228278D01*
X91889593Y20268278D01*
X91943954Y20284768D01*
X92126450Y20382315D01*
X92286410Y20513590D01*
X92417685Y20673550D01*
X92515232Y20856046D01*
X92575300Y21054066D01*
X92595583Y21260000D01*
X92575300Y21465934D01*
X92515232Y21663954D01*
X92417685Y21846450D01*
X92417683Y21846453D01*
X92286416Y22006404D01*
X92286403Y22006417D01*
X92126452Y22137684D01*
X91943955Y22235232D01*
X91943953Y22235233D01*
X91757730Y22291722D01*
X91672046Y22337520D01*
X91610412Y22412622D01*
X91582209Y22505593D01*
X91591732Y22602280D01*
X91637530Y22687964D01*
X91712632Y22749598D01*
X91757730Y22768278D01*
X91877798Y22804700D01*
X91943954Y22824768D01*
X92126450Y22922315D01*
X92286410Y23053590D01*
X92417685Y23213550D01*
X92515232Y23396046D01*
X92575300Y23594066D01*
X92595583Y23800000D01*
X92575300Y24005934D01*
X92515232Y24203954D01*
X92417685Y24386450D01*
X92417683Y24386453D01*
X92286416Y24546404D01*
X92286403Y24546417D01*
X92126452Y24677684D01*
X91943955Y24775232D01*
X91943953Y24775233D01*
X91757730Y24831722D01*
X91672046Y24877520D01*
X91610412Y24952622D01*
X91582209Y25045593D01*
X91591732Y25142280D01*
X91637530Y25227964D01*
X91712632Y25289598D01*
X91757730Y25308278D01*
X91889593Y25348278D01*
X91943954Y25364768D01*
X92126450Y25462315D01*
X92286410Y25593590D01*
X92417685Y25753550D01*
X92515232Y25936046D01*
X92575300Y26134066D01*
X92595583Y26340000D01*
X92575300Y26545934D01*
X92515232Y26743954D01*
X92417685Y26926450D01*
X92413142Y26931986D01*
X92286416Y27086404D01*
X92286403Y27086417D01*
X92126452Y27217684D01*
X91943955Y27315232D01*
X91943953Y27315233D01*
X91757730Y27371722D01*
X91672046Y27417520D01*
X91610412Y27492622D01*
X91582209Y27585593D01*
X91591732Y27682280D01*
X91637530Y27767964D01*
X91712632Y27829598D01*
X91757730Y27848278D01*
X91889593Y27888278D01*
X91943954Y27904768D01*
X92126450Y28002315D01*
X92286410Y28133590D01*
X92291269Y28139510D01*
X92351356Y28212727D01*
X92417685Y28293550D01*
X92515232Y28476046D01*
X92575300Y28674066D01*
X92595583Y28880000D01*
X92575300Y29085934D01*
X92515232Y29283954D01*
X92417685Y29466450D01*
X92413142Y29471986D01*
X92286416Y29626404D01*
X92286403Y29626417D01*
X92126452Y29757684D01*
X91943955Y29855232D01*
X91943953Y29855233D01*
X91757730Y29911722D01*
X91672046Y29957520D01*
X91610412Y30032622D01*
X91582209Y30125593D01*
X91591732Y30222280D01*
X91637530Y30307964D01*
X91712632Y30369598D01*
X91757730Y30388278D01*
X91889606Y30428282D01*
X91943954Y30444768D01*
X92126450Y30542315D01*
X92286410Y30673590D01*
X92417685Y30833550D01*
X92515232Y31016046D01*
X92575300Y31214066D01*
X92595583Y31420000D01*
X92575300Y31625934D01*
X92515232Y31823954D01*
X92417685Y32006450D01*
X92402844Y32024534D01*
X92286416Y32166404D01*
X92286403Y32166417D01*
X92126452Y32297684D01*
X91943955Y32395232D01*
X91943953Y32395233D01*
X91757730Y32451722D01*
X91672046Y32497520D01*
X91610412Y32572622D01*
X91582209Y32665593D01*
X91591732Y32762280D01*
X91637530Y32847964D01*
X91712632Y32909598D01*
X91757730Y32928278D01*
X91913292Y32975467D01*
X91943954Y32984768D01*
X92126450Y33082315D01*
X92266941Y33197612D01*
X92286403Y33213584D01*
X92286404Y33213586D01*
X92286410Y33213590D01*
X92314709Y33248072D01*
X92390182Y33340037D01*
X92417685Y33373550D01*
X92515232Y33556046D01*
X92575300Y33754066D01*
X92595583Y33960000D01*
X92575300Y34165934D01*
X92515232Y34363954D01*
X92417685Y34546450D01*
X92415182Y34549500D01*
X92286416Y34706404D01*
X92286403Y34706417D01*
X92126452Y34837684D01*
X91943955Y34935232D01*
X91943953Y34935233D01*
X91757730Y34991722D01*
X91672046Y35037520D01*
X91610412Y35112622D01*
X91582209Y35205593D01*
X91591732Y35302280D01*
X91637530Y35387964D01*
X91712632Y35449598D01*
X91757730Y35468278D01*
X91889593Y35508278D01*
X91943954Y35524768D01*
X92126450Y35622315D01*
X92281469Y35749535D01*
X92286403Y35753584D01*
X92286404Y35753586D01*
X92286410Y35753590D01*
X92417685Y35913550D01*
X92515232Y36096046D01*
X92575300Y36294066D01*
X92595583Y36500000D01*
X92575300Y36705934D01*
X92515232Y36903954D01*
X92417685Y37086450D01*
X92417683Y37086453D01*
X92286416Y37246404D01*
X92286403Y37246417D01*
X92126452Y37377684D01*
X91943955Y37475232D01*
X91943953Y37475233D01*
X91757730Y37531722D01*
X91672046Y37577520D01*
X91610412Y37652622D01*
X91582209Y37745593D01*
X91591732Y37842280D01*
X91637530Y37927964D01*
X91712632Y37989598D01*
X91757730Y38008278D01*
X91868534Y38041890D01*
X91943954Y38064768D01*
X92126450Y38162315D01*
X92219893Y38239002D01*
X92286403Y38293584D01*
X92286404Y38293586D01*
X92286410Y38293590D01*
X92417685Y38453550D01*
X92515232Y38636046D01*
X92575300Y38834066D01*
X92595583Y39040000D01*
X92575300Y39245934D01*
X92515232Y39443954D01*
X92417685Y39626450D01*
X92392809Y39656762D01*
X92286416Y39786404D01*
X92286403Y39786417D01*
X92126452Y39917684D01*
X91943955Y40015232D01*
X91943953Y40015233D01*
X91757730Y40071722D01*
X91672046Y40117520D01*
X91610412Y40192622D01*
X91582209Y40285593D01*
X91591732Y40382280D01*
X91637530Y40467964D01*
X91712632Y40529598D01*
X91757730Y40548278D01*
X91839053Y40572948D01*
X91943954Y40604768D01*
X92126450Y40702315D01*
X92219893Y40779002D01*
X92286403Y40833584D01*
X92286404Y40833586D01*
X92286410Y40833590D01*
X92417685Y40993550D01*
X92515232Y41176046D01*
X92575300Y41374066D01*
X92595583Y41580000D01*
X92575300Y41785934D01*
X92515232Y41983954D01*
X92417685Y42166450D01*
X92407765Y42178538D01*
X92286416Y42326404D01*
X92286403Y42326417D01*
X92126452Y42457684D01*
X91943955Y42555232D01*
X91943953Y42555233D01*
X91757730Y42611722D01*
X91672046Y42657520D01*
X91610412Y42732622D01*
X91582209Y42825593D01*
X91591732Y42922280D01*
X91637530Y43007964D01*
X91712632Y43069598D01*
X91757730Y43088278D01*
X91877798Y43124700D01*
X91943954Y43144768D01*
X92126450Y43242315D01*
X92219893Y43319002D01*
X92286403Y43373584D01*
X92286404Y43373586D01*
X92286410Y43373590D01*
X92417685Y43533550D01*
X92515232Y43716046D01*
X92575300Y43914066D01*
X92595583Y44120000D01*
X92575300Y44325934D01*
X92515232Y44523954D01*
X92514921Y44524535D01*
X92417683Y44706453D01*
X92286416Y44866404D01*
X92286403Y44866417D01*
X92126452Y44997684D01*
X91943955Y45095232D01*
X91943953Y45095233D01*
X91757730Y45151722D01*
X91672046Y45197520D01*
X91610412Y45272622D01*
X91582209Y45365593D01*
X91591732Y45462280D01*
X91637530Y45547964D01*
X91712632Y45609598D01*
X91757730Y45628278D01*
X91889593Y45668278D01*
X91943954Y45684768D01*
X92126450Y45782315D01*
X92219893Y45859002D01*
X92286403Y45913584D01*
X92286404Y45913586D01*
X92286410Y45913590D01*
X92324443Y45959933D01*
X92416178Y46071714D01*
X92417685Y46073550D01*
X92515232Y46256046D01*
X92575300Y46454066D01*
X92595583Y46660000D01*
X92575300Y46865934D01*
X92515232Y47063954D01*
X92417685Y47246450D01*
X92388401Y47282133D01*
X92286416Y47406404D01*
X92286403Y47406417D01*
X92126452Y47537684D01*
X91943955Y47635232D01*
X91943953Y47635233D01*
X91757730Y47691722D01*
X91672046Y47737520D01*
X91610412Y47812622D01*
X91582209Y47905593D01*
X91591732Y48002280D01*
X91637530Y48087964D01*
X91712632Y48149598D01*
X91757730Y48168278D01*
X91893463Y48209452D01*
X91943954Y48224768D01*
X92126450Y48322315D01*
X92219893Y48399002D01*
X92286403Y48453584D01*
X92286404Y48453586D01*
X92286410Y48453590D01*
X92417685Y48613550D01*
X92515232Y48796046D01*
X92575300Y48994066D01*
X92595583Y49200000D01*
X92575300Y49405934D01*
X92515232Y49603954D01*
X92417685Y49786450D01*
X92398808Y49809452D01*
X92286416Y49946404D01*
X92286403Y49946417D01*
X92126452Y50077684D01*
X91943955Y50175232D01*
X91943953Y50175233D01*
X91854979Y50202222D01*
X91769296Y50248020D01*
X91707661Y50323122D01*
X91679458Y50416093D01*
X91688981Y50512780D01*
X91734779Y50598463D01*
X91809881Y50660098D01*
X91902852Y50688301D01*
X91927259Y50689500D01*
X92409745Y50689500D01*
X92409748Y50689500D01*
X92468231Y50701133D01*
X92534552Y50745448D01*
X92578867Y50811769D01*
X92590500Y50870252D01*
X92590500Y52609748D01*
X92578867Y52668231D01*
X92565176Y52688720D01*
X92534554Y52734549D01*
X92534552Y52734552D01*
X92534548Y52734555D01*
X92468232Y52778867D01*
X92453610Y52781776D01*
X92409748Y52790500D01*
X90670252Y52790500D01*
X90635162Y52783521D01*
X90611767Y52778867D01*
X90545451Y52734555D01*
X90545445Y52734549D01*
X90501133Y52668233D01*
X90489500Y52609746D01*
X90489500Y52127260D01*
X90470546Y52031972D01*
X90416570Y51951190D01*
X90335788Y51897214D01*
X90240500Y51878260D01*
X90145212Y51897214D01*
X90064430Y51951190D01*
X90010454Y52031972D01*
X90002222Y52054979D01*
X89975231Y52143956D01*
X89877683Y52326453D01*
X89746416Y52486404D01*
X89746403Y52486417D01*
X89586452Y52617684D01*
X89403955Y52715232D01*
X89205934Y52775300D01*
X89000000Y52795583D01*
X88794065Y52775300D01*
X88596044Y52715232D01*
X88413547Y52617684D01*
X88253596Y52486417D01*
X88253583Y52486404D01*
X88122316Y52326453D01*
X88024768Y52143956D01*
X87964700Y51945935D01*
X87944417Y51740000D01*
X87964700Y51534066D01*
X88024768Y51336045D01*
X88122316Y51153548D01*
X88253583Y50993597D01*
X88253596Y50993584D01*
X88413547Y50862317D01*
X88413548Y50862317D01*
X88413550Y50862315D01*
X88596044Y50764769D01*
X88596043Y50764769D01*
X88782270Y50708278D01*
X88867953Y50662480D01*
X88929587Y50587378D01*
X88957790Y50494406D01*
X88948267Y50397719D01*
X88902469Y50312036D01*
X88827367Y50250402D01*
X88782270Y50231722D01*
X88596044Y50175232D01*
X88413547Y50077684D01*
X88253596Y49946417D01*
X88253583Y49946404D01*
X88122316Y49786453D01*
X88024768Y49603956D01*
X87964700Y49405935D01*
X87944417Y49200000D01*
X87964700Y48994066D01*
X88024768Y48796045D01*
X88122316Y48613548D01*
X88253583Y48453597D01*
X88253596Y48453584D01*
X88413547Y48322317D01*
X88413548Y48322317D01*
X88413550Y48322315D01*
X88434371Y48311186D01*
X88592605Y48226607D01*
X88596044Y48224769D01*
X88596043Y48224769D01*
X88782270Y48168278D01*
X88867953Y48122480D01*
X88929587Y48047378D01*
X88957790Y47954406D01*
X88948267Y47857719D01*
X88902469Y47772036D01*
X88827367Y47710402D01*
X88782270Y47691722D01*
X88596044Y47635232D01*
X88413547Y47537684D01*
X88253596Y47406417D01*
X88253583Y47406404D01*
X88122316Y47246453D01*
X88024768Y47063956D01*
X87964700Y46865935D01*
X87944417Y46660000D01*
X87964700Y46454066D01*
X88024768Y46256045D01*
X88122316Y46073548D01*
X88253583Y45913597D01*
X88253596Y45913584D01*
X88413547Y45782317D01*
X88413548Y45782317D01*
X88413550Y45782315D01*
X88434371Y45771186D01*
X88577539Y45694660D01*
X88596044Y45684769D01*
X88596043Y45684769D01*
X88782270Y45628278D01*
X88867953Y45582480D01*
X88929587Y45507378D01*
X88957790Y45414406D01*
X88948267Y45317719D01*
X88902469Y45232036D01*
X88827367Y45170402D01*
X88782270Y45151722D01*
X88596044Y45095232D01*
X88413547Y44997684D01*
X88253596Y44866417D01*
X88253583Y44866404D01*
X88122316Y44706453D01*
X88024768Y44523956D01*
X87964700Y44325935D01*
X87944417Y44120000D01*
X87964700Y43914066D01*
X88024768Y43716045D01*
X88122316Y43533548D01*
X88253583Y43373597D01*
X88253596Y43373584D01*
X88413547Y43242317D01*
X88413548Y43242317D01*
X88413550Y43242315D01*
X88510077Y43190720D01*
X88577539Y43154660D01*
X88596044Y43144769D01*
X88596043Y43144769D01*
X88782270Y43088278D01*
X88867953Y43042480D01*
X88929587Y42967378D01*
X88957790Y42874406D01*
X88948267Y42777719D01*
X88902469Y42692036D01*
X88827367Y42630402D01*
X88782270Y42611722D01*
X88596044Y42555232D01*
X88413547Y42457684D01*
X88253596Y42326417D01*
X88253583Y42326404D01*
X88122316Y42166453D01*
X88024768Y41983956D01*
X87964700Y41785935D01*
X87944417Y41580000D01*
X87964700Y41374066D01*
X88024768Y41176045D01*
X88122316Y40993548D01*
X88253583Y40833597D01*
X88253596Y40833584D01*
X88413547Y40702317D01*
X88413548Y40702317D01*
X88413550Y40702315D01*
X88446032Y40684953D01*
X88591604Y40607142D01*
X88596044Y40604769D01*
X88596043Y40604769D01*
X88782270Y40548278D01*
X88867953Y40502480D01*
X88929587Y40427378D01*
X88957790Y40334406D01*
X88948267Y40237719D01*
X88902469Y40152036D01*
X88827367Y40090402D01*
X88782270Y40071722D01*
X88596044Y40015232D01*
X88413547Y39917684D01*
X88253596Y39786417D01*
X88253583Y39786404D01*
X88122316Y39626453D01*
X88024768Y39443956D01*
X87964700Y39245935D01*
X87944417Y39040000D01*
X87964700Y38834066D01*
X88024768Y38636045D01*
X88122316Y38453548D01*
X88253583Y38293597D01*
X88253596Y38293584D01*
X88413547Y38162317D01*
X88413548Y38162317D01*
X88413550Y38162315D01*
X88596044Y38064769D01*
X88596043Y38064769D01*
X88782270Y38008278D01*
X88867953Y37962480D01*
X88929587Y37887378D01*
X88957790Y37794406D01*
X88948267Y37697719D01*
X88902469Y37612036D01*
X88827367Y37550402D01*
X88782270Y37531722D01*
X88596044Y37475232D01*
X88413547Y37377684D01*
X88253596Y37246417D01*
X88253583Y37246404D01*
X88122314Y37086451D01*
X88119999Y37082118D01*
X88116882Y37078321D01*
X88115519Y37076280D01*
X88115317Y37076415D01*
X88058364Y37007018D01*
X87972680Y36961221D01*
X87900403Y36950500D01*
X85789743Y36950500D01*
X85694455Y36969454D01*
X85613673Y37023430D01*
X82223430Y40413673D01*
X82169454Y40494455D01*
X82150500Y40589743D01*
X82150500Y46500000D01*
X83394318Y46500000D01*
X83414955Y46343240D01*
X83414956Y46343238D01*
X83475464Y46197159D01*
X83475465Y46197157D01*
X83475466Y46197156D01*
X83570313Y46073548D01*
X83571718Y46071718D01*
X83571722Y46071715D01*
X83571723Y46071714D01*
X83616851Y46037086D01*
X83697159Y45975464D01*
X83843238Y45914956D01*
X84000000Y45894318D01*
X84156762Y45914956D01*
X84302841Y45975464D01*
X84428282Y46071718D01*
X84524536Y46197159D01*
X84585044Y46343238D01*
X84605682Y46500000D01*
X84585044Y46656762D01*
X84524536Y46802841D01*
X84476123Y46865934D01*
X84428286Y46928277D01*
X84428285Y46928278D01*
X84428282Y46928282D01*
X84428277Y46928286D01*
X84428276Y46928287D01*
X84302844Y47024534D01*
X84302843Y47024535D01*
X84302841Y47024536D01*
X84157530Y47084726D01*
X84156760Y47085045D01*
X84000000Y47105682D01*
X83843239Y47085045D01*
X83792327Y47063956D01*
X83697159Y47024536D01*
X83697158Y47024536D01*
X83697155Y47024534D01*
X83571723Y46928287D01*
X83571713Y46928277D01*
X83475466Y46802845D01*
X83475464Y46802842D01*
X83475464Y46802841D01*
X83465605Y46779040D01*
X83414955Y46656761D01*
X83394318Y46500000D01*
X82150500Y46500000D01*
X82150500Y54000000D01*
X83394318Y54000000D01*
X83414955Y53843240D01*
X83414956Y53843238D01*
X83475464Y53697159D01*
X83475465Y53697157D01*
X83475466Y53697156D01*
X83558033Y53589552D01*
X83571718Y53571718D01*
X83697159Y53475464D01*
X83843238Y53414956D01*
X84000000Y53394318D01*
X84156762Y53414956D01*
X84302841Y53475464D01*
X84428282Y53571718D01*
X84524536Y53697159D01*
X84585044Y53843238D01*
X84605682Y54000000D01*
X84585044Y54156762D01*
X84524536Y54302841D01*
X84428282Y54428282D01*
X84428277Y54428286D01*
X84428276Y54428287D01*
X84302844Y54524534D01*
X84302843Y54524535D01*
X84302841Y54524536D01*
X84156762Y54585044D01*
X84156760Y54585045D01*
X84000000Y54605682D01*
X83843239Y54585045D01*
X83759916Y54550531D01*
X83697159Y54524536D01*
X83697158Y54524536D01*
X83697155Y54524534D01*
X83571723Y54428287D01*
X83571713Y54428277D01*
X83475466Y54302845D01*
X83414955Y54156761D01*
X83394318Y54000000D01*
X82150500Y54000000D01*
X82150500Y59853847D01*
X83699500Y59853847D01*
X83699500Y59146154D01*
X83730261Y58991508D01*
X83730263Y58991503D01*
X83790603Y58845827D01*
X83790606Y58845820D01*
X83804505Y58825019D01*
X83878211Y58714711D01*
X83989711Y58603211D01*
X83989714Y58603209D01*
X84120819Y58515607D01*
X84120820Y58515607D01*
X84120821Y58515606D01*
X84266503Y58455263D01*
X84266505Y58455263D01*
X84266507Y58455262D01*
X84410565Y58426607D01*
X84421158Y58424500D01*
X84578842Y58424500D01*
X84733497Y58455263D01*
X84879179Y58515606D01*
X85010289Y58603211D01*
X85121789Y58714711D01*
X85209394Y58845821D01*
X85269737Y58991503D01*
X85269737Y58991504D01*
X85269954Y58992027D01*
X85323930Y59072809D01*
X85404711Y59126786D01*
X85499999Y59145740D01*
X85595287Y59126786D01*
X85676069Y59072810D01*
X85730046Y58992029D01*
X85730046Y58992027D01*
X85790603Y58845827D01*
X85790606Y58845820D01*
X85804505Y58825019D01*
X85878211Y58714711D01*
X85989711Y58603211D01*
X85989714Y58603209D01*
X86120819Y58515607D01*
X86120820Y58515607D01*
X86120821Y58515606D01*
X86266503Y58455263D01*
X86266505Y58455263D01*
X86266507Y58455262D01*
X86410565Y58426607D01*
X86421158Y58424500D01*
X86578842Y58424500D01*
X86733497Y58455263D01*
X86879179Y58515606D01*
X87010289Y58603211D01*
X87121789Y58714711D01*
X87209394Y58845821D01*
X87269737Y58991503D01*
X87269737Y58991504D01*
X87269954Y58992027D01*
X87323930Y59072809D01*
X87404711Y59126786D01*
X87499999Y59145740D01*
X87595287Y59126786D01*
X87676069Y59072810D01*
X87730046Y58992029D01*
X87730046Y58992027D01*
X87790603Y58845827D01*
X87790606Y58845820D01*
X87804505Y58825019D01*
X87878211Y58714711D01*
X87989711Y58603211D01*
X87989714Y58603209D01*
X88120819Y58515607D01*
X88120820Y58515607D01*
X88120821Y58515606D01*
X88266503Y58455263D01*
X88266505Y58455263D01*
X88266507Y58455262D01*
X88410565Y58426607D01*
X88421158Y58424500D01*
X88578842Y58424500D01*
X88733497Y58455263D01*
X88879179Y58515606D01*
X89010289Y58603211D01*
X89055077Y58648000D01*
X89135855Y58701974D01*
X89231143Y58720929D01*
X89326431Y58701976D01*
X89407213Y58648000D01*
X89461190Y58567219D01*
X89464500Y58558326D01*
X89465641Y58555879D01*
X89557681Y58406659D01*
X89557684Y58406655D01*
X89681654Y58282685D01*
X89681658Y58282682D01*
X89830878Y58190642D01*
X89830879Y58190641D01*
X89997298Y58135496D01*
X89997305Y58135495D01*
X90100023Y58125001D01*
X90249999Y58125002D01*
X90250000Y58125002D01*
X90250000Y59219670D01*
X90269745Y59199925D01*
X90355255Y59150556D01*
X90450630Y59125000D01*
X90549370Y59125000D01*
X90644745Y59150556D01*
X90730255Y59199925D01*
X90750000Y59219670D01*
X90750000Y58125002D01*
X90750001Y58125001D01*
X90899968Y58125001D01*
X90899984Y58125002D01*
X91002699Y58135495D01*
X91002702Y58135496D01*
X91169119Y58190641D01*
X91169121Y58190642D01*
X91318341Y58282682D01*
X91318345Y58282685D01*
X91442315Y58406655D01*
X91442318Y58406659D01*
X91534358Y58555879D01*
X91534359Y58555880D01*
X91589504Y58722299D01*
X91589505Y58722306D01*
X91599999Y58825019D01*
X91600000Y58825029D01*
X91600000Y59249999D01*
X91599999Y59250000D01*
X90780330Y59250000D01*
X90800075Y59269745D01*
X90849444Y59355255D01*
X90875000Y59450630D01*
X90875000Y59549370D01*
X90849444Y59644745D01*
X90800075Y59730255D01*
X90780330Y59750000D01*
X91599998Y59750000D01*
X91599999Y59750001D01*
X91599999Y60174968D01*
X91599998Y60174985D01*
X91589505Y60277700D01*
X91589504Y60277703D01*
X91534359Y60444120D01*
X91534358Y60444122D01*
X91442318Y60593342D01*
X91442315Y60593346D01*
X91318345Y60717316D01*
X91318341Y60717319D01*
X91169121Y60809359D01*
X91169120Y60809360D01*
X91002701Y60864505D01*
X91002694Y60864506D01*
X90899981Y60875000D01*
X90750001Y60875000D01*
X90750000Y60874999D01*
X90750000Y59780330D01*
X90730255Y59800075D01*
X90644745Y59849444D01*
X90549370Y59875000D01*
X90450630Y59875000D01*
X90355255Y59849444D01*
X90269745Y59800075D01*
X90250000Y59780330D01*
X90250000Y60875001D01*
X90100024Y60875000D01*
X89997300Y60864506D01*
X89997297Y60864505D01*
X89830880Y60809360D01*
X89830878Y60809359D01*
X89681658Y60717319D01*
X89681654Y60717316D01*
X89557684Y60593346D01*
X89557681Y60593342D01*
X89465641Y60444122D01*
X89459512Y60430977D01*
X89457407Y60431959D01*
X89419536Y60365253D01*
X89342887Y60305553D01*
X89249227Y60279729D01*
X89152814Y60291714D01*
X89068326Y60339681D01*
X89055089Y60351989D01*
X89010289Y60396789D01*
X89010285Y60396792D01*
X88879180Y60484394D01*
X88879173Y60484397D01*
X88733497Y60544737D01*
X88733492Y60544739D01*
X88578846Y60575500D01*
X88578842Y60575500D01*
X88421158Y60575500D01*
X88421153Y60575500D01*
X88266507Y60544739D01*
X88266502Y60544737D01*
X88120826Y60484397D01*
X88120819Y60484394D01*
X87989714Y60396792D01*
X87878208Y60285286D01*
X87790606Y60154181D01*
X87790605Y60154178D01*
X87730046Y60007973D01*
X87676070Y59927192D01*
X87595289Y59873215D01*
X87500001Y59854261D01*
X87404712Y59873215D01*
X87323931Y59927191D01*
X87269954Y60007972D01*
X87269954Y60007973D01*
X87252322Y60050541D01*
X87209394Y60154179D01*
X87195503Y60174968D01*
X87121791Y60285286D01*
X87121789Y60285289D01*
X87010289Y60396789D01*
X87010285Y60396792D01*
X86879180Y60484394D01*
X86879173Y60484397D01*
X86733497Y60544737D01*
X86733492Y60544739D01*
X86578846Y60575500D01*
X86578842Y60575500D01*
X86421158Y60575500D01*
X86421153Y60575500D01*
X86266507Y60544739D01*
X86266502Y60544737D01*
X86120826Y60484397D01*
X86120819Y60484394D01*
X85989714Y60396792D01*
X85878208Y60285286D01*
X85790606Y60154181D01*
X85790605Y60154178D01*
X85730046Y60007973D01*
X85676070Y59927192D01*
X85595289Y59873215D01*
X85500001Y59854261D01*
X85404712Y59873215D01*
X85323931Y59927191D01*
X85269954Y60007972D01*
X85269954Y60007973D01*
X85252322Y60050541D01*
X85209394Y60154179D01*
X85195503Y60174968D01*
X85121791Y60285286D01*
X85121789Y60285289D01*
X85010289Y60396789D01*
X85010285Y60396792D01*
X84879180Y60484394D01*
X84879173Y60484397D01*
X84733497Y60544737D01*
X84733492Y60544739D01*
X84578846Y60575500D01*
X84578842Y60575500D01*
X84421158Y60575500D01*
X84421153Y60575500D01*
X84266507Y60544739D01*
X84266502Y60544737D01*
X84120826Y60484397D01*
X84120819Y60484394D01*
X83989714Y60396792D01*
X83878208Y60285286D01*
X83790606Y60154181D01*
X83790603Y60154174D01*
X83730263Y60008498D01*
X83730261Y60008493D01*
X83699500Y59853847D01*
X82150500Y59853847D01*
X82150500Y70210002D01*
X89669363Y70210002D01*
X89669364Y70210000D01*
X90566988Y70210000D01*
X90534075Y70152993D01*
X90500000Y70025826D01*
X90500000Y69894174D01*
X90534075Y69767007D01*
X90566988Y69710000D01*
X89669364Y69710000D01*
X89669363Y69709999D01*
X89726566Y69496517D01*
X89726566Y69496515D01*
X89826399Y69282424D01*
X89961889Y69088924D01*
X90128923Y68921890D01*
X90322423Y68786400D01*
X90408014Y68746488D01*
X90486364Y68689039D01*
X90536765Y68605980D01*
X90551545Y68509956D01*
X90528453Y68415585D01*
X90471004Y68337235D01*
X90420165Y68301222D01*
X90413552Y68297688D01*
X90413550Y68297687D01*
X90253596Y68166417D01*
X90253583Y68166404D01*
X90122316Y68006453D01*
X90024768Y67823956D01*
X89964700Y67625935D01*
X89944417Y67420000D01*
X89964700Y67214066D01*
X90024768Y67016045D01*
X90122316Y66833548D01*
X90253583Y66673597D01*
X90253596Y66673584D01*
X90413547Y66542317D01*
X90413548Y66542317D01*
X90413550Y66542315D01*
X90596046Y66444768D01*
X90794066Y66384700D01*
X91000000Y66364417D01*
X91205934Y66384700D01*
X91403954Y66444768D01*
X91586450Y66542315D01*
X91746410Y66673590D01*
X91877685Y66833550D01*
X91975232Y67016046D01*
X92035300Y67214066D01*
X92055583Y67420000D01*
X92035300Y67625934D01*
X91975232Y67823954D01*
X91877685Y68006450D01*
X91877683Y68006453D01*
X91746416Y68166404D01*
X91746403Y68166417D01*
X91586450Y68297685D01*
X91579839Y68301219D01*
X91504737Y68362853D01*
X91458939Y68448537D01*
X91449416Y68545224D01*
X91477619Y68638195D01*
X91539253Y68713297D01*
X91591986Y68746488D01*
X91677574Y68786399D01*
X91871076Y68921890D01*
X92038110Y69088924D01*
X92173600Y69282424D01*
X92273433Y69496515D01*
X92273433Y69496517D01*
X92330636Y69709999D01*
X92330636Y69710000D01*
X91433012Y69710000D01*
X91465925Y69767007D01*
X91500000Y69894174D01*
X91500000Y70025826D01*
X91465925Y70152993D01*
X91433012Y70210000D01*
X92330636Y70210000D01*
X92330636Y70210002D01*
X92273433Y70423484D01*
X92273429Y70423495D01*
X92173603Y70637572D01*
X92173599Y70637580D01*
X92038110Y70831077D01*
X91871076Y70998111D01*
X91677574Y71133603D01*
X91591984Y71173514D01*
X91513634Y71230963D01*
X91463233Y71314022D01*
X91448454Y71410046D01*
X91471547Y71504417D01*
X91528996Y71582767D01*
X91579847Y71618786D01*
X91586450Y71622315D01*
X91652449Y71676480D01*
X91746403Y71753584D01*
X91746404Y71753586D01*
X91746410Y71753590D01*
X91877685Y71913550D01*
X91975232Y72096046D01*
X92035300Y72294066D01*
X92055583Y72500000D01*
X92035300Y72705934D01*
X91975232Y72903954D01*
X91967790Y72917876D01*
X91941449Y72967157D01*
X91877685Y73086450D01*
X91877683Y73086453D01*
X91746416Y73246404D01*
X91746403Y73246417D01*
X91586452Y73377684D01*
X91403955Y73475232D01*
X91403953Y73475233D01*
X91314979Y73502222D01*
X91229296Y73548020D01*
X91167661Y73623122D01*
X91139458Y73716093D01*
X91148981Y73812780D01*
X91194779Y73898463D01*
X91269881Y73960098D01*
X91362852Y73988301D01*
X91387259Y73989500D01*
X91869745Y73989500D01*
X91869748Y73989500D01*
X91928231Y74001133D01*
X91994552Y74045448D01*
X92038867Y74111769D01*
X92050500Y74170252D01*
X92050500Y75909748D01*
X92038867Y75968231D01*
X91994552Y76034552D01*
X91994548Y76034555D01*
X91928232Y76078867D01*
X91913610Y76081776D01*
X91869748Y76090500D01*
X90130252Y76090500D01*
X90095162Y76083521D01*
X90071767Y76078867D01*
X90005451Y76034555D01*
X90005445Y76034549D01*
X89961133Y75968233D01*
X89961133Y75968231D01*
X89949500Y75909748D01*
X89949500Y74170252D01*
X89958224Y74126390D01*
X89961133Y74111768D01*
X90005445Y74045452D01*
X90005448Y74045448D01*
X90005451Y74045446D01*
X90071767Y74001134D01*
X90071769Y74001133D01*
X90130252Y73989500D01*
X90130255Y73989500D01*
X90612741Y73989500D01*
X90708029Y73970546D01*
X90788811Y73916570D01*
X90842787Y73835788D01*
X90861741Y73740500D01*
X90842787Y73645212D01*
X90788811Y73564430D01*
X90708029Y73510454D01*
X90685021Y73502222D01*
X90596046Y73475233D01*
X90596044Y73475232D01*
X90413547Y73377684D01*
X90253596Y73246417D01*
X90253583Y73246404D01*
X90122316Y73086453D01*
X90024768Y72903956D01*
X89964700Y72705935D01*
X89944417Y72500000D01*
X89964700Y72294066D01*
X90024768Y72096045D01*
X90122316Y71913548D01*
X90253583Y71753597D01*
X90253596Y71753584D01*
X90404320Y71629890D01*
X90413550Y71622315D01*
X90420159Y71618783D01*
X90495259Y71557152D01*
X90541059Y71471469D01*
X90550583Y71374782D01*
X90522383Y71281810D01*
X90460750Y71206707D01*
X90408016Y71173515D01*
X90322430Y71133605D01*
X90322420Y71133600D01*
X90128923Y70998111D01*
X89961889Y70831077D01*
X89826400Y70637580D01*
X89826396Y70637572D01*
X89726570Y70423495D01*
X89726566Y70423484D01*
X89669363Y70210002D01*
X82150500Y70210002D01*
X82150500Y73616810D01*
X82128284Y73699720D01*
X82128284Y73699723D01*
X82119800Y73731385D01*
X82119353Y73732159D01*
X82060489Y73834114D01*
X80791614Y75102989D01*
X80688887Y75162299D01*
X80688884Y75162300D01*
X80664674Y75168787D01*
X80664670Y75168789D01*
X80574313Y75193000D01*
X80574309Y75193000D01*
X80299000Y75193000D01*
X80203712Y75211954D01*
X80122930Y75265930D01*
X80068954Y75346712D01*
X80050000Y75442000D01*
X80050000Y76382499D01*
X80050000Y76382500D01*
X65150000Y76382500D01*
X65150000Y76382499D01*
X65150000Y71484878D01*
X65131046Y71389590D01*
X65077070Y71308808D01*
X65035620Y71275406D01*
X65018871Y71264643D01*
X65018868Y71264640D01*
X65013562Y71258516D01*
X64936836Y71198915D01*
X64843143Y71173212D01*
X64746745Y71185321D01*
X64662320Y71233398D01*
X64649312Y71245508D01*
X60034331Y75860489D01*
X59931604Y75919799D01*
X59931601Y75919800D01*
X59907391Y75926287D01*
X59907387Y75926289D01*
X59817030Y75950500D01*
X59817026Y75950500D01*
X43182974Y75950500D01*
X43182972Y75950500D01*
X43122730Y75934358D01*
X43092609Y75926287D01*
X43068396Y75919799D01*
X43068394Y75919799D01*
X43068394Y75919798D01*
X42965668Y75860489D01*
X40639511Y73534332D01*
X40580199Y73431602D01*
X40571716Y73399940D01*
X40571716Y73399937D01*
X40549500Y73317027D01*
X40549500Y71289743D01*
X40530546Y71194455D01*
X40476572Y71113677D01*
X40386325Y71023429D01*
X40305547Y70969455D01*
X40210259Y70950500D01*
X39440691Y70950500D01*
X39333304Y70921726D01*
X39326110Y70919798D01*
X39289065Y70898410D01*
X39289064Y70898408D01*
X39223386Y70860489D01*
X39223385Y70860488D01*
X39223382Y70860486D01*
X38009562Y69646667D01*
X37928781Y69592691D01*
X37833493Y69573737D01*
X37738205Y69592691D01*
X37657423Y69646668D01*
X37603447Y69727449D01*
X37584493Y69822737D01*
X37586622Y69855225D01*
X37605682Y70000000D01*
X37585044Y70156762D01*
X37524536Y70302841D01*
X37480301Y70360489D01*
X37428286Y70428277D01*
X37428285Y70428278D01*
X37428282Y70428282D01*
X37428277Y70428286D01*
X37428276Y70428287D01*
X37302844Y70524534D01*
X37302843Y70524535D01*
X37302841Y70524536D01*
X37156762Y70585044D01*
X37156760Y70585045D01*
X37000000Y70605682D01*
X36843239Y70585045D01*
X36751117Y70546887D01*
X36697159Y70524536D01*
X36697158Y70524536D01*
X36697155Y70524534D01*
X36571723Y70428287D01*
X36571713Y70428277D01*
X36475466Y70302845D01*
X36475463Y70302841D01*
X36430268Y70193730D01*
X36376291Y70112949D01*
X36295509Y70058973D01*
X36200221Y70040020D01*
X36104933Y70058975D01*
X36024153Y70112950D01*
X35776613Y70360490D01*
X35701412Y70403907D01*
X35673887Y70419799D01*
X35673886Y70419800D01*
X35673885Y70419800D01*
X35642229Y70428282D01*
X35642227Y70428282D01*
X35559309Y70450500D01*
X31671453Y70450500D01*
X31567132Y70422547D01*
X31560294Y70420715D01*
X31556875Y70419799D01*
X31454150Y70360492D01*
X28939511Y67845853D01*
X28880199Y67743123D01*
X28871716Y67711461D01*
X28871716Y67711458D01*
X28849500Y67628548D01*
X28849500Y67148990D01*
X28830546Y67053702D01*
X28776570Y66972920D01*
X28695788Y66918944D01*
X28600500Y66899990D01*
X22502651Y66899990D01*
X22407363Y66918944D01*
X22326581Y66972920D01*
X22314469Y66985931D01*
X22231122Y67082119D01*
X22231118Y67082123D01*
X22110044Y67159933D01*
X22110039Y67159935D01*
X21971951Y67200480D01*
X21828029Y67200480D01*
X21689940Y67159935D01*
X21689935Y67159933D01*
X21568861Y67082123D01*
X21474612Y66973353D01*
X21414826Y66842441D01*
X21414825Y66842437D01*
X21394343Y66699980D01*
X21414825Y66557524D01*
X21414826Y66557520D01*
X21474612Y66426608D01*
X21528501Y66364417D01*
X21568862Y66317837D01*
X21585610Y66307074D01*
X21655524Y66239612D01*
X21694300Y66150531D01*
X21699990Y66097602D01*
X21699990Y62602358D01*
X21681036Y62507070D01*
X21627060Y62426288D01*
X21585610Y62392886D01*
X21568861Y62382123D01*
X21474612Y62273353D01*
X21414826Y62142441D01*
X21414825Y62142437D01*
X21394343Y61999980D01*
X21414825Y61857524D01*
X21414826Y61857520D01*
X21474612Y61726608D01*
X21474613Y61726607D01*
X21568862Y61617837D01*
X21585610Y61607074D01*
X21655524Y61539612D01*
X21694300Y61450531D01*
X21699990Y61397602D01*
X21699990Y61202368D01*
X21681036Y61107080D01*
X21627060Y61026298D01*
X21585610Y60992896D01*
X21568861Y60982133D01*
X21474612Y60873363D01*
X21414826Y60742451D01*
X21414825Y60742447D01*
X21394343Y60599990D01*
X21414825Y60457534D01*
X21414826Y60457530D01*
X21474612Y60326618D01*
X21474613Y60326617D01*
X21568862Y60217847D01*
X21585610Y60207084D01*
X21655524Y60139622D01*
X21694300Y60050541D01*
X21699990Y59997612D01*
X21699990Y56502358D01*
X21681036Y56407070D01*
X21627060Y56326288D01*
X21585610Y56292886D01*
X21568861Y56282123D01*
X21474612Y56173353D01*
X21414826Y56042441D01*
X21414825Y56042437D01*
X21394343Y55899980D01*
X21410050Y55790731D01*
X21414825Y55757524D01*
X21414826Y55757520D01*
X21482011Y55610408D01*
X21479455Y55609241D01*
X21505050Y55544177D01*
X21503311Y55447038D01*
X21479899Y55390517D01*
X21482011Y55389552D01*
X21414826Y55242441D01*
X21414825Y55242437D01*
X21394343Y55099980D01*
X21409739Y54992894D01*
X21414825Y54957524D01*
X21414826Y54957520D01*
X21474612Y54826608D01*
X21474613Y54826607D01*
X21568862Y54717837D01*
X21585610Y54707074D01*
X21655524Y54639612D01*
X21694300Y54550531D01*
X21699990Y54497602D01*
X21699990Y53102358D01*
X21681036Y53007070D01*
X21627060Y52926288D01*
X21585610Y52892886D01*
X21568861Y52882123D01*
X21474612Y52773353D01*
X21414826Y52642441D01*
X21414825Y52642437D01*
X21394343Y52499980D01*
X21414823Y52357534D01*
X21414825Y52357524D01*
X21414826Y52357520D01*
X21474613Y52226606D01*
X21529694Y52163038D01*
X21577769Y52078612D01*
X21589876Y51982214D01*
X21564172Y51888521D01*
X21529694Y51836922D01*
X21474613Y51773355D01*
X21414826Y51642441D01*
X21414825Y51642437D01*
X21394343Y51499980D01*
X21412003Y51377148D01*
X21414825Y51357524D01*
X21414826Y51357520D01*
X21474613Y51226606D01*
X21529694Y51163038D01*
X21577769Y51078612D01*
X21589876Y50982214D01*
X21564172Y50888521D01*
X21529694Y50836922D01*
X21474613Y50773355D01*
X21414826Y50642441D01*
X21414825Y50642437D01*
X21394343Y50499980D01*
X21414825Y50357524D01*
X21414826Y50357520D01*
X21474613Y50226606D01*
X21529694Y50163038D01*
X21577769Y50078612D01*
X21589876Y49982214D01*
X21564172Y49888521D01*
X21529694Y49836922D01*
X21474613Y49773355D01*
X21414826Y49642441D01*
X21414825Y49642437D01*
X21394343Y49499980D01*
X21407864Y49405935D01*
X21414825Y49357524D01*
X21414826Y49357520D01*
X21474613Y49226606D01*
X21529694Y49163038D01*
X21577769Y49078612D01*
X21589876Y48982214D01*
X21564172Y48888521D01*
X21529694Y48836922D01*
X21474613Y48773355D01*
X21414826Y48642441D01*
X21414825Y48642437D01*
X21394343Y48499980D01*
X21414823Y48357534D01*
X21414825Y48357524D01*
X21414826Y48357520D01*
X21474613Y48226606D01*
X21529694Y48163038D01*
X21577769Y48078612D01*
X21589876Y47982214D01*
X21564172Y47888521D01*
X21529694Y47836922D01*
X21474613Y47773355D01*
X21414826Y47642441D01*
X21414825Y47642437D01*
X21394343Y47499980D01*
X21414825Y47357524D01*
X21414826Y47357520D01*
X21474612Y47226608D01*
X21529690Y47163044D01*
X21577765Y47078617D01*
X21589872Y46982220D01*
X21564168Y46888527D01*
X21529690Y46836926D01*
X21474612Y46773363D01*
X21414826Y46642451D01*
X21414825Y46642447D01*
X21394343Y46499990D01*
X21414825Y46357534D01*
X21414826Y46357530D01*
X21474612Y46226618D01*
X21529699Y46163043D01*
X21577774Y46078616D01*
X21589880Y45982218D01*
X21564176Y45888525D01*
X21529699Y45836927D01*
X21474612Y45773353D01*
X21414826Y45642441D01*
X21414825Y45642437D01*
X21394343Y45499980D01*
X21400895Y45454406D01*
X21414825Y45357524D01*
X21414826Y45357520D01*
X21474612Y45226608D01*
X21523315Y45170402D01*
X21568862Y45117837D01*
X21585610Y45107074D01*
X21655524Y45039612D01*
X21694300Y44950531D01*
X21699990Y44897602D01*
X21699990Y35402368D01*
X21681036Y35307080D01*
X21627060Y35226298D01*
X21585610Y35192896D01*
X21568861Y35182133D01*
X21474612Y35073363D01*
X21414826Y34942451D01*
X21414825Y34942447D01*
X21394343Y34799990D01*
X21407798Y34706404D01*
X21414825Y34657534D01*
X21414826Y34657530D01*
X21474613Y34526616D01*
X21529694Y34463048D01*
X21577769Y34378622D01*
X21589876Y34282224D01*
X21564172Y34188531D01*
X21529694Y34136932D01*
X21474613Y34073365D01*
X21414826Y33942451D01*
X21414825Y33942447D01*
X21394343Y33799990D01*
X21414825Y33657534D01*
X21414826Y33657530D01*
X21474612Y33526618D01*
X21552639Y33436570D01*
X21568862Y33417847D01*
X21585610Y33407084D01*
X21655524Y33339622D01*
X21694300Y33250541D01*
X21699990Y33197612D01*
X21699990Y31099990D01*
X21699991Y31099990D01*
X21700656Y31099325D01*
X21792600Y31081036D01*
X21873382Y31027060D01*
X21885487Y31014058D01*
X21951743Y30937594D01*
X21968858Y30917841D01*
X21968862Y30917837D01*
X22089937Y30840027D01*
X22089938Y30840027D01*
X22089940Y30840026D01*
X22116355Y30832270D01*
X22228029Y30799480D01*
X22371951Y30799480D01*
X22510043Y30840027D01*
X22631118Y30917837D01*
X22714486Y31014051D01*
X22791210Y31073651D01*
X22884903Y31099355D01*
X22902668Y31099990D01*
X24097312Y31099990D01*
X24192600Y31081036D01*
X24273382Y31027060D01*
X24285487Y31014058D01*
X24351743Y30937594D01*
X24368858Y30917841D01*
X24368862Y30917837D01*
X24489937Y30840027D01*
X24489938Y30840027D01*
X24489940Y30840026D01*
X24516355Y30832270D01*
X24628029Y30799480D01*
X24771951Y30799480D01*
X24910043Y30840027D01*
X25031118Y30917837D01*
X25111807Y31010959D01*
X25188531Y31070561D01*
X25282224Y31096265D01*
X25378622Y31084158D01*
X25463048Y31036083D01*
X25488173Y31010958D01*
X25568858Y30917841D01*
X25568861Y30917838D01*
X25568862Y30917837D01*
X25689937Y30840027D01*
X25689938Y30840027D01*
X25689940Y30840026D01*
X25716355Y30832270D01*
X25828029Y30799480D01*
X25971951Y30799480D01*
X26110043Y30840027D01*
X26231118Y30917837D01*
X26311807Y31010959D01*
X26388531Y31070561D01*
X26482224Y31096265D01*
X26578622Y31084158D01*
X26663048Y31036083D01*
X26688173Y31010958D01*
X26768858Y30917841D01*
X26768861Y30917838D01*
X26768862Y30917837D01*
X26889937Y30840027D01*
X26889938Y30840027D01*
X26889940Y30840026D01*
X26916355Y30832270D01*
X27028029Y30799480D01*
X27171951Y30799480D01*
X27310043Y30840027D01*
X27431118Y30917837D01*
X27511807Y31010959D01*
X27588531Y31070561D01*
X27682224Y31096265D01*
X27778622Y31084158D01*
X27863048Y31036083D01*
X27888173Y31010958D01*
X27968858Y30917841D01*
X27968861Y30917838D01*
X27968862Y30917837D01*
X28089937Y30840027D01*
X28089938Y30840027D01*
X28089940Y30840026D01*
X28116355Y30832270D01*
X28228029Y30799480D01*
X28371951Y30799480D01*
X28510043Y30840027D01*
X28631118Y30917837D01*
X28711813Y31010965D01*
X28788537Y31070566D01*
X28882230Y31096270D01*
X28978628Y31084163D01*
X29063054Y31036088D01*
X29088178Y31010964D01*
X29168868Y30917841D01*
X29168872Y30917837D01*
X29289947Y30840027D01*
X29289948Y30840027D01*
X29289950Y30840026D01*
X29316365Y30832270D01*
X29428039Y30799480D01*
X29571961Y30799480D01*
X29710053Y30840027D01*
X29831128Y30917837D01*
X29911817Y31010959D01*
X29988541Y31070561D01*
X30082234Y31096265D01*
X30178632Y31084158D01*
X30263058Y31036083D01*
X30288183Y31010958D01*
X30368868Y30917841D01*
X30368871Y30917838D01*
X30368872Y30917837D01*
X30489947Y30840027D01*
X30489948Y30840027D01*
X30489950Y30840026D01*
X30516365Y30832270D01*
X30628039Y30799480D01*
X30771961Y30799480D01*
X30910053Y30840027D01*
X31031128Y30917837D01*
X31111817Y31010959D01*
X31188541Y31070561D01*
X31282234Y31096265D01*
X31378632Y31084158D01*
X31463058Y31036083D01*
X31488183Y31010958D01*
X31568868Y30917841D01*
X31568871Y30917838D01*
X31568872Y30917837D01*
X31689947Y30840027D01*
X31689948Y30840027D01*
X31689950Y30840026D01*
X31716365Y30832270D01*
X31828039Y30799480D01*
X31971961Y30799480D01*
X32110053Y30840027D01*
X32231128Y30917837D01*
X32311817Y31010959D01*
X32388541Y31070561D01*
X32482234Y31096265D01*
X32578632Y31084158D01*
X32663058Y31036083D01*
X32688183Y31010958D01*
X32768868Y30917841D01*
X32768871Y30917838D01*
X32768872Y30917837D01*
X32889947Y30840027D01*
X32889948Y30840027D01*
X32889950Y30840026D01*
X32916365Y30832270D01*
X33028039Y30799480D01*
X33171961Y30799480D01*
X33310053Y30840027D01*
X33431128Y30917837D01*
X33511817Y31010959D01*
X33588541Y31070561D01*
X33682234Y31096265D01*
X33778632Y31084158D01*
X33863058Y31036083D01*
X33888183Y31010958D01*
X33968868Y30917841D01*
X33968871Y30917838D01*
X33968872Y30917837D01*
X34089947Y30840027D01*
X34089948Y30840027D01*
X34089950Y30840026D01*
X34120543Y30831043D01*
X34206632Y30786012D01*
X34268934Y30711463D01*
X34297966Y30618747D01*
X34289307Y30521979D01*
X34244276Y30435890D01*
X34226463Y30416059D01*
X33158835Y29348430D01*
X33078053Y29294454D01*
X32982765Y29275500D01*
X21717256Y29275500D01*
X21621968Y29294454D01*
X21541186Y29348430D01*
X20848430Y30041186D01*
X20794454Y30121968D01*
X20775500Y30217256D01*
X20775500Y42054800D01*
X20733557Y42156058D01*
X20733557Y42156059D01*
X20733556Y42156060D01*
X20348429Y42541188D01*
X20294453Y42621969D01*
X20275499Y42717257D01*
X20275499Y72481662D01*
X33756851Y72481662D01*
X33772889Y72370111D01*
X33777333Y72339206D01*
X33777334Y72339202D01*
X33837120Y72208290D01*
X33854110Y72188683D01*
X33931369Y72099520D01*
X34052444Y72021710D01*
X34052445Y72021710D01*
X34052447Y72021709D01*
X34154616Y71991710D01*
X34190536Y71981163D01*
X34334456Y71981163D01*
X34334458Y71981163D01*
X34343058Y71983689D01*
X34439823Y71992349D01*
X34532539Y71963318D01*
X34607089Y71901017D01*
X34644203Y71830069D01*
X34644937Y71830404D01*
X34651187Y71816718D01*
X34652121Y71814933D01*
X34652334Y71814206D01*
X34712122Y71683290D01*
X34768016Y71618785D01*
X34806371Y71574520D01*
X34873691Y71531256D01*
X34915453Y71504417D01*
X34927446Y71496710D01*
X34927447Y71496710D01*
X34927449Y71496709D01*
X35043360Y71462675D01*
X35065538Y71456163D01*
X35209460Y71456163D01*
X35347552Y71496710D01*
X35468627Y71574520D01*
X35562875Y71683289D01*
X35622663Y71814205D01*
X35643145Y71956662D01*
X35622663Y72099119D01*
X35562875Y72230035D01*
X35468627Y72338804D01*
X35459612Y72349208D01*
X35411537Y72433634D01*
X35399430Y72530032D01*
X35425134Y72623725D01*
X35484736Y72700450D01*
X35569162Y72748525D01*
X35577645Y72751181D01*
X35605360Y72759319D01*
X35647554Y72771708D01*
X35768629Y72849518D01*
X35862877Y72958287D01*
X35922665Y73089203D01*
X35943147Y73231660D01*
X35922665Y73374117D01*
X35862877Y73505033D01*
X35768629Y73613802D01*
X35719754Y73645212D01*
X35647555Y73691612D01*
X35647550Y73691614D01*
X35509462Y73732159D01*
X35365540Y73732159D01*
X35227451Y73691614D01*
X35227446Y73691612D01*
X35106372Y73613802D01*
X35012124Y73505033D01*
X34952338Y73374121D01*
X34952337Y73374117D01*
X34931855Y73231660D01*
X34946969Y73126541D01*
X34941768Y73029525D01*
X34899838Y72941885D01*
X34827560Y72876961D01*
X34735939Y72844639D01*
X34638923Y72849840D01*
X34565884Y72881632D01*
X34506188Y72919996D01*
X34472550Y72941614D01*
X34472548Y72941615D01*
X34472546Y72941616D01*
X34334458Y72982161D01*
X34190536Y72982161D01*
X34052447Y72941616D01*
X34052442Y72941614D01*
X33931368Y72863804D01*
X33837120Y72755035D01*
X33777334Y72624123D01*
X33777333Y72624119D01*
X33756851Y72481662D01*
X20275499Y72481662D01*
X20275499Y73365000D01*
X24259318Y73365000D01*
X24279955Y73208240D01*
X24279956Y73208238D01*
X24340464Y73062159D01*
X24340465Y73062157D01*
X24340466Y73062156D01*
X24432959Y72941616D01*
X24436718Y72936718D01*
X24436722Y72936715D01*
X24436723Y72936714D01*
X24556718Y72844639D01*
X24562159Y72840464D01*
X24708238Y72779956D01*
X24865000Y72759318D01*
X25021762Y72779956D01*
X25167841Y72840464D01*
X25293282Y72936718D01*
X25389536Y73062159D01*
X25450044Y73208238D01*
X25470682Y73365000D01*
X25450044Y73521762D01*
X25389536Y73667841D01*
X25371294Y73691614D01*
X25293286Y73793277D01*
X25293285Y73793278D01*
X25293282Y73793282D01*
X25293277Y73793286D01*
X25293276Y73793287D01*
X25167844Y73889534D01*
X25167843Y73889535D01*
X25167841Y73889536D01*
X25021762Y73950044D01*
X25021760Y73950045D01*
X24865000Y73970682D01*
X24708239Y73950045D01*
X24627425Y73916570D01*
X24562159Y73889536D01*
X24562158Y73889536D01*
X24562155Y73889534D01*
X24436723Y73793287D01*
X24436713Y73793277D01*
X24340466Y73667845D01*
X24279955Y73521761D01*
X24259318Y73365000D01*
X20275499Y73365000D01*
X20275499Y75554801D01*
X20233556Y75656059D01*
X20233555Y75656062D01*
X20167374Y75722242D01*
X20113397Y75803023D01*
X20094443Y75898311D01*
X20096573Y75930813D01*
X20099165Y75950500D01*
X20105682Y76000000D01*
X20085044Y76156762D01*
X20024536Y76302841D01*
X20010057Y76321710D01*
X19928286Y76428277D01*
X19928285Y76428278D01*
X19928282Y76428282D01*
X19928277Y76428286D01*
X19928276Y76428287D01*
X19802844Y76524534D01*
X19802843Y76524535D01*
X19802841Y76524536D01*
X19656762Y76585044D01*
X19656760Y76585045D01*
X19500000Y76605682D01*
X19343239Y76585045D01*
X19251117Y76546887D01*
X19197159Y76524536D01*
X19197158Y76524536D01*
X19197155Y76524534D01*
X19071723Y76428287D01*
X19071713Y76428277D01*
X18975466Y76302845D01*
X18914955Y76156761D01*
X18894318Y76000000D01*
X18914955Y75843240D01*
X18914956Y75843238D01*
X18975464Y75697159D01*
X18975465Y75697157D01*
X18975466Y75697156D01*
X19006998Y75656062D01*
X19071718Y75571718D01*
X19197159Y75475464D01*
X19343238Y75414956D01*
X19500000Y75394318D01*
X19500003Y75394319D01*
X19507998Y75393266D01*
X19599997Y75362037D01*
X19673043Y75297979D01*
X19716014Y75210844D01*
X19724499Y75146396D01*
X19724499Y42445201D01*
X19754256Y42373363D01*
X19766442Y42343943D01*
X20151572Y41958813D01*
X20205546Y41878034D01*
X20224500Y41782746D01*
X20224500Y29945200D01*
X20266443Y29843942D01*
X20734815Y29375569D01*
X20788791Y29294788D01*
X20807745Y29199500D01*
X20788791Y29104212D01*
X20734814Y29023430D01*
X20654033Y28969454D01*
X20558745Y28950500D01*
X13289743Y28950500D01*
X13194455Y28969454D01*
X13113674Y29023430D01*
X12776615Y29360488D01*
X12776613Y29360490D01*
X12718019Y29394319D01*
X12673887Y29419799D01*
X12673884Y29419800D01*
X12649674Y29426287D01*
X12649670Y29426289D01*
X12559313Y29450500D01*
X12559309Y29450500D01*
X10947716Y29450500D01*
X10852428Y29469454D01*
X10771646Y29523430D01*
X10717670Y29604212D01*
X10698716Y29699500D01*
X10717670Y29794788D01*
X10750169Y29851079D01*
X10802464Y29919231D01*
X10862972Y30065310D01*
X10883610Y30222072D01*
X10862972Y30378834D01*
X10802464Y30524913D01*
X10789111Y30542315D01*
X10706214Y30650349D01*
X10706213Y30650350D01*
X10706210Y30650354D01*
X10706205Y30650358D01*
X10706204Y30650359D01*
X10580772Y30746606D01*
X10580771Y30746607D01*
X10580769Y30746608D01*
X10445011Y30802841D01*
X10434688Y30807117D01*
X10277928Y30827754D01*
X10121167Y30807117D01*
X10029045Y30768959D01*
X9975087Y30746608D01*
X9975086Y30746608D01*
X9975083Y30746606D01*
X9849651Y30650359D01*
X9849641Y30650349D01*
X9753394Y30524917D01*
X9692883Y30378833D01*
X9672246Y30222072D01*
X9692883Y30065312D01*
X9704059Y30038331D01*
X9753392Y29919231D01*
X9753393Y29919230D01*
X9753394Y29919228D01*
X9824843Y29826113D01*
X9849646Y29793790D01*
X9849650Y29793787D01*
X9849651Y29793786D01*
X9941401Y29723384D01*
X9975087Y29697536D01*
X10044702Y29668701D01*
X10125481Y29614725D01*
X10179457Y29533944D01*
X10198411Y29438655D01*
X10179457Y29343367D01*
X10125481Y29262586D01*
X10023581Y29160686D01*
X9942799Y29106710D01*
X9880018Y29089887D01*
X9843239Y29085045D01*
X9763576Y29052047D01*
X9697159Y29024536D01*
X9697158Y29024536D01*
X9697155Y29024534D01*
X9571723Y28928287D01*
X9571713Y28928277D01*
X9475466Y28802845D01*
X9475462Y28802839D01*
X9429545Y28691985D01*
X9375569Y28611203D01*
X9294787Y28557227D01*
X9199499Y28538274D01*
X9104211Y28557229D01*
X9023429Y28611205D01*
X8969453Y28691987D01*
X8950500Y28787274D01*
X8950500Y31500000D01*
X14344339Y31500000D01*
X14364976Y31343240D01*
X14364977Y31343238D01*
X14425485Y31197159D01*
X14425486Y31197157D01*
X14425487Y31197156D01*
X14520255Y31073651D01*
X14521739Y31071718D01*
X14521743Y31071715D01*
X14521744Y31071714D01*
X14580529Y31026607D01*
X14647180Y30975464D01*
X14793259Y30914956D01*
X14950021Y30894318D01*
X15106783Y30914956D01*
X15252862Y30975464D01*
X15378303Y31071718D01*
X15474557Y31197159D01*
X15535065Y31343238D01*
X15555703Y31500000D01*
X15535065Y31656762D01*
X15474557Y31802841D01*
X15458408Y31823887D01*
X15378307Y31928277D01*
X15378306Y31928278D01*
X15378303Y31928282D01*
X15378298Y31928286D01*
X15378297Y31928287D01*
X15252865Y32024534D01*
X15252864Y32024535D01*
X15252862Y32024536D01*
X15106783Y32085044D01*
X15106781Y32085045D01*
X14950021Y32105682D01*
X14793260Y32085045D01*
X14701138Y32046887D01*
X14647180Y32024536D01*
X14647179Y32024536D01*
X14647176Y32024534D01*
X14521744Y31928287D01*
X14521734Y31928277D01*
X14425487Y31802845D01*
X14425485Y31802842D01*
X14425485Y31802841D01*
X14421086Y31792220D01*
X14364976Y31656761D01*
X14344339Y31500000D01*
X8950500Y31500000D01*
X8950500Y32723536D01*
X9670782Y32723536D01*
X9691419Y32566776D01*
X9691420Y32566774D01*
X9751928Y32420695D01*
X9751929Y32420693D01*
X9751930Y32420692D01*
X9846316Y32297685D01*
X9848182Y32295254D01*
X9848186Y32295251D01*
X9848187Y32295250D01*
X9855363Y32289744D01*
X9973623Y32199000D01*
X10119702Y32138492D01*
X10276464Y32117854D01*
X10433226Y32138492D01*
X10579305Y32199000D01*
X10704746Y32295254D01*
X10801000Y32420695D01*
X10861508Y32566774D01*
X10882146Y32723536D01*
X10861508Y32880298D01*
X10801000Y33026377D01*
X10758074Y33082319D01*
X10704750Y33151813D01*
X10704749Y33151814D01*
X10704746Y33151818D01*
X10704741Y33151822D01*
X10704740Y33151823D01*
X10579308Y33248070D01*
X10579307Y33248071D01*
X10579305Y33248072D01*
X10433226Y33308580D01*
X10433224Y33308581D01*
X10276464Y33329218D01*
X10119703Y33308581D01*
X10027581Y33270423D01*
X9973623Y33248072D01*
X9973622Y33248072D01*
X9973619Y33248070D01*
X9848187Y33151823D01*
X9848177Y33151813D01*
X9751930Y33026381D01*
X9691419Y32880297D01*
X9670782Y32723536D01*
X8950500Y32723536D01*
X8950500Y35225001D01*
X9669317Y35225001D01*
X9689954Y35068241D01*
X9689955Y35068239D01*
X9750463Y34922160D01*
X9750464Y34922158D01*
X9750465Y34922157D01*
X9815283Y34837684D01*
X9846717Y34796719D01*
X9972158Y34700465D01*
X10118237Y34639957D01*
X10274999Y34619319D01*
X10431761Y34639957D01*
X10577840Y34700465D01*
X10703281Y34796719D01*
X10799535Y34922160D01*
X10860043Y35068239D01*
X10880681Y35225001D01*
X10860043Y35381763D01*
X10799535Y35527842D01*
X10703281Y35653283D01*
X10703276Y35653287D01*
X10703275Y35653288D01*
X10577843Y35749535D01*
X10577842Y35749536D01*
X10577840Y35749537D01*
X10431761Y35810045D01*
X10431759Y35810046D01*
X10274999Y35830683D01*
X10118238Y35810046D01*
X10026116Y35771888D01*
X9972158Y35749537D01*
X9972157Y35749537D01*
X9972154Y35749535D01*
X9846722Y35653288D01*
X9846712Y35653278D01*
X9750465Y35527846D01*
X9750463Y35527843D01*
X9750463Y35527842D01*
X9740877Y35504700D01*
X9689954Y35381762D01*
X9669317Y35225001D01*
X8950500Y35225001D01*
X8950500Y39500000D01*
X11394318Y39500000D01*
X11414955Y39343240D01*
X11420439Y39330000D01*
X11475464Y39197159D01*
X11475465Y39197157D01*
X11475466Y39197156D01*
X11506461Y39156762D01*
X11571718Y39071718D01*
X11697159Y38975464D01*
X11843238Y38914956D01*
X12000000Y38894318D01*
X12156762Y38914956D01*
X12302841Y38975464D01*
X12428282Y39071718D01*
X12524536Y39197159D01*
X12585044Y39343238D01*
X12605682Y39500000D01*
X12585044Y39656762D01*
X12524536Y39802841D01*
X12469550Y39874500D01*
X12428286Y39928277D01*
X12428285Y39928278D01*
X12428282Y39928282D01*
X12428277Y39928286D01*
X12428276Y39928287D01*
X12302844Y40024534D01*
X12302843Y40024535D01*
X12302841Y40024536D01*
X12156762Y40085044D01*
X12156760Y40085045D01*
X12000000Y40105682D01*
X11843239Y40085045D01*
X11751117Y40046887D01*
X11697159Y40024536D01*
X11697158Y40024536D01*
X11697155Y40024534D01*
X11571723Y39928287D01*
X11571713Y39928277D01*
X11475466Y39802845D01*
X11414955Y39656761D01*
X11394318Y39500000D01*
X8950500Y39500000D01*
X8950500Y40425000D01*
X16574999Y40425000D01*
X16574999Y31325000D01*
X16575000Y31325000D01*
X16575662Y31324338D01*
X16667619Y31306046D01*
X16748401Y31252070D01*
X16760513Y31239060D01*
X16843871Y31142859D01*
X16843873Y31142857D01*
X16910574Y31099991D01*
X16954567Y31071718D01*
X16964948Y31065047D01*
X16964949Y31065047D01*
X16964951Y31065046D01*
X16995603Y31056046D01*
X17103040Y31024500D01*
X17246962Y31024500D01*
X17385054Y31065047D01*
X17506129Y31142857D01*
X17589489Y31239060D01*
X17666214Y31298662D01*
X17759907Y31324366D01*
X17777671Y31325000D01*
X18472329Y31325000D01*
X18567617Y31306046D01*
X18648399Y31252070D01*
X18660511Y31239060D01*
X18743869Y31142859D01*
X18743871Y31142857D01*
X18810572Y31099991D01*
X18854565Y31071718D01*
X18864946Y31065047D01*
X18864947Y31065047D01*
X18864949Y31065046D01*
X18895601Y31056046D01*
X19003038Y31024500D01*
X19146960Y31024500D01*
X19285052Y31065047D01*
X19406127Y31142857D01*
X19489487Y31239060D01*
X19566212Y31298662D01*
X19659905Y31324366D01*
X19674902Y31324902D01*
X19675001Y31325000D01*
X19675002Y31325000D01*
X19675002Y40425000D01*
X19675001Y40425000D01*
X19674338Y40425663D01*
X19582381Y40443954D01*
X19501599Y40497930D01*
X19489487Y40510940D01*
X19406128Y40607142D01*
X19406127Y40607143D01*
X19285053Y40684953D01*
X19285048Y40684955D01*
X19146960Y40725500D01*
X19003038Y40725500D01*
X18864949Y40684955D01*
X18864946Y40684953D01*
X18759618Y40617263D01*
X18669209Y40581692D01*
X18572069Y40583427D01*
X18490380Y40617263D01*
X18464374Y40633976D01*
X18385052Y40684953D01*
X18385050Y40684954D01*
X18385048Y40684955D01*
X18246960Y40725500D01*
X18103038Y40725500D01*
X17964949Y40684955D01*
X17964944Y40684953D01*
X17843870Y40607143D01*
X17843869Y40607142D01*
X17760511Y40510940D01*
X17683786Y40451338D01*
X17590093Y40425634D01*
X17572329Y40425000D01*
X16574999Y40425000D01*
X8950500Y40425000D01*
X8950500Y41710257D01*
X8969454Y41805545D01*
X9023430Y41886327D01*
X10613673Y43476570D01*
X10694455Y43530546D01*
X10789743Y43549500D01*
X17516149Y43549500D01*
X17611437Y43530546D01*
X17667727Y43498048D01*
X17697159Y43475464D01*
X17843238Y43414956D01*
X18000000Y43394318D01*
X18156762Y43414956D01*
X18302841Y43475464D01*
X18428282Y43571718D01*
X18524536Y43697159D01*
X18585044Y43843238D01*
X18605682Y44000000D01*
X18585044Y44156762D01*
X18524536Y44302841D01*
X18497765Y44337730D01*
X18428286Y44428277D01*
X18428285Y44428278D01*
X18428282Y44428282D01*
X18428277Y44428286D01*
X18428276Y44428287D01*
X18302844Y44524534D01*
X18302843Y44524535D01*
X18302841Y44524536D01*
X18156762Y44585044D01*
X18156760Y44585045D01*
X18000000Y44605682D01*
X17843239Y44585045D01*
X17792327Y44563956D01*
X17697159Y44524536D01*
X17667728Y44501954D01*
X17580594Y44458984D01*
X17516149Y44450500D01*
X10440691Y44450500D01*
X10357773Y44428282D01*
X10326114Y44419800D01*
X10223387Y44360490D01*
X10223386Y44360490D01*
X8139511Y42276615D01*
X8080201Y42173888D01*
X8075423Y42156060D01*
X8075424Y42156059D01*
X8049500Y42059310D01*
X8049500Y11389744D01*
X8030546Y11294456D01*
X7976570Y11213674D01*
X7450099Y10687203D01*
X7369317Y10633227D01*
X7274029Y10614273D01*
X7178741Y10633227D01*
X7097959Y10687203D01*
X7043983Y10767985D01*
X7025029Y10863273D01*
X7033727Y10921908D01*
X7032914Y10922069D01*
X7035299Y10934062D01*
X7035299Y10934064D01*
X7035300Y10934066D01*
X7055583Y11140000D01*
X7035300Y11345934D01*
X6975232Y11543954D01*
X6877685Y11726450D01*
X6877683Y11726453D01*
X6746416Y11886404D01*
X6746403Y11886417D01*
X6586452Y12017684D01*
X6403955Y12115232D01*
X6403953Y12115233D01*
X6217730Y12171722D01*
X6132046Y12217520D01*
X6070412Y12292622D01*
X6042209Y12385593D01*
X6051732Y12482280D01*
X6097530Y12567964D01*
X6172632Y12629598D01*
X6217730Y12648278D01*
X6299053Y12672948D01*
X6403954Y12704768D01*
X6586450Y12802315D01*
X6746410Y12933590D01*
X6877685Y13093550D01*
X6975232Y13276046D01*
X7035300Y13474066D01*
X7055583Y13680000D01*
X7035300Y13885934D01*
X6975232Y14083954D01*
X6877685Y14266450D01*
X6847820Y14302841D01*
X6746416Y14426404D01*
X6746403Y14426417D01*
X6586452Y14557684D01*
X6403955Y14655232D01*
X6403953Y14655233D01*
X6217730Y14711722D01*
X6132046Y14757520D01*
X6070412Y14832622D01*
X6042209Y14925593D01*
X6051732Y15022280D01*
X6097530Y15107964D01*
X6172632Y15169598D01*
X6217730Y15188278D01*
X6299053Y15212948D01*
X6403954Y15244768D01*
X6586450Y15342315D01*
X6746410Y15473590D01*
X6877685Y15633550D01*
X6975232Y15816046D01*
X7035300Y16014066D01*
X7055583Y16220000D01*
X7035300Y16425934D01*
X6975232Y16623954D01*
X6877685Y16806450D01*
X6877683Y16806453D01*
X6746416Y16966404D01*
X6746403Y16966417D01*
X6586452Y17097684D01*
X6403955Y17195232D01*
X6403953Y17195233D01*
X6217730Y17251722D01*
X6132046Y17297520D01*
X6070412Y17372622D01*
X6042209Y17465593D01*
X6051732Y17562280D01*
X6097530Y17647964D01*
X6172632Y17709598D01*
X6217730Y17728278D01*
X6299053Y17752948D01*
X6403954Y17784768D01*
X6586450Y17882315D01*
X6746410Y18013590D01*
X6877685Y18173550D01*
X6975232Y18356046D01*
X7035300Y18554066D01*
X7055583Y18760000D01*
X7035300Y18965934D01*
X6975232Y19163954D01*
X6877685Y19346450D01*
X6877683Y19346453D01*
X6746416Y19506404D01*
X6746403Y19506417D01*
X6586452Y19637684D01*
X6403955Y19735232D01*
X6403953Y19735233D01*
X6217730Y19791722D01*
X6132046Y19837520D01*
X6070412Y19912622D01*
X6042209Y20005593D01*
X6051732Y20102280D01*
X6097530Y20187964D01*
X6172632Y20249598D01*
X6217730Y20268278D01*
X6320659Y20299501D01*
X6403954Y20324768D01*
X6586450Y20422315D01*
X6746410Y20553590D01*
X6877685Y20713550D01*
X6975232Y20896046D01*
X7035300Y21094066D01*
X7055583Y21300000D01*
X7035300Y21505934D01*
X6975232Y21703954D01*
X6877685Y21886450D01*
X6871869Y21893537D01*
X6746416Y22046404D01*
X6746403Y22046417D01*
X6586452Y22177684D01*
X6403955Y22275232D01*
X6403953Y22275233D01*
X6217730Y22331722D01*
X6132046Y22377520D01*
X6070412Y22452622D01*
X6042209Y22545593D01*
X6051732Y22642280D01*
X6097530Y22727964D01*
X6172632Y22789598D01*
X6217730Y22808278D01*
X6299053Y22832948D01*
X6403954Y22864768D01*
X6586450Y22962315D01*
X6746410Y23093590D01*
X6877685Y23253550D01*
X6975232Y23436046D01*
X7035300Y23634066D01*
X7055583Y23840000D01*
X7035300Y24045934D01*
X6975232Y24243954D01*
X6877685Y24426450D01*
X6877683Y24426453D01*
X6746416Y24586404D01*
X6746403Y24586417D01*
X6586452Y24717684D01*
X6403955Y24815232D01*
X6403953Y24815233D01*
X6217730Y24871722D01*
X6132046Y24917520D01*
X6070412Y24992622D01*
X6042209Y25085593D01*
X6051732Y25182280D01*
X6097530Y25267964D01*
X6172632Y25329598D01*
X6217730Y25348278D01*
X6299053Y25372948D01*
X6403954Y25404768D01*
X6586450Y25502315D01*
X6746410Y25633590D01*
X6877685Y25793550D01*
X6975232Y25976046D01*
X7035300Y26174066D01*
X7055583Y26380000D01*
X7035300Y26585934D01*
X6975232Y26783954D01*
X6877685Y26966450D01*
X6835731Y27017572D01*
X6746416Y27126404D01*
X6746403Y27126417D01*
X6586452Y27257684D01*
X6403955Y27355232D01*
X6403953Y27355233D01*
X6217730Y27411722D01*
X6132046Y27457520D01*
X6070412Y27532622D01*
X6042209Y27625593D01*
X6051732Y27722280D01*
X6097530Y27807964D01*
X6172632Y27869598D01*
X6217730Y27888278D01*
X6305676Y27914956D01*
X6403954Y27944768D01*
X6586450Y28042315D01*
X6746410Y28173590D01*
X6765753Y28197159D01*
X6844858Y28293550D01*
X6877685Y28333550D01*
X6975232Y28516046D01*
X7035300Y28714066D01*
X7055583Y28920000D01*
X7035300Y29125934D01*
X6975232Y29323954D01*
X6877685Y29506450D01*
X6863750Y29523430D01*
X6746416Y29666404D01*
X6746403Y29666417D01*
X6586452Y29797684D01*
X6403955Y29895232D01*
X6403953Y29895233D01*
X6217730Y29951722D01*
X6132046Y29997520D01*
X6070412Y30072622D01*
X6042209Y30165593D01*
X6051732Y30262280D01*
X6097530Y30347964D01*
X6172632Y30409598D01*
X6217730Y30428278D01*
X6299053Y30452948D01*
X6403954Y30484768D01*
X6586450Y30582315D01*
X6723530Y30694813D01*
X6746403Y30713584D01*
X6746404Y30713586D01*
X6746410Y30713590D01*
X6746624Y30713850D01*
X6840315Y30828014D01*
X6877685Y30873550D01*
X6975232Y31056046D01*
X7035300Y31254066D01*
X7055583Y31460000D01*
X7035300Y31665934D01*
X6975232Y31863954D01*
X6877685Y32046450D01*
X6877683Y32046453D01*
X6746416Y32206404D01*
X6746403Y32206417D01*
X6586452Y32337684D01*
X6403955Y32435232D01*
X6403953Y32435233D01*
X6217730Y32491722D01*
X6132046Y32537520D01*
X6070412Y32612622D01*
X6042209Y32705593D01*
X6051732Y32802280D01*
X6097530Y32887964D01*
X6172632Y32949598D01*
X6217730Y32968278D01*
X6311504Y32996724D01*
X6403954Y33024768D01*
X6586450Y33122315D01*
X6739684Y33248070D01*
X6746403Y33253584D01*
X6746404Y33253586D01*
X6746410Y33253590D01*
X6877685Y33413550D01*
X6975232Y33596046D01*
X7035300Y33794066D01*
X7055583Y34000000D01*
X7035300Y34205934D01*
X6975232Y34403954D01*
X6971220Y34411459D01*
X6941523Y34467018D01*
X6877685Y34586450D01*
X6877683Y34586453D01*
X6746416Y34746404D01*
X6746403Y34746417D01*
X6586452Y34877684D01*
X6403955Y34975232D01*
X6403953Y34975233D01*
X6217730Y35031722D01*
X6132046Y35077520D01*
X6070412Y35152622D01*
X6042209Y35245593D01*
X6051732Y35342280D01*
X6097530Y35427964D01*
X6172632Y35489598D01*
X6217730Y35508278D01*
X6299053Y35532948D01*
X6403954Y35564768D01*
X6586450Y35662315D01*
X6746410Y35793590D01*
X6877685Y35953550D01*
X6975232Y36136046D01*
X7035300Y36334066D01*
X7055583Y36540000D01*
X7035300Y36745934D01*
X6975232Y36943954D01*
X6877685Y37126450D01*
X6877683Y37126453D01*
X6746416Y37286404D01*
X6746403Y37286417D01*
X6586452Y37417684D01*
X6403955Y37515232D01*
X6205934Y37575300D01*
X6083895Y37587320D01*
X5996028Y37613975D01*
X5963978Y37596843D01*
X5916104Y37587320D01*
X5794065Y37575300D01*
X5596044Y37515232D01*
X5413547Y37417684D01*
X5253596Y37286417D01*
X5253583Y37286404D01*
X5122316Y37126453D01*
X5024768Y36943956D01*
X4968278Y36757730D01*
X4922480Y36672047D01*
X4847378Y36610413D01*
X4754406Y36582210D01*
X4657719Y36591733D01*
X4572036Y36637531D01*
X4510402Y36712633D01*
X4491722Y36757730D01*
X4470583Y36827413D01*
X4435232Y36943954D01*
X4337685Y37126450D01*
X4337683Y37126453D01*
X4206416Y37286404D01*
X4206403Y37286417D01*
X4046450Y37417685D01*
X4039839Y37421219D01*
X3964737Y37482853D01*
X3918939Y37568537D01*
X3909416Y37665224D01*
X3937619Y37758195D01*
X3999253Y37833297D01*
X4051986Y37866488D01*
X4137574Y37906399D01*
X4331076Y38041890D01*
X4498110Y38208924D01*
X4633601Y38402426D01*
X4699927Y38544662D01*
X4757375Y38623012D01*
X4840434Y38673414D01*
X4936458Y38688194D01*
X5030829Y38665102D01*
X5109179Y38607654D01*
X5145196Y38556810D01*
X5164090Y38521462D01*
X5289117Y38369117D01*
X5313095Y38349439D01*
X5441463Y38244089D01*
X5615266Y38151189D01*
X5615270Y38151188D01*
X5615273Y38151186D01*
X5803868Y38093976D01*
X5916103Y38082922D01*
X6003971Y38056268D01*
X6036022Y38073399D01*
X6083895Y38082922D01*
X6196132Y38093976D01*
X6384727Y38151186D01*
X6558538Y38244090D01*
X6710883Y38369117D01*
X6835910Y38521462D01*
X6897156Y38636045D01*
X6928811Y38695267D01*
X6928811Y38695269D01*
X6928814Y38695273D01*
X6986024Y38883868D01*
X7005341Y39080000D01*
X6986024Y39276132D01*
X6928814Y39464727D01*
X6928812Y39464730D01*
X6928811Y39464734D01*
X6835911Y39638537D01*
X6795870Y39687327D01*
X6710883Y39790883D01*
X6558538Y39915910D01*
X6558539Y39915910D01*
X6558536Y39915912D01*
X6384733Y40008812D01*
X6384725Y40008815D01*
X6196131Y40066025D01*
X6000000Y40085341D01*
X5803868Y40066025D01*
X5615274Y40008815D01*
X5615266Y40008812D01*
X5441463Y39915912D01*
X5289120Y39790886D01*
X5289114Y39790880D01*
X5164089Y39638538D01*
X5145195Y39603189D01*
X5083559Y39528088D01*
X4997875Y39482291D01*
X4901188Y39472769D01*
X4808217Y39500973D01*
X4733116Y39562609D01*
X4699927Y39615338D01*
X4633598Y39757580D01*
X4498110Y39951077D01*
X4331075Y40118112D01*
X4291203Y40146030D01*
X4224018Y40216211D01*
X4188805Y40306760D01*
X4190924Y40403892D01*
X4230052Y40492819D01*
X4291203Y40553970D01*
X4331075Y40581889D01*
X4498110Y40748924D01*
X4633601Y40942426D01*
X4699927Y41084662D01*
X4757375Y41163012D01*
X4840434Y41213414D01*
X4936458Y41228194D01*
X5030829Y41205102D01*
X5109179Y41147654D01*
X5145196Y41096810D01*
X5164090Y41061462D01*
X5289117Y40909117D01*
X5381138Y40833597D01*
X5441463Y40784089D01*
X5615266Y40691189D01*
X5615270Y40691188D01*
X5615273Y40691186D01*
X5803868Y40633976D01*
X6000000Y40614659D01*
X6196132Y40633976D01*
X6384727Y40691186D01*
X6558538Y40784090D01*
X6710883Y40909117D01*
X6835910Y41061462D01*
X6897156Y41176045D01*
X6928811Y41235267D01*
X6928811Y41235269D01*
X6928814Y41235273D01*
X6986024Y41423868D01*
X7005341Y41620000D01*
X6986024Y41816132D01*
X6928814Y42004727D01*
X6928812Y42004730D01*
X6928811Y42004734D01*
X6835911Y42178537D01*
X6783458Y42242451D01*
X6710883Y42330883D01*
X6571587Y42445201D01*
X6558536Y42455912D01*
X6384733Y42548812D01*
X6384725Y42548815D01*
X6196131Y42606025D01*
X6000000Y42625341D01*
X5803868Y42606025D01*
X5615274Y42548815D01*
X5615266Y42548812D01*
X5441463Y42455912D01*
X5289120Y42330886D01*
X5289114Y42330880D01*
X5164089Y42178538D01*
X5145195Y42143189D01*
X5083559Y42068088D01*
X4997875Y42022291D01*
X4901188Y42012769D01*
X4808217Y42040973D01*
X4733116Y42102609D01*
X4699927Y42155338D01*
X4633598Y42297580D01*
X4498110Y42491077D01*
X4331076Y42658111D01*
X4137574Y42793603D01*
X4051984Y42833514D01*
X3973634Y42890963D01*
X3923233Y42974022D01*
X3908454Y43070046D01*
X3931547Y43164417D01*
X3988996Y43242767D01*
X4039847Y43278786D01*
X4046450Y43282315D01*
X4206410Y43413590D01*
X4235565Y43449115D01*
X4336178Y43571714D01*
X4337685Y43573550D01*
X4435232Y43756046D01*
X4495300Y43954066D01*
X4507320Y44076107D01*
X4531563Y44156030D01*
X4976266Y44156030D01*
X4993398Y44123980D01*
X5002921Y44076106D01*
X5013976Y43963868D01*
X5071185Y43775275D01*
X5071188Y43775267D01*
X5164088Y43601464D01*
X5200141Y43557534D01*
X5289117Y43449117D01*
X5381138Y43373597D01*
X5441463Y43324089D01*
X5615266Y43231189D01*
X5615270Y43231188D01*
X5615273Y43231186D01*
X5803868Y43173976D01*
X6000000Y43154659D01*
X6196132Y43173976D01*
X6384727Y43231186D01*
X6473779Y43278785D01*
X6558536Y43324089D01*
X6558535Y43324089D01*
X6558538Y43324090D01*
X6710883Y43449117D01*
X6835910Y43601462D01*
X6897156Y43716045D01*
X6928811Y43775267D01*
X6928811Y43775269D01*
X6928814Y43775273D01*
X6986024Y43963868D01*
X7005341Y44160000D01*
X6986024Y44356132D01*
X6928814Y44544727D01*
X6928812Y44544730D01*
X6928811Y44544734D01*
X6835911Y44718537D01*
X6719413Y44860489D01*
X6710883Y44870883D01*
X6558538Y44995910D01*
X6558539Y44995910D01*
X6558536Y44995912D01*
X6384733Y45088812D01*
X6384725Y45088815D01*
X6196131Y45146025D01*
X6000000Y45165341D01*
X5803868Y45146025D01*
X5615274Y45088815D01*
X5615266Y45088812D01*
X5441463Y44995912D01*
X5289120Y44870886D01*
X5289114Y44870880D01*
X5164088Y44718537D01*
X5071188Y44544734D01*
X5071185Y44544726D01*
X5013976Y44356133D01*
X5002921Y44243895D01*
X4976266Y44156030D01*
X4531563Y44156030D01*
X4533972Y44163972D01*
X4516841Y44196024D01*
X4507320Y44243895D01*
X4495300Y44365934D01*
X4435232Y44563954D01*
X4337685Y44746450D01*
X4337683Y44746453D01*
X4206416Y44906404D01*
X4206403Y44906417D01*
X4046452Y45037684D01*
X3863955Y45135232D01*
X3863953Y45135233D01*
X3677730Y45191722D01*
X3592046Y45237520D01*
X3530412Y45312622D01*
X3502209Y45405593D01*
X3511732Y45502280D01*
X3557530Y45587964D01*
X3632632Y45649598D01*
X3677730Y45668278D01*
X3764700Y45694660D01*
X3863954Y45724768D01*
X4046450Y45822315D01*
X4206410Y45953590D01*
X4224362Y45975464D01*
X4303351Y46071714D01*
X4337685Y46113550D01*
X4435232Y46296046D01*
X4495300Y46494066D01*
X4507320Y46616107D01*
X4531563Y46696030D01*
X4976266Y46696030D01*
X4993398Y46663980D01*
X5002921Y46616106D01*
X5013976Y46503868D01*
X5071185Y46315275D01*
X5071188Y46315267D01*
X5164088Y46141464D01*
X5215667Y46078616D01*
X5289117Y45989117D01*
X5321081Y45962885D01*
X5441463Y45864089D01*
X5615266Y45771189D01*
X5615270Y45771188D01*
X5615273Y45771186D01*
X5803868Y45713976D01*
X6000000Y45694659D01*
X6196132Y45713976D01*
X6384727Y45771186D01*
X6388782Y45773353D01*
X6558536Y45864089D01*
X6558535Y45864089D01*
X6558538Y45864090D01*
X6710883Y45989117D01*
X6835910Y46141462D01*
X6897156Y46256045D01*
X6928811Y46315267D01*
X6928811Y46315269D01*
X6928814Y46315273D01*
X6986024Y46503868D01*
X7005341Y46700000D01*
X6986024Y46896132D01*
X6928814Y47084727D01*
X6928812Y47084730D01*
X6928811Y47084734D01*
X6835911Y47258537D01*
X6754677Y47357520D01*
X6710883Y47410883D01*
X6558538Y47535910D01*
X6558539Y47535910D01*
X6558536Y47535912D01*
X6384733Y47628812D01*
X6384725Y47628815D01*
X6196131Y47686025D01*
X6000000Y47705341D01*
X5803868Y47686025D01*
X5615274Y47628815D01*
X5615266Y47628812D01*
X5441463Y47535912D01*
X5289120Y47410886D01*
X5289114Y47410880D01*
X5164088Y47258537D01*
X5071188Y47084734D01*
X5071185Y47084726D01*
X5013976Y46896133D01*
X5002921Y46783895D01*
X4976266Y46696030D01*
X4531563Y46696030D01*
X4533972Y46703972D01*
X4516841Y46736024D01*
X4507320Y46783895D01*
X4495300Y46905934D01*
X4435232Y47103954D01*
X4337685Y47286450D01*
X4334983Y47289743D01*
X4206416Y47446404D01*
X4206403Y47446417D01*
X4046452Y47577684D01*
X3863955Y47675232D01*
X3863953Y47675233D01*
X3677730Y47731722D01*
X3592046Y47777520D01*
X3530412Y47852622D01*
X3502209Y47945593D01*
X3511732Y48042280D01*
X3557530Y48127964D01*
X3632632Y48189598D01*
X3677730Y48208278D01*
X3764700Y48234660D01*
X3863954Y48264768D01*
X4046450Y48362315D01*
X4206410Y48493590D01*
X4211663Y48499990D01*
X4337683Y48653548D01*
X4337685Y48653550D01*
X4435232Y48836046D01*
X4495300Y49034066D01*
X4507320Y49156107D01*
X4531563Y49236030D01*
X4976266Y49236030D01*
X4993398Y49203980D01*
X5002921Y49156106D01*
X5013976Y49043868D01*
X5071185Y48855275D01*
X5071188Y48855267D01*
X5164088Y48681464D01*
X5196109Y48642447D01*
X5289117Y48529117D01*
X5332398Y48493597D01*
X5441463Y48404089D01*
X5615266Y48311189D01*
X5615270Y48311188D01*
X5615273Y48311186D01*
X5803868Y48253976D01*
X6000000Y48234659D01*
X6196132Y48253976D01*
X6384727Y48311186D01*
X6471431Y48357530D01*
X6558536Y48404089D01*
X6558535Y48404089D01*
X6558538Y48404090D01*
X6710883Y48529117D01*
X6835910Y48681462D01*
X6897156Y48796045D01*
X6928811Y48855267D01*
X6928811Y48855269D01*
X6928814Y48855273D01*
X6986024Y49043868D01*
X7005341Y49240000D01*
X6986024Y49436132D01*
X6928814Y49624727D01*
X6928812Y49624730D01*
X6928811Y49624734D01*
X6835911Y49798537D01*
X6762062Y49888521D01*
X6710883Y49950883D01*
X6605857Y50037076D01*
X6558536Y50075912D01*
X6384733Y50168812D01*
X6384725Y50168815D01*
X6196131Y50226025D01*
X6000000Y50245341D01*
X5803868Y50226025D01*
X5615274Y50168815D01*
X5615266Y50168812D01*
X5441463Y50075912D01*
X5289120Y49950886D01*
X5289114Y49950880D01*
X5164088Y49798537D01*
X5071188Y49624734D01*
X5071185Y49624726D01*
X5013976Y49436133D01*
X5002921Y49323895D01*
X4976266Y49236030D01*
X4531563Y49236030D01*
X4533972Y49243972D01*
X4516841Y49276024D01*
X4507320Y49323895D01*
X4495300Y49445934D01*
X4435232Y49643954D01*
X4337685Y49826450D01*
X4291996Y49882123D01*
X4206416Y49986404D01*
X4206403Y49986417D01*
X4046452Y50117684D01*
X3863955Y50215232D01*
X3863953Y50215233D01*
X3677730Y50271722D01*
X3592046Y50317520D01*
X3530412Y50392622D01*
X3502209Y50485593D01*
X3511732Y50582280D01*
X3557530Y50667964D01*
X3632632Y50729598D01*
X3677730Y50748278D01*
X3760398Y50773355D01*
X3863954Y50804768D01*
X4046450Y50902315D01*
X4206410Y51033590D01*
X4337685Y51193550D01*
X4435232Y51376046D01*
X4495300Y51574066D01*
X4502699Y51649190D01*
X4530902Y51742160D01*
X4561152Y51779021D01*
X4558435Y51783087D01*
X4942564Y51783087D01*
X4942980Y51782746D01*
X4988778Y51697063D01*
X4999500Y51624782D01*
X4999500Y50915178D01*
X5008231Y50871281D01*
X5008232Y50871279D01*
X5008233Y50871278D01*
X5041496Y50821496D01*
X5091278Y50788233D01*
X5091280Y50788232D01*
X5117571Y50783003D01*
X5135178Y50779501D01*
X5135179Y50779500D01*
X5135180Y50779500D01*
X6864821Y50779500D01*
X6864821Y50779501D01*
X6891113Y50784731D01*
X6908719Y50788232D01*
X6908719Y50788233D01*
X6908722Y50788233D01*
X6958504Y50821496D01*
X6991767Y50871278D01*
X7000500Y50915180D01*
X7000500Y52644820D01*
X6995843Y52668233D01*
X6991768Y52688720D01*
X6991767Y52688722D01*
X6958504Y52738504D01*
X6908722Y52771767D01*
X6908721Y52771768D01*
X6908719Y52771769D01*
X6864822Y52780500D01*
X6864820Y52780500D01*
X5135180Y52780500D01*
X5135177Y52780500D01*
X5091280Y52771769D01*
X5041497Y52738505D01*
X5041495Y52738503D01*
X5008231Y52688720D01*
X4999500Y52644823D01*
X4999500Y51935219D01*
X4980546Y51839931D01*
X4942564Y51783087D01*
X4558435Y51783087D01*
X4520454Y51839931D01*
X4502699Y51910812D01*
X4500295Y51935219D01*
X4495300Y51985934D01*
X4435232Y52183954D01*
X4337685Y52366450D01*
X4337683Y52366453D01*
X4206416Y52526404D01*
X4206403Y52526417D01*
X4046452Y52657684D01*
X3863955Y52755232D01*
X3665934Y52815300D01*
X3460000Y52835583D01*
X3254065Y52815300D01*
X3056044Y52755232D01*
X2873547Y52657684D01*
X2713596Y52526417D01*
X2713583Y52526404D01*
X2582316Y52366453D01*
X2484768Y52183956D01*
X2424700Y51985935D01*
X2404417Y51780000D01*
X2424700Y51574066D01*
X2484768Y51376045D01*
X2582316Y51193548D01*
X2713583Y51033597D01*
X2713596Y51033584D01*
X2873547Y50902317D01*
X2873548Y50902317D01*
X2873550Y50902315D01*
X3056044Y50804769D01*
X3056043Y50804769D01*
X3242270Y50748278D01*
X3327953Y50702480D01*
X3389587Y50627378D01*
X3417790Y50534406D01*
X3408267Y50437719D01*
X3362469Y50352036D01*
X3287367Y50290402D01*
X3242270Y50271722D01*
X3056044Y50215232D01*
X2873547Y50117684D01*
X2713596Y49986417D01*
X2713583Y49986404D01*
X2582316Y49826453D01*
X2484768Y49643956D01*
X2424700Y49445935D01*
X2404417Y49240000D01*
X2424700Y49034066D01*
X2484768Y48836045D01*
X2582316Y48653548D01*
X2713583Y48493597D01*
X2713596Y48493584D01*
X2873547Y48362317D01*
X2873548Y48362317D01*
X2873550Y48362315D01*
X3056044Y48264769D01*
X3056043Y48264769D01*
X3242270Y48208278D01*
X3327953Y48162480D01*
X3389587Y48087378D01*
X3417790Y47994406D01*
X3408267Y47897719D01*
X3362469Y47812036D01*
X3287367Y47750402D01*
X3242270Y47731722D01*
X3056044Y47675232D01*
X2873547Y47577684D01*
X2713596Y47446417D01*
X2713583Y47446404D01*
X2582316Y47286453D01*
X2484768Y47103956D01*
X2424700Y46905935D01*
X2404417Y46700000D01*
X2424700Y46494066D01*
X2484768Y46296045D01*
X2582316Y46113548D01*
X2713583Y45953597D01*
X2713596Y45953584D01*
X2873547Y45822317D01*
X2873548Y45822317D01*
X2873550Y45822315D01*
X3056044Y45724769D01*
X3056043Y45724769D01*
X3242270Y45668278D01*
X3327953Y45622480D01*
X3389587Y45547378D01*
X3417790Y45454406D01*
X3408267Y45357719D01*
X3362469Y45272036D01*
X3287367Y45210402D01*
X3242270Y45191722D01*
X3056044Y45135232D01*
X2873547Y45037684D01*
X2713596Y44906417D01*
X2713583Y44906404D01*
X2582316Y44746453D01*
X2484768Y44563956D01*
X2424700Y44365935D01*
X2404417Y44160000D01*
X2424700Y43954066D01*
X2484768Y43756045D01*
X2582316Y43573548D01*
X2713583Y43413597D01*
X2713596Y43413584D01*
X2852019Y43299985D01*
X2873550Y43282315D01*
X2880159Y43278783D01*
X2955259Y43217152D01*
X3001059Y43131469D01*
X3010583Y43034782D01*
X2982383Y42941810D01*
X2920750Y42866707D01*
X2868016Y42833515D01*
X2782430Y42793605D01*
X2782420Y42793600D01*
X2588923Y42658111D01*
X2421889Y42491077D01*
X2286400Y42297580D01*
X2286396Y42297572D01*
X2186570Y42083495D01*
X2186566Y42083484D01*
X2129363Y41870002D01*
X200500Y41870002D01*
X200500Y63530000D01*
X7894318Y63530000D01*
X7914955Y63373240D01*
X7914956Y63373238D01*
X7975464Y63227159D01*
X8071718Y63101718D01*
X8197159Y63005464D01*
X8343238Y62944956D01*
X8500000Y62924318D01*
X8656762Y62944956D01*
X8802841Y63005464D01*
X8928282Y63101718D01*
X9024536Y63227159D01*
X9085044Y63373238D01*
X9105682Y63530000D01*
X9085044Y63686762D01*
X9024536Y63832841D01*
X8928282Y63958282D01*
X8928277Y63958286D01*
X8928276Y63958287D01*
X8802844Y64054534D01*
X8802843Y64054535D01*
X8802841Y64054536D01*
X8656762Y64115044D01*
X8656760Y64115045D01*
X8500000Y64135682D01*
X8343239Y64115045D01*
X8251117Y64076887D01*
X8197159Y64054536D01*
X8197158Y64054536D01*
X8197155Y64054534D01*
X8071723Y63958287D01*
X8071713Y63958277D01*
X7975466Y63832845D01*
X7914955Y63686761D01*
X7894318Y63530000D01*
X200500Y63530000D01*
X200500Y69624990D01*
X9394318Y69624990D01*
X9414955Y69468230D01*
X9414956Y69468228D01*
X9475464Y69322149D01*
X9475465Y69322147D01*
X9475466Y69322146D01*
X9551246Y69223387D01*
X9571718Y69196708D01*
X9697159Y69100454D01*
X9843238Y69039946D01*
X10000000Y69019308D01*
X10156762Y69039946D01*
X10302841Y69100454D01*
X10428282Y69196708D01*
X10524536Y69322149D01*
X10585044Y69468228D01*
X10605682Y69624990D01*
X10585044Y69781752D01*
X10524536Y69927831D01*
X10469159Y70000000D01*
X10428286Y70053267D01*
X10428285Y70053268D01*
X10428282Y70053272D01*
X10428277Y70053276D01*
X10428276Y70053277D01*
X10302844Y70149524D01*
X10302843Y70149525D01*
X10302841Y70149526D01*
X10156844Y70210000D01*
X10156760Y70210035D01*
X10000000Y70230672D01*
X9843239Y70210035D01*
X9751117Y70171877D01*
X9697159Y70149526D01*
X9697158Y70149526D01*
X9697155Y70149524D01*
X9571723Y70053277D01*
X9571713Y70053267D01*
X9475466Y69927835D01*
X9414955Y69781751D01*
X9394318Y69624990D01*
X200500Y69624990D01*
X200500Y76781661D01*
X34856852Y76781661D01*
X34877334Y76639205D01*
X34877335Y76639201D01*
X34937121Y76508289D01*
X35006443Y76428287D01*
X35031370Y76399519D01*
X35152445Y76321709D01*
X35152446Y76321709D01*
X35152448Y76321708D01*
X35216704Y76302841D01*
X35290537Y76281162D01*
X35434459Y76281162D01*
X35572551Y76321709D01*
X35693626Y76399519D01*
X35787874Y76508288D01*
X35847662Y76639204D01*
X35868144Y76781661D01*
X35847662Y76924118D01*
X35787874Y77055034D01*
X35693626Y77163803D01*
X35572552Y77241613D01*
X35572547Y77241615D01*
X35434459Y77282160D01*
X35290537Y77282160D01*
X35152448Y77241615D01*
X35152443Y77241613D01*
X35031369Y77163803D01*
X34937121Y77055034D01*
X34877335Y76924122D01*
X34877334Y76924118D01*
X34856852Y76781661D01*
X200500Y76781661D01*
X200500Y78550500D01*
X219454Y78645788D01*
X273430Y78726570D01*
X354212Y78780546D01*
X449500Y78799500D01*
X94550500Y78799500D01*
X94645788Y78780546D01*
G37*
G04 #@! TD.AperFunction*
G04 #@! TD*
M02*
