M48
; DRILL file {KiCad 8.0.7} date 2025-04-19T17:51:56+0300
; FORMAT={2:4/ absolute / inch / suppress leading zeros}
; #@! TF.CreationDate,2025-04-19T17:51:56+03:00
; #@! TF.GenerationSoftware,Kicad,Pcbnew,8.0.7
; #@! TF.FileFunction,MixedPlating,1,4
FMAT,2
INCH,TZ
; #@! TA.AperFunction,Plated,PTH,ComponentDrill
T1C0.0118
; #@! TA.AperFunction,Plated,PTH,ViaDrill
T2C0.0157
; #@! TA.AperFunction,Plated,PTH,ComponentDrill
T3C0.0295
; #@! TA.AperFunction,Plated,PTH,ComponentDrill
T4C0.0320
; #@! TA.AperFunction,Plated,PTH,ComponentDrill
T5C0.0394
; #@! TA.AperFunction,Plated,PTH,ComponentDrill
T6C0.0551
; #@! TA.AperFunction,Plated,PTH,ComponentDrill
T7C0.0591
%
G90
G05
T1
X32805Y-54596
X32805Y-54990
X36654Y-25118
X36654Y-26063
X36654Y-26535
X36654Y-27008
X36654Y-27480
X36654Y-27953
X36654Y-28425
X36654Y-28898
X36654Y-29370
X36654Y-29843
X36654Y-30315
X36654Y-30787
X36654Y-31260
X36654Y-31732
X36654Y-32205
X36654Y-32677
X36654Y-33150
X36654Y-33622
X36654Y-34094
X36654Y-34567
X36654Y-35039
X36654Y-35512
X37638Y-24961
X38032Y-24961
X39213Y-38110
X40906Y-38110
X41220Y-38110
X41535Y-38110
X41850Y-38110
X42165Y-38110
X42244Y-24961
X42480Y-38110
X42638Y-24961
X42795Y-38110
X43031Y-24961
X43110Y-38110
X43425Y-24961
X43425Y-38110
X43740Y-38110
X43819Y-24961
X44055Y-38110
X44213Y-24961
X44370Y-38110
X44606Y-24961
X44685Y-38110
X45000Y-24961
X45000Y-38110
X45315Y-38110
X45630Y-38110
X46024Y-24961
X46181Y-38110
X46339Y-24961
X46496Y-38110
X46811Y-38110
X47126Y-38110
X47441Y-38110
X47756Y-38110
X48189Y-24961
X48740Y-24961
X50591Y-24961
X50591Y-27874
X50591Y-28268
X50591Y-29331
X50591Y-31024
X50591Y-31339
X50591Y-33228
X50591Y-33543
X50591Y-34488
X50591Y-34803
X50591Y-35118
X50591Y-35433
X50591Y-31654
X50591Y-31969
X50591Y-32283
X50591Y-32598
X50591Y-32913
X50591Y-35748
X50591Y-36063
X50591Y-36378
X50591Y-36693
X50591Y-37008
X50591Y-37323
X50591Y-37638
X50591Y-37953
X54321Y-51053
X54793Y-51053
X55266Y-51053
X55738Y-51053
X56864Y-56732
X57258Y-56732
T2
X24606Y-16535
X25000Y-16929
X25394Y-17323
X25591Y-50197
X28346Y-21457
X28740Y-21457
X29134Y-21457
X29528Y-21457
X29921Y-20472
X29921Y-21457
X29921Y-39189
X30315Y-21457
X30709Y-21457
X31102Y-21457
X31102Y-28937
X31102Y-30315
X31102Y-38386
X31102Y-45669
X31496Y-21457
X31496Y-28937
X31496Y-38386
X31890Y-21457
X31890Y-28937
X31890Y-38386
X32283Y-21457
X32283Y-38386
X33465Y-54134
X33858Y-25197
X34252Y-24803
X34291Y-25591
X34291Y-26772
X35236Y-33661
X35236Y-39370
X35433Y-45669
X35630Y-33661
X36024Y-21614
X36024Y-33661
X36024Y-36024
X36024Y-36417
X36024Y-36811
X36024Y-37205
X36024Y-37598
X36024Y-37992
X36220Y-25394
X36417Y-40157
X36614Y-46850
X36614Y-47244
X36614Y-47638
X36614Y-48031
X36614Y-48425
X36614Y-48819
X36811Y-40157
X37205Y-40157
X37598Y-40157
X37992Y-40157
X38386Y-24213
X38583Y-47441
X39961Y-38780
X40157Y-17913
X40157Y-24016
X40354Y-38780
X40551Y-24016
X40748Y-38780
X40748Y-49803
X40748Y-51575
X40945Y-24016
X41732Y-49803
X41732Y-51575
X42323Y-49803
X42323Y-51575
X43307Y-39961
X44094Y-39961
X44488Y-46457
X44488Y-49409
X44685Y-50394
X44882Y-46909
X44882Y-49409
X45472Y-49409
X46014Y-50443
X46063Y-39370
X46457Y-39370
X46457Y-39961
X47244Y-24213
X47244Y-39961
X48425Y-41142
X48425Y-41535
X48425Y-41929
X50394Y-23622
X50591Y-39961
X50984Y-34055
X50984Y-39961
X51378Y-29724
X51378Y-30118
X51378Y-30512
X51378Y-32087
X51378Y-32480
X51378Y-32874
X51378Y-34055
X51378Y-39961
X52756Y-17717
X54331Y-17717
X54528Y-57087
X54895Y-31077
X54921Y-57087
X55512Y-57087
X55906Y-57087
X56890Y-57992
X57874Y-30118
X58071Y-30512
X58268Y-30118
X58268Y-30906
X58465Y-31299
X58661Y-28740
X58661Y-30118
X58661Y-31693
X58858Y-31299
X58858Y-32087
X59055Y-28937
X59055Y-30118
X59055Y-31693
X59055Y-32480
X59252Y-29331
X59252Y-29724
X59252Y-31299
X59252Y-32087
X59252Y-32874
X59449Y-30118
X59449Y-31693
X59449Y-32480
X59646Y-31299
X59646Y-32087
X59843Y-30118
X59843Y-31693
X60039Y-31299
X60236Y-30118
X60236Y-30906
X60433Y-17126
X60433Y-30512
X60630Y-30118
X60630Y-57480
X60827Y-16929
X60827Y-17323
X61024Y-57283
X61024Y-57677
X61220Y-16732
X61220Y-17126
X61220Y-17520
X61417Y-57087
X61417Y-57480
X61417Y-57874
X61614Y-16535
X61614Y-16929
X61614Y-17323
X61614Y-17717
X61811Y-56890
X61811Y-57283
X61811Y-57677
X61811Y-58071
X62008Y-16339
X62008Y-16732
X62008Y-17126
X62008Y-17520
X62008Y-17913
X62205Y-56693
X62205Y-57087
X62205Y-57480
X62205Y-57874
X62205Y-58268
T3
X57677Y-23031
X58465Y-23031
X59252Y-23031
X60039Y-23031
T4
X26398Y-47047
X28327Y-47047
X29978Y-44094
X31478Y-44094
T5
X26526Y-48514
X26526Y-49242
X26526Y-51191
X26526Y-55935
X32628Y-48691
X32628Y-51211
X32628Y-51959
X32628Y-53652
X32628Y-56112
X57433Y-26378
X58433Y-26378
X59433Y-26378
X60433Y-26378
T6
X28567Y-18701
X30126Y-18701
X31685Y-18701
X33244Y-18701
X34803Y-18701
X36362Y-18701
X37921Y-18701
X39480Y-18701
X40104Y-52704
X40104Y-56104
X40106Y-54394
X41039Y-18701
X41404Y-52704
X41404Y-56104
X41406Y-54394
X42598Y-18701
X42704Y-52704
X42704Y-56104
X42706Y-54394
X44004Y-52704
X44004Y-56104
X44006Y-54394
X44157Y-18701
X45304Y-52704
X45304Y-56104
X45306Y-54394
X45717Y-18701
X46604Y-52704
X46604Y-56104
X46606Y-54394
X47276Y-18701
X48835Y-18701
X50394Y-18701
X51953Y-18701
X53512Y-18701
X55071Y-18701
X56630Y-18701
X58189Y-18701
T7
X38504Y-52704
X38504Y-56104
X38506Y-54394
X48204Y-52704
X48206Y-54394
X48242Y-56104
M30
