%TF.GenerationSoftware,KiCad,Pcbnew,8.0.7*%
%TF.CreationDate,2024-12-26T23:24:23+03:00*%
%TF.ProjectId,uaefi,75616566-692e-46b6-9963-61645f706362,D*%
%TF.SameCoordinates,Original*%
%TF.FileFunction,Soldermask,Top*%
%TF.FilePolarity,Negative*%
%FSLAX46Y46*%
G04 Gerber Fmt 4.6, Leading zero omitted, Abs format (unit mm)*
G04 Created by KiCad (PCBNEW 8.0.7) date 2024-12-26 23:24:23*
%MOMM*%
%LPD*%
G01*
G04 APERTURE LIST*
G04 Aperture macros list*
%AMRoundRect*
0 Rectangle with rounded corners*
0 $1 Rounding radius*
0 $2 $3 $4 $5 $6 $7 $8 $9 X,Y pos of 4 corners*
0 Add a 4 corners polygon primitive as box body*
4,1,4,$2,$3,$4,$5,$6,$7,$8,$9,$2,$3,0*
0 Add four circle primitives for the rounded corners*
1,1,$1+$1,$2,$3*
1,1,$1+$1,$4,$5*
1,1,$1+$1,$6,$7*
1,1,$1+$1,$8,$9*
0 Add four rect primitives between the rounded corners*
20,1,$1+$1,$2,$3,$4,$5,0*
20,1,$1+$1,$4,$5,$6,$7,0*
20,1,$1+$1,$6,$7,$8,$9,0*
20,1,$1+$1,$8,$9,$2,$3,0*%
G04 Aperture macros list end*
%ADD10RoundRect,0.085000X-0.340000X-0.340000X0.340000X-0.340000X0.340000X0.340000X-0.340000X0.340000X0*%
%ADD11RoundRect,0.070000X-0.280000X-0.390000X0.280000X-0.390000X0.280000X0.390000X-0.280000X0.390000X0*%
%ADD12C,1.500000*%
%ADD13C,0.600000*%
%ADD14RoundRect,0.218750X-0.218750X-0.256250X0.218750X-0.256250X0.218750X0.256250X-0.218750X0.256250X0*%
%ADD15RoundRect,0.070000X0.390000X-0.280000X0.390000X0.280000X-0.390000X0.280000X-0.390000X-0.280000X0*%
%ADD16R,1.700000X1.700000*%
%ADD17O,1.700000X1.700000*%
%ADD18RoundRect,0.250000X-0.350000X-0.625000X0.350000X-0.625000X0.350000X0.625000X-0.350000X0.625000X0*%
%ADD19O,1.200000X1.750000*%
%ADD20RoundRect,0.100000X-0.400000X-0.625000X0.400000X-0.625000X0.400000X0.625000X-0.400000X0.625000X0*%
%ADD21RoundRect,0.150000X-0.825000X-0.150000X0.825000X-0.150000X0.825000X0.150000X-0.825000X0.150000X0*%
%ADD22RoundRect,0.090000X0.360000X0.510000X-0.360000X0.510000X-0.360000X-0.510000X0.360000X-0.510000X0*%
%ADD23C,1.524000*%
%ADD24RoundRect,0.230000X-0.345000X0.670000X-0.345000X-0.670000X0.345000X-0.670000X0.345000X0.670000X0*%
%ADD25RoundRect,0.150000X0.587500X0.150000X-0.587500X0.150000X-0.587500X-0.150000X0.587500X-0.150000X0*%
%ADD26O,0.499999X0.250000*%
%ADD27O,0.250000X0.499999*%
%ADD28C,0.599999*%
%ADD29RoundRect,0.100000X0.400000X0.625000X-0.400000X0.625000X-0.400000X-0.625000X0.400000X-0.625000X0*%
%ADD30RoundRect,0.041300X-0.968700X-0.253700X0.968700X-0.253700X0.968700X0.253700X-0.968700X0.253700X0*%
%ADD31RoundRect,0.230000X0.345000X-0.670000X0.345000X0.670000X-0.345000X0.670000X-0.345000X-0.670000X0*%
G04 APERTURE END LIST*
D10*
%TO.C,C28*%
X109209999Y-46000000D03*
X110790001Y-46000000D03*
%TD*%
D11*
%TO.C,R12*%
X139200000Y-85000000D03*
X140800000Y-85000000D03*
%TD*%
D12*
%TO.C,M1*%
X132500000Y-47250002D03*
X138899997Y-47250002D03*
X140800000Y-47250002D03*
X145100000Y-47250002D03*
D13*
X147499997Y-46800003D03*
X148499998Y-46800003D03*
D12*
X151350000Y-47250002D03*
X132049998Y-62749999D03*
X133899997Y-62749999D03*
X138850000Y-62749999D03*
X150899998Y-62749999D03*
%TD*%
D14*
%TO.C,F6*%
X88000000Y-69500000D03*
X89575000Y-69500000D03*
%TD*%
D15*
%TO.C,R33*%
X134000000Y-69300000D03*
X134000000Y-67700000D03*
%TD*%
D16*
%TO.C,BLUETOOTH1*%
X164000000Y-46960000D03*
D17*
X164000000Y-49500000D03*
X164000000Y-52040000D03*
X164000000Y-54580000D03*
%TD*%
D11*
%TO.C,R10*%
X139200000Y-92000000D03*
X140800000Y-92000000D03*
%TD*%
D14*
%TO.C,L1*%
X102925000Y-47500000D03*
X104500000Y-47500000D03*
%TD*%
D18*
%TO.C,USB1*%
X157500000Y-61000000D03*
D19*
X159500000Y-61000000D03*
X161500000Y-61000000D03*
X163500000Y-61000000D03*
%TD*%
D10*
%TO.C,C31*%
X109209999Y-50470000D03*
X110790001Y-50470000D03*
%TD*%
D20*
%TO.C,R8*%
X84049999Y-99005856D03*
X85950021Y-99005856D03*
%TD*%
D10*
%TO.C,C29*%
X109209999Y-47470000D03*
X110790001Y-47470000D03*
%TD*%
%TO.C,C30*%
X109209999Y-48970000D03*
X110790001Y-48970000D03*
%TD*%
D21*
%TO.C,U9*%
X152025000Y-68095000D03*
X152025000Y-69365000D03*
X152025000Y-70635000D03*
X152025000Y-71905000D03*
X156975000Y-71905000D03*
X156975000Y-70635000D03*
X156975000Y-69365000D03*
X156975000Y-68095000D03*
%TD*%
%TO.C,U6*%
X152025000Y-82095000D03*
X152025000Y-83365000D03*
X152025000Y-84635000D03*
X152025000Y-85905000D03*
X156975000Y-85905000D03*
X156975000Y-84635000D03*
X156975000Y-83365000D03*
X156975000Y-82095000D03*
%TD*%
D15*
%TO.C,R29*%
X140000000Y-69300000D03*
X140000000Y-67700000D03*
%TD*%
D22*
%TO.C,D5*%
X157150000Y-90500000D03*
X153850000Y-90500000D03*
%TD*%
D20*
%TO.C,R7*%
X84049999Y-96502928D03*
X85950021Y-96502928D03*
%TD*%
D13*
%TO.C,M2*%
X91475000Y-85425002D03*
X91475000Y-86375002D03*
X91475000Y-87325000D03*
X82775000Y-86325002D03*
X82775000Y-85425002D03*
%TD*%
D11*
%TO.C,R21*%
X84987500Y-71500000D03*
X86587500Y-71500000D03*
%TD*%
D15*
%TO.C,R31*%
X137000000Y-69300000D03*
X137000000Y-67700000D03*
%TD*%
D22*
%TO.C,D4*%
X157150000Y-88500000D03*
X153850000Y-88500000D03*
%TD*%
D10*
%TO.C,C27*%
X91419998Y-47500000D03*
X93000000Y-47500000D03*
%TD*%
D21*
%TO.C,U11*%
X152025000Y-75095000D03*
X152025000Y-76365000D03*
X152025000Y-77635000D03*
X152025000Y-78905000D03*
X156975000Y-78905000D03*
X156975000Y-77635000D03*
X156975000Y-76365000D03*
X156975000Y-75095000D03*
%TD*%
D23*
%TO.C,F1*%
X154450000Y-113500000D03*
D24*
X153450010Y-113500000D03*
X150549990Y-113500000D03*
D23*
X149550000Y-113500000D03*
%TD*%
D21*
%TO.C,U4*%
X114025000Y-47595000D03*
X114025000Y-48865000D03*
X114025000Y-50135000D03*
X114025000Y-51405000D03*
X118975000Y-51405000D03*
X118975000Y-50135000D03*
X118975000Y-48865000D03*
X118975000Y-47595000D03*
%TD*%
D25*
%TO.C,D8*%
X99650000Y-49950000D03*
X99650000Y-48050000D03*
X97775000Y-49000000D03*
%TD*%
D14*
%TO.C,L2*%
X102925000Y-50500000D03*
X104500000Y-50500000D03*
%TD*%
D21*
%TO.C,U7*%
X143025000Y-92095000D03*
X143025000Y-93365000D03*
X143025000Y-94635000D03*
X143025000Y-95905000D03*
X147975000Y-95905000D03*
X147975000Y-94635000D03*
X147975000Y-93365000D03*
X147975000Y-92095000D03*
%TD*%
D26*
%TO.C,CAN1*%
X125437495Y-101643334D03*
D27*
X115087501Y-101593336D03*
X115587502Y-101593336D03*
D28*
X122137499Y-100543338D03*
X121262497Y-100018338D03*
X122437501Y-99268340D03*
X122362498Y-95718339D03*
%TD*%
D14*
%TO.C,F7*%
X88000000Y-73500000D03*
X89575000Y-73500000D03*
%TD*%
D23*
%TO.C,R4*%
X127905000Y-46500000D03*
D29*
X126950001Y-46500000D03*
X125049979Y-46500000D03*
D23*
X124095000Y-46500000D03*
%TD*%
D11*
%TO.C,R2*%
X107700000Y-103000000D03*
X109300000Y-103000000D03*
%TD*%
%TO.C,R6*%
X107700000Y-106949046D03*
X109300000Y-106949046D03*
%TD*%
%TO.C,R20*%
X84987500Y-69500000D03*
X86587500Y-69500000D03*
%TD*%
D15*
%TO.C,R30*%
X138500000Y-69300000D03*
X138500000Y-67700000D03*
%TD*%
D11*
%TO.C,R15*%
X146700000Y-79500000D03*
X148300000Y-79500000D03*
%TD*%
%TO.C,R11*%
X139200000Y-95500000D03*
X140800000Y-95500000D03*
%TD*%
%TO.C,R26*%
X84987500Y-75500000D03*
X86587500Y-75500000D03*
%TD*%
%TO.C,R28*%
X84987500Y-79500000D03*
X86587500Y-79500000D03*
%TD*%
D15*
%TO.C,R34*%
X132500000Y-69300000D03*
X132500000Y-67700000D03*
%TD*%
D21*
%TO.C,U10*%
X143025000Y-68095000D03*
X143025000Y-69365000D03*
X143025000Y-70635000D03*
X143025000Y-71905000D03*
X147975000Y-71905000D03*
X147975000Y-70635000D03*
X147975000Y-69365000D03*
X147975000Y-68095000D03*
%TD*%
D11*
%TO.C,R22*%
X84987500Y-73500000D03*
X86587500Y-73500000D03*
%TD*%
%TO.C,R16*%
X146700000Y-81449046D03*
X148300000Y-81449046D03*
%TD*%
D15*
%TO.C,R32*%
X135500000Y-69300000D03*
X135500000Y-67700000D03*
%TD*%
D14*
%TO.C,F8*%
X88000000Y-75500000D03*
X89575000Y-75500000D03*
%TD*%
D10*
%TO.C,C32*%
X109209999Y-51970000D03*
X110790001Y-51970000D03*
%TD*%
D30*
%TO.C,MAP1*%
X77820000Y-48595000D03*
X77820000Y-49865000D03*
X77820000Y-51135000D03*
X77820000Y-52405000D03*
X87180000Y-52405000D03*
X87180000Y-51135000D03*
X87180000Y-49865000D03*
X87180000Y-48595000D03*
%TD*%
D11*
%TO.C,R3*%
X107700000Y-105000000D03*
X109300000Y-105000000D03*
%TD*%
D22*
%TO.C,D2*%
X157150000Y-92500000D03*
X153850000Y-92500000D03*
%TD*%
D23*
%TO.C,F4*%
X149550000Y-118500000D03*
D31*
X150549990Y-118500000D03*
X153450010Y-118500000D03*
D23*
X154450000Y-118500000D03*
%TD*%
D21*
%TO.C,U8*%
X143025000Y-85095000D03*
X143025000Y-86365000D03*
X143025000Y-87635000D03*
X143025000Y-88905000D03*
X147975000Y-88905000D03*
X147975000Y-87635000D03*
X147975000Y-86365000D03*
X147975000Y-85095000D03*
%TD*%
D14*
%TO.C,F9*%
X88000000Y-77500000D03*
X89575000Y-77500000D03*
%TD*%
D22*
%TO.C,D3*%
X157150000Y-94500000D03*
X153850000Y-94500000D03*
%TD*%
D23*
%TO.C,F2*%
X149550000Y-116000000D03*
D31*
X150549990Y-116000000D03*
X153450010Y-116000000D03*
D23*
X154450000Y-116000000D03*
%TD*%
%TO.C,F3*%
X149550000Y-121000000D03*
D31*
X150549990Y-121000000D03*
X153450010Y-121000000D03*
D23*
X154450000Y-121000000D03*
%TD*%
D14*
%TO.C,F5*%
X88000000Y-71500000D03*
X89575000Y-71500000D03*
%TD*%
D11*
%TO.C,R27*%
X84987500Y-77500000D03*
X86587500Y-77500000D03*
%TD*%
D20*
%TO.C,R5*%
X84049999Y-94000000D03*
X85950021Y-94000000D03*
%TD*%
D14*
%TO.C,F10*%
X88000000Y-79500000D03*
X89575000Y-79500000D03*
%TD*%
D11*
%TO.C,R13*%
X139200000Y-88500000D03*
X140800000Y-88500000D03*
%TD*%
D13*
%TO.C,M4*%
X90137500Y-58200000D03*
X90137500Y-59400000D03*
X90137500Y-57000000D03*
X90137500Y-55800000D03*
X75712500Y-62260000D03*
X75712500Y-63260000D03*
%TD*%
D11*
%TO.C,R1*%
X107700000Y-101101908D03*
X109300000Y-101101908D03*
%TD*%
D16*
%TO.C,SAGSOKET1*%
X164540000Y-70260000D03*
D17*
X162000000Y-70260000D03*
X164540000Y-72800000D03*
X162000000Y-72800000D03*
X164540000Y-75340000D03*
X162000000Y-75340000D03*
X164540000Y-77880000D03*
X162000000Y-77880000D03*
X164540000Y-80420000D03*
X162000000Y-80420000D03*
X164540000Y-82960000D03*
X162000000Y-82960000D03*
X164540000Y-85500000D03*
X162000000Y-85500000D03*
X164540000Y-88040000D03*
X162000000Y-88040000D03*
X164540000Y-90580000D03*
X162000000Y-90580000D03*
X164540000Y-93120000D03*
X162000000Y-93120000D03*
X164540000Y-95660000D03*
X162000000Y-95660000D03*
X164540000Y-98200000D03*
X162000000Y-98200000D03*
X164540000Y-100740000D03*
X162000000Y-100740000D03*
X164540000Y-103280000D03*
X162000000Y-103280000D03*
X164540000Y-105820000D03*
X162000000Y-105820000D03*
X164540000Y-108360000D03*
X162000000Y-108360000D03*
X164540000Y-110900000D03*
X162000000Y-110900000D03*
X164540000Y-113440000D03*
X162000000Y-113440000D03*
X164540000Y-115980000D03*
X162000000Y-115980000D03*
X164540000Y-118520000D03*
X162000000Y-118520000D03*
%TD*%
D16*
%TO.C,SOLSOKET1*%
X79000000Y-70220000D03*
D17*
X76460000Y-70220000D03*
X79000000Y-72760000D03*
X76460000Y-72760000D03*
X79000000Y-75300000D03*
X76460000Y-75300000D03*
X79000000Y-77840000D03*
X76460000Y-77840000D03*
X79000000Y-80380000D03*
X76460000Y-80380000D03*
X79000000Y-82920000D03*
X76460000Y-82920000D03*
X79000000Y-85460000D03*
X76460000Y-85460000D03*
X79000000Y-88000000D03*
X76460000Y-88000000D03*
X79000000Y-90540000D03*
X76460000Y-90540000D03*
X79000000Y-93080000D03*
X76460000Y-93080000D03*
X79000000Y-95620000D03*
X76460000Y-95620000D03*
X79000000Y-98160000D03*
X76460000Y-98160000D03*
X79000000Y-100700000D03*
X76460000Y-100700000D03*
X79000000Y-103240000D03*
X76460000Y-103240000D03*
X79000000Y-105780000D03*
X76460000Y-105780000D03*
X79000000Y-108320000D03*
X76460000Y-108320000D03*
X79000000Y-110860000D03*
X76460000Y-110860000D03*
X79000000Y-113400000D03*
X76460000Y-113400000D03*
X79000000Y-115940000D03*
X76460000Y-115940000D03*
X79000000Y-118480000D03*
X76460000Y-118480000D03*
%TD*%
M02*
