G04 #@! TF.GenerationSoftware,KiCad,Pcbnew,8.0.7-8.0.7-0~ubuntu24.04.1*
G04 #@! TF.CreationDate,2025-01-03T15:31:29+00:00*
G04 #@! TF.ProjectId,stabildaytona,73746162-696c-4646-9179-746f6e612e6b,D*
G04 #@! TF.SameCoordinates,PX2faf080PY9896800*
G04 #@! TF.FileFunction,Legend,Top*
G04 #@! TF.FilePolarity,Positive*
%FSLAX46Y46*%
G04 Gerber Fmt 4.6, Leading zero omitted, Abs format (unit mm)*
G04 Created by KiCad (PCBNEW 8.0.7-8.0.7-0~ubuntu24.04.1) date 2025-01-03 15:31:29*
%MOMM*%
%LPD*%
G01*
G04 APERTURE LIST*
%ADD10C,0.150000*%
%ADD11C,0.125000*%
%ADD12C,0.400000*%
%ADD13C,0.250000*%
%ADD14C,0.170000*%
%ADD15C,0.127000*%
%ADD16C,0.200000*%
%ADD17C,0.120000*%
%ADD18C,0.203200*%
%ADD19C,0.099060*%
G04 APERTURE END LIST*
D10*
X7000000Y12500000D02*
X4500000Y12500000D01*
X4500000Y5000000D02*
X4000000Y5500000D01*
X4500000Y33000000D02*
X4000000Y33500000D01*
X7000000Y30500000D02*
X4500000Y30500000D01*
X7000000Y38000000D02*
X4500000Y38000000D01*
X4500000Y28000000D02*
X4000000Y28500000D01*
X7000000Y2000000D02*
X4500000Y2000000D01*
X7000000Y48000000D02*
X4500000Y48000000D01*
X7000000Y17500000D02*
X4500000Y17500000D01*
X4500000Y30500000D02*
X4000000Y31000000D01*
X90500000Y50500000D02*
X91000000Y51000000D01*
X4500000Y15000000D02*
X4000000Y15500000D01*
X90000000Y50500000D02*
X90500000Y50500000D01*
X7000000Y5000000D02*
X4500000Y5000000D01*
X4500000Y10000000D02*
X4000000Y10500000D01*
X4500000Y50500000D02*
X4000000Y51000000D01*
X7000000Y50500000D02*
X4500000Y50500000D01*
X4500000Y48000000D02*
X4000000Y48500000D01*
X4500000Y22500000D02*
X4000000Y23000000D01*
X7000000Y43000000D02*
X4500000Y43000000D01*
X7000000Y15000000D02*
X4500000Y15000000D01*
X90000000Y45500000D02*
X88000000Y45500000D01*
X4500000Y25000000D02*
X4000000Y25500000D01*
X7000000Y28000000D02*
X4500000Y28000000D01*
X4500000Y12500000D02*
X4000000Y13000000D01*
X90000000Y45500000D02*
X90500000Y45500000D01*
X4500000Y35500000D02*
X4000000Y36000000D01*
X4500000Y45500000D02*
X4000000Y46000000D01*
X90000000Y48000000D02*
X90500000Y48000000D01*
X90000000Y43000000D02*
X90500000Y43000000D01*
X4500000Y7500000D02*
X4000000Y8000000D01*
X90000000Y50500000D02*
X88000000Y50500000D01*
X4500000Y43000000D02*
X4000000Y43500000D01*
X7000000Y22500000D02*
X4500000Y22500000D01*
X4500000Y40500000D02*
X4000000Y41000000D01*
X7000000Y33000000D02*
X4500000Y33000000D01*
X7000000Y20000000D02*
X4500000Y20000000D01*
X4500000Y38000000D02*
X4000000Y38500000D01*
X90500000Y43000000D02*
X91000000Y43500000D01*
X90000000Y48000000D02*
X88000000Y48000000D01*
X7000000Y7500000D02*
X4500000Y7500000D01*
X91000000Y38500000D02*
X90500000Y38000000D01*
X7000000Y40500000D02*
X4500000Y40500000D01*
X4500000Y20000000D02*
X4000000Y20500000D01*
X90000000Y43000000D02*
X88000000Y43000000D01*
X7000000Y35500000D02*
X4500000Y35500000D01*
X7000000Y25000000D02*
X4500000Y25000000D01*
X90500000Y45500000D02*
X91000000Y46000000D01*
X91000000Y41000000D02*
X90500000Y40500000D01*
X4500000Y17500000D02*
X4000000Y18000000D01*
X4500000Y2000000D02*
X4000000Y2500000D01*
X90500000Y48000000D02*
X91000000Y48500000D01*
X7000000Y10000000D02*
X4500000Y10000000D01*
X90500000Y38000000D02*
X88000000Y38000000D01*
X88000000Y40500000D02*
X90500000Y40500000D01*
X7000000Y45500000D02*
X4500000Y45500000D01*
D11*
X84633333Y23636405D02*
X84633333Y24436405D01*
X84633333Y24436405D02*
X84823809Y24436405D01*
X84823809Y24436405D02*
X84938095Y24398310D01*
X84938095Y24398310D02*
X85014285Y24322120D01*
X85014285Y24322120D02*
X85052380Y24245929D01*
X85052380Y24245929D02*
X85090476Y24093548D01*
X85090476Y24093548D02*
X85090476Y23979262D01*
X85090476Y23979262D02*
X85052380Y23826881D01*
X85052380Y23826881D02*
X85014285Y23750691D01*
X85014285Y23750691D02*
X84938095Y23674500D01*
X84938095Y23674500D02*
X84823809Y23636405D01*
X84823809Y23636405D02*
X84633333Y23636405D01*
X85890476Y23712596D02*
X85852380Y23674500D01*
X85852380Y23674500D02*
X85738095Y23636405D01*
X85738095Y23636405D02*
X85661904Y23636405D01*
X85661904Y23636405D02*
X85547618Y23674500D01*
X85547618Y23674500D02*
X85471428Y23750691D01*
X85471428Y23750691D02*
X85433333Y23826881D01*
X85433333Y23826881D02*
X85395237Y23979262D01*
X85395237Y23979262D02*
X85395237Y24093548D01*
X85395237Y24093548D02*
X85433333Y24245929D01*
X85433333Y24245929D02*
X85471428Y24322120D01*
X85471428Y24322120D02*
X85547618Y24398310D01*
X85547618Y24398310D02*
X85661904Y24436405D01*
X85661904Y24436405D02*
X85738095Y24436405D01*
X85738095Y24436405D02*
X85852380Y24398310D01*
X85852380Y24398310D02*
X85890476Y24360215D01*
X86652380Y23636405D02*
X86195237Y23636405D01*
X86423809Y23636405D02*
X86423809Y24436405D01*
X86423809Y24436405D02*
X86347618Y24322120D01*
X86347618Y24322120D02*
X86271428Y24245929D01*
X86271428Y24245929D02*
X86195237Y24207834D01*
X86995238Y23941167D02*
X87604762Y23941167D01*
X87300000Y23636405D02*
X87300000Y24245929D01*
X8109524Y42712596D02*
X8071428Y42674500D01*
X8071428Y42674500D02*
X7957143Y42636405D01*
X7957143Y42636405D02*
X7880952Y42636405D01*
X7880952Y42636405D02*
X7766666Y42674500D01*
X7766666Y42674500D02*
X7690476Y42750691D01*
X7690476Y42750691D02*
X7652381Y42826881D01*
X7652381Y42826881D02*
X7614285Y42979262D01*
X7614285Y42979262D02*
X7614285Y43093548D01*
X7614285Y43093548D02*
X7652381Y43245929D01*
X7652381Y43245929D02*
X7690476Y43322120D01*
X7690476Y43322120D02*
X7766666Y43398310D01*
X7766666Y43398310D02*
X7880952Y43436405D01*
X7880952Y43436405D02*
X7957143Y43436405D01*
X7957143Y43436405D02*
X8071428Y43398310D01*
X8071428Y43398310D02*
X8109524Y43360215D01*
X8414285Y42864977D02*
X8795238Y42864977D01*
X8338095Y42636405D02*
X8604762Y43436405D01*
X8604762Y43436405D02*
X8871428Y42636405D01*
X9138095Y42636405D02*
X9138095Y43436405D01*
X9138095Y43436405D02*
X9595238Y42636405D01*
X9595238Y42636405D02*
X9595238Y43436405D01*
X9938094Y43360215D02*
X9976190Y43398310D01*
X9976190Y43398310D02*
X10052380Y43436405D01*
X10052380Y43436405D02*
X10242856Y43436405D01*
X10242856Y43436405D02*
X10319047Y43398310D01*
X10319047Y43398310D02*
X10357142Y43360215D01*
X10357142Y43360215D02*
X10395237Y43284024D01*
X10395237Y43284024D02*
X10395237Y43207834D01*
X10395237Y43207834D02*
X10357142Y43093548D01*
X10357142Y43093548D02*
X9899999Y42636405D01*
X9899999Y42636405D02*
X10395237Y42636405D01*
X10738095Y42941167D02*
X11347619Y42941167D01*
X7652381Y14636405D02*
X7652381Y15436405D01*
X7652381Y15436405D02*
X7957143Y15436405D01*
X7957143Y15436405D02*
X8033333Y15398310D01*
X8033333Y15398310D02*
X8071428Y15360215D01*
X8071428Y15360215D02*
X8109524Y15284024D01*
X8109524Y15284024D02*
X8109524Y15169739D01*
X8109524Y15169739D02*
X8071428Y15093548D01*
X8071428Y15093548D02*
X8033333Y15055453D01*
X8033333Y15055453D02*
X7957143Y15017358D01*
X7957143Y15017358D02*
X7652381Y15017358D01*
X8452381Y14636405D02*
X8452381Y15436405D01*
X8452381Y15436405D02*
X8757143Y15436405D01*
X8757143Y15436405D02*
X8833333Y15398310D01*
X8833333Y15398310D02*
X8871428Y15360215D01*
X8871428Y15360215D02*
X8909524Y15284024D01*
X8909524Y15284024D02*
X8909524Y15169739D01*
X8909524Y15169739D02*
X8871428Y15093548D01*
X8871428Y15093548D02*
X8833333Y15055453D01*
X8833333Y15055453D02*
X8757143Y15017358D01*
X8757143Y15017358D02*
X8452381Y15017358D01*
X9214285Y14674500D02*
X9328571Y14636405D01*
X9328571Y14636405D02*
X9519047Y14636405D01*
X9519047Y14636405D02*
X9595238Y14674500D01*
X9595238Y14674500D02*
X9633333Y14712596D01*
X9633333Y14712596D02*
X9671428Y14788786D01*
X9671428Y14788786D02*
X9671428Y14864977D01*
X9671428Y14864977D02*
X9633333Y14941167D01*
X9633333Y14941167D02*
X9595238Y14979262D01*
X9595238Y14979262D02*
X9519047Y15017358D01*
X9519047Y15017358D02*
X9366666Y15055453D01*
X9366666Y15055453D02*
X9290476Y15093548D01*
X9290476Y15093548D02*
X9252381Y15131643D01*
X9252381Y15131643D02*
X9214285Y15207834D01*
X9214285Y15207834D02*
X9214285Y15284024D01*
X9214285Y15284024D02*
X9252381Y15360215D01*
X9252381Y15360215D02*
X9290476Y15398310D01*
X9290476Y15398310D02*
X9366666Y15436405D01*
X9366666Y15436405D02*
X9557143Y15436405D01*
X9557143Y15436405D02*
X9671428Y15398310D01*
X9976190Y15360215D02*
X10014286Y15398310D01*
X10014286Y15398310D02*
X10090476Y15436405D01*
X10090476Y15436405D02*
X10280952Y15436405D01*
X10280952Y15436405D02*
X10357143Y15398310D01*
X10357143Y15398310D02*
X10395238Y15360215D01*
X10395238Y15360215D02*
X10433333Y15284024D01*
X10433333Y15284024D02*
X10433333Y15207834D01*
X10433333Y15207834D02*
X10395238Y15093548D01*
X10395238Y15093548D02*
X9938095Y14636405D01*
X9938095Y14636405D02*
X10433333Y14636405D01*
X7614285Y18364977D02*
X7995238Y18364977D01*
X7538095Y18136405D02*
X7804762Y18936405D01*
X7804762Y18936405D02*
X8071428Y18136405D01*
X8338095Y18936405D02*
X8338095Y18288786D01*
X8338095Y18288786D02*
X8376190Y18212596D01*
X8376190Y18212596D02*
X8414285Y18174500D01*
X8414285Y18174500D02*
X8490476Y18136405D01*
X8490476Y18136405D02*
X8642857Y18136405D01*
X8642857Y18136405D02*
X8719047Y18174500D01*
X8719047Y18174500D02*
X8757142Y18212596D01*
X8757142Y18212596D02*
X8795238Y18288786D01*
X8795238Y18288786D02*
X8795238Y18936405D01*
X9099999Y18936405D02*
X9633333Y18136405D01*
X9633333Y18936405D02*
X9099999Y18136405D01*
X10357142Y18136405D02*
X9899999Y18136405D01*
X10128571Y18136405D02*
X10128571Y18936405D01*
X10128571Y18936405D02*
X10052380Y18822120D01*
X10052380Y18822120D02*
X9976190Y18745929D01*
X9976190Y18745929D02*
X9899999Y18707834D01*
X7652381Y51136405D02*
X7652381Y51936405D01*
X8452380Y51898310D02*
X8376190Y51936405D01*
X8376190Y51936405D02*
X8261904Y51936405D01*
X8261904Y51936405D02*
X8147618Y51898310D01*
X8147618Y51898310D02*
X8071428Y51822120D01*
X8071428Y51822120D02*
X8033333Y51745929D01*
X8033333Y51745929D02*
X7995237Y51593548D01*
X7995237Y51593548D02*
X7995237Y51479262D01*
X7995237Y51479262D02*
X8033333Y51326881D01*
X8033333Y51326881D02*
X8071428Y51250691D01*
X8071428Y51250691D02*
X8147618Y51174500D01*
X8147618Y51174500D02*
X8261904Y51136405D01*
X8261904Y51136405D02*
X8338095Y51136405D01*
X8338095Y51136405D02*
X8452380Y51174500D01*
X8452380Y51174500D02*
X8490476Y51212596D01*
X8490476Y51212596D02*
X8490476Y51479262D01*
X8490476Y51479262D02*
X8338095Y51479262D01*
X8833333Y51136405D02*
X8833333Y51936405D01*
X8833333Y51936405D02*
X9290476Y51136405D01*
X9290476Y51136405D02*
X9290476Y51936405D01*
X10090475Y51136405D02*
X9633332Y51136405D01*
X9861904Y51136405D02*
X9861904Y51936405D01*
X9861904Y51936405D02*
X9785713Y51822120D01*
X9785713Y51822120D02*
X9709523Y51745929D01*
X9709523Y51745929D02*
X9633332Y51707834D01*
X7652381Y36136405D02*
X7652381Y36936405D01*
X8109524Y36136405D02*
X7766666Y36593548D01*
X8109524Y36936405D02*
X7652381Y36479262D01*
X8452381Y36136405D02*
X8452381Y36936405D01*
X8452381Y36936405D02*
X8909524Y36136405D01*
X8909524Y36136405D02*
X8909524Y36936405D01*
X9442857Y36936405D02*
X9595238Y36936405D01*
X9595238Y36936405D02*
X9671428Y36898310D01*
X9671428Y36898310D02*
X9747619Y36822120D01*
X9747619Y36822120D02*
X9785714Y36669739D01*
X9785714Y36669739D02*
X9785714Y36403072D01*
X9785714Y36403072D02*
X9747619Y36250691D01*
X9747619Y36250691D02*
X9671428Y36174500D01*
X9671428Y36174500D02*
X9595238Y36136405D01*
X9595238Y36136405D02*
X9442857Y36136405D01*
X9442857Y36136405D02*
X9366666Y36174500D01*
X9366666Y36174500D02*
X9290476Y36250691D01*
X9290476Y36250691D02*
X9252380Y36403072D01*
X9252380Y36403072D02*
X9252380Y36669739D01*
X9252380Y36669739D02*
X9290476Y36822120D01*
X9290476Y36822120D02*
X9366666Y36898310D01*
X9366666Y36898310D02*
X9442857Y36936405D01*
X10585714Y36212596D02*
X10547618Y36174500D01*
X10547618Y36174500D02*
X10433333Y36136405D01*
X10433333Y36136405D02*
X10357142Y36136405D01*
X10357142Y36136405D02*
X10242856Y36174500D01*
X10242856Y36174500D02*
X10166666Y36250691D01*
X10166666Y36250691D02*
X10128571Y36326881D01*
X10128571Y36326881D02*
X10090475Y36479262D01*
X10090475Y36479262D02*
X10090475Y36593548D01*
X10090475Y36593548D02*
X10128571Y36745929D01*
X10128571Y36745929D02*
X10166666Y36822120D01*
X10166666Y36822120D02*
X10242856Y36898310D01*
X10242856Y36898310D02*
X10357142Y36936405D01*
X10357142Y36936405D02*
X10433333Y36936405D01*
X10433333Y36936405D02*
X10547618Y36898310D01*
X10547618Y36898310D02*
X10585714Y36860215D01*
X10928571Y36136405D02*
X10928571Y36936405D01*
X11385714Y36136405D02*
X11042856Y36593548D01*
X11385714Y36936405D02*
X10928571Y36479262D01*
X86195237Y43636405D02*
X85814285Y43636405D01*
X85814285Y43636405D02*
X85814285Y44436405D01*
X86423808Y43674500D02*
X86538094Y43636405D01*
X86538094Y43636405D02*
X86728570Y43636405D01*
X86728570Y43636405D02*
X86804761Y43674500D01*
X86804761Y43674500D02*
X86842856Y43712596D01*
X86842856Y43712596D02*
X86880951Y43788786D01*
X86880951Y43788786D02*
X86880951Y43864977D01*
X86880951Y43864977D02*
X86842856Y43941167D01*
X86842856Y43941167D02*
X86804761Y43979262D01*
X86804761Y43979262D02*
X86728570Y44017358D01*
X86728570Y44017358D02*
X86576189Y44055453D01*
X86576189Y44055453D02*
X86499999Y44093548D01*
X86499999Y44093548D02*
X86461904Y44131643D01*
X86461904Y44131643D02*
X86423808Y44207834D01*
X86423808Y44207834D02*
X86423808Y44284024D01*
X86423808Y44284024D02*
X86461904Y44360215D01*
X86461904Y44360215D02*
X86499999Y44398310D01*
X86499999Y44398310D02*
X86576189Y44436405D01*
X86576189Y44436405D02*
X86766666Y44436405D01*
X86766666Y44436405D02*
X86880951Y44398310D01*
X87185713Y44360215D02*
X87223809Y44398310D01*
X87223809Y44398310D02*
X87299999Y44436405D01*
X87299999Y44436405D02*
X87490475Y44436405D01*
X87490475Y44436405D02*
X87566666Y44398310D01*
X87566666Y44398310D02*
X87604761Y44360215D01*
X87604761Y44360215D02*
X87642856Y44284024D01*
X87642856Y44284024D02*
X87642856Y44207834D01*
X87642856Y44207834D02*
X87604761Y44093548D01*
X87604761Y44093548D02*
X87147618Y43636405D01*
X87147618Y43636405D02*
X87642856Y43636405D01*
X85395238Y45136405D02*
X85395238Y45936405D01*
X85776190Y45136405D02*
X85776190Y45936405D01*
X85776190Y45936405D02*
X86233333Y45136405D01*
X86233333Y45136405D02*
X86233333Y45936405D01*
X86842856Y45936405D02*
X86842856Y45364977D01*
X86842856Y45364977D02*
X86804761Y45250691D01*
X86804761Y45250691D02*
X86728570Y45174500D01*
X86728570Y45174500D02*
X86614285Y45136405D01*
X86614285Y45136405D02*
X86538094Y45136405D01*
X87604761Y45936405D02*
X87223809Y45936405D01*
X87223809Y45936405D02*
X87185713Y45555453D01*
X87185713Y45555453D02*
X87223809Y45593548D01*
X87223809Y45593548D02*
X87299999Y45631643D01*
X87299999Y45631643D02*
X87490475Y45631643D01*
X87490475Y45631643D02*
X87566666Y45593548D01*
X87566666Y45593548D02*
X87604761Y45555453D01*
X87604761Y45555453D02*
X87642856Y45479262D01*
X87642856Y45479262D02*
X87642856Y45288786D01*
X87642856Y45288786D02*
X87604761Y45212596D01*
X87604761Y45212596D02*
X87566666Y45174500D01*
X87566666Y45174500D02*
X87490475Y45136405D01*
X87490475Y45136405D02*
X87299999Y45136405D01*
X87299999Y45136405D02*
X87223809Y45174500D01*
X87223809Y45174500D02*
X87185713Y45212596D01*
X85357142Y38636405D02*
X84976190Y38636405D01*
X84976190Y38636405D02*
X84976190Y39436405D01*
X85585713Y38674500D02*
X85699999Y38636405D01*
X85699999Y38636405D02*
X85890475Y38636405D01*
X85890475Y38636405D02*
X85966666Y38674500D01*
X85966666Y38674500D02*
X86004761Y38712596D01*
X86004761Y38712596D02*
X86042856Y38788786D01*
X86042856Y38788786D02*
X86042856Y38864977D01*
X86042856Y38864977D02*
X86004761Y38941167D01*
X86004761Y38941167D02*
X85966666Y38979262D01*
X85966666Y38979262D02*
X85890475Y39017358D01*
X85890475Y39017358D02*
X85738094Y39055453D01*
X85738094Y39055453D02*
X85661904Y39093548D01*
X85661904Y39093548D02*
X85623809Y39131643D01*
X85623809Y39131643D02*
X85585713Y39207834D01*
X85585713Y39207834D02*
X85585713Y39284024D01*
X85585713Y39284024D02*
X85623809Y39360215D01*
X85623809Y39360215D02*
X85661904Y39398310D01*
X85661904Y39398310D02*
X85738094Y39436405D01*
X85738094Y39436405D02*
X85928571Y39436405D01*
X85928571Y39436405D02*
X86042856Y39398310D01*
X86385714Y38636405D02*
X86385714Y39436405D01*
X86385714Y39055453D02*
X86842857Y39055453D01*
X86842857Y38636405D02*
X86842857Y39436405D01*
X87642856Y38636405D02*
X87185713Y38636405D01*
X87414285Y38636405D02*
X87414285Y39436405D01*
X87414285Y39436405D02*
X87338094Y39322120D01*
X87338094Y39322120D02*
X87261904Y39245929D01*
X87261904Y39245929D02*
X87185713Y39207834D01*
X7919047Y31555453D02*
X8033333Y31517358D01*
X8033333Y31517358D02*
X8071428Y31479262D01*
X8071428Y31479262D02*
X8109524Y31403072D01*
X8109524Y31403072D02*
X8109524Y31288786D01*
X8109524Y31288786D02*
X8071428Y31212596D01*
X8071428Y31212596D02*
X8033333Y31174500D01*
X8033333Y31174500D02*
X7957143Y31136405D01*
X7957143Y31136405D02*
X7652381Y31136405D01*
X7652381Y31136405D02*
X7652381Y31936405D01*
X7652381Y31936405D02*
X7919047Y31936405D01*
X7919047Y31936405D02*
X7995238Y31898310D01*
X7995238Y31898310D02*
X8033333Y31860215D01*
X8033333Y31860215D02*
X8071428Y31784024D01*
X8071428Y31784024D02*
X8071428Y31707834D01*
X8071428Y31707834D02*
X8033333Y31631643D01*
X8033333Y31631643D02*
X7995238Y31593548D01*
X7995238Y31593548D02*
X7919047Y31555453D01*
X7919047Y31555453D02*
X7652381Y31555453D01*
X8338095Y31936405D02*
X8795238Y31936405D01*
X8566666Y31136405D02*
X8566666Y31936405D01*
X9061905Y31136405D02*
X9061905Y31936405D01*
X9061905Y31936405D02*
X9519048Y31136405D01*
X9519048Y31136405D02*
X9519048Y31936405D01*
X9861904Y31860215D02*
X9900000Y31898310D01*
X9900000Y31898310D02*
X9976190Y31936405D01*
X9976190Y31936405D02*
X10166666Y31936405D01*
X10166666Y31936405D02*
X10242857Y31898310D01*
X10242857Y31898310D02*
X10280952Y31860215D01*
X10280952Y31860215D02*
X10319047Y31784024D01*
X10319047Y31784024D02*
X10319047Y31707834D01*
X10319047Y31707834D02*
X10280952Y31593548D01*
X10280952Y31593548D02*
X9823809Y31136405D01*
X9823809Y31136405D02*
X10319047Y31136405D01*
X8109524Y45212596D02*
X8071428Y45174500D01*
X8071428Y45174500D02*
X7957143Y45136405D01*
X7957143Y45136405D02*
X7880952Y45136405D01*
X7880952Y45136405D02*
X7766666Y45174500D01*
X7766666Y45174500D02*
X7690476Y45250691D01*
X7690476Y45250691D02*
X7652381Y45326881D01*
X7652381Y45326881D02*
X7614285Y45479262D01*
X7614285Y45479262D02*
X7614285Y45593548D01*
X7614285Y45593548D02*
X7652381Y45745929D01*
X7652381Y45745929D02*
X7690476Y45822120D01*
X7690476Y45822120D02*
X7766666Y45898310D01*
X7766666Y45898310D02*
X7880952Y45936405D01*
X7880952Y45936405D02*
X7957143Y45936405D01*
X7957143Y45936405D02*
X8071428Y45898310D01*
X8071428Y45898310D02*
X8109524Y45860215D01*
X8414285Y45364977D02*
X8795238Y45364977D01*
X8338095Y45136405D02*
X8604762Y45936405D01*
X8604762Y45936405D02*
X8871428Y45136405D01*
X9138095Y45136405D02*
X9138095Y45936405D01*
X9138095Y45936405D02*
X9595238Y45136405D01*
X9595238Y45136405D02*
X9595238Y45936405D01*
X9938094Y45860215D02*
X9976190Y45898310D01*
X9976190Y45898310D02*
X10052380Y45936405D01*
X10052380Y45936405D02*
X10242856Y45936405D01*
X10242856Y45936405D02*
X10319047Y45898310D01*
X10319047Y45898310D02*
X10357142Y45860215D01*
X10357142Y45860215D02*
X10395237Y45784024D01*
X10395237Y45784024D02*
X10395237Y45707834D01*
X10395237Y45707834D02*
X10357142Y45593548D01*
X10357142Y45593548D02*
X9899999Y45136405D01*
X9899999Y45136405D02*
X10395237Y45136405D01*
X10738095Y45441167D02*
X11347619Y45441167D01*
X11042857Y45136405D02*
X11042857Y45745929D01*
X7652381Y10636405D02*
X7652381Y11436405D01*
X7652381Y11055453D02*
X8109524Y11055453D01*
X8109524Y10636405D02*
X8109524Y11436405D01*
X8452380Y10864977D02*
X8833333Y10864977D01*
X8376190Y10636405D02*
X8642857Y11436405D01*
X8642857Y11436405D02*
X8909523Y10636405D01*
X9557142Y10636405D02*
X9176190Y10636405D01*
X9176190Y10636405D02*
X9176190Y11436405D01*
X10204761Y10636405D02*
X9823809Y10636405D01*
X9823809Y10636405D02*
X9823809Y11436405D01*
X10433332Y11360215D02*
X10471428Y11398310D01*
X10471428Y11398310D02*
X10547618Y11436405D01*
X10547618Y11436405D02*
X10738094Y11436405D01*
X10738094Y11436405D02*
X10814285Y11398310D01*
X10814285Y11398310D02*
X10852380Y11360215D01*
X10852380Y11360215D02*
X10890475Y11284024D01*
X10890475Y11284024D02*
X10890475Y11207834D01*
X10890475Y11207834D02*
X10852380Y11093548D01*
X10852380Y11093548D02*
X10395237Y10636405D01*
X10395237Y10636405D02*
X10890475Y10636405D01*
X84633333Y15636405D02*
X84633333Y16436405D01*
X84633333Y16436405D02*
X84823809Y16436405D01*
X84823809Y16436405D02*
X84938095Y16398310D01*
X84938095Y16398310D02*
X85014285Y16322120D01*
X85014285Y16322120D02*
X85052380Y16245929D01*
X85052380Y16245929D02*
X85090476Y16093548D01*
X85090476Y16093548D02*
X85090476Y15979262D01*
X85090476Y15979262D02*
X85052380Y15826881D01*
X85052380Y15826881D02*
X85014285Y15750691D01*
X85014285Y15750691D02*
X84938095Y15674500D01*
X84938095Y15674500D02*
X84823809Y15636405D01*
X84823809Y15636405D02*
X84633333Y15636405D01*
X85890476Y15712596D02*
X85852380Y15674500D01*
X85852380Y15674500D02*
X85738095Y15636405D01*
X85738095Y15636405D02*
X85661904Y15636405D01*
X85661904Y15636405D02*
X85547618Y15674500D01*
X85547618Y15674500D02*
X85471428Y15750691D01*
X85471428Y15750691D02*
X85433333Y15826881D01*
X85433333Y15826881D02*
X85395237Y15979262D01*
X85395237Y15979262D02*
X85395237Y16093548D01*
X85395237Y16093548D02*
X85433333Y16245929D01*
X85433333Y16245929D02*
X85471428Y16322120D01*
X85471428Y16322120D02*
X85547618Y16398310D01*
X85547618Y16398310D02*
X85661904Y16436405D01*
X85661904Y16436405D02*
X85738095Y16436405D01*
X85738095Y16436405D02*
X85852380Y16398310D01*
X85852380Y16398310D02*
X85890476Y16360215D01*
X86195237Y16360215D02*
X86233333Y16398310D01*
X86233333Y16398310D02*
X86309523Y16436405D01*
X86309523Y16436405D02*
X86499999Y16436405D01*
X86499999Y16436405D02*
X86576190Y16398310D01*
X86576190Y16398310D02*
X86614285Y16360215D01*
X86614285Y16360215D02*
X86652380Y16284024D01*
X86652380Y16284024D02*
X86652380Y16207834D01*
X86652380Y16207834D02*
X86614285Y16093548D01*
X86614285Y16093548D02*
X86157142Y15636405D01*
X86157142Y15636405D02*
X86652380Y15636405D01*
X86995238Y15941167D02*
X87604762Y15941167D01*
X7652381Y38636405D02*
X7652381Y39436405D01*
X8452380Y39398310D02*
X8376190Y39436405D01*
X8376190Y39436405D02*
X8261904Y39436405D01*
X8261904Y39436405D02*
X8147618Y39398310D01*
X8147618Y39398310D02*
X8071428Y39322120D01*
X8071428Y39322120D02*
X8033333Y39245929D01*
X8033333Y39245929D02*
X7995237Y39093548D01*
X7995237Y39093548D02*
X7995237Y38979262D01*
X7995237Y38979262D02*
X8033333Y38826881D01*
X8033333Y38826881D02*
X8071428Y38750691D01*
X8071428Y38750691D02*
X8147618Y38674500D01*
X8147618Y38674500D02*
X8261904Y38636405D01*
X8261904Y38636405D02*
X8338095Y38636405D01*
X8338095Y38636405D02*
X8452380Y38674500D01*
X8452380Y38674500D02*
X8490476Y38712596D01*
X8490476Y38712596D02*
X8490476Y38979262D01*
X8490476Y38979262D02*
X8338095Y38979262D01*
X8833333Y38636405D02*
X8833333Y39436405D01*
X8833333Y39436405D02*
X9290476Y38636405D01*
X9290476Y38636405D02*
X9290476Y39436405D01*
X10014285Y39436405D02*
X9861904Y39436405D01*
X9861904Y39436405D02*
X9785713Y39398310D01*
X9785713Y39398310D02*
X9747618Y39360215D01*
X9747618Y39360215D02*
X9671428Y39245929D01*
X9671428Y39245929D02*
X9633332Y39093548D01*
X9633332Y39093548D02*
X9633332Y38788786D01*
X9633332Y38788786D02*
X9671428Y38712596D01*
X9671428Y38712596D02*
X9709523Y38674500D01*
X9709523Y38674500D02*
X9785713Y38636405D01*
X9785713Y38636405D02*
X9938094Y38636405D01*
X9938094Y38636405D02*
X10014285Y38674500D01*
X10014285Y38674500D02*
X10052380Y38712596D01*
X10052380Y38712596D02*
X10090475Y38788786D01*
X10090475Y38788786D02*
X10090475Y38979262D01*
X10090475Y38979262D02*
X10052380Y39055453D01*
X10052380Y39055453D02*
X10014285Y39093548D01*
X10014285Y39093548D02*
X9938094Y39131643D01*
X9938094Y39131643D02*
X9785713Y39131643D01*
X9785713Y39131643D02*
X9709523Y39093548D01*
X9709523Y39093548D02*
X9671428Y39055453D01*
X9671428Y39055453D02*
X9633332Y38979262D01*
X7614285Y13364977D02*
X7995238Y13364977D01*
X7538095Y13136405D02*
X7804762Y13936405D01*
X7804762Y13936405D02*
X8071428Y13136405D01*
X8338095Y13936405D02*
X8338095Y13288786D01*
X8338095Y13288786D02*
X8376190Y13212596D01*
X8376190Y13212596D02*
X8414285Y13174500D01*
X8414285Y13174500D02*
X8490476Y13136405D01*
X8490476Y13136405D02*
X8642857Y13136405D01*
X8642857Y13136405D02*
X8719047Y13174500D01*
X8719047Y13174500D02*
X8757142Y13212596D01*
X8757142Y13212596D02*
X8795238Y13288786D01*
X8795238Y13288786D02*
X8795238Y13936405D01*
X9099999Y13936405D02*
X9633333Y13136405D01*
X9633333Y13936405D02*
X9099999Y13136405D01*
X9861904Y13936405D02*
X10357142Y13936405D01*
X10357142Y13936405D02*
X10090476Y13631643D01*
X10090476Y13631643D02*
X10204761Y13631643D01*
X10204761Y13631643D02*
X10280952Y13593548D01*
X10280952Y13593548D02*
X10319047Y13555453D01*
X10319047Y13555453D02*
X10357142Y13479262D01*
X10357142Y13479262D02*
X10357142Y13288786D01*
X10357142Y13288786D02*
X10319047Y13212596D01*
X10319047Y13212596D02*
X10280952Y13174500D01*
X10280952Y13174500D02*
X10204761Y13136405D01*
X10204761Y13136405D02*
X9976190Y13136405D01*
X9976190Y13136405D02*
X9899999Y13174500D01*
X9899999Y13174500D02*
X9861904Y13212596D01*
X85395238Y46136405D02*
X85395238Y46936405D01*
X85776190Y46136405D02*
X85776190Y46936405D01*
X85776190Y46936405D02*
X86233333Y46136405D01*
X86233333Y46136405D02*
X86233333Y46936405D01*
X86842856Y46936405D02*
X86842856Y46364977D01*
X86842856Y46364977D02*
X86804761Y46250691D01*
X86804761Y46250691D02*
X86728570Y46174500D01*
X86728570Y46174500D02*
X86614285Y46136405D01*
X86614285Y46136405D02*
X86538094Y46136405D01*
X87566666Y46936405D02*
X87414285Y46936405D01*
X87414285Y46936405D02*
X87338094Y46898310D01*
X87338094Y46898310D02*
X87299999Y46860215D01*
X87299999Y46860215D02*
X87223809Y46745929D01*
X87223809Y46745929D02*
X87185713Y46593548D01*
X87185713Y46593548D02*
X87185713Y46288786D01*
X87185713Y46288786D02*
X87223809Y46212596D01*
X87223809Y46212596D02*
X87261904Y46174500D01*
X87261904Y46174500D02*
X87338094Y46136405D01*
X87338094Y46136405D02*
X87490475Y46136405D01*
X87490475Y46136405D02*
X87566666Y46174500D01*
X87566666Y46174500D02*
X87604761Y46212596D01*
X87604761Y46212596D02*
X87642856Y46288786D01*
X87642856Y46288786D02*
X87642856Y46479262D01*
X87642856Y46479262D02*
X87604761Y46555453D01*
X87604761Y46555453D02*
X87566666Y46593548D01*
X87566666Y46593548D02*
X87490475Y46631643D01*
X87490475Y46631643D02*
X87338094Y46631643D01*
X87338094Y46631643D02*
X87261904Y46593548D01*
X87261904Y46593548D02*
X87223809Y46555453D01*
X87223809Y46555453D02*
X87185713Y46479262D01*
X86195237Y41136405D02*
X85814285Y41136405D01*
X85814285Y41136405D02*
X85814285Y41936405D01*
X86423808Y41174500D02*
X86538094Y41136405D01*
X86538094Y41136405D02*
X86728570Y41136405D01*
X86728570Y41136405D02*
X86804761Y41174500D01*
X86804761Y41174500D02*
X86842856Y41212596D01*
X86842856Y41212596D02*
X86880951Y41288786D01*
X86880951Y41288786D02*
X86880951Y41364977D01*
X86880951Y41364977D02*
X86842856Y41441167D01*
X86842856Y41441167D02*
X86804761Y41479262D01*
X86804761Y41479262D02*
X86728570Y41517358D01*
X86728570Y41517358D02*
X86576189Y41555453D01*
X86576189Y41555453D02*
X86499999Y41593548D01*
X86499999Y41593548D02*
X86461904Y41631643D01*
X86461904Y41631643D02*
X86423808Y41707834D01*
X86423808Y41707834D02*
X86423808Y41784024D01*
X86423808Y41784024D02*
X86461904Y41860215D01*
X86461904Y41860215D02*
X86499999Y41898310D01*
X86499999Y41898310D02*
X86576189Y41936405D01*
X86576189Y41936405D02*
X86766666Y41936405D01*
X86766666Y41936405D02*
X86880951Y41898310D01*
X87566666Y41669739D02*
X87566666Y41136405D01*
X87376190Y41974500D02*
X87185713Y41403072D01*
X87185713Y41403072D02*
X87680952Y41403072D01*
X85395238Y50136405D02*
X85395238Y50936405D01*
X85776190Y50136405D02*
X85776190Y50936405D01*
X85776190Y50936405D02*
X86233333Y50136405D01*
X86233333Y50136405D02*
X86233333Y50936405D01*
X86842856Y50936405D02*
X86842856Y50364977D01*
X86842856Y50364977D02*
X86804761Y50250691D01*
X86804761Y50250691D02*
X86728570Y50174500D01*
X86728570Y50174500D02*
X86614285Y50136405D01*
X86614285Y50136405D02*
X86538094Y50136405D01*
X87642856Y50136405D02*
X87185713Y50136405D01*
X87414285Y50136405D02*
X87414285Y50936405D01*
X87414285Y50936405D02*
X87338094Y50822120D01*
X87338094Y50822120D02*
X87261904Y50745929D01*
X87261904Y50745929D02*
X87185713Y50707834D01*
X7652381Y12136405D02*
X7652381Y12936405D01*
X7652381Y12555453D02*
X8109524Y12555453D01*
X8109524Y12136405D02*
X8109524Y12936405D01*
X8452380Y12364977D02*
X8833333Y12364977D01*
X8376190Y12136405D02*
X8642857Y12936405D01*
X8642857Y12936405D02*
X8909523Y12136405D01*
X9557142Y12136405D02*
X9176190Y12136405D01*
X9176190Y12136405D02*
X9176190Y12936405D01*
X10204761Y12136405D02*
X9823809Y12136405D01*
X9823809Y12136405D02*
X9823809Y12936405D01*
X10890475Y12136405D02*
X10433332Y12136405D01*
X10661904Y12136405D02*
X10661904Y12936405D01*
X10661904Y12936405D02*
X10585713Y12822120D01*
X10585713Y12822120D02*
X10509523Y12745929D01*
X10509523Y12745929D02*
X10433332Y12707834D01*
X85966666Y26898310D02*
X85890476Y26936405D01*
X85890476Y26936405D02*
X85776190Y26936405D01*
X85776190Y26936405D02*
X85661904Y26898310D01*
X85661904Y26898310D02*
X85585714Y26822120D01*
X85585714Y26822120D02*
X85547619Y26745929D01*
X85547619Y26745929D02*
X85509523Y26593548D01*
X85509523Y26593548D02*
X85509523Y26479262D01*
X85509523Y26479262D02*
X85547619Y26326881D01*
X85547619Y26326881D02*
X85585714Y26250691D01*
X85585714Y26250691D02*
X85661904Y26174500D01*
X85661904Y26174500D02*
X85776190Y26136405D01*
X85776190Y26136405D02*
X85852381Y26136405D01*
X85852381Y26136405D02*
X85966666Y26174500D01*
X85966666Y26174500D02*
X86004762Y26212596D01*
X86004762Y26212596D02*
X86004762Y26479262D01*
X86004762Y26479262D02*
X85852381Y26479262D01*
X86347619Y26136405D02*
X86347619Y26936405D01*
X86347619Y26936405D02*
X86804762Y26136405D01*
X86804762Y26136405D02*
X86804762Y26936405D01*
X87185714Y26136405D02*
X87185714Y26936405D01*
X87185714Y26936405D02*
X87376190Y26936405D01*
X87376190Y26936405D02*
X87490476Y26898310D01*
X87490476Y26898310D02*
X87566666Y26822120D01*
X87566666Y26822120D02*
X87604761Y26745929D01*
X87604761Y26745929D02*
X87642857Y26593548D01*
X87642857Y26593548D02*
X87642857Y26479262D01*
X87642857Y26479262D02*
X87604761Y26326881D01*
X87604761Y26326881D02*
X87566666Y26250691D01*
X87566666Y26250691D02*
X87490476Y26174500D01*
X87490476Y26174500D02*
X87376190Y26136405D01*
X87376190Y26136405D02*
X87185714Y26136405D01*
X85395238Y51136405D02*
X85395238Y51936405D01*
X85776190Y51136405D02*
X85776190Y51936405D01*
X85776190Y51936405D02*
X86233333Y51136405D01*
X86233333Y51136405D02*
X86233333Y51936405D01*
X86842856Y51936405D02*
X86842856Y51364977D01*
X86842856Y51364977D02*
X86804761Y51250691D01*
X86804761Y51250691D02*
X86728570Y51174500D01*
X86728570Y51174500D02*
X86614285Y51136405D01*
X86614285Y51136405D02*
X86538094Y51136405D01*
X87185713Y51860215D02*
X87223809Y51898310D01*
X87223809Y51898310D02*
X87299999Y51936405D01*
X87299999Y51936405D02*
X87490475Y51936405D01*
X87490475Y51936405D02*
X87566666Y51898310D01*
X87566666Y51898310D02*
X87604761Y51860215D01*
X87604761Y51860215D02*
X87642856Y51784024D01*
X87642856Y51784024D02*
X87642856Y51707834D01*
X87642856Y51707834D02*
X87604761Y51593548D01*
X87604761Y51593548D02*
X87147618Y51136405D01*
X87147618Y51136405D02*
X87642856Y51136405D01*
X86195237Y42636405D02*
X85814285Y42636405D01*
X85814285Y42636405D02*
X85814285Y43436405D01*
X86423808Y42674500D02*
X86538094Y42636405D01*
X86538094Y42636405D02*
X86728570Y42636405D01*
X86728570Y42636405D02*
X86804761Y42674500D01*
X86804761Y42674500D02*
X86842856Y42712596D01*
X86842856Y42712596D02*
X86880951Y42788786D01*
X86880951Y42788786D02*
X86880951Y42864977D01*
X86880951Y42864977D02*
X86842856Y42941167D01*
X86842856Y42941167D02*
X86804761Y42979262D01*
X86804761Y42979262D02*
X86728570Y43017358D01*
X86728570Y43017358D02*
X86576189Y43055453D01*
X86576189Y43055453D02*
X86499999Y43093548D01*
X86499999Y43093548D02*
X86461904Y43131643D01*
X86461904Y43131643D02*
X86423808Y43207834D01*
X86423808Y43207834D02*
X86423808Y43284024D01*
X86423808Y43284024D02*
X86461904Y43360215D01*
X86461904Y43360215D02*
X86499999Y43398310D01*
X86499999Y43398310D02*
X86576189Y43436405D01*
X86576189Y43436405D02*
X86766666Y43436405D01*
X86766666Y43436405D02*
X86880951Y43398310D01*
X87642856Y42636405D02*
X87185713Y42636405D01*
X87414285Y42636405D02*
X87414285Y43436405D01*
X87414285Y43436405D02*
X87338094Y43322120D01*
X87338094Y43322120D02*
X87261904Y43245929D01*
X87261904Y43245929D02*
X87185713Y43207834D01*
X7652381Y48636405D02*
X7652381Y49436405D01*
X8452380Y49398310D02*
X8376190Y49436405D01*
X8376190Y49436405D02*
X8261904Y49436405D01*
X8261904Y49436405D02*
X8147618Y49398310D01*
X8147618Y49398310D02*
X8071428Y49322120D01*
X8071428Y49322120D02*
X8033333Y49245929D01*
X8033333Y49245929D02*
X7995237Y49093548D01*
X7995237Y49093548D02*
X7995237Y48979262D01*
X7995237Y48979262D02*
X8033333Y48826881D01*
X8033333Y48826881D02*
X8071428Y48750691D01*
X8071428Y48750691D02*
X8147618Y48674500D01*
X8147618Y48674500D02*
X8261904Y48636405D01*
X8261904Y48636405D02*
X8338095Y48636405D01*
X8338095Y48636405D02*
X8452380Y48674500D01*
X8452380Y48674500D02*
X8490476Y48712596D01*
X8490476Y48712596D02*
X8490476Y48979262D01*
X8490476Y48979262D02*
X8338095Y48979262D01*
X8833333Y48636405D02*
X8833333Y49436405D01*
X8833333Y49436405D02*
X9290476Y48636405D01*
X9290476Y48636405D02*
X9290476Y49436405D01*
X9633332Y49360215D02*
X9671428Y49398310D01*
X9671428Y49398310D02*
X9747618Y49436405D01*
X9747618Y49436405D02*
X9938094Y49436405D01*
X9938094Y49436405D02*
X10014285Y49398310D01*
X10014285Y49398310D02*
X10052380Y49360215D01*
X10052380Y49360215D02*
X10090475Y49284024D01*
X10090475Y49284024D02*
X10090475Y49207834D01*
X10090475Y49207834D02*
X10052380Y49093548D01*
X10052380Y49093548D02*
X9595237Y48636405D01*
X9595237Y48636405D02*
X10090475Y48636405D01*
X7652381Y25136405D02*
X7652381Y25936405D01*
X7995237Y25364977D02*
X8376190Y25364977D01*
X7919047Y25136405D02*
X8185714Y25936405D01*
X8185714Y25936405D02*
X8452380Y25136405D01*
X8604761Y25936405D02*
X9061904Y25936405D01*
X8833332Y25136405D02*
X8833332Y25936405D01*
X8071428Y40898310D02*
X7995238Y40936405D01*
X7995238Y40936405D02*
X7880952Y40936405D01*
X7880952Y40936405D02*
X7766666Y40898310D01*
X7766666Y40898310D02*
X7690476Y40822120D01*
X7690476Y40822120D02*
X7652381Y40745929D01*
X7652381Y40745929D02*
X7614285Y40593548D01*
X7614285Y40593548D02*
X7614285Y40479262D01*
X7614285Y40479262D02*
X7652381Y40326881D01*
X7652381Y40326881D02*
X7690476Y40250691D01*
X7690476Y40250691D02*
X7766666Y40174500D01*
X7766666Y40174500D02*
X7880952Y40136405D01*
X7880952Y40136405D02*
X7957143Y40136405D01*
X7957143Y40136405D02*
X8071428Y40174500D01*
X8071428Y40174500D02*
X8109524Y40212596D01*
X8109524Y40212596D02*
X8109524Y40479262D01*
X8109524Y40479262D02*
X7957143Y40479262D01*
X8452381Y40136405D02*
X8452381Y40936405D01*
X8452381Y40936405D02*
X8909524Y40136405D01*
X8909524Y40136405D02*
X8909524Y40936405D01*
X9290476Y40136405D02*
X9290476Y40936405D01*
X9290476Y40936405D02*
X9480952Y40936405D01*
X9480952Y40936405D02*
X9595238Y40898310D01*
X9595238Y40898310D02*
X9671428Y40822120D01*
X9671428Y40822120D02*
X9709523Y40745929D01*
X9709523Y40745929D02*
X9747619Y40593548D01*
X9747619Y40593548D02*
X9747619Y40479262D01*
X9747619Y40479262D02*
X9709523Y40326881D01*
X9709523Y40326881D02*
X9671428Y40250691D01*
X9671428Y40250691D02*
X9595238Y40174500D01*
X9595238Y40174500D02*
X9480952Y40136405D01*
X9480952Y40136405D02*
X9290476Y40136405D01*
X8109524Y26212596D02*
X8071428Y26174500D01*
X8071428Y26174500D02*
X7957143Y26136405D01*
X7957143Y26136405D02*
X7880952Y26136405D01*
X7880952Y26136405D02*
X7766666Y26174500D01*
X7766666Y26174500D02*
X7690476Y26250691D01*
X7690476Y26250691D02*
X7652381Y26326881D01*
X7652381Y26326881D02*
X7614285Y26479262D01*
X7614285Y26479262D02*
X7614285Y26593548D01*
X7614285Y26593548D02*
X7652381Y26745929D01*
X7652381Y26745929D02*
X7690476Y26822120D01*
X7690476Y26822120D02*
X7766666Y26898310D01*
X7766666Y26898310D02*
X7880952Y26936405D01*
X7880952Y26936405D02*
X7957143Y26936405D01*
X7957143Y26936405D02*
X8071428Y26898310D01*
X8071428Y26898310D02*
X8109524Y26860215D01*
X8833333Y26136405D02*
X8452381Y26136405D01*
X8452381Y26136405D02*
X8452381Y26936405D01*
X8985714Y26936405D02*
X9442857Y26936405D01*
X9214285Y26136405D02*
X9214285Y26936405D01*
X7652381Y30441167D02*
X8261905Y30441167D01*
X7957143Y30136405D02*
X7957143Y30745929D01*
X9023809Y30936405D02*
X8642857Y30936405D01*
X8642857Y30936405D02*
X8604761Y30555453D01*
X8604761Y30555453D02*
X8642857Y30593548D01*
X8642857Y30593548D02*
X8719047Y30631643D01*
X8719047Y30631643D02*
X8909523Y30631643D01*
X8909523Y30631643D02*
X8985714Y30593548D01*
X8985714Y30593548D02*
X9023809Y30555453D01*
X9023809Y30555453D02*
X9061904Y30479262D01*
X9061904Y30479262D02*
X9061904Y30288786D01*
X9061904Y30288786D02*
X9023809Y30212596D01*
X9023809Y30212596D02*
X8985714Y30174500D01*
X8985714Y30174500D02*
X8909523Y30136405D01*
X8909523Y30136405D02*
X8719047Y30136405D01*
X8719047Y30136405D02*
X8642857Y30174500D01*
X8642857Y30174500D02*
X8604761Y30212596D01*
X9290476Y30936405D02*
X9557143Y30136405D01*
X9557143Y30136405D02*
X9823809Y30936405D01*
X7652381Y23636405D02*
X7652381Y24436405D01*
X7652381Y24436405D02*
X7957143Y24436405D01*
X7957143Y24436405D02*
X8033333Y24398310D01*
X8033333Y24398310D02*
X8071428Y24360215D01*
X8071428Y24360215D02*
X8109524Y24284024D01*
X8109524Y24284024D02*
X8109524Y24169739D01*
X8109524Y24169739D02*
X8071428Y24093548D01*
X8071428Y24093548D02*
X8033333Y24055453D01*
X8033333Y24055453D02*
X7957143Y24017358D01*
X7957143Y24017358D02*
X7652381Y24017358D01*
X8452381Y23636405D02*
X8452381Y24436405D01*
X8452381Y24436405D02*
X8757143Y24436405D01*
X8757143Y24436405D02*
X8833333Y24398310D01*
X8833333Y24398310D02*
X8871428Y24360215D01*
X8871428Y24360215D02*
X8909524Y24284024D01*
X8909524Y24284024D02*
X8909524Y24169739D01*
X8909524Y24169739D02*
X8871428Y24093548D01*
X8871428Y24093548D02*
X8833333Y24055453D01*
X8833333Y24055453D02*
X8757143Y24017358D01*
X8757143Y24017358D02*
X8452381Y24017358D01*
X9214285Y23674500D02*
X9328571Y23636405D01*
X9328571Y23636405D02*
X9519047Y23636405D01*
X9519047Y23636405D02*
X9595238Y23674500D01*
X9595238Y23674500D02*
X9633333Y23712596D01*
X9633333Y23712596D02*
X9671428Y23788786D01*
X9671428Y23788786D02*
X9671428Y23864977D01*
X9671428Y23864977D02*
X9633333Y23941167D01*
X9633333Y23941167D02*
X9595238Y23979262D01*
X9595238Y23979262D02*
X9519047Y24017358D01*
X9519047Y24017358D02*
X9366666Y24055453D01*
X9366666Y24055453D02*
X9290476Y24093548D01*
X9290476Y24093548D02*
X9252381Y24131643D01*
X9252381Y24131643D02*
X9214285Y24207834D01*
X9214285Y24207834D02*
X9214285Y24284024D01*
X9214285Y24284024D02*
X9252381Y24360215D01*
X9252381Y24360215D02*
X9290476Y24398310D01*
X9290476Y24398310D02*
X9366666Y24436405D01*
X9366666Y24436405D02*
X9557143Y24436405D01*
X9557143Y24436405D02*
X9671428Y24398310D01*
X10433333Y23636405D02*
X9976190Y23636405D01*
X10204762Y23636405D02*
X10204762Y24436405D01*
X10204762Y24436405D02*
X10128571Y24322120D01*
X10128571Y24322120D02*
X10052381Y24245929D01*
X10052381Y24245929D02*
X9976190Y24207834D01*
D12*
G36*
X17871528Y28669952D02*
G01*
X17871528Y27806309D01*
X17682698Y27887582D01*
X17496497Y27956644D01*
X17292687Y28019060D01*
X17212072Y28039805D01*
X17014617Y28081536D01*
X16805350Y28109589D01*
X16604396Y28118940D01*
X16406782Y28110594D01*
X16207654Y28077724D01*
X16043614Y28013427D01*
X15902588Y27868508D01*
X15862875Y27686141D01*
X15920596Y27491526D01*
X15984996Y27426267D01*
X16170998Y27335099D01*
X16370026Y27279709D01*
X16428541Y27267021D01*
X16879902Y27176162D01*
X17083954Y27129632D01*
X17303315Y27064603D01*
X17494855Y26989544D01*
X17683155Y26889299D01*
X17851988Y26758019D01*
X17978506Y26602985D01*
X18068876Y26418277D01*
X18123098Y26203893D01*
X18140889Y25991963D01*
X18141172Y25959833D01*
X18131345Y25756114D01*
X18093609Y25534006D01*
X18027572Y25336284D01*
X17933233Y25162948D01*
X17787401Y24991544D01*
X17738660Y24948668D01*
X17572777Y24836114D01*
X17377012Y24746847D01*
X17151366Y24680867D01*
X16940502Y24643672D01*
X16708886Y24622649D01*
X16508653Y24617474D01*
X16289075Y24623193D01*
X16093375Y24637878D01*
X15897187Y24661600D01*
X15725122Y24689770D01*
X15528750Y24730742D01*
X15332379Y24780384D01*
X15136008Y24838697D01*
X14939637Y24905681D01*
X14939637Y25805472D01*
X15134359Y25703256D01*
X15325785Y25614474D01*
X15513913Y25539125D01*
X15698743Y25477209D01*
X15903286Y25424315D01*
X16103656Y25388732D01*
X16299853Y25370460D01*
X16407048Y25367788D01*
X16607365Y25379237D01*
X16805934Y25423201D01*
X16936566Y25485025D01*
X17075052Y25628151D01*
X17121214Y25821103D01*
X17081646Y26013582D01*
X16996161Y26123964D01*
X16824400Y26218861D01*
X16629133Y26282176D01*
X16497906Y26314474D01*
X16088555Y26405332D01*
X15869355Y26460252D01*
X15673373Y26526095D01*
X15474072Y26616716D01*
X15306375Y26722203D01*
X15187787Y26824453D01*
X15063407Y26981012D01*
X14974563Y27162485D01*
X14921257Y27368870D01*
X14903766Y27569893D01*
X14903489Y27600168D01*
X14917399Y27819551D01*
X14959130Y28019014D01*
X15042979Y28226542D01*
X15164695Y28406956D01*
X15299162Y28540014D01*
X15459733Y28651904D01*
X15644689Y28740645D01*
X15854032Y28806235D01*
X16047113Y28843210D01*
X16257128Y28864109D01*
X16437334Y28869254D01*
X16650417Y28864388D01*
X16867125Y28849791D01*
X17065262Y28828333D01*
X17131960Y28819428D01*
X17335026Y28787460D01*
X17541956Y28747609D01*
X17752750Y28699876D01*
X17871528Y28669952D01*
G37*
G36*
X18560293Y28806728D02*
G01*
X22341172Y28806728D01*
X22341172Y27993887D01*
X20981228Y27993887D01*
X20981228Y24680000D01*
X19923168Y24680000D01*
X19923168Y27993887D01*
X18560293Y27993887D01*
X18560293Y28806728D01*
G37*
G36*
X26245150Y24680000D02*
G01*
X25181228Y24680000D01*
X24923307Y25430315D01*
X23269295Y25430315D01*
X23008443Y24680000D01*
X21944521Y24680000D01*
X22496954Y26180629D01*
X23533077Y26180629D01*
X24656594Y26180629D01*
X24095812Y27832687D01*
X23533077Y26180629D01*
X22496954Y26180629D01*
X23463712Y28806728D01*
X24724982Y28806728D01*
X26245150Y24680000D01*
G37*
G36*
X28561747Y28802637D02*
G01*
X28798935Y28786017D01*
X29013081Y28756612D01*
X29204187Y28714423D01*
X29403100Y28646920D01*
X29593230Y28544899D01*
X29742836Y28415677D01*
X29868819Y28231014D01*
X29939685Y28037076D01*
X29973806Y27812939D01*
X29977180Y27707635D01*
X29960556Y27510039D01*
X29904503Y27318705D01*
X29836496Y27191794D01*
X29702023Y27036968D01*
X29540686Y26926395D01*
X29430076Y26876232D01*
X29628104Y26798151D01*
X29795983Y26687249D01*
X29933713Y26543528D01*
X29957641Y26510845D01*
X30056044Y26332319D01*
X30118002Y26130131D01*
X30142602Y25927933D01*
X30144242Y25856274D01*
X30130126Y25644172D01*
X30087776Y25453365D01*
X30002685Y25257671D01*
X29879166Y25090962D01*
X29742707Y24971138D01*
X29547454Y24857697D01*
X29348243Y24782638D01*
X29119632Y24728050D01*
X28906664Y24698197D01*
X28673278Y24682559D01*
X28523447Y24680000D01*
X26767829Y24680000D01*
X26767829Y25367788D01*
X27825889Y25367788D01*
X28446266Y25367788D01*
X28647084Y25384412D01*
X28835894Y25446923D01*
X28925959Y25508472D01*
X29041664Y25672621D01*
X29084641Y25865586D01*
X29087159Y25934432D01*
X29060716Y26138398D01*
X28964488Y26316443D01*
X28926936Y26353552D01*
X28742008Y26453830D01*
X28542752Y26489849D01*
X28446266Y26493259D01*
X27825889Y26493259D01*
X27825889Y25367788D01*
X26767829Y25367788D01*
X26767829Y27181047D01*
X27825889Y27181047D01*
X28411095Y27181047D01*
X28606749Y27203674D01*
X28781982Y27291988D01*
X28790160Y27299261D01*
X28894436Y27468899D01*
X28919120Y27649994D01*
X28886880Y27851494D01*
X28790160Y27998772D01*
X28606749Y28095939D01*
X28411095Y28118940D01*
X27825889Y28118940D01*
X27825889Y27181047D01*
X26767829Y27181047D01*
X26767829Y28806728D01*
X28355408Y28806728D01*
X28561747Y28802637D01*
G37*
G36*
X31035240Y28806728D02*
G01*
X32093300Y28806728D01*
X32093300Y24680000D01*
X31035240Y24680000D01*
X31035240Y28806728D01*
G37*
G36*
X31197418Y29869673D02*
G01*
X31949685Y29869673D01*
X31949685Y29181885D01*
X31197418Y29181885D01*
X31197418Y29869673D01*
G37*
G36*
X33118143Y28806728D02*
G01*
X34176203Y28806728D01*
X34176203Y25492841D01*
X36033426Y25492841D01*
X36033426Y24680000D01*
X33118143Y24680000D01*
X33118143Y28806728D01*
G37*
G36*
X39977826Y28804636D02*
G01*
X40188974Y28798362D01*
X40385223Y28787906D01*
X40609583Y28768953D01*
X40810663Y28743465D01*
X41021231Y28704253D01*
X41142986Y28672883D01*
X41336803Y28605349D01*
X41518185Y28519864D01*
X41687132Y28416428D01*
X41843643Y28295039D01*
X41927494Y28217614D01*
X42062316Y28072961D01*
X42191803Y27897235D01*
X42297797Y27707753D01*
X42355408Y27573790D01*
X42416957Y27385479D01*
X42460921Y27184955D01*
X42487299Y26972220D01*
X42495954Y26776058D01*
X42496092Y26747272D01*
X42489360Y26547778D01*
X42465180Y26331577D01*
X42423414Y26127955D01*
X42364063Y25936911D01*
X42355408Y25913915D01*
X42265076Y25714791D01*
X42151251Y25529576D01*
X42013933Y25358272D01*
X41927494Y25269114D01*
X41777094Y25137467D01*
X41613978Y25023772D01*
X41438146Y24928029D01*
X41249598Y24850238D01*
X41136147Y24813846D01*
X40912290Y24761693D01*
X40685213Y24727186D01*
X40471162Y24705619D01*
X40234547Y24690588D01*
X40029009Y24683268D01*
X39809030Y24680131D01*
X39751779Y24680000D01*
X38636078Y24680000D01*
X38636078Y25492841D01*
X39694138Y25492841D01*
X40073203Y25492841D01*
X40305684Y25504141D01*
X40516595Y25538041D01*
X40705937Y25594541D01*
X40899573Y25689022D01*
X41063852Y25814264D01*
X41197088Y25968772D01*
X41297600Y26151048D01*
X41365387Y26361094D01*
X41397443Y26563236D01*
X41405792Y26747272D01*
X41393805Y26965648D01*
X41357844Y27163553D01*
X41285589Y27368570D01*
X41180703Y27545725D01*
X41064829Y27675395D01*
X40901172Y27799495D01*
X40707688Y27893114D01*
X40518106Y27949099D01*
X40306611Y27982690D01*
X40073203Y27993887D01*
X39694138Y27993887D01*
X39694138Y25492841D01*
X38636078Y25492841D01*
X38636078Y28806728D01*
X39751779Y28806728D01*
X39977826Y28804636D01*
G37*
G36*
X47093719Y24680000D02*
G01*
X46029797Y24680000D01*
X45771877Y25430315D01*
X44117864Y25430315D01*
X43857013Y24680000D01*
X42793091Y24680000D01*
X43345524Y26180629D01*
X44381646Y26180629D01*
X45505163Y26180629D01*
X44944382Y27832687D01*
X44381646Y26180629D01*
X43345524Y26180629D01*
X44312281Y28806728D01*
X45573551Y28806728D01*
X47093719Y24680000D01*
G37*
G36*
X46505582Y28806728D02*
G01*
X47662316Y28806728D01*
X48596301Y27336386D01*
X49530286Y28806728D01*
X50689951Y28806728D01*
X49126796Y26419010D01*
X49126796Y24680000D01*
X48068736Y24680000D01*
X48068736Y26419010D01*
X46505582Y28806728D01*
G37*
G36*
X50640125Y28806728D02*
G01*
X54421004Y28806728D01*
X54421004Y27993887D01*
X53061060Y27993887D01*
X53061060Y24680000D01*
X52003000Y24680000D01*
X52003000Y27993887D01*
X50640125Y27993887D01*
X50640125Y28806728D01*
G37*
G36*
X57062124Y28860415D02*
G01*
X57289392Y28833900D01*
X57503227Y28789707D01*
X57703628Y28727837D01*
X57890596Y28648290D01*
X58064131Y28551066D01*
X58224232Y28436165D01*
X58370900Y28303587D01*
X58502333Y28155454D01*
X58616242Y27993887D01*
X58712626Y27818887D01*
X58791486Y27630454D01*
X58852821Y27428587D01*
X58896632Y27213287D01*
X58922919Y26984554D01*
X58931681Y26742387D01*
X58922919Y26500678D01*
X58896632Y26272342D01*
X58852821Y26057378D01*
X58791486Y25855786D01*
X58712626Y25667566D01*
X58616242Y25492719D01*
X58502333Y25331244D01*
X58370900Y25183141D01*
X58224232Y25050563D01*
X58064131Y24935662D01*
X57890596Y24838438D01*
X57703628Y24758891D01*
X57503227Y24697021D01*
X57289392Y24652828D01*
X57062124Y24626313D01*
X56821423Y24617474D01*
X56581378Y24626313D01*
X56354614Y24652828D01*
X56141130Y24697021D01*
X55940928Y24758891D01*
X55754006Y24838438D01*
X55580364Y24935662D01*
X55420003Y25050563D01*
X55272923Y25183141D01*
X55141261Y25331244D01*
X55027154Y25492719D01*
X54930602Y25667566D01*
X54851605Y25855786D01*
X54790162Y26057378D01*
X54746275Y26272342D01*
X54719942Y26500678D01*
X54711165Y26742387D01*
X55804396Y26742387D01*
X55810907Y26545552D01*
X55835912Y26328115D01*
X55879669Y26131148D01*
X55954422Y25927227D01*
X56054700Y25751168D01*
X56071109Y25728291D01*
X56218021Y25570571D01*
X56392044Y25457914D01*
X56593178Y25390320D01*
X56791410Y25368140D01*
X56821423Y25367788D01*
X57023381Y25385039D01*
X57228545Y25447000D01*
X57406354Y25554024D01*
X57556808Y25706111D01*
X57573691Y25728291D01*
X57677615Y25900369D01*
X57756015Y26100311D01*
X57802898Y26293866D01*
X57831028Y26507891D01*
X57840404Y26742387D01*
X57833893Y26939761D01*
X57808888Y27157656D01*
X57765131Y27354875D01*
X57690378Y27558830D01*
X57590100Y27734642D01*
X57573691Y27757460D01*
X57426657Y27915608D01*
X57252267Y28028570D01*
X57050523Y28096347D01*
X56851557Y28118587D01*
X56821423Y28118940D01*
X56620226Y28101642D01*
X56415703Y28039513D01*
X56238291Y27932199D01*
X56087990Y27779700D01*
X56071109Y27757460D01*
X55967185Y27585669D01*
X55888786Y27385734D01*
X55841902Y27191962D01*
X55813773Y26977513D01*
X55804396Y26742387D01*
X54711165Y26742387D01*
X54719942Y26984554D01*
X54746275Y27213287D01*
X54790162Y27428587D01*
X54851605Y27630454D01*
X54930602Y27818887D01*
X55027154Y27993887D01*
X55141261Y28155454D01*
X55272923Y28303587D01*
X55420003Y28436165D01*
X55580364Y28551066D01*
X55754006Y28648290D01*
X55940928Y28727837D01*
X56141130Y28789707D01*
X56354614Y28833900D01*
X56581378Y28860415D01*
X56821423Y28869254D01*
X57062124Y28860415D01*
G37*
G36*
X59707397Y28806728D02*
G01*
X60888555Y28806728D01*
X62380390Y25976442D01*
X62380390Y28806728D01*
X63383740Y28806728D01*
X63383740Y24680000D01*
X62202581Y24680000D01*
X60709769Y27510287D01*
X60709769Y24680000D01*
X59707397Y24680000D01*
X59707397Y28806728D01*
G37*
G36*
X68204117Y24680000D02*
G01*
X67140195Y24680000D01*
X66882274Y25430315D01*
X65228262Y25430315D01*
X64967411Y24680000D01*
X63903489Y24680000D01*
X64455922Y26180629D01*
X65492044Y26180629D01*
X66615561Y26180629D01*
X66054780Y27832687D01*
X65492044Y26180629D01*
X64455922Y26180629D01*
X65422679Y28806728D01*
X66683949Y28806728D01*
X68204117Y24680000D01*
G37*
D11*
X85395238Y34436405D02*
X85661905Y33636405D01*
X85661905Y33636405D02*
X85928571Y34436405D01*
X86652381Y33636405D02*
X86385714Y34017358D01*
X86195238Y33636405D02*
X86195238Y34436405D01*
X86195238Y34436405D02*
X86500000Y34436405D01*
X86500000Y34436405D02*
X86576190Y34398310D01*
X86576190Y34398310D02*
X86614285Y34360215D01*
X86614285Y34360215D02*
X86652381Y34284024D01*
X86652381Y34284024D02*
X86652381Y34169739D01*
X86652381Y34169739D02*
X86614285Y34093548D01*
X86614285Y34093548D02*
X86576190Y34055453D01*
X86576190Y34055453D02*
X86500000Y34017358D01*
X86500000Y34017358D02*
X86195238Y34017358D01*
X86995238Y33941167D02*
X87604762Y33941167D01*
X7652381Y46136405D02*
X7652381Y46936405D01*
X8452380Y46898310D02*
X8376190Y46936405D01*
X8376190Y46936405D02*
X8261904Y46936405D01*
X8261904Y46936405D02*
X8147618Y46898310D01*
X8147618Y46898310D02*
X8071428Y46822120D01*
X8071428Y46822120D02*
X8033333Y46745929D01*
X8033333Y46745929D02*
X7995237Y46593548D01*
X7995237Y46593548D02*
X7995237Y46479262D01*
X7995237Y46479262D02*
X8033333Y46326881D01*
X8033333Y46326881D02*
X8071428Y46250691D01*
X8071428Y46250691D02*
X8147618Y46174500D01*
X8147618Y46174500D02*
X8261904Y46136405D01*
X8261904Y46136405D02*
X8338095Y46136405D01*
X8338095Y46136405D02*
X8452380Y46174500D01*
X8452380Y46174500D02*
X8490476Y46212596D01*
X8490476Y46212596D02*
X8490476Y46479262D01*
X8490476Y46479262D02*
X8338095Y46479262D01*
X8833333Y46136405D02*
X8833333Y46936405D01*
X8833333Y46936405D02*
X9290476Y46136405D01*
X9290476Y46136405D02*
X9290476Y46936405D01*
X9595237Y46936405D02*
X10090475Y46936405D01*
X10090475Y46936405D02*
X9823809Y46631643D01*
X9823809Y46631643D02*
X9938094Y46631643D01*
X9938094Y46631643D02*
X10014285Y46593548D01*
X10014285Y46593548D02*
X10052380Y46555453D01*
X10052380Y46555453D02*
X10090475Y46479262D01*
X10090475Y46479262D02*
X10090475Y46288786D01*
X10090475Y46288786D02*
X10052380Y46212596D01*
X10052380Y46212596D02*
X10014285Y46174500D01*
X10014285Y46174500D02*
X9938094Y46136405D01*
X9938094Y46136405D02*
X9709523Y46136405D01*
X9709523Y46136405D02*
X9633332Y46174500D01*
X9633332Y46174500D02*
X9595237Y46212596D01*
X7652381Y20136405D02*
X7652381Y20936405D01*
X7652381Y20936405D02*
X7919047Y20364977D01*
X7919047Y20364977D02*
X8185714Y20936405D01*
X8185714Y20936405D02*
X8185714Y20136405D01*
X8528571Y20364977D02*
X8909524Y20364977D01*
X8452381Y20136405D02*
X8719048Y20936405D01*
X8719048Y20936405D02*
X8985714Y20136405D01*
X9252381Y20136405D02*
X9252381Y20936405D01*
X9252381Y20936405D02*
X9557143Y20936405D01*
X9557143Y20936405D02*
X9633333Y20898310D01*
X9633333Y20898310D02*
X9671428Y20860215D01*
X9671428Y20860215D02*
X9709524Y20784024D01*
X9709524Y20784024D02*
X9709524Y20669739D01*
X9709524Y20669739D02*
X9671428Y20593548D01*
X9671428Y20593548D02*
X9633333Y20555453D01*
X9633333Y20555453D02*
X9557143Y20517358D01*
X9557143Y20517358D02*
X9252381Y20517358D01*
X7538095Y16436405D02*
X7995238Y16436405D01*
X7766666Y15636405D02*
X7766666Y16436405D01*
X8261905Y15636405D02*
X8261905Y16436405D01*
X8261905Y16436405D02*
X8566667Y16436405D01*
X8566667Y16436405D02*
X8642857Y16398310D01*
X8642857Y16398310D02*
X8680952Y16360215D01*
X8680952Y16360215D02*
X8719048Y16284024D01*
X8719048Y16284024D02*
X8719048Y16169739D01*
X8719048Y16169739D02*
X8680952Y16093548D01*
X8680952Y16093548D02*
X8642857Y16055453D01*
X8642857Y16055453D02*
X8566667Y16017358D01*
X8566667Y16017358D02*
X8261905Y16017358D01*
X9023809Y15674500D02*
X9138095Y15636405D01*
X9138095Y15636405D02*
X9328571Y15636405D01*
X9328571Y15636405D02*
X9404762Y15674500D01*
X9404762Y15674500D02*
X9442857Y15712596D01*
X9442857Y15712596D02*
X9480952Y15788786D01*
X9480952Y15788786D02*
X9480952Y15864977D01*
X9480952Y15864977D02*
X9442857Y15941167D01*
X9442857Y15941167D02*
X9404762Y15979262D01*
X9404762Y15979262D02*
X9328571Y16017358D01*
X9328571Y16017358D02*
X9176190Y16055453D01*
X9176190Y16055453D02*
X9100000Y16093548D01*
X9100000Y16093548D02*
X9061905Y16131643D01*
X9061905Y16131643D02*
X9023809Y16207834D01*
X9023809Y16207834D02*
X9023809Y16284024D01*
X9023809Y16284024D02*
X9061905Y16360215D01*
X9061905Y16360215D02*
X9100000Y16398310D01*
X9100000Y16398310D02*
X9176190Y16436405D01*
X9176190Y16436405D02*
X9366667Y16436405D01*
X9366667Y16436405D02*
X9480952Y16398310D01*
X9785714Y16360215D02*
X9823810Y16398310D01*
X9823810Y16398310D02*
X9900000Y16436405D01*
X9900000Y16436405D02*
X10090476Y16436405D01*
X10090476Y16436405D02*
X10166667Y16398310D01*
X10166667Y16398310D02*
X10204762Y16360215D01*
X10204762Y16360215D02*
X10242857Y16284024D01*
X10242857Y16284024D02*
X10242857Y16207834D01*
X10242857Y16207834D02*
X10204762Y16093548D01*
X10204762Y16093548D02*
X9747619Y15636405D01*
X9747619Y15636405D02*
X10242857Y15636405D01*
X7919047Y34055453D02*
X8033333Y34017358D01*
X8033333Y34017358D02*
X8071428Y33979262D01*
X8071428Y33979262D02*
X8109524Y33903072D01*
X8109524Y33903072D02*
X8109524Y33788786D01*
X8109524Y33788786D02*
X8071428Y33712596D01*
X8071428Y33712596D02*
X8033333Y33674500D01*
X8033333Y33674500D02*
X7957143Y33636405D01*
X7957143Y33636405D02*
X7652381Y33636405D01*
X7652381Y33636405D02*
X7652381Y34436405D01*
X7652381Y34436405D02*
X7919047Y34436405D01*
X7919047Y34436405D02*
X7995238Y34398310D01*
X7995238Y34398310D02*
X8033333Y34360215D01*
X8033333Y34360215D02*
X8071428Y34284024D01*
X8071428Y34284024D02*
X8071428Y34207834D01*
X8071428Y34207834D02*
X8033333Y34131643D01*
X8033333Y34131643D02*
X7995238Y34093548D01*
X7995238Y34093548D02*
X7919047Y34055453D01*
X7919047Y34055453D02*
X7652381Y34055453D01*
X8338095Y34436405D02*
X8795238Y34436405D01*
X8566666Y33636405D02*
X8566666Y34436405D01*
X9061905Y33636405D02*
X9061905Y34436405D01*
X9061905Y34436405D02*
X9519048Y33636405D01*
X9519048Y33636405D02*
X9519048Y34436405D01*
X10319047Y33636405D02*
X9861904Y33636405D01*
X10090476Y33636405D02*
X10090476Y34436405D01*
X10090476Y34436405D02*
X10014285Y34322120D01*
X10014285Y34322120D02*
X9938095Y34245929D01*
X9938095Y34245929D02*
X9861904Y34207834D01*
X7614285Y17364977D02*
X7995238Y17364977D01*
X7538095Y17136405D02*
X7804762Y17936405D01*
X7804762Y17936405D02*
X8071428Y17136405D01*
X8338095Y17936405D02*
X8338095Y17288786D01*
X8338095Y17288786D02*
X8376190Y17212596D01*
X8376190Y17212596D02*
X8414285Y17174500D01*
X8414285Y17174500D02*
X8490476Y17136405D01*
X8490476Y17136405D02*
X8642857Y17136405D01*
X8642857Y17136405D02*
X8719047Y17174500D01*
X8719047Y17174500D02*
X8757142Y17212596D01*
X8757142Y17212596D02*
X8795238Y17288786D01*
X8795238Y17288786D02*
X8795238Y17936405D01*
X9099999Y17936405D02*
X9633333Y17136405D01*
X9633333Y17936405D02*
X9099999Y17136405D01*
X9899999Y17860215D02*
X9938095Y17898310D01*
X9938095Y17898310D02*
X10014285Y17936405D01*
X10014285Y17936405D02*
X10204761Y17936405D01*
X10204761Y17936405D02*
X10280952Y17898310D01*
X10280952Y17898310D02*
X10319047Y17860215D01*
X10319047Y17860215D02*
X10357142Y17784024D01*
X10357142Y17784024D02*
X10357142Y17707834D01*
X10357142Y17707834D02*
X10319047Y17593548D01*
X10319047Y17593548D02*
X9861904Y17136405D01*
X9861904Y17136405D02*
X10357142Y17136405D01*
X85966666Y29398310D02*
X85890476Y29436405D01*
X85890476Y29436405D02*
X85776190Y29436405D01*
X85776190Y29436405D02*
X85661904Y29398310D01*
X85661904Y29398310D02*
X85585714Y29322120D01*
X85585714Y29322120D02*
X85547619Y29245929D01*
X85547619Y29245929D02*
X85509523Y29093548D01*
X85509523Y29093548D02*
X85509523Y28979262D01*
X85509523Y28979262D02*
X85547619Y28826881D01*
X85547619Y28826881D02*
X85585714Y28750691D01*
X85585714Y28750691D02*
X85661904Y28674500D01*
X85661904Y28674500D02*
X85776190Y28636405D01*
X85776190Y28636405D02*
X85852381Y28636405D01*
X85852381Y28636405D02*
X85966666Y28674500D01*
X85966666Y28674500D02*
X86004762Y28712596D01*
X86004762Y28712596D02*
X86004762Y28979262D01*
X86004762Y28979262D02*
X85852381Y28979262D01*
X86347619Y28636405D02*
X86347619Y29436405D01*
X86347619Y29436405D02*
X86804762Y28636405D01*
X86804762Y28636405D02*
X86804762Y29436405D01*
X87185714Y28636405D02*
X87185714Y29436405D01*
X87185714Y29436405D02*
X87376190Y29436405D01*
X87376190Y29436405D02*
X87490476Y29398310D01*
X87490476Y29398310D02*
X87566666Y29322120D01*
X87566666Y29322120D02*
X87604761Y29245929D01*
X87604761Y29245929D02*
X87642857Y29093548D01*
X87642857Y29093548D02*
X87642857Y28979262D01*
X87642857Y28979262D02*
X87604761Y28826881D01*
X87604761Y28826881D02*
X87566666Y28750691D01*
X87566666Y28750691D02*
X87490476Y28674500D01*
X87490476Y28674500D02*
X87376190Y28636405D01*
X87376190Y28636405D02*
X87185714Y28636405D01*
X7652381Y50555453D02*
X7919047Y50555453D01*
X8033333Y50136405D02*
X7652381Y50136405D01*
X7652381Y50136405D02*
X7652381Y50936405D01*
X7652381Y50936405D02*
X8033333Y50936405D01*
X8795238Y50898310D02*
X8719048Y50936405D01*
X8719048Y50936405D02*
X8604762Y50936405D01*
X8604762Y50936405D02*
X8490476Y50898310D01*
X8490476Y50898310D02*
X8414286Y50822120D01*
X8414286Y50822120D02*
X8376191Y50745929D01*
X8376191Y50745929D02*
X8338095Y50593548D01*
X8338095Y50593548D02*
X8338095Y50479262D01*
X8338095Y50479262D02*
X8376191Y50326881D01*
X8376191Y50326881D02*
X8414286Y50250691D01*
X8414286Y50250691D02*
X8490476Y50174500D01*
X8490476Y50174500D02*
X8604762Y50136405D01*
X8604762Y50136405D02*
X8680953Y50136405D01*
X8680953Y50136405D02*
X8795238Y50174500D01*
X8795238Y50174500D02*
X8833334Y50212596D01*
X8833334Y50212596D02*
X8833334Y50479262D01*
X8833334Y50479262D02*
X8680953Y50479262D01*
X9061905Y50936405D02*
X9519048Y50936405D01*
X9290476Y50136405D02*
X9290476Y50936405D01*
X9785715Y50441167D02*
X10395239Y50441167D01*
X85395238Y48636405D02*
X85395238Y49436405D01*
X85776190Y48636405D02*
X85776190Y49436405D01*
X85776190Y49436405D02*
X86233333Y48636405D01*
X86233333Y48636405D02*
X86233333Y49436405D01*
X86842856Y49436405D02*
X86842856Y48864977D01*
X86842856Y48864977D02*
X86804761Y48750691D01*
X86804761Y48750691D02*
X86728570Y48674500D01*
X86728570Y48674500D02*
X86614285Y48636405D01*
X86614285Y48636405D02*
X86538094Y48636405D01*
X87566666Y49169739D02*
X87566666Y48636405D01*
X87376190Y49474500D02*
X87185713Y48903072D01*
X87185713Y48903072D02*
X87680952Y48903072D01*
X7919047Y21555453D02*
X7652381Y21555453D01*
X7652381Y21136405D02*
X7652381Y21936405D01*
X7652381Y21936405D02*
X8033333Y21936405D01*
X8719047Y21136405D02*
X8338095Y21136405D01*
X8338095Y21136405D02*
X8338095Y21936405D01*
X8985714Y21555453D02*
X9252380Y21555453D01*
X9366666Y21136405D02*
X8985714Y21136405D01*
X8985714Y21136405D02*
X8985714Y21936405D01*
X8985714Y21936405D02*
X9366666Y21936405D01*
X9633333Y21936405D02*
X10166667Y21136405D01*
X10166667Y21936405D02*
X9633333Y21136405D01*
X11347619Y21555453D02*
X11080953Y21555453D01*
X11080953Y21136405D02*
X11080953Y21936405D01*
X11080953Y21936405D02*
X11461905Y21936405D01*
X11766667Y21936405D02*
X11766667Y21288786D01*
X11766667Y21288786D02*
X11804762Y21212596D01*
X11804762Y21212596D02*
X11842857Y21174500D01*
X11842857Y21174500D02*
X11919048Y21136405D01*
X11919048Y21136405D02*
X12071429Y21136405D01*
X12071429Y21136405D02*
X12147619Y21174500D01*
X12147619Y21174500D02*
X12185714Y21212596D01*
X12185714Y21212596D02*
X12223810Y21288786D01*
X12223810Y21288786D02*
X12223810Y21936405D01*
X12604762Y21555453D02*
X12871428Y21555453D01*
X12985714Y21136405D02*
X12604762Y21136405D01*
X12604762Y21136405D02*
X12604762Y21936405D01*
X12604762Y21936405D02*
X12985714Y21936405D01*
X13709524Y21136405D02*
X13328572Y21136405D01*
X13328572Y21136405D02*
X13328572Y21936405D01*
X7652381Y43636405D02*
X7652381Y44436405D01*
X8452380Y44398310D02*
X8376190Y44436405D01*
X8376190Y44436405D02*
X8261904Y44436405D01*
X8261904Y44436405D02*
X8147618Y44398310D01*
X8147618Y44398310D02*
X8071428Y44322120D01*
X8071428Y44322120D02*
X8033333Y44245929D01*
X8033333Y44245929D02*
X7995237Y44093548D01*
X7995237Y44093548D02*
X7995237Y43979262D01*
X7995237Y43979262D02*
X8033333Y43826881D01*
X8033333Y43826881D02*
X8071428Y43750691D01*
X8071428Y43750691D02*
X8147618Y43674500D01*
X8147618Y43674500D02*
X8261904Y43636405D01*
X8261904Y43636405D02*
X8338095Y43636405D01*
X8338095Y43636405D02*
X8452380Y43674500D01*
X8452380Y43674500D02*
X8490476Y43712596D01*
X8490476Y43712596D02*
X8490476Y43979262D01*
X8490476Y43979262D02*
X8338095Y43979262D01*
X8833333Y43636405D02*
X8833333Y44436405D01*
X8833333Y44436405D02*
X9290476Y43636405D01*
X9290476Y43636405D02*
X9290476Y44436405D01*
X10014285Y44169739D02*
X10014285Y43636405D01*
X9823809Y44474500D02*
X9633332Y43903072D01*
X9633332Y43903072D02*
X10128571Y43903072D01*
X8109524Y32712596D02*
X8071428Y32674500D01*
X8071428Y32674500D02*
X7957143Y32636405D01*
X7957143Y32636405D02*
X7880952Y32636405D01*
X7880952Y32636405D02*
X7766666Y32674500D01*
X7766666Y32674500D02*
X7690476Y32750691D01*
X7690476Y32750691D02*
X7652381Y32826881D01*
X7652381Y32826881D02*
X7614285Y32979262D01*
X7614285Y32979262D02*
X7614285Y33093548D01*
X7614285Y33093548D02*
X7652381Y33245929D01*
X7652381Y33245929D02*
X7690476Y33322120D01*
X7690476Y33322120D02*
X7766666Y33398310D01*
X7766666Y33398310D02*
X7880952Y33436405D01*
X7880952Y33436405D02*
X7957143Y33436405D01*
X7957143Y33436405D02*
X8071428Y33398310D01*
X8071428Y33398310D02*
X8109524Y33360215D01*
X8414285Y32864977D02*
X8795238Y32864977D01*
X8338095Y32636405D02*
X8604762Y33436405D01*
X8604762Y33436405D02*
X8871428Y32636405D01*
X9138095Y32636405D02*
X9138095Y33436405D01*
X9138095Y33436405D02*
X9595238Y32636405D01*
X9595238Y32636405D02*
X9595238Y33436405D01*
X10395237Y32636405D02*
X9938094Y32636405D01*
X10166666Y32636405D02*
X10166666Y33436405D01*
X10166666Y33436405D02*
X10090475Y33322120D01*
X10090475Y33322120D02*
X10014285Y33245929D01*
X10014285Y33245929D02*
X9938094Y33207834D01*
X10738095Y32941167D02*
X11347619Y32941167D01*
X11042857Y32636405D02*
X11042857Y33245929D01*
X7652381Y48055453D02*
X7919047Y48055453D01*
X8033333Y47636405D02*
X7652381Y47636405D01*
X7652381Y47636405D02*
X7652381Y48436405D01*
X7652381Y48436405D02*
X8033333Y48436405D01*
X8795238Y48398310D02*
X8719048Y48436405D01*
X8719048Y48436405D02*
X8604762Y48436405D01*
X8604762Y48436405D02*
X8490476Y48398310D01*
X8490476Y48398310D02*
X8414286Y48322120D01*
X8414286Y48322120D02*
X8376191Y48245929D01*
X8376191Y48245929D02*
X8338095Y48093548D01*
X8338095Y48093548D02*
X8338095Y47979262D01*
X8338095Y47979262D02*
X8376191Y47826881D01*
X8376191Y47826881D02*
X8414286Y47750691D01*
X8414286Y47750691D02*
X8490476Y47674500D01*
X8490476Y47674500D02*
X8604762Y47636405D01*
X8604762Y47636405D02*
X8680953Y47636405D01*
X8680953Y47636405D02*
X8795238Y47674500D01*
X8795238Y47674500D02*
X8833334Y47712596D01*
X8833334Y47712596D02*
X8833334Y47979262D01*
X8833334Y47979262D02*
X8680953Y47979262D01*
X9061905Y48436405D02*
X9519048Y48436405D01*
X9290476Y47636405D02*
X9290476Y48436405D01*
X9785715Y47941167D02*
X10395239Y47941167D01*
X10090477Y47636405D02*
X10090477Y48245929D01*
X84633333Y18136405D02*
X84633333Y18936405D01*
X84633333Y18936405D02*
X84823809Y18936405D01*
X84823809Y18936405D02*
X84938095Y18898310D01*
X84938095Y18898310D02*
X85014285Y18822120D01*
X85014285Y18822120D02*
X85052380Y18745929D01*
X85052380Y18745929D02*
X85090476Y18593548D01*
X85090476Y18593548D02*
X85090476Y18479262D01*
X85090476Y18479262D02*
X85052380Y18326881D01*
X85052380Y18326881D02*
X85014285Y18250691D01*
X85014285Y18250691D02*
X84938095Y18174500D01*
X84938095Y18174500D02*
X84823809Y18136405D01*
X84823809Y18136405D02*
X84633333Y18136405D01*
X85890476Y18212596D02*
X85852380Y18174500D01*
X85852380Y18174500D02*
X85738095Y18136405D01*
X85738095Y18136405D02*
X85661904Y18136405D01*
X85661904Y18136405D02*
X85547618Y18174500D01*
X85547618Y18174500D02*
X85471428Y18250691D01*
X85471428Y18250691D02*
X85433333Y18326881D01*
X85433333Y18326881D02*
X85395237Y18479262D01*
X85395237Y18479262D02*
X85395237Y18593548D01*
X85395237Y18593548D02*
X85433333Y18745929D01*
X85433333Y18745929D02*
X85471428Y18822120D01*
X85471428Y18822120D02*
X85547618Y18898310D01*
X85547618Y18898310D02*
X85661904Y18936405D01*
X85661904Y18936405D02*
X85738095Y18936405D01*
X85738095Y18936405D02*
X85852380Y18898310D01*
X85852380Y18898310D02*
X85890476Y18860215D01*
X86195237Y18860215D02*
X86233333Y18898310D01*
X86233333Y18898310D02*
X86309523Y18936405D01*
X86309523Y18936405D02*
X86499999Y18936405D01*
X86499999Y18936405D02*
X86576190Y18898310D01*
X86576190Y18898310D02*
X86614285Y18860215D01*
X86614285Y18860215D02*
X86652380Y18784024D01*
X86652380Y18784024D02*
X86652380Y18707834D01*
X86652380Y18707834D02*
X86614285Y18593548D01*
X86614285Y18593548D02*
X86157142Y18136405D01*
X86157142Y18136405D02*
X86652380Y18136405D01*
X86995238Y18441167D02*
X87604762Y18441167D01*
X87300000Y18136405D02*
X87300000Y18745929D01*
D12*
G36*
X30527355Y22806728D02*
G01*
X31591277Y22806728D01*
X32678646Y19760531D01*
X33764061Y22806728D01*
X34827983Y22806728D01*
X33307815Y18680000D01*
X32046545Y18680000D01*
X30527355Y22806728D01*
G37*
G36*
X35493300Y19430315D02*
G01*
X36427285Y19430315D01*
X36427285Y22056414D01*
X35468876Y21868835D01*
X35468876Y22619149D01*
X36422400Y22806728D01*
X37427704Y22806728D01*
X37427704Y19430315D01*
X38361688Y19430315D01*
X38361688Y18680000D01*
X35493300Y18680000D01*
X35493300Y19430315D01*
G37*
D11*
X81890475Y3174500D02*
X82004761Y3136405D01*
X82004761Y3136405D02*
X82195237Y3136405D01*
X82195237Y3136405D02*
X82271428Y3174500D01*
X82271428Y3174500D02*
X82309523Y3212596D01*
X82309523Y3212596D02*
X82347618Y3288786D01*
X82347618Y3288786D02*
X82347618Y3364977D01*
X82347618Y3364977D02*
X82309523Y3441167D01*
X82309523Y3441167D02*
X82271428Y3479262D01*
X82271428Y3479262D02*
X82195237Y3517358D01*
X82195237Y3517358D02*
X82042856Y3555453D01*
X82042856Y3555453D02*
X81966666Y3593548D01*
X81966666Y3593548D02*
X81928571Y3631643D01*
X81928571Y3631643D02*
X81890475Y3707834D01*
X81890475Y3707834D02*
X81890475Y3784024D01*
X81890475Y3784024D02*
X81928571Y3860215D01*
X81928571Y3860215D02*
X81966666Y3898310D01*
X81966666Y3898310D02*
X82042856Y3936405D01*
X82042856Y3936405D02*
X82233333Y3936405D01*
X82233333Y3936405D02*
X82347618Y3898310D01*
X82652380Y3364977D02*
X83033333Y3364977D01*
X82576190Y3136405D02*
X82842857Y3936405D01*
X82842857Y3936405D02*
X83109523Y3136405D01*
X83642856Y3555453D02*
X83757142Y3517358D01*
X83757142Y3517358D02*
X83795237Y3479262D01*
X83795237Y3479262D02*
X83833333Y3403072D01*
X83833333Y3403072D02*
X83833333Y3288786D01*
X83833333Y3288786D02*
X83795237Y3212596D01*
X83795237Y3212596D02*
X83757142Y3174500D01*
X83757142Y3174500D02*
X83680952Y3136405D01*
X83680952Y3136405D02*
X83376190Y3136405D01*
X83376190Y3136405D02*
X83376190Y3936405D01*
X83376190Y3936405D02*
X83642856Y3936405D01*
X83642856Y3936405D02*
X83719047Y3898310D01*
X83719047Y3898310D02*
X83757142Y3860215D01*
X83757142Y3860215D02*
X83795237Y3784024D01*
X83795237Y3784024D02*
X83795237Y3707834D01*
X83795237Y3707834D02*
X83757142Y3631643D01*
X83757142Y3631643D02*
X83719047Y3593548D01*
X83719047Y3593548D02*
X83642856Y3555453D01*
X83642856Y3555453D02*
X83376190Y3555453D01*
X84176190Y3136405D02*
X84176190Y3936405D01*
X84176190Y4203072D02*
X84138094Y4164977D01*
X84138094Y4164977D02*
X84176190Y4126881D01*
X84176190Y4126881D02*
X84214285Y4164977D01*
X84214285Y4164977D02*
X84176190Y4203072D01*
X84176190Y4203072D02*
X84176190Y4126881D01*
X84442856Y3936405D02*
X84899999Y3936405D01*
X84671427Y3136405D02*
X84671427Y3936405D01*
X86195237Y3136405D02*
X85738094Y3136405D01*
X85966666Y3136405D02*
X85966666Y3936405D01*
X85966666Y3936405D02*
X85890475Y3822120D01*
X85890475Y3822120D02*
X85814285Y3745929D01*
X85814285Y3745929D02*
X85738094Y3707834D01*
X86499999Y3860215D02*
X86538095Y3898310D01*
X86538095Y3898310D02*
X86614285Y3936405D01*
X86614285Y3936405D02*
X86804761Y3936405D01*
X86804761Y3936405D02*
X86880952Y3898310D01*
X86880952Y3898310D02*
X86919047Y3860215D01*
X86919047Y3860215D02*
X86957142Y3784024D01*
X86957142Y3784024D02*
X86957142Y3707834D01*
X86957142Y3707834D02*
X86919047Y3593548D01*
X86919047Y3593548D02*
X86461904Y3136405D01*
X86461904Y3136405D02*
X86957142Y3136405D01*
X87185714Y3936405D02*
X87452381Y3136405D01*
X87452381Y3136405D02*
X87719047Y3936405D01*
X8109524Y35212596D02*
X8071428Y35174500D01*
X8071428Y35174500D02*
X7957143Y35136405D01*
X7957143Y35136405D02*
X7880952Y35136405D01*
X7880952Y35136405D02*
X7766666Y35174500D01*
X7766666Y35174500D02*
X7690476Y35250691D01*
X7690476Y35250691D02*
X7652381Y35326881D01*
X7652381Y35326881D02*
X7614285Y35479262D01*
X7614285Y35479262D02*
X7614285Y35593548D01*
X7614285Y35593548D02*
X7652381Y35745929D01*
X7652381Y35745929D02*
X7690476Y35822120D01*
X7690476Y35822120D02*
X7766666Y35898310D01*
X7766666Y35898310D02*
X7880952Y35936405D01*
X7880952Y35936405D02*
X7957143Y35936405D01*
X7957143Y35936405D02*
X8071428Y35898310D01*
X8071428Y35898310D02*
X8109524Y35860215D01*
X8414285Y35364977D02*
X8795238Y35364977D01*
X8338095Y35136405D02*
X8604762Y35936405D01*
X8604762Y35936405D02*
X8871428Y35136405D01*
X9138095Y35136405D02*
X9138095Y35936405D01*
X9138095Y35936405D02*
X9595238Y35136405D01*
X9595238Y35136405D02*
X9595238Y35936405D01*
X10395237Y35136405D02*
X9938094Y35136405D01*
X10166666Y35136405D02*
X10166666Y35936405D01*
X10166666Y35936405D02*
X10090475Y35822120D01*
X10090475Y35822120D02*
X10014285Y35745929D01*
X10014285Y35745929D02*
X9938094Y35707834D01*
X10738095Y35441167D02*
X11347619Y35441167D01*
X85395238Y36936405D02*
X85661905Y36136405D01*
X85661905Y36136405D02*
X85928571Y36936405D01*
X86652381Y36136405D02*
X86385714Y36517358D01*
X86195238Y36136405D02*
X86195238Y36936405D01*
X86195238Y36936405D02*
X86500000Y36936405D01*
X86500000Y36936405D02*
X86576190Y36898310D01*
X86576190Y36898310D02*
X86614285Y36860215D01*
X86614285Y36860215D02*
X86652381Y36784024D01*
X86652381Y36784024D02*
X86652381Y36669739D01*
X86652381Y36669739D02*
X86614285Y36593548D01*
X86614285Y36593548D02*
X86576190Y36555453D01*
X86576190Y36555453D02*
X86500000Y36517358D01*
X86500000Y36517358D02*
X86195238Y36517358D01*
X86995238Y36441167D02*
X87604762Y36441167D01*
X87300000Y36136405D02*
X87300000Y36745929D01*
X8071428Y8898310D02*
X7995238Y8936405D01*
X7995238Y8936405D02*
X7880952Y8936405D01*
X7880952Y8936405D02*
X7766666Y8898310D01*
X7766666Y8898310D02*
X7690476Y8822120D01*
X7690476Y8822120D02*
X7652381Y8745929D01*
X7652381Y8745929D02*
X7614285Y8593548D01*
X7614285Y8593548D02*
X7614285Y8479262D01*
X7614285Y8479262D02*
X7652381Y8326881D01*
X7652381Y8326881D02*
X7690476Y8250691D01*
X7690476Y8250691D02*
X7766666Y8174500D01*
X7766666Y8174500D02*
X7880952Y8136405D01*
X7880952Y8136405D02*
X7957143Y8136405D01*
X7957143Y8136405D02*
X8071428Y8174500D01*
X8071428Y8174500D02*
X8109524Y8212596D01*
X8109524Y8212596D02*
X8109524Y8479262D01*
X8109524Y8479262D02*
X7957143Y8479262D01*
X8452381Y8136405D02*
X8452381Y8936405D01*
X8452381Y8936405D02*
X8909524Y8136405D01*
X8909524Y8136405D02*
X8909524Y8936405D01*
X9290476Y8136405D02*
X9290476Y8936405D01*
X9290476Y8936405D02*
X9480952Y8936405D01*
X9480952Y8936405D02*
X9595238Y8898310D01*
X9595238Y8898310D02*
X9671428Y8822120D01*
X9671428Y8822120D02*
X9709523Y8745929D01*
X9709523Y8745929D02*
X9747619Y8593548D01*
X9747619Y8593548D02*
X9747619Y8479262D01*
X9747619Y8479262D02*
X9709523Y8326881D01*
X9709523Y8326881D02*
X9671428Y8250691D01*
X9671428Y8250691D02*
X9595238Y8174500D01*
X9595238Y8174500D02*
X9480952Y8136405D01*
X9480952Y8136405D02*
X9290476Y8136405D01*
X10052380Y8364977D02*
X10433333Y8364977D01*
X9976190Y8136405D02*
X10242857Y8936405D01*
X10242857Y8936405D02*
X10509523Y8136405D01*
X7652381Y9636405D02*
X7652381Y10436405D01*
X7652381Y10055453D02*
X8109524Y10055453D01*
X8109524Y9636405D02*
X8109524Y10436405D01*
X8452380Y9864977D02*
X8833333Y9864977D01*
X8376190Y9636405D02*
X8642857Y10436405D01*
X8642857Y10436405D02*
X8909523Y9636405D01*
X9557142Y9636405D02*
X9176190Y9636405D01*
X9176190Y9636405D02*
X9176190Y10436405D01*
X10204761Y9636405D02*
X9823809Y9636405D01*
X9823809Y9636405D02*
X9823809Y10436405D01*
X10395237Y10436405D02*
X10890475Y10436405D01*
X10890475Y10436405D02*
X10623809Y10131643D01*
X10623809Y10131643D02*
X10738094Y10131643D01*
X10738094Y10131643D02*
X10814285Y10093548D01*
X10814285Y10093548D02*
X10852380Y10055453D01*
X10852380Y10055453D02*
X10890475Y9979262D01*
X10890475Y9979262D02*
X10890475Y9788786D01*
X10890475Y9788786D02*
X10852380Y9712596D01*
X10852380Y9712596D02*
X10814285Y9674500D01*
X10814285Y9674500D02*
X10738094Y9636405D01*
X10738094Y9636405D02*
X10509523Y9636405D01*
X10509523Y9636405D02*
X10433332Y9674500D01*
X10433332Y9674500D02*
X10395237Y9712596D01*
X7538095Y23436405D02*
X7995238Y23436405D01*
X7766666Y22636405D02*
X7766666Y23436405D01*
X8261905Y22636405D02*
X8261905Y23436405D01*
X8261905Y23436405D02*
X8566667Y23436405D01*
X8566667Y23436405D02*
X8642857Y23398310D01*
X8642857Y23398310D02*
X8680952Y23360215D01*
X8680952Y23360215D02*
X8719048Y23284024D01*
X8719048Y23284024D02*
X8719048Y23169739D01*
X8719048Y23169739D02*
X8680952Y23093548D01*
X8680952Y23093548D02*
X8642857Y23055453D01*
X8642857Y23055453D02*
X8566667Y23017358D01*
X8566667Y23017358D02*
X8261905Y23017358D01*
X9023809Y22674500D02*
X9138095Y22636405D01*
X9138095Y22636405D02*
X9328571Y22636405D01*
X9328571Y22636405D02*
X9404762Y22674500D01*
X9404762Y22674500D02*
X9442857Y22712596D01*
X9442857Y22712596D02*
X9480952Y22788786D01*
X9480952Y22788786D02*
X9480952Y22864977D01*
X9480952Y22864977D02*
X9442857Y22941167D01*
X9442857Y22941167D02*
X9404762Y22979262D01*
X9404762Y22979262D02*
X9328571Y23017358D01*
X9328571Y23017358D02*
X9176190Y23055453D01*
X9176190Y23055453D02*
X9100000Y23093548D01*
X9100000Y23093548D02*
X9061905Y23131643D01*
X9061905Y23131643D02*
X9023809Y23207834D01*
X9023809Y23207834D02*
X9023809Y23284024D01*
X9023809Y23284024D02*
X9061905Y23360215D01*
X9061905Y23360215D02*
X9100000Y23398310D01*
X9100000Y23398310D02*
X9176190Y23436405D01*
X9176190Y23436405D02*
X9366667Y23436405D01*
X9366667Y23436405D02*
X9480952Y23398310D01*
X10242857Y22636405D02*
X9785714Y22636405D01*
X10014286Y22636405D02*
X10014286Y23436405D01*
X10014286Y23436405D02*
X9938095Y23322120D01*
X9938095Y23322120D02*
X9861905Y23245929D01*
X9861905Y23245929D02*
X9785714Y23207834D01*
X80595238Y5636405D02*
X80595238Y6436405D01*
X81052381Y5636405D02*
X80709523Y6093548D01*
X81052381Y6436405D02*
X80595238Y5979262D01*
X81547619Y6436405D02*
X81700000Y6436405D01*
X81700000Y6436405D02*
X81776190Y6398310D01*
X81776190Y6398310D02*
X81852381Y6322120D01*
X81852381Y6322120D02*
X81890476Y6169739D01*
X81890476Y6169739D02*
X81890476Y5903072D01*
X81890476Y5903072D02*
X81852381Y5750691D01*
X81852381Y5750691D02*
X81776190Y5674500D01*
X81776190Y5674500D02*
X81700000Y5636405D01*
X81700000Y5636405D02*
X81547619Y5636405D01*
X81547619Y5636405D02*
X81471428Y5674500D01*
X81471428Y5674500D02*
X81395238Y5750691D01*
X81395238Y5750691D02*
X81357142Y5903072D01*
X81357142Y5903072D02*
X81357142Y6169739D01*
X81357142Y6169739D02*
X81395238Y6322120D01*
X81395238Y6322120D02*
X81471428Y6398310D01*
X81471428Y6398310D02*
X81547619Y6436405D01*
X82233333Y5636405D02*
X82233333Y6436405D01*
X82233333Y6436405D02*
X82690476Y5636405D01*
X82690476Y5636405D02*
X82690476Y6436405D01*
X82957142Y6436405D02*
X83414285Y6436405D01*
X83185713Y5636405D02*
X83185713Y6436405D01*
X83642856Y5864977D02*
X84023809Y5864977D01*
X83566666Y5636405D02*
X83833333Y6436405D01*
X83833333Y6436405D02*
X84099999Y5636405D01*
X84366666Y5636405D02*
X84366666Y6436405D01*
X84823809Y5636405D02*
X84480951Y6093548D01*
X84823809Y6436405D02*
X84366666Y5979262D01*
X86195237Y5636405D02*
X85738094Y5636405D01*
X85966666Y5636405D02*
X85966666Y6436405D01*
X85966666Y6436405D02*
X85890475Y6322120D01*
X85890475Y6322120D02*
X85814285Y6245929D01*
X85814285Y6245929D02*
X85738094Y6207834D01*
X86499999Y6360215D02*
X86538095Y6398310D01*
X86538095Y6398310D02*
X86614285Y6436405D01*
X86614285Y6436405D02*
X86804761Y6436405D01*
X86804761Y6436405D02*
X86880952Y6398310D01*
X86880952Y6398310D02*
X86919047Y6360215D01*
X86919047Y6360215D02*
X86957142Y6284024D01*
X86957142Y6284024D02*
X86957142Y6207834D01*
X86957142Y6207834D02*
X86919047Y6093548D01*
X86919047Y6093548D02*
X86461904Y5636405D01*
X86461904Y5636405D02*
X86957142Y5636405D01*
X87185714Y6436405D02*
X87452381Y5636405D01*
X87452381Y5636405D02*
X87719047Y6436405D01*
X86195237Y40136405D02*
X85814285Y40136405D01*
X85814285Y40136405D02*
X85814285Y40936405D01*
X86423808Y40174500D02*
X86538094Y40136405D01*
X86538094Y40136405D02*
X86728570Y40136405D01*
X86728570Y40136405D02*
X86804761Y40174500D01*
X86804761Y40174500D02*
X86842856Y40212596D01*
X86842856Y40212596D02*
X86880951Y40288786D01*
X86880951Y40288786D02*
X86880951Y40364977D01*
X86880951Y40364977D02*
X86842856Y40441167D01*
X86842856Y40441167D02*
X86804761Y40479262D01*
X86804761Y40479262D02*
X86728570Y40517358D01*
X86728570Y40517358D02*
X86576189Y40555453D01*
X86576189Y40555453D02*
X86499999Y40593548D01*
X86499999Y40593548D02*
X86461904Y40631643D01*
X86461904Y40631643D02*
X86423808Y40707834D01*
X86423808Y40707834D02*
X86423808Y40784024D01*
X86423808Y40784024D02*
X86461904Y40860215D01*
X86461904Y40860215D02*
X86499999Y40898310D01*
X86499999Y40898310D02*
X86576189Y40936405D01*
X86576189Y40936405D02*
X86766666Y40936405D01*
X86766666Y40936405D02*
X86880951Y40898310D01*
X87147618Y40936405D02*
X87642856Y40936405D01*
X87642856Y40936405D02*
X87376190Y40631643D01*
X87376190Y40631643D02*
X87490475Y40631643D01*
X87490475Y40631643D02*
X87566666Y40593548D01*
X87566666Y40593548D02*
X87604761Y40555453D01*
X87604761Y40555453D02*
X87642856Y40479262D01*
X87642856Y40479262D02*
X87642856Y40288786D01*
X87642856Y40288786D02*
X87604761Y40212596D01*
X87604761Y40212596D02*
X87566666Y40174500D01*
X87566666Y40174500D02*
X87490475Y40136405D01*
X87490475Y40136405D02*
X87261904Y40136405D01*
X87261904Y40136405D02*
X87185713Y40174500D01*
X87185713Y40174500D02*
X87147618Y40212596D01*
X7652381Y41136405D02*
X7652381Y41936405D01*
X8452380Y41898310D02*
X8376190Y41936405D01*
X8376190Y41936405D02*
X8261904Y41936405D01*
X8261904Y41936405D02*
X8147618Y41898310D01*
X8147618Y41898310D02*
X8071428Y41822120D01*
X8071428Y41822120D02*
X8033333Y41745929D01*
X8033333Y41745929D02*
X7995237Y41593548D01*
X7995237Y41593548D02*
X7995237Y41479262D01*
X7995237Y41479262D02*
X8033333Y41326881D01*
X8033333Y41326881D02*
X8071428Y41250691D01*
X8071428Y41250691D02*
X8147618Y41174500D01*
X8147618Y41174500D02*
X8261904Y41136405D01*
X8261904Y41136405D02*
X8338095Y41136405D01*
X8338095Y41136405D02*
X8452380Y41174500D01*
X8452380Y41174500D02*
X8490476Y41212596D01*
X8490476Y41212596D02*
X8490476Y41479262D01*
X8490476Y41479262D02*
X8338095Y41479262D01*
X8833333Y41136405D02*
X8833333Y41936405D01*
X8833333Y41936405D02*
X9290476Y41136405D01*
X9290476Y41136405D02*
X9290476Y41936405D01*
X10052380Y41936405D02*
X9671428Y41936405D01*
X9671428Y41936405D02*
X9633332Y41555453D01*
X9633332Y41555453D02*
X9671428Y41593548D01*
X9671428Y41593548D02*
X9747618Y41631643D01*
X9747618Y41631643D02*
X9938094Y41631643D01*
X9938094Y41631643D02*
X10014285Y41593548D01*
X10014285Y41593548D02*
X10052380Y41555453D01*
X10052380Y41555453D02*
X10090475Y41479262D01*
X10090475Y41479262D02*
X10090475Y41288786D01*
X10090475Y41288786D02*
X10052380Y41212596D01*
X10052380Y41212596D02*
X10014285Y41174500D01*
X10014285Y41174500D02*
X9938094Y41136405D01*
X9938094Y41136405D02*
X9747618Y41136405D01*
X9747618Y41136405D02*
X9671428Y41174500D01*
X9671428Y41174500D02*
X9633332Y41212596D01*
X7652381Y27941167D02*
X8261905Y27941167D01*
X7957143Y27636405D02*
X7957143Y28245929D01*
X9023809Y28436405D02*
X8642857Y28436405D01*
X8642857Y28436405D02*
X8604761Y28055453D01*
X8604761Y28055453D02*
X8642857Y28093548D01*
X8642857Y28093548D02*
X8719047Y28131643D01*
X8719047Y28131643D02*
X8909523Y28131643D01*
X8909523Y28131643D02*
X8985714Y28093548D01*
X8985714Y28093548D02*
X9023809Y28055453D01*
X9023809Y28055453D02*
X9061904Y27979262D01*
X9061904Y27979262D02*
X9061904Y27788786D01*
X9061904Y27788786D02*
X9023809Y27712596D01*
X9023809Y27712596D02*
X8985714Y27674500D01*
X8985714Y27674500D02*
X8909523Y27636405D01*
X8909523Y27636405D02*
X8719047Y27636405D01*
X8719047Y27636405D02*
X8642857Y27674500D01*
X8642857Y27674500D02*
X8604761Y27712596D01*
X9290476Y28436405D02*
X9557143Y27636405D01*
X9557143Y27636405D02*
X9823809Y28436405D01*
X85966666Y31898310D02*
X85890476Y31936405D01*
X85890476Y31936405D02*
X85776190Y31936405D01*
X85776190Y31936405D02*
X85661904Y31898310D01*
X85661904Y31898310D02*
X85585714Y31822120D01*
X85585714Y31822120D02*
X85547619Y31745929D01*
X85547619Y31745929D02*
X85509523Y31593548D01*
X85509523Y31593548D02*
X85509523Y31479262D01*
X85509523Y31479262D02*
X85547619Y31326881D01*
X85547619Y31326881D02*
X85585714Y31250691D01*
X85585714Y31250691D02*
X85661904Y31174500D01*
X85661904Y31174500D02*
X85776190Y31136405D01*
X85776190Y31136405D02*
X85852381Y31136405D01*
X85852381Y31136405D02*
X85966666Y31174500D01*
X85966666Y31174500D02*
X86004762Y31212596D01*
X86004762Y31212596D02*
X86004762Y31479262D01*
X86004762Y31479262D02*
X85852381Y31479262D01*
X86347619Y31136405D02*
X86347619Y31936405D01*
X86347619Y31936405D02*
X86804762Y31136405D01*
X86804762Y31136405D02*
X86804762Y31936405D01*
X87185714Y31136405D02*
X87185714Y31936405D01*
X87185714Y31936405D02*
X87376190Y31936405D01*
X87376190Y31936405D02*
X87490476Y31898310D01*
X87490476Y31898310D02*
X87566666Y31822120D01*
X87566666Y31822120D02*
X87604761Y31745929D01*
X87604761Y31745929D02*
X87642857Y31593548D01*
X87642857Y31593548D02*
X87642857Y31479262D01*
X87642857Y31479262D02*
X87604761Y31326881D01*
X87604761Y31326881D02*
X87566666Y31250691D01*
X87566666Y31250691D02*
X87490476Y31174500D01*
X87490476Y31174500D02*
X87376190Y31136405D01*
X87376190Y31136405D02*
X87185714Y31136405D01*
D13*
G36*
X21784009Y69303344D02*
G01*
X22290569Y69303344D01*
X22645209Y67803693D01*
X22996919Y69303344D01*
X23506410Y69303344D01*
X23858119Y67803693D01*
X24212760Y69303344D01*
X24715412Y69303344D01*
X24231811Y67239980D01*
X23622181Y67239980D01*
X23249955Y68808508D01*
X22881636Y67239980D01*
X22271518Y67239980D01*
X21784009Y69303344D01*
G37*
G36*
X24871239Y69303344D02*
G01*
X25377798Y69303344D01*
X25732439Y67803693D01*
X26084149Y69303344D01*
X26593639Y69303344D01*
X26945349Y67803693D01*
X27299990Y69303344D01*
X27802641Y69303344D01*
X27319040Y67239980D01*
X26709410Y67239980D01*
X26337184Y68808508D01*
X25968866Y67239980D01*
X25358747Y67239980D01*
X24871239Y69303344D01*
G37*
G36*
X27958468Y69303344D02*
G01*
X28465028Y69303344D01*
X28819668Y67803693D01*
X29171378Y69303344D01*
X29680869Y69303344D01*
X30032578Y67803693D01*
X30387219Y69303344D01*
X30889871Y69303344D01*
X30406270Y67239980D01*
X29796640Y67239980D01*
X29424414Y68808508D01*
X29056096Y67239980D01*
X28445977Y67239980D01*
X27958468Y69303344D01*
G37*
G36*
X31022250Y67771453D02*
G01*
X31516598Y67771453D01*
X31516598Y67239980D01*
X31022250Y67239980D01*
X31022250Y67771453D01*
G37*
G36*
X32056375Y69303344D02*
G01*
X32585405Y69303344D01*
X32585405Y68521767D01*
X33365516Y68521767D01*
X33365516Y69303344D01*
X33894546Y69303344D01*
X33894546Y67239980D01*
X33365516Y67239980D01*
X33365516Y68115347D01*
X32585405Y68115347D01*
X32585405Y67239980D01*
X32056375Y67239980D01*
X32056375Y69303344D01*
G37*
G36*
X36304735Y67239980D02*
G01*
X35772774Y67239980D01*
X35643814Y67615138D01*
X34816807Y67615138D01*
X34686382Y67239980D01*
X34154421Y67239980D01*
X34430638Y67990295D01*
X34948699Y67990295D01*
X35510457Y67990295D01*
X35230066Y68816324D01*
X34948699Y67990295D01*
X34430638Y67990295D01*
X34914016Y69303344D01*
X35544651Y69303344D01*
X36304735Y67239980D01*
G37*
G36*
X37472002Y69301215D02*
G01*
X37584936Y69292564D01*
X37687279Y69277258D01*
X37796112Y69250107D01*
X37889695Y69213373D01*
X37968029Y69167057D01*
X38041689Y69099857D01*
X38097258Y69017511D01*
X38134734Y68920018D01*
X38154119Y68807378D01*
X38157073Y68736212D01*
X38149267Y68627389D01*
X38125851Y68530081D01*
X38081525Y68435465D01*
X38058398Y68401599D01*
X37987301Y68326762D01*
X37906672Y68270828D01*
X37810278Y68225714D01*
X37762376Y68209136D01*
X37859105Y68171720D01*
X37940476Y68111426D01*
X37956793Y68095319D01*
X38021548Y68016093D01*
X38075930Y67930341D01*
X38125201Y67837828D01*
X38130694Y67826652D01*
X38417924Y67239980D01*
X37854700Y67239980D01*
X37604595Y67753379D01*
X37557082Y67840572D01*
X37499563Y67919890D01*
X37451211Y67964893D01*
X37360719Y68007392D01*
X37260501Y68021336D01*
X37244581Y68021558D01*
X37095105Y68021558D01*
X37095105Y67239980D01*
X36566075Y67239980D01*
X36566075Y68396715D01*
X37095105Y68396715D01*
X37317366Y68396715D01*
X37420687Y68404103D01*
X37519796Y68434878D01*
X37555747Y68459241D01*
X37609969Y68541795D01*
X37627407Y68638364D01*
X37628043Y68664405D01*
X37616111Y68766202D01*
X37568667Y68854969D01*
X37555747Y68867126D01*
X37467605Y68910954D01*
X37367106Y68926696D01*
X37317366Y68928187D01*
X37095105Y68928187D01*
X37095105Y68396715D01*
X36566075Y68396715D01*
X36566075Y69303344D01*
X37374030Y69303344D01*
X37472002Y69301215D01*
G37*
G36*
X38721274Y69303344D02*
G01*
X39250304Y69303344D01*
X39250304Y67239980D01*
X38721274Y67239980D01*
X38721274Y69303344D01*
G37*
G36*
X38802362Y69834817D02*
G01*
X39178496Y69834817D01*
X39178496Y69490923D01*
X38802362Y69490923D01*
X38802362Y69834817D01*
G37*
G36*
X41389382Y67358194D02*
G01*
X41297162Y67315366D01*
X41202460Y67279693D01*
X41105278Y67251176D01*
X41085544Y67246331D01*
X40985548Y67226496D01*
X40882785Y67214007D01*
X40777254Y67208864D01*
X40755816Y67208717D01*
X40631039Y67213190D01*
X40512917Y67226608D01*
X40401451Y67248972D01*
X40296640Y67280281D01*
X40198485Y67320535D01*
X40106985Y67369735D01*
X40022141Y67427880D01*
X39943953Y67494970D01*
X39873772Y67569716D01*
X39812947Y67650827D01*
X39761481Y67738305D01*
X39719372Y67832147D01*
X39686620Y67932356D01*
X39663227Y68038929D01*
X39649190Y68151869D01*
X39644511Y68271174D01*
X39649190Y68390708D01*
X39663227Y68503846D01*
X39686620Y68610587D01*
X39719372Y68710933D01*
X39761481Y68804883D01*
X39812947Y68892436D01*
X39873772Y68973593D01*
X39943953Y69048355D01*
X40022141Y69115445D01*
X40106985Y69173590D01*
X40198485Y69222790D01*
X40296640Y69263044D01*
X40401451Y69294353D01*
X40512917Y69316716D01*
X40631039Y69330134D01*
X40755816Y69334607D01*
X40861900Y69330934D01*
X40965217Y69319914D01*
X41065766Y69301549D01*
X41085544Y69296994D01*
X41183222Y69269908D01*
X41278420Y69235666D01*
X41371137Y69194269D01*
X41389382Y69185131D01*
X41389382Y68771872D01*
X41297868Y68827523D01*
X41207116Y68872965D01*
X41108171Y68911161D01*
X41099222Y68914021D01*
X40999311Y68939885D01*
X40895707Y68955014D01*
X40798315Y68959450D01*
X40696494Y68953010D01*
X40588426Y68929218D01*
X40491904Y68887895D01*
X40406930Y68829040D01*
X40353304Y68776268D01*
X40290112Y68689487D01*
X40242441Y68589430D01*
X40213933Y68493099D01*
X40196829Y68387014D01*
X40191127Y68271174D01*
X40196829Y68155666D01*
X40213933Y68049844D01*
X40242441Y67953708D01*
X40290112Y67853790D01*
X40353304Y67767057D01*
X40430030Y67695680D01*
X40518304Y67641834D01*
X40618124Y67605520D01*
X40729492Y67586737D01*
X40798315Y67583874D01*
X40905278Y67589185D01*
X41008547Y67605116D01*
X41099222Y67628815D01*
X41198083Y67666166D01*
X41288758Y67710740D01*
X41380197Y67765428D01*
X41389382Y67771453D01*
X41389382Y67358194D01*
G37*
G36*
X41816319Y69303344D02*
G01*
X42345349Y69303344D01*
X42345349Y67239980D01*
X41816319Y67239980D01*
X41816319Y69303344D01*
G37*
G36*
X41897408Y69834817D02*
G01*
X42273541Y69834817D01*
X42273541Y69490923D01*
X41897408Y69490923D01*
X41897408Y69834817D01*
G37*
G36*
X43754729Y69301299D02*
G01*
X43873323Y69292989D01*
X43980396Y69278286D01*
X44075949Y69257192D01*
X44175406Y69223440D01*
X44270471Y69172430D01*
X44345274Y69107819D01*
X44408265Y69015487D01*
X44443698Y68918518D01*
X44460759Y68806450D01*
X44462446Y68753798D01*
X44454134Y68655000D01*
X44426107Y68559333D01*
X44392104Y68495877D01*
X44324868Y68418464D01*
X44244199Y68363178D01*
X44188894Y68338096D01*
X44287908Y68299056D01*
X44371847Y68243605D01*
X44440712Y68171744D01*
X44452676Y68155403D01*
X44501878Y68066140D01*
X44532857Y67965046D01*
X44545157Y67863947D01*
X44545977Y67828117D01*
X44538919Y67722066D01*
X44517744Y67626663D01*
X44475199Y67528816D01*
X44413439Y67445461D01*
X44345209Y67385549D01*
X44247583Y67328829D01*
X44147977Y67291299D01*
X44033672Y67264005D01*
X43927188Y67249079D01*
X43810495Y67241260D01*
X43735579Y67239980D01*
X42857770Y67239980D01*
X42857770Y67583874D01*
X43386800Y67583874D01*
X43696989Y67583874D01*
X43797398Y67592186D01*
X43891803Y67623442D01*
X43936835Y67654216D01*
X43994688Y67736291D01*
X44016176Y67832773D01*
X44017435Y67867196D01*
X44004214Y67969179D01*
X43956100Y68058202D01*
X43937324Y68076756D01*
X43844860Y68126895D01*
X43745232Y68144905D01*
X43696989Y68146610D01*
X43386800Y68146610D01*
X43386800Y67583874D01*
X42857770Y67583874D01*
X42857770Y68490504D01*
X43386800Y68490504D01*
X43679403Y68490504D01*
X43777230Y68501817D01*
X43864847Y68545974D01*
X43868936Y68549611D01*
X43921074Y68634430D01*
X43933416Y68724977D01*
X43917296Y68825727D01*
X43868936Y68899366D01*
X43777230Y68947950D01*
X43679403Y68959450D01*
X43386800Y68959450D01*
X43386800Y68490504D01*
X42857770Y68490504D01*
X42857770Y69303344D01*
X43651560Y69303344D01*
X43754729Y69301299D01*
G37*
G36*
X44991476Y69303344D02*
G01*
X46418831Y69303344D01*
X46418831Y68896924D01*
X45520506Y68896924D01*
X45520506Y68521767D01*
X46365098Y68521767D01*
X46365098Y68115347D01*
X45520506Y68115347D01*
X45520506Y67646401D01*
X46449117Y67646401D01*
X46449117Y67239980D01*
X44991476Y67239980D01*
X44991476Y69303344D01*
G37*
G36*
X46618622Y69303344D02*
G01*
X47196989Y69303344D01*
X47663981Y68568173D01*
X48130973Y69303344D01*
X48710806Y69303344D01*
X47929229Y68109485D01*
X47929229Y67239980D01*
X47400199Y67239980D01*
X47400199Y68109485D01*
X46618622Y69303344D01*
G37*
G36*
X48930625Y69303344D02*
G01*
X49459655Y69303344D01*
X49459655Y67239980D01*
X48930625Y67239980D01*
X48930625Y69303344D01*
G37*
G36*
X49011713Y69834817D02*
G01*
X49387847Y69834817D01*
X49387847Y69490923D01*
X49011713Y69490923D01*
X49011713Y69834817D01*
G37*
G36*
X49972076Y69303344D02*
G01*
X50562655Y69303344D01*
X51308573Y67888201D01*
X51308573Y69303344D01*
X51810248Y69303344D01*
X51810248Y67239980D01*
X51219668Y67239980D01*
X50473262Y68655124D01*
X50473262Y67239980D01*
X49972076Y67239980D01*
X49972076Y69303344D01*
G37*
G36*
X52343674Y67771453D02*
G01*
X52838022Y67771453D01*
X52838022Y67239980D01*
X52343674Y67239980D01*
X52343674Y67771453D01*
G37*
G36*
X55004456Y67358194D02*
G01*
X54912235Y67315366D01*
X54817534Y67279693D01*
X54720352Y67251176D01*
X54700618Y67246331D01*
X54600621Y67226496D01*
X54497858Y67214007D01*
X54392328Y67208864D01*
X54370890Y67208717D01*
X54246112Y67213190D01*
X54127990Y67226608D01*
X54016524Y67248972D01*
X53911713Y67280281D01*
X53813558Y67320535D01*
X53722059Y67369735D01*
X53637215Y67427880D01*
X53559026Y67494970D01*
X53488845Y67569716D01*
X53428021Y67650827D01*
X53376554Y67738305D01*
X53334445Y67832147D01*
X53301694Y67932356D01*
X53278300Y68038929D01*
X53264264Y68151869D01*
X53259585Y68271174D01*
X53264264Y68390708D01*
X53278300Y68503846D01*
X53301694Y68610587D01*
X53334445Y68710933D01*
X53376554Y68804883D01*
X53428021Y68892436D01*
X53488845Y68973593D01*
X53559026Y69048355D01*
X53637215Y69115445D01*
X53722059Y69173590D01*
X53813558Y69222790D01*
X53911713Y69263044D01*
X54016524Y69294353D01*
X54127990Y69316716D01*
X54246112Y69330134D01*
X54370890Y69334607D01*
X54476973Y69330934D01*
X54580290Y69319914D01*
X54680840Y69301549D01*
X54700618Y69296994D01*
X54798296Y69269908D01*
X54893493Y69235666D01*
X54986210Y69194269D01*
X55004456Y69185131D01*
X55004456Y68771872D01*
X54912941Y68827523D01*
X54822189Y68872965D01*
X54723244Y68911161D01*
X54714295Y68914021D01*
X54614385Y68939885D01*
X54510780Y68955014D01*
X54413388Y68959450D01*
X54311567Y68953010D01*
X54203499Y68929218D01*
X54106978Y68887895D01*
X54022004Y68829040D01*
X53968377Y68776268D01*
X53905185Y68689487D01*
X53857514Y68589430D01*
X53829006Y68493099D01*
X53811902Y68387014D01*
X53806200Y68271174D01*
X53811902Y68155666D01*
X53829006Y68049844D01*
X53857514Y67953708D01*
X53905185Y67853790D01*
X53968377Y67767057D01*
X54045104Y67695680D01*
X54133377Y67641834D01*
X54233197Y67605520D01*
X54344565Y67586737D01*
X54413388Y67583874D01*
X54520351Y67589185D01*
X54623620Y67605116D01*
X54714295Y67628815D01*
X54813156Y67666166D01*
X54903831Y67710740D01*
X54995270Y67765428D01*
X55004456Y67771453D01*
X55004456Y67358194D01*
G37*
G36*
X56488658Y69330188D02*
G01*
X56602292Y69316930D01*
X56709210Y69294834D01*
X56809410Y69263899D01*
X56902894Y69224125D01*
X56989662Y69175513D01*
X57069712Y69118063D01*
X57143046Y69051774D01*
X57208763Y68977707D01*
X57265717Y68896924D01*
X57313909Y68809424D01*
X57353339Y68715207D01*
X57384007Y68614274D01*
X57405912Y68506624D01*
X57419056Y68392257D01*
X57423437Y68271174D01*
X57419056Y68150319D01*
X57405912Y68036151D01*
X57384007Y67928669D01*
X57353339Y67827873D01*
X57313909Y67733763D01*
X57265717Y67646340D01*
X57208763Y67565602D01*
X57143046Y67491551D01*
X57069712Y67425262D01*
X56989662Y67367811D01*
X56902894Y67319199D01*
X56809410Y67279426D01*
X56709210Y67248491D01*
X56602292Y67226394D01*
X56488658Y67213137D01*
X56368308Y67208717D01*
X56248285Y67213137D01*
X56134903Y67226394D01*
X56028161Y67248491D01*
X55928060Y67279426D01*
X55834599Y67319199D01*
X55747778Y67367811D01*
X55667598Y67425262D01*
X55594058Y67491551D01*
X55528227Y67565602D01*
X55471173Y67646340D01*
X55422897Y67733763D01*
X55383398Y67827873D01*
X55352677Y67928669D01*
X55330734Y68036151D01*
X55317567Y68150319D01*
X55313179Y68271174D01*
X55859794Y68271174D01*
X55863050Y68172756D01*
X55875552Y68064038D01*
X55897431Y67965554D01*
X55934807Y67863594D01*
X55984946Y67775564D01*
X55993151Y67764126D01*
X56066607Y67685266D01*
X56153618Y67628937D01*
X56254185Y67595140D01*
X56353301Y67584050D01*
X56368308Y67583874D01*
X56469287Y67592500D01*
X56571869Y67623480D01*
X56660773Y67676992D01*
X56736000Y67753036D01*
X56744442Y67764126D01*
X56796404Y67850165D01*
X56835603Y67950136D01*
X56859045Y68046913D01*
X56873110Y68153926D01*
X56877798Y68271174D01*
X56874543Y68369861D01*
X56862040Y68478808D01*
X56840162Y68577418D01*
X56802785Y68679395D01*
X56752646Y68767301D01*
X56744442Y68778710D01*
X56670925Y68857784D01*
X56583730Y68914265D01*
X56482858Y68948154D01*
X56383374Y68959274D01*
X56368308Y68959450D01*
X56267709Y68950801D01*
X56165448Y68919737D01*
X56076742Y68866080D01*
X56001591Y68789830D01*
X55993151Y68778710D01*
X55941189Y68692815D01*
X55901989Y68592847D01*
X55878547Y68495961D01*
X55864482Y68388737D01*
X55859794Y68271174D01*
X55313179Y68271174D01*
X55317567Y68392257D01*
X55330734Y68506624D01*
X55352677Y68614274D01*
X55383398Y68715207D01*
X55422897Y68809424D01*
X55471173Y68896924D01*
X55528227Y68977707D01*
X55594058Y69051774D01*
X55667598Y69118063D01*
X55747778Y69175513D01*
X55834599Y69224125D01*
X55928060Y69263899D01*
X56028161Y69294834D01*
X56134903Y69316930D01*
X56248285Y69330188D01*
X56368308Y69334607D01*
X56488658Y69330188D01*
G37*
G36*
X57811294Y69303344D02*
G01*
X58484428Y69303344D01*
X58951420Y68205717D01*
X59421343Y69303344D01*
X60093011Y69303344D01*
X60093011Y67239980D01*
X59593290Y67239980D01*
X59593290Y68752332D01*
X59120436Y67646401D01*
X58785335Y67646401D01*
X58312481Y68752332D01*
X58312481Y67239980D01*
X57811294Y67239980D01*
X57811294Y69303344D01*
G37*
D11*
X84633333Y20636405D02*
X84633333Y21436405D01*
X84633333Y21436405D02*
X84823809Y21436405D01*
X84823809Y21436405D02*
X84938095Y21398310D01*
X84938095Y21398310D02*
X85014285Y21322120D01*
X85014285Y21322120D02*
X85052380Y21245929D01*
X85052380Y21245929D02*
X85090476Y21093548D01*
X85090476Y21093548D02*
X85090476Y20979262D01*
X85090476Y20979262D02*
X85052380Y20826881D01*
X85052380Y20826881D02*
X85014285Y20750691D01*
X85014285Y20750691D02*
X84938095Y20674500D01*
X84938095Y20674500D02*
X84823809Y20636405D01*
X84823809Y20636405D02*
X84633333Y20636405D01*
X85890476Y20712596D02*
X85852380Y20674500D01*
X85852380Y20674500D02*
X85738095Y20636405D01*
X85738095Y20636405D02*
X85661904Y20636405D01*
X85661904Y20636405D02*
X85547618Y20674500D01*
X85547618Y20674500D02*
X85471428Y20750691D01*
X85471428Y20750691D02*
X85433333Y20826881D01*
X85433333Y20826881D02*
X85395237Y20979262D01*
X85395237Y20979262D02*
X85395237Y21093548D01*
X85395237Y21093548D02*
X85433333Y21245929D01*
X85433333Y21245929D02*
X85471428Y21322120D01*
X85471428Y21322120D02*
X85547618Y21398310D01*
X85547618Y21398310D02*
X85661904Y21436405D01*
X85661904Y21436405D02*
X85738095Y21436405D01*
X85738095Y21436405D02*
X85852380Y21398310D01*
X85852380Y21398310D02*
X85890476Y21360215D01*
X86652380Y20636405D02*
X86195237Y20636405D01*
X86423809Y20636405D02*
X86423809Y21436405D01*
X86423809Y21436405D02*
X86347618Y21322120D01*
X86347618Y21322120D02*
X86271428Y21245929D01*
X86271428Y21245929D02*
X86195237Y21207834D01*
X86995238Y20941167D02*
X87604762Y20941167D01*
X8071428Y7898310D02*
X7995238Y7936405D01*
X7995238Y7936405D02*
X7880952Y7936405D01*
X7880952Y7936405D02*
X7766666Y7898310D01*
X7766666Y7898310D02*
X7690476Y7822120D01*
X7690476Y7822120D02*
X7652381Y7745929D01*
X7652381Y7745929D02*
X7614285Y7593548D01*
X7614285Y7593548D02*
X7614285Y7479262D01*
X7614285Y7479262D02*
X7652381Y7326881D01*
X7652381Y7326881D02*
X7690476Y7250691D01*
X7690476Y7250691D02*
X7766666Y7174500D01*
X7766666Y7174500D02*
X7880952Y7136405D01*
X7880952Y7136405D02*
X7957143Y7136405D01*
X7957143Y7136405D02*
X8071428Y7174500D01*
X8071428Y7174500D02*
X8109524Y7212596D01*
X8109524Y7212596D02*
X8109524Y7479262D01*
X8109524Y7479262D02*
X7957143Y7479262D01*
X8452381Y7136405D02*
X8452381Y7936405D01*
X8452381Y7936405D02*
X8909524Y7136405D01*
X8909524Y7136405D02*
X8909524Y7936405D01*
X9290476Y7136405D02*
X9290476Y7936405D01*
X9290476Y7936405D02*
X9480952Y7936405D01*
X9480952Y7936405D02*
X9595238Y7898310D01*
X9595238Y7898310D02*
X9671428Y7822120D01*
X9671428Y7822120D02*
X9709523Y7745929D01*
X9709523Y7745929D02*
X9747619Y7593548D01*
X9747619Y7593548D02*
X9747619Y7479262D01*
X9747619Y7479262D02*
X9709523Y7326881D01*
X9709523Y7326881D02*
X9671428Y7250691D01*
X9671428Y7250691D02*
X9595238Y7174500D01*
X9595238Y7174500D02*
X9480952Y7136405D01*
X9480952Y7136405D02*
X9290476Y7136405D01*
X10052380Y7364977D02*
X10433333Y7364977D01*
X9976190Y7136405D02*
X10242857Y7936405D01*
X10242857Y7936405D02*
X10509523Y7136405D01*
X85395238Y47636405D02*
X85395238Y48436405D01*
X85776190Y47636405D02*
X85776190Y48436405D01*
X85776190Y48436405D02*
X86233333Y47636405D01*
X86233333Y47636405D02*
X86233333Y48436405D01*
X86842856Y48436405D02*
X86842856Y47864977D01*
X86842856Y47864977D02*
X86804761Y47750691D01*
X86804761Y47750691D02*
X86728570Y47674500D01*
X86728570Y47674500D02*
X86614285Y47636405D01*
X86614285Y47636405D02*
X86538094Y47636405D01*
X87147618Y48436405D02*
X87642856Y48436405D01*
X87642856Y48436405D02*
X87376190Y48131643D01*
X87376190Y48131643D02*
X87490475Y48131643D01*
X87490475Y48131643D02*
X87566666Y48093548D01*
X87566666Y48093548D02*
X87604761Y48055453D01*
X87604761Y48055453D02*
X87642856Y47979262D01*
X87642856Y47979262D02*
X87642856Y47788786D01*
X87642856Y47788786D02*
X87604761Y47712596D01*
X87604761Y47712596D02*
X87566666Y47674500D01*
X87566666Y47674500D02*
X87490475Y47636405D01*
X87490475Y47636405D02*
X87261904Y47636405D01*
X87261904Y47636405D02*
X87185713Y47674500D01*
X87185713Y47674500D02*
X87147618Y47712596D01*
X85357142Y37636405D02*
X84976190Y37636405D01*
X84976190Y37636405D02*
X84976190Y38436405D01*
X85585713Y37674500D02*
X85699999Y37636405D01*
X85699999Y37636405D02*
X85890475Y37636405D01*
X85890475Y37636405D02*
X85966666Y37674500D01*
X85966666Y37674500D02*
X86004761Y37712596D01*
X86004761Y37712596D02*
X86042856Y37788786D01*
X86042856Y37788786D02*
X86042856Y37864977D01*
X86042856Y37864977D02*
X86004761Y37941167D01*
X86004761Y37941167D02*
X85966666Y37979262D01*
X85966666Y37979262D02*
X85890475Y38017358D01*
X85890475Y38017358D02*
X85738094Y38055453D01*
X85738094Y38055453D02*
X85661904Y38093548D01*
X85661904Y38093548D02*
X85623809Y38131643D01*
X85623809Y38131643D02*
X85585713Y38207834D01*
X85585713Y38207834D02*
X85585713Y38284024D01*
X85585713Y38284024D02*
X85623809Y38360215D01*
X85623809Y38360215D02*
X85661904Y38398310D01*
X85661904Y38398310D02*
X85738094Y38436405D01*
X85738094Y38436405D02*
X85928571Y38436405D01*
X85928571Y38436405D02*
X86042856Y38398310D01*
X86385714Y37636405D02*
X86385714Y38436405D01*
X86385714Y38055453D02*
X86842857Y38055453D01*
X86842857Y37636405D02*
X86842857Y38436405D01*
X87185713Y38360215D02*
X87223809Y38398310D01*
X87223809Y38398310D02*
X87299999Y38436405D01*
X87299999Y38436405D02*
X87490475Y38436405D01*
X87490475Y38436405D02*
X87566666Y38398310D01*
X87566666Y38398310D02*
X87604761Y38360215D01*
X87604761Y38360215D02*
X87642856Y38284024D01*
X87642856Y38284024D02*
X87642856Y38207834D01*
X87642856Y38207834D02*
X87604761Y38093548D01*
X87604761Y38093548D02*
X87147618Y37636405D01*
X87147618Y37636405D02*
X87642856Y37636405D01*
X7919047Y29055453D02*
X8033333Y29017358D01*
X8033333Y29017358D02*
X8071428Y28979262D01*
X8071428Y28979262D02*
X8109524Y28903072D01*
X8109524Y28903072D02*
X8109524Y28788786D01*
X8109524Y28788786D02*
X8071428Y28712596D01*
X8071428Y28712596D02*
X8033333Y28674500D01*
X8033333Y28674500D02*
X7957143Y28636405D01*
X7957143Y28636405D02*
X7652381Y28636405D01*
X7652381Y28636405D02*
X7652381Y29436405D01*
X7652381Y29436405D02*
X7919047Y29436405D01*
X7919047Y29436405D02*
X7995238Y29398310D01*
X7995238Y29398310D02*
X8033333Y29360215D01*
X8033333Y29360215D02*
X8071428Y29284024D01*
X8071428Y29284024D02*
X8071428Y29207834D01*
X8071428Y29207834D02*
X8033333Y29131643D01*
X8033333Y29131643D02*
X7995238Y29093548D01*
X7995238Y29093548D02*
X7919047Y29055453D01*
X7919047Y29055453D02*
X7652381Y29055453D01*
X8338095Y29436405D02*
X8795238Y29436405D01*
X8566666Y28636405D02*
X8566666Y29436405D01*
X9061905Y28636405D02*
X9061905Y29436405D01*
X9061905Y29436405D02*
X9519048Y28636405D01*
X9519048Y28636405D02*
X9519048Y29436405D01*
X9823809Y29436405D02*
X10319047Y29436405D01*
X10319047Y29436405D02*
X10052381Y29131643D01*
X10052381Y29131643D02*
X10166666Y29131643D01*
X10166666Y29131643D02*
X10242857Y29093548D01*
X10242857Y29093548D02*
X10280952Y29055453D01*
X10280952Y29055453D02*
X10319047Y28979262D01*
X10319047Y28979262D02*
X10319047Y28788786D01*
X10319047Y28788786D02*
X10280952Y28712596D01*
X10280952Y28712596D02*
X10242857Y28674500D01*
X10242857Y28674500D02*
X10166666Y28636405D01*
X10166666Y28636405D02*
X9938095Y28636405D01*
X9938095Y28636405D02*
X9861904Y28674500D01*
X9861904Y28674500D02*
X9823809Y28712596D01*
X8071428Y38398310D02*
X7995238Y38436405D01*
X7995238Y38436405D02*
X7880952Y38436405D01*
X7880952Y38436405D02*
X7766666Y38398310D01*
X7766666Y38398310D02*
X7690476Y38322120D01*
X7690476Y38322120D02*
X7652381Y38245929D01*
X7652381Y38245929D02*
X7614285Y38093548D01*
X7614285Y38093548D02*
X7614285Y37979262D01*
X7614285Y37979262D02*
X7652381Y37826881D01*
X7652381Y37826881D02*
X7690476Y37750691D01*
X7690476Y37750691D02*
X7766666Y37674500D01*
X7766666Y37674500D02*
X7880952Y37636405D01*
X7880952Y37636405D02*
X7957143Y37636405D01*
X7957143Y37636405D02*
X8071428Y37674500D01*
X8071428Y37674500D02*
X8109524Y37712596D01*
X8109524Y37712596D02*
X8109524Y37979262D01*
X8109524Y37979262D02*
X7957143Y37979262D01*
X8452381Y37636405D02*
X8452381Y38436405D01*
X8452381Y38436405D02*
X8909524Y37636405D01*
X8909524Y37636405D02*
X8909524Y38436405D01*
X9290476Y37636405D02*
X9290476Y38436405D01*
X9290476Y38436405D02*
X9480952Y38436405D01*
X9480952Y38436405D02*
X9595238Y38398310D01*
X9595238Y38398310D02*
X9671428Y38322120D01*
X9671428Y38322120D02*
X9709523Y38245929D01*
X9709523Y38245929D02*
X9747619Y38093548D01*
X9747619Y38093548D02*
X9747619Y37979262D01*
X9747619Y37979262D02*
X9709523Y37826881D01*
X9709523Y37826881D02*
X9671428Y37750691D01*
X9671428Y37750691D02*
X9595238Y37674500D01*
X9595238Y37674500D02*
X9480952Y37636405D01*
X9480952Y37636405D02*
X9290476Y37636405D01*
D14*
X3155651Y67717288D02*
X3116603Y67678240D01*
X3116603Y67678240D02*
X2999460Y67639193D01*
X2999460Y67639193D02*
X2921365Y67639193D01*
X2921365Y67639193D02*
X2804222Y67678240D01*
X2804222Y67678240D02*
X2726127Y67756336D01*
X2726127Y67756336D02*
X2687079Y67834431D01*
X2687079Y67834431D02*
X2648031Y67990622D01*
X2648031Y67990622D02*
X2648031Y68107765D01*
X2648031Y68107765D02*
X2687079Y68263955D01*
X2687079Y68263955D02*
X2726127Y68342051D01*
X2726127Y68342051D02*
X2804222Y68420146D01*
X2804222Y68420146D02*
X2921365Y68459194D01*
X2921365Y68459194D02*
X2999460Y68459194D01*
X2999460Y68459194D02*
X3116603Y68420146D01*
X3116603Y68420146D02*
X3155651Y68381098D01*
X3468032Y68381098D02*
X3507080Y68420146D01*
X3507080Y68420146D02*
X3585175Y68459194D01*
X3585175Y68459194D02*
X3780414Y68459194D01*
X3780414Y68459194D02*
X3858509Y68420146D01*
X3858509Y68420146D02*
X3897557Y68381098D01*
X3897557Y68381098D02*
X3936604Y68303003D01*
X3936604Y68303003D02*
X3936604Y68224908D01*
X3936604Y68224908D02*
X3897557Y68107765D01*
X3897557Y68107765D02*
X3428985Y67639193D01*
X3428985Y67639193D02*
X3936604Y67639193D01*
X4405176Y68107765D02*
X4327081Y68146812D01*
X4327081Y68146812D02*
X4288033Y68185860D01*
X4288033Y68185860D02*
X4248985Y68263955D01*
X4248985Y68263955D02*
X4248985Y68303003D01*
X4248985Y68303003D02*
X4288033Y68381098D01*
X4288033Y68381098D02*
X4327081Y68420146D01*
X4327081Y68420146D02*
X4405176Y68459194D01*
X4405176Y68459194D02*
X4561367Y68459194D01*
X4561367Y68459194D02*
X4639462Y68420146D01*
X4639462Y68420146D02*
X4678510Y68381098D01*
X4678510Y68381098D02*
X4717557Y68303003D01*
X4717557Y68303003D02*
X4717557Y68263955D01*
X4717557Y68263955D02*
X4678510Y68185860D01*
X4678510Y68185860D02*
X4639462Y68146812D01*
X4639462Y68146812D02*
X4561367Y68107765D01*
X4561367Y68107765D02*
X4405176Y68107765D01*
X4405176Y68107765D02*
X4327081Y68068717D01*
X4327081Y68068717D02*
X4288033Y68029669D01*
X4288033Y68029669D02*
X4248985Y67951574D01*
X4248985Y67951574D02*
X4248985Y67795383D01*
X4248985Y67795383D02*
X4288033Y67717288D01*
X4288033Y67717288D02*
X4327081Y67678240D01*
X4327081Y67678240D02*
X4405176Y67639193D01*
X4405176Y67639193D02*
X4561367Y67639193D01*
X4561367Y67639193D02*
X4639462Y67678240D01*
X4639462Y67678240D02*
X4678510Y67717288D01*
X4678510Y67717288D02*
X4717557Y67795383D01*
X4717557Y67795383D02*
X4717557Y67951574D01*
X4717557Y67951574D02*
X4678510Y68029669D01*
X4678510Y68029669D02*
X4639462Y68068717D01*
X4639462Y68068717D02*
X4561367Y68107765D01*
D10*
X17954166Y52568991D02*
X17620833Y52568991D01*
X17620833Y52045181D02*
X17620833Y53045181D01*
X17620833Y53045181D02*
X18097023Y53045181D01*
X18906547Y53045181D02*
X18716071Y53045181D01*
X18716071Y53045181D02*
X18620833Y52997562D01*
X18620833Y52997562D02*
X18573214Y52949943D01*
X18573214Y52949943D02*
X18477976Y52807086D01*
X18477976Y52807086D02*
X18430357Y52616610D01*
X18430357Y52616610D02*
X18430357Y52235658D01*
X18430357Y52235658D02*
X18477976Y52140420D01*
X18477976Y52140420D02*
X18525595Y52092800D01*
X18525595Y52092800D02*
X18620833Y52045181D01*
X18620833Y52045181D02*
X18811309Y52045181D01*
X18811309Y52045181D02*
X18906547Y52092800D01*
X18906547Y52092800D02*
X18954166Y52140420D01*
X18954166Y52140420D02*
X19001785Y52235658D01*
X19001785Y52235658D02*
X19001785Y52473753D01*
X19001785Y52473753D02*
X18954166Y52568991D01*
X18954166Y52568991D02*
X18906547Y52616610D01*
X18906547Y52616610D02*
X18811309Y52664229D01*
X18811309Y52664229D02*
X18620833Y52664229D01*
X18620833Y52664229D02*
X18525595Y52616610D01*
X18525595Y52616610D02*
X18477976Y52568991D01*
X18477976Y52568991D02*
X18430357Y52473753D01*
X93431009Y67380953D02*
X93478628Y67523810D01*
X93478628Y67523810D02*
X93526247Y67571429D01*
X93526247Y67571429D02*
X93621485Y67619048D01*
X93621485Y67619048D02*
X93764342Y67619048D01*
X93764342Y67619048D02*
X93859580Y67571429D01*
X93859580Y67571429D02*
X93907200Y67523810D01*
X93907200Y67523810D02*
X93954819Y67428572D01*
X93954819Y67428572D02*
X93954819Y67047620D01*
X93954819Y67047620D02*
X92954819Y67047620D01*
X92954819Y67047620D02*
X92954819Y67380953D01*
X92954819Y67380953D02*
X93002438Y67476191D01*
X93002438Y67476191D02*
X93050057Y67523810D01*
X93050057Y67523810D02*
X93145295Y67571429D01*
X93145295Y67571429D02*
X93240533Y67571429D01*
X93240533Y67571429D02*
X93335771Y67523810D01*
X93335771Y67523810D02*
X93383390Y67476191D01*
X93383390Y67476191D02*
X93431009Y67380953D01*
X93431009Y67380953D02*
X93431009Y67047620D01*
X93954819Y68523810D02*
X93954819Y68047620D01*
X93954819Y68047620D02*
X92954819Y68047620D01*
X92954819Y68857144D02*
X93764342Y68857144D01*
X93764342Y68857144D02*
X93859580Y68904763D01*
X93859580Y68904763D02*
X93907200Y68952382D01*
X93907200Y68952382D02*
X93954819Y69047620D01*
X93954819Y69047620D02*
X93954819Y69238096D01*
X93954819Y69238096D02*
X93907200Y69333334D01*
X93907200Y69333334D02*
X93859580Y69380953D01*
X93859580Y69380953D02*
X93764342Y69428572D01*
X93764342Y69428572D02*
X92954819Y69428572D01*
X93431009Y69904763D02*
X93431009Y70238096D01*
X93954819Y70380953D02*
X93954819Y69904763D01*
X93954819Y69904763D02*
X92954819Y69904763D01*
X92954819Y69904763D02*
X92954819Y70380953D01*
X92954819Y70666668D02*
X92954819Y71238096D01*
X93954819Y70952382D02*
X92954819Y70952382D01*
X92954819Y71761906D02*
X92954819Y71952382D01*
X92954819Y71952382D02*
X93002438Y72047620D01*
X93002438Y72047620D02*
X93097676Y72142858D01*
X93097676Y72142858D02*
X93288152Y72190477D01*
X93288152Y72190477D02*
X93621485Y72190477D01*
X93621485Y72190477D02*
X93811961Y72142858D01*
X93811961Y72142858D02*
X93907200Y72047620D01*
X93907200Y72047620D02*
X93954819Y71952382D01*
X93954819Y71952382D02*
X93954819Y71761906D01*
X93954819Y71761906D02*
X93907200Y71666668D01*
X93907200Y71666668D02*
X93811961Y71571430D01*
X93811961Y71571430D02*
X93621485Y71523811D01*
X93621485Y71523811D02*
X93288152Y71523811D01*
X93288152Y71523811D02*
X93097676Y71571430D01*
X93097676Y71571430D02*
X93002438Y71666668D01*
X93002438Y71666668D02*
X92954819Y71761906D01*
X92954819Y72809525D02*
X92954819Y73000001D01*
X92954819Y73000001D02*
X93002438Y73095239D01*
X93002438Y73095239D02*
X93097676Y73190477D01*
X93097676Y73190477D02*
X93288152Y73238096D01*
X93288152Y73238096D02*
X93621485Y73238096D01*
X93621485Y73238096D02*
X93811961Y73190477D01*
X93811961Y73190477D02*
X93907200Y73095239D01*
X93907200Y73095239D02*
X93954819Y73000001D01*
X93954819Y73000001D02*
X93954819Y72809525D01*
X93954819Y72809525D02*
X93907200Y72714287D01*
X93907200Y72714287D02*
X93811961Y72619049D01*
X93811961Y72619049D02*
X93621485Y72571430D01*
X93621485Y72571430D02*
X93288152Y72571430D01*
X93288152Y72571430D02*
X93097676Y72619049D01*
X93097676Y72619049D02*
X93002438Y72714287D01*
X93002438Y72714287D02*
X92954819Y72809525D01*
X92954819Y73523811D02*
X92954819Y74095239D01*
X93954819Y73809525D02*
X92954819Y73809525D01*
X93954819Y74428573D02*
X92954819Y74428573D01*
X93431009Y74428573D02*
X93431009Y75000001D01*
X93954819Y75000001D02*
X92954819Y75000001D01*
X93954819Y76000001D02*
X93954819Y75428573D01*
X93954819Y75714287D02*
X92954819Y75714287D01*
X92954819Y75714287D02*
X93097676Y75619049D01*
X93097676Y75619049D02*
X93192914Y75523811D01*
X93192914Y75523811D02*
X93240533Y75428573D01*
X5524819Y58545834D02*
X5524819Y58069644D01*
X5524819Y58069644D02*
X4524819Y58069644D01*
X5524819Y59402977D02*
X5524819Y58831549D01*
X5524819Y59117263D02*
X4524819Y59117263D01*
X4524819Y59117263D02*
X4667676Y59022025D01*
X4667676Y59022025D02*
X4762914Y58926787D01*
X4762914Y58926787D02*
X4810533Y58831549D01*
D14*
X82775651Y29609192D02*
X82502318Y29999668D01*
X82307080Y29609192D02*
X82307080Y30429192D01*
X82307080Y30429192D02*
X82619461Y30429192D01*
X82619461Y30429192D02*
X82697556Y30390144D01*
X82697556Y30390144D02*
X82736603Y30351097D01*
X82736603Y30351097D02*
X82775651Y30273001D01*
X82775651Y30273001D02*
X82775651Y30155859D01*
X82775651Y30155859D02*
X82736603Y30077763D01*
X82736603Y30077763D02*
X82697556Y30038716D01*
X82697556Y30038716D02*
X82619461Y29999668D01*
X82619461Y29999668D02*
X82307080Y29999668D01*
X83166127Y29609192D02*
X83322318Y29609192D01*
X83322318Y29609192D02*
X83400413Y29648239D01*
X83400413Y29648239D02*
X83439461Y29687287D01*
X83439461Y29687287D02*
X83517556Y29804430D01*
X83517556Y29804430D02*
X83556603Y29960620D01*
X83556603Y29960620D02*
X83556603Y30273001D01*
X83556603Y30273001D02*
X83517556Y30351097D01*
X83517556Y30351097D02*
X83478508Y30390144D01*
X83478508Y30390144D02*
X83400413Y30429192D01*
X83400413Y30429192D02*
X83244222Y30429192D01*
X83244222Y30429192D02*
X83166127Y30390144D01*
X83166127Y30390144D02*
X83127080Y30351097D01*
X83127080Y30351097D02*
X83088032Y30273001D01*
X83088032Y30273001D02*
X83088032Y30077763D01*
X83088032Y30077763D02*
X83127080Y29999668D01*
X83127080Y29999668D02*
X83166127Y29960620D01*
X83166127Y29960620D02*
X83244222Y29921573D01*
X83244222Y29921573D02*
X83400413Y29921573D01*
X83400413Y29921573D02*
X83478508Y29960620D01*
X83478508Y29960620D02*
X83517556Y29999668D01*
X83517556Y29999668D02*
X83556603Y30077763D01*
D10*
X85761905Y64045181D02*
X85761905Y63235658D01*
X85761905Y63235658D02*
X85809524Y63140420D01*
X85809524Y63140420D02*
X85857143Y63092800D01*
X85857143Y63092800D02*
X85952381Y63045181D01*
X85952381Y63045181D02*
X86142857Y63045181D01*
X86142857Y63045181D02*
X86238095Y63092800D01*
X86238095Y63092800D02*
X86285714Y63140420D01*
X86285714Y63140420D02*
X86333333Y63235658D01*
X86333333Y63235658D02*
X86333333Y64045181D01*
X86761905Y63092800D02*
X86904762Y63045181D01*
X86904762Y63045181D02*
X87142857Y63045181D01*
X87142857Y63045181D02*
X87238095Y63092800D01*
X87238095Y63092800D02*
X87285714Y63140420D01*
X87285714Y63140420D02*
X87333333Y63235658D01*
X87333333Y63235658D02*
X87333333Y63330896D01*
X87333333Y63330896D02*
X87285714Y63426134D01*
X87285714Y63426134D02*
X87238095Y63473753D01*
X87238095Y63473753D02*
X87142857Y63521372D01*
X87142857Y63521372D02*
X86952381Y63568991D01*
X86952381Y63568991D02*
X86857143Y63616610D01*
X86857143Y63616610D02*
X86809524Y63664229D01*
X86809524Y63664229D02*
X86761905Y63759467D01*
X86761905Y63759467D02*
X86761905Y63854705D01*
X86761905Y63854705D02*
X86809524Y63949943D01*
X86809524Y63949943D02*
X86857143Y63997562D01*
X86857143Y63997562D02*
X86952381Y64045181D01*
X86952381Y64045181D02*
X87190476Y64045181D01*
X87190476Y64045181D02*
X87333333Y63997562D01*
X88095238Y63568991D02*
X88238095Y63521372D01*
X88238095Y63521372D02*
X88285714Y63473753D01*
X88285714Y63473753D02*
X88333333Y63378515D01*
X88333333Y63378515D02*
X88333333Y63235658D01*
X88333333Y63235658D02*
X88285714Y63140420D01*
X88285714Y63140420D02*
X88238095Y63092800D01*
X88238095Y63092800D02*
X88142857Y63045181D01*
X88142857Y63045181D02*
X87761905Y63045181D01*
X87761905Y63045181D02*
X87761905Y64045181D01*
X87761905Y64045181D02*
X88095238Y64045181D01*
X88095238Y64045181D02*
X88190476Y63997562D01*
X88190476Y63997562D02*
X88238095Y63949943D01*
X88238095Y63949943D02*
X88285714Y63854705D01*
X88285714Y63854705D02*
X88285714Y63759467D01*
X88285714Y63759467D02*
X88238095Y63664229D01*
X88238095Y63664229D02*
X88190476Y63616610D01*
X88190476Y63616610D02*
X88095238Y63568991D01*
X88095238Y63568991D02*
X87761905Y63568991D01*
X89285714Y63045181D02*
X88714286Y63045181D01*
X89000000Y63045181D02*
X89000000Y64045181D01*
X89000000Y64045181D02*
X88904762Y63902324D01*
X88904762Y63902324D02*
X88809524Y63807086D01*
X88809524Y63807086D02*
X88714286Y63759467D01*
X73113095Y32945181D02*
X73113095Y32135658D01*
X73113095Y32135658D02*
X73160714Y32040420D01*
X73160714Y32040420D02*
X73208333Y31992800D01*
X73208333Y31992800D02*
X73303571Y31945181D01*
X73303571Y31945181D02*
X73494047Y31945181D01*
X73494047Y31945181D02*
X73589285Y31992800D01*
X73589285Y31992800D02*
X73636904Y32040420D01*
X73636904Y32040420D02*
X73684523Y32135658D01*
X73684523Y32135658D02*
X73684523Y32945181D01*
X74684523Y31945181D02*
X74113095Y31945181D01*
X74398809Y31945181D02*
X74398809Y32945181D01*
X74398809Y32945181D02*
X74303571Y32802324D01*
X74303571Y32802324D02*
X74208333Y32707086D01*
X74208333Y32707086D02*
X74113095Y32659467D01*
D14*
X3155651Y63097243D02*
X3116603Y63058195D01*
X3116603Y63058195D02*
X2999460Y63019148D01*
X2999460Y63019148D02*
X2921365Y63019148D01*
X2921365Y63019148D02*
X2804222Y63058195D01*
X2804222Y63058195D02*
X2726127Y63136291D01*
X2726127Y63136291D02*
X2687079Y63214386D01*
X2687079Y63214386D02*
X2648031Y63370577D01*
X2648031Y63370577D02*
X2648031Y63487720D01*
X2648031Y63487720D02*
X2687079Y63643910D01*
X2687079Y63643910D02*
X2726127Y63722006D01*
X2726127Y63722006D02*
X2804222Y63800101D01*
X2804222Y63800101D02*
X2921365Y63839149D01*
X2921365Y63839149D02*
X2999460Y63839149D01*
X2999460Y63839149D02*
X3116603Y63800101D01*
X3116603Y63800101D02*
X3155651Y63761053D01*
X3428985Y63839149D02*
X3936604Y63839149D01*
X3936604Y63839149D02*
X3663271Y63526767D01*
X3663271Y63526767D02*
X3780414Y63526767D01*
X3780414Y63526767D02*
X3858509Y63487720D01*
X3858509Y63487720D02*
X3897557Y63448672D01*
X3897557Y63448672D02*
X3936604Y63370577D01*
X3936604Y63370577D02*
X3936604Y63175338D01*
X3936604Y63175338D02*
X3897557Y63097243D01*
X3897557Y63097243D02*
X3858509Y63058195D01*
X3858509Y63058195D02*
X3780414Y63019148D01*
X3780414Y63019148D02*
X3546128Y63019148D01*
X3546128Y63019148D02*
X3468032Y63058195D01*
X3468032Y63058195D02*
X3428985Y63097243D01*
X4717557Y63019148D02*
X4248985Y63019148D01*
X4483271Y63019148D02*
X4483271Y63839149D01*
X4483271Y63839149D02*
X4405176Y63722006D01*
X4405176Y63722006D02*
X4327081Y63643910D01*
X4327081Y63643910D02*
X4248985Y63604863D01*
X3155651Y66197273D02*
X3116603Y66158225D01*
X3116603Y66158225D02*
X2999460Y66119178D01*
X2999460Y66119178D02*
X2921365Y66119178D01*
X2921365Y66119178D02*
X2804222Y66158225D01*
X2804222Y66158225D02*
X2726127Y66236321D01*
X2726127Y66236321D02*
X2687079Y66314416D01*
X2687079Y66314416D02*
X2648031Y66470607D01*
X2648031Y66470607D02*
X2648031Y66587750D01*
X2648031Y66587750D02*
X2687079Y66743940D01*
X2687079Y66743940D02*
X2726127Y66822036D01*
X2726127Y66822036D02*
X2804222Y66900131D01*
X2804222Y66900131D02*
X2921365Y66939179D01*
X2921365Y66939179D02*
X2999460Y66939179D01*
X2999460Y66939179D02*
X3116603Y66900131D01*
X3116603Y66900131D02*
X3155651Y66861083D01*
X3468032Y66861083D02*
X3507080Y66900131D01*
X3507080Y66900131D02*
X3585175Y66939179D01*
X3585175Y66939179D02*
X3780414Y66939179D01*
X3780414Y66939179D02*
X3858509Y66900131D01*
X3858509Y66900131D02*
X3897557Y66861083D01*
X3897557Y66861083D02*
X3936604Y66782988D01*
X3936604Y66782988D02*
X3936604Y66704893D01*
X3936604Y66704893D02*
X3897557Y66587750D01*
X3897557Y66587750D02*
X3428985Y66119178D01*
X3428985Y66119178D02*
X3936604Y66119178D01*
X4327081Y66119178D02*
X4483271Y66119178D01*
X4483271Y66119178D02*
X4561367Y66158225D01*
X4561367Y66158225D02*
X4600414Y66197273D01*
X4600414Y66197273D02*
X4678510Y66314416D01*
X4678510Y66314416D02*
X4717557Y66470607D01*
X4717557Y66470607D02*
X4717557Y66782988D01*
X4717557Y66782988D02*
X4678510Y66861083D01*
X4678510Y66861083D02*
X4639462Y66900131D01*
X4639462Y66900131D02*
X4561367Y66939179D01*
X4561367Y66939179D02*
X4405176Y66939179D01*
X4405176Y66939179D02*
X4327081Y66900131D01*
X4327081Y66900131D02*
X4288033Y66861083D01*
X4288033Y66861083D02*
X4248985Y66782988D01*
X4248985Y66782988D02*
X4248985Y66587750D01*
X4248985Y66587750D02*
X4288033Y66509654D01*
X4288033Y66509654D02*
X4327081Y66470607D01*
X4327081Y66470607D02*
X4405176Y66431559D01*
X4405176Y66431559D02*
X4561367Y66431559D01*
X4561367Y66431559D02*
X4639462Y66470607D01*
X4639462Y66470607D02*
X4678510Y66509654D01*
X4678510Y66509654D02*
X4717557Y66587750D01*
X3155651Y64647258D02*
X3116603Y64608210D01*
X3116603Y64608210D02*
X2999460Y64569163D01*
X2999460Y64569163D02*
X2921365Y64569163D01*
X2921365Y64569163D02*
X2804222Y64608210D01*
X2804222Y64608210D02*
X2726127Y64686306D01*
X2726127Y64686306D02*
X2687079Y64764401D01*
X2687079Y64764401D02*
X2648031Y64920592D01*
X2648031Y64920592D02*
X2648031Y65037735D01*
X2648031Y65037735D02*
X2687079Y65193925D01*
X2687079Y65193925D02*
X2726127Y65272021D01*
X2726127Y65272021D02*
X2804222Y65350116D01*
X2804222Y65350116D02*
X2921365Y65389164D01*
X2921365Y65389164D02*
X2999460Y65389164D01*
X2999460Y65389164D02*
X3116603Y65350116D01*
X3116603Y65350116D02*
X3155651Y65311068D01*
X3428985Y65389164D02*
X3936604Y65389164D01*
X3936604Y65389164D02*
X3663271Y65076782D01*
X3663271Y65076782D02*
X3780414Y65076782D01*
X3780414Y65076782D02*
X3858509Y65037735D01*
X3858509Y65037735D02*
X3897557Y64998687D01*
X3897557Y64998687D02*
X3936604Y64920592D01*
X3936604Y64920592D02*
X3936604Y64725353D01*
X3936604Y64725353D02*
X3897557Y64647258D01*
X3897557Y64647258D02*
X3858509Y64608210D01*
X3858509Y64608210D02*
X3780414Y64569163D01*
X3780414Y64569163D02*
X3546128Y64569163D01*
X3546128Y64569163D02*
X3468032Y64608210D01*
X3468032Y64608210D02*
X3428985Y64647258D01*
X4444224Y65389164D02*
X4522319Y65389164D01*
X4522319Y65389164D02*
X4600414Y65350116D01*
X4600414Y65350116D02*
X4639462Y65311068D01*
X4639462Y65311068D02*
X4678510Y65232973D01*
X4678510Y65232973D02*
X4717557Y65076782D01*
X4717557Y65076782D02*
X4717557Y64881544D01*
X4717557Y64881544D02*
X4678510Y64725353D01*
X4678510Y64725353D02*
X4639462Y64647258D01*
X4639462Y64647258D02*
X4600414Y64608210D01*
X4600414Y64608210D02*
X4522319Y64569163D01*
X4522319Y64569163D02*
X4444224Y64569163D01*
X4444224Y64569163D02*
X4366128Y64608210D01*
X4366128Y64608210D02*
X4327081Y64647258D01*
X4327081Y64647258D02*
X4288033Y64725353D01*
X4288033Y64725353D02*
X4248985Y64881544D01*
X4248985Y64881544D02*
X4248985Y65076782D01*
X4248985Y65076782D02*
X4288033Y65232973D01*
X4288033Y65232973D02*
X4327081Y65311068D01*
X4327081Y65311068D02*
X4366128Y65350116D01*
X4366128Y65350116D02*
X4444224Y65389164D01*
D13*
X23635380Y40097432D02*
X24635380Y40097432D01*
X24635380Y40097432D02*
X23921095Y39764099D01*
X23921095Y39764099D02*
X24635380Y39430766D01*
X24635380Y39430766D02*
X23635380Y39430766D01*
X24540142Y39002194D02*
X24587761Y38954575D01*
X24587761Y38954575D02*
X24635380Y38859337D01*
X24635380Y38859337D02*
X24635380Y38621242D01*
X24635380Y38621242D02*
X24587761Y38526004D01*
X24587761Y38526004D02*
X24540142Y38478385D01*
X24540142Y38478385D02*
X24444904Y38430766D01*
X24444904Y38430766D02*
X24349666Y38430766D01*
X24349666Y38430766D02*
X24206809Y38478385D01*
X24206809Y38478385D02*
X23635380Y39049813D01*
X23635380Y39049813D02*
X23635380Y38430766D01*
D10*
X73038095Y18445181D02*
X73038095Y17635658D01*
X73038095Y17635658D02*
X73085714Y17540420D01*
X73085714Y17540420D02*
X73133333Y17492800D01*
X73133333Y17492800D02*
X73228571Y17445181D01*
X73228571Y17445181D02*
X73419047Y17445181D01*
X73419047Y17445181D02*
X73514285Y17492800D01*
X73514285Y17492800D02*
X73561904Y17540420D01*
X73561904Y17540420D02*
X73609523Y17635658D01*
X73609523Y17635658D02*
X73609523Y18445181D01*
X74038095Y18349943D02*
X74085714Y18397562D01*
X74085714Y18397562D02*
X74180952Y18445181D01*
X74180952Y18445181D02*
X74419047Y18445181D01*
X74419047Y18445181D02*
X74514285Y18397562D01*
X74514285Y18397562D02*
X74561904Y18349943D01*
X74561904Y18349943D02*
X74609523Y18254705D01*
X74609523Y18254705D02*
X74609523Y18159467D01*
X74609523Y18159467D02*
X74561904Y18016610D01*
X74561904Y18016610D02*
X73990476Y17445181D01*
X73990476Y17445181D02*
X74609523Y17445181D01*
D14*
X12275651Y51109192D02*
X12002318Y51499668D01*
X11807080Y51109192D02*
X11807080Y51929192D01*
X11807080Y51929192D02*
X12119461Y51929192D01*
X12119461Y51929192D02*
X12197556Y51890144D01*
X12197556Y51890144D02*
X12236603Y51851097D01*
X12236603Y51851097D02*
X12275651Y51773001D01*
X12275651Y51773001D02*
X12275651Y51655859D01*
X12275651Y51655859D02*
X12236603Y51577763D01*
X12236603Y51577763D02*
X12197556Y51538716D01*
X12197556Y51538716D02*
X12119461Y51499668D01*
X12119461Y51499668D02*
X11807080Y51499668D01*
X12588032Y51851097D02*
X12627080Y51890144D01*
X12627080Y51890144D02*
X12705175Y51929192D01*
X12705175Y51929192D02*
X12900413Y51929192D01*
X12900413Y51929192D02*
X12978508Y51890144D01*
X12978508Y51890144D02*
X13017556Y51851097D01*
X13017556Y51851097D02*
X13056603Y51773001D01*
X13056603Y51773001D02*
X13056603Y51694906D01*
X13056603Y51694906D02*
X13017556Y51577763D01*
X13017556Y51577763D02*
X12548984Y51109192D01*
X12548984Y51109192D02*
X13056603Y51109192D01*
X13837555Y51109192D02*
X13368984Y51109192D01*
X13603270Y51109192D02*
X13603270Y51929192D01*
X13603270Y51929192D02*
X13525174Y51812049D01*
X13525174Y51812049D02*
X13447079Y51733954D01*
X13447079Y51733954D02*
X13368984Y51694906D01*
X81775652Y25687288D02*
X81736604Y25648240D01*
X81736604Y25648240D02*
X81619461Y25609193D01*
X81619461Y25609193D02*
X81541366Y25609193D01*
X81541366Y25609193D02*
X81424223Y25648240D01*
X81424223Y25648240D02*
X81346128Y25726336D01*
X81346128Y25726336D02*
X81307080Y25804431D01*
X81307080Y25804431D02*
X81268032Y25960622D01*
X81268032Y25960622D02*
X81268032Y26077765D01*
X81268032Y26077765D02*
X81307080Y26233955D01*
X81307080Y26233955D02*
X81346128Y26312051D01*
X81346128Y26312051D02*
X81424223Y26390146D01*
X81424223Y26390146D02*
X81541366Y26429194D01*
X81541366Y26429194D02*
X81619461Y26429194D01*
X81619461Y26429194D02*
X81736604Y26390146D01*
X81736604Y26390146D02*
X81775652Y26351098D01*
X82556605Y25609193D02*
X82088033Y25609193D01*
X82322319Y25609193D02*
X82322319Y26429194D01*
X82322319Y26429194D02*
X82244224Y26312051D01*
X82244224Y26312051D02*
X82166129Y26233955D01*
X82166129Y26233955D02*
X82088033Y26194908D01*
X82829939Y26429194D02*
X83337558Y26429194D01*
X83337558Y26429194D02*
X83064225Y26116812D01*
X83064225Y26116812D02*
X83181368Y26116812D01*
X83181368Y26116812D02*
X83259463Y26077765D01*
X83259463Y26077765D02*
X83298511Y26038717D01*
X83298511Y26038717D02*
X83337558Y25960622D01*
X83337558Y25960622D02*
X83337558Y25765383D01*
X83337558Y25765383D02*
X83298511Y25687288D01*
X83298511Y25687288D02*
X83259463Y25648240D01*
X83259463Y25648240D02*
X83181368Y25609193D01*
X83181368Y25609193D02*
X82947082Y25609193D01*
X82947082Y25609193D02*
X82868986Y25648240D01*
X82868986Y25648240D02*
X82829939Y25687288D01*
X3275652Y69187288D02*
X3236604Y69148240D01*
X3236604Y69148240D02*
X3119461Y69109193D01*
X3119461Y69109193D02*
X3041366Y69109193D01*
X3041366Y69109193D02*
X2924223Y69148240D01*
X2924223Y69148240D02*
X2846128Y69226336D01*
X2846128Y69226336D02*
X2807080Y69304431D01*
X2807080Y69304431D02*
X2768032Y69460622D01*
X2768032Y69460622D02*
X2768032Y69577765D01*
X2768032Y69577765D02*
X2807080Y69733955D01*
X2807080Y69733955D02*
X2846128Y69812051D01*
X2846128Y69812051D02*
X2924223Y69890146D01*
X2924223Y69890146D02*
X3041366Y69929194D01*
X3041366Y69929194D02*
X3119461Y69929194D01*
X3119461Y69929194D02*
X3236604Y69890146D01*
X3236604Y69890146D02*
X3275652Y69851098D01*
X3588033Y69851098D02*
X3627081Y69890146D01*
X3627081Y69890146D02*
X3705176Y69929194D01*
X3705176Y69929194D02*
X3900415Y69929194D01*
X3900415Y69929194D02*
X3978510Y69890146D01*
X3978510Y69890146D02*
X4017558Y69851098D01*
X4017558Y69851098D02*
X4056605Y69773003D01*
X4056605Y69773003D02*
X4056605Y69694908D01*
X4056605Y69694908D02*
X4017558Y69577765D01*
X4017558Y69577765D02*
X3548986Y69109193D01*
X3548986Y69109193D02*
X4056605Y69109193D01*
X4329939Y69929194D02*
X4876606Y69929194D01*
X4876606Y69929194D02*
X4525177Y69109193D01*
X63775652Y12187288D02*
X63736604Y12148240D01*
X63736604Y12148240D02*
X63619461Y12109193D01*
X63619461Y12109193D02*
X63541366Y12109193D01*
X63541366Y12109193D02*
X63424223Y12148240D01*
X63424223Y12148240D02*
X63346128Y12226336D01*
X63346128Y12226336D02*
X63307080Y12304431D01*
X63307080Y12304431D02*
X63268032Y12460622D01*
X63268032Y12460622D02*
X63268032Y12577765D01*
X63268032Y12577765D02*
X63307080Y12733955D01*
X63307080Y12733955D02*
X63346128Y12812051D01*
X63346128Y12812051D02*
X63424223Y12890146D01*
X63424223Y12890146D02*
X63541366Y12929194D01*
X63541366Y12929194D02*
X63619461Y12929194D01*
X63619461Y12929194D02*
X63736604Y12890146D01*
X63736604Y12890146D02*
X63775652Y12851098D01*
X64088033Y12851098D02*
X64127081Y12890146D01*
X64127081Y12890146D02*
X64205176Y12929194D01*
X64205176Y12929194D02*
X64400415Y12929194D01*
X64400415Y12929194D02*
X64478510Y12890146D01*
X64478510Y12890146D02*
X64517558Y12851098D01*
X64517558Y12851098D02*
X64556605Y12773003D01*
X64556605Y12773003D02*
X64556605Y12694908D01*
X64556605Y12694908D02*
X64517558Y12577765D01*
X64517558Y12577765D02*
X64048986Y12109193D01*
X64048986Y12109193D02*
X64556605Y12109193D01*
X65298511Y12929194D02*
X64908034Y12929194D01*
X64908034Y12929194D02*
X64868986Y12538717D01*
X64868986Y12538717D02*
X64908034Y12577765D01*
X64908034Y12577765D02*
X64986129Y12616812D01*
X64986129Y12616812D02*
X65181368Y12616812D01*
X65181368Y12616812D02*
X65259463Y12577765D01*
X65259463Y12577765D02*
X65298511Y12538717D01*
X65298511Y12538717D02*
X65337558Y12460622D01*
X65337558Y12460622D02*
X65337558Y12265383D01*
X65337558Y12265383D02*
X65298511Y12187288D01*
X65298511Y12187288D02*
X65259463Y12148240D01*
X65259463Y12148240D02*
X65181368Y12109193D01*
X65181368Y12109193D02*
X64986129Y12109193D01*
X64986129Y12109193D02*
X64908034Y12148240D01*
X64908034Y12148240D02*
X64868986Y12187288D01*
D15*
X70946768Y5246001D02*
X70946768Y4992001D01*
X71345911Y4992001D02*
X70583911Y4992001D01*
X70583911Y4992001D02*
X70583911Y5354858D01*
X71345911Y6044287D02*
X71345911Y5608858D01*
X71345911Y5826573D02*
X70583911Y5826573D01*
X70583911Y5826573D02*
X70692768Y5754001D01*
X70692768Y5754001D02*
X70765340Y5681430D01*
X70765340Y5681430D02*
X70801626Y5608858D01*
D10*
X12238095Y65545181D02*
X12238095Y64735658D01*
X12238095Y64735658D02*
X12285714Y64640420D01*
X12285714Y64640420D02*
X12333333Y64592800D01*
X12333333Y64592800D02*
X12428571Y64545181D01*
X12428571Y64545181D02*
X12619047Y64545181D01*
X12619047Y64545181D02*
X12714285Y64592800D01*
X12714285Y64592800D02*
X12761904Y64640420D01*
X12761904Y64640420D02*
X12809523Y64735658D01*
X12809523Y64735658D02*
X12809523Y65545181D01*
X13714285Y65211848D02*
X13714285Y64545181D01*
X13476190Y65592800D02*
X13238095Y64878515D01*
X13238095Y64878515D02*
X13857142Y64878515D01*
X8761905Y60545181D02*
X8761905Y61545181D01*
X8761905Y61545181D02*
X9000000Y61545181D01*
X9000000Y61545181D02*
X9142857Y61497562D01*
X9142857Y61497562D02*
X9238095Y61402324D01*
X9238095Y61402324D02*
X9285714Y61307086D01*
X9285714Y61307086D02*
X9333333Y61116610D01*
X9333333Y61116610D02*
X9333333Y60973753D01*
X9333333Y60973753D02*
X9285714Y60783277D01*
X9285714Y60783277D02*
X9238095Y60688039D01*
X9238095Y60688039D02*
X9142857Y60592800D01*
X9142857Y60592800D02*
X9000000Y60545181D01*
X9000000Y60545181D02*
X8761905Y60545181D01*
X9904762Y61116610D02*
X9809524Y61164229D01*
X9809524Y61164229D02*
X9761905Y61211848D01*
X9761905Y61211848D02*
X9714286Y61307086D01*
X9714286Y61307086D02*
X9714286Y61354705D01*
X9714286Y61354705D02*
X9761905Y61449943D01*
X9761905Y61449943D02*
X9809524Y61497562D01*
X9809524Y61497562D02*
X9904762Y61545181D01*
X9904762Y61545181D02*
X10095238Y61545181D01*
X10095238Y61545181D02*
X10190476Y61497562D01*
X10190476Y61497562D02*
X10238095Y61449943D01*
X10238095Y61449943D02*
X10285714Y61354705D01*
X10285714Y61354705D02*
X10285714Y61307086D01*
X10285714Y61307086D02*
X10238095Y61211848D01*
X10238095Y61211848D02*
X10190476Y61164229D01*
X10190476Y61164229D02*
X10095238Y61116610D01*
X10095238Y61116610D02*
X9904762Y61116610D01*
X9904762Y61116610D02*
X9809524Y61068991D01*
X9809524Y61068991D02*
X9761905Y61021372D01*
X9761905Y61021372D02*
X9714286Y60926134D01*
X9714286Y60926134D02*
X9714286Y60735658D01*
X9714286Y60735658D02*
X9761905Y60640420D01*
X9761905Y60640420D02*
X9809524Y60592800D01*
X9809524Y60592800D02*
X9904762Y60545181D01*
X9904762Y60545181D02*
X10095238Y60545181D01*
X10095238Y60545181D02*
X10190476Y60592800D01*
X10190476Y60592800D02*
X10238095Y60640420D01*
X10238095Y60640420D02*
X10285714Y60735658D01*
X10285714Y60735658D02*
X10285714Y60926134D01*
X10285714Y60926134D02*
X10238095Y61021372D01*
X10238095Y61021372D02*
X10190476Y61068991D01*
X10190476Y61068991D02*
X10095238Y61116610D01*
X72954819Y53738096D02*
X73764342Y53738096D01*
X73764342Y53738096D02*
X73859580Y53785715D01*
X73859580Y53785715D02*
X73907200Y53833334D01*
X73907200Y53833334D02*
X73954819Y53928572D01*
X73954819Y53928572D02*
X73954819Y54119048D01*
X73954819Y54119048D02*
X73907200Y54214286D01*
X73907200Y54214286D02*
X73859580Y54261905D01*
X73859580Y54261905D02*
X73764342Y54309524D01*
X73764342Y54309524D02*
X72954819Y54309524D01*
X73954819Y54833334D02*
X73954819Y55023810D01*
X73954819Y55023810D02*
X73907200Y55119048D01*
X73907200Y55119048D02*
X73859580Y55166667D01*
X73859580Y55166667D02*
X73716723Y55261905D01*
X73716723Y55261905D02*
X73526247Y55309524D01*
X73526247Y55309524D02*
X73145295Y55309524D01*
X73145295Y55309524D02*
X73050057Y55261905D01*
X73050057Y55261905D02*
X73002438Y55214286D01*
X73002438Y55214286D02*
X72954819Y55119048D01*
X72954819Y55119048D02*
X72954819Y54928572D01*
X72954819Y54928572D02*
X73002438Y54833334D01*
X73002438Y54833334D02*
X73050057Y54785715D01*
X73050057Y54785715D02*
X73145295Y54738096D01*
X73145295Y54738096D02*
X73383390Y54738096D01*
X73383390Y54738096D02*
X73478628Y54785715D01*
X73478628Y54785715D02*
X73526247Y54833334D01*
X73526247Y54833334D02*
X73573866Y54928572D01*
X73573866Y54928572D02*
X73573866Y55119048D01*
X73573866Y55119048D02*
X73526247Y55214286D01*
X73526247Y55214286D02*
X73478628Y55261905D01*
X73478628Y55261905D02*
X73383390Y55309524D01*
X14454819Y58545834D02*
X14454819Y58069644D01*
X14454819Y58069644D02*
X13454819Y58069644D01*
X13550057Y58831549D02*
X13502438Y58879168D01*
X13502438Y58879168D02*
X13454819Y58974406D01*
X13454819Y58974406D02*
X13454819Y59212501D01*
X13454819Y59212501D02*
X13502438Y59307739D01*
X13502438Y59307739D02*
X13550057Y59355358D01*
X13550057Y59355358D02*
X13645295Y59402977D01*
X13645295Y59402977D02*
X13740533Y59402977D01*
X13740533Y59402977D02*
X13883390Y59355358D01*
X13883390Y59355358D02*
X14454819Y58783930D01*
X14454819Y58783930D02*
X14454819Y59402977D01*
X72954819Y45761906D02*
X73764342Y45761906D01*
X73764342Y45761906D02*
X73859580Y45809525D01*
X73859580Y45809525D02*
X73907200Y45857144D01*
X73907200Y45857144D02*
X73954819Y45952382D01*
X73954819Y45952382D02*
X73954819Y46142858D01*
X73954819Y46142858D02*
X73907200Y46238096D01*
X73907200Y46238096D02*
X73859580Y46285715D01*
X73859580Y46285715D02*
X73764342Y46333334D01*
X73764342Y46333334D02*
X72954819Y46333334D01*
X73954819Y47333334D02*
X73954819Y46761906D01*
X73954819Y47047620D02*
X72954819Y47047620D01*
X72954819Y47047620D02*
X73097676Y46952382D01*
X73097676Y46952382D02*
X73192914Y46857144D01*
X73192914Y46857144D02*
X73240533Y46761906D01*
X72954819Y47952382D02*
X72954819Y48047620D01*
X72954819Y48047620D02*
X73002438Y48142858D01*
X73002438Y48142858D02*
X73050057Y48190477D01*
X73050057Y48190477D02*
X73145295Y48238096D01*
X73145295Y48238096D02*
X73335771Y48285715D01*
X73335771Y48285715D02*
X73573866Y48285715D01*
X73573866Y48285715D02*
X73764342Y48238096D01*
X73764342Y48238096D02*
X73859580Y48190477D01*
X73859580Y48190477D02*
X73907200Y48142858D01*
X73907200Y48142858D02*
X73954819Y48047620D01*
X73954819Y48047620D02*
X73954819Y47952382D01*
X73954819Y47952382D02*
X73907200Y47857144D01*
X73907200Y47857144D02*
X73859580Y47809525D01*
X73859580Y47809525D02*
X73764342Y47761906D01*
X73764342Y47761906D02*
X73573866Y47714287D01*
X73573866Y47714287D02*
X73335771Y47714287D01*
X73335771Y47714287D02*
X73145295Y47761906D01*
X73145295Y47761906D02*
X73050057Y47809525D01*
X73050057Y47809525D02*
X73002438Y47857144D01*
X73002438Y47857144D02*
X72954819Y47952382D01*
X17954166Y48568991D02*
X17620833Y48568991D01*
X17620833Y48045181D02*
X17620833Y49045181D01*
X17620833Y49045181D02*
X18097023Y49045181D01*
X18382738Y49045181D02*
X19049404Y49045181D01*
X19049404Y49045181D02*
X18620833Y48045181D01*
D15*
X51750911Y71873001D02*
X51388054Y71619001D01*
X51750911Y71437572D02*
X50988911Y71437572D01*
X50988911Y71437572D02*
X50988911Y71727858D01*
X50988911Y71727858D02*
X51025197Y71800429D01*
X51025197Y71800429D02*
X51061483Y71836715D01*
X51061483Y71836715D02*
X51134054Y71873001D01*
X51134054Y71873001D02*
X51242911Y71873001D01*
X51242911Y71873001D02*
X51315483Y71836715D01*
X51315483Y71836715D02*
X51351768Y71800429D01*
X51351768Y71800429D02*
X51388054Y71727858D01*
X51388054Y71727858D02*
X51388054Y71437572D01*
X51242911Y72526143D02*
X51750911Y72526143D01*
X50952626Y72344715D02*
X51496911Y72163286D01*
X51496911Y72163286D02*
X51496911Y72635001D01*
D14*
X64775651Y8109192D02*
X64502318Y8499668D01*
X64307080Y8109192D02*
X64307080Y8929192D01*
X64307080Y8929192D02*
X64619461Y8929192D01*
X64619461Y8929192D02*
X64697556Y8890144D01*
X64697556Y8890144D02*
X64736603Y8851097D01*
X64736603Y8851097D02*
X64775651Y8773001D01*
X64775651Y8773001D02*
X64775651Y8655859D01*
X64775651Y8655859D02*
X64736603Y8577763D01*
X64736603Y8577763D02*
X64697556Y8538716D01*
X64697556Y8538716D02*
X64619461Y8499668D01*
X64619461Y8499668D02*
X64307080Y8499668D01*
X65088032Y8851097D02*
X65127080Y8890144D01*
X65127080Y8890144D02*
X65205175Y8929192D01*
X65205175Y8929192D02*
X65400413Y8929192D01*
X65400413Y8929192D02*
X65478508Y8890144D01*
X65478508Y8890144D02*
X65517556Y8851097D01*
X65517556Y8851097D02*
X65556603Y8773001D01*
X65556603Y8773001D02*
X65556603Y8694906D01*
X65556603Y8694906D02*
X65517556Y8577763D01*
X65517556Y8577763D02*
X65048984Y8109192D01*
X65048984Y8109192D02*
X65556603Y8109192D01*
X82275652Y11187288D02*
X82236604Y11148240D01*
X82236604Y11148240D02*
X82119461Y11109193D01*
X82119461Y11109193D02*
X82041366Y11109193D01*
X82041366Y11109193D02*
X81924223Y11148240D01*
X81924223Y11148240D02*
X81846128Y11226336D01*
X81846128Y11226336D02*
X81807080Y11304431D01*
X81807080Y11304431D02*
X81768032Y11460622D01*
X81768032Y11460622D02*
X81768032Y11577765D01*
X81768032Y11577765D02*
X81807080Y11733955D01*
X81807080Y11733955D02*
X81846128Y11812051D01*
X81846128Y11812051D02*
X81924223Y11890146D01*
X81924223Y11890146D02*
X82041366Y11929194D01*
X82041366Y11929194D02*
X82119461Y11929194D01*
X82119461Y11929194D02*
X82236604Y11890146D01*
X82236604Y11890146D02*
X82275652Y11851098D01*
X82588033Y11851098D02*
X82627081Y11890146D01*
X82627081Y11890146D02*
X82705176Y11929194D01*
X82705176Y11929194D02*
X82900415Y11929194D01*
X82900415Y11929194D02*
X82978510Y11890146D01*
X82978510Y11890146D02*
X83017558Y11851098D01*
X83017558Y11851098D02*
X83056605Y11773003D01*
X83056605Y11773003D02*
X83056605Y11694908D01*
X83056605Y11694908D02*
X83017558Y11577765D01*
X83017558Y11577765D02*
X82548986Y11109193D01*
X82548986Y11109193D02*
X83056605Y11109193D01*
X83759463Y11929194D02*
X83603272Y11929194D01*
X83603272Y11929194D02*
X83525177Y11890146D01*
X83525177Y11890146D02*
X83486129Y11851098D01*
X83486129Y11851098D02*
X83408034Y11733955D01*
X83408034Y11733955D02*
X83368986Y11577765D01*
X83368986Y11577765D02*
X83368986Y11265383D01*
X83368986Y11265383D02*
X83408034Y11187288D01*
X83408034Y11187288D02*
X83447082Y11148240D01*
X83447082Y11148240D02*
X83525177Y11109193D01*
X83525177Y11109193D02*
X83681368Y11109193D01*
X83681368Y11109193D02*
X83759463Y11148240D01*
X83759463Y11148240D02*
X83798511Y11187288D01*
X83798511Y11187288D02*
X83837558Y11265383D01*
X83837558Y11265383D02*
X83837558Y11460622D01*
X83837558Y11460622D02*
X83798511Y11538717D01*
X83798511Y11538717D02*
X83759463Y11577765D01*
X83759463Y11577765D02*
X83681368Y11616812D01*
X83681368Y11616812D02*
X83525177Y11616812D01*
X83525177Y11616812D02*
X83447082Y11577765D01*
X83447082Y11577765D02*
X83408034Y11538717D01*
X83408034Y11538717D02*
X83368986Y11460622D01*
X12275651Y53109192D02*
X12002318Y53499668D01*
X11807080Y53109192D02*
X11807080Y53929192D01*
X11807080Y53929192D02*
X12119461Y53929192D01*
X12119461Y53929192D02*
X12197556Y53890144D01*
X12197556Y53890144D02*
X12236603Y53851097D01*
X12236603Y53851097D02*
X12275651Y53773001D01*
X12275651Y53773001D02*
X12275651Y53655859D01*
X12275651Y53655859D02*
X12236603Y53577763D01*
X12236603Y53577763D02*
X12197556Y53538716D01*
X12197556Y53538716D02*
X12119461Y53499668D01*
X12119461Y53499668D02*
X11807080Y53499668D01*
X12588032Y53851097D02*
X12627080Y53890144D01*
X12627080Y53890144D02*
X12705175Y53929192D01*
X12705175Y53929192D02*
X12900413Y53929192D01*
X12900413Y53929192D02*
X12978508Y53890144D01*
X12978508Y53890144D02*
X13017556Y53851097D01*
X13017556Y53851097D02*
X13056603Y53773001D01*
X13056603Y53773001D02*
X13056603Y53694906D01*
X13056603Y53694906D02*
X13017556Y53577763D01*
X13017556Y53577763D02*
X12548984Y53109192D01*
X12548984Y53109192D02*
X13056603Y53109192D01*
X13564222Y53929192D02*
X13642317Y53929192D01*
X13642317Y53929192D02*
X13720413Y53890144D01*
X13720413Y53890144D02*
X13759460Y53851097D01*
X13759460Y53851097D02*
X13798508Y53773001D01*
X13798508Y53773001D02*
X13837555Y53616811D01*
X13837555Y53616811D02*
X13837555Y53421573D01*
X13837555Y53421573D02*
X13798508Y53265382D01*
X13798508Y53265382D02*
X13759460Y53187287D01*
X13759460Y53187287D02*
X13720413Y53148239D01*
X13720413Y53148239D02*
X13642317Y53109192D01*
X13642317Y53109192D02*
X13564222Y53109192D01*
X13564222Y53109192D02*
X13486127Y53148239D01*
X13486127Y53148239D02*
X13447079Y53187287D01*
X13447079Y53187287D02*
X13408032Y53265382D01*
X13408032Y53265382D02*
X13368984Y53421573D01*
X13368984Y53421573D02*
X13368984Y53616811D01*
X13368984Y53616811D02*
X13408032Y53773001D01*
X13408032Y53773001D02*
X13447079Y53851097D01*
X13447079Y53851097D02*
X13486127Y53890144D01*
X13486127Y53890144D02*
X13564222Y53929192D01*
X12275651Y47109192D02*
X12002318Y47499668D01*
X11807080Y47109192D02*
X11807080Y47929192D01*
X11807080Y47929192D02*
X12119461Y47929192D01*
X12119461Y47929192D02*
X12197556Y47890144D01*
X12197556Y47890144D02*
X12236603Y47851097D01*
X12236603Y47851097D02*
X12275651Y47773001D01*
X12275651Y47773001D02*
X12275651Y47655859D01*
X12275651Y47655859D02*
X12236603Y47577763D01*
X12236603Y47577763D02*
X12197556Y47538716D01*
X12197556Y47538716D02*
X12119461Y47499668D01*
X12119461Y47499668D02*
X11807080Y47499668D01*
X12588032Y47851097D02*
X12627080Y47890144D01*
X12627080Y47890144D02*
X12705175Y47929192D01*
X12705175Y47929192D02*
X12900413Y47929192D01*
X12900413Y47929192D02*
X12978508Y47890144D01*
X12978508Y47890144D02*
X13017556Y47851097D01*
X13017556Y47851097D02*
X13056603Y47773001D01*
X13056603Y47773001D02*
X13056603Y47694906D01*
X13056603Y47694906D02*
X13017556Y47577763D01*
X13017556Y47577763D02*
X12548984Y47109192D01*
X12548984Y47109192D02*
X13056603Y47109192D01*
X13759460Y47929192D02*
X13603270Y47929192D01*
X13603270Y47929192D02*
X13525174Y47890144D01*
X13525174Y47890144D02*
X13486127Y47851097D01*
X13486127Y47851097D02*
X13408032Y47733954D01*
X13408032Y47733954D02*
X13368984Y47577763D01*
X13368984Y47577763D02*
X13368984Y47265382D01*
X13368984Y47265382D02*
X13408032Y47187287D01*
X13408032Y47187287D02*
X13447079Y47148239D01*
X13447079Y47148239D02*
X13525174Y47109192D01*
X13525174Y47109192D02*
X13681365Y47109192D01*
X13681365Y47109192D02*
X13759460Y47148239D01*
X13759460Y47148239D02*
X13798508Y47187287D01*
X13798508Y47187287D02*
X13837555Y47265382D01*
X13837555Y47265382D02*
X13837555Y47460620D01*
X13837555Y47460620D02*
X13798508Y47538716D01*
X13798508Y47538716D02*
X13759460Y47577763D01*
X13759460Y47577763D02*
X13681365Y47616811D01*
X13681365Y47616811D02*
X13525174Y47616811D01*
X13525174Y47616811D02*
X13447079Y47577763D01*
X13447079Y47577763D02*
X13408032Y47538716D01*
X13408032Y47538716D02*
X13368984Y47460620D01*
X12275651Y43109192D02*
X12002318Y43499668D01*
X11807080Y43109192D02*
X11807080Y43929192D01*
X11807080Y43929192D02*
X12119461Y43929192D01*
X12119461Y43929192D02*
X12197556Y43890144D01*
X12197556Y43890144D02*
X12236603Y43851097D01*
X12236603Y43851097D02*
X12275651Y43773001D01*
X12275651Y43773001D02*
X12275651Y43655859D01*
X12275651Y43655859D02*
X12236603Y43577763D01*
X12236603Y43577763D02*
X12197556Y43538716D01*
X12197556Y43538716D02*
X12119461Y43499668D01*
X12119461Y43499668D02*
X11807080Y43499668D01*
X12588032Y43851097D02*
X12627080Y43890144D01*
X12627080Y43890144D02*
X12705175Y43929192D01*
X12705175Y43929192D02*
X12900413Y43929192D01*
X12900413Y43929192D02*
X12978508Y43890144D01*
X12978508Y43890144D02*
X13017556Y43851097D01*
X13017556Y43851097D02*
X13056603Y43773001D01*
X13056603Y43773001D02*
X13056603Y43694906D01*
X13056603Y43694906D02*
X13017556Y43577763D01*
X13017556Y43577763D02*
X12548984Y43109192D01*
X12548984Y43109192D02*
X13056603Y43109192D01*
X13525174Y43577763D02*
X13447079Y43616811D01*
X13447079Y43616811D02*
X13408032Y43655859D01*
X13408032Y43655859D02*
X13368984Y43733954D01*
X13368984Y43733954D02*
X13368984Y43773001D01*
X13368984Y43773001D02*
X13408032Y43851097D01*
X13408032Y43851097D02*
X13447079Y43890144D01*
X13447079Y43890144D02*
X13525174Y43929192D01*
X13525174Y43929192D02*
X13681365Y43929192D01*
X13681365Y43929192D02*
X13759460Y43890144D01*
X13759460Y43890144D02*
X13798508Y43851097D01*
X13798508Y43851097D02*
X13837555Y43773001D01*
X13837555Y43773001D02*
X13837555Y43733954D01*
X13837555Y43733954D02*
X13798508Y43655859D01*
X13798508Y43655859D02*
X13759460Y43616811D01*
X13759460Y43616811D02*
X13681365Y43577763D01*
X13681365Y43577763D02*
X13525174Y43577763D01*
X13525174Y43577763D02*
X13447079Y43538716D01*
X13447079Y43538716D02*
X13408032Y43499668D01*
X13408032Y43499668D02*
X13368984Y43421573D01*
X13368984Y43421573D02*
X13368984Y43265382D01*
X13368984Y43265382D02*
X13408032Y43187287D01*
X13408032Y43187287D02*
X13447079Y43148239D01*
X13447079Y43148239D02*
X13525174Y43109192D01*
X13525174Y43109192D02*
X13681365Y43109192D01*
X13681365Y43109192D02*
X13759460Y43148239D01*
X13759460Y43148239D02*
X13798508Y43187287D01*
X13798508Y43187287D02*
X13837555Y43265382D01*
X13837555Y43265382D02*
X13837555Y43421573D01*
X13837555Y43421573D02*
X13798508Y43499668D01*
X13798508Y43499668D02*
X13759460Y43538716D01*
X13759460Y43538716D02*
X13681365Y43577763D01*
X63985651Y29687288D02*
X63946603Y29648240D01*
X63946603Y29648240D02*
X63829460Y29609193D01*
X63829460Y29609193D02*
X63751365Y29609193D01*
X63751365Y29609193D02*
X63634222Y29648240D01*
X63634222Y29648240D02*
X63556127Y29726336D01*
X63556127Y29726336D02*
X63517079Y29804431D01*
X63517079Y29804431D02*
X63478031Y29960622D01*
X63478031Y29960622D02*
X63478031Y30077765D01*
X63478031Y30077765D02*
X63517079Y30233955D01*
X63517079Y30233955D02*
X63556127Y30312051D01*
X63556127Y30312051D02*
X63634222Y30390146D01*
X63634222Y30390146D02*
X63751365Y30429194D01*
X63751365Y30429194D02*
X63829460Y30429194D01*
X63829460Y30429194D02*
X63946603Y30390146D01*
X63946603Y30390146D02*
X63985651Y30351098D01*
X64766604Y29609193D02*
X64298032Y29609193D01*
X64532318Y29609193D02*
X64532318Y30429194D01*
X64532318Y30429194D02*
X64454223Y30312051D01*
X64454223Y30312051D02*
X64376128Y30233955D01*
X64376128Y30233955D02*
X64298032Y30194908D01*
X65547557Y29609193D02*
X65078985Y29609193D01*
X65313271Y29609193D02*
X65313271Y30429194D01*
X65313271Y30429194D02*
X65235176Y30312051D01*
X65235176Y30312051D02*
X65157081Y30233955D01*
X65157081Y30233955D02*
X65078985Y30194908D01*
X12275651Y49109192D02*
X12002318Y49499668D01*
X11807080Y49109192D02*
X11807080Y49929192D01*
X11807080Y49929192D02*
X12119461Y49929192D01*
X12119461Y49929192D02*
X12197556Y49890144D01*
X12197556Y49890144D02*
X12236603Y49851097D01*
X12236603Y49851097D02*
X12275651Y49773001D01*
X12275651Y49773001D02*
X12275651Y49655859D01*
X12275651Y49655859D02*
X12236603Y49577763D01*
X12236603Y49577763D02*
X12197556Y49538716D01*
X12197556Y49538716D02*
X12119461Y49499668D01*
X12119461Y49499668D02*
X11807080Y49499668D01*
X12588032Y49851097D02*
X12627080Y49890144D01*
X12627080Y49890144D02*
X12705175Y49929192D01*
X12705175Y49929192D02*
X12900413Y49929192D01*
X12900413Y49929192D02*
X12978508Y49890144D01*
X12978508Y49890144D02*
X13017556Y49851097D01*
X13017556Y49851097D02*
X13056603Y49773001D01*
X13056603Y49773001D02*
X13056603Y49694906D01*
X13056603Y49694906D02*
X13017556Y49577763D01*
X13017556Y49577763D02*
X12548984Y49109192D01*
X12548984Y49109192D02*
X13056603Y49109192D01*
X13368984Y49851097D02*
X13408032Y49890144D01*
X13408032Y49890144D02*
X13486127Y49929192D01*
X13486127Y49929192D02*
X13681365Y49929192D01*
X13681365Y49929192D02*
X13759460Y49890144D01*
X13759460Y49890144D02*
X13798508Y49851097D01*
X13798508Y49851097D02*
X13837555Y49773001D01*
X13837555Y49773001D02*
X13837555Y49694906D01*
X13837555Y49694906D02*
X13798508Y49577763D01*
X13798508Y49577763D02*
X13329936Y49109192D01*
X13329936Y49109192D02*
X13837555Y49109192D01*
D10*
X17954166Y46568991D02*
X17620833Y46568991D01*
X17620833Y46045181D02*
X17620833Y47045181D01*
X17620833Y47045181D02*
X18097023Y47045181D01*
X18620833Y46616610D02*
X18525595Y46664229D01*
X18525595Y46664229D02*
X18477976Y46711848D01*
X18477976Y46711848D02*
X18430357Y46807086D01*
X18430357Y46807086D02*
X18430357Y46854705D01*
X18430357Y46854705D02*
X18477976Y46949943D01*
X18477976Y46949943D02*
X18525595Y46997562D01*
X18525595Y46997562D02*
X18620833Y47045181D01*
X18620833Y47045181D02*
X18811309Y47045181D01*
X18811309Y47045181D02*
X18906547Y46997562D01*
X18906547Y46997562D02*
X18954166Y46949943D01*
X18954166Y46949943D02*
X19001785Y46854705D01*
X19001785Y46854705D02*
X19001785Y46807086D01*
X19001785Y46807086D02*
X18954166Y46711848D01*
X18954166Y46711848D02*
X18906547Y46664229D01*
X18906547Y46664229D02*
X18811309Y46616610D01*
X18811309Y46616610D02*
X18620833Y46616610D01*
X18620833Y46616610D02*
X18525595Y46568991D01*
X18525595Y46568991D02*
X18477976Y46521372D01*
X18477976Y46521372D02*
X18430357Y46426134D01*
X18430357Y46426134D02*
X18430357Y46235658D01*
X18430357Y46235658D02*
X18477976Y46140420D01*
X18477976Y46140420D02*
X18525595Y46092800D01*
X18525595Y46092800D02*
X18620833Y46045181D01*
X18620833Y46045181D02*
X18811309Y46045181D01*
X18811309Y46045181D02*
X18906547Y46092800D01*
X18906547Y46092800D02*
X18954166Y46140420D01*
X18954166Y46140420D02*
X19001785Y46235658D01*
X19001785Y46235658D02*
X19001785Y46426134D01*
X19001785Y46426134D02*
X18954166Y46521372D01*
X18954166Y46521372D02*
X18906547Y46568991D01*
X18906547Y46568991D02*
X18811309Y46616610D01*
D14*
X3155651Y61547228D02*
X3116603Y61508180D01*
X3116603Y61508180D02*
X2999460Y61469133D01*
X2999460Y61469133D02*
X2921365Y61469133D01*
X2921365Y61469133D02*
X2804222Y61508180D01*
X2804222Y61508180D02*
X2726127Y61586276D01*
X2726127Y61586276D02*
X2687079Y61664371D01*
X2687079Y61664371D02*
X2648031Y61820562D01*
X2648031Y61820562D02*
X2648031Y61937705D01*
X2648031Y61937705D02*
X2687079Y62093895D01*
X2687079Y62093895D02*
X2726127Y62171991D01*
X2726127Y62171991D02*
X2804222Y62250086D01*
X2804222Y62250086D02*
X2921365Y62289134D01*
X2921365Y62289134D02*
X2999460Y62289134D01*
X2999460Y62289134D02*
X3116603Y62250086D01*
X3116603Y62250086D02*
X3155651Y62211038D01*
X3428985Y62289134D02*
X3936604Y62289134D01*
X3936604Y62289134D02*
X3663271Y61976752D01*
X3663271Y61976752D02*
X3780414Y61976752D01*
X3780414Y61976752D02*
X3858509Y61937705D01*
X3858509Y61937705D02*
X3897557Y61898657D01*
X3897557Y61898657D02*
X3936604Y61820562D01*
X3936604Y61820562D02*
X3936604Y61625323D01*
X3936604Y61625323D02*
X3897557Y61547228D01*
X3897557Y61547228D02*
X3858509Y61508180D01*
X3858509Y61508180D02*
X3780414Y61469133D01*
X3780414Y61469133D02*
X3546128Y61469133D01*
X3546128Y61469133D02*
X3468032Y61508180D01*
X3468032Y61508180D02*
X3428985Y61547228D01*
X4248985Y62211038D02*
X4288033Y62250086D01*
X4288033Y62250086D02*
X4366128Y62289134D01*
X4366128Y62289134D02*
X4561367Y62289134D01*
X4561367Y62289134D02*
X4639462Y62250086D01*
X4639462Y62250086D02*
X4678510Y62211038D01*
X4678510Y62211038D02*
X4717557Y62132943D01*
X4717557Y62132943D02*
X4717557Y62054848D01*
X4717557Y62054848D02*
X4678510Y61937705D01*
X4678510Y61937705D02*
X4209938Y61469133D01*
X4209938Y61469133D02*
X4717557Y61469133D01*
D10*
X15761905Y69045181D02*
X15761905Y70045181D01*
X15761905Y70045181D02*
X16095238Y69330896D01*
X16095238Y69330896D02*
X16428571Y70045181D01*
X16428571Y70045181D02*
X16428571Y69045181D01*
X16857143Y69330896D02*
X17333333Y69330896D01*
X16761905Y69045181D02*
X17095238Y70045181D01*
X17095238Y70045181D02*
X17428571Y69045181D01*
X17761905Y69045181D02*
X17761905Y70045181D01*
X17761905Y70045181D02*
X18142857Y70045181D01*
X18142857Y70045181D02*
X18238095Y69997562D01*
X18238095Y69997562D02*
X18285714Y69949943D01*
X18285714Y69949943D02*
X18333333Y69854705D01*
X18333333Y69854705D02*
X18333333Y69711848D01*
X18333333Y69711848D02*
X18285714Y69616610D01*
X18285714Y69616610D02*
X18238095Y69568991D01*
X18238095Y69568991D02*
X18142857Y69521372D01*
X18142857Y69521372D02*
X17761905Y69521372D01*
X19285714Y69045181D02*
X18714286Y69045181D01*
X19000000Y69045181D02*
X19000000Y70045181D01*
X19000000Y70045181D02*
X18904762Y69902324D01*
X18904762Y69902324D02*
X18809524Y69807086D01*
X18809524Y69807086D02*
X18714286Y69759467D01*
D14*
X63985651Y26687288D02*
X63946603Y26648240D01*
X63946603Y26648240D02*
X63829460Y26609193D01*
X63829460Y26609193D02*
X63751365Y26609193D01*
X63751365Y26609193D02*
X63634222Y26648240D01*
X63634222Y26648240D02*
X63556127Y26726336D01*
X63556127Y26726336D02*
X63517079Y26804431D01*
X63517079Y26804431D02*
X63478031Y26960622D01*
X63478031Y26960622D02*
X63478031Y27077765D01*
X63478031Y27077765D02*
X63517079Y27233955D01*
X63517079Y27233955D02*
X63556127Y27312051D01*
X63556127Y27312051D02*
X63634222Y27390146D01*
X63634222Y27390146D02*
X63751365Y27429194D01*
X63751365Y27429194D02*
X63829460Y27429194D01*
X63829460Y27429194D02*
X63946603Y27390146D01*
X63946603Y27390146D02*
X63985651Y27351098D01*
X64766604Y26609193D02*
X64298032Y26609193D01*
X64532318Y26609193D02*
X64532318Y27429194D01*
X64532318Y27429194D02*
X64454223Y27312051D01*
X64454223Y27312051D02*
X64376128Y27233955D01*
X64376128Y27233955D02*
X64298032Y27194908D01*
X65078985Y27351098D02*
X65118033Y27390146D01*
X65118033Y27390146D02*
X65196128Y27429194D01*
X65196128Y27429194D02*
X65391367Y27429194D01*
X65391367Y27429194D02*
X65469462Y27390146D01*
X65469462Y27390146D02*
X65508510Y27351098D01*
X65508510Y27351098D02*
X65547557Y27273003D01*
X65547557Y27273003D02*
X65547557Y27194908D01*
X65547557Y27194908D02*
X65508510Y27077765D01*
X65508510Y27077765D02*
X65039938Y26609193D01*
X65039938Y26609193D02*
X65547557Y26609193D01*
X64775651Y6609192D02*
X64502318Y6999668D01*
X64307080Y6609192D02*
X64307080Y7429192D01*
X64307080Y7429192D02*
X64619461Y7429192D01*
X64619461Y7429192D02*
X64697556Y7390144D01*
X64697556Y7390144D02*
X64736603Y7351097D01*
X64736603Y7351097D02*
X64775651Y7273001D01*
X64775651Y7273001D02*
X64775651Y7155859D01*
X64775651Y7155859D02*
X64736603Y7077763D01*
X64736603Y7077763D02*
X64697556Y7038716D01*
X64697556Y7038716D02*
X64619461Y6999668D01*
X64619461Y6999668D02*
X64307080Y6999668D01*
X65048984Y7429192D02*
X65556603Y7429192D01*
X65556603Y7429192D02*
X65283270Y7116811D01*
X65283270Y7116811D02*
X65400413Y7116811D01*
X65400413Y7116811D02*
X65478508Y7077763D01*
X65478508Y7077763D02*
X65517556Y7038716D01*
X65517556Y7038716D02*
X65556603Y6960620D01*
X65556603Y6960620D02*
X65556603Y6765382D01*
X65556603Y6765382D02*
X65517556Y6687287D01*
X65517556Y6687287D02*
X65478508Y6648239D01*
X65478508Y6648239D02*
X65400413Y6609192D01*
X65400413Y6609192D02*
X65166127Y6609192D01*
X65166127Y6609192D02*
X65088032Y6648239D01*
X65088032Y6648239D02*
X65048984Y6687287D01*
D15*
X58446768Y20746001D02*
X58446768Y20492001D01*
X58845911Y20492001D02*
X58083911Y20492001D01*
X58083911Y20492001D02*
X58083911Y20854858D01*
X58337911Y21471715D02*
X58845911Y21471715D01*
X58047626Y21290287D02*
X58591911Y21108858D01*
X58591911Y21108858D02*
X58591911Y21580573D01*
D10*
X17954166Y44568991D02*
X17620833Y44568991D01*
X17620833Y44045181D02*
X17620833Y45045181D01*
X17620833Y45045181D02*
X18097023Y45045181D01*
X18525595Y44045181D02*
X18716071Y44045181D01*
X18716071Y44045181D02*
X18811309Y44092800D01*
X18811309Y44092800D02*
X18858928Y44140420D01*
X18858928Y44140420D02*
X18954166Y44283277D01*
X18954166Y44283277D02*
X19001785Y44473753D01*
X19001785Y44473753D02*
X19001785Y44854705D01*
X19001785Y44854705D02*
X18954166Y44949943D01*
X18954166Y44949943D02*
X18906547Y44997562D01*
X18906547Y44997562D02*
X18811309Y45045181D01*
X18811309Y45045181D02*
X18620833Y45045181D01*
X18620833Y45045181D02*
X18525595Y44997562D01*
X18525595Y44997562D02*
X18477976Y44949943D01*
X18477976Y44949943D02*
X18430357Y44854705D01*
X18430357Y44854705D02*
X18430357Y44616610D01*
X18430357Y44616610D02*
X18477976Y44521372D01*
X18477976Y44521372D02*
X18525595Y44473753D01*
X18525595Y44473753D02*
X18620833Y44426134D01*
X18620833Y44426134D02*
X18811309Y44426134D01*
X18811309Y44426134D02*
X18906547Y44473753D01*
X18906547Y44473753D02*
X18954166Y44521372D01*
X18954166Y44521372D02*
X19001785Y44616610D01*
X17977976Y42568991D02*
X17644643Y42568991D01*
X17644643Y42045181D02*
X17644643Y43045181D01*
X17644643Y43045181D02*
X18120833Y43045181D01*
X19025595Y42045181D02*
X18454167Y42045181D01*
X18739881Y42045181D02*
X18739881Y43045181D01*
X18739881Y43045181D02*
X18644643Y42902324D01*
X18644643Y42902324D02*
X18549405Y42807086D01*
X18549405Y42807086D02*
X18454167Y42759467D01*
X19644643Y43045181D02*
X19739881Y43045181D01*
X19739881Y43045181D02*
X19835119Y42997562D01*
X19835119Y42997562D02*
X19882738Y42949943D01*
X19882738Y42949943D02*
X19930357Y42854705D01*
X19930357Y42854705D02*
X19977976Y42664229D01*
X19977976Y42664229D02*
X19977976Y42426134D01*
X19977976Y42426134D02*
X19930357Y42235658D01*
X19930357Y42235658D02*
X19882738Y42140420D01*
X19882738Y42140420D02*
X19835119Y42092800D01*
X19835119Y42092800D02*
X19739881Y42045181D01*
X19739881Y42045181D02*
X19644643Y42045181D01*
X19644643Y42045181D02*
X19549405Y42092800D01*
X19549405Y42092800D02*
X19501786Y42140420D01*
X19501786Y42140420D02*
X19454167Y42235658D01*
X19454167Y42235658D02*
X19406548Y42426134D01*
X19406548Y42426134D02*
X19406548Y42664229D01*
X19406548Y42664229D02*
X19454167Y42854705D01*
X19454167Y42854705D02*
X19501786Y42949943D01*
X19501786Y42949943D02*
X19549405Y42997562D01*
X19549405Y42997562D02*
X19644643Y43045181D01*
D15*
X70946768Y2746001D02*
X70946768Y2492001D01*
X71345911Y2492001D02*
X70583911Y2492001D01*
X70583911Y2492001D02*
X70583911Y2854858D01*
X70656483Y3108858D02*
X70620197Y3145144D01*
X70620197Y3145144D02*
X70583911Y3217715D01*
X70583911Y3217715D02*
X70583911Y3399144D01*
X70583911Y3399144D02*
X70620197Y3471715D01*
X70620197Y3471715D02*
X70656483Y3508001D01*
X70656483Y3508001D02*
X70729054Y3544287D01*
X70729054Y3544287D02*
X70801626Y3544287D01*
X70801626Y3544287D02*
X70910483Y3508001D01*
X70910483Y3508001D02*
X71345911Y3072573D01*
X71345911Y3072573D02*
X71345911Y3544287D01*
X58446768Y18246001D02*
X58446768Y17992001D01*
X58845911Y17992001D02*
X58083911Y17992001D01*
X58083911Y17992001D02*
X58083911Y18354858D01*
X58083911Y18572573D02*
X58083911Y19044287D01*
X58083911Y19044287D02*
X58374197Y18790287D01*
X58374197Y18790287D02*
X58374197Y18899144D01*
X58374197Y18899144D02*
X58410483Y18971715D01*
X58410483Y18971715D02*
X58446768Y19008001D01*
X58446768Y19008001D02*
X58519340Y19044287D01*
X58519340Y19044287D02*
X58700768Y19044287D01*
X58700768Y19044287D02*
X58773340Y19008001D01*
X58773340Y19008001D02*
X58809626Y18971715D01*
X58809626Y18971715D02*
X58845911Y18899144D01*
X58845911Y18899144D02*
X58845911Y18681430D01*
X58845911Y18681430D02*
X58809626Y18608858D01*
X58809626Y18608858D02*
X58773340Y18572573D01*
D10*
X72954819Y38261906D02*
X73764342Y38261906D01*
X73764342Y38261906D02*
X73859580Y38309525D01*
X73859580Y38309525D02*
X73907200Y38357144D01*
X73907200Y38357144D02*
X73954819Y38452382D01*
X73954819Y38452382D02*
X73954819Y38642858D01*
X73954819Y38642858D02*
X73907200Y38738096D01*
X73907200Y38738096D02*
X73859580Y38785715D01*
X73859580Y38785715D02*
X73764342Y38833334D01*
X73764342Y38833334D02*
X72954819Y38833334D01*
X73954819Y39833334D02*
X73954819Y39261906D01*
X73954819Y39547620D02*
X72954819Y39547620D01*
X72954819Y39547620D02*
X73097676Y39452382D01*
X73097676Y39452382D02*
X73192914Y39357144D01*
X73192914Y39357144D02*
X73240533Y39261906D01*
X73954819Y40785715D02*
X73954819Y40214287D01*
X73954819Y40500001D02*
X72954819Y40500001D01*
X72954819Y40500001D02*
X73097676Y40404763D01*
X73097676Y40404763D02*
X73192914Y40309525D01*
X73192914Y40309525D02*
X73240533Y40214287D01*
X17954166Y50568991D02*
X17620833Y50568991D01*
X17620833Y50045181D02*
X17620833Y51045181D01*
X17620833Y51045181D02*
X18097023Y51045181D01*
X18954166Y51045181D02*
X18477976Y51045181D01*
X18477976Y51045181D02*
X18430357Y50568991D01*
X18430357Y50568991D02*
X18477976Y50616610D01*
X18477976Y50616610D02*
X18573214Y50664229D01*
X18573214Y50664229D02*
X18811309Y50664229D01*
X18811309Y50664229D02*
X18906547Y50616610D01*
X18906547Y50616610D02*
X18954166Y50568991D01*
X18954166Y50568991D02*
X19001785Y50473753D01*
X19001785Y50473753D02*
X19001785Y50235658D01*
X19001785Y50235658D02*
X18954166Y50140420D01*
X18954166Y50140420D02*
X18906547Y50092800D01*
X18906547Y50092800D02*
X18811309Y50045181D01*
X18811309Y50045181D02*
X18573214Y50045181D01*
X18573214Y50045181D02*
X18477976Y50092800D01*
X18477976Y50092800D02*
X18430357Y50140420D01*
D14*
X12275651Y45109192D02*
X12002318Y45499668D01*
X11807080Y45109192D02*
X11807080Y45929192D01*
X11807080Y45929192D02*
X12119461Y45929192D01*
X12119461Y45929192D02*
X12197556Y45890144D01*
X12197556Y45890144D02*
X12236603Y45851097D01*
X12236603Y45851097D02*
X12275651Y45773001D01*
X12275651Y45773001D02*
X12275651Y45655859D01*
X12275651Y45655859D02*
X12236603Y45577763D01*
X12236603Y45577763D02*
X12197556Y45538716D01*
X12197556Y45538716D02*
X12119461Y45499668D01*
X12119461Y45499668D02*
X11807080Y45499668D01*
X12588032Y45851097D02*
X12627080Y45890144D01*
X12627080Y45890144D02*
X12705175Y45929192D01*
X12705175Y45929192D02*
X12900413Y45929192D01*
X12900413Y45929192D02*
X12978508Y45890144D01*
X12978508Y45890144D02*
X13017556Y45851097D01*
X13017556Y45851097D02*
X13056603Y45773001D01*
X13056603Y45773001D02*
X13056603Y45694906D01*
X13056603Y45694906D02*
X13017556Y45577763D01*
X13017556Y45577763D02*
X12548984Y45109192D01*
X12548984Y45109192D02*
X13056603Y45109192D01*
X13329936Y45929192D02*
X13876603Y45929192D01*
X13876603Y45929192D02*
X13525174Y45109192D01*
X82275651Y15109192D02*
X82002318Y15499668D01*
X81807080Y15109192D02*
X81807080Y15929192D01*
X81807080Y15929192D02*
X82119461Y15929192D01*
X82119461Y15929192D02*
X82197556Y15890144D01*
X82197556Y15890144D02*
X82236603Y15851097D01*
X82236603Y15851097D02*
X82275651Y15773001D01*
X82275651Y15773001D02*
X82275651Y15655859D01*
X82275651Y15655859D02*
X82236603Y15577763D01*
X82236603Y15577763D02*
X82197556Y15538716D01*
X82197556Y15538716D02*
X82119461Y15499668D01*
X82119461Y15499668D02*
X81807080Y15499668D01*
X83056603Y15109192D02*
X82588032Y15109192D01*
X82822318Y15109192D02*
X82822318Y15929192D01*
X82822318Y15929192D02*
X82744222Y15812049D01*
X82744222Y15812049D02*
X82666127Y15733954D01*
X82666127Y15733954D02*
X82588032Y15694906D01*
X83759460Y15655859D02*
X83759460Y15109192D01*
X83564222Y15968239D02*
X83368984Y15382525D01*
X83368984Y15382525D02*
X83876603Y15382525D01*
X63775652Y15187288D02*
X63736604Y15148240D01*
X63736604Y15148240D02*
X63619461Y15109193D01*
X63619461Y15109193D02*
X63541366Y15109193D01*
X63541366Y15109193D02*
X63424223Y15148240D01*
X63424223Y15148240D02*
X63346128Y15226336D01*
X63346128Y15226336D02*
X63307080Y15304431D01*
X63307080Y15304431D02*
X63268032Y15460622D01*
X63268032Y15460622D02*
X63268032Y15577765D01*
X63268032Y15577765D02*
X63307080Y15733955D01*
X63307080Y15733955D02*
X63346128Y15812051D01*
X63346128Y15812051D02*
X63424223Y15890146D01*
X63424223Y15890146D02*
X63541366Y15929194D01*
X63541366Y15929194D02*
X63619461Y15929194D01*
X63619461Y15929194D02*
X63736604Y15890146D01*
X63736604Y15890146D02*
X63775652Y15851098D01*
X64088033Y15851098D02*
X64127081Y15890146D01*
X64127081Y15890146D02*
X64205176Y15929194D01*
X64205176Y15929194D02*
X64400415Y15929194D01*
X64400415Y15929194D02*
X64478510Y15890146D01*
X64478510Y15890146D02*
X64517558Y15851098D01*
X64517558Y15851098D02*
X64556605Y15773003D01*
X64556605Y15773003D02*
X64556605Y15694908D01*
X64556605Y15694908D02*
X64517558Y15577765D01*
X64517558Y15577765D02*
X64048986Y15109193D01*
X64048986Y15109193D02*
X64556605Y15109193D01*
X65259463Y15655860D02*
X65259463Y15109193D01*
X65064225Y15968241D02*
X64868986Y15382526D01*
X64868986Y15382526D02*
X65376606Y15382526D01*
D10*
X85976190Y53092800D02*
X86119047Y53045181D01*
X86119047Y53045181D02*
X86357142Y53045181D01*
X86357142Y53045181D02*
X86452380Y53092800D01*
X86452380Y53092800D02*
X86499999Y53140420D01*
X86499999Y53140420D02*
X86547618Y53235658D01*
X86547618Y53235658D02*
X86547618Y53330896D01*
X86547618Y53330896D02*
X86499999Y53426134D01*
X86499999Y53426134D02*
X86452380Y53473753D01*
X86452380Y53473753D02*
X86357142Y53521372D01*
X86357142Y53521372D02*
X86166666Y53568991D01*
X86166666Y53568991D02*
X86071428Y53616610D01*
X86071428Y53616610D02*
X86023809Y53664229D01*
X86023809Y53664229D02*
X85976190Y53759467D01*
X85976190Y53759467D02*
X85976190Y53854705D01*
X85976190Y53854705D02*
X86023809Y53949943D01*
X86023809Y53949943D02*
X86071428Y53997562D01*
X86071428Y53997562D02*
X86166666Y54045181D01*
X86166666Y54045181D02*
X86404761Y54045181D01*
X86404761Y54045181D02*
X86547618Y53997562D01*
X86928571Y53330896D02*
X87404761Y53330896D01*
X86833333Y53045181D02*
X87166666Y54045181D01*
X87166666Y54045181D02*
X87499999Y53045181D01*
X88357142Y53997562D02*
X88261904Y54045181D01*
X88261904Y54045181D02*
X88119047Y54045181D01*
X88119047Y54045181D02*
X87976190Y53997562D01*
X87976190Y53997562D02*
X87880952Y53902324D01*
X87880952Y53902324D02*
X87833333Y53807086D01*
X87833333Y53807086D02*
X87785714Y53616610D01*
X87785714Y53616610D02*
X87785714Y53473753D01*
X87785714Y53473753D02*
X87833333Y53283277D01*
X87833333Y53283277D02*
X87880952Y53188039D01*
X87880952Y53188039D02*
X87976190Y53092800D01*
X87976190Y53092800D02*
X88119047Y53045181D01*
X88119047Y53045181D02*
X88214285Y53045181D01*
X88214285Y53045181D02*
X88357142Y53092800D01*
X88357142Y53092800D02*
X88404761Y53140420D01*
X88404761Y53140420D02*
X88404761Y53473753D01*
X88404761Y53473753D02*
X88214285Y53473753D01*
X88785714Y53092800D02*
X88928571Y53045181D01*
X88928571Y53045181D02*
X89166666Y53045181D01*
X89166666Y53045181D02*
X89261904Y53092800D01*
X89261904Y53092800D02*
X89309523Y53140420D01*
X89309523Y53140420D02*
X89357142Y53235658D01*
X89357142Y53235658D02*
X89357142Y53330896D01*
X89357142Y53330896D02*
X89309523Y53426134D01*
X89309523Y53426134D02*
X89261904Y53473753D01*
X89261904Y53473753D02*
X89166666Y53521372D01*
X89166666Y53521372D02*
X88976190Y53568991D01*
X88976190Y53568991D02*
X88880952Y53616610D01*
X88880952Y53616610D02*
X88833333Y53664229D01*
X88833333Y53664229D02*
X88785714Y53759467D01*
X88785714Y53759467D02*
X88785714Y53854705D01*
X88785714Y53854705D02*
X88833333Y53949943D01*
X88833333Y53949943D02*
X88880952Y53997562D01*
X88880952Y53997562D02*
X88976190Y54045181D01*
X88976190Y54045181D02*
X89214285Y54045181D01*
X89214285Y54045181D02*
X89357142Y53997562D01*
X89976190Y54045181D02*
X90166666Y54045181D01*
X90166666Y54045181D02*
X90261904Y53997562D01*
X90261904Y53997562D02*
X90357142Y53902324D01*
X90357142Y53902324D02*
X90404761Y53711848D01*
X90404761Y53711848D02*
X90404761Y53378515D01*
X90404761Y53378515D02*
X90357142Y53188039D01*
X90357142Y53188039D02*
X90261904Y53092800D01*
X90261904Y53092800D02*
X90166666Y53045181D01*
X90166666Y53045181D02*
X89976190Y53045181D01*
X89976190Y53045181D02*
X89880952Y53092800D01*
X89880952Y53092800D02*
X89785714Y53188039D01*
X89785714Y53188039D02*
X89738095Y53378515D01*
X89738095Y53378515D02*
X89738095Y53711848D01*
X89738095Y53711848D02*
X89785714Y53902324D01*
X89785714Y53902324D02*
X89880952Y53997562D01*
X89880952Y53997562D02*
X89976190Y54045181D01*
X90833333Y53045181D02*
X90833333Y54045181D01*
X91404761Y53045181D02*
X90976190Y53616610D01*
X91404761Y54045181D02*
X90833333Y53473753D01*
X91833333Y53568991D02*
X92166666Y53568991D01*
X92309523Y53045181D02*
X91833333Y53045181D01*
X91833333Y53045181D02*
X91833333Y54045181D01*
X91833333Y54045181D02*
X92309523Y54045181D01*
X92595238Y54045181D02*
X93166666Y54045181D01*
X92880952Y53045181D02*
X92880952Y54045181D01*
X94023809Y53045181D02*
X93452381Y53045181D01*
X93738095Y53045181D02*
X93738095Y54045181D01*
X93738095Y54045181D02*
X93642857Y53902324D01*
X93642857Y53902324D02*
X93547619Y53807086D01*
X93547619Y53807086D02*
X93452381Y53759467D01*
X706190Y53592800D02*
X849047Y53545181D01*
X849047Y53545181D02*
X1087142Y53545181D01*
X1087142Y53545181D02*
X1182380Y53592800D01*
X1182380Y53592800D02*
X1229999Y53640420D01*
X1229999Y53640420D02*
X1277618Y53735658D01*
X1277618Y53735658D02*
X1277618Y53830896D01*
X1277618Y53830896D02*
X1229999Y53926134D01*
X1229999Y53926134D02*
X1182380Y53973753D01*
X1182380Y53973753D02*
X1087142Y54021372D01*
X1087142Y54021372D02*
X896666Y54068991D01*
X896666Y54068991D02*
X801428Y54116610D01*
X801428Y54116610D02*
X753809Y54164229D01*
X753809Y54164229D02*
X706190Y54259467D01*
X706190Y54259467D02*
X706190Y54354705D01*
X706190Y54354705D02*
X753809Y54449943D01*
X753809Y54449943D02*
X801428Y54497562D01*
X801428Y54497562D02*
X896666Y54545181D01*
X896666Y54545181D02*
X1134761Y54545181D01*
X1134761Y54545181D02*
X1277618Y54497562D01*
X1896666Y54545181D02*
X2087142Y54545181D01*
X2087142Y54545181D02*
X2182380Y54497562D01*
X2182380Y54497562D02*
X2277618Y54402324D01*
X2277618Y54402324D02*
X2325237Y54211848D01*
X2325237Y54211848D02*
X2325237Y53878515D01*
X2325237Y53878515D02*
X2277618Y53688039D01*
X2277618Y53688039D02*
X2182380Y53592800D01*
X2182380Y53592800D02*
X2087142Y53545181D01*
X2087142Y53545181D02*
X1896666Y53545181D01*
X1896666Y53545181D02*
X1801428Y53592800D01*
X1801428Y53592800D02*
X1706190Y53688039D01*
X1706190Y53688039D02*
X1658571Y53878515D01*
X1658571Y53878515D02*
X1658571Y54211848D01*
X1658571Y54211848D02*
X1706190Y54402324D01*
X1706190Y54402324D02*
X1801428Y54497562D01*
X1801428Y54497562D02*
X1896666Y54545181D01*
X3229999Y53545181D02*
X2753809Y53545181D01*
X2753809Y53545181D02*
X2753809Y54545181D01*
X3515714Y53592800D02*
X3658571Y53545181D01*
X3658571Y53545181D02*
X3896666Y53545181D01*
X3896666Y53545181D02*
X3991904Y53592800D01*
X3991904Y53592800D02*
X4039523Y53640420D01*
X4039523Y53640420D02*
X4087142Y53735658D01*
X4087142Y53735658D02*
X4087142Y53830896D01*
X4087142Y53830896D02*
X4039523Y53926134D01*
X4039523Y53926134D02*
X3991904Y53973753D01*
X3991904Y53973753D02*
X3896666Y54021372D01*
X3896666Y54021372D02*
X3706190Y54068991D01*
X3706190Y54068991D02*
X3610952Y54116610D01*
X3610952Y54116610D02*
X3563333Y54164229D01*
X3563333Y54164229D02*
X3515714Y54259467D01*
X3515714Y54259467D02*
X3515714Y54354705D01*
X3515714Y54354705D02*
X3563333Y54449943D01*
X3563333Y54449943D02*
X3610952Y54497562D01*
X3610952Y54497562D02*
X3706190Y54545181D01*
X3706190Y54545181D02*
X3944285Y54545181D01*
X3944285Y54545181D02*
X4087142Y54497562D01*
X4706190Y54545181D02*
X4896666Y54545181D01*
X4896666Y54545181D02*
X4991904Y54497562D01*
X4991904Y54497562D02*
X5087142Y54402324D01*
X5087142Y54402324D02*
X5134761Y54211848D01*
X5134761Y54211848D02*
X5134761Y53878515D01*
X5134761Y53878515D02*
X5087142Y53688039D01*
X5087142Y53688039D02*
X4991904Y53592800D01*
X4991904Y53592800D02*
X4896666Y53545181D01*
X4896666Y53545181D02*
X4706190Y53545181D01*
X4706190Y53545181D02*
X4610952Y53592800D01*
X4610952Y53592800D02*
X4515714Y53688039D01*
X4515714Y53688039D02*
X4468095Y53878515D01*
X4468095Y53878515D02*
X4468095Y54211848D01*
X4468095Y54211848D02*
X4515714Y54402324D01*
X4515714Y54402324D02*
X4610952Y54497562D01*
X4610952Y54497562D02*
X4706190Y54545181D01*
X5563333Y53545181D02*
X5563333Y54545181D01*
X6134761Y53545181D02*
X5706190Y54116610D01*
X6134761Y54545181D02*
X5563333Y53973753D01*
X6563333Y54068991D02*
X6896666Y54068991D01*
X7039523Y53545181D02*
X6563333Y53545181D01*
X6563333Y53545181D02*
X6563333Y54545181D01*
X6563333Y54545181D02*
X7039523Y54545181D01*
X7325238Y54545181D02*
X7896666Y54545181D01*
X7610952Y53545181D02*
X7610952Y54545181D01*
X8753809Y53545181D02*
X8182381Y53545181D01*
X8468095Y53545181D02*
X8468095Y54545181D01*
X8468095Y54545181D02*
X8372857Y54402324D01*
X8372857Y54402324D02*
X8277619Y54307086D01*
X8277619Y54307086D02*
X8182381Y54259467D01*
D16*
G04 #@! TO.C,C28*
X6500000Y68349986D02*
X6500000Y67600001D01*
G04 #@! TO.C,M1*
X39475002Y2800001D02*
X39475002Y2500003D01*
X39475004Y21650003D02*
X39474999Y20100003D01*
X39475004Y18100001D02*
X39475004Y16999998D01*
X39475004Y15400003D02*
X39475004Y12700003D01*
X39475004Y9200001D02*
X39475004Y4400001D01*
X54775001Y2500005D02*
X39475002Y2500003D01*
X56275001Y23100003D02*
X40875001Y23100003D01*
X56275001Y23100003D02*
X56275001Y22800003D01*
X56275001Y21200003D02*
X56275001Y10800001D01*
X56275001Y9100003D02*
X56275001Y5900000D01*
D17*
G04 #@! TO.C,F6*
X15624721Y53010000D02*
X15950279Y53010000D01*
X15624721Y51990000D02*
X15950279Y51990000D01*
G04 #@! TO.C,BLUETOOTH1*
X89670000Y73770000D02*
X89670000Y66090000D01*
X89670000Y73770000D02*
X92330000Y73770000D01*
X89670000Y66090000D02*
X92330000Y66090000D01*
X91000000Y76370000D02*
X92330000Y76370000D01*
X92330000Y76370000D02*
X92330000Y75040000D01*
X92330000Y73770000D02*
X92330000Y66090000D01*
G04 #@! TO.C,L1*
X5990000Y58549721D02*
X5990000Y58875279D01*
X7010000Y58549721D02*
X7010000Y58875279D01*
D18*
G04 #@! TO.C,R9*
X82798944Y28129160D02*
X83198943Y28129149D01*
X82800000Y28874995D02*
X83200000Y28874985D01*
D17*
G04 #@! TO.C,USB1*
X82440000Y62410000D02*
X82440000Y57690000D01*
X82440000Y60300000D02*
X83050000Y60300000D01*
X82440000Y59000000D02*
X83050000Y59000000D01*
X82440000Y57690000D02*
X92560000Y57690000D01*
X83050000Y61800000D02*
X83050000Y58300000D01*
X83050000Y58300000D02*
X85000000Y58300000D01*
X85000000Y58300000D02*
X85000000Y57690000D01*
X85400000Y61300000D02*
X85400000Y61800000D01*
X85500000Y61800000D02*
X85500000Y61300000D01*
X85600000Y61800000D02*
X85600000Y61300000D01*
X85600000Y61300000D02*
X85400000Y61300000D01*
X87400000Y61300000D02*
X87400000Y61800000D01*
X87500000Y61800000D02*
X87500000Y61300000D01*
X87600000Y61800000D02*
X87600000Y61300000D01*
X87600000Y61300000D02*
X87400000Y61300000D01*
X89400000Y61300000D02*
X89400000Y61800000D01*
X89500000Y61800000D02*
X89500000Y61300000D01*
X89600000Y61800000D02*
X89600000Y61300000D01*
X89600000Y61300000D02*
X89400000Y61300000D01*
X90000000Y58300000D02*
X91950000Y58300000D01*
X90000000Y57690000D02*
X90000000Y58300000D01*
X90800000Y57690000D02*
X90800000Y57490000D01*
X90800000Y57590000D02*
X91100000Y57590000D01*
X90800000Y57490000D02*
X91100000Y57490000D01*
X91100000Y57490000D02*
X91100000Y57690000D01*
X91610000Y57390000D02*
X92860000Y57390000D01*
X91950000Y61800000D02*
X83050000Y61800000D01*
X91950000Y58300000D02*
X91950000Y61800000D01*
X92560000Y62410000D02*
X82440000Y62410000D01*
X92560000Y60300000D02*
X91950000Y60300000D01*
X92560000Y59000000D02*
X91950000Y59000000D01*
X92560000Y57690000D02*
X92560000Y62410000D01*
X92860000Y57390000D02*
X92860000Y58640000D01*
D10*
G04 #@! TO.C,U1*
X69925000Y30350000D02*
X71475000Y30350000D01*
X69925000Y30100000D02*
X69925000Y30350000D01*
X69975000Y23900000D02*
X69975000Y23650000D01*
X69975000Y23650000D02*
X71525000Y23650000D01*
X77775000Y30350000D02*
X76225000Y30350000D01*
X77775000Y30100000D02*
X77775000Y30350000D01*
X77775000Y23900000D02*
X77775000Y23650000D01*
X77775000Y23650000D02*
X76225000Y23650000D01*
D17*
X69075000Y30100000D02*
X68835000Y30430000D01*
X69315000Y30430000D01*
X69075000Y30100000D01*
G36*
X69075000Y30100000D02*
G01*
X68835000Y30430000D01*
X69315000Y30430000D01*
X69075000Y30100000D01*
G37*
D16*
G04 #@! TO.C,C31*
X6500000Y63879986D02*
X6500000Y63130001D01*
G04 #@! TO.C,R8*
X13795611Y32341217D02*
X14195611Y32341217D01*
X13800000Y33644145D02*
X14200000Y33644145D01*
G04 #@! TO.C,C29*
X6500000Y66879986D02*
X6500000Y66130001D01*
G04 #@! TO.C,C30*
X6500000Y65379986D02*
X6500000Y64630001D01*
G04 #@! TO.C,R7*
X13795611Y34844145D02*
X14195611Y34844145D01*
X13800000Y36147073D02*
X14200000Y36147073D01*
G04 #@! TO.C,M2*
X16574999Y40425000D02*
X16574999Y31325000D01*
X16574999Y40425000D02*
X17575001Y40425000D01*
X19675002Y40425000D02*
X19675002Y31325000D01*
D10*
G04 #@! TO.C,U2*
X69850000Y15850000D02*
X71400000Y15850000D01*
X69850000Y15600000D02*
X69850000Y15850000D01*
X69900000Y9400000D02*
X69900000Y9150000D01*
X69900000Y9150000D02*
X71450000Y9150000D01*
X77700000Y15850000D02*
X76150000Y15850000D01*
X77700000Y15600000D02*
X77700000Y15850000D01*
X77700000Y9400000D02*
X77700000Y9150000D01*
X77700000Y9150000D02*
X76150000Y9150000D01*
D17*
X69000000Y15600000D02*
X68760000Y15930000D01*
X69240000Y15930000D01*
X69000000Y15600000D01*
G36*
X69000000Y15600000D02*
G01*
X68760000Y15930000D01*
X69240000Y15930000D01*
X69000000Y15600000D01*
G37*
D18*
G04 #@! TO.C,R21*
X12586444Y50129160D02*
X12986443Y50129149D01*
X12587500Y50874995D02*
X12987500Y50874985D01*
D16*
G04 #@! TO.C,C13*
X82500000Y24150014D02*
X82500000Y24899999D01*
G04 #@! TO.C,C27*
X6500000Y69849986D02*
X6500000Y69100001D01*
G04 #@! TO.C,C25*
X64500000Y11349986D02*
X64500000Y10600001D01*
D17*
G04 #@! TO.C,F1*
X77400000Y6500000D02*
X72550000Y6500000D01*
X77400000Y4500000D02*
X72550000Y4500000D01*
X72550000Y4500000D02*
G75*
G02*
X72550000Y6500000I0J1000000D01*
G01*
X77450000Y6500000D02*
G75*
G02*
X77450000Y4500000I0J-1000000D01*
G01*
G04 #@! TO.C,U4*
X13000000Y68060000D02*
X11050000Y68060000D01*
X13000000Y68060000D02*
X14950000Y68060000D01*
X13000000Y62940000D02*
X11050000Y62940000D01*
X13000000Y62940000D02*
X14950000Y62940000D01*
X10300000Y67965000D02*
X10060000Y68295000D01*
X10540000Y68295000D01*
X10300000Y67965000D01*
G36*
X10300000Y67965000D02*
G01*
X10060000Y68295000D01*
X10540000Y68295000D01*
X10300000Y67965000D01*
G37*
G04 #@! TO.C,D8*
X7940000Y58500000D02*
X7940000Y59150000D01*
X7940000Y58500000D02*
X7940000Y57850000D01*
X11060000Y58500000D02*
X11060000Y59150000D01*
X11060000Y58500000D02*
X11060000Y57850000D01*
X11340000Y59422500D02*
X11010000Y59662500D01*
X11340000Y59902500D01*
X11340000Y59422500D01*
G36*
X11340000Y59422500D02*
G01*
X11010000Y59662500D01*
X11340000Y59902500D01*
X11340000Y59422500D01*
G37*
G04 #@! TO.C,U9*
X73500000Y57060000D02*
X71550000Y57060000D01*
X73500000Y57060000D02*
X75450000Y57060000D01*
X73500000Y51940000D02*
X71550000Y51940000D01*
X73500000Y51940000D02*
X75450000Y51940000D01*
X70800000Y56965000D02*
X70560000Y57295000D01*
X71040000Y57295000D01*
X70800000Y56965000D01*
G36*
X70800000Y56965000D02*
G01*
X70560000Y57295000D01*
X71040000Y57295000D01*
X70800000Y56965000D01*
G37*
G04 #@! TO.C,L2*
X11990000Y58549721D02*
X11990000Y58875279D01*
X13010000Y58549721D02*
X13010000Y58875279D01*
G04 #@! TO.C,U10*
X73500000Y49560000D02*
X71550000Y49560000D01*
X73500000Y49560000D02*
X75450000Y49560000D01*
X73500000Y44440000D02*
X71550000Y44440000D01*
X73500000Y44440000D02*
X75450000Y44440000D01*
X70800000Y49465000D02*
X70560000Y49795000D01*
X71040000Y49795000D01*
X70800000Y49465000D01*
G36*
X70800000Y49465000D02*
G01*
X70560000Y49795000D01*
X71040000Y49795000D01*
X70800000Y49465000D01*
G37*
D16*
G04 #@! TO.C,CAN1*
X27537499Y77529142D02*
X38712499Y77567989D01*
X27537499Y71831661D02*
X27537499Y77529142D01*
X27537499Y71831661D02*
X27812503Y71556657D01*
X27812503Y70681663D02*
X27812503Y71556657D01*
X27812503Y70681663D02*
X27812505Y70681660D01*
X27812505Y70681660D02*
X38712499Y70681660D01*
X38712499Y70681660D02*
X38712499Y77567989D01*
G04 #@! TO.C,MCU1*
X21699990Y66899980D02*
X55500000Y66899980D01*
X21699990Y31099990D02*
X21699990Y66899980D01*
X21699990Y31099990D02*
X55499990Y31099990D01*
X55500000Y31099990D02*
X55500000Y66899980D01*
D17*
G04 #@! TO.C,F7*
X15624721Y49010000D02*
X15950279Y49010000D01*
X15624721Y47990000D02*
X15950279Y47990000D01*
D19*
G04 #@! TO.C,R4*
X46381000Y72800000D02*
X47397000Y72800000D01*
X47397000Y71200000D02*
X46381000Y71200000D01*
X48413000Y72800000D02*
X49429000Y72800000D01*
X49429000Y71200000D02*
X48413000Y71200000D01*
D17*
X46330000Y71200000D02*
G75*
G02*
X46326000Y72801638I-330000J800000D01*
G01*
X49488602Y72803495D02*
G75*
G02*
X49480000Y71200000I321398J-803495D01*
G01*
D18*
G04 #@! TO.C,R2*
X62498944Y8129160D02*
X62898943Y8129149D01*
X62500000Y8874995D02*
X62900000Y8874985D01*
D16*
G04 #@! TO.C,C26*
X82500000Y9650014D02*
X82500000Y10399999D01*
D18*
G04 #@! TO.C,R6*
X17798944Y29129160D02*
X18198943Y29129149D01*
X17800000Y29874995D02*
X18200000Y29874985D01*
G04 #@! TO.C,R20*
X12586444Y52129160D02*
X12986443Y52129149D01*
X12587500Y52874995D02*
X12987500Y52874985D01*
G04 #@! TO.C,R26*
X12586444Y46129160D02*
X12986443Y46129149D01*
X12587500Y46874995D02*
X12987500Y46874985D01*
G04 #@! TO.C,R28*
X12586444Y42129160D02*
X12986443Y42129149D01*
X12587500Y42874995D02*
X12987500Y42874985D01*
D16*
G04 #@! TO.C,C11*
X64709999Y28849986D02*
X64709999Y28100001D01*
D18*
G04 #@! TO.C,R22*
X12586444Y48129160D02*
X12986443Y48129149D01*
X12587500Y48874995D02*
X12987500Y48874985D01*
D17*
G04 #@! TO.C,F8*
X15624721Y47010000D02*
X15950279Y47010000D01*
X15624721Y45990000D02*
X15950279Y45990000D01*
D16*
G04 #@! TO.C,C32*
X6500000Y62379986D02*
X6500000Y61630001D01*
D15*
G04 #@! TO.C,MAP1*
X13817500Y77682500D02*
X13817500Y76520000D01*
X13817500Y70317500D02*
X13817500Y71480000D01*
X21182500Y77682500D02*
X13817500Y77682500D01*
X21182500Y77682500D02*
X21182500Y76520000D01*
X21182500Y70317500D02*
X13817500Y70317500D01*
X21182500Y70317500D02*
X21182500Y71480000D01*
D16*
X23900000Y71505000D02*
G75*
G02*
X23700000Y71505000I-100000J0D01*
G01*
X23700000Y71505000D02*
G75*
G02*
X23900000Y71505000I100000J0D01*
G01*
G04 #@! TO.C,C12*
X64709999Y25849986D02*
X64709999Y25100001D01*
D18*
G04 #@! TO.C,R3*
X62900000Y6625005D02*
X62500000Y6625015D01*
X62901056Y7370840D02*
X62501057Y7370851D01*
D17*
G04 #@! TO.C,F4*
X60100000Y22000000D02*
X64950000Y22000000D01*
X60100000Y20000000D02*
X64950000Y20000000D01*
X60050000Y20000000D02*
G75*
G02*
X60050000Y22000000I0J1000000D01*
G01*
X64950000Y22000000D02*
G75*
G02*
X64950000Y20000000I0J-1000000D01*
G01*
G04 #@! TO.C,F9*
X15624721Y45010000D02*
X15950279Y45010000D01*
X15624721Y43990000D02*
X15950279Y43990000D01*
G04 #@! TO.C,F10*
X15624721Y43010000D02*
X15950279Y43010000D01*
X15624721Y41990000D02*
X15950279Y41990000D01*
G04 #@! TO.C,F2*
X72600000Y4000000D02*
X77450000Y4000000D01*
X72600000Y2000000D02*
X77450000Y2000000D01*
X72550000Y2000000D02*
G75*
G02*
X72550000Y4000000I0J1000000D01*
G01*
X77450000Y4000000D02*
G75*
G02*
X77450000Y2000000I0J-1000000D01*
G01*
G04 #@! TO.C,F3*
X60100000Y19500000D02*
X64950000Y19500000D01*
X60100000Y17500000D02*
X64950000Y17500000D01*
X60050000Y17500000D02*
G75*
G02*
X60050000Y19500000I0J1000000D01*
G01*
X64950000Y19500000D02*
G75*
G02*
X64950000Y17500000I0J-1000000D01*
G01*
G04 #@! TO.C,U11*
X73500000Y42060000D02*
X71550000Y42060000D01*
X73500000Y42060000D02*
X75450000Y42060000D01*
X73500000Y36940000D02*
X71550000Y36940000D01*
X73500000Y36940000D02*
X75450000Y36940000D01*
X70800000Y41965000D02*
X70560000Y42295000D01*
X71040000Y42295000D01*
X70800000Y41965000D01*
G36*
X70800000Y41965000D02*
G01*
X70560000Y42295000D01*
X71040000Y42295000D01*
X70800000Y41965000D01*
G37*
G04 #@! TO.C,F5*
X15624721Y51010000D02*
X15950279Y51010000D01*
X15624721Y49990000D02*
X15950279Y49990000D01*
D18*
G04 #@! TO.C,R27*
X12586444Y44129160D02*
X12986443Y44129149D01*
X12587500Y44874995D02*
X12987500Y44874985D01*
G04 #@! TO.C,R14*
X82298944Y13629160D02*
X82698943Y13629149D01*
X82300000Y14374995D02*
X82700000Y14374985D01*
D16*
G04 #@! TO.C,C24*
X64500000Y14349986D02*
X64500000Y13600001D01*
G04 #@! TO.C,R5*
X13795611Y37347073D02*
X14195611Y37347073D01*
X13800000Y38650001D02*
X14200000Y38650001D01*
G04 #@! TO.C,M4*
X65050000Y76482500D02*
X65050000Y71382500D01*
X65650000Y66882500D02*
X80050000Y66882500D01*
X80050000Y76482500D02*
X65050000Y76482500D01*
X80050000Y76482500D02*
X80050000Y75182500D01*
X80050000Y66882500D02*
X80050000Y73282500D01*
G04 #@! TD*
M02*
