M48
; DRILL file {KiCad 8.0.7-8.0.7-0~ubuntu24.04.1} date 2025-01-03T15:31:29+0000
; FORMAT={2:4/ absolute / inch / suppress leading zeros}
; #@! TF.CreationDate,2025-01-03T15:31:29+00:00
; #@! TF.GenerationSoftware,Kicad,Pcbnew,8.0.7-8.0.7-0~ubuntu24.04.1
; #@! TF.FileFunction,MixedPlating,1,4
FMAT,2
INCH,TZ
; #@! TA.AperFunction,Plated,PTH,ComponentDrill
T1C0.0118
; #@! TA.AperFunction,Plated,PTH,ComponentDrill
T2C0.0118
; #@! TA.AperFunction,Plated,PTH,ViaDrill
T3C0.0157
; #@! TA.AperFunction,Plated,PTH,ComponentDrill
T4C0.0295
; #@! TA.AperFunction,Plated,PTH,ComponentDrill
T5C0.0320
; #@! TA.AperFunction,Plated,PTH,ComponentDrill
T6C0.0394
%
G90
G05
T1
X13489Y28536
X13834Y28329
X13922Y30229
X13952Y28831
T2
X6762Y12411
X7136Y12411
X7156Y15837
X7510Y15837
X7510Y12411
X8622Y26260
X8622Y24409
X8622Y23858
X8622Y22008
X8622Y21693
X8622Y20669
X8622Y20276
X8622Y19882
X8622Y19488
X8622Y19094
X8622Y18701
X8622Y18307
X8622Y17913
X8622Y13701
X8622Y13307
X8780Y12323
X9724Y12323
X10197Y12323
X10669Y12323
X11142Y12323
X11535Y26260
X11614Y12323
X11929Y26260
X12087Y12323
X12559Y12323
X12992Y26260
X13031Y12323
X13504Y12323
X13976Y12323
X14449Y12323
X14685Y26260
X14921Y12323
X15000Y26260
X15315Y26260
X15394Y12323
X15620Y7717
X15620Y7323
X15630Y26260
X15866Y12323
X15945Y26260
X16260Y26260
X16339Y12323
X16575Y26260
X16811Y12323
X16890Y26260
X17205Y26260
X17283Y12323
X17756Y12323
X18150Y26260
X18228Y12323
X18465Y26260
X18701Y12323
X18780Y26260
X19094Y26260
X19173Y12323
X19409Y26260
X19724Y26260
X20039Y26260
X20354Y26260
X20669Y26260
X20984Y26260
X21299Y26260
X21614Y26260
X21772Y20984
X21772Y14882
X21772Y23425
X21772Y23110
X21772Y22795
X21772Y22480
X21772Y22165
X21772Y21850
X21772Y21299
X21772Y20669
X21772Y20354
X21772Y20039
X21772Y19724
X21772Y19409
X21772Y19094
X21772Y18780
X21772Y18465
X21772Y18150
X21772Y17835
X21772Y17520
X21772Y17205
X21772Y16890
X21772Y16575
X25728Y27906
X25728Y27434
X25728Y26962
X25728Y26489
X31407Y29426
X31407Y29032
T3
X591Y22638
X984Y29331
X1181Y28740
X1378Y29724
X1575Y29134
X1772Y30118
X1772Y22638
X1969Y29528
X2165Y30512
X2362Y29921
X2756Y30315
X3150Y28740
X3346Y25012
X3740Y21457
X3937Y27411
X3937Y11220
X4045Y13868
X4046Y12883
X4046Y11898
X4528Y24016
X4528Y11024
X4724Y15551
X4724Y394
X5118Y26181
X5118Y394
X5512Y394
X5886Y12402
X5906Y394
X6102Y15748
X6299Y13583
X6299Y394
X6693Y394
X7087Y23819
X7087Y17323
X7087Y394
X7480Y394
X7677Y29921
X7874Y394
X8268Y25000
X8268Y16929
X8268Y394
X8465Y11811
X8661Y394
X9252Y11811
X9789Y28884
X9843Y9252
X10433Y30315
X12598Y26575
X13583Y26575
X14567Y27559
X14961Y5906
X15157Y8465
X15157Y3150
X16535Y26654
X16929Y591
X17323Y27953
X17323Y591
X17520Y9252
X17717Y591
X18110Y591
X18504Y591
X18701Y11220
X18898Y30709
X18898Y591
X19291Y30709
X19291Y11811
X19291Y591
X19685Y30709
X19685Y591
X19882Y26772
X20079Y30709
X20079Y591
X20472Y30709
X20472Y10039
X20472Y591
X20866Y30709
X20866Y591
X21063Y28150
X21063Y9646
X21260Y30709
X21654Y30709
X22047Y30709
X22146Y28248
X22244Y12205
X22244Y9449
X22441Y30709
X22441Y2953
X22638Y4724
X22736Y28248
X22835Y30709
X23228Y23819
X23425Y9646
X23622Y21850
X23819Y19291
X24016Y9252
X24409Y6102
X24803Y10630
X25197Y12402
X25394Y13189
X25984Y12008
X25984Y2559
X26181Y18307
X26181Y15354
X26181Y5512
X26264Y11220
X26772Y7087
X26772Y3346
X27165Y25787
X27165Y7283
X27195Y13159
X27559Y19882
X28150Y7087
X29528Y19882
X29724Y17126
X31299Y15354
X31496Y17913
X31496Y16339
X31496Y14173
X31496Y7677
X31496Y591
X31693Y11220
X31693Y5906
X31693Y5512
X31890Y3346
X31890Y591
X32283Y591
X32480Y16535
X32480Y12402
X32677Y591
X33071Y21260
X33071Y18307
X33071Y591
X33661Y16142
X33858Y3150
T4
X33268Y23425
X34055Y23425
X34843Y23425
X35630Y23425
T5
X18110Y28346
X19610Y28346
X23642Y8268
X23642Y7283
X25571Y8268
X25571Y7283
X28563Y2165
X28563Y1181
X30492Y2165
X30492Y1181
T6
X1362Y20386
X1362Y19386
X1362Y18386
X1362Y17386
X1362Y16386
X1362Y15386
X1362Y14386
X1362Y13386
X1362Y12386
X1362Y11386
X1362Y10386
X1362Y9386
X1362Y8386
X1362Y7386
X1362Y6386
X1362Y5386
X1362Y4386
X1362Y3386
X1362Y2386
X1362Y1386
X2362Y20386
X2362Y19386
X2362Y18386
X2362Y17386
X2362Y16386
X2362Y15386
X2362Y14386
X2362Y13386
X2362Y12386
X2362Y11386
X2362Y10386
X2362Y9386
X2362Y8386
X2362Y7386
X2362Y6386
X2362Y5386
X2362Y4386
X2362Y3386
X2362Y2386
X2362Y1386
X15797Y8839
X15797Y6378
X15797Y4685
X15797Y3937
X15797Y1417
X21900Y8661
X21900Y3917
X21900Y1969
X21900Y1240
X35039Y20370
X35039Y19370
X35039Y18370
X35039Y17370
X35039Y16370
X35039Y15370
X35039Y14370
X35039Y13370
X35039Y12370
X35039Y11370
X35039Y10370
X35039Y9370
X35039Y8370
X35039Y7370
X35039Y6370
X35039Y5370
X35039Y4370
X35039Y3370
X35039Y2370
X35039Y1370
X35827Y29543
X35827Y28543
X35827Y27543
X35827Y26543
X36039Y20370
X36039Y19370
X36039Y18370
X36039Y17370
X36039Y16370
X36039Y15370
X36039Y14370
X36039Y13370
X36039Y12370
X36039Y11370
X36039Y10370
X36039Y9370
X36039Y8370
X36039Y7370
X36039Y6370
X36039Y5370
X36039Y4370
X36039Y3370
X36039Y2370
X36039Y1370
M30
