%TF.GenerationSoftware,KiCad,Pcbnew,8.0.7*%
%TF.CreationDate,2024-12-26T23:24:23+03:00*%
%TF.ProjectId,uaefi,75616566-692e-46b6-9963-61645f706362,D*%
%TF.SameCoordinates,Original*%
%TF.FileFunction,Paste,Top*%
%TF.FilePolarity,Positive*%
%FSLAX46Y46*%
G04 Gerber Fmt 4.6, Leading zero omitted, Abs format (unit mm)*
G04 Created by KiCad (PCBNEW 8.0.7) date 2024-12-26 23:24:23*
%MOMM*%
%LPD*%
G01*
G04 APERTURE LIST*
G04 Aperture macros list*
%AMRoundRect*
0 Rectangle with rounded corners*
0 $1 Rounding radius*
0 $2 $3 $4 $5 $6 $7 $8 $9 X,Y pos of 4 corners*
0 Add a 4 corners polygon primitive as box body*
4,1,4,$2,$3,$4,$5,$6,$7,$8,$9,$2,$3,0*
0 Add four circle primitives for the rounded corners*
1,1,$1+$1,$2,$3*
1,1,$1+$1,$4,$5*
1,1,$1+$1,$6,$7*
1,1,$1+$1,$8,$9*
0 Add four rect primitives between the rounded corners*
20,1,$1+$1,$2,$3,$4,$5,0*
20,1,$1+$1,$4,$5,$6,$7,0*
20,1,$1+$1,$6,$7,$8,$9,0*
20,1,$1+$1,$8,$9,$2,$3,0*%
G04 Aperture macros list end*
%ADD10RoundRect,0.085000X-0.340000X-0.340000X0.340000X-0.340000X0.340000X0.340000X-0.340000X0.340000X0*%
%ADD11RoundRect,0.070000X-0.280000X-0.390000X0.280000X-0.390000X0.280000X0.390000X-0.280000X0.390000X0*%
%ADD12RoundRect,0.218750X-0.218750X-0.256250X0.218750X-0.256250X0.218750X0.256250X-0.218750X0.256250X0*%
%ADD13RoundRect,0.070000X0.390000X-0.280000X0.390000X0.280000X-0.390000X0.280000X-0.390000X-0.280000X0*%
%ADD14RoundRect,0.100000X-0.400000X-0.625000X0.400000X-0.625000X0.400000X0.625000X-0.400000X0.625000X0*%
%ADD15RoundRect,0.150000X-0.825000X-0.150000X0.825000X-0.150000X0.825000X0.150000X-0.825000X0.150000X0*%
%ADD16RoundRect,0.090000X0.360000X0.510000X-0.360000X0.510000X-0.360000X-0.510000X0.360000X-0.510000X0*%
%ADD17RoundRect,0.230000X-0.345000X0.670000X-0.345000X-0.670000X0.345000X-0.670000X0.345000X0.670000X0*%
%ADD18RoundRect,0.150000X0.587500X0.150000X-0.587500X0.150000X-0.587500X-0.150000X0.587500X-0.150000X0*%
%ADD19O,0.000001X0.000001*%
%ADD20RoundRect,0.100000X0.400000X0.625000X-0.400000X0.625000X-0.400000X-0.625000X0.400000X-0.625000X0*%
%ADD21RoundRect,0.041300X-0.968700X-0.253700X0.968700X-0.253700X0.968700X0.253700X-0.968700X0.253700X0*%
%ADD22RoundRect,0.230000X0.345000X-0.670000X0.345000X0.670000X-0.345000X0.670000X-0.345000X-0.670000X0*%
G04 APERTURE END LIST*
D10*
%TO.C,C28*%
X109209999Y-46000000D03*
X110790001Y-46000000D03*
%TD*%
D11*
%TO.C,R12*%
X139200000Y-85000000D03*
X140800000Y-85000000D03*
%TD*%
D12*
%TO.C,F6*%
X88000000Y-69500000D03*
X89575000Y-69500000D03*
%TD*%
D13*
%TO.C,R33*%
X134000000Y-69300000D03*
X134000000Y-67700000D03*
%TD*%
D11*
%TO.C,R10*%
X139200000Y-92000000D03*
X140800000Y-92000000D03*
%TD*%
D12*
%TO.C,L1*%
X102925000Y-47500000D03*
X104500000Y-47500000D03*
%TD*%
D10*
%TO.C,C31*%
X109209999Y-50470000D03*
X110790001Y-50470000D03*
%TD*%
D14*
%TO.C,R8*%
X84049999Y-99005856D03*
X85950021Y-99005856D03*
%TD*%
D10*
%TO.C,C29*%
X109209999Y-47470000D03*
X110790001Y-47470000D03*
%TD*%
%TO.C,C30*%
X109209999Y-48970000D03*
X110790001Y-48970000D03*
%TD*%
D15*
%TO.C,U9*%
X152025000Y-68095000D03*
X152025000Y-69365000D03*
X152025000Y-70635000D03*
X152025000Y-71905000D03*
X156975000Y-71905000D03*
X156975000Y-70635000D03*
X156975000Y-69365000D03*
X156975000Y-68095000D03*
%TD*%
%TO.C,U6*%
X152025000Y-82095000D03*
X152025000Y-83365000D03*
X152025000Y-84635000D03*
X152025000Y-85905000D03*
X156975000Y-85905000D03*
X156975000Y-84635000D03*
X156975000Y-83365000D03*
X156975000Y-82095000D03*
%TD*%
D13*
%TO.C,R29*%
X140000000Y-69300000D03*
X140000000Y-67700000D03*
%TD*%
D16*
%TO.C,D5*%
X157150000Y-90500000D03*
X153850000Y-90500000D03*
%TD*%
D14*
%TO.C,R7*%
X84049999Y-96502928D03*
X85950021Y-96502928D03*
%TD*%
D11*
%TO.C,R21*%
X84987500Y-71500000D03*
X86587500Y-71500000D03*
%TD*%
D13*
%TO.C,R31*%
X137000000Y-69300000D03*
X137000000Y-67700000D03*
%TD*%
D16*
%TO.C,D4*%
X157150000Y-88500000D03*
X153850000Y-88500000D03*
%TD*%
D10*
%TO.C,C27*%
X91419998Y-47500000D03*
X93000000Y-47500000D03*
%TD*%
D15*
%TO.C,U11*%
X152025000Y-75095000D03*
X152025000Y-76365000D03*
X152025000Y-77635000D03*
X152025000Y-78905000D03*
X156975000Y-78905000D03*
X156975000Y-77635000D03*
X156975000Y-76365000D03*
X156975000Y-75095000D03*
%TD*%
D17*
%TO.C,F1*%
X153450010Y-113500000D03*
X150549990Y-113500000D03*
%TD*%
D15*
%TO.C,U4*%
X114025000Y-47595000D03*
X114025000Y-48865000D03*
X114025000Y-50135000D03*
X114025000Y-51405000D03*
X118975000Y-51405000D03*
X118975000Y-50135000D03*
X118975000Y-48865000D03*
X118975000Y-47595000D03*
%TD*%
D18*
%TO.C,D8*%
X99650000Y-49950000D03*
X99650000Y-48050000D03*
X97775000Y-49000000D03*
%TD*%
D12*
%TO.C,L2*%
X102925000Y-50500000D03*
X104500000Y-50500000D03*
%TD*%
D15*
%TO.C,U7*%
X143025000Y-92095000D03*
X143025000Y-93365000D03*
X143025000Y-94635000D03*
X143025000Y-95905000D03*
X147975000Y-95905000D03*
X147975000Y-94635000D03*
X147975000Y-93365000D03*
X147975000Y-92095000D03*
%TD*%
D19*
%TO.C,CAN1*%
X120812501Y-101643334D03*
%TD*%
D12*
%TO.C,F7*%
X88000000Y-73500000D03*
X89575000Y-73500000D03*
%TD*%
D20*
%TO.C,R4*%
X126950001Y-46500000D03*
X125049979Y-46500000D03*
%TD*%
D11*
%TO.C,R2*%
X107700000Y-103000000D03*
X109300000Y-103000000D03*
%TD*%
%TO.C,R6*%
X107700000Y-106949046D03*
X109300000Y-106949046D03*
%TD*%
%TO.C,R20*%
X84987500Y-69500000D03*
X86587500Y-69500000D03*
%TD*%
D13*
%TO.C,R30*%
X138500000Y-69300000D03*
X138500000Y-67700000D03*
%TD*%
D11*
%TO.C,R15*%
X146700000Y-79500000D03*
X148300000Y-79500000D03*
%TD*%
%TO.C,R11*%
X139200000Y-95500000D03*
X140800000Y-95500000D03*
%TD*%
%TO.C,R26*%
X84987500Y-75500000D03*
X86587500Y-75500000D03*
%TD*%
%TO.C,R28*%
X84987500Y-79500000D03*
X86587500Y-79500000D03*
%TD*%
D13*
%TO.C,R34*%
X132500000Y-69300000D03*
X132500000Y-67700000D03*
%TD*%
D15*
%TO.C,U10*%
X143025000Y-68095000D03*
X143025000Y-69365000D03*
X143025000Y-70635000D03*
X143025000Y-71905000D03*
X147975000Y-71905000D03*
X147975000Y-70635000D03*
X147975000Y-69365000D03*
X147975000Y-68095000D03*
%TD*%
D11*
%TO.C,R22*%
X84987500Y-73500000D03*
X86587500Y-73500000D03*
%TD*%
%TO.C,R16*%
X146700000Y-81449046D03*
X148300000Y-81449046D03*
%TD*%
D13*
%TO.C,R32*%
X135500000Y-69300000D03*
X135500000Y-67700000D03*
%TD*%
D12*
%TO.C,F8*%
X88000000Y-75500000D03*
X89575000Y-75500000D03*
%TD*%
D10*
%TO.C,C32*%
X109209999Y-51970000D03*
X110790001Y-51970000D03*
%TD*%
D21*
%TO.C,MAP1*%
X77820000Y-48595000D03*
X77820000Y-49865000D03*
X77820000Y-51135000D03*
X77820000Y-52405000D03*
X87180000Y-52405000D03*
X87180000Y-51135000D03*
X87180000Y-49865000D03*
X87180000Y-48595000D03*
%TD*%
D11*
%TO.C,R3*%
X107700000Y-105000000D03*
X109300000Y-105000000D03*
%TD*%
D16*
%TO.C,D2*%
X157150000Y-92500000D03*
X153850000Y-92500000D03*
%TD*%
D22*
%TO.C,F4*%
X150549990Y-118500000D03*
X153450010Y-118500000D03*
%TD*%
D15*
%TO.C,U8*%
X143025000Y-85095000D03*
X143025000Y-86365000D03*
X143025000Y-87635000D03*
X143025000Y-88905000D03*
X147975000Y-88905000D03*
X147975000Y-87635000D03*
X147975000Y-86365000D03*
X147975000Y-85095000D03*
%TD*%
D12*
%TO.C,F9*%
X88000000Y-77500000D03*
X89575000Y-77500000D03*
%TD*%
D16*
%TO.C,D3*%
X157150000Y-94500000D03*
X153850000Y-94500000D03*
%TD*%
D22*
%TO.C,F2*%
X150549990Y-116000000D03*
X153450010Y-116000000D03*
%TD*%
%TO.C,F3*%
X150549990Y-121000000D03*
X153450010Y-121000000D03*
%TD*%
D12*
%TO.C,F5*%
X88000000Y-71500000D03*
X89575000Y-71500000D03*
%TD*%
D11*
%TO.C,R27*%
X84987500Y-77500000D03*
X86587500Y-77500000D03*
%TD*%
D14*
%TO.C,R5*%
X84049999Y-94000000D03*
X85950021Y-94000000D03*
%TD*%
D12*
%TO.C,F10*%
X88000000Y-79500000D03*
X89575000Y-79500000D03*
%TD*%
D11*
%TO.C,R13*%
X139200000Y-88500000D03*
X140800000Y-88500000D03*
%TD*%
%TO.C,R1*%
X107700000Y-101101908D03*
X109300000Y-101101908D03*
%TD*%
M02*
