M48
; DRILL file {KiCad 8.0.7} date 2024-12-26T23:24:15+0300
; FORMAT={-:-/ absolute / inch / decimal}
; #@! TF.CreationDate,2024-12-26T23:24:15+03:00
; #@! TF.GenerationSoftware,Kicad,Pcbnew,8.0.7
; #@! TF.FileFunction,Plated,1,4,PTH
FMAT,2
INCH
; #@! TA.AperFunction,Plated,PTH,ComponentDrill
T1C0.0118
; #@! TA.AperFunction,Plated,PTH,ComponentDrill
T2C0.0118
; #@! TA.AperFunction,Plated,PTH,ComponentDrill
T3C0.0295
; #@! TA.AperFunction,Plated,PTH,ComponentDrill
T4C0.0320
; #@! TA.AperFunction,Plated,PTH,ComponentDrill
T5C0.0394
%
G90
G05
T1
X4.7741Y-3.9377
X4.8086Y-3.9584
X4.8174Y-3.7684
X4.8204Y-3.9082
T2
X2.9808Y-2.4512
X2.9808Y-2.4906
X3.2589Y-3.3632
X3.2589Y-3.3986
X3.5487Y-2.1969
X3.5487Y-2.2441
X3.5487Y-2.2913
X3.5487Y-2.3386
X3.6014Y-3.3632
X3.6014Y-3.4006
X3.6014Y-3.438
X3.7362Y-2.1772
X3.7362Y-2.3622
X3.7362Y-2.4173
X3.7362Y-2.6024
X3.7362Y-2.6339
X3.7362Y-2.7362
X3.7362Y-2.7756
X3.7362Y-2.815
X3.7362Y-2.8543
X3.7362Y-2.8937
X3.7362Y-2.9331
X3.7362Y-2.9724
X3.7362Y-3.0118
X3.7362Y-3.4331
X3.7362Y-3.4724
X3.752Y-3.5709
X3.8465Y-3.5709
X3.8937Y-3.5709
X3.9409Y-3.5709
X3.9882Y-3.5709
X4.0276Y-2.1772
X4.0354Y-3.5709
X4.0669Y-2.1772
X4.0827Y-3.5709
X4.1299Y-3.5709
X4.1732Y-2.1772
X4.1772Y-3.5709
X4.2244Y-3.5709
X4.2717Y-3.5709
X4.3189Y-3.5709
X4.3425Y-2.1772
X4.3661Y-3.5709
X4.374Y-2.1772
X4.4055Y-2.1772
X4.4134Y-3.5709
X4.437Y-2.1772
X4.4606Y-3.5709
X4.4685Y-2.1772
X4.5Y-2.1772
X4.5079Y-3.5709
X4.5315Y-2.1772
X4.5551Y-3.5709
X4.563Y-2.1772
X4.5945Y-2.1772
X4.6024Y-3.5709
X4.6496Y-3.5709
X4.689Y-2.1772
X4.6969Y-3.5709
X4.7205Y-2.1772
X4.7441Y-3.5709
X4.752Y-2.1772
X4.7835Y-2.1772
X4.7913Y-3.5709
X4.815Y-2.1772
X4.8465Y-2.1772
X4.878Y-2.1772
X4.9094Y-2.1772
X4.9409Y-2.1772
X4.9724Y-2.1772
X5.0039Y-2.1772
X5.0354Y-2.1772
X5.0512Y-2.7047
X5.0512Y-3.315
X5.0512Y-2.4606
X5.0512Y-2.4921
X5.0512Y-2.5236
X5.0512Y-2.5551
X5.0512Y-2.5866
X5.0512Y-2.6181
X5.0512Y-2.6732
X5.0512Y-2.7362
X5.0512Y-2.7677
X5.0512Y-2.7992
X5.0512Y-2.8307
X5.0512Y-2.8622
X5.0512Y-2.8937
X5.0512Y-2.9252
X5.0512Y-2.9567
X5.0512Y-2.9882
X5.0512Y-3.0197
X5.0512Y-3.0512
X5.0512Y-3.0827
X5.0512Y-3.1142
X5.0512Y-3.1457
X5.1903Y-3.9026
X5.1903Y-3.9419
X5.1903Y-3.9813
X5.1903Y-4.0711
X5.1903Y-4.1111
X5.8071Y-1.8425
X5.8465Y-1.8425
X6.2372Y-4.2037
X6.2372Y-4.2431
X6.2372Y-4.2825
X6.2372Y-4.3219
T3
X6.2008Y-2.4016
X6.2795Y-2.4016
X6.3583Y-2.4016
X6.437Y-2.4016
T4
X4.8856Y-1.8307
X5.0356Y-1.8307
X5.8878Y-4.4685
X5.8878Y-4.5669
X5.8878Y-4.6654
X5.8878Y-4.7638
X6.0807Y-4.4685
X6.0807Y-4.5669
X6.0807Y-4.6654
X6.0807Y-4.7638
T5
X3.0102Y-2.7646
X3.0102Y-2.8646
X3.0102Y-2.9646
X3.0102Y-3.0646
X3.0102Y-3.1646
X3.0102Y-3.2646
X3.0102Y-3.3646
X3.0102Y-3.4646
X3.0102Y-3.5646
X3.0102Y-3.6646
X3.0102Y-3.7646
X3.0102Y-3.8646
X3.0102Y-3.9646
X3.0102Y-4.0646
X3.0102Y-4.1646
X3.0102Y-4.2646
X3.0102Y-4.3646
X3.0102Y-4.4646
X3.0102Y-4.5646
X3.0102Y-4.6646
X3.1102Y-2.7646
X3.1102Y-2.8646
X3.1102Y-2.9646
X3.1102Y-3.0646
X3.1102Y-3.1646
X3.1102Y-3.2646
X3.1102Y-3.3646
X3.1102Y-3.4646
X3.1102Y-3.5646
X3.1102Y-3.6646
X3.1102Y-3.7646
X3.1102Y-3.8646
X3.1102Y-3.9646
X3.1102Y-4.0646
X3.1102Y-4.1646
X3.1102Y-4.2646
X3.1102Y-4.3646
X3.1102Y-4.4646
X3.1102Y-4.5646
X3.1102Y-4.6646
X5.1988Y-2.4705
X5.2165Y-1.8602
X5.2717Y-2.4705
X5.4665Y-2.4705
X5.4685Y-1.8602
X5.5433Y-1.8602
X5.7126Y-1.8602
X5.9409Y-2.4705
X5.9587Y-1.8602
X6.378Y-2.7661
X6.378Y-2.8661
X6.378Y-2.9661
X6.378Y-3.0661
X6.378Y-3.1661
X6.378Y-3.2661
X6.378Y-3.3661
X6.378Y-3.4661
X6.378Y-3.5661
X6.378Y-3.6661
X6.378Y-3.7661
X6.378Y-3.8661
X6.378Y-3.9661
X6.378Y-4.0661
X6.378Y-4.1661
X6.378Y-4.2661
X6.378Y-4.3661
X6.378Y-4.4661
X6.378Y-4.5661
X6.378Y-4.6661
X6.4567Y-1.8488
X6.4567Y-1.9488
X6.4567Y-2.0488
X6.4567Y-2.1488
X6.478Y-2.7661
X6.478Y-2.8661
X6.478Y-2.9661
X6.478Y-3.0661
X6.478Y-3.1661
X6.478Y-3.2661
X6.478Y-3.3661
X6.478Y-3.4661
X6.478Y-3.5661
X6.478Y-3.6661
X6.478Y-3.7661
X6.478Y-3.8661
X6.478Y-3.9661
X6.478Y-4.0661
X6.478Y-4.1661
X6.478Y-4.2661
X6.478Y-4.3661
X6.478Y-4.4661
X6.478Y-4.5661
X6.478Y-4.6661
M30
