G04 #@! TF.GenerationSoftware,KiCad,Pcbnew,8.0.7*
G04 #@! TF.CreationDate,2025-01-02T17:07:05+03:00*
G04 #@! TF.ProjectId,stabil-daytona,73746162-696c-42d6-9461-79746f6e612e,D*
G04 #@! TF.SameCoordinates,PX2faf080PY9896800*
G04 #@! TF.FileFunction,Legend,Top*
G04 #@! TF.FilePolarity,Positive*
%FSLAX46Y46*%
G04 Gerber Fmt 4.6, Leading zero omitted, Abs format (unit mm)*
G04 Created by KiCad (PCBNEW 8.0.7) date 2025-01-02 17:07:05*
%MOMM*%
%LPD*%
G01*
G04 APERTURE LIST*
%ADD10C,0.170000*%
%ADD11C,0.150000*%
%ADD12C,0.127000*%
%ADD13C,0.200000*%
%ADD14C,0.000000*%
%ADD15C,0.120000*%
%ADD16C,0.203200*%
%ADD17C,0.002540*%
%ADD18C,0.099060*%
G04 APERTURE END LIST*
D10*
X3155651Y67717288D02*
X3116603Y67678240D01*
X3116603Y67678240D02*
X2999460Y67639193D01*
X2999460Y67639193D02*
X2921365Y67639193D01*
X2921365Y67639193D02*
X2804222Y67678240D01*
X2804222Y67678240D02*
X2726127Y67756336D01*
X2726127Y67756336D02*
X2687079Y67834431D01*
X2687079Y67834431D02*
X2648031Y67990622D01*
X2648031Y67990622D02*
X2648031Y68107765D01*
X2648031Y68107765D02*
X2687079Y68263955D01*
X2687079Y68263955D02*
X2726127Y68342051D01*
X2726127Y68342051D02*
X2804222Y68420146D01*
X2804222Y68420146D02*
X2921365Y68459194D01*
X2921365Y68459194D02*
X2999460Y68459194D01*
X2999460Y68459194D02*
X3116603Y68420146D01*
X3116603Y68420146D02*
X3155651Y68381098D01*
X3468032Y68381098D02*
X3507080Y68420146D01*
X3507080Y68420146D02*
X3585175Y68459194D01*
X3585175Y68459194D02*
X3780414Y68459194D01*
X3780414Y68459194D02*
X3858509Y68420146D01*
X3858509Y68420146D02*
X3897557Y68381098D01*
X3897557Y68381098D02*
X3936604Y68303003D01*
X3936604Y68303003D02*
X3936604Y68224908D01*
X3936604Y68224908D02*
X3897557Y68107765D01*
X3897557Y68107765D02*
X3428985Y67639193D01*
X3428985Y67639193D02*
X3936604Y67639193D01*
X4405176Y68107765D02*
X4327081Y68146812D01*
X4327081Y68146812D02*
X4288033Y68185860D01*
X4288033Y68185860D02*
X4248985Y68263955D01*
X4248985Y68263955D02*
X4248985Y68303003D01*
X4248985Y68303003D02*
X4288033Y68381098D01*
X4288033Y68381098D02*
X4327081Y68420146D01*
X4327081Y68420146D02*
X4405176Y68459194D01*
X4405176Y68459194D02*
X4561367Y68459194D01*
X4561367Y68459194D02*
X4639462Y68420146D01*
X4639462Y68420146D02*
X4678510Y68381098D01*
X4678510Y68381098D02*
X4717557Y68303003D01*
X4717557Y68303003D02*
X4717557Y68263955D01*
X4717557Y68263955D02*
X4678510Y68185860D01*
X4678510Y68185860D02*
X4639462Y68146812D01*
X4639462Y68146812D02*
X4561367Y68107765D01*
X4561367Y68107765D02*
X4405176Y68107765D01*
X4405176Y68107765D02*
X4327081Y68068717D01*
X4327081Y68068717D02*
X4288033Y68029669D01*
X4288033Y68029669D02*
X4248985Y67951574D01*
X4248985Y67951574D02*
X4248985Y67795383D01*
X4248985Y67795383D02*
X4288033Y67717288D01*
X4288033Y67717288D02*
X4327081Y67678240D01*
X4327081Y67678240D02*
X4405176Y67639193D01*
X4405176Y67639193D02*
X4561367Y67639193D01*
X4561367Y67639193D02*
X4639462Y67678240D01*
X4639462Y67678240D02*
X4678510Y67717288D01*
X4678510Y67717288D02*
X4717557Y67795383D01*
X4717557Y67795383D02*
X4717557Y67951574D01*
X4717557Y67951574D02*
X4678510Y68029669D01*
X4678510Y68029669D02*
X4639462Y68068717D01*
X4639462Y68068717D02*
X4561367Y68107765D01*
D11*
X17954166Y52568991D02*
X17620833Y52568991D01*
X17620833Y52045181D02*
X17620833Y53045181D01*
X17620833Y53045181D02*
X18097023Y53045181D01*
X18906547Y53045181D02*
X18716071Y53045181D01*
X18716071Y53045181D02*
X18620833Y52997562D01*
X18620833Y52997562D02*
X18573214Y52949943D01*
X18573214Y52949943D02*
X18477976Y52807086D01*
X18477976Y52807086D02*
X18430357Y52616610D01*
X18430357Y52616610D02*
X18430357Y52235658D01*
X18430357Y52235658D02*
X18477976Y52140420D01*
X18477976Y52140420D02*
X18525595Y52092800D01*
X18525595Y52092800D02*
X18620833Y52045181D01*
X18620833Y52045181D02*
X18811309Y52045181D01*
X18811309Y52045181D02*
X18906547Y52092800D01*
X18906547Y52092800D02*
X18954166Y52140420D01*
X18954166Y52140420D02*
X19001785Y52235658D01*
X19001785Y52235658D02*
X19001785Y52473753D01*
X19001785Y52473753D02*
X18954166Y52568991D01*
X18954166Y52568991D02*
X18906547Y52616610D01*
X18906547Y52616610D02*
X18811309Y52664229D01*
X18811309Y52664229D02*
X18620833Y52664229D01*
X18620833Y52664229D02*
X18525595Y52616610D01*
X18525595Y52616610D02*
X18477976Y52568991D01*
X18477976Y52568991D02*
X18430357Y52473753D01*
X87431009Y67380953D02*
X87478628Y67523810D01*
X87478628Y67523810D02*
X87526247Y67571429D01*
X87526247Y67571429D02*
X87621485Y67619048D01*
X87621485Y67619048D02*
X87764342Y67619048D01*
X87764342Y67619048D02*
X87859580Y67571429D01*
X87859580Y67571429D02*
X87907200Y67523810D01*
X87907200Y67523810D02*
X87954819Y67428572D01*
X87954819Y67428572D02*
X87954819Y67047620D01*
X87954819Y67047620D02*
X86954819Y67047620D01*
X86954819Y67047620D02*
X86954819Y67380953D01*
X86954819Y67380953D02*
X87002438Y67476191D01*
X87002438Y67476191D02*
X87050057Y67523810D01*
X87050057Y67523810D02*
X87145295Y67571429D01*
X87145295Y67571429D02*
X87240533Y67571429D01*
X87240533Y67571429D02*
X87335771Y67523810D01*
X87335771Y67523810D02*
X87383390Y67476191D01*
X87383390Y67476191D02*
X87431009Y67380953D01*
X87431009Y67380953D02*
X87431009Y67047620D01*
X87954819Y68523810D02*
X87954819Y68047620D01*
X87954819Y68047620D02*
X86954819Y68047620D01*
X86954819Y68857144D02*
X87764342Y68857144D01*
X87764342Y68857144D02*
X87859580Y68904763D01*
X87859580Y68904763D02*
X87907200Y68952382D01*
X87907200Y68952382D02*
X87954819Y69047620D01*
X87954819Y69047620D02*
X87954819Y69238096D01*
X87954819Y69238096D02*
X87907200Y69333334D01*
X87907200Y69333334D02*
X87859580Y69380953D01*
X87859580Y69380953D02*
X87764342Y69428572D01*
X87764342Y69428572D02*
X86954819Y69428572D01*
X87431009Y69904763D02*
X87431009Y70238096D01*
X87954819Y70380953D02*
X87954819Y69904763D01*
X87954819Y69904763D02*
X86954819Y69904763D01*
X86954819Y69904763D02*
X86954819Y70380953D01*
X86954819Y70666668D02*
X86954819Y71238096D01*
X87954819Y70952382D02*
X86954819Y70952382D01*
X86954819Y71761906D02*
X86954819Y71952382D01*
X86954819Y71952382D02*
X87002438Y72047620D01*
X87002438Y72047620D02*
X87097676Y72142858D01*
X87097676Y72142858D02*
X87288152Y72190477D01*
X87288152Y72190477D02*
X87621485Y72190477D01*
X87621485Y72190477D02*
X87811961Y72142858D01*
X87811961Y72142858D02*
X87907200Y72047620D01*
X87907200Y72047620D02*
X87954819Y71952382D01*
X87954819Y71952382D02*
X87954819Y71761906D01*
X87954819Y71761906D02*
X87907200Y71666668D01*
X87907200Y71666668D02*
X87811961Y71571430D01*
X87811961Y71571430D02*
X87621485Y71523811D01*
X87621485Y71523811D02*
X87288152Y71523811D01*
X87288152Y71523811D02*
X87097676Y71571430D01*
X87097676Y71571430D02*
X87002438Y71666668D01*
X87002438Y71666668D02*
X86954819Y71761906D01*
X86954819Y72809525D02*
X86954819Y73000001D01*
X86954819Y73000001D02*
X87002438Y73095239D01*
X87002438Y73095239D02*
X87097676Y73190477D01*
X87097676Y73190477D02*
X87288152Y73238096D01*
X87288152Y73238096D02*
X87621485Y73238096D01*
X87621485Y73238096D02*
X87811961Y73190477D01*
X87811961Y73190477D02*
X87907200Y73095239D01*
X87907200Y73095239D02*
X87954819Y73000001D01*
X87954819Y73000001D02*
X87954819Y72809525D01*
X87954819Y72809525D02*
X87907200Y72714287D01*
X87907200Y72714287D02*
X87811961Y72619049D01*
X87811961Y72619049D02*
X87621485Y72571430D01*
X87621485Y72571430D02*
X87288152Y72571430D01*
X87288152Y72571430D02*
X87097676Y72619049D01*
X87097676Y72619049D02*
X87002438Y72714287D01*
X87002438Y72714287D02*
X86954819Y72809525D01*
X86954819Y73523811D02*
X86954819Y74095239D01*
X87954819Y73809525D02*
X86954819Y73809525D01*
X87954819Y74428573D02*
X86954819Y74428573D01*
X87431009Y74428573D02*
X87431009Y75000001D01*
X87954819Y75000001D02*
X86954819Y75000001D01*
X87954819Y76000001D02*
X87954819Y75428573D01*
X87954819Y75714287D02*
X86954819Y75714287D01*
X86954819Y75714287D02*
X87097676Y75619049D01*
X87097676Y75619049D02*
X87192914Y75523811D01*
X87192914Y75523811D02*
X87240533Y75428573D01*
X5524819Y58545834D02*
X5524819Y58069644D01*
X5524819Y58069644D02*
X4524819Y58069644D01*
X5524819Y59402977D02*
X5524819Y58831549D01*
X5524819Y59117263D02*
X4524819Y59117263D01*
X4524819Y59117263D02*
X4667676Y59022025D01*
X4667676Y59022025D02*
X4762914Y58926787D01*
X4762914Y58926787D02*
X4810533Y58831549D01*
D10*
X82775651Y29609192D02*
X82502318Y29999668D01*
X82307080Y29609192D02*
X82307080Y30429192D01*
X82307080Y30429192D02*
X82619461Y30429192D01*
X82619461Y30429192D02*
X82697556Y30390144D01*
X82697556Y30390144D02*
X82736603Y30351097D01*
X82736603Y30351097D02*
X82775651Y30273001D01*
X82775651Y30273001D02*
X82775651Y30155859D01*
X82775651Y30155859D02*
X82736603Y30077763D01*
X82736603Y30077763D02*
X82697556Y30038716D01*
X82697556Y30038716D02*
X82619461Y29999668D01*
X82619461Y29999668D02*
X82307080Y29999668D01*
X83166127Y29609192D02*
X83322318Y29609192D01*
X83322318Y29609192D02*
X83400413Y29648239D01*
X83400413Y29648239D02*
X83439461Y29687287D01*
X83439461Y29687287D02*
X83517556Y29804430D01*
X83517556Y29804430D02*
X83556603Y29960620D01*
X83556603Y29960620D02*
X83556603Y30273001D01*
X83556603Y30273001D02*
X83517556Y30351097D01*
X83517556Y30351097D02*
X83478508Y30390144D01*
X83478508Y30390144D02*
X83400413Y30429192D01*
X83400413Y30429192D02*
X83244222Y30429192D01*
X83244222Y30429192D02*
X83166127Y30390144D01*
X83166127Y30390144D02*
X83127080Y30351097D01*
X83127080Y30351097D02*
X83088032Y30273001D01*
X83088032Y30273001D02*
X83088032Y30077763D01*
X83088032Y30077763D02*
X83127080Y29999668D01*
X83127080Y29999668D02*
X83166127Y29960620D01*
X83166127Y29960620D02*
X83244222Y29921573D01*
X83244222Y29921573D02*
X83400413Y29921573D01*
X83400413Y29921573D02*
X83478508Y29960620D01*
X83478508Y29960620D02*
X83517556Y29999668D01*
X83517556Y29999668D02*
X83556603Y30077763D01*
D11*
X85761905Y64045181D02*
X85761905Y63235658D01*
X85761905Y63235658D02*
X85809524Y63140420D01*
X85809524Y63140420D02*
X85857143Y63092800D01*
X85857143Y63092800D02*
X85952381Y63045181D01*
X85952381Y63045181D02*
X86142857Y63045181D01*
X86142857Y63045181D02*
X86238095Y63092800D01*
X86238095Y63092800D02*
X86285714Y63140420D01*
X86285714Y63140420D02*
X86333333Y63235658D01*
X86333333Y63235658D02*
X86333333Y64045181D01*
X86761905Y63092800D02*
X86904762Y63045181D01*
X86904762Y63045181D02*
X87142857Y63045181D01*
X87142857Y63045181D02*
X87238095Y63092800D01*
X87238095Y63092800D02*
X87285714Y63140420D01*
X87285714Y63140420D02*
X87333333Y63235658D01*
X87333333Y63235658D02*
X87333333Y63330896D01*
X87333333Y63330896D02*
X87285714Y63426134D01*
X87285714Y63426134D02*
X87238095Y63473753D01*
X87238095Y63473753D02*
X87142857Y63521372D01*
X87142857Y63521372D02*
X86952381Y63568991D01*
X86952381Y63568991D02*
X86857143Y63616610D01*
X86857143Y63616610D02*
X86809524Y63664229D01*
X86809524Y63664229D02*
X86761905Y63759467D01*
X86761905Y63759467D02*
X86761905Y63854705D01*
X86761905Y63854705D02*
X86809524Y63949943D01*
X86809524Y63949943D02*
X86857143Y63997562D01*
X86857143Y63997562D02*
X86952381Y64045181D01*
X86952381Y64045181D02*
X87190476Y64045181D01*
X87190476Y64045181D02*
X87333333Y63997562D01*
X88095238Y63568991D02*
X88238095Y63521372D01*
X88238095Y63521372D02*
X88285714Y63473753D01*
X88285714Y63473753D02*
X88333333Y63378515D01*
X88333333Y63378515D02*
X88333333Y63235658D01*
X88333333Y63235658D02*
X88285714Y63140420D01*
X88285714Y63140420D02*
X88238095Y63092800D01*
X88238095Y63092800D02*
X88142857Y63045181D01*
X88142857Y63045181D02*
X87761905Y63045181D01*
X87761905Y63045181D02*
X87761905Y64045181D01*
X87761905Y64045181D02*
X88095238Y64045181D01*
X88095238Y64045181D02*
X88190476Y63997562D01*
X88190476Y63997562D02*
X88238095Y63949943D01*
X88238095Y63949943D02*
X88285714Y63854705D01*
X88285714Y63854705D02*
X88285714Y63759467D01*
X88285714Y63759467D02*
X88238095Y63664229D01*
X88238095Y63664229D02*
X88190476Y63616610D01*
X88190476Y63616610D02*
X88095238Y63568991D01*
X88095238Y63568991D02*
X87761905Y63568991D01*
X89285714Y63045181D02*
X88714286Y63045181D01*
X89000000Y63045181D02*
X89000000Y64045181D01*
X89000000Y64045181D02*
X88904762Y63902324D01*
X88904762Y63902324D02*
X88809524Y63807086D01*
X88809524Y63807086D02*
X88714286Y63759467D01*
X73113095Y32945181D02*
X73113095Y32135658D01*
X73113095Y32135658D02*
X73160714Y32040420D01*
X73160714Y32040420D02*
X73208333Y31992800D01*
X73208333Y31992800D02*
X73303571Y31945181D01*
X73303571Y31945181D02*
X73494047Y31945181D01*
X73494047Y31945181D02*
X73589285Y31992800D01*
X73589285Y31992800D02*
X73636904Y32040420D01*
X73636904Y32040420D02*
X73684523Y32135658D01*
X73684523Y32135658D02*
X73684523Y32945181D01*
X74684523Y31945181D02*
X74113095Y31945181D01*
X74398809Y31945181D02*
X74398809Y32945181D01*
X74398809Y32945181D02*
X74303571Y32802324D01*
X74303571Y32802324D02*
X74208333Y32707086D01*
X74208333Y32707086D02*
X74113095Y32659467D01*
D10*
X3155651Y63097243D02*
X3116603Y63058195D01*
X3116603Y63058195D02*
X2999460Y63019148D01*
X2999460Y63019148D02*
X2921365Y63019148D01*
X2921365Y63019148D02*
X2804222Y63058195D01*
X2804222Y63058195D02*
X2726127Y63136291D01*
X2726127Y63136291D02*
X2687079Y63214386D01*
X2687079Y63214386D02*
X2648031Y63370577D01*
X2648031Y63370577D02*
X2648031Y63487720D01*
X2648031Y63487720D02*
X2687079Y63643910D01*
X2687079Y63643910D02*
X2726127Y63722006D01*
X2726127Y63722006D02*
X2804222Y63800101D01*
X2804222Y63800101D02*
X2921365Y63839149D01*
X2921365Y63839149D02*
X2999460Y63839149D01*
X2999460Y63839149D02*
X3116603Y63800101D01*
X3116603Y63800101D02*
X3155651Y63761053D01*
X3428985Y63839149D02*
X3936604Y63839149D01*
X3936604Y63839149D02*
X3663271Y63526767D01*
X3663271Y63526767D02*
X3780414Y63526767D01*
X3780414Y63526767D02*
X3858509Y63487720D01*
X3858509Y63487720D02*
X3897557Y63448672D01*
X3897557Y63448672D02*
X3936604Y63370577D01*
X3936604Y63370577D02*
X3936604Y63175338D01*
X3936604Y63175338D02*
X3897557Y63097243D01*
X3897557Y63097243D02*
X3858509Y63058195D01*
X3858509Y63058195D02*
X3780414Y63019148D01*
X3780414Y63019148D02*
X3546128Y63019148D01*
X3546128Y63019148D02*
X3468032Y63058195D01*
X3468032Y63058195D02*
X3428985Y63097243D01*
X4717557Y63019148D02*
X4248985Y63019148D01*
X4483271Y63019148D02*
X4483271Y63839149D01*
X4483271Y63839149D02*
X4405176Y63722006D01*
X4405176Y63722006D02*
X4327081Y63643910D01*
X4327081Y63643910D02*
X4248985Y63604863D01*
X11275652Y32609193D02*
X11002318Y32999669D01*
X10807080Y32609193D02*
X10807080Y33429194D01*
X10807080Y33429194D02*
X11119461Y33429194D01*
X11119461Y33429194D02*
X11197557Y33390146D01*
X11197557Y33390146D02*
X11236604Y33351098D01*
X11236604Y33351098D02*
X11275652Y33273003D01*
X11275652Y33273003D02*
X11275652Y33155860D01*
X11275652Y33155860D02*
X11236604Y33077765D01*
X11236604Y33077765D02*
X11197557Y33038717D01*
X11197557Y33038717D02*
X11119461Y32999669D01*
X11119461Y32999669D02*
X10807080Y32999669D01*
X11744224Y33077765D02*
X11666129Y33116812D01*
X11666129Y33116812D02*
X11627081Y33155860D01*
X11627081Y33155860D02*
X11588033Y33233955D01*
X11588033Y33233955D02*
X11588033Y33273003D01*
X11588033Y33273003D02*
X11627081Y33351098D01*
X11627081Y33351098D02*
X11666129Y33390146D01*
X11666129Y33390146D02*
X11744224Y33429194D01*
X11744224Y33429194D02*
X11900415Y33429194D01*
X11900415Y33429194D02*
X11978510Y33390146D01*
X11978510Y33390146D02*
X12017558Y33351098D01*
X12017558Y33351098D02*
X12056605Y33273003D01*
X12056605Y33273003D02*
X12056605Y33233955D01*
X12056605Y33233955D02*
X12017558Y33155860D01*
X12017558Y33155860D02*
X11978510Y33116812D01*
X11978510Y33116812D02*
X11900415Y33077765D01*
X11900415Y33077765D02*
X11744224Y33077765D01*
X11744224Y33077765D02*
X11666129Y33038717D01*
X11666129Y33038717D02*
X11627081Y32999669D01*
X11627081Y32999669D02*
X11588033Y32921574D01*
X11588033Y32921574D02*
X11588033Y32765383D01*
X11588033Y32765383D02*
X11627081Y32687288D01*
X11627081Y32687288D02*
X11666129Y32648240D01*
X11666129Y32648240D02*
X11744224Y32609193D01*
X11744224Y32609193D02*
X11900415Y32609193D01*
X11900415Y32609193D02*
X11978510Y32648240D01*
X11978510Y32648240D02*
X12017558Y32687288D01*
X12017558Y32687288D02*
X12056605Y32765383D01*
X12056605Y32765383D02*
X12056605Y32921574D01*
X12056605Y32921574D02*
X12017558Y32999669D01*
X12017558Y32999669D02*
X11978510Y33038717D01*
X11978510Y33038717D02*
X11900415Y33077765D01*
X3155651Y66197273D02*
X3116603Y66158225D01*
X3116603Y66158225D02*
X2999460Y66119178D01*
X2999460Y66119178D02*
X2921365Y66119178D01*
X2921365Y66119178D02*
X2804222Y66158225D01*
X2804222Y66158225D02*
X2726127Y66236321D01*
X2726127Y66236321D02*
X2687079Y66314416D01*
X2687079Y66314416D02*
X2648031Y66470607D01*
X2648031Y66470607D02*
X2648031Y66587750D01*
X2648031Y66587750D02*
X2687079Y66743940D01*
X2687079Y66743940D02*
X2726127Y66822036D01*
X2726127Y66822036D02*
X2804222Y66900131D01*
X2804222Y66900131D02*
X2921365Y66939179D01*
X2921365Y66939179D02*
X2999460Y66939179D01*
X2999460Y66939179D02*
X3116603Y66900131D01*
X3116603Y66900131D02*
X3155651Y66861083D01*
X3468032Y66861083D02*
X3507080Y66900131D01*
X3507080Y66900131D02*
X3585175Y66939179D01*
X3585175Y66939179D02*
X3780414Y66939179D01*
X3780414Y66939179D02*
X3858509Y66900131D01*
X3858509Y66900131D02*
X3897557Y66861083D01*
X3897557Y66861083D02*
X3936604Y66782988D01*
X3936604Y66782988D02*
X3936604Y66704893D01*
X3936604Y66704893D02*
X3897557Y66587750D01*
X3897557Y66587750D02*
X3428985Y66119178D01*
X3428985Y66119178D02*
X3936604Y66119178D01*
X4327081Y66119178D02*
X4483271Y66119178D01*
X4483271Y66119178D02*
X4561367Y66158225D01*
X4561367Y66158225D02*
X4600414Y66197273D01*
X4600414Y66197273D02*
X4678510Y66314416D01*
X4678510Y66314416D02*
X4717557Y66470607D01*
X4717557Y66470607D02*
X4717557Y66782988D01*
X4717557Y66782988D02*
X4678510Y66861083D01*
X4678510Y66861083D02*
X4639462Y66900131D01*
X4639462Y66900131D02*
X4561367Y66939179D01*
X4561367Y66939179D02*
X4405176Y66939179D01*
X4405176Y66939179D02*
X4327081Y66900131D01*
X4327081Y66900131D02*
X4288033Y66861083D01*
X4288033Y66861083D02*
X4248985Y66782988D01*
X4248985Y66782988D02*
X4248985Y66587750D01*
X4248985Y66587750D02*
X4288033Y66509654D01*
X4288033Y66509654D02*
X4327081Y66470607D01*
X4327081Y66470607D02*
X4405176Y66431559D01*
X4405176Y66431559D02*
X4561367Y66431559D01*
X4561367Y66431559D02*
X4639462Y66470607D01*
X4639462Y66470607D02*
X4678510Y66509654D01*
X4678510Y66509654D02*
X4717557Y66587750D01*
X3155651Y64647258D02*
X3116603Y64608210D01*
X3116603Y64608210D02*
X2999460Y64569163D01*
X2999460Y64569163D02*
X2921365Y64569163D01*
X2921365Y64569163D02*
X2804222Y64608210D01*
X2804222Y64608210D02*
X2726127Y64686306D01*
X2726127Y64686306D02*
X2687079Y64764401D01*
X2687079Y64764401D02*
X2648031Y64920592D01*
X2648031Y64920592D02*
X2648031Y65037735D01*
X2648031Y65037735D02*
X2687079Y65193925D01*
X2687079Y65193925D02*
X2726127Y65272021D01*
X2726127Y65272021D02*
X2804222Y65350116D01*
X2804222Y65350116D02*
X2921365Y65389164D01*
X2921365Y65389164D02*
X2999460Y65389164D01*
X2999460Y65389164D02*
X3116603Y65350116D01*
X3116603Y65350116D02*
X3155651Y65311068D01*
X3428985Y65389164D02*
X3936604Y65389164D01*
X3936604Y65389164D02*
X3663271Y65076782D01*
X3663271Y65076782D02*
X3780414Y65076782D01*
X3780414Y65076782D02*
X3858509Y65037735D01*
X3858509Y65037735D02*
X3897557Y64998687D01*
X3897557Y64998687D02*
X3936604Y64920592D01*
X3936604Y64920592D02*
X3936604Y64725353D01*
X3936604Y64725353D02*
X3897557Y64647258D01*
X3897557Y64647258D02*
X3858509Y64608210D01*
X3858509Y64608210D02*
X3780414Y64569163D01*
X3780414Y64569163D02*
X3546128Y64569163D01*
X3546128Y64569163D02*
X3468032Y64608210D01*
X3468032Y64608210D02*
X3428985Y64647258D01*
X4444224Y65389164D02*
X4522319Y65389164D01*
X4522319Y65389164D02*
X4600414Y65350116D01*
X4600414Y65350116D02*
X4639462Y65311068D01*
X4639462Y65311068D02*
X4678510Y65232973D01*
X4678510Y65232973D02*
X4717557Y65076782D01*
X4717557Y65076782D02*
X4717557Y64881544D01*
X4717557Y64881544D02*
X4678510Y64725353D01*
X4678510Y64725353D02*
X4639462Y64647258D01*
X4639462Y64647258D02*
X4600414Y64608210D01*
X4600414Y64608210D02*
X4522319Y64569163D01*
X4522319Y64569163D02*
X4444224Y64569163D01*
X4444224Y64569163D02*
X4366128Y64608210D01*
X4366128Y64608210D02*
X4327081Y64647258D01*
X4327081Y64647258D02*
X4288033Y64725353D01*
X4288033Y64725353D02*
X4248985Y64881544D01*
X4248985Y64881544D02*
X4248985Y65076782D01*
X4248985Y65076782D02*
X4288033Y65232973D01*
X4288033Y65232973D02*
X4327081Y65311068D01*
X4327081Y65311068D02*
X4366128Y65350116D01*
X4366128Y65350116D02*
X4444224Y65389164D01*
X11275652Y35109193D02*
X11002318Y35499669D01*
X10807080Y35109193D02*
X10807080Y35929194D01*
X10807080Y35929194D02*
X11119461Y35929194D01*
X11119461Y35929194D02*
X11197557Y35890146D01*
X11197557Y35890146D02*
X11236604Y35851098D01*
X11236604Y35851098D02*
X11275652Y35773003D01*
X11275652Y35773003D02*
X11275652Y35655860D01*
X11275652Y35655860D02*
X11236604Y35577765D01*
X11236604Y35577765D02*
X11197557Y35538717D01*
X11197557Y35538717D02*
X11119461Y35499669D01*
X11119461Y35499669D02*
X10807080Y35499669D01*
X11548986Y35929194D02*
X12095653Y35929194D01*
X12095653Y35929194D02*
X11744224Y35109193D01*
D11*
X20594427Y40383259D02*
X21194427Y40383259D01*
X21194427Y40383259D02*
X20765856Y40183259D01*
X20765856Y40183259D02*
X21194427Y39983259D01*
X21194427Y39983259D02*
X20594427Y39983259D01*
X21137284Y39726117D02*
X21165856Y39697545D01*
X21165856Y39697545D02*
X21194427Y39640402D01*
X21194427Y39640402D02*
X21194427Y39497545D01*
X21194427Y39497545D02*
X21165856Y39440402D01*
X21165856Y39440402D02*
X21137284Y39411831D01*
X21137284Y39411831D02*
X21080141Y39383260D01*
X21080141Y39383260D02*
X21022999Y39383260D01*
X21022999Y39383260D02*
X20937284Y39411831D01*
X20937284Y39411831D02*
X20594427Y39754688D01*
X20594427Y39754688D02*
X20594427Y39383260D01*
X73038095Y18445181D02*
X73038095Y17635658D01*
X73038095Y17635658D02*
X73085714Y17540420D01*
X73085714Y17540420D02*
X73133333Y17492800D01*
X73133333Y17492800D02*
X73228571Y17445181D01*
X73228571Y17445181D02*
X73419047Y17445181D01*
X73419047Y17445181D02*
X73514285Y17492800D01*
X73514285Y17492800D02*
X73561904Y17540420D01*
X73561904Y17540420D02*
X73609523Y17635658D01*
X73609523Y17635658D02*
X73609523Y18445181D01*
X74038095Y18349943D02*
X74085714Y18397562D01*
X74085714Y18397562D02*
X74180952Y18445181D01*
X74180952Y18445181D02*
X74419047Y18445181D01*
X74419047Y18445181D02*
X74514285Y18397562D01*
X74514285Y18397562D02*
X74561904Y18349943D01*
X74561904Y18349943D02*
X74609523Y18254705D01*
X74609523Y18254705D02*
X74609523Y18159467D01*
X74609523Y18159467D02*
X74561904Y18016610D01*
X74561904Y18016610D02*
X73990476Y17445181D01*
X73990476Y17445181D02*
X74609523Y17445181D01*
D10*
X9563151Y50109192D02*
X9289818Y50499668D01*
X9094580Y50109192D02*
X9094580Y50929192D01*
X9094580Y50929192D02*
X9406961Y50929192D01*
X9406961Y50929192D02*
X9485056Y50890144D01*
X9485056Y50890144D02*
X9524103Y50851097D01*
X9524103Y50851097D02*
X9563151Y50773001D01*
X9563151Y50773001D02*
X9563151Y50655859D01*
X9563151Y50655859D02*
X9524103Y50577763D01*
X9524103Y50577763D02*
X9485056Y50538716D01*
X9485056Y50538716D02*
X9406961Y50499668D01*
X9406961Y50499668D02*
X9094580Y50499668D01*
X9875532Y50851097D02*
X9914580Y50890144D01*
X9914580Y50890144D02*
X9992675Y50929192D01*
X9992675Y50929192D02*
X10187913Y50929192D01*
X10187913Y50929192D02*
X10266008Y50890144D01*
X10266008Y50890144D02*
X10305056Y50851097D01*
X10305056Y50851097D02*
X10344103Y50773001D01*
X10344103Y50773001D02*
X10344103Y50694906D01*
X10344103Y50694906D02*
X10305056Y50577763D01*
X10305056Y50577763D02*
X9836484Y50109192D01*
X9836484Y50109192D02*
X10344103Y50109192D01*
X11125055Y50109192D02*
X10656484Y50109192D01*
X10890770Y50109192D02*
X10890770Y50929192D01*
X10890770Y50929192D02*
X10812674Y50812049D01*
X10812674Y50812049D02*
X10734579Y50733954D01*
X10734579Y50733954D02*
X10656484Y50694906D01*
X81775652Y25687288D02*
X81736604Y25648240D01*
X81736604Y25648240D02*
X81619461Y25609193D01*
X81619461Y25609193D02*
X81541366Y25609193D01*
X81541366Y25609193D02*
X81424223Y25648240D01*
X81424223Y25648240D02*
X81346128Y25726336D01*
X81346128Y25726336D02*
X81307080Y25804431D01*
X81307080Y25804431D02*
X81268032Y25960622D01*
X81268032Y25960622D02*
X81268032Y26077765D01*
X81268032Y26077765D02*
X81307080Y26233955D01*
X81307080Y26233955D02*
X81346128Y26312051D01*
X81346128Y26312051D02*
X81424223Y26390146D01*
X81424223Y26390146D02*
X81541366Y26429194D01*
X81541366Y26429194D02*
X81619461Y26429194D01*
X81619461Y26429194D02*
X81736604Y26390146D01*
X81736604Y26390146D02*
X81775652Y26351098D01*
X82556605Y25609193D02*
X82088033Y25609193D01*
X82322319Y25609193D02*
X82322319Y26429194D01*
X82322319Y26429194D02*
X82244224Y26312051D01*
X82244224Y26312051D02*
X82166129Y26233955D01*
X82166129Y26233955D02*
X82088033Y26194908D01*
X82829939Y26429194D02*
X83337558Y26429194D01*
X83337558Y26429194D02*
X83064225Y26116812D01*
X83064225Y26116812D02*
X83181368Y26116812D01*
X83181368Y26116812D02*
X83259463Y26077765D01*
X83259463Y26077765D02*
X83298511Y26038717D01*
X83298511Y26038717D02*
X83337558Y25960622D01*
X83337558Y25960622D02*
X83337558Y25765383D01*
X83337558Y25765383D02*
X83298511Y25687288D01*
X83298511Y25687288D02*
X83259463Y25648240D01*
X83259463Y25648240D02*
X83181368Y25609193D01*
X83181368Y25609193D02*
X82947082Y25609193D01*
X82947082Y25609193D02*
X82868986Y25648240D01*
X82868986Y25648240D02*
X82829939Y25687288D01*
X3275652Y69187288D02*
X3236604Y69148240D01*
X3236604Y69148240D02*
X3119461Y69109193D01*
X3119461Y69109193D02*
X3041366Y69109193D01*
X3041366Y69109193D02*
X2924223Y69148240D01*
X2924223Y69148240D02*
X2846128Y69226336D01*
X2846128Y69226336D02*
X2807080Y69304431D01*
X2807080Y69304431D02*
X2768032Y69460622D01*
X2768032Y69460622D02*
X2768032Y69577765D01*
X2768032Y69577765D02*
X2807080Y69733955D01*
X2807080Y69733955D02*
X2846128Y69812051D01*
X2846128Y69812051D02*
X2924223Y69890146D01*
X2924223Y69890146D02*
X3041366Y69929194D01*
X3041366Y69929194D02*
X3119461Y69929194D01*
X3119461Y69929194D02*
X3236604Y69890146D01*
X3236604Y69890146D02*
X3275652Y69851098D01*
X3588033Y69851098D02*
X3627081Y69890146D01*
X3627081Y69890146D02*
X3705176Y69929194D01*
X3705176Y69929194D02*
X3900415Y69929194D01*
X3900415Y69929194D02*
X3978510Y69890146D01*
X3978510Y69890146D02*
X4017558Y69851098D01*
X4017558Y69851098D02*
X4056605Y69773003D01*
X4056605Y69773003D02*
X4056605Y69694908D01*
X4056605Y69694908D02*
X4017558Y69577765D01*
X4017558Y69577765D02*
X3548986Y69109193D01*
X3548986Y69109193D02*
X4056605Y69109193D01*
X4329939Y69929194D02*
X4876606Y69929194D01*
X4876606Y69929194D02*
X4525177Y69109193D01*
X63775652Y12187288D02*
X63736604Y12148240D01*
X63736604Y12148240D02*
X63619461Y12109193D01*
X63619461Y12109193D02*
X63541366Y12109193D01*
X63541366Y12109193D02*
X63424223Y12148240D01*
X63424223Y12148240D02*
X63346128Y12226336D01*
X63346128Y12226336D02*
X63307080Y12304431D01*
X63307080Y12304431D02*
X63268032Y12460622D01*
X63268032Y12460622D02*
X63268032Y12577765D01*
X63268032Y12577765D02*
X63307080Y12733955D01*
X63307080Y12733955D02*
X63346128Y12812051D01*
X63346128Y12812051D02*
X63424223Y12890146D01*
X63424223Y12890146D02*
X63541366Y12929194D01*
X63541366Y12929194D02*
X63619461Y12929194D01*
X63619461Y12929194D02*
X63736604Y12890146D01*
X63736604Y12890146D02*
X63775652Y12851098D01*
X64088033Y12851098D02*
X64127081Y12890146D01*
X64127081Y12890146D02*
X64205176Y12929194D01*
X64205176Y12929194D02*
X64400415Y12929194D01*
X64400415Y12929194D02*
X64478510Y12890146D01*
X64478510Y12890146D02*
X64517558Y12851098D01*
X64517558Y12851098D02*
X64556605Y12773003D01*
X64556605Y12773003D02*
X64556605Y12694908D01*
X64556605Y12694908D02*
X64517558Y12577765D01*
X64517558Y12577765D02*
X64048986Y12109193D01*
X64048986Y12109193D02*
X64556605Y12109193D01*
X65298511Y12929194D02*
X64908034Y12929194D01*
X64908034Y12929194D02*
X64868986Y12538717D01*
X64868986Y12538717D02*
X64908034Y12577765D01*
X64908034Y12577765D02*
X64986129Y12616812D01*
X64986129Y12616812D02*
X65181368Y12616812D01*
X65181368Y12616812D02*
X65259463Y12577765D01*
X65259463Y12577765D02*
X65298511Y12538717D01*
X65298511Y12538717D02*
X65337558Y12460622D01*
X65337558Y12460622D02*
X65337558Y12265383D01*
X65337558Y12265383D02*
X65298511Y12187288D01*
X65298511Y12187288D02*
X65259463Y12148240D01*
X65259463Y12148240D02*
X65181368Y12109193D01*
X65181368Y12109193D02*
X64986129Y12109193D01*
X64986129Y12109193D02*
X64908034Y12148240D01*
X64908034Y12148240D02*
X64868986Y12187288D01*
D12*
X70946768Y4746001D02*
X70946768Y4492001D01*
X71345911Y4492001D02*
X70583911Y4492001D01*
X70583911Y4492001D02*
X70583911Y4854858D01*
X71345911Y5544287D02*
X71345911Y5108858D01*
X71345911Y5326573D02*
X70583911Y5326573D01*
X70583911Y5326573D02*
X70692768Y5254001D01*
X70692768Y5254001D02*
X70765340Y5181430D01*
X70765340Y5181430D02*
X70801626Y5108858D01*
D11*
X12238095Y69445181D02*
X12238095Y68635658D01*
X12238095Y68635658D02*
X12285714Y68540420D01*
X12285714Y68540420D02*
X12333333Y68492800D01*
X12333333Y68492800D02*
X12428571Y68445181D01*
X12428571Y68445181D02*
X12619047Y68445181D01*
X12619047Y68445181D02*
X12714285Y68492800D01*
X12714285Y68492800D02*
X12761904Y68540420D01*
X12761904Y68540420D02*
X12809523Y68635658D01*
X12809523Y68635658D02*
X12809523Y69445181D01*
X13714285Y69111848D02*
X13714285Y68445181D01*
X13476190Y69492800D02*
X13238095Y68778515D01*
X13238095Y68778515D02*
X13857142Y68778515D01*
X8761905Y60545181D02*
X8761905Y61545181D01*
X8761905Y61545181D02*
X9000000Y61545181D01*
X9000000Y61545181D02*
X9142857Y61497562D01*
X9142857Y61497562D02*
X9238095Y61402324D01*
X9238095Y61402324D02*
X9285714Y61307086D01*
X9285714Y61307086D02*
X9333333Y61116610D01*
X9333333Y61116610D02*
X9333333Y60973753D01*
X9333333Y60973753D02*
X9285714Y60783277D01*
X9285714Y60783277D02*
X9238095Y60688039D01*
X9238095Y60688039D02*
X9142857Y60592800D01*
X9142857Y60592800D02*
X9000000Y60545181D01*
X9000000Y60545181D02*
X8761905Y60545181D01*
X9904762Y61116610D02*
X9809524Y61164229D01*
X9809524Y61164229D02*
X9761905Y61211848D01*
X9761905Y61211848D02*
X9714286Y61307086D01*
X9714286Y61307086D02*
X9714286Y61354705D01*
X9714286Y61354705D02*
X9761905Y61449943D01*
X9761905Y61449943D02*
X9809524Y61497562D01*
X9809524Y61497562D02*
X9904762Y61545181D01*
X9904762Y61545181D02*
X10095238Y61545181D01*
X10095238Y61545181D02*
X10190476Y61497562D01*
X10190476Y61497562D02*
X10238095Y61449943D01*
X10238095Y61449943D02*
X10285714Y61354705D01*
X10285714Y61354705D02*
X10285714Y61307086D01*
X10285714Y61307086D02*
X10238095Y61211848D01*
X10238095Y61211848D02*
X10190476Y61164229D01*
X10190476Y61164229D02*
X10095238Y61116610D01*
X10095238Y61116610D02*
X9904762Y61116610D01*
X9904762Y61116610D02*
X9809524Y61068991D01*
X9809524Y61068991D02*
X9761905Y61021372D01*
X9761905Y61021372D02*
X9714286Y60926134D01*
X9714286Y60926134D02*
X9714286Y60735658D01*
X9714286Y60735658D02*
X9761905Y60640420D01*
X9761905Y60640420D02*
X9809524Y60592800D01*
X9809524Y60592800D02*
X9904762Y60545181D01*
X9904762Y60545181D02*
X10095238Y60545181D01*
X10095238Y60545181D02*
X10190476Y60592800D01*
X10190476Y60592800D02*
X10238095Y60640420D01*
X10238095Y60640420D02*
X10285714Y60735658D01*
X10285714Y60735658D02*
X10285714Y60926134D01*
X10285714Y60926134D02*
X10238095Y61021372D01*
X10238095Y61021372D02*
X10190476Y61068991D01*
X10190476Y61068991D02*
X10095238Y61116610D01*
X72738095Y58545181D02*
X72738095Y57735658D01*
X72738095Y57735658D02*
X72785714Y57640420D01*
X72785714Y57640420D02*
X72833333Y57592800D01*
X72833333Y57592800D02*
X72928571Y57545181D01*
X72928571Y57545181D02*
X73119047Y57545181D01*
X73119047Y57545181D02*
X73214285Y57592800D01*
X73214285Y57592800D02*
X73261904Y57640420D01*
X73261904Y57640420D02*
X73309523Y57735658D01*
X73309523Y57735658D02*
X73309523Y58545181D01*
X73833333Y57545181D02*
X74023809Y57545181D01*
X74023809Y57545181D02*
X74119047Y57592800D01*
X74119047Y57592800D02*
X74166666Y57640420D01*
X74166666Y57640420D02*
X74261904Y57783277D01*
X74261904Y57783277D02*
X74309523Y57973753D01*
X74309523Y57973753D02*
X74309523Y58354705D01*
X74309523Y58354705D02*
X74261904Y58449943D01*
X74261904Y58449943D02*
X74214285Y58497562D01*
X74214285Y58497562D02*
X74119047Y58545181D01*
X74119047Y58545181D02*
X73928571Y58545181D01*
X73928571Y58545181D02*
X73833333Y58497562D01*
X73833333Y58497562D02*
X73785714Y58449943D01*
X73785714Y58449943D02*
X73738095Y58354705D01*
X73738095Y58354705D02*
X73738095Y58116610D01*
X73738095Y58116610D02*
X73785714Y58021372D01*
X73785714Y58021372D02*
X73833333Y57973753D01*
X73833333Y57973753D02*
X73928571Y57926134D01*
X73928571Y57926134D02*
X74119047Y57926134D01*
X74119047Y57926134D02*
X74214285Y57973753D01*
X74214285Y57973753D02*
X74261904Y58021372D01*
X74261904Y58021372D02*
X74309523Y58116610D01*
X14454819Y58545834D02*
X14454819Y58069644D01*
X14454819Y58069644D02*
X13454819Y58069644D01*
X13550057Y58831549D02*
X13502438Y58879168D01*
X13502438Y58879168D02*
X13454819Y58974406D01*
X13454819Y58974406D02*
X13454819Y59212501D01*
X13454819Y59212501D02*
X13502438Y59307739D01*
X13502438Y59307739D02*
X13550057Y59355358D01*
X13550057Y59355358D02*
X13645295Y59402977D01*
X13645295Y59402977D02*
X13740533Y59402977D01*
X13740533Y59402977D02*
X13883390Y59355358D01*
X13883390Y59355358D02*
X14454819Y58783930D01*
X14454819Y58783930D02*
X14454819Y59402977D01*
X72261905Y51045181D02*
X72261905Y50235658D01*
X72261905Y50235658D02*
X72309524Y50140420D01*
X72309524Y50140420D02*
X72357143Y50092800D01*
X72357143Y50092800D02*
X72452381Y50045181D01*
X72452381Y50045181D02*
X72642857Y50045181D01*
X72642857Y50045181D02*
X72738095Y50092800D01*
X72738095Y50092800D02*
X72785714Y50140420D01*
X72785714Y50140420D02*
X72833333Y50235658D01*
X72833333Y50235658D02*
X72833333Y51045181D01*
X73833333Y50045181D02*
X73261905Y50045181D01*
X73547619Y50045181D02*
X73547619Y51045181D01*
X73547619Y51045181D02*
X73452381Y50902324D01*
X73452381Y50902324D02*
X73357143Y50807086D01*
X73357143Y50807086D02*
X73261905Y50759467D01*
X74452381Y51045181D02*
X74547619Y51045181D01*
X74547619Y51045181D02*
X74642857Y50997562D01*
X74642857Y50997562D02*
X74690476Y50949943D01*
X74690476Y50949943D02*
X74738095Y50854705D01*
X74738095Y50854705D02*
X74785714Y50664229D01*
X74785714Y50664229D02*
X74785714Y50426134D01*
X74785714Y50426134D02*
X74738095Y50235658D01*
X74738095Y50235658D02*
X74690476Y50140420D01*
X74690476Y50140420D02*
X74642857Y50092800D01*
X74642857Y50092800D02*
X74547619Y50045181D01*
X74547619Y50045181D02*
X74452381Y50045181D01*
X74452381Y50045181D02*
X74357143Y50092800D01*
X74357143Y50092800D02*
X74309524Y50140420D01*
X74309524Y50140420D02*
X74261905Y50235658D01*
X74261905Y50235658D02*
X74214286Y50426134D01*
X74214286Y50426134D02*
X74214286Y50664229D01*
X74214286Y50664229D02*
X74261905Y50854705D01*
X74261905Y50854705D02*
X74309524Y50949943D01*
X74309524Y50949943D02*
X74357143Y50997562D01*
X74357143Y50997562D02*
X74452381Y51045181D01*
X17954166Y48568991D02*
X17620833Y48568991D01*
X17620833Y48045181D02*
X17620833Y49045181D01*
X17620833Y49045181D02*
X18097023Y49045181D01*
X18382738Y49045181D02*
X19049404Y49045181D01*
X19049404Y49045181D02*
X18620833Y48045181D01*
D12*
X51750911Y71873001D02*
X51388054Y71619001D01*
X51750911Y71437572D02*
X50988911Y71437572D01*
X50988911Y71437572D02*
X50988911Y71727858D01*
X50988911Y71727858D02*
X51025197Y71800429D01*
X51025197Y71800429D02*
X51061483Y71836715D01*
X51061483Y71836715D02*
X51134054Y71873001D01*
X51134054Y71873001D02*
X51242911Y71873001D01*
X51242911Y71873001D02*
X51315483Y71836715D01*
X51315483Y71836715D02*
X51351768Y71800429D01*
X51351768Y71800429D02*
X51388054Y71727858D01*
X51388054Y71727858D02*
X51388054Y71437572D01*
X51242911Y72526143D02*
X51750911Y72526143D01*
X50952626Y72344715D02*
X51496911Y72163286D01*
X51496911Y72163286D02*
X51496911Y72635001D01*
D10*
X64775651Y8109192D02*
X64502318Y8499668D01*
X64307080Y8109192D02*
X64307080Y8929192D01*
X64307080Y8929192D02*
X64619461Y8929192D01*
X64619461Y8929192D02*
X64697556Y8890144D01*
X64697556Y8890144D02*
X64736603Y8851097D01*
X64736603Y8851097D02*
X64775651Y8773001D01*
X64775651Y8773001D02*
X64775651Y8655859D01*
X64775651Y8655859D02*
X64736603Y8577763D01*
X64736603Y8577763D02*
X64697556Y8538716D01*
X64697556Y8538716D02*
X64619461Y8499668D01*
X64619461Y8499668D02*
X64307080Y8499668D01*
X65088032Y8851097D02*
X65127080Y8890144D01*
X65127080Y8890144D02*
X65205175Y8929192D01*
X65205175Y8929192D02*
X65400413Y8929192D01*
X65400413Y8929192D02*
X65478508Y8890144D01*
X65478508Y8890144D02*
X65517556Y8851097D01*
X65517556Y8851097D02*
X65556603Y8773001D01*
X65556603Y8773001D02*
X65556603Y8694906D01*
X65556603Y8694906D02*
X65517556Y8577763D01*
X65517556Y8577763D02*
X65048984Y8109192D01*
X65048984Y8109192D02*
X65556603Y8109192D01*
X82275652Y11187288D02*
X82236604Y11148240D01*
X82236604Y11148240D02*
X82119461Y11109193D01*
X82119461Y11109193D02*
X82041366Y11109193D01*
X82041366Y11109193D02*
X81924223Y11148240D01*
X81924223Y11148240D02*
X81846128Y11226336D01*
X81846128Y11226336D02*
X81807080Y11304431D01*
X81807080Y11304431D02*
X81768032Y11460622D01*
X81768032Y11460622D02*
X81768032Y11577765D01*
X81768032Y11577765D02*
X81807080Y11733955D01*
X81807080Y11733955D02*
X81846128Y11812051D01*
X81846128Y11812051D02*
X81924223Y11890146D01*
X81924223Y11890146D02*
X82041366Y11929194D01*
X82041366Y11929194D02*
X82119461Y11929194D01*
X82119461Y11929194D02*
X82236604Y11890146D01*
X82236604Y11890146D02*
X82275652Y11851098D01*
X82588033Y11851098D02*
X82627081Y11890146D01*
X82627081Y11890146D02*
X82705176Y11929194D01*
X82705176Y11929194D02*
X82900415Y11929194D01*
X82900415Y11929194D02*
X82978510Y11890146D01*
X82978510Y11890146D02*
X83017558Y11851098D01*
X83017558Y11851098D02*
X83056605Y11773003D01*
X83056605Y11773003D02*
X83056605Y11694908D01*
X83056605Y11694908D02*
X83017558Y11577765D01*
X83017558Y11577765D02*
X82548986Y11109193D01*
X82548986Y11109193D02*
X83056605Y11109193D01*
X83759463Y11929194D02*
X83603272Y11929194D01*
X83603272Y11929194D02*
X83525177Y11890146D01*
X83525177Y11890146D02*
X83486129Y11851098D01*
X83486129Y11851098D02*
X83408034Y11733955D01*
X83408034Y11733955D02*
X83368986Y11577765D01*
X83368986Y11577765D02*
X83368986Y11265383D01*
X83368986Y11265383D02*
X83408034Y11187288D01*
X83408034Y11187288D02*
X83447082Y11148240D01*
X83447082Y11148240D02*
X83525177Y11109193D01*
X83525177Y11109193D02*
X83681368Y11109193D01*
X83681368Y11109193D02*
X83759463Y11148240D01*
X83759463Y11148240D02*
X83798511Y11187288D01*
X83798511Y11187288D02*
X83837558Y11265383D01*
X83837558Y11265383D02*
X83837558Y11460622D01*
X83837558Y11460622D02*
X83798511Y11538717D01*
X83798511Y11538717D02*
X83759463Y11577765D01*
X83759463Y11577765D02*
X83681368Y11616812D01*
X83681368Y11616812D02*
X83525177Y11616812D01*
X83525177Y11616812D02*
X83447082Y11577765D01*
X83447082Y11577765D02*
X83408034Y11538717D01*
X83408034Y11538717D02*
X83368986Y11460622D01*
X15775651Y29058238D02*
X15502318Y29448714D01*
X15307080Y29058238D02*
X15307080Y29878238D01*
X15307080Y29878238D02*
X15619461Y29878238D01*
X15619461Y29878238D02*
X15697556Y29839190D01*
X15697556Y29839190D02*
X15736603Y29800143D01*
X15736603Y29800143D02*
X15775651Y29722047D01*
X15775651Y29722047D02*
X15775651Y29604905D01*
X15775651Y29604905D02*
X15736603Y29526809D01*
X15736603Y29526809D02*
X15697556Y29487762D01*
X15697556Y29487762D02*
X15619461Y29448714D01*
X15619461Y29448714D02*
X15307080Y29448714D01*
X16478508Y29878238D02*
X16322318Y29878238D01*
X16322318Y29878238D02*
X16244222Y29839190D01*
X16244222Y29839190D02*
X16205175Y29800143D01*
X16205175Y29800143D02*
X16127080Y29683000D01*
X16127080Y29683000D02*
X16088032Y29526809D01*
X16088032Y29526809D02*
X16088032Y29214428D01*
X16088032Y29214428D02*
X16127080Y29136333D01*
X16127080Y29136333D02*
X16166127Y29097285D01*
X16166127Y29097285D02*
X16244222Y29058238D01*
X16244222Y29058238D02*
X16400413Y29058238D01*
X16400413Y29058238D02*
X16478508Y29097285D01*
X16478508Y29097285D02*
X16517556Y29136333D01*
X16517556Y29136333D02*
X16556603Y29214428D01*
X16556603Y29214428D02*
X16556603Y29409666D01*
X16556603Y29409666D02*
X16517556Y29487762D01*
X16517556Y29487762D02*
X16478508Y29526809D01*
X16478508Y29526809D02*
X16400413Y29565857D01*
X16400413Y29565857D02*
X16244222Y29565857D01*
X16244222Y29565857D02*
X16166127Y29526809D01*
X16166127Y29526809D02*
X16127080Y29487762D01*
X16127080Y29487762D02*
X16088032Y29409666D01*
X9563151Y52109192D02*
X9289818Y52499668D01*
X9094580Y52109192D02*
X9094580Y52929192D01*
X9094580Y52929192D02*
X9406961Y52929192D01*
X9406961Y52929192D02*
X9485056Y52890144D01*
X9485056Y52890144D02*
X9524103Y52851097D01*
X9524103Y52851097D02*
X9563151Y52773001D01*
X9563151Y52773001D02*
X9563151Y52655859D01*
X9563151Y52655859D02*
X9524103Y52577763D01*
X9524103Y52577763D02*
X9485056Y52538716D01*
X9485056Y52538716D02*
X9406961Y52499668D01*
X9406961Y52499668D02*
X9094580Y52499668D01*
X9875532Y52851097D02*
X9914580Y52890144D01*
X9914580Y52890144D02*
X9992675Y52929192D01*
X9992675Y52929192D02*
X10187913Y52929192D01*
X10187913Y52929192D02*
X10266008Y52890144D01*
X10266008Y52890144D02*
X10305056Y52851097D01*
X10305056Y52851097D02*
X10344103Y52773001D01*
X10344103Y52773001D02*
X10344103Y52694906D01*
X10344103Y52694906D02*
X10305056Y52577763D01*
X10305056Y52577763D02*
X9836484Y52109192D01*
X9836484Y52109192D02*
X10344103Y52109192D01*
X10851722Y52929192D02*
X10929817Y52929192D01*
X10929817Y52929192D02*
X11007913Y52890144D01*
X11007913Y52890144D02*
X11046960Y52851097D01*
X11046960Y52851097D02*
X11086008Y52773001D01*
X11086008Y52773001D02*
X11125055Y52616811D01*
X11125055Y52616811D02*
X11125055Y52421573D01*
X11125055Y52421573D02*
X11086008Y52265382D01*
X11086008Y52265382D02*
X11046960Y52187287D01*
X11046960Y52187287D02*
X11007913Y52148239D01*
X11007913Y52148239D02*
X10929817Y52109192D01*
X10929817Y52109192D02*
X10851722Y52109192D01*
X10851722Y52109192D02*
X10773627Y52148239D01*
X10773627Y52148239D02*
X10734579Y52187287D01*
X10734579Y52187287D02*
X10695532Y52265382D01*
X10695532Y52265382D02*
X10656484Y52421573D01*
X10656484Y52421573D02*
X10656484Y52616811D01*
X10656484Y52616811D02*
X10695532Y52773001D01*
X10695532Y52773001D02*
X10734579Y52851097D01*
X10734579Y52851097D02*
X10773627Y52890144D01*
X10773627Y52890144D02*
X10851722Y52929192D01*
X9563151Y46109192D02*
X9289818Y46499668D01*
X9094580Y46109192D02*
X9094580Y46929192D01*
X9094580Y46929192D02*
X9406961Y46929192D01*
X9406961Y46929192D02*
X9485056Y46890144D01*
X9485056Y46890144D02*
X9524103Y46851097D01*
X9524103Y46851097D02*
X9563151Y46773001D01*
X9563151Y46773001D02*
X9563151Y46655859D01*
X9563151Y46655859D02*
X9524103Y46577763D01*
X9524103Y46577763D02*
X9485056Y46538716D01*
X9485056Y46538716D02*
X9406961Y46499668D01*
X9406961Y46499668D02*
X9094580Y46499668D01*
X9875532Y46851097D02*
X9914580Y46890144D01*
X9914580Y46890144D02*
X9992675Y46929192D01*
X9992675Y46929192D02*
X10187913Y46929192D01*
X10187913Y46929192D02*
X10266008Y46890144D01*
X10266008Y46890144D02*
X10305056Y46851097D01*
X10305056Y46851097D02*
X10344103Y46773001D01*
X10344103Y46773001D02*
X10344103Y46694906D01*
X10344103Y46694906D02*
X10305056Y46577763D01*
X10305056Y46577763D02*
X9836484Y46109192D01*
X9836484Y46109192D02*
X10344103Y46109192D01*
X11046960Y46929192D02*
X10890770Y46929192D01*
X10890770Y46929192D02*
X10812674Y46890144D01*
X10812674Y46890144D02*
X10773627Y46851097D01*
X10773627Y46851097D02*
X10695532Y46733954D01*
X10695532Y46733954D02*
X10656484Y46577763D01*
X10656484Y46577763D02*
X10656484Y46265382D01*
X10656484Y46265382D02*
X10695532Y46187287D01*
X10695532Y46187287D02*
X10734579Y46148239D01*
X10734579Y46148239D02*
X10812674Y46109192D01*
X10812674Y46109192D02*
X10968865Y46109192D01*
X10968865Y46109192D02*
X11046960Y46148239D01*
X11046960Y46148239D02*
X11086008Y46187287D01*
X11086008Y46187287D02*
X11125055Y46265382D01*
X11125055Y46265382D02*
X11125055Y46460620D01*
X11125055Y46460620D02*
X11086008Y46538716D01*
X11086008Y46538716D02*
X11046960Y46577763D01*
X11046960Y46577763D02*
X10968865Y46616811D01*
X10968865Y46616811D02*
X10812674Y46616811D01*
X10812674Y46616811D02*
X10734579Y46577763D01*
X10734579Y46577763D02*
X10695532Y46538716D01*
X10695532Y46538716D02*
X10656484Y46460620D01*
X9563151Y42109192D02*
X9289818Y42499668D01*
X9094580Y42109192D02*
X9094580Y42929192D01*
X9094580Y42929192D02*
X9406961Y42929192D01*
X9406961Y42929192D02*
X9485056Y42890144D01*
X9485056Y42890144D02*
X9524103Y42851097D01*
X9524103Y42851097D02*
X9563151Y42773001D01*
X9563151Y42773001D02*
X9563151Y42655859D01*
X9563151Y42655859D02*
X9524103Y42577763D01*
X9524103Y42577763D02*
X9485056Y42538716D01*
X9485056Y42538716D02*
X9406961Y42499668D01*
X9406961Y42499668D02*
X9094580Y42499668D01*
X9875532Y42851097D02*
X9914580Y42890144D01*
X9914580Y42890144D02*
X9992675Y42929192D01*
X9992675Y42929192D02*
X10187913Y42929192D01*
X10187913Y42929192D02*
X10266008Y42890144D01*
X10266008Y42890144D02*
X10305056Y42851097D01*
X10305056Y42851097D02*
X10344103Y42773001D01*
X10344103Y42773001D02*
X10344103Y42694906D01*
X10344103Y42694906D02*
X10305056Y42577763D01*
X10305056Y42577763D02*
X9836484Y42109192D01*
X9836484Y42109192D02*
X10344103Y42109192D01*
X10812674Y42577763D02*
X10734579Y42616811D01*
X10734579Y42616811D02*
X10695532Y42655859D01*
X10695532Y42655859D02*
X10656484Y42733954D01*
X10656484Y42733954D02*
X10656484Y42773001D01*
X10656484Y42773001D02*
X10695532Y42851097D01*
X10695532Y42851097D02*
X10734579Y42890144D01*
X10734579Y42890144D02*
X10812674Y42929192D01*
X10812674Y42929192D02*
X10968865Y42929192D01*
X10968865Y42929192D02*
X11046960Y42890144D01*
X11046960Y42890144D02*
X11086008Y42851097D01*
X11086008Y42851097D02*
X11125055Y42773001D01*
X11125055Y42773001D02*
X11125055Y42733954D01*
X11125055Y42733954D02*
X11086008Y42655859D01*
X11086008Y42655859D02*
X11046960Y42616811D01*
X11046960Y42616811D02*
X10968865Y42577763D01*
X10968865Y42577763D02*
X10812674Y42577763D01*
X10812674Y42577763D02*
X10734579Y42538716D01*
X10734579Y42538716D02*
X10695532Y42499668D01*
X10695532Y42499668D02*
X10656484Y42421573D01*
X10656484Y42421573D02*
X10656484Y42265382D01*
X10656484Y42265382D02*
X10695532Y42187287D01*
X10695532Y42187287D02*
X10734579Y42148239D01*
X10734579Y42148239D02*
X10812674Y42109192D01*
X10812674Y42109192D02*
X10968865Y42109192D01*
X10968865Y42109192D02*
X11046960Y42148239D01*
X11046960Y42148239D02*
X11086008Y42187287D01*
X11086008Y42187287D02*
X11125055Y42265382D01*
X11125055Y42265382D02*
X11125055Y42421573D01*
X11125055Y42421573D02*
X11086008Y42499668D01*
X11086008Y42499668D02*
X11046960Y42538716D01*
X11046960Y42538716D02*
X10968865Y42577763D01*
X63985651Y29687288D02*
X63946603Y29648240D01*
X63946603Y29648240D02*
X63829460Y29609193D01*
X63829460Y29609193D02*
X63751365Y29609193D01*
X63751365Y29609193D02*
X63634222Y29648240D01*
X63634222Y29648240D02*
X63556127Y29726336D01*
X63556127Y29726336D02*
X63517079Y29804431D01*
X63517079Y29804431D02*
X63478031Y29960622D01*
X63478031Y29960622D02*
X63478031Y30077765D01*
X63478031Y30077765D02*
X63517079Y30233955D01*
X63517079Y30233955D02*
X63556127Y30312051D01*
X63556127Y30312051D02*
X63634222Y30390146D01*
X63634222Y30390146D02*
X63751365Y30429194D01*
X63751365Y30429194D02*
X63829460Y30429194D01*
X63829460Y30429194D02*
X63946603Y30390146D01*
X63946603Y30390146D02*
X63985651Y30351098D01*
X64766604Y29609193D02*
X64298032Y29609193D01*
X64532318Y29609193D02*
X64532318Y30429194D01*
X64532318Y30429194D02*
X64454223Y30312051D01*
X64454223Y30312051D02*
X64376128Y30233955D01*
X64376128Y30233955D02*
X64298032Y30194908D01*
X65547557Y29609193D02*
X65078985Y29609193D01*
X65313271Y29609193D02*
X65313271Y30429194D01*
X65313271Y30429194D02*
X65235176Y30312051D01*
X65235176Y30312051D02*
X65157081Y30233955D01*
X65157081Y30233955D02*
X65078985Y30194908D01*
X9563151Y48109192D02*
X9289818Y48499668D01*
X9094580Y48109192D02*
X9094580Y48929192D01*
X9094580Y48929192D02*
X9406961Y48929192D01*
X9406961Y48929192D02*
X9485056Y48890144D01*
X9485056Y48890144D02*
X9524103Y48851097D01*
X9524103Y48851097D02*
X9563151Y48773001D01*
X9563151Y48773001D02*
X9563151Y48655859D01*
X9563151Y48655859D02*
X9524103Y48577763D01*
X9524103Y48577763D02*
X9485056Y48538716D01*
X9485056Y48538716D02*
X9406961Y48499668D01*
X9406961Y48499668D02*
X9094580Y48499668D01*
X9875532Y48851097D02*
X9914580Y48890144D01*
X9914580Y48890144D02*
X9992675Y48929192D01*
X9992675Y48929192D02*
X10187913Y48929192D01*
X10187913Y48929192D02*
X10266008Y48890144D01*
X10266008Y48890144D02*
X10305056Y48851097D01*
X10305056Y48851097D02*
X10344103Y48773001D01*
X10344103Y48773001D02*
X10344103Y48694906D01*
X10344103Y48694906D02*
X10305056Y48577763D01*
X10305056Y48577763D02*
X9836484Y48109192D01*
X9836484Y48109192D02*
X10344103Y48109192D01*
X10656484Y48851097D02*
X10695532Y48890144D01*
X10695532Y48890144D02*
X10773627Y48929192D01*
X10773627Y48929192D02*
X10968865Y48929192D01*
X10968865Y48929192D02*
X11046960Y48890144D01*
X11046960Y48890144D02*
X11086008Y48851097D01*
X11086008Y48851097D02*
X11125055Y48773001D01*
X11125055Y48773001D02*
X11125055Y48694906D01*
X11125055Y48694906D02*
X11086008Y48577763D01*
X11086008Y48577763D02*
X10617436Y48109192D01*
X10617436Y48109192D02*
X11125055Y48109192D01*
D11*
X17954166Y46568991D02*
X17620833Y46568991D01*
X17620833Y46045181D02*
X17620833Y47045181D01*
X17620833Y47045181D02*
X18097023Y47045181D01*
X18620833Y46616610D02*
X18525595Y46664229D01*
X18525595Y46664229D02*
X18477976Y46711848D01*
X18477976Y46711848D02*
X18430357Y46807086D01*
X18430357Y46807086D02*
X18430357Y46854705D01*
X18430357Y46854705D02*
X18477976Y46949943D01*
X18477976Y46949943D02*
X18525595Y46997562D01*
X18525595Y46997562D02*
X18620833Y47045181D01*
X18620833Y47045181D02*
X18811309Y47045181D01*
X18811309Y47045181D02*
X18906547Y46997562D01*
X18906547Y46997562D02*
X18954166Y46949943D01*
X18954166Y46949943D02*
X19001785Y46854705D01*
X19001785Y46854705D02*
X19001785Y46807086D01*
X19001785Y46807086D02*
X18954166Y46711848D01*
X18954166Y46711848D02*
X18906547Y46664229D01*
X18906547Y46664229D02*
X18811309Y46616610D01*
X18811309Y46616610D02*
X18620833Y46616610D01*
X18620833Y46616610D02*
X18525595Y46568991D01*
X18525595Y46568991D02*
X18477976Y46521372D01*
X18477976Y46521372D02*
X18430357Y46426134D01*
X18430357Y46426134D02*
X18430357Y46235658D01*
X18430357Y46235658D02*
X18477976Y46140420D01*
X18477976Y46140420D02*
X18525595Y46092800D01*
X18525595Y46092800D02*
X18620833Y46045181D01*
X18620833Y46045181D02*
X18811309Y46045181D01*
X18811309Y46045181D02*
X18906547Y46092800D01*
X18906547Y46092800D02*
X18954166Y46140420D01*
X18954166Y46140420D02*
X19001785Y46235658D01*
X19001785Y46235658D02*
X19001785Y46426134D01*
X19001785Y46426134D02*
X18954166Y46521372D01*
X18954166Y46521372D02*
X18906547Y46568991D01*
X18906547Y46568991D02*
X18811309Y46616610D01*
D10*
X3155651Y61547228D02*
X3116603Y61508180D01*
X3116603Y61508180D02*
X2999460Y61469133D01*
X2999460Y61469133D02*
X2921365Y61469133D01*
X2921365Y61469133D02*
X2804222Y61508180D01*
X2804222Y61508180D02*
X2726127Y61586276D01*
X2726127Y61586276D02*
X2687079Y61664371D01*
X2687079Y61664371D02*
X2648031Y61820562D01*
X2648031Y61820562D02*
X2648031Y61937705D01*
X2648031Y61937705D02*
X2687079Y62093895D01*
X2687079Y62093895D02*
X2726127Y62171991D01*
X2726127Y62171991D02*
X2804222Y62250086D01*
X2804222Y62250086D02*
X2921365Y62289134D01*
X2921365Y62289134D02*
X2999460Y62289134D01*
X2999460Y62289134D02*
X3116603Y62250086D01*
X3116603Y62250086D02*
X3155651Y62211038D01*
X3428985Y62289134D02*
X3936604Y62289134D01*
X3936604Y62289134D02*
X3663271Y61976752D01*
X3663271Y61976752D02*
X3780414Y61976752D01*
X3780414Y61976752D02*
X3858509Y61937705D01*
X3858509Y61937705D02*
X3897557Y61898657D01*
X3897557Y61898657D02*
X3936604Y61820562D01*
X3936604Y61820562D02*
X3936604Y61625323D01*
X3936604Y61625323D02*
X3897557Y61547228D01*
X3897557Y61547228D02*
X3858509Y61508180D01*
X3858509Y61508180D02*
X3780414Y61469133D01*
X3780414Y61469133D02*
X3546128Y61469133D01*
X3546128Y61469133D02*
X3468032Y61508180D01*
X3468032Y61508180D02*
X3428985Y61547228D01*
X4248985Y62211038D02*
X4288033Y62250086D01*
X4288033Y62250086D02*
X4366128Y62289134D01*
X4366128Y62289134D02*
X4561367Y62289134D01*
X4561367Y62289134D02*
X4639462Y62250086D01*
X4639462Y62250086D02*
X4678510Y62211038D01*
X4678510Y62211038D02*
X4717557Y62132943D01*
X4717557Y62132943D02*
X4717557Y62054848D01*
X4717557Y62054848D02*
X4678510Y61937705D01*
X4678510Y61937705D02*
X4209938Y61469133D01*
X4209938Y61469133D02*
X4717557Y61469133D01*
D11*
X15761905Y73545181D02*
X15761905Y74545181D01*
X15761905Y74545181D02*
X16095238Y73830896D01*
X16095238Y73830896D02*
X16428571Y74545181D01*
X16428571Y74545181D02*
X16428571Y73545181D01*
X16857143Y73830896D02*
X17333333Y73830896D01*
X16761905Y73545181D02*
X17095238Y74545181D01*
X17095238Y74545181D02*
X17428571Y73545181D01*
X17761905Y73545181D02*
X17761905Y74545181D01*
X17761905Y74545181D02*
X18142857Y74545181D01*
X18142857Y74545181D02*
X18238095Y74497562D01*
X18238095Y74497562D02*
X18285714Y74449943D01*
X18285714Y74449943D02*
X18333333Y74354705D01*
X18333333Y74354705D02*
X18333333Y74211848D01*
X18333333Y74211848D02*
X18285714Y74116610D01*
X18285714Y74116610D02*
X18238095Y74068991D01*
X18238095Y74068991D02*
X18142857Y74021372D01*
X18142857Y74021372D02*
X17761905Y74021372D01*
X19285714Y73545181D02*
X18714286Y73545181D01*
X19000000Y73545181D02*
X19000000Y74545181D01*
X19000000Y74545181D02*
X18904762Y74402324D01*
X18904762Y74402324D02*
X18809524Y74307086D01*
X18809524Y74307086D02*
X18714286Y74259467D01*
D10*
X63985651Y26687288D02*
X63946603Y26648240D01*
X63946603Y26648240D02*
X63829460Y26609193D01*
X63829460Y26609193D02*
X63751365Y26609193D01*
X63751365Y26609193D02*
X63634222Y26648240D01*
X63634222Y26648240D02*
X63556127Y26726336D01*
X63556127Y26726336D02*
X63517079Y26804431D01*
X63517079Y26804431D02*
X63478031Y26960622D01*
X63478031Y26960622D02*
X63478031Y27077765D01*
X63478031Y27077765D02*
X63517079Y27233955D01*
X63517079Y27233955D02*
X63556127Y27312051D01*
X63556127Y27312051D02*
X63634222Y27390146D01*
X63634222Y27390146D02*
X63751365Y27429194D01*
X63751365Y27429194D02*
X63829460Y27429194D01*
X63829460Y27429194D02*
X63946603Y27390146D01*
X63946603Y27390146D02*
X63985651Y27351098D01*
X64766604Y26609193D02*
X64298032Y26609193D01*
X64532318Y26609193D02*
X64532318Y27429194D01*
X64532318Y27429194D02*
X64454223Y27312051D01*
X64454223Y27312051D02*
X64376128Y27233955D01*
X64376128Y27233955D02*
X64298032Y27194908D01*
X65078985Y27351098D02*
X65118033Y27390146D01*
X65118033Y27390146D02*
X65196128Y27429194D01*
X65196128Y27429194D02*
X65391367Y27429194D01*
X65391367Y27429194D02*
X65469462Y27390146D01*
X65469462Y27390146D02*
X65508510Y27351098D01*
X65508510Y27351098D02*
X65547557Y27273003D01*
X65547557Y27273003D02*
X65547557Y27194908D01*
X65547557Y27194908D02*
X65508510Y27077765D01*
X65508510Y27077765D02*
X65039938Y26609193D01*
X65039938Y26609193D02*
X65547557Y26609193D01*
X64775651Y6609192D02*
X64502318Y6999668D01*
X64307080Y6609192D02*
X64307080Y7429192D01*
X64307080Y7429192D02*
X64619461Y7429192D01*
X64619461Y7429192D02*
X64697556Y7390144D01*
X64697556Y7390144D02*
X64736603Y7351097D01*
X64736603Y7351097D02*
X64775651Y7273001D01*
X64775651Y7273001D02*
X64775651Y7155859D01*
X64775651Y7155859D02*
X64736603Y7077763D01*
X64736603Y7077763D02*
X64697556Y7038716D01*
X64697556Y7038716D02*
X64619461Y6999668D01*
X64619461Y6999668D02*
X64307080Y6999668D01*
X65048984Y7429192D02*
X65556603Y7429192D01*
X65556603Y7429192D02*
X65283270Y7116811D01*
X65283270Y7116811D02*
X65400413Y7116811D01*
X65400413Y7116811D02*
X65478508Y7077763D01*
X65478508Y7077763D02*
X65517556Y7038716D01*
X65517556Y7038716D02*
X65556603Y6960620D01*
X65556603Y6960620D02*
X65556603Y6765382D01*
X65556603Y6765382D02*
X65517556Y6687287D01*
X65517556Y6687287D02*
X65478508Y6648239D01*
X65478508Y6648239D02*
X65400413Y6609192D01*
X65400413Y6609192D02*
X65166127Y6609192D01*
X65166127Y6609192D02*
X65088032Y6648239D01*
X65088032Y6648239D02*
X65048984Y6687287D01*
D12*
X58446768Y20746001D02*
X58446768Y20492001D01*
X58845911Y20492001D02*
X58083911Y20492001D01*
X58083911Y20492001D02*
X58083911Y20854858D01*
X58337911Y21471715D02*
X58845911Y21471715D01*
X58047626Y21290287D02*
X58591911Y21108858D01*
X58591911Y21108858D02*
X58591911Y21580573D01*
D11*
X17954166Y44568991D02*
X17620833Y44568991D01*
X17620833Y44045181D02*
X17620833Y45045181D01*
X17620833Y45045181D02*
X18097023Y45045181D01*
X18525595Y44045181D02*
X18716071Y44045181D01*
X18716071Y44045181D02*
X18811309Y44092800D01*
X18811309Y44092800D02*
X18858928Y44140420D01*
X18858928Y44140420D02*
X18954166Y44283277D01*
X18954166Y44283277D02*
X19001785Y44473753D01*
X19001785Y44473753D02*
X19001785Y44854705D01*
X19001785Y44854705D02*
X18954166Y44949943D01*
X18954166Y44949943D02*
X18906547Y44997562D01*
X18906547Y44997562D02*
X18811309Y45045181D01*
X18811309Y45045181D02*
X18620833Y45045181D01*
X18620833Y45045181D02*
X18525595Y44997562D01*
X18525595Y44997562D02*
X18477976Y44949943D01*
X18477976Y44949943D02*
X18430357Y44854705D01*
X18430357Y44854705D02*
X18430357Y44616610D01*
X18430357Y44616610D02*
X18477976Y44521372D01*
X18477976Y44521372D02*
X18525595Y44473753D01*
X18525595Y44473753D02*
X18620833Y44426134D01*
X18620833Y44426134D02*
X18811309Y44426134D01*
X18811309Y44426134D02*
X18906547Y44473753D01*
X18906547Y44473753D02*
X18954166Y44521372D01*
X18954166Y44521372D02*
X19001785Y44616610D01*
X17977976Y42568991D02*
X17644643Y42568991D01*
X17644643Y42045181D02*
X17644643Y43045181D01*
X17644643Y43045181D02*
X18120833Y43045181D01*
X19025595Y42045181D02*
X18454167Y42045181D01*
X18739881Y42045181D02*
X18739881Y43045181D01*
X18739881Y43045181D02*
X18644643Y42902324D01*
X18644643Y42902324D02*
X18549405Y42807086D01*
X18549405Y42807086D02*
X18454167Y42759467D01*
X19644643Y43045181D02*
X19739881Y43045181D01*
X19739881Y43045181D02*
X19835119Y42997562D01*
X19835119Y42997562D02*
X19882738Y42949943D01*
X19882738Y42949943D02*
X19930357Y42854705D01*
X19930357Y42854705D02*
X19977976Y42664229D01*
X19977976Y42664229D02*
X19977976Y42426134D01*
X19977976Y42426134D02*
X19930357Y42235658D01*
X19930357Y42235658D02*
X19882738Y42140420D01*
X19882738Y42140420D02*
X19835119Y42092800D01*
X19835119Y42092800D02*
X19739881Y42045181D01*
X19739881Y42045181D02*
X19644643Y42045181D01*
X19644643Y42045181D02*
X19549405Y42092800D01*
X19549405Y42092800D02*
X19501786Y42140420D01*
X19501786Y42140420D02*
X19454167Y42235658D01*
X19454167Y42235658D02*
X19406548Y42426134D01*
X19406548Y42426134D02*
X19406548Y42664229D01*
X19406548Y42664229D02*
X19454167Y42854705D01*
X19454167Y42854705D02*
X19501786Y42949943D01*
X19501786Y42949943D02*
X19549405Y42997562D01*
X19549405Y42997562D02*
X19644643Y43045181D01*
D12*
X70946768Y2746001D02*
X70946768Y2492001D01*
X71345911Y2492001D02*
X70583911Y2492001D01*
X70583911Y2492001D02*
X70583911Y2854858D01*
X70656483Y3108858D02*
X70620197Y3145144D01*
X70620197Y3145144D02*
X70583911Y3217715D01*
X70583911Y3217715D02*
X70583911Y3399144D01*
X70583911Y3399144D02*
X70620197Y3471715D01*
X70620197Y3471715D02*
X70656483Y3508001D01*
X70656483Y3508001D02*
X70729054Y3544287D01*
X70729054Y3544287D02*
X70801626Y3544287D01*
X70801626Y3544287D02*
X70910483Y3508001D01*
X70910483Y3508001D02*
X71345911Y3072573D01*
X71345911Y3072573D02*
X71345911Y3544287D01*
X58446768Y18246001D02*
X58446768Y17992001D01*
X58845911Y17992001D02*
X58083911Y17992001D01*
X58083911Y17992001D02*
X58083911Y18354858D01*
X58083911Y18572573D02*
X58083911Y19044287D01*
X58083911Y19044287D02*
X58374197Y18790287D01*
X58374197Y18790287D02*
X58374197Y18899144D01*
X58374197Y18899144D02*
X58410483Y18971715D01*
X58410483Y18971715D02*
X58446768Y19008001D01*
X58446768Y19008001D02*
X58519340Y19044287D01*
X58519340Y19044287D02*
X58700768Y19044287D01*
X58700768Y19044287D02*
X58773340Y19008001D01*
X58773340Y19008001D02*
X58809626Y18971715D01*
X58809626Y18971715D02*
X58845911Y18899144D01*
X58845911Y18899144D02*
X58845911Y18681430D01*
X58845911Y18681430D02*
X58809626Y18608858D01*
X58809626Y18608858D02*
X58773340Y18572573D01*
D11*
X72261905Y43545181D02*
X72261905Y42735658D01*
X72261905Y42735658D02*
X72309524Y42640420D01*
X72309524Y42640420D02*
X72357143Y42592800D01*
X72357143Y42592800D02*
X72452381Y42545181D01*
X72452381Y42545181D02*
X72642857Y42545181D01*
X72642857Y42545181D02*
X72738095Y42592800D01*
X72738095Y42592800D02*
X72785714Y42640420D01*
X72785714Y42640420D02*
X72833333Y42735658D01*
X72833333Y42735658D02*
X72833333Y43545181D01*
X73833333Y42545181D02*
X73261905Y42545181D01*
X73547619Y42545181D02*
X73547619Y43545181D01*
X73547619Y43545181D02*
X73452381Y43402324D01*
X73452381Y43402324D02*
X73357143Y43307086D01*
X73357143Y43307086D02*
X73261905Y43259467D01*
X74785714Y42545181D02*
X74214286Y42545181D01*
X74500000Y42545181D02*
X74500000Y43545181D01*
X74500000Y43545181D02*
X74404762Y43402324D01*
X74404762Y43402324D02*
X74309524Y43307086D01*
X74309524Y43307086D02*
X74214286Y43259467D01*
X17954166Y50568991D02*
X17620833Y50568991D01*
X17620833Y50045181D02*
X17620833Y51045181D01*
X17620833Y51045181D02*
X18097023Y51045181D01*
X18954166Y51045181D02*
X18477976Y51045181D01*
X18477976Y51045181D02*
X18430357Y50568991D01*
X18430357Y50568991D02*
X18477976Y50616610D01*
X18477976Y50616610D02*
X18573214Y50664229D01*
X18573214Y50664229D02*
X18811309Y50664229D01*
X18811309Y50664229D02*
X18906547Y50616610D01*
X18906547Y50616610D02*
X18954166Y50568991D01*
X18954166Y50568991D02*
X19001785Y50473753D01*
X19001785Y50473753D02*
X19001785Y50235658D01*
X19001785Y50235658D02*
X18954166Y50140420D01*
X18954166Y50140420D02*
X18906547Y50092800D01*
X18906547Y50092800D02*
X18811309Y50045181D01*
X18811309Y50045181D02*
X18573214Y50045181D01*
X18573214Y50045181D02*
X18477976Y50092800D01*
X18477976Y50092800D02*
X18430357Y50140420D01*
D10*
X9563151Y44109192D02*
X9289818Y44499668D01*
X9094580Y44109192D02*
X9094580Y44929192D01*
X9094580Y44929192D02*
X9406961Y44929192D01*
X9406961Y44929192D02*
X9485056Y44890144D01*
X9485056Y44890144D02*
X9524103Y44851097D01*
X9524103Y44851097D02*
X9563151Y44773001D01*
X9563151Y44773001D02*
X9563151Y44655859D01*
X9563151Y44655859D02*
X9524103Y44577763D01*
X9524103Y44577763D02*
X9485056Y44538716D01*
X9485056Y44538716D02*
X9406961Y44499668D01*
X9406961Y44499668D02*
X9094580Y44499668D01*
X9875532Y44851097D02*
X9914580Y44890144D01*
X9914580Y44890144D02*
X9992675Y44929192D01*
X9992675Y44929192D02*
X10187913Y44929192D01*
X10187913Y44929192D02*
X10266008Y44890144D01*
X10266008Y44890144D02*
X10305056Y44851097D01*
X10305056Y44851097D02*
X10344103Y44773001D01*
X10344103Y44773001D02*
X10344103Y44694906D01*
X10344103Y44694906D02*
X10305056Y44577763D01*
X10305056Y44577763D02*
X9836484Y44109192D01*
X9836484Y44109192D02*
X10344103Y44109192D01*
X10617436Y44929192D02*
X11164103Y44929192D01*
X11164103Y44929192D02*
X10812674Y44109192D01*
X82275651Y15109192D02*
X82002318Y15499668D01*
X81807080Y15109192D02*
X81807080Y15929192D01*
X81807080Y15929192D02*
X82119461Y15929192D01*
X82119461Y15929192D02*
X82197556Y15890144D01*
X82197556Y15890144D02*
X82236603Y15851097D01*
X82236603Y15851097D02*
X82275651Y15773001D01*
X82275651Y15773001D02*
X82275651Y15655859D01*
X82275651Y15655859D02*
X82236603Y15577763D01*
X82236603Y15577763D02*
X82197556Y15538716D01*
X82197556Y15538716D02*
X82119461Y15499668D01*
X82119461Y15499668D02*
X81807080Y15499668D01*
X83056603Y15109192D02*
X82588032Y15109192D01*
X82822318Y15109192D02*
X82822318Y15929192D01*
X82822318Y15929192D02*
X82744222Y15812049D01*
X82744222Y15812049D02*
X82666127Y15733954D01*
X82666127Y15733954D02*
X82588032Y15694906D01*
X83759460Y15655859D02*
X83759460Y15109192D01*
X83564222Y15968239D02*
X83368984Y15382525D01*
X83368984Y15382525D02*
X83876603Y15382525D01*
X63775652Y15187288D02*
X63736604Y15148240D01*
X63736604Y15148240D02*
X63619461Y15109193D01*
X63619461Y15109193D02*
X63541366Y15109193D01*
X63541366Y15109193D02*
X63424223Y15148240D01*
X63424223Y15148240D02*
X63346128Y15226336D01*
X63346128Y15226336D02*
X63307080Y15304431D01*
X63307080Y15304431D02*
X63268032Y15460622D01*
X63268032Y15460622D02*
X63268032Y15577765D01*
X63268032Y15577765D02*
X63307080Y15733955D01*
X63307080Y15733955D02*
X63346128Y15812051D01*
X63346128Y15812051D02*
X63424223Y15890146D01*
X63424223Y15890146D02*
X63541366Y15929194D01*
X63541366Y15929194D02*
X63619461Y15929194D01*
X63619461Y15929194D02*
X63736604Y15890146D01*
X63736604Y15890146D02*
X63775652Y15851098D01*
X64088033Y15851098D02*
X64127081Y15890146D01*
X64127081Y15890146D02*
X64205176Y15929194D01*
X64205176Y15929194D02*
X64400415Y15929194D01*
X64400415Y15929194D02*
X64478510Y15890146D01*
X64478510Y15890146D02*
X64517558Y15851098D01*
X64517558Y15851098D02*
X64556605Y15773003D01*
X64556605Y15773003D02*
X64556605Y15694908D01*
X64556605Y15694908D02*
X64517558Y15577765D01*
X64517558Y15577765D02*
X64048986Y15109193D01*
X64048986Y15109193D02*
X64556605Y15109193D01*
X65259463Y15655860D02*
X65259463Y15109193D01*
X65064225Y15968241D02*
X64868986Y15382526D01*
X64868986Y15382526D02*
X65376606Y15382526D01*
X11275652Y37609193D02*
X11002318Y37999669D01*
X10807080Y37609193D02*
X10807080Y38429194D01*
X10807080Y38429194D02*
X11119461Y38429194D01*
X11119461Y38429194D02*
X11197557Y38390146D01*
X11197557Y38390146D02*
X11236604Y38351098D01*
X11236604Y38351098D02*
X11275652Y38273003D01*
X11275652Y38273003D02*
X11275652Y38155860D01*
X11275652Y38155860D02*
X11236604Y38077765D01*
X11236604Y38077765D02*
X11197557Y38038717D01*
X11197557Y38038717D02*
X11119461Y37999669D01*
X11119461Y37999669D02*
X10807080Y37999669D01*
X12017558Y38429194D02*
X11627081Y38429194D01*
X11627081Y38429194D02*
X11588033Y38038717D01*
X11588033Y38038717D02*
X11627081Y38077765D01*
X11627081Y38077765D02*
X11705176Y38116812D01*
X11705176Y38116812D02*
X11900415Y38116812D01*
X11900415Y38116812D02*
X11978510Y38077765D01*
X11978510Y38077765D02*
X12017558Y38038717D01*
X12017558Y38038717D02*
X12056605Y37960622D01*
X12056605Y37960622D02*
X12056605Y37765383D01*
X12056605Y37765383D02*
X12017558Y37687288D01*
X12017558Y37687288D02*
X11978510Y37648240D01*
X11978510Y37648240D02*
X11900415Y37609193D01*
X11900415Y37609193D02*
X11705176Y37609193D01*
X11705176Y37609193D02*
X11627081Y37648240D01*
X11627081Y37648240D02*
X11588033Y37687288D01*
D11*
X86246190Y54632800D02*
X86389047Y54585181D01*
X86389047Y54585181D02*
X86627142Y54585181D01*
X86627142Y54585181D02*
X86722380Y54632800D01*
X86722380Y54632800D02*
X86769999Y54680420D01*
X86769999Y54680420D02*
X86817618Y54775658D01*
X86817618Y54775658D02*
X86817618Y54870896D01*
X86817618Y54870896D02*
X86769999Y54966134D01*
X86769999Y54966134D02*
X86722380Y55013753D01*
X86722380Y55013753D02*
X86627142Y55061372D01*
X86627142Y55061372D02*
X86436666Y55108991D01*
X86436666Y55108991D02*
X86341428Y55156610D01*
X86341428Y55156610D02*
X86293809Y55204229D01*
X86293809Y55204229D02*
X86246190Y55299467D01*
X86246190Y55299467D02*
X86246190Y55394705D01*
X86246190Y55394705D02*
X86293809Y55489943D01*
X86293809Y55489943D02*
X86341428Y55537562D01*
X86341428Y55537562D02*
X86436666Y55585181D01*
X86436666Y55585181D02*
X86674761Y55585181D01*
X86674761Y55585181D02*
X86817618Y55537562D01*
X87198571Y54870896D02*
X87674761Y54870896D01*
X87103333Y54585181D02*
X87436666Y55585181D01*
X87436666Y55585181D02*
X87769999Y54585181D01*
X88627142Y55537562D02*
X88531904Y55585181D01*
X88531904Y55585181D02*
X88389047Y55585181D01*
X88389047Y55585181D02*
X88246190Y55537562D01*
X88246190Y55537562D02*
X88150952Y55442324D01*
X88150952Y55442324D02*
X88103333Y55347086D01*
X88103333Y55347086D02*
X88055714Y55156610D01*
X88055714Y55156610D02*
X88055714Y55013753D01*
X88055714Y55013753D02*
X88103333Y54823277D01*
X88103333Y54823277D02*
X88150952Y54728039D01*
X88150952Y54728039D02*
X88246190Y54632800D01*
X88246190Y54632800D02*
X88389047Y54585181D01*
X88389047Y54585181D02*
X88484285Y54585181D01*
X88484285Y54585181D02*
X88627142Y54632800D01*
X88627142Y54632800D02*
X88674761Y54680420D01*
X88674761Y54680420D02*
X88674761Y55013753D01*
X88674761Y55013753D02*
X88484285Y55013753D01*
X89055714Y54632800D02*
X89198571Y54585181D01*
X89198571Y54585181D02*
X89436666Y54585181D01*
X89436666Y54585181D02*
X89531904Y54632800D01*
X89531904Y54632800D02*
X89579523Y54680420D01*
X89579523Y54680420D02*
X89627142Y54775658D01*
X89627142Y54775658D02*
X89627142Y54870896D01*
X89627142Y54870896D02*
X89579523Y54966134D01*
X89579523Y54966134D02*
X89531904Y55013753D01*
X89531904Y55013753D02*
X89436666Y55061372D01*
X89436666Y55061372D02*
X89246190Y55108991D01*
X89246190Y55108991D02*
X89150952Y55156610D01*
X89150952Y55156610D02*
X89103333Y55204229D01*
X89103333Y55204229D02*
X89055714Y55299467D01*
X89055714Y55299467D02*
X89055714Y55394705D01*
X89055714Y55394705D02*
X89103333Y55489943D01*
X89103333Y55489943D02*
X89150952Y55537562D01*
X89150952Y55537562D02*
X89246190Y55585181D01*
X89246190Y55585181D02*
X89484285Y55585181D01*
X89484285Y55585181D02*
X89627142Y55537562D01*
X90246190Y55585181D02*
X90436666Y55585181D01*
X90436666Y55585181D02*
X90531904Y55537562D01*
X90531904Y55537562D02*
X90627142Y55442324D01*
X90627142Y55442324D02*
X90674761Y55251848D01*
X90674761Y55251848D02*
X90674761Y54918515D01*
X90674761Y54918515D02*
X90627142Y54728039D01*
X90627142Y54728039D02*
X90531904Y54632800D01*
X90531904Y54632800D02*
X90436666Y54585181D01*
X90436666Y54585181D02*
X90246190Y54585181D01*
X90246190Y54585181D02*
X90150952Y54632800D01*
X90150952Y54632800D02*
X90055714Y54728039D01*
X90055714Y54728039D02*
X90008095Y54918515D01*
X90008095Y54918515D02*
X90008095Y55251848D01*
X90008095Y55251848D02*
X90055714Y55442324D01*
X90055714Y55442324D02*
X90150952Y55537562D01*
X90150952Y55537562D02*
X90246190Y55585181D01*
X91103333Y54585181D02*
X91103333Y55585181D01*
X91674761Y54585181D02*
X91246190Y55156610D01*
X91674761Y55585181D02*
X91103333Y55013753D01*
X92103333Y55108991D02*
X92436666Y55108991D01*
X92579523Y54585181D02*
X92103333Y54585181D01*
X92103333Y54585181D02*
X92103333Y55585181D01*
X92103333Y55585181D02*
X92579523Y55585181D01*
X92865238Y55585181D02*
X93436666Y55585181D01*
X93150952Y54585181D02*
X93150952Y55585181D01*
X94293809Y54585181D02*
X93722381Y54585181D01*
X94008095Y54585181D02*
X94008095Y55585181D01*
X94008095Y55585181D02*
X93912857Y55442324D01*
X93912857Y55442324D02*
X93817619Y55347086D01*
X93817619Y55347086D02*
X93722381Y55299467D01*
X706190Y54712800D02*
X849047Y54665181D01*
X849047Y54665181D02*
X1087142Y54665181D01*
X1087142Y54665181D02*
X1182380Y54712800D01*
X1182380Y54712800D02*
X1229999Y54760420D01*
X1229999Y54760420D02*
X1277618Y54855658D01*
X1277618Y54855658D02*
X1277618Y54950896D01*
X1277618Y54950896D02*
X1229999Y55046134D01*
X1229999Y55046134D02*
X1182380Y55093753D01*
X1182380Y55093753D02*
X1087142Y55141372D01*
X1087142Y55141372D02*
X896666Y55188991D01*
X896666Y55188991D02*
X801428Y55236610D01*
X801428Y55236610D02*
X753809Y55284229D01*
X753809Y55284229D02*
X706190Y55379467D01*
X706190Y55379467D02*
X706190Y55474705D01*
X706190Y55474705D02*
X753809Y55569943D01*
X753809Y55569943D02*
X801428Y55617562D01*
X801428Y55617562D02*
X896666Y55665181D01*
X896666Y55665181D02*
X1134761Y55665181D01*
X1134761Y55665181D02*
X1277618Y55617562D01*
X1896666Y55665181D02*
X2087142Y55665181D01*
X2087142Y55665181D02*
X2182380Y55617562D01*
X2182380Y55617562D02*
X2277618Y55522324D01*
X2277618Y55522324D02*
X2325237Y55331848D01*
X2325237Y55331848D02*
X2325237Y54998515D01*
X2325237Y54998515D02*
X2277618Y54808039D01*
X2277618Y54808039D02*
X2182380Y54712800D01*
X2182380Y54712800D02*
X2087142Y54665181D01*
X2087142Y54665181D02*
X1896666Y54665181D01*
X1896666Y54665181D02*
X1801428Y54712800D01*
X1801428Y54712800D02*
X1706190Y54808039D01*
X1706190Y54808039D02*
X1658571Y54998515D01*
X1658571Y54998515D02*
X1658571Y55331848D01*
X1658571Y55331848D02*
X1706190Y55522324D01*
X1706190Y55522324D02*
X1801428Y55617562D01*
X1801428Y55617562D02*
X1896666Y55665181D01*
X3229999Y54665181D02*
X2753809Y54665181D01*
X2753809Y54665181D02*
X2753809Y55665181D01*
X3515714Y54712800D02*
X3658571Y54665181D01*
X3658571Y54665181D02*
X3896666Y54665181D01*
X3896666Y54665181D02*
X3991904Y54712800D01*
X3991904Y54712800D02*
X4039523Y54760420D01*
X4039523Y54760420D02*
X4087142Y54855658D01*
X4087142Y54855658D02*
X4087142Y54950896D01*
X4087142Y54950896D02*
X4039523Y55046134D01*
X4039523Y55046134D02*
X3991904Y55093753D01*
X3991904Y55093753D02*
X3896666Y55141372D01*
X3896666Y55141372D02*
X3706190Y55188991D01*
X3706190Y55188991D02*
X3610952Y55236610D01*
X3610952Y55236610D02*
X3563333Y55284229D01*
X3563333Y55284229D02*
X3515714Y55379467D01*
X3515714Y55379467D02*
X3515714Y55474705D01*
X3515714Y55474705D02*
X3563333Y55569943D01*
X3563333Y55569943D02*
X3610952Y55617562D01*
X3610952Y55617562D02*
X3706190Y55665181D01*
X3706190Y55665181D02*
X3944285Y55665181D01*
X3944285Y55665181D02*
X4087142Y55617562D01*
X4706190Y55665181D02*
X4896666Y55665181D01*
X4896666Y55665181D02*
X4991904Y55617562D01*
X4991904Y55617562D02*
X5087142Y55522324D01*
X5087142Y55522324D02*
X5134761Y55331848D01*
X5134761Y55331848D02*
X5134761Y54998515D01*
X5134761Y54998515D02*
X5087142Y54808039D01*
X5087142Y54808039D02*
X4991904Y54712800D01*
X4991904Y54712800D02*
X4896666Y54665181D01*
X4896666Y54665181D02*
X4706190Y54665181D01*
X4706190Y54665181D02*
X4610952Y54712800D01*
X4610952Y54712800D02*
X4515714Y54808039D01*
X4515714Y54808039D02*
X4468095Y54998515D01*
X4468095Y54998515D02*
X4468095Y55331848D01*
X4468095Y55331848D02*
X4515714Y55522324D01*
X4515714Y55522324D02*
X4610952Y55617562D01*
X4610952Y55617562D02*
X4706190Y55665181D01*
X5563333Y54665181D02*
X5563333Y55665181D01*
X6134761Y54665181D02*
X5706190Y55236610D01*
X6134761Y55665181D02*
X5563333Y55093753D01*
X6563333Y55188991D02*
X6896666Y55188991D01*
X7039523Y54665181D02*
X6563333Y54665181D01*
X6563333Y54665181D02*
X6563333Y55665181D01*
X6563333Y55665181D02*
X7039523Y55665181D01*
X7325238Y55665181D02*
X7896666Y55665181D01*
X7610952Y54665181D02*
X7610952Y55665181D01*
X8753809Y54665181D02*
X8182381Y54665181D01*
X8468095Y54665181D02*
X8468095Y55665181D01*
X8468095Y55665181D02*
X8372857Y55522324D01*
X8372857Y55522324D02*
X8277619Y55427086D01*
X8277619Y55427086D02*
X8182381Y55379467D01*
D13*
G04 #@! TO.C,C28*
X6500000Y68349986D02*
X6500000Y67600001D01*
D14*
G04 #@! TO.C,G2*
G36*
X-48242792Y158760111D02*
G01*
X-48238682Y158737280D01*
X-48238650Y158733764D01*
X-48228057Y158670713D01*
X-48198613Y158594180D01*
X-48153823Y158509253D01*
X-48097192Y158421020D01*
X-48032223Y158334568D01*
X-47962423Y158254985D01*
X-47891295Y158187358D01*
X-47831265Y158142340D01*
X-47768387Y158089582D01*
X-47706413Y158015251D01*
X-47650331Y157926549D01*
X-47605130Y157830677D01*
X-47593648Y157799278D01*
X-47575724Y157743044D01*
X-47567120Y157701986D01*
X-47566784Y157664131D01*
X-47573661Y157617509D01*
X-47576378Y157603110D01*
X-47601472Y157511582D01*
X-47638585Y157426630D01*
X-47683447Y157357018D01*
X-47710551Y157327829D01*
X-47744713Y157298962D01*
X-47786312Y157266682D01*
X-47828383Y157236017D01*
X-47863962Y157211992D01*
X-47886082Y157199633D01*
X-47889139Y157198959D01*
X-47906107Y157204446D01*
X-47940805Y157217634D01*
X-47967177Y157228163D01*
X-48038097Y157261244D01*
X-48098045Y157300539D01*
X-48155664Y157352662D01*
X-48212777Y157416130D01*
X-48306299Y157531860D01*
X-48378321Y157633210D01*
X-48430697Y157723094D01*
X-48465282Y157804425D01*
X-48470619Y157821231D01*
X-48482197Y157861520D01*
X-48489842Y157895285D01*
X-48493718Y157928852D01*
X-48493986Y157968545D01*
X-48490808Y158020689D01*
X-48484347Y158091610D01*
X-48478950Y158145933D01*
X-48468175Y158238655D01*
X-48454412Y158335659D01*
X-48439281Y158426565D01*
X-48424405Y158500991D01*
X-48421549Y158513212D01*
X-48404505Y158580628D01*
X-48389896Y158626960D01*
X-48374175Y158659562D01*
X-48353795Y158685790D01*
X-48325209Y158712998D01*
X-48325193Y158713012D01*
X-48282545Y158748816D01*
X-48256245Y158764236D01*
X-48242792Y158760111D01*
G37*
G36*
X-41444532Y151613840D02*
G01*
X-41101710Y151613665D01*
X-40761977Y151613402D01*
X-40426571Y151613052D01*
X-40096727Y151612614D01*
X-39773683Y151612089D01*
X-39458674Y151611476D01*
X-39152938Y151610776D01*
X-38857710Y151609988D01*
X-38574229Y151609112D01*
X-38303729Y151608149D01*
X-38047448Y151607099D01*
X-37806623Y151605960D01*
X-37582489Y151604735D01*
X-37376284Y151603421D01*
X-37189244Y151602020D01*
X-37022605Y151600532D01*
X-36877605Y151598956D01*
X-36755480Y151597292D01*
X-36657466Y151595541D01*
X-36584800Y151593702D01*
X-36538718Y151591776D01*
X-36520458Y151589762D01*
X-36520446Y151589755D01*
X-36474294Y151549340D01*
X-36446463Y151490265D01*
X-36439566Y151435936D01*
X-36445885Y151393422D01*
X-36468761Y151355378D01*
X-36488971Y151333498D01*
X-36538376Y151284093D01*
X-47384234Y151284093D01*
X-47433639Y151333498D01*
X-47467358Y151374000D01*
X-47481487Y151412686D01*
X-47483044Y151435936D01*
X-47471544Y151505163D01*
X-47439216Y151560500D01*
X-47402164Y151589755D01*
X-47383994Y151591770D01*
X-47337999Y151593696D01*
X-47265415Y151595535D01*
X-47167480Y151597287D01*
X-47045429Y151598951D01*
X-46900499Y151600527D01*
X-46733928Y151602016D01*
X-46546950Y151603417D01*
X-46340804Y151604731D01*
X-46116725Y151605957D01*
X-45875951Y151607095D01*
X-45619717Y151608146D01*
X-45349261Y151609109D01*
X-45065818Y151609985D01*
X-44770626Y151610773D01*
X-44464921Y151611474D01*
X-44149940Y151612087D01*
X-43826919Y151612613D01*
X-43497095Y151613051D01*
X-43161704Y151613401D01*
X-42821983Y151613664D01*
X-42479169Y151613839D01*
X-42134498Y151613927D01*
X-41789207Y151613927D01*
X-41444532Y151613840D01*
G37*
G36*
X-48056405Y159120179D02*
G01*
X-48043478Y159094556D01*
X-48023784Y159047577D01*
X-48016042Y159028872D01*
X-47984380Y158964232D01*
X-47943649Y158896146D01*
X-47913770Y158853987D01*
X-47891967Y158827130D01*
X-47870771Y158804662D01*
X-47846169Y158784128D01*
X-47814146Y158763074D01*
X-47770689Y158739044D01*
X-47711783Y158709583D01*
X-47633416Y158672236D01*
X-47561566Y158638561D01*
X-47459996Y158590498D01*
X-47381339Y158551711D01*
X-47321791Y158520040D01*
X-47277546Y158493328D01*
X-47244800Y158469414D01*
X-47219748Y158446142D01*
X-47216727Y158442908D01*
X-47124386Y158331771D01*
X-47050747Y158220566D01*
X-46997680Y158112922D01*
X-46967053Y158012471D01*
X-46959932Y157943937D01*
X-46973730Y157781949D01*
X-47014759Y157628940D01*
X-47082468Y157486611D01*
X-47131966Y157412028D01*
X-47172586Y157366586D01*
X-47231044Y157313271D01*
X-47300349Y157257321D01*
X-47373510Y157203974D01*
X-47443537Y157158468D01*
X-47503439Y157126042D01*
X-47525809Y157116912D01*
X-47590921Y157098009D01*
X-47646703Y157088398D01*
X-47686156Y157089050D01*
X-47697042Y157093161D01*
X-47697367Y157106675D01*
X-47678093Y157135054D01*
X-47638204Y157179583D01*
X-47590583Y157227880D01*
X-47531115Y157288665D01*
X-47487228Y157339731D01*
X-47452317Y157390129D01*
X-47419776Y157448909D01*
X-47400162Y157488784D01*
X-47368466Y157557692D01*
X-47348027Y157611288D01*
X-47335960Y157659649D01*
X-47329378Y157712850D01*
X-47327319Y157743075D01*
X-47327856Y157849558D01*
X-47340706Y157951870D01*
X-47364354Y158042563D01*
X-47397283Y158114193D01*
X-47405335Y158126256D01*
X-47445046Y158168139D01*
X-47499357Y158208634D01*
X-47525914Y158224025D01*
X-47581542Y158256470D01*
X-47649113Y158300941D01*
X-47722540Y158352876D01*
X-47795733Y158407711D01*
X-47862604Y158460885D01*
X-47917065Y158507834D01*
X-47953028Y158543996D01*
X-47953277Y158544293D01*
X-48031897Y158658546D01*
X-48087346Y158784365D01*
X-48117434Y158915925D01*
X-48122403Y158994066D01*
X-48120161Y159048896D01*
X-48111965Y159083596D01*
X-48095614Y159106853D01*
X-48093252Y159109059D01*
X-48077427Y159123416D01*
X-48066433Y159128461D01*
X-48056405Y159120179D01*
G37*
G36*
X-42034671Y155185337D02*
G01*
X-41959720Y155157122D01*
X-41903128Y155113185D01*
X-41869033Y155055857D01*
X-41867483Y155051032D01*
X-41865288Y155027089D01*
X-41864852Y154978971D01*
X-41866075Y154911506D01*
X-41868856Y154829522D01*
X-41873093Y154737846D01*
X-41874612Y154709556D01*
X-41878656Y154636064D01*
X-41881802Y154572281D01*
X-41883777Y154514983D01*
X-41884308Y154460946D01*
X-41883125Y154406944D01*
X-41879953Y154349754D01*
X-41874520Y154286151D01*
X-41866555Y154212911D01*
X-41855784Y154126809D01*
X-41841935Y154024621D01*
X-41824736Y153903122D01*
X-41803915Y153759087D01*
X-41781015Y153601770D01*
X-41765533Y153493628D01*
X-41750486Y153385178D01*
X-41736747Y153282963D01*
X-41725189Y153193530D01*
X-41716685Y153123422D01*
X-41714142Y153100454D01*
X-41704391Y153014793D01*
X-41693144Y152930902D01*
X-41679439Y152843091D01*
X-41662314Y152745668D01*
X-41640804Y152632941D01*
X-41613948Y152499220D01*
X-41605194Y152456536D01*
X-41588233Y152370393D01*
X-41573679Y152289332D01*
X-41562558Y152219654D01*
X-41555898Y152167662D01*
X-41554440Y152145185D01*
X-41565220Y152063195D01*
X-41597670Y152000366D01*
X-41651954Y151956563D01*
X-41728236Y151931647D01*
X-41815996Y151925259D01*
X-41873973Y151927631D01*
X-41927296Y151932580D01*
X-41957308Y151937561D01*
X-42025897Y151964455D01*
X-42080085Y152006458D01*
X-42097447Y152029004D01*
X-42104874Y152052603D01*
X-42114731Y152101744D01*
X-42126573Y152173048D01*
X-42139955Y152263137D01*
X-42154431Y152368633D01*
X-42169555Y152486159D01*
X-42184882Y152612335D01*
X-42199966Y152743785D01*
X-42214362Y152877129D01*
X-42227624Y153008991D01*
X-42229996Y153033778D01*
X-42238711Y153115544D01*
X-42251169Y153218507D01*
X-42266379Y153335190D01*
X-42283350Y153458117D01*
X-42301090Y153579812D01*
X-42310903Y153644076D01*
X-42344755Y153865552D01*
X-42373180Y154060523D01*
X-42396351Y154231001D01*
X-42414441Y154378998D01*
X-42427623Y154506527D01*
X-42436071Y154615599D01*
X-42439957Y154708226D01*
X-42439454Y154786420D01*
X-42434736Y154852194D01*
X-42425976Y154907560D01*
X-42421317Y154927481D01*
X-42384265Y155030771D01*
X-42332785Y155108896D01*
X-42266689Y155162027D01*
X-42185788Y155190333D01*
X-42123846Y155195498D01*
X-42034671Y155185337D01*
G37*
G36*
X-41020076Y155193644D02*
G01*
X-40946159Y155176782D01*
X-40882285Y155143477D01*
X-40834656Y155093944D01*
X-40824552Y155076135D01*
X-40815524Y155055087D01*
X-40809486Y155031904D01*
X-40806293Y155001699D01*
X-40805795Y154959583D01*
X-40807844Y154900668D01*
X-40812293Y154820064D01*
X-40815316Y154770986D01*
X-40820869Y154673209D01*
X-40824251Y154585516D01*
X-40825155Y154503341D01*
X-40823277Y154422117D01*
X-40818314Y154337276D01*
X-40809961Y154244253D01*
X-40797913Y154138480D01*
X-40781866Y154015391D01*
X-40761516Y153870418D01*
X-40749977Y153790672D01*
X-40732757Y153670903D01*
X-40716169Y153552688D01*
X-40700908Y153441199D01*
X-40687671Y153341612D01*
X-40677153Y153259099D01*
X-40670051Y153198836D01*
X-40668869Y153187640D01*
X-40658728Y153096056D01*
X-40646652Y153003996D01*
X-40631782Y152906240D01*
X-40613256Y152797566D01*
X-40590214Y152672754D01*
X-40561796Y152526583D01*
X-40550984Y152472229D01*
X-40533265Y152380787D01*
X-40517772Y152295547D01*
X-40505412Y152221932D01*
X-40497091Y152165365D01*
X-40493715Y152131270D01*
X-40493685Y152129269D01*
X-40507183Y152062954D01*
X-40543869Y152002360D01*
X-40598032Y151956277D01*
X-40610450Y151949579D01*
X-40654580Y151936284D01*
X-40716482Y151927880D01*
X-40785172Y151925042D01*
X-40849670Y151928446D01*
X-40878753Y151933088D01*
X-40936275Y151951343D01*
X-40989830Y151978209D01*
X-41029036Y152008082D01*
X-41038014Y152019059D01*
X-41049929Y152048901D01*
X-41062021Y152098286D01*
X-41072088Y152157792D01*
X-41074037Y152173203D01*
X-41080220Y152225562D01*
X-41089072Y152300044D01*
X-41099790Y152389919D01*
X-41111573Y152488457D01*
X-41123616Y152588927D01*
X-41124842Y152599139D01*
X-41137150Y152703683D01*
X-41149358Y152811021D01*
X-41160597Y152913262D01*
X-41170002Y153002516D01*
X-41176705Y153070892D01*
X-41176751Y153071393D01*
X-41183088Y153130658D01*
X-41193207Y153212939D01*
X-41206338Y153312550D01*
X-41221711Y153423804D01*
X-41238559Y153541013D01*
X-41256112Y153658490D01*
X-41256326Y153659894D01*
X-41289645Y153881092D01*
X-41317868Y154075791D01*
X-41341049Y154246096D01*
X-41359239Y154394111D01*
X-41372492Y154521939D01*
X-41380859Y154631685D01*
X-41384393Y154725452D01*
X-41383147Y154805344D01*
X-41377172Y154873465D01*
X-41366522Y154931919D01*
X-41351249Y154982811D01*
X-41331406Y155028243D01*
X-41307044Y155070320D01*
X-41292049Y155092359D01*
X-41240020Y155143421D01*
X-41173211Y155177179D01*
X-41097828Y155193848D01*
X-41020076Y155193644D01*
G37*
G36*
X-36919527Y154031972D02*
G01*
X-36823852Y153993089D01*
X-36741408Y153928449D01*
X-36672344Y153838187D01*
X-36616811Y153722436D01*
X-36594116Y153654880D01*
X-36580052Y153593552D01*
X-36566129Y153506284D01*
X-36552664Y153396198D01*
X-36539975Y153266416D01*
X-36528378Y153120060D01*
X-36518192Y152960250D01*
X-36512612Y152853429D01*
X-36507458Y152746873D01*
X-36502063Y152637012D01*
X-36496825Y152531845D01*
X-36492144Y152439372D01*
X-36488417Y152367592D01*
X-36488287Y152365146D01*
X-36485372Y152293048D01*
X-36484437Y152228514D01*
X-36485482Y152178809D01*
X-36488309Y152151936D01*
X-36510731Y152104079D01*
X-36550112Y152054366D01*
X-36597244Y152013590D01*
X-36615866Y152002374D01*
X-36693831Y151974130D01*
X-36777019Y151964317D01*
X-36858887Y151971799D01*
X-36932892Y151995437D01*
X-36992491Y152034094D01*
X-37024464Y152073404D01*
X-37029189Y152089082D01*
X-37033098Y152119477D01*
X-37036246Y152166644D01*
X-37038692Y152232636D01*
X-37040493Y152319508D01*
X-37041705Y152429315D01*
X-37042388Y152564111D01*
X-37042598Y152722651D01*
X-37042713Y152876514D01*
X-37043133Y153004410D01*
X-37043971Y153109433D01*
X-37045338Y153194675D01*
X-37047347Y153263232D01*
X-37050109Y153318198D01*
X-37053736Y153362665D01*
X-37058341Y153399728D01*
X-37064036Y153432481D01*
X-37069177Y153456461D01*
X-37094959Y153552696D01*
X-37122715Y153622166D01*
X-37153777Y153667160D01*
X-37189472Y153689968D01*
X-37206925Y153693559D01*
X-37268009Y153686363D01*
X-37336816Y153656509D01*
X-37408903Y153607732D01*
X-37479829Y153543770D01*
X-37545154Y153468359D01*
X-37600436Y153385234D01*
X-37621622Y153344697D01*
X-37659938Y153252207D01*
X-37688049Y153155024D01*
X-37706127Y153049616D01*
X-37714343Y152932453D01*
X-37712868Y152800004D01*
X-37701873Y152648739D01*
X-37681528Y152475127D01*
X-37668248Y152381175D01*
X-37651691Y152264721D01*
X-37640412Y152173215D01*
X-37634285Y152103051D01*
X-37633182Y152050624D01*
X-37636978Y152012326D01*
X-37645544Y151984552D01*
X-37653777Y151970195D01*
X-37702287Y151925323D01*
X-37769658Y151898525D01*
X-37851118Y151890962D01*
X-37934305Y151901968D01*
X-38008590Y151929244D01*
X-38060870Y151968978D01*
X-38079131Y151988810D01*
X-38095041Y152010537D01*
X-38109114Y152036731D01*
X-38121860Y152069967D01*
X-38133794Y152112818D01*
X-38145426Y152167856D01*
X-38157270Y152237657D01*
X-38169838Y152324792D01*
X-38183641Y152431837D01*
X-38199193Y152561363D01*
X-38217005Y152715946D01*
X-38226822Y152802571D01*
X-38247298Y152985025D01*
X-38264466Y153140707D01*
X-38278518Y153271694D01*
X-38289645Y153380065D01*
X-38298040Y153467898D01*
X-38303895Y153537271D01*
X-38307403Y153590261D01*
X-38308754Y153628946D01*
X-38308142Y153655406D01*
X-38306760Y153667159D01*
X-38277706Y153759766D01*
X-38228945Y153833507D01*
X-38163573Y153886224D01*
X-38084689Y153915762D01*
X-37995390Y153919962D01*
X-37953410Y153913186D01*
X-37889206Y153891204D01*
X-37840037Y153854974D01*
X-37802271Y153800166D01*
X-37772279Y153722452D01*
X-37761839Y153684739D01*
X-37745911Y153622399D01*
X-37673609Y153707896D01*
X-37557679Y153826852D01*
X-37432735Y153921139D01*
X-37300887Y153989654D01*
X-37164249Y154031293D01*
X-37028282Y154044962D01*
X-36919527Y154031972D01*
G37*
G36*
X-43615537Y154112124D02*
G01*
X-43429941Y154081772D01*
X-43259502Y154026624D01*
X-43104217Y153946678D01*
X-42991797Y153865609D01*
X-42907073Y153783058D01*
X-42850732Y153697911D01*
X-42822108Y153608386D01*
X-42820535Y153512704D01*
X-42834183Y153444620D01*
X-42848451Y153408234D01*
X-42872290Y153372540D01*
X-42908468Y153335333D01*
X-42959750Y153294408D01*
X-43028902Y153247562D01*
X-43118690Y153192588D01*
X-43231882Y153127283D01*
X-43233539Y153126345D01*
X-43339866Y153066412D01*
X-43423814Y153019068D01*
X-43487997Y152982069D01*
X-43535032Y152953175D01*
X-43567531Y152930143D01*
X-43588109Y152910731D01*
X-43599382Y152892698D01*
X-43603962Y152873802D01*
X-43604466Y152851800D01*
X-43603508Y152824451D01*
X-43603296Y152809286D01*
X-43598484Y152719574D01*
X-43585160Y152631805D01*
X-43564990Y152551389D01*
X-43539643Y152483734D01*
X-43510786Y152434249D01*
X-43480084Y152408345D01*
X-43479667Y152408182D01*
X-43447671Y152403494D01*
X-43408979Y152412913D01*
X-43361514Y152437887D01*
X-43303196Y152479862D01*
X-43231949Y152540284D01*
X-43145692Y152620601D01*
X-43074452Y152690245D01*
X-42984168Y152778845D01*
X-42910786Y152848294D01*
X-42851439Y152900745D01*
X-42803260Y152938350D01*
X-42763383Y152963263D01*
X-42728942Y152977636D01*
X-42697070Y152983622D01*
X-42683104Y152984153D01*
X-42622228Y152974847D01*
X-42568921Y152950175D01*
X-42531302Y152914839D01*
X-42519333Y152889307D01*
X-42519769Y152843971D01*
X-42536633Y152790773D01*
X-42565333Y152743784D01*
X-42615049Y152683019D01*
X-42682886Y152611225D01*
X-42765952Y152531146D01*
X-42861353Y152445529D01*
X-42966196Y152357120D01*
X-43077587Y152268665D01*
X-43123776Y152233550D01*
X-43236787Y152149224D01*
X-43329735Y152081324D01*
X-43405442Y152028364D01*
X-43466732Y151988860D01*
X-43516426Y151961326D01*
X-43557347Y151944276D01*
X-43592319Y151936225D01*
X-43624163Y151935689D01*
X-43655703Y151941180D01*
X-43671287Y151945440D01*
X-43763950Y151985402D01*
X-43843352Y152047519D01*
X-43911169Y152133582D01*
X-43969073Y152245383D01*
X-43982646Y152278721D01*
X-44010772Y152364163D01*
X-44035546Y152463377D01*
X-44054739Y152565200D01*
X-44066124Y152658472D01*
X-44068284Y152707645D01*
X-44068284Y152776018D01*
X-44128110Y152774764D01*
X-44184932Y152784970D01*
X-44223953Y152817865D01*
X-44244607Y152872737D01*
X-44247793Y152925333D01*
X-44241437Y152987642D01*
X-44223166Y153030914D01*
X-44187307Y153064497D01*
X-44149948Y153086587D01*
X-44084713Y153121194D01*
X-44075688Y153230704D01*
X-44064263Y153326844D01*
X-43617827Y153326844D01*
X-43617111Y153312338D01*
X-43612152Y153304532D01*
X-43598736Y153304503D01*
X-43572644Y153313333D01*
X-43529663Y153332098D01*
X-43465575Y153361880D01*
X-43447089Y153370551D01*
X-43381087Y153402292D01*
X-43323660Y153431358D01*
X-43280537Y153454746D01*
X-43257449Y153469456D01*
X-43256298Y153470494D01*
X-43247282Y153498095D01*
X-43257118Y153537773D01*
X-43282192Y153583168D01*
X-43318892Y153627918D01*
X-43363604Y153665664D01*
X-43369263Y153669374D01*
X-43427464Y153699829D01*
X-43472365Y153706572D01*
X-43508295Y153688994D01*
X-43539583Y153646488D01*
X-43540200Y153645363D01*
X-43559261Y153599976D01*
X-43579061Y153536132D01*
X-43597061Y153464250D01*
X-43610721Y153394750D01*
X-43617503Y153338050D01*
X-43617827Y153326844D01*
X-44064263Y153326844D01*
X-44051006Y153438409D01*
X-44013207Y153620605D01*
X-43962117Y153777805D01*
X-43897561Y153910521D01*
X-43819363Y154019265D01*
X-43798433Y154041970D01*
X-43720991Y154121925D01*
X-43615537Y154112124D01*
G37*
G36*
X-39648910Y154112152D02*
G01*
X-39463308Y154081834D01*
X-39292941Y154026783D01*
X-39137743Y153946971D01*
X-39024864Y153865609D01*
X-38940139Y153783058D01*
X-38883799Y153697911D01*
X-38855175Y153608386D01*
X-38853601Y153512704D01*
X-38867249Y153444620D01*
X-38881829Y153407627D01*
X-38906272Y153371349D01*
X-38943368Y153333552D01*
X-38995906Y153292004D01*
X-39066675Y153244473D01*
X-39158464Y153188726D01*
X-39259258Y153130865D01*
X-39366723Y153070422D01*
X-39451733Y153022497D01*
X-39516895Y152984892D01*
X-39564817Y152955410D01*
X-39598105Y152931855D01*
X-39619367Y152912030D01*
X-39631208Y152893738D01*
X-39636237Y152874782D01*
X-39637060Y152852965D01*
X-39636284Y152826090D01*
X-39636110Y152813287D01*
X-39630900Y152718419D01*
X-39616829Y152628507D01*
X-39595493Y152547948D01*
X-39568487Y152481139D01*
X-39537407Y152432474D01*
X-39503849Y152406350D01*
X-39487214Y152403108D01*
X-39447725Y152411699D01*
X-39396915Y152437916D01*
X-39333329Y152482857D01*
X-39255509Y152547619D01*
X-39162000Y152633299D01*
X-39091454Y152701378D01*
X-39004382Y152786278D01*
X-38934644Y152852652D01*
X-38879150Y152902648D01*
X-38834806Y152938410D01*
X-38798520Y152962088D01*
X-38767201Y152975826D01*
X-38737757Y152981772D01*
X-38707096Y152982073D01*
X-38689185Y152980667D01*
X-38636558Y152971817D01*
X-38601028Y152954374D01*
X-38578606Y152932674D01*
X-38555079Y152893020D01*
X-38550346Y152848464D01*
X-38565442Y152797001D01*
X-38601405Y152736625D01*
X-38659274Y152665330D01*
X-38740084Y152581111D01*
X-38780834Y152541671D01*
X-38832722Y152494885D01*
X-38901025Y152437126D01*
X-38981428Y152371695D01*
X-39069618Y152301890D01*
X-39161282Y152231010D01*
X-39252105Y152162355D01*
X-39337776Y152099223D01*
X-39413980Y152044914D01*
X-39476403Y152002727D01*
X-39519874Y151976418D01*
X-39576475Y151948210D01*
X-39618542Y151934311D01*
X-39655785Y151933001D01*
X-39697914Y151942563D01*
X-39702757Y151944047D01*
X-39798327Y151988710D01*
X-39882484Y152058824D01*
X-39954307Y152152742D01*
X-40012877Y152268812D01*
X-40057272Y152405386D01*
X-40086572Y152560814D01*
X-40095488Y152647880D01*
X-40105140Y152775738D01*
X-40163071Y152774624D01*
X-40218502Y152785223D01*
X-40256764Y152818918D01*
X-40277173Y152874869D01*
X-40280565Y152918818D01*
X-40269093Y152989147D01*
X-40233407Y153045871D01*
X-40171600Y153091992D01*
X-40169996Y153092875D01*
X-40141485Y153110227D01*
X-40124856Y153128790D01*
X-40115809Y153157267D01*
X-40110042Y153204357D01*
X-40108939Y153216388D01*
X-40095903Y153325282D01*
X-39650893Y153325282D01*
X-39649926Y153311549D01*
X-39644230Y153304547D01*
X-39629610Y153305405D01*
X-39601871Y153315251D01*
X-39556819Y153335211D01*
X-39490259Y153366415D01*
X-39480155Y153371192D01*
X-39414601Y153402107D01*
X-39357752Y153428761D01*
X-39315196Y153448543D01*
X-39292524Y153458845D01*
X-39291253Y153459383D01*
X-39276871Y153471276D01*
X-39275893Y153493667D01*
X-39288877Y153532353D01*
X-39300889Y153559864D01*
X-39340817Y153621495D01*
X-39394956Y153669161D01*
X-39455675Y153697068D01*
X-39487792Y153701862D01*
X-39521298Y153700566D01*
X-39542922Y153689643D01*
X-39561779Y153662367D01*
X-39574204Y153638097D01*
X-39594324Y153587521D01*
X-39614694Y153520385D01*
X-39632670Y153447465D01*
X-39645613Y153379540D01*
X-39650878Y153327386D01*
X-39650893Y153325282D01*
X-40095903Y153325282D01*
X-40085003Y153416338D01*
X-40051285Y153590521D01*
X-40007178Y153740741D01*
X-39952075Y153868806D01*
X-39885371Y153976522D01*
X-39832706Y154039459D01*
X-39754670Y154121982D01*
X-39648910Y154112152D01*
G37*
G36*
X-47136396Y156999895D02*
G01*
X-47098710Y156977237D01*
X-47097375Y156976107D01*
X-47078240Y156956921D01*
X-47065946Y156934460D01*
X-47058317Y156901285D01*
X-47053175Y156849958D01*
X-47051018Y156817777D01*
X-47048455Y156755743D01*
X-47048511Y156700966D01*
X-47051109Y156662867D01*
X-47052387Y156656035D01*
X-47069061Y156627195D01*
X-47102326Y156591990D01*
X-47130685Y156568728D01*
X-47168527Y156538717D01*
X-47192502Y156510781D01*
X-47208936Y156474813D01*
X-47224153Y156420709D01*
X-47224702Y156418518D01*
X-47237366Y156363375D01*
X-47252701Y156289771D01*
X-47268643Y156207915D01*
X-47281280Y156138623D01*
X-47294721Y156058230D01*
X-47302592Y155997917D01*
X-47305323Y155949329D01*
X-47303342Y155904108D01*
X-47297077Y155853899D01*
X-47296190Y155848006D01*
X-47289245Y155786678D01*
X-47283694Y155707792D01*
X-47280213Y155622844D01*
X-47279372Y155563441D01*
X-47278067Y155473019D01*
X-47274432Y155370700D01*
X-47268812Y155260435D01*
X-47261557Y155146173D01*
X-47253013Y155031865D01*
X-47243528Y154921460D01*
X-47233451Y154818908D01*
X-47223128Y154728160D01*
X-47212907Y154653166D01*
X-47203136Y154597874D01*
X-47194162Y154566236D01*
X-47191176Y154561379D01*
X-47170524Y154557561D01*
X-47125414Y154560396D01*
X-47059483Y154569094D01*
X-46976368Y154582868D01*
X-46879704Y154600929D01*
X-46773128Y154622489D01*
X-46660275Y154646761D01*
X-46544782Y154672955D01*
X-46430286Y154700284D01*
X-46320421Y154727959D01*
X-46218826Y154755193D01*
X-46129134Y154781196D01*
X-46054984Y154805180D01*
X-46037220Y154811530D01*
X-45920973Y154854238D01*
X-45925660Y154954549D01*
X-45929852Y155013585D01*
X-45937858Y155090389D01*
X-45949946Y155186927D01*
X-45966382Y155305163D01*
X-45987435Y155447062D01*
X-46013371Y155614589D01*
X-46028290Y155708804D01*
X-46054430Y155881560D01*
X-46074907Y156035668D01*
X-46089517Y156169074D01*
X-46098056Y156279724D01*
X-46100319Y156365566D01*
X-46098067Y156409717D01*
X-46073920Y156505822D01*
X-46022592Y156592472D01*
X-45944597Y156669016D01*
X-45841053Y156734494D01*
X-45767587Y156759584D01*
X-45680246Y156770165D01*
X-45590318Y156766238D01*
X-45509094Y156747803D01*
X-45477781Y156734461D01*
X-45421772Y156702873D01*
X-45378885Y156670329D01*
X-45347058Y156632267D01*
X-45324233Y156584125D01*
X-45308349Y156521342D01*
X-45297347Y156439355D01*
X-45289165Y156333603D01*
X-45287978Y156314138D01*
X-45279756Y156181813D01*
X-45270918Y156052182D01*
X-45261000Y155919361D01*
X-45249536Y155777467D01*
X-45236063Y155620615D01*
X-45220115Y155442924D01*
X-45213512Y155370906D01*
X-45182389Y155033063D01*
X-45134424Y155033063D01*
X-45082673Y155019517D01*
X-45032523Y154982628D01*
X-44987891Y154928026D01*
X-44952697Y154861338D01*
X-44930861Y154788190D01*
X-44925607Y154733238D01*
X-44931798Y154675295D01*
X-44948520Y154606220D01*
X-44972998Y154532817D01*
X-45002456Y154461886D01*
X-45034121Y154400228D01*
X-45065215Y154354645D01*
X-45088553Y154333918D01*
X-45100263Y154318815D01*
X-45107972Y154287376D01*
X-45111572Y154238450D01*
X-45110954Y154170888D01*
X-45106010Y154083539D01*
X-45096633Y153975253D01*
X-45082713Y153844880D01*
X-45064142Y153691270D01*
X-45040813Y153513272D01*
X-45012616Y153309736D01*
X-44979444Y153079513D01*
X-44954648Y152911553D01*
X-44928594Y152734817D01*
X-44907068Y152584252D01*
X-44889906Y152457352D01*
X-44876942Y152351607D01*
X-44868011Y152264509D01*
X-44862946Y152193551D01*
X-44861582Y152136223D01*
X-44863753Y152090019D01*
X-44869293Y152052429D01*
X-44878037Y152020946D01*
X-44889820Y151993061D01*
X-44893494Y151985835D01*
X-44942678Y151922928D01*
X-45015633Y151874742D01*
X-45110405Y151842477D01*
X-45135341Y151837388D01*
X-45188514Y151827996D01*
X-45224474Y151824102D01*
X-45254668Y151826406D01*
X-45290547Y151835605D01*
X-45334657Y151849559D01*
X-45420452Y151884186D01*
X-45484418Y151928120D01*
X-45533480Y151986443D01*
X-45543777Y152003097D01*
X-45565258Y152042086D01*
X-45581926Y152079738D01*
X-45594923Y152121327D01*
X-45605394Y152172124D01*
X-45614483Y152237401D01*
X-45623335Y152322432D01*
X-45630561Y152402972D01*
X-45645770Y152572880D01*
X-45662555Y152749902D01*
X-45680426Y152929509D01*
X-45698891Y153107173D01*
X-45717459Y153278367D01*
X-45735641Y153438564D01*
X-45752944Y153583235D01*
X-45768880Y153707853D01*
X-45782552Y153805203D01*
X-45789723Y153857131D01*
X-45798592Y153927282D01*
X-45807836Y154004972D01*
X-45813536Y154055518D01*
X-45821628Y154126039D01*
X-45828370Y154172366D01*
X-45835215Y154199228D01*
X-45843615Y154211357D01*
X-45855021Y154213484D01*
X-45861685Y154212405D01*
X-45889501Y154206876D01*
X-45937072Y154197626D01*
X-45995603Y154186360D01*
X-46015424Y154182568D01*
X-46287725Y154127877D01*
X-46581940Y154063746D01*
X-46858704Y153999477D01*
X-47171607Y153924842D01*
X-47166244Y153872288D01*
X-47154617Y153770947D01*
X-47140351Y153666253D01*
X-47124492Y153564430D01*
X-47108083Y153471700D01*
X-47092169Y153394287D01*
X-47077795Y153338415D01*
X-47075360Y153330853D01*
X-47055712Y153259447D01*
X-47050420Y153198499D01*
X-47052788Y153165843D01*
X-47053685Y153106459D01*
X-47045522Y153019683D01*
X-47028322Y152905730D01*
X-47024293Y152882491D01*
X-47004660Y152771302D01*
X-46989208Y152685304D01*
X-46977031Y152621076D01*
X-46967221Y152575196D01*
X-46958870Y152544243D01*
X-46951071Y152524796D01*
X-46942917Y152513432D01*
X-46933501Y152506731D01*
X-46923377Y152501940D01*
X-46884998Y152469794D01*
X-46863986Y152420079D01*
X-46860426Y152358593D01*
X-46874401Y152291131D01*
X-46905996Y152223489D01*
X-46919035Y152203873D01*
X-46982005Y152130790D01*
X-47058272Y152065203D01*
X-47141306Y152011170D01*
X-47224579Y151972746D01*
X-47301563Y151953986D01*
X-47323204Y151952798D01*
X-47399572Y151964625D01*
X-47480637Y151997081D01*
X-47556563Y152045627D01*
X-47591769Y152076739D01*
X-47644858Y152141255D01*
X-47687863Y152219994D01*
X-47721784Y152316128D01*
X-47747617Y152432831D01*
X-47766361Y152573274D01*
X-47773467Y152654467D01*
X-47780666Y152746896D01*
X-47789568Y152856093D01*
X-47799161Y152969894D01*
X-47808432Y153076130D01*
X-47810614Y153100454D01*
X-47819428Y153199851D01*
X-47829537Y153316771D01*
X-47839965Y153439764D01*
X-47849739Y153557382D01*
X-47854536Y153616301D01*
X-47863172Y153717480D01*
X-47870865Y153793077D01*
X-47878148Y153846532D01*
X-47885553Y153881290D01*
X-47893612Y153900790D01*
X-47899461Y153906919D01*
X-47950454Y153944121D01*
X-47988377Y153985018D01*
X-48021689Y154039653D01*
X-48036650Y154069759D01*
X-48061230Y154124926D01*
X-48073912Y154167060D01*
X-48077244Y154208348D01*
X-48074650Y154251610D01*
X-48059139Y154327198D01*
X-48029368Y154393847D01*
X-47989329Y154444581D01*
X-47949472Y154470263D01*
X-47938365Y154473586D01*
X-47929352Y154476278D01*
X-47922652Y154481107D01*
X-47918487Y154490838D01*
X-47917076Y154508238D01*
X-47918641Y154536073D01*
X-47923402Y154577109D01*
X-47931580Y154634112D01*
X-47943394Y154709849D01*
X-47959067Y154807085D01*
X-47978818Y154928587D01*
X-47992982Y155015920D01*
X-48010778Y155126910D01*
X-48026951Y155229745D01*
X-48040927Y155320617D01*
X-48052132Y155395717D01*
X-48059991Y155451236D01*
X-48063930Y155483365D01*
X-48064280Y155488718D01*
X-48070101Y155527054D01*
X-48086291Y155586674D01*
X-48110938Y155662523D01*
X-48142132Y155749544D01*
X-48177961Y155842683D01*
X-48216514Y155936884D01*
X-48255881Y156027091D01*
X-48294150Y156108248D01*
X-48310985Y156141388D01*
X-48351870Y156218729D01*
X-48383401Y156275124D01*
X-48409265Y156315599D01*
X-48433146Y156345182D01*
X-48458728Y156368898D01*
X-48489697Y156391776D01*
X-48499415Y156398430D01*
X-48544299Y156430396D01*
X-48570552Y156455400D01*
X-48584308Y156481689D01*
X-48591702Y156517508D01*
X-48592561Y156523626D01*
X-48597566Y156575693D01*
X-48600963Y156640786D01*
X-48601923Y156691613D01*
X-48597243Y156762217D01*
X-48581173Y156809767D01*
X-48550666Y156839046D01*
X-48502675Y156854838D01*
X-48497384Y156855763D01*
X-48467175Y156860057D01*
X-48412995Y156867021D01*
X-48338479Y156876233D01*
X-48247260Y156887272D01*
X-48142975Y156899717D01*
X-48029257Y156913146D01*
X-47909742Y156927139D01*
X-47788065Y156941272D01*
X-47667859Y156955127D01*
X-47552761Y156968280D01*
X-47446404Y156980310D01*
X-47352424Y156990798D01*
X-47274455Y156999320D01*
X-47216132Y157005455D01*
X-47181090Y157008783D01*
X-47173172Y157009265D01*
X-47136396Y156999895D01*
G37*
G36*
X-48314592Y159992074D02*
G01*
X-48306799Y159989147D01*
X-48278726Y159968468D01*
X-48263127Y159928575D01*
X-48261486Y159920125D01*
X-48252149Y159868421D01*
X-48242416Y159838627D01*
X-48225740Y159827312D01*
X-48195575Y159831047D01*
X-48145376Y159846404D01*
X-48130097Y159851285D01*
X-47943505Y159900674D01*
X-47737117Y159937247D01*
X-47532376Y159958754D01*
X-47498995Y159960098D01*
X-47437892Y159961378D01*
X-47350406Y159962594D01*
X-47237875Y159963748D01*
X-47101641Y159964838D01*
X-46943040Y159965864D01*
X-46763414Y159966828D01*
X-46564101Y159967727D01*
X-46346441Y159968564D01*
X-46111772Y159969337D01*
X-45861435Y159970047D01*
X-45596767Y159970693D01*
X-45319110Y159971276D01*
X-45029801Y159971796D01*
X-44730181Y159972252D01*
X-44421588Y159972645D01*
X-44105361Y159972974D01*
X-43782841Y159973241D01*
X-43455366Y159973443D01*
X-43124276Y159973583D01*
X-42790909Y159973659D01*
X-42456606Y159973671D01*
X-42122705Y159973621D01*
X-41790545Y159973507D01*
X-41461467Y159973329D01*
X-41136809Y159973088D01*
X-40817910Y159972784D01*
X-40506110Y159972416D01*
X-40202748Y159971985D01*
X-39909164Y159971491D01*
X-39626696Y159970933D01*
X-39356685Y159970312D01*
X-39100468Y159969628D01*
X-38859386Y159968880D01*
X-38634777Y159968069D01*
X-38427982Y159967194D01*
X-38240339Y159966256D01*
X-38073187Y159965255D01*
X-37927867Y159964190D01*
X-37805716Y159963062D01*
X-37708075Y159961871D01*
X-37636283Y159960616D01*
X-37591678Y159959298D01*
X-37581767Y159958754D01*
X-37375450Y159937353D01*
X-37183705Y159902917D01*
X-36994037Y159852994D01*
X-36915307Y159827923D01*
X-36660738Y159728227D01*
X-36420734Y159604240D01*
X-36196609Y159457537D01*
X-35989680Y159289695D01*
X-35801264Y159102288D01*
X-35632676Y158896893D01*
X-35485234Y158675086D01*
X-35360253Y158438443D01*
X-35259050Y158188538D01*
X-35182941Y157926948D01*
X-35139839Y157702542D01*
X-35136971Y157680633D01*
X-35134351Y157654375D01*
X-35131966Y157622464D01*
X-35129807Y157583592D01*
X-35127863Y157536456D01*
X-35126121Y157479751D01*
X-35124572Y157412170D01*
X-35123205Y157332409D01*
X-35122008Y157239162D01*
X-35120971Y157131125D01*
X-35120083Y157006992D01*
X-35119333Y156865457D01*
X-35118709Y156705216D01*
X-35118202Y156524963D01*
X-35117799Y156323394D01*
X-35117491Y156099202D01*
X-35117266Y155851083D01*
X-35117113Y155577731D01*
X-35117021Y155277842D01*
X-35116981Y154972723D01*
X-35117040Y154597881D01*
X-35117268Y154251872D01*
X-35117666Y153934469D01*
X-35118237Y153645445D01*
X-35118980Y153384571D01*
X-35119897Y153151620D01*
X-35120991Y152946365D01*
X-35122261Y152768577D01*
X-35123709Y152618029D01*
X-35125337Y152494494D01*
X-35127146Y152397744D01*
X-35129137Y152327551D01*
X-35131312Y152283687D01*
X-35132386Y152272194D01*
X-35180885Y151999352D01*
X-35255470Y151737189D01*
X-35354826Y151487133D01*
X-35477632Y151250608D01*
X-35622572Y151029041D01*
X-35788326Y150823858D01*
X-35973577Y150636485D01*
X-36177007Y150468348D01*
X-36397296Y150320873D01*
X-36633128Y150195486D01*
X-36883184Y150093614D01*
X-37146146Y150016682D01*
X-37235406Y149997036D01*
X-37325144Y149981162D01*
X-37424808Y149967179D01*
X-37520303Y149956906D01*
X-37577730Y149952867D01*
X-37608379Y149952099D01*
X-37666603Y149951357D01*
X-37751082Y149950641D01*
X-37860494Y149949953D01*
X-37993519Y149949293D01*
X-38148836Y149948661D01*
X-38325124Y149948057D01*
X-38521064Y149947483D01*
X-38735333Y149946938D01*
X-38966611Y149946422D01*
X-39213578Y149945938D01*
X-39474913Y149945483D01*
X-39749295Y149945060D01*
X-40035403Y149944669D01*
X-40331917Y149944310D01*
X-40637516Y149943983D01*
X-40950879Y149943688D01*
X-41270686Y149943428D01*
X-41595616Y149943200D01*
X-41924347Y149943008D01*
X-42255560Y149942849D01*
X-42587934Y149942726D01*
X-42920147Y149942638D01*
X-43250880Y149942586D01*
X-43578811Y149942570D01*
X-43902621Y149942591D01*
X-44220987Y149942649D01*
X-44532589Y149942745D01*
X-44836107Y149942878D01*
X-45130220Y149943051D01*
X-45413607Y149943262D01*
X-45684948Y149943512D01*
X-45942921Y149943802D01*
X-46186207Y149944132D01*
X-46413483Y149944503D01*
X-46623431Y149944914D01*
X-46814728Y149945367D01*
X-46986054Y149945862D01*
X-47136089Y149946400D01*
X-47263511Y149946980D01*
X-47367001Y149947603D01*
X-47445237Y149948269D01*
X-47496898Y149948980D01*
X-47519371Y149949645D01*
X-47792642Y149980202D01*
X-48056801Y150037474D01*
X-48310412Y150120149D01*
X-48552038Y150226912D01*
X-48780243Y150356448D01*
X-48993589Y150507444D01*
X-49190640Y150678586D01*
X-49369958Y150868558D01*
X-49530108Y151076049D01*
X-49669652Y151299742D01*
X-49787154Y151538325D01*
X-49881177Y151790483D01*
X-49950283Y152054901D01*
X-49975824Y152196343D01*
X-49978874Y152231113D01*
X-49981717Y152293108D01*
X-49984352Y152380494D01*
X-49986780Y152491434D01*
X-49989002Y152624093D01*
X-49991019Y152776637D01*
X-49992830Y152947229D01*
X-49994437Y153134034D01*
X-49995839Y153335217D01*
X-49997038Y153548941D01*
X-49997532Y153660259D01*
X-49675960Y153660259D01*
X-49675836Y153455004D01*
X-49675462Y153270644D01*
X-49674808Y153105817D01*
X-49673843Y152959161D01*
X-49672535Y152829317D01*
X-49670851Y152714922D01*
X-49668762Y152614616D01*
X-49666235Y152527037D01*
X-49663239Y152450825D01*
X-49659742Y152384616D01*
X-49655714Y152327052D01*
X-49651121Y152276770D01*
X-49645934Y152232409D01*
X-49640120Y152192609D01*
X-49633648Y152156007D01*
X-49626486Y152121242D01*
X-49618603Y152086954D01*
X-49609968Y152051782D01*
X-49604108Y152028480D01*
X-49527675Y151782829D01*
X-49426533Y151550585D01*
X-49302322Y151333151D01*
X-49156682Y151131931D01*
X-48991252Y150948329D01*
X-48807675Y150783747D01*
X-48607589Y150639591D01*
X-48392635Y150517264D01*
X-48164453Y150418169D01*
X-47924684Y150343711D01*
X-47674967Y150295293D01*
X-47564280Y150282770D01*
X-47537114Y150281650D01*
X-47482205Y150280580D01*
X-47400870Y150279558D01*
X-47294427Y150278587D01*
X-47164195Y150277664D01*
X-47011491Y150276792D01*
X-46837633Y150275969D01*
X-46643939Y150275196D01*
X-46431727Y150274473D01*
X-46202315Y150273800D01*
X-45957022Y150273177D01*
X-45697164Y150272605D01*
X-45424061Y150272084D01*
X-45139030Y150271613D01*
X-44843389Y150271193D01*
X-44538456Y150270824D01*
X-44225549Y150270506D01*
X-43905986Y150270239D01*
X-43581086Y150270024D01*
X-43252165Y150269860D01*
X-42920542Y150269747D01*
X-42587536Y150269687D01*
X-42254463Y150269678D01*
X-41922642Y150269721D01*
X-41593391Y150269816D01*
X-41268029Y150269964D01*
X-40947872Y150270164D01*
X-40634239Y150270416D01*
X-40328448Y150270721D01*
X-40031817Y150271079D01*
X-39745664Y150271490D01*
X-39471307Y150271954D01*
X-39210064Y150272470D01*
X-38963252Y150273041D01*
X-38732191Y150273664D01*
X-38518197Y150274341D01*
X-38322589Y150275072D01*
X-38146685Y150275857D01*
X-37991803Y150276695D01*
X-37859260Y150277588D01*
X-37750375Y150278535D01*
X-37666467Y150279536D01*
X-37608852Y150280592D01*
X-37578848Y150281702D01*
X-37577769Y150281786D01*
X-37317241Y150317610D01*
X-37067037Y150380336D01*
X-36828161Y150469515D01*
X-36601621Y150584696D01*
X-36388423Y150725430D01*
X-36189574Y150891268D01*
X-36168062Y150911555D01*
X-35986984Y151103544D01*
X-35831575Y151309125D01*
X-35701970Y151528013D01*
X-35598306Y151759921D01*
X-35520717Y152004563D01*
X-35469340Y152261652D01*
X-35450802Y152426021D01*
X-35448755Y152466956D01*
X-35446917Y152536430D01*
X-35445291Y152633918D01*
X-35443878Y152758899D01*
X-35442681Y152910849D01*
X-35441700Y153089245D01*
X-35440938Y153293564D01*
X-35440397Y153523284D01*
X-35440079Y153777881D01*
X-35439985Y154056833D01*
X-35440118Y154359615D01*
X-35440479Y154685707D01*
X-35441070Y155034583D01*
X-35441192Y155095213D01*
X-35441826Y155414572D01*
X-35442390Y155706262D01*
X-35442927Y155971675D01*
X-35443482Y156212202D01*
X-35444100Y156429236D01*
X-35444824Y156624170D01*
X-35445699Y156798395D01*
X-35446770Y156953303D01*
X-35448080Y157090287D01*
X-35449673Y157210739D01*
X-35451595Y157316050D01*
X-35453889Y157407613D01*
X-35456600Y157486821D01*
X-35459772Y157555064D01*
X-35463449Y157613736D01*
X-35467676Y157664229D01*
X-35472497Y157707934D01*
X-35477956Y157746244D01*
X-35484097Y157780551D01*
X-35490965Y157812247D01*
X-35498604Y157842724D01*
X-35507058Y157873374D01*
X-35516372Y157905590D01*
X-35526590Y157940764D01*
X-35532375Y157961038D01*
X-35612343Y158192096D01*
X-35718731Y158415989D01*
X-35849098Y158628952D01*
X-36001002Y158827220D01*
X-36172001Y159007029D01*
X-36263908Y159088843D01*
X-36463790Y159239865D01*
X-36676003Y159366857D01*
X-36902861Y159470907D01*
X-37146682Y159553101D01*
X-37365739Y159605937D01*
X-37378434Y159608286D01*
X-37393172Y159610491D01*
X-37410885Y159612557D01*
X-37432501Y159614491D01*
X-37458949Y159616297D01*
X-37491160Y159617981D01*
X-37530062Y159619549D01*
X-37576586Y159621006D01*
X-37631660Y159622358D01*
X-37696215Y159623610D01*
X-37771179Y159624769D01*
X-37857482Y159625839D01*
X-37956054Y159626826D01*
X-38067824Y159627736D01*
X-38193721Y159628575D01*
X-38334676Y159629347D01*
X-38491617Y159630059D01*
X-38665473Y159630716D01*
X-38857176Y159631323D01*
X-39067653Y159631887D01*
X-39297835Y159632412D01*
X-39548650Y159632905D01*
X-39821029Y159633371D01*
X-40115901Y159633815D01*
X-40434195Y159634243D01*
X-40776840Y159634661D01*
X-41144768Y159635074D01*
X-41538905Y159635488D01*
X-41960183Y159635908D01*
X-42409531Y159636340D01*
X-42440824Y159636370D01*
X-42944050Y159636812D01*
X-43418647Y159637156D01*
X-43865049Y159637402D01*
X-44283687Y159637548D01*
X-44674995Y159637594D01*
X-45039405Y159637538D01*
X-45377350Y159637381D01*
X-45689264Y159637119D01*
X-45975579Y159636754D01*
X-46236728Y159636284D01*
X-46473143Y159635707D01*
X-46685257Y159635023D01*
X-46873504Y159634232D01*
X-47038317Y159633331D01*
X-47180127Y159632321D01*
X-47299367Y159631200D01*
X-47396472Y159629967D01*
X-47471873Y159628621D01*
X-47526003Y159627162D01*
X-47559295Y159625588D01*
X-47564032Y159625211D01*
X-47779114Y159596332D01*
X-47987139Y159547992D01*
X-48096974Y159514310D01*
X-48152449Y159495477D01*
X-48185852Y159481291D01*
X-48202779Y159467503D01*
X-48208826Y159449862D01*
X-48209589Y159428753D01*
X-48212916Y159394538D01*
X-48221896Y159340496D01*
X-48235031Y159274968D01*
X-48246038Y159226117D01*
X-48262583Y159162363D01*
X-48282237Y159100834D01*
X-48307430Y159035501D01*
X-48340592Y158960332D01*
X-48384155Y158869297D01*
X-48414677Y158807788D01*
X-48490956Y158651470D01*
X-48554700Y158512512D01*
X-48605256Y158392508D01*
X-48641973Y158293051D01*
X-48664200Y158215732D01*
X-48669929Y158183896D01*
X-48669257Y158098636D01*
X-48649731Y157996960D01*
X-48613248Y157882799D01*
X-48561704Y157760085D01*
X-48496995Y157632750D01*
X-48421017Y157504724D01*
X-48335667Y157379940D01*
X-48242840Y157262330D01*
X-48204332Y157218495D01*
X-48163326Y157171025D01*
X-48141586Y157139395D01*
X-48136868Y157119902D01*
X-48140581Y157113146D01*
X-48155859Y157101459D01*
X-48174831Y157098204D01*
X-48203960Y157104339D01*
X-48249708Y157120819D01*
X-48283370Y157134264D01*
X-48374688Y157181753D01*
X-48473186Y157251376D01*
X-48574334Y157338669D01*
X-48673599Y157439169D01*
X-48766452Y157548413D01*
X-48848360Y157661935D01*
X-48892860Y157734626D01*
X-48922288Y157793410D01*
X-48953964Y157867605D01*
X-48982625Y157944549D01*
X-48992316Y157974054D01*
X-49012928Y158042714D01*
X-49025350Y158095020D01*
X-49030977Y158142050D01*
X-49031206Y158194887D01*
X-49027936Y158256784D01*
X-49023988Y158311375D01*
X-49018698Y158355139D01*
X-49009987Y158394731D01*
X-48995781Y158436808D01*
X-48974001Y158488025D01*
X-48942572Y158555037D01*
X-48920730Y158600397D01*
X-48877688Y158686711D01*
X-48825222Y158787644D01*
X-48768818Y158892873D01*
X-48713967Y158992074D01*
X-48691631Y159031339D01*
X-48648411Y159106614D01*
X-48609307Y159174935D01*
X-48577010Y159231587D01*
X-48554209Y159271851D01*
X-48544226Y159289817D01*
X-48543914Y159301482D01*
X-48563141Y159296497D01*
X-48599052Y159276740D01*
X-48648791Y159244083D01*
X-48709504Y159200403D01*
X-48778336Y159147575D01*
X-48852432Y159087473D01*
X-48852916Y159087069D01*
X-49030174Y158920984D01*
X-49190320Y158733453D01*
X-49331046Y158528038D01*
X-49450045Y158308304D01*
X-49545007Y158077814D01*
X-49582259Y157961354D01*
X-49592941Y157925025D01*
X-49602709Y157892108D01*
X-49611603Y157861226D01*
X-49619669Y157831004D01*
X-49626949Y157800066D01*
X-49633487Y157767038D01*
X-49639326Y157730542D01*
X-49644509Y157689205D01*
X-49649079Y157641649D01*
X-49653080Y157586500D01*
X-49656555Y157522382D01*
X-49659548Y157447920D01*
X-49662101Y157361737D01*
X-49664258Y157262458D01*
X-49666063Y157148708D01*
X-49667558Y157019110D01*
X-49668786Y156872291D01*
X-49669792Y156706872D01*
X-49670618Y156521481D01*
X-49671308Y156314739D01*
X-49671905Y156085273D01*
X-49672452Y155831706D01*
X-49672993Y155552663D01*
X-49673570Y155246768D01*
X-49673957Y155047594D01*
X-49674603Y154717449D01*
X-49675158Y154415003D01*
X-49675590Y154138898D01*
X-49675868Y153887770D01*
X-49675960Y153660259D01*
X-49997532Y153660259D01*
X-49998034Y153773373D01*
X-49998828Y154006675D01*
X-49999420Y154247014D01*
X-49999810Y154492553D01*
X-50000000Y154741457D01*
X-49999989Y154991891D01*
X-49999779Y155242018D01*
X-49999369Y155490005D01*
X-49998761Y155734014D01*
X-49997955Y155972212D01*
X-49996951Y156202762D01*
X-49995750Y156423829D01*
X-49994353Y156633577D01*
X-49992760Y156830172D01*
X-49990972Y157011777D01*
X-49988989Y157176557D01*
X-49986812Y157322677D01*
X-49984441Y157448302D01*
X-49981876Y157551596D01*
X-49979120Y157630723D01*
X-49976171Y157683848D01*
X-49974184Y157703349D01*
X-49920205Y157971310D01*
X-49839929Y158230014D01*
X-49734693Y158477617D01*
X-49605836Y158712277D01*
X-49454695Y158932150D01*
X-49282608Y159135394D01*
X-49090912Y159320165D01*
X-48880947Y159484621D01*
X-48654048Y159626918D01*
X-48531561Y159690696D01*
X-48462414Y159725188D01*
X-48415380Y159753120D01*
X-48386246Y159780239D01*
X-48370798Y159812293D01*
X-48364822Y159855030D01*
X-48364104Y159914198D01*
X-48364142Y159919076D01*
X-48363458Y159968469D01*
X-48357683Y159993788D01*
X-48342750Y160000000D01*
X-48314592Y159992074D01*
G37*
D13*
G04 #@! TO.C,M1*
X39475002Y2800001D02*
X39475002Y2500003D01*
X39475004Y21650003D02*
X39474999Y20100003D01*
X39475004Y18100001D02*
X39475004Y16999998D01*
X39475004Y15400003D02*
X39475004Y12700003D01*
X39475004Y9200001D02*
X39475004Y4400001D01*
X54775001Y2500005D02*
X39475002Y2500003D01*
X56275001Y23100003D02*
X40875001Y23100003D01*
X56275001Y23100003D02*
X56275001Y22800003D01*
X56275001Y21200003D02*
X56275001Y10800001D01*
X56275001Y9100003D02*
X56275001Y5900000D01*
D15*
G04 #@! TO.C,F6*
X15624721Y53010000D02*
X15950279Y53010000D01*
X15624721Y51990000D02*
X15950279Y51990000D01*
G04 #@! TO.C,BLUETOOTH1*
X89670000Y73770000D02*
X89670000Y66090000D01*
X89670000Y73770000D02*
X92330000Y73770000D01*
X89670000Y66090000D02*
X92330000Y66090000D01*
X91000000Y76370000D02*
X92330000Y76370000D01*
X92330000Y76370000D02*
X92330000Y75040000D01*
X92330000Y73770000D02*
X92330000Y66090000D01*
G04 #@! TO.C,L1*
X5990000Y58549721D02*
X5990000Y58875279D01*
X7010000Y58549721D02*
X7010000Y58875279D01*
D16*
G04 #@! TO.C,R9*
X82798944Y28129160D02*
X83198943Y28129149D01*
X82800000Y28874995D02*
X83200000Y28874985D01*
D15*
G04 #@! TO.C,USB1*
X82440000Y62410000D02*
X82440000Y57690000D01*
X82440000Y60300000D02*
X83050000Y60300000D01*
X82440000Y59000000D02*
X83050000Y59000000D01*
X82440000Y57690000D02*
X92560000Y57690000D01*
X83050000Y61800000D02*
X83050000Y58300000D01*
X83050000Y58300000D02*
X85000000Y58300000D01*
X85000000Y58300000D02*
X85000000Y57690000D01*
X85400000Y61300000D02*
X85400000Y61800000D01*
X85500000Y61800000D02*
X85500000Y61300000D01*
X85600000Y61800000D02*
X85600000Y61300000D01*
X85600000Y61300000D02*
X85400000Y61300000D01*
X87400000Y61300000D02*
X87400000Y61800000D01*
X87500000Y61800000D02*
X87500000Y61300000D01*
X87600000Y61800000D02*
X87600000Y61300000D01*
X87600000Y61300000D02*
X87400000Y61300000D01*
X89400000Y61300000D02*
X89400000Y61800000D01*
X89500000Y61800000D02*
X89500000Y61300000D01*
X89600000Y61800000D02*
X89600000Y61300000D01*
X89600000Y61300000D02*
X89400000Y61300000D01*
X90000000Y58300000D02*
X91950000Y58300000D01*
X90000000Y57690000D02*
X90000000Y58300000D01*
X90800000Y57690000D02*
X90800000Y57490000D01*
X90800000Y57590000D02*
X91100000Y57590000D01*
X90800000Y57490000D02*
X91100000Y57490000D01*
X91100000Y57490000D02*
X91100000Y57690000D01*
X91610000Y57390000D02*
X92860000Y57390000D01*
X91950000Y61800000D02*
X83050000Y61800000D01*
X91950000Y58300000D02*
X91950000Y61800000D01*
X92560000Y62410000D02*
X82440000Y62410000D01*
X92560000Y60300000D02*
X91950000Y60300000D01*
X92560000Y59000000D02*
X91950000Y59000000D01*
X92560000Y57690000D02*
X92560000Y62410000D01*
X92860000Y57390000D02*
X92860000Y58640000D01*
D11*
G04 #@! TO.C,U1*
X69925000Y30350000D02*
X71475000Y30350000D01*
X69925000Y30100000D02*
X69925000Y30350000D01*
X69975000Y23900000D02*
X69975000Y23650000D01*
X69975000Y23650000D02*
X71525000Y23650000D01*
X77775000Y30350000D02*
X76225000Y30350000D01*
X77775000Y30100000D02*
X77775000Y30350000D01*
X77775000Y23900000D02*
X77775000Y23650000D01*
X77775000Y23650000D02*
X76225000Y23650000D01*
D15*
X69075000Y30100000D02*
X68835000Y30430000D01*
X69315000Y30430000D01*
X69075000Y30100000D01*
G36*
X69075000Y30100000D02*
G01*
X68835000Y30430000D01*
X69315000Y30430000D01*
X69075000Y30100000D01*
G37*
D13*
G04 #@! TO.C,C31*
X6500000Y63879986D02*
X6500000Y63130001D01*
G04 #@! TO.C,R8*
X13795611Y32341217D02*
X14195611Y32341217D01*
X13800000Y33644145D02*
X14200000Y33644145D01*
G04 #@! TO.C,C29*
X6500000Y66879986D02*
X6500000Y66130001D01*
G04 #@! TO.C,C30*
X6500000Y65379986D02*
X6500000Y64630001D01*
D17*
G04 #@! TO.C,G1*
X-46275090Y148946190D02*
X-45972830Y148930950D01*
X-45744230Y148895390D01*
X-45535950Y148829350D01*
X-45299730Y148722670D01*
X-45213370Y148679490D01*
X-44677430Y148341670D01*
X-44174510Y147894630D01*
X-43765570Y147389170D01*
X-43696990Y147277410D01*
X-43506490Y146959910D01*
X-44014490Y146959910D01*
X-44326910Y146947210D01*
X-44504710Y146901490D01*
X-44568210Y146835450D01*
X-44552970Y146726230D01*
X-44481850Y146708450D01*
X-44390410Y146665270D01*
X-44387870Y146512870D01*
X-44395490Y146474770D01*
X-44431050Y146291890D01*
X-44484390Y145992170D01*
X-44552970Y145623870D01*
X-44591070Y145402890D01*
X-44669810Y145001570D01*
X-44738390Y144739950D01*
X-44806970Y144590090D01*
X-44883170Y144529130D01*
X-44893330Y144526590D01*
X-44906030Y144521510D01*
X-45038110Y144465630D01*
X-45030490Y144407210D01*
X-44890790Y144361490D01*
X-44634250Y144338630D01*
X-44537730Y144336090D01*
X-44265950Y144348790D01*
X-44083070Y144381810D01*
X-44029730Y144419910D01*
X-44098310Y144496110D01*
X-44156730Y144506270D01*
X-44217690Y144511350D01*
X-44255790Y144541830D01*
X-44265950Y144623110D01*
X-44250710Y144783130D01*
X-44207530Y145044750D01*
X-44131330Y145433370D01*
X-44080530Y145687370D01*
X-43976390Y146169970D01*
X-43879870Y146500170D01*
X-43798590Y146670350D01*
X-43768110Y146693210D01*
X-43620790Y146787190D01*
X-43590310Y146822750D01*
X-43526810Y146830370D01*
X-43453150Y146698290D01*
X-43379490Y146456990D01*
X-43318530Y146139490D01*
X-43300750Y146002330D01*
X-43303290Y145306370D01*
X-43458230Y144615490D01*
X-43757950Y143962710D01*
X-44187210Y143386130D01*
X-44339610Y143228650D01*
X-44852690Y142812090D01*
X-45378470Y142535230D01*
X-45965210Y142380290D01*
X-46526550Y142332030D01*
X-47120910Y142337110D01*
X-47580650Y142405690D01*
X-47710190Y142441250D01*
X-48388370Y142743510D01*
X-48975110Y143188010D01*
X-49472950Y143774750D01*
X-49762510Y144259890D01*
X-49840659Y144419910D01*
X-49574550Y144419910D01*
X-49518670Y144381810D01*
X-49302770Y144353870D01*
X-48931930Y144338630D01*
X-48606810Y144336090D01*
X-47585730Y144336090D01*
X-47585730Y144419910D01*
X-47245370Y144419910D01*
X-47169170Y144376730D01*
X-46968510Y144346250D01*
X-46737370Y144336090D01*
X-46468130Y144348790D01*
X-46285250Y144381810D01*
X-46229370Y144419910D01*
X-46300490Y144493570D01*
X-46366530Y144506270D01*
X-46447810Y144531670D01*
X-46473210Y144638350D01*
X-46450350Y144864410D01*
X-46445270Y144897430D01*
X-46399550Y145159050D01*
X-46356370Y145357170D01*
X-46341130Y145405430D01*
X-46244610Y145476550D01*
X-46069350Y145517190D01*
X-45878850Y145517190D01*
X-45746770Y145479090D01*
X-45721370Y145435910D01*
X-45680730Y145347010D01*
X-45586750Y145364790D01*
X-45487690Y145468930D01*
X-45444510Y145585770D01*
X-45424190Y145799130D01*
X-45474990Y145860090D01*
X-45571510Y145791510D01*
X-45721370Y145722930D01*
X-45944890Y145692450D01*
X-45962670Y145689910D01*
X-46252230Y145689910D01*
X-46193810Y146131870D01*
X-46153170Y146393490D01*
X-46112530Y146583990D01*
X-46094750Y146639870D01*
X-45993150Y146675430D01*
X-45774710Y146700830D01*
X-45581670Y146705910D01*
X-45312430Y146698290D01*
X-45180350Y146667810D01*
X-45152410Y146606850D01*
X-45160030Y146581450D01*
X-45149870Y146469690D01*
X-45093990Y146451910D01*
X-45002550Y146528110D01*
X-44944130Y146703370D01*
X-44941590Y146705910D01*
X-44906030Y146959910D01*
X-45863610Y146959910D01*
X-46287790Y146957370D01*
X-46569730Y146944670D01*
X-46734830Y146919270D01*
X-46808490Y146878630D01*
X-46823730Y146832910D01*
X-46755150Y146721150D01*
X-46696730Y146705910D01*
X-46638310Y146710990D01*
X-46600210Y146703370D01*
X-46584970Y146660190D01*
X-46592590Y146556050D01*
X-46628150Y146360470D01*
X-46689110Y146053130D01*
X-46780550Y145606090D01*
X-46861830Y145209850D01*
X-46927870Y144877110D01*
X-46973590Y144643430D01*
X-46991370Y144539290D01*
X-46991370Y144536750D01*
X-47062490Y144508810D01*
X-47118370Y144506270D01*
X-47192030Y144478330D01*
X-47232670Y144460550D01*
X-47245370Y144419910D01*
X-47585730Y144419910D01*
X-47585730Y144590090D01*
X-47623830Y144793290D01*
X-47712730Y144844090D01*
X-47824490Y144780590D01*
X-47839730Y144724710D01*
X-47913390Y144656130D01*
X-48098810Y144587550D01*
X-48332490Y144534210D01*
X-48558550Y144506270D01*
X-48716030Y144518970D01*
X-48743970Y144536750D01*
X-48759210Y144638350D01*
X-48751590Y144856790D01*
X-48731270Y145052370D01*
X-48672850Y145522270D01*
X-48340110Y145522270D01*
X-48131830Y145501950D01*
X-48014990Y145448610D01*
X-48007370Y145430830D01*
X-47974350Y145347010D01*
X-47898150Y145382570D01*
X-47809250Y145501950D01*
X-47745750Y145674670D01*
X-47745750Y145677210D01*
X-47727970Y145870250D01*
X-47783850Y145943910D01*
X-47806710Y145943910D01*
X-47913390Y145895650D01*
X-47923550Y145860090D01*
X-47999750Y145806750D01*
X-48185170Y145776270D01*
X-48248670Y145776270D01*
X-48571250Y145776270D01*
X-48487430Y146241090D01*
X-48403610Y146708450D01*
X-47900690Y146705910D01*
X-47618750Y146700830D01*
X-47473970Y146672890D01*
X-47438410Y146614470D01*
X-47446030Y146578910D01*
X-47435870Y146469690D01*
X-47379990Y146451910D01*
X-47288550Y146528110D01*
X-47230130Y146703370D01*
X-47227590Y146705910D01*
X-47192030Y146959910D01*
X-48149610Y146959910D01*
X-48573790Y146957370D01*
X-48855730Y146944670D01*
X-49020830Y146919270D01*
X-49094490Y146878630D01*
X-49109730Y146832910D01*
X-49041150Y146723690D01*
X-48977650Y146705910D01*
X-48881130Y146650030D01*
X-48886210Y146558590D01*
X-48919230Y146418890D01*
X-48977650Y146152190D01*
X-49048770Y145801670D01*
X-49117350Y145458770D01*
X-49218950Y144981250D01*
X-49310390Y144666290D01*
X-49386590Y144518970D01*
X-49411990Y144506270D01*
X-49551690Y144447850D01*
X-49574550Y144419910D01*
X-49840659Y144419910D01*
X-49869190Y144478330D01*
X-49937770Y144676450D01*
X-49975870Y144897430D01*
X-49993650Y145186990D01*
X-49998730Y145595930D01*
X-49998730Y145649270D01*
X-49993650Y146073450D01*
X-49978410Y146378250D01*
X-49940310Y146609390D01*
X-49874270Y146817670D01*
X-49770130Y147048810D01*
X-49754890Y147074210D01*
X-49422150Y147602530D01*
X-48970030Y148100370D01*
X-48451870Y148511850D01*
X-48129290Y148699810D01*
X-47890530Y148809030D01*
X-47684790Y148882690D01*
X-47458730Y148923330D01*
X-47169170Y148943650D01*
X-46762770Y148948730D01*
X-46694190Y148948730D01*
X-46275090Y148946190D01*
G36*
X-46275090Y148946190D02*
G01*
X-45972830Y148930950D01*
X-45744230Y148895390D01*
X-45535950Y148829350D01*
X-45299730Y148722670D01*
X-45213370Y148679490D01*
X-44677430Y148341670D01*
X-44174510Y147894630D01*
X-43765570Y147389170D01*
X-43696990Y147277410D01*
X-43506490Y146959910D01*
X-44014490Y146959910D01*
X-44326910Y146947210D01*
X-44504710Y146901490D01*
X-44568210Y146835450D01*
X-44552970Y146726230D01*
X-44481850Y146708450D01*
X-44390410Y146665270D01*
X-44387870Y146512870D01*
X-44395490Y146474770D01*
X-44431050Y146291890D01*
X-44484390Y145992170D01*
X-44552970Y145623870D01*
X-44591070Y145402890D01*
X-44669810Y145001570D01*
X-44738390Y144739950D01*
X-44806970Y144590090D01*
X-44883170Y144529130D01*
X-44893330Y144526590D01*
X-44906030Y144521510D01*
X-45038110Y144465630D01*
X-45030490Y144407210D01*
X-44890790Y144361490D01*
X-44634250Y144338630D01*
X-44537730Y144336090D01*
X-44265950Y144348790D01*
X-44083070Y144381810D01*
X-44029730Y144419910D01*
X-44098310Y144496110D01*
X-44156730Y144506270D01*
X-44217690Y144511350D01*
X-44255790Y144541830D01*
X-44265950Y144623110D01*
X-44250710Y144783130D01*
X-44207530Y145044750D01*
X-44131330Y145433370D01*
X-44080530Y145687370D01*
X-43976390Y146169970D01*
X-43879870Y146500170D01*
X-43798590Y146670350D01*
X-43768110Y146693210D01*
X-43620790Y146787190D01*
X-43590310Y146822750D01*
X-43526810Y146830370D01*
X-43453150Y146698290D01*
X-43379490Y146456990D01*
X-43318530Y146139490D01*
X-43300750Y146002330D01*
X-43303290Y145306370D01*
X-43458230Y144615490D01*
X-43757950Y143962710D01*
X-44187210Y143386130D01*
X-44339610Y143228650D01*
X-44852690Y142812090D01*
X-45378470Y142535230D01*
X-45965210Y142380290D01*
X-46526550Y142332030D01*
X-47120910Y142337110D01*
X-47580650Y142405690D01*
X-47710190Y142441250D01*
X-48388370Y142743510D01*
X-48975110Y143188010D01*
X-49472950Y143774750D01*
X-49762510Y144259890D01*
X-49840659Y144419910D01*
X-49574550Y144419910D01*
X-49518670Y144381810D01*
X-49302770Y144353870D01*
X-48931930Y144338630D01*
X-48606810Y144336090D01*
X-47585730Y144336090D01*
X-47585730Y144419910D01*
X-47245370Y144419910D01*
X-47169170Y144376730D01*
X-46968510Y144346250D01*
X-46737370Y144336090D01*
X-46468130Y144348790D01*
X-46285250Y144381810D01*
X-46229370Y144419910D01*
X-46300490Y144493570D01*
X-46366530Y144506270D01*
X-46447810Y144531670D01*
X-46473210Y144638350D01*
X-46450350Y144864410D01*
X-46445270Y144897430D01*
X-46399550Y145159050D01*
X-46356370Y145357170D01*
X-46341130Y145405430D01*
X-46244610Y145476550D01*
X-46069350Y145517190D01*
X-45878850Y145517190D01*
X-45746770Y145479090D01*
X-45721370Y145435910D01*
X-45680730Y145347010D01*
X-45586750Y145364790D01*
X-45487690Y145468930D01*
X-45444510Y145585770D01*
X-45424190Y145799130D01*
X-45474990Y145860090D01*
X-45571510Y145791510D01*
X-45721370Y145722930D01*
X-45944890Y145692450D01*
X-45962670Y145689910D01*
X-46252230Y145689910D01*
X-46193810Y146131870D01*
X-46153170Y146393490D01*
X-46112530Y146583990D01*
X-46094750Y146639870D01*
X-45993150Y146675430D01*
X-45774710Y146700830D01*
X-45581670Y146705910D01*
X-45312430Y146698290D01*
X-45180350Y146667810D01*
X-45152410Y146606850D01*
X-45160030Y146581450D01*
X-45149870Y146469690D01*
X-45093990Y146451910D01*
X-45002550Y146528110D01*
X-44944130Y146703370D01*
X-44941590Y146705910D01*
X-44906030Y146959910D01*
X-45863610Y146959910D01*
X-46287790Y146957370D01*
X-46569730Y146944670D01*
X-46734830Y146919270D01*
X-46808490Y146878630D01*
X-46823730Y146832910D01*
X-46755150Y146721150D01*
X-46696730Y146705910D01*
X-46638310Y146710990D01*
X-46600210Y146703370D01*
X-46584970Y146660190D01*
X-46592590Y146556050D01*
X-46628150Y146360470D01*
X-46689110Y146053130D01*
X-46780550Y145606090D01*
X-46861830Y145209850D01*
X-46927870Y144877110D01*
X-46973590Y144643430D01*
X-46991370Y144539290D01*
X-46991370Y144536750D01*
X-47062490Y144508810D01*
X-47118370Y144506270D01*
X-47192030Y144478330D01*
X-47232670Y144460550D01*
X-47245370Y144419910D01*
X-47585730Y144419910D01*
X-47585730Y144590090D01*
X-47623830Y144793290D01*
X-47712730Y144844090D01*
X-47824490Y144780590D01*
X-47839730Y144724710D01*
X-47913390Y144656130D01*
X-48098810Y144587550D01*
X-48332490Y144534210D01*
X-48558550Y144506270D01*
X-48716030Y144518970D01*
X-48743970Y144536750D01*
X-48759210Y144638350D01*
X-48751590Y144856790D01*
X-48731270Y145052370D01*
X-48672850Y145522270D01*
X-48340110Y145522270D01*
X-48131830Y145501950D01*
X-48014990Y145448610D01*
X-48007370Y145430830D01*
X-47974350Y145347010D01*
X-47898150Y145382570D01*
X-47809250Y145501950D01*
X-47745750Y145674670D01*
X-47745750Y145677210D01*
X-47727970Y145870250D01*
X-47783850Y145943910D01*
X-47806710Y145943910D01*
X-47913390Y145895650D01*
X-47923550Y145860090D01*
X-47999750Y145806750D01*
X-48185170Y145776270D01*
X-48248670Y145776270D01*
X-48571250Y145776270D01*
X-48487430Y146241090D01*
X-48403610Y146708450D01*
X-47900690Y146705910D01*
X-47618750Y146700830D01*
X-47473970Y146672890D01*
X-47438410Y146614470D01*
X-47446030Y146578910D01*
X-47435870Y146469690D01*
X-47379990Y146451910D01*
X-47288550Y146528110D01*
X-47230130Y146703370D01*
X-47227590Y146705910D01*
X-47192030Y146959910D01*
X-48149610Y146959910D01*
X-48573790Y146957370D01*
X-48855730Y146944670D01*
X-49020830Y146919270D01*
X-49094490Y146878630D01*
X-49109730Y146832910D01*
X-49041150Y146723690D01*
X-48977650Y146705910D01*
X-48881130Y146650030D01*
X-48886210Y146558590D01*
X-48919230Y146418890D01*
X-48977650Y146152190D01*
X-49048770Y145801670D01*
X-49117350Y145458770D01*
X-49218950Y144981250D01*
X-49310390Y144666290D01*
X-49386590Y144518970D01*
X-49411990Y144506270D01*
X-49551690Y144447850D01*
X-49574550Y144419910D01*
X-49840659Y144419910D01*
X-49869190Y144478330D01*
X-49937770Y144676450D01*
X-49975870Y144897430D01*
X-49993650Y145186990D01*
X-49998730Y145595930D01*
X-49998730Y145649270D01*
X-49993650Y146073450D01*
X-49978410Y146378250D01*
X-49940310Y146609390D01*
X-49874270Y146817670D01*
X-49770130Y147048810D01*
X-49754890Y147074210D01*
X-49422150Y147602530D01*
X-48970030Y148100370D01*
X-48451870Y148511850D01*
X-48129290Y148699810D01*
X-47890530Y148809030D01*
X-47684790Y148882690D01*
X-47458730Y148923330D01*
X-47169170Y148943650D01*
X-46762770Y148948730D01*
X-46694190Y148948730D01*
X-46275090Y148946190D01*
G37*
D13*
G04 #@! TO.C,R7*
X13795611Y34844145D02*
X14195611Y34844145D01*
X13800000Y36147073D02*
X14200000Y36147073D01*
G04 #@! TO.C,M2*
X16574999Y40425000D02*
X16574999Y31325000D01*
X16574999Y40425000D02*
X17575001Y40425000D01*
X19675002Y40425000D02*
X19675002Y31325000D01*
D11*
G04 #@! TO.C,U2*
X69850000Y15850000D02*
X71400000Y15850000D01*
X69850000Y15600000D02*
X69850000Y15850000D01*
X69900000Y9400000D02*
X69900000Y9150000D01*
X69900000Y9150000D02*
X71450000Y9150000D01*
X77700000Y15850000D02*
X76150000Y15850000D01*
X77700000Y15600000D02*
X77700000Y15850000D01*
X77700000Y9400000D02*
X77700000Y9150000D01*
X77700000Y9150000D02*
X76150000Y9150000D01*
D15*
X69000000Y15600000D02*
X68760000Y15930000D01*
X69240000Y15930000D01*
X69000000Y15600000D01*
G36*
X69000000Y15600000D02*
G01*
X68760000Y15930000D01*
X69240000Y15930000D01*
X69000000Y15600000D01*
G37*
D16*
G04 #@! TO.C,R21*
X12586444Y50129160D02*
X12986443Y50129149D01*
X12587500Y50874995D02*
X12987500Y50874985D01*
D13*
G04 #@! TO.C,C13*
X82500000Y24150014D02*
X82500000Y24899999D01*
G04 #@! TO.C,C27*
X6500000Y69849986D02*
X6500000Y69100001D01*
G04 #@! TO.C,C25*
X64500000Y11349986D02*
X64500000Y10600001D01*
D15*
G04 #@! TO.C,F1*
X77400000Y6000000D02*
X72550000Y6000000D01*
X77400000Y4000000D02*
X72550000Y4000000D01*
X72550000Y4000000D02*
G75*
G02*
X72550000Y6000000I0J1000000D01*
G01*
X77450000Y6000000D02*
G75*
G02*
X77450000Y4000000I0J-1000000D01*
G01*
G04 #@! TO.C,U4*
X13000000Y68060000D02*
X11050000Y68060000D01*
X13000000Y68060000D02*
X14950000Y68060000D01*
X13000000Y62940000D02*
X11050000Y62940000D01*
X13000000Y62940000D02*
X14950000Y62940000D01*
X10300000Y67965000D02*
X10060000Y68295000D01*
X10540000Y68295000D01*
X10300000Y67965000D01*
G36*
X10300000Y67965000D02*
G01*
X10060000Y68295000D01*
X10540000Y68295000D01*
X10300000Y67965000D01*
G37*
G04 #@! TO.C,D8*
X7940000Y58500000D02*
X7940000Y59150000D01*
X7940000Y58500000D02*
X7940000Y57850000D01*
X11060000Y58500000D02*
X11060000Y59150000D01*
X11060000Y58500000D02*
X11060000Y57850000D01*
X11340000Y59422500D02*
X11010000Y59662500D01*
X11340000Y59902500D01*
X11340000Y59422500D01*
G36*
X11340000Y59422500D02*
G01*
X11010000Y59662500D01*
X11340000Y59902500D01*
X11340000Y59422500D01*
G37*
G04 #@! TO.C,U9*
X73500000Y57060000D02*
X71550000Y57060000D01*
X73500000Y57060000D02*
X75450000Y57060000D01*
X73500000Y51940000D02*
X71550000Y51940000D01*
X73500000Y51940000D02*
X75450000Y51940000D01*
X70800000Y56965000D02*
X70560000Y57295000D01*
X71040000Y57295000D01*
X70800000Y56965000D01*
G36*
X70800000Y56965000D02*
G01*
X70560000Y57295000D01*
X71040000Y57295000D01*
X70800000Y56965000D01*
G37*
G04 #@! TO.C,L2*
X11990000Y58549721D02*
X11990000Y58875279D01*
X13010000Y58549721D02*
X13010000Y58875279D01*
G04 #@! TO.C,U10*
X73500000Y49560000D02*
X71550000Y49560000D01*
X73500000Y49560000D02*
X75450000Y49560000D01*
X73500000Y44440000D02*
X71550000Y44440000D01*
X73500000Y44440000D02*
X75450000Y44440000D01*
X70800000Y49465000D02*
X70560000Y49795000D01*
X71040000Y49795000D01*
X70800000Y49465000D01*
G36*
X70800000Y49465000D02*
G01*
X70560000Y49795000D01*
X71040000Y49795000D01*
X70800000Y49465000D01*
G37*
D13*
G04 #@! TO.C,CAN1*
X27537499Y77529142D02*
X38712499Y77567989D01*
X27537499Y71831661D02*
X27537499Y77529142D01*
X27537499Y71831661D02*
X27812503Y71556657D01*
X27812503Y70681663D02*
X27812503Y71556657D01*
X27812503Y70681663D02*
X27812505Y70681660D01*
X27812505Y70681660D02*
X38712499Y70681660D01*
X38712499Y70681660D02*
X38712499Y77567989D01*
G04 #@! TO.C,MCU1*
X21699990Y66899980D02*
X55500000Y66899980D01*
X21699990Y31099990D02*
X21699990Y66899980D01*
X21699990Y31099990D02*
X55499990Y31099990D01*
X55500000Y31099990D02*
X55500000Y66899980D01*
D15*
G04 #@! TO.C,F7*
X15624721Y49010000D02*
X15950279Y49010000D01*
X15624721Y47990000D02*
X15950279Y47990000D01*
D18*
G04 #@! TO.C,R4*
X46381000Y72800000D02*
X47397000Y72800000D01*
X47397000Y71200000D02*
X46381000Y71200000D01*
X48413000Y72800000D02*
X49429000Y72800000D01*
X49429000Y71200000D02*
X48413000Y71200000D01*
D15*
X46330000Y71200000D02*
G75*
G02*
X46326000Y72801638I-330000J800000D01*
G01*
X49488602Y72803495D02*
G75*
G02*
X49480000Y71200000I321398J-803495D01*
G01*
D16*
G04 #@! TO.C,R2*
X62498944Y8129160D02*
X62898943Y8129149D01*
X62500000Y8874995D02*
X62900000Y8874985D01*
D13*
G04 #@! TO.C,C26*
X82500000Y9650014D02*
X82500000Y10399999D01*
D16*
G04 #@! TO.C,R6*
X17798944Y29129160D02*
X18198943Y29129149D01*
X17800000Y29874995D02*
X18200000Y29874985D01*
G04 #@! TO.C,R20*
X12586444Y52129160D02*
X12986443Y52129149D01*
X12587500Y52874995D02*
X12987500Y52874985D01*
G04 #@! TO.C,R26*
X12586444Y46129160D02*
X12986443Y46129149D01*
X12587500Y46874995D02*
X12987500Y46874985D01*
G04 #@! TO.C,R28*
X12586444Y42129160D02*
X12986443Y42129149D01*
X12587500Y42874995D02*
X12987500Y42874985D01*
D13*
G04 #@! TO.C,C11*
X64709999Y28849986D02*
X64709999Y28100001D01*
D16*
G04 #@! TO.C,R22*
X12586444Y48129160D02*
X12986443Y48129149D01*
X12587500Y48874995D02*
X12987500Y48874985D01*
D15*
G04 #@! TO.C,F8*
X15624721Y47010000D02*
X15950279Y47010000D01*
X15624721Y45990000D02*
X15950279Y45990000D01*
D13*
G04 #@! TO.C,C32*
X6500000Y62379986D02*
X6500000Y61630001D01*
D12*
G04 #@! TO.C,MAP1*
X13817500Y77682500D02*
X13817500Y76520000D01*
X13817500Y70317500D02*
X13817500Y71480000D01*
X21182500Y77682500D02*
X13817500Y77682500D01*
X21182500Y77682500D02*
X21182500Y76520000D01*
X21182500Y70317500D02*
X13817500Y70317500D01*
X21182500Y70317500D02*
X21182500Y71480000D01*
D13*
X23900000Y71505000D02*
G75*
G02*
X23700000Y71505000I-100000J0D01*
G01*
X23700000Y71505000D02*
G75*
G02*
X23900000Y71505000I100000J0D01*
G01*
G04 #@! TO.C,C12*
X64709999Y25849986D02*
X64709999Y25100001D01*
D16*
G04 #@! TO.C,R3*
X62900000Y6625005D02*
X62500000Y6625015D01*
X62901056Y7370840D02*
X62501057Y7370851D01*
D15*
G04 #@! TO.C,F4*
X60100000Y22000000D02*
X64950000Y22000000D01*
X60100000Y20000000D02*
X64950000Y20000000D01*
X60050000Y20000000D02*
G75*
G02*
X60050000Y22000000I0J1000000D01*
G01*
X64950000Y22000000D02*
G75*
G02*
X64950000Y20000000I0J-1000000D01*
G01*
G04 #@! TO.C,F9*
X15624721Y45010000D02*
X15950279Y45010000D01*
X15624721Y43990000D02*
X15950279Y43990000D01*
G04 #@! TO.C,F10*
X15624721Y43010000D02*
X15950279Y43010000D01*
X15624721Y41990000D02*
X15950279Y41990000D01*
G04 #@! TO.C,F2*
X72600000Y4000000D02*
X77450000Y4000000D01*
X72600000Y2000000D02*
X77450000Y2000000D01*
X72550000Y2000000D02*
G75*
G02*
X72550000Y4000000I0J1000000D01*
G01*
X77450000Y4000000D02*
G75*
G02*
X77450000Y2000000I0J-1000000D01*
G01*
G04 #@! TO.C,F3*
X60100000Y19500000D02*
X64950000Y19500000D01*
X60100000Y17500000D02*
X64950000Y17500000D01*
X60050000Y17500000D02*
G75*
G02*
X60050000Y19500000I0J1000000D01*
G01*
X64950000Y19500000D02*
G75*
G02*
X64950000Y17500000I0J-1000000D01*
G01*
G04 #@! TO.C,U11*
X73500000Y42060000D02*
X71550000Y42060000D01*
X73500000Y42060000D02*
X75450000Y42060000D01*
X73500000Y36940000D02*
X71550000Y36940000D01*
X73500000Y36940000D02*
X75450000Y36940000D01*
X70800000Y41965000D02*
X70560000Y42295000D01*
X71040000Y42295000D01*
X70800000Y41965000D01*
G36*
X70800000Y41965000D02*
G01*
X70560000Y42295000D01*
X71040000Y42295000D01*
X70800000Y41965000D01*
G37*
G04 #@! TO.C,F5*
X15624721Y51010000D02*
X15950279Y51010000D01*
X15624721Y49990000D02*
X15950279Y49990000D01*
D16*
G04 #@! TO.C,R27*
X12586444Y44129160D02*
X12986443Y44129149D01*
X12587500Y44874995D02*
X12987500Y44874985D01*
G04 #@! TO.C,R14*
X82298944Y13629160D02*
X82698943Y13629149D01*
X82300000Y14374995D02*
X82700000Y14374985D01*
D13*
G04 #@! TO.C,C24*
X64500000Y14349986D02*
X64500000Y13600001D01*
G04 #@! TO.C,R5*
X13795611Y37347073D02*
X14195611Y37347073D01*
X13800000Y38650001D02*
X14200000Y38650001D01*
G04 #@! TO.C,M4*
X65050000Y76482500D02*
X65050000Y71382500D01*
X65650000Y66882500D02*
X80050000Y66882500D01*
X80050000Y76482500D02*
X65050000Y76482500D01*
X80050000Y76482500D02*
X80050000Y75182500D01*
X80050000Y66882500D02*
X80050000Y73282500D01*
G04 #@! TD*
M02*
