G04 #@! TF.GenerationSoftware,KiCad,Pcbnew,8.0.7-8.0.7-0~ubuntu24.04.1*
G04 #@! TF.CreationDate,2025-01-03T15:31:29+00:00*
G04 #@! TF.ProjectId,stabildaytona,73746162-696c-4646-9179-746f6e612e6b,D*
G04 #@! TF.SameCoordinates,PX2faf080PY9896800*
G04 #@! TF.FileFunction,Legend,Bot*
G04 #@! TF.FilePolarity,Positive*
%FSLAX46Y46*%
G04 Gerber Fmt 4.6, Leading zero omitted, Abs format (unit mm)*
G04 Created by KiCad (PCBNEW 8.0.7-8.0.7-0~ubuntu24.04.1) date 2025-01-03 15:31:29*
%MOMM*%
%LPD*%
G01*
G04 APERTURE LIST*
%ADD10C,0.127000*%
%ADD11C,0.170000*%
%ADD12C,0.150000*%
%ADD13C,0.200000*%
%ADD14C,0.120000*%
%ADD15C,0.099060*%
%ADD16C,0.203200*%
G04 APERTURE END LIST*
D10*
X70946768Y5754000D02*
X70946768Y6008000D01*
X71345911Y6008000D02*
X70583911Y6008000D01*
X70583911Y6008000D02*
X70583911Y5645143D01*
X71345911Y4955714D02*
X71345911Y5391143D01*
X71345911Y5173428D02*
X70583911Y5173428D01*
X70583911Y5173428D02*
X70692768Y5246000D01*
X70692768Y5246000D02*
X70765340Y5318571D01*
X70765340Y5318571D02*
X70801626Y5391143D01*
X51750911Y72127000D02*
X51388054Y72381000D01*
X51750911Y72562429D02*
X50988911Y72562429D01*
X50988911Y72562429D02*
X50988911Y72272143D01*
X50988911Y72272143D02*
X51025197Y72199572D01*
X51025197Y72199572D02*
X51061483Y72163286D01*
X51061483Y72163286D02*
X51134054Y72127000D01*
X51134054Y72127000D02*
X51242911Y72127000D01*
X51242911Y72127000D02*
X51315483Y72163286D01*
X51315483Y72163286D02*
X51351768Y72199572D01*
X51351768Y72199572D02*
X51388054Y72272143D01*
X51388054Y72272143D02*
X51388054Y72562429D01*
X51242911Y71473857D02*
X51750911Y71473857D01*
X50952626Y71655286D02*
X51496911Y71836715D01*
X51496911Y71836715D02*
X51496911Y71365000D01*
X58446768Y21254000D02*
X58446768Y21508000D01*
X58845911Y21508000D02*
X58083911Y21508000D01*
X58083911Y21508000D02*
X58083911Y21145143D01*
X58337911Y20528285D02*
X58845911Y20528285D01*
X58047626Y20709714D02*
X58591911Y20891143D01*
X58591911Y20891143D02*
X58591911Y20419428D01*
X70946768Y3254000D02*
X70946768Y3508000D01*
X71345911Y3508000D02*
X70583911Y3508000D01*
X70583911Y3508000D02*
X70583911Y3145143D01*
X70656483Y2891143D02*
X70620197Y2854857D01*
X70620197Y2854857D02*
X70583911Y2782285D01*
X70583911Y2782285D02*
X70583911Y2600857D01*
X70583911Y2600857D02*
X70620197Y2528285D01*
X70620197Y2528285D02*
X70656483Y2492000D01*
X70656483Y2492000D02*
X70729054Y2455714D01*
X70729054Y2455714D02*
X70801626Y2455714D01*
X70801626Y2455714D02*
X70910483Y2492000D01*
X70910483Y2492000D02*
X71345911Y2927428D01*
X71345911Y2927428D02*
X71345911Y2455714D01*
X58446768Y18754000D02*
X58446768Y19008000D01*
X58845911Y19008000D02*
X58083911Y19008000D01*
X58083911Y19008000D02*
X58083911Y18645143D01*
X58083911Y18427428D02*
X58083911Y17955714D01*
X58083911Y17955714D02*
X58374197Y18209714D01*
X58374197Y18209714D02*
X58374197Y18100857D01*
X58374197Y18100857D02*
X58410483Y18028285D01*
X58410483Y18028285D02*
X58446768Y17992000D01*
X58446768Y17992000D02*
X58519340Y17955714D01*
X58519340Y17955714D02*
X58700768Y17955714D01*
X58700768Y17955714D02*
X58773340Y17992000D01*
X58773340Y17992000D02*
X58809626Y18028285D01*
X58809626Y18028285D02*
X58845911Y18100857D01*
X58845911Y18100857D02*
X58845911Y18318571D01*
X58845911Y18318571D02*
X58809626Y18391143D01*
X58809626Y18391143D02*
X58773340Y18427428D01*
D11*
X67275651Y43890809D02*
X67002318Y43500333D01*
X66807080Y43890809D02*
X66807080Y43070809D01*
X66807080Y43070809D02*
X67119461Y43070809D01*
X67119461Y43070809D02*
X67197556Y43109857D01*
X67197556Y43109857D02*
X67236603Y43148904D01*
X67236603Y43148904D02*
X67275651Y43227000D01*
X67275651Y43227000D02*
X67275651Y43344142D01*
X67275651Y43344142D02*
X67236603Y43422238D01*
X67236603Y43422238D02*
X67197556Y43461285D01*
X67197556Y43461285D02*
X67119461Y43500333D01*
X67119461Y43500333D02*
X66807080Y43500333D01*
X68056603Y43890809D02*
X67588032Y43890809D01*
X67822318Y43890809D02*
X67822318Y43070809D01*
X67822318Y43070809D02*
X67744222Y43187952D01*
X67744222Y43187952D02*
X67666127Y43266047D01*
X67666127Y43266047D02*
X67588032Y43305095D01*
X68368984Y43148904D02*
X68408032Y43109857D01*
X68408032Y43109857D02*
X68486127Y43070809D01*
X68486127Y43070809D02*
X68681365Y43070809D01*
X68681365Y43070809D02*
X68759460Y43109857D01*
X68759460Y43109857D02*
X68798508Y43148904D01*
X68798508Y43148904D02*
X68837555Y43227000D01*
X68837555Y43227000D02*
X68837555Y43305095D01*
X68837555Y43305095D02*
X68798508Y43422238D01*
X68798508Y43422238D02*
X68329936Y43890809D01*
X68329936Y43890809D02*
X68837555Y43890809D01*
X77947285Y7185651D02*
X77908238Y7146603D01*
X77908238Y7146603D02*
X77869190Y7029461D01*
X77869190Y7029461D02*
X77869190Y6951365D01*
X77869190Y6951365D02*
X77908238Y6834222D01*
X77908238Y6834222D02*
X77986333Y6756127D01*
X77986333Y6756127D02*
X78064428Y6717080D01*
X78064428Y6717080D02*
X78220618Y6678032D01*
X78220618Y6678032D02*
X78337761Y6678032D01*
X78337761Y6678032D02*
X78493952Y6717080D01*
X78493952Y6717080D02*
X78572047Y6756127D01*
X78572047Y6756127D02*
X78650142Y6834222D01*
X78650142Y6834222D02*
X78689190Y6951365D01*
X78689190Y6951365D02*
X78689190Y7029461D01*
X78689190Y7029461D02*
X78650142Y7146603D01*
X78650142Y7146603D02*
X78611095Y7185651D01*
X77869190Y7966603D02*
X77869190Y7498032D01*
X77869190Y7732318D02*
X78689190Y7732318D01*
X78689190Y7732318D02*
X78572047Y7654222D01*
X78572047Y7654222D02*
X78493952Y7576127D01*
X78493952Y7576127D02*
X78454904Y7498032D01*
X78415857Y8669460D02*
X77869190Y8669460D01*
X78728238Y8474222D02*
X78142523Y8278984D01*
X78142523Y8278984D02*
X78142523Y8786603D01*
X74262713Y18524349D02*
X74301761Y18563397D01*
X74301761Y18563397D02*
X74340808Y18680539D01*
X74340808Y18680539D02*
X74340808Y18758635D01*
X74340808Y18758635D02*
X74301761Y18875778D01*
X74301761Y18875778D02*
X74223665Y18953873D01*
X74223665Y18953873D02*
X74145570Y18992920D01*
X74145570Y18992920D02*
X73989380Y19031968D01*
X73989380Y19031968D02*
X73872237Y19031968D01*
X73872237Y19031968D02*
X73716046Y18992920D01*
X73716046Y18992920D02*
X73637951Y18953873D01*
X73637951Y18953873D02*
X73559856Y18875778D01*
X73559856Y18875778D02*
X73520808Y18758635D01*
X73520808Y18758635D02*
X73520808Y18680539D01*
X73520808Y18680539D02*
X73559856Y18563397D01*
X73559856Y18563397D02*
X73598903Y18524349D01*
X73598903Y18211968D02*
X73559856Y18172920D01*
X73559856Y18172920D02*
X73520808Y18094825D01*
X73520808Y18094825D02*
X73520808Y17899587D01*
X73520808Y17899587D02*
X73559856Y17821492D01*
X73559856Y17821492D02*
X73598903Y17782444D01*
X73598903Y17782444D02*
X73676999Y17743397D01*
X73676999Y17743397D02*
X73755094Y17743397D01*
X73755094Y17743397D02*
X73872237Y17782444D01*
X73872237Y17782444D02*
X74340808Y18251016D01*
X74340808Y18251016D02*
X74340808Y17743397D01*
X74340808Y16962445D02*
X74340808Y17431016D01*
X74340808Y17196730D02*
X73520808Y17196730D01*
X73520808Y17196730D02*
X73637951Y17274826D01*
X73637951Y17274826D02*
X73716046Y17352921D01*
X73716046Y17352921D02*
X73755094Y17431016D01*
X60724348Y49609192D02*
X60997681Y49999668D01*
X61192919Y49609192D02*
X61192919Y50429192D01*
X61192919Y50429192D02*
X60880538Y50429192D01*
X60880538Y50429192D02*
X60802443Y50390144D01*
X60802443Y50390144D02*
X60763396Y50351097D01*
X60763396Y50351097D02*
X60724348Y50273001D01*
X60724348Y50273001D02*
X60724348Y50155859D01*
X60724348Y50155859D02*
X60763396Y50077763D01*
X60763396Y50077763D02*
X60802443Y50038716D01*
X60802443Y50038716D02*
X60880538Y49999668D01*
X60880538Y49999668D02*
X61192919Y49999668D01*
X60451015Y50429192D02*
X59943396Y50429192D01*
X59943396Y50429192D02*
X60216729Y50116811D01*
X60216729Y50116811D02*
X60099586Y50116811D01*
X60099586Y50116811D02*
X60021491Y50077763D01*
X60021491Y50077763D02*
X59982443Y50038716D01*
X59982443Y50038716D02*
X59943396Y49960620D01*
X59943396Y49960620D02*
X59943396Y49765382D01*
X59943396Y49765382D02*
X59982443Y49687287D01*
X59982443Y49687287D02*
X60021491Y49648239D01*
X60021491Y49648239D02*
X60099586Y49609192D01*
X60099586Y49609192D02*
X60333872Y49609192D01*
X60333872Y49609192D02*
X60411967Y49648239D01*
X60411967Y49648239D02*
X60451015Y49687287D01*
X59670063Y50429192D02*
X59162444Y50429192D01*
X59162444Y50429192D02*
X59435777Y50116811D01*
X59435777Y50116811D02*
X59318634Y50116811D01*
X59318634Y50116811D02*
X59240539Y50077763D01*
X59240539Y50077763D02*
X59201491Y50038716D01*
X59201491Y50038716D02*
X59162444Y49960620D01*
X59162444Y49960620D02*
X59162444Y49765382D01*
X59162444Y49765382D02*
X59201491Y49687287D01*
X59201491Y49687287D02*
X59240539Y49648239D01*
X59240539Y49648239D02*
X59318634Y49609192D01*
X59318634Y49609192D02*
X59552920Y49609192D01*
X59552920Y49609192D02*
X59631015Y49648239D01*
X59631015Y49648239D02*
X59670063Y49687287D01*
X67275651Y51390809D02*
X67002318Y51000333D01*
X66807080Y51390809D02*
X66807080Y50570809D01*
X66807080Y50570809D02*
X67119461Y50570809D01*
X67119461Y50570809D02*
X67197556Y50609857D01*
X67197556Y50609857D02*
X67236603Y50648904D01*
X67236603Y50648904D02*
X67275651Y50727000D01*
X67275651Y50727000D02*
X67275651Y50844142D01*
X67275651Y50844142D02*
X67236603Y50922238D01*
X67236603Y50922238D02*
X67197556Y50961285D01*
X67197556Y50961285D02*
X67119461Y51000333D01*
X67119461Y51000333D02*
X66807080Y51000333D01*
X68056603Y51390809D02*
X67588032Y51390809D01*
X67822318Y51390809D02*
X67822318Y50570809D01*
X67822318Y50570809D02*
X67744222Y50687952D01*
X67744222Y50687952D02*
X67666127Y50766047D01*
X67666127Y50766047D02*
X67588032Y50805095D01*
X68564222Y50570809D02*
X68642317Y50570809D01*
X68642317Y50570809D02*
X68720413Y50609857D01*
X68720413Y50609857D02*
X68759460Y50648904D01*
X68759460Y50648904D02*
X68798508Y50727000D01*
X68798508Y50727000D02*
X68837555Y50883190D01*
X68837555Y50883190D02*
X68837555Y51078428D01*
X68837555Y51078428D02*
X68798508Y51234619D01*
X68798508Y51234619D02*
X68759460Y51312714D01*
X68759460Y51312714D02*
X68720413Y51351761D01*
X68720413Y51351761D02*
X68642317Y51390809D01*
X68642317Y51390809D02*
X68564222Y51390809D01*
X68564222Y51390809D02*
X68486127Y51351761D01*
X68486127Y51351761D02*
X68447079Y51312714D01*
X68447079Y51312714D02*
X68408032Y51234619D01*
X68408032Y51234619D02*
X68368984Y51078428D01*
X68368984Y51078428D02*
X68368984Y50883190D01*
X68368984Y50883190D02*
X68408032Y50727000D01*
X68408032Y50727000D02*
X68447079Y50648904D01*
X68447079Y50648904D02*
X68486127Y50609857D01*
X68486127Y50609857D02*
X68564222Y50570809D01*
X76762713Y18524349D02*
X76801761Y18563397D01*
X76801761Y18563397D02*
X76840808Y18680539D01*
X76840808Y18680539D02*
X76840808Y18758635D01*
X76840808Y18758635D02*
X76801761Y18875778D01*
X76801761Y18875778D02*
X76723665Y18953873D01*
X76723665Y18953873D02*
X76645570Y18992920D01*
X76645570Y18992920D02*
X76489380Y19031968D01*
X76489380Y19031968D02*
X76372237Y19031968D01*
X76372237Y19031968D02*
X76216046Y18992920D01*
X76216046Y18992920D02*
X76137951Y18953873D01*
X76137951Y18953873D02*
X76059856Y18875778D01*
X76059856Y18875778D02*
X76020808Y18758635D01*
X76020808Y18758635D02*
X76020808Y18680539D01*
X76020808Y18680539D02*
X76059856Y18563397D01*
X76059856Y18563397D02*
X76098903Y18524349D01*
X76098903Y18211968D02*
X76059856Y18172920D01*
X76059856Y18172920D02*
X76020808Y18094825D01*
X76020808Y18094825D02*
X76020808Y17899587D01*
X76020808Y17899587D02*
X76059856Y17821492D01*
X76059856Y17821492D02*
X76098903Y17782444D01*
X76098903Y17782444D02*
X76176999Y17743397D01*
X76176999Y17743397D02*
X76255094Y17743397D01*
X76255094Y17743397D02*
X76372237Y17782444D01*
X76372237Y17782444D02*
X76840808Y18251016D01*
X76840808Y18251016D02*
X76840808Y17743397D01*
X76098903Y17431016D02*
X76059856Y17391968D01*
X76059856Y17391968D02*
X76020808Y17313873D01*
X76020808Y17313873D02*
X76020808Y17118635D01*
X76020808Y17118635D02*
X76059856Y17040540D01*
X76059856Y17040540D02*
X76098903Y17001492D01*
X76098903Y17001492D02*
X76176999Y16962445D01*
X76176999Y16962445D02*
X76255094Y16962445D01*
X76255094Y16962445D02*
X76372237Y17001492D01*
X76372237Y17001492D02*
X76840808Y17470064D01*
X76840808Y17470064D02*
X76840808Y16962445D01*
X69512713Y32274349D02*
X69551761Y32313397D01*
X69551761Y32313397D02*
X69590808Y32430539D01*
X69590808Y32430539D02*
X69590808Y32508635D01*
X69590808Y32508635D02*
X69551761Y32625778D01*
X69551761Y32625778D02*
X69473665Y32703873D01*
X69473665Y32703873D02*
X69395570Y32742920D01*
X69395570Y32742920D02*
X69239380Y32781968D01*
X69239380Y32781968D02*
X69122237Y32781968D01*
X69122237Y32781968D02*
X68966046Y32742920D01*
X68966046Y32742920D02*
X68887951Y32703873D01*
X68887951Y32703873D02*
X68809856Y32625778D01*
X68809856Y32625778D02*
X68770808Y32508635D01*
X68770808Y32508635D02*
X68770808Y32430539D01*
X68770808Y32430539D02*
X68809856Y32313397D01*
X68809856Y32313397D02*
X68848903Y32274349D01*
X68770808Y31571492D02*
X68770808Y31727682D01*
X68770808Y31727682D02*
X68809856Y31805778D01*
X68809856Y31805778D02*
X68848903Y31844825D01*
X68848903Y31844825D02*
X68966046Y31922920D01*
X68966046Y31922920D02*
X69122237Y31961968D01*
X69122237Y31961968D02*
X69434618Y31961968D01*
X69434618Y31961968D02*
X69512713Y31922920D01*
X69512713Y31922920D02*
X69551761Y31883873D01*
X69551761Y31883873D02*
X69590808Y31805778D01*
X69590808Y31805778D02*
X69590808Y31649587D01*
X69590808Y31649587D02*
X69551761Y31571492D01*
X69551761Y31571492D02*
X69512713Y31532444D01*
X69512713Y31532444D02*
X69434618Y31493397D01*
X69434618Y31493397D02*
X69239380Y31493397D01*
X69239380Y31493397D02*
X69161284Y31532444D01*
X69161284Y31532444D02*
X69122237Y31571492D01*
X69122237Y31571492D02*
X69083189Y31649587D01*
X69083189Y31649587D02*
X69083189Y31805778D01*
X69083189Y31805778D02*
X69122237Y31883873D01*
X69122237Y31883873D02*
X69161284Y31922920D01*
X69161284Y31922920D02*
X69239380Y31961968D01*
X75947285Y7185651D02*
X75908238Y7146603D01*
X75908238Y7146603D02*
X75869190Y7029461D01*
X75869190Y7029461D02*
X75869190Y6951365D01*
X75869190Y6951365D02*
X75908238Y6834222D01*
X75908238Y6834222D02*
X75986333Y6756127D01*
X75986333Y6756127D02*
X76064428Y6717080D01*
X76064428Y6717080D02*
X76220618Y6678032D01*
X76220618Y6678032D02*
X76337761Y6678032D01*
X76337761Y6678032D02*
X76493952Y6717080D01*
X76493952Y6717080D02*
X76572047Y6756127D01*
X76572047Y6756127D02*
X76650142Y6834222D01*
X76650142Y6834222D02*
X76689190Y6951365D01*
X76689190Y6951365D02*
X76689190Y7029461D01*
X76689190Y7029461D02*
X76650142Y7146603D01*
X76650142Y7146603D02*
X76611095Y7185651D01*
X75869190Y7966603D02*
X75869190Y7498032D01*
X75869190Y7732318D02*
X76689190Y7732318D01*
X76689190Y7732318D02*
X76572047Y7654222D01*
X76572047Y7654222D02*
X76493952Y7576127D01*
X76493952Y7576127D02*
X76454904Y7498032D01*
X76689190Y8708508D02*
X76689190Y8318032D01*
X76689190Y8318032D02*
X76298714Y8278984D01*
X76298714Y8278984D02*
X76337761Y8318032D01*
X76337761Y8318032D02*
X76376809Y8396127D01*
X76376809Y8396127D02*
X76376809Y8591365D01*
X76376809Y8591365D02*
X76337761Y8669460D01*
X76337761Y8669460D02*
X76298714Y8708508D01*
X76298714Y8708508D02*
X76220618Y8747555D01*
X76220618Y8747555D02*
X76025380Y8747555D01*
X76025380Y8747555D02*
X75947285Y8708508D01*
X75947285Y8708508D02*
X75908238Y8669460D01*
X75908238Y8669460D02*
X75869190Y8591365D01*
X75869190Y8591365D02*
X75869190Y8396127D01*
X75869190Y8396127D02*
X75908238Y8318032D01*
X75908238Y8318032D02*
X75947285Y8278984D01*
X72262713Y18524349D02*
X72301761Y18563397D01*
X72301761Y18563397D02*
X72340808Y18680539D01*
X72340808Y18680539D02*
X72340808Y18758635D01*
X72340808Y18758635D02*
X72301761Y18875778D01*
X72301761Y18875778D02*
X72223665Y18953873D01*
X72223665Y18953873D02*
X72145570Y18992920D01*
X72145570Y18992920D02*
X71989380Y19031968D01*
X71989380Y19031968D02*
X71872237Y19031968D01*
X71872237Y19031968D02*
X71716046Y18992920D01*
X71716046Y18992920D02*
X71637951Y18953873D01*
X71637951Y18953873D02*
X71559856Y18875778D01*
X71559856Y18875778D02*
X71520808Y18758635D01*
X71520808Y18758635D02*
X71520808Y18680539D01*
X71520808Y18680539D02*
X71559856Y18563397D01*
X71559856Y18563397D02*
X71598903Y18524349D01*
X71598903Y18211968D02*
X71559856Y18172920D01*
X71559856Y18172920D02*
X71520808Y18094825D01*
X71520808Y18094825D02*
X71520808Y17899587D01*
X71520808Y17899587D02*
X71559856Y17821492D01*
X71559856Y17821492D02*
X71598903Y17782444D01*
X71598903Y17782444D02*
X71676999Y17743397D01*
X71676999Y17743397D02*
X71755094Y17743397D01*
X71755094Y17743397D02*
X71872237Y17782444D01*
X71872237Y17782444D02*
X72340808Y18251016D01*
X72340808Y18251016D02*
X72340808Y17743397D01*
X71520808Y17235778D02*
X71520808Y17157683D01*
X71520808Y17157683D02*
X71559856Y17079587D01*
X71559856Y17079587D02*
X71598903Y17040540D01*
X71598903Y17040540D02*
X71676999Y17001492D01*
X71676999Y17001492D02*
X71833189Y16962445D01*
X71833189Y16962445D02*
X72028427Y16962445D01*
X72028427Y16962445D02*
X72184618Y17001492D01*
X72184618Y17001492D02*
X72262713Y17040540D01*
X72262713Y17040540D02*
X72301761Y17079587D01*
X72301761Y17079587D02*
X72340808Y17157683D01*
X72340808Y17157683D02*
X72340808Y17235778D01*
X72340808Y17235778D02*
X72301761Y17313873D01*
X72301761Y17313873D02*
X72262713Y17352921D01*
X72262713Y17352921D02*
X72184618Y17391968D01*
X72184618Y17391968D02*
X72028427Y17431016D01*
X72028427Y17431016D02*
X71833189Y17431016D01*
X71833189Y17431016D02*
X71676999Y17391968D01*
X71676999Y17391968D02*
X71598903Y17352921D01*
X71598903Y17352921D02*
X71559856Y17313873D01*
X71559856Y17313873D02*
X71520808Y17235778D01*
X78762713Y18524349D02*
X78801761Y18563397D01*
X78801761Y18563397D02*
X78840808Y18680539D01*
X78840808Y18680539D02*
X78840808Y18758635D01*
X78840808Y18758635D02*
X78801761Y18875778D01*
X78801761Y18875778D02*
X78723665Y18953873D01*
X78723665Y18953873D02*
X78645570Y18992920D01*
X78645570Y18992920D02*
X78489380Y19031968D01*
X78489380Y19031968D02*
X78372237Y19031968D01*
X78372237Y19031968D02*
X78216046Y18992920D01*
X78216046Y18992920D02*
X78137951Y18953873D01*
X78137951Y18953873D02*
X78059856Y18875778D01*
X78059856Y18875778D02*
X78020808Y18758635D01*
X78020808Y18758635D02*
X78020808Y18680539D01*
X78020808Y18680539D02*
X78059856Y18563397D01*
X78059856Y18563397D02*
X78098903Y18524349D01*
X78098903Y18211968D02*
X78059856Y18172920D01*
X78059856Y18172920D02*
X78020808Y18094825D01*
X78020808Y18094825D02*
X78020808Y17899587D01*
X78020808Y17899587D02*
X78059856Y17821492D01*
X78059856Y17821492D02*
X78098903Y17782444D01*
X78098903Y17782444D02*
X78176999Y17743397D01*
X78176999Y17743397D02*
X78255094Y17743397D01*
X78255094Y17743397D02*
X78372237Y17782444D01*
X78372237Y17782444D02*
X78840808Y18251016D01*
X78840808Y18251016D02*
X78840808Y17743397D01*
X78020808Y17470064D02*
X78020808Y16962445D01*
X78020808Y16962445D02*
X78333189Y17235778D01*
X78333189Y17235778D02*
X78333189Y17118635D01*
X78333189Y17118635D02*
X78372237Y17040540D01*
X78372237Y17040540D02*
X78411284Y17001492D01*
X78411284Y17001492D02*
X78489380Y16962445D01*
X78489380Y16962445D02*
X78684618Y16962445D01*
X78684618Y16962445D02*
X78762713Y17001492D01*
X78762713Y17001492D02*
X78801761Y17040540D01*
X78801761Y17040540D02*
X78840808Y17118635D01*
X78840808Y17118635D02*
X78840808Y17352921D01*
X78840808Y17352921D02*
X78801761Y17431016D01*
X78801761Y17431016D02*
X78762713Y17470064D01*
D12*
X74261904Y36645181D02*
X74261904Y35835658D01*
X74261904Y35835658D02*
X74214285Y35740420D01*
X74214285Y35740420D02*
X74166666Y35692800D01*
X74166666Y35692800D02*
X74071428Y35645181D01*
X74071428Y35645181D02*
X73880952Y35645181D01*
X73880952Y35645181D02*
X73785714Y35692800D01*
X73785714Y35692800D02*
X73738095Y35740420D01*
X73738095Y35740420D02*
X73690476Y35835658D01*
X73690476Y35835658D02*
X73690476Y36645181D01*
X72785714Y36645181D02*
X72976190Y36645181D01*
X72976190Y36645181D02*
X73071428Y36597562D01*
X73071428Y36597562D02*
X73119047Y36549943D01*
X73119047Y36549943D02*
X73214285Y36407086D01*
X73214285Y36407086D02*
X73261904Y36216610D01*
X73261904Y36216610D02*
X73261904Y35835658D01*
X73261904Y35835658D02*
X73214285Y35740420D01*
X73214285Y35740420D02*
X73166666Y35692800D01*
X73166666Y35692800D02*
X73071428Y35645181D01*
X73071428Y35645181D02*
X72880952Y35645181D01*
X72880952Y35645181D02*
X72785714Y35692800D01*
X72785714Y35692800D02*
X72738095Y35740420D01*
X72738095Y35740420D02*
X72690476Y35835658D01*
X72690476Y35835658D02*
X72690476Y36073753D01*
X72690476Y36073753D02*
X72738095Y36168991D01*
X72738095Y36168991D02*
X72785714Y36216610D01*
X72785714Y36216610D02*
X72880952Y36264229D01*
X72880952Y36264229D02*
X73071428Y36264229D01*
X73071428Y36264229D02*
X73166666Y36216610D01*
X73166666Y36216610D02*
X73214285Y36168991D01*
X73214285Y36168991D02*
X73261904Y36073753D01*
D11*
X60724348Y55609192D02*
X60997681Y55999668D01*
X61192919Y55609192D02*
X61192919Y56429192D01*
X61192919Y56429192D02*
X60880538Y56429192D01*
X60880538Y56429192D02*
X60802443Y56390144D01*
X60802443Y56390144D02*
X60763396Y56351097D01*
X60763396Y56351097D02*
X60724348Y56273001D01*
X60724348Y56273001D02*
X60724348Y56155859D01*
X60724348Y56155859D02*
X60763396Y56077763D01*
X60763396Y56077763D02*
X60802443Y56038716D01*
X60802443Y56038716D02*
X60880538Y55999668D01*
X60880538Y55999668D02*
X61192919Y55999668D01*
X60411967Y56351097D02*
X60372919Y56390144D01*
X60372919Y56390144D02*
X60294824Y56429192D01*
X60294824Y56429192D02*
X60099586Y56429192D01*
X60099586Y56429192D02*
X60021491Y56390144D01*
X60021491Y56390144D02*
X59982443Y56351097D01*
X59982443Y56351097D02*
X59943396Y56273001D01*
X59943396Y56273001D02*
X59943396Y56194906D01*
X59943396Y56194906D02*
X59982443Y56077763D01*
X59982443Y56077763D02*
X60451015Y55609192D01*
X60451015Y55609192D02*
X59943396Y55609192D01*
X59552920Y55609192D02*
X59396729Y55609192D01*
X59396729Y55609192D02*
X59318634Y55648239D01*
X59318634Y55648239D02*
X59279586Y55687287D01*
X59279586Y55687287D02*
X59201491Y55804430D01*
X59201491Y55804430D02*
X59162444Y55960620D01*
X59162444Y55960620D02*
X59162444Y56273001D01*
X59162444Y56273001D02*
X59201491Y56351097D01*
X59201491Y56351097D02*
X59240539Y56390144D01*
X59240539Y56390144D02*
X59318634Y56429192D01*
X59318634Y56429192D02*
X59474825Y56429192D01*
X59474825Y56429192D02*
X59552920Y56390144D01*
X59552920Y56390144D02*
X59591967Y56351097D01*
X59591967Y56351097D02*
X59631015Y56273001D01*
X59631015Y56273001D02*
X59631015Y56077763D01*
X59631015Y56077763D02*
X59591967Y55999668D01*
X59591967Y55999668D02*
X59552920Y55960620D01*
X59552920Y55960620D02*
X59474825Y55921573D01*
X59474825Y55921573D02*
X59318634Y55921573D01*
X59318634Y55921573D02*
X59240539Y55960620D01*
X59240539Y55960620D02*
X59201491Y55999668D01*
X59201491Y55999668D02*
X59162444Y56077763D01*
X84605237Y47629492D02*
X84605237Y48449492D01*
X84605237Y48449492D02*
X84409999Y48449492D01*
X84409999Y48449492D02*
X84292856Y48410444D01*
X84292856Y48410444D02*
X84214761Y48332349D01*
X84214761Y48332349D02*
X84175714Y48254254D01*
X84175714Y48254254D02*
X84136666Y48098063D01*
X84136666Y48098063D02*
X84136666Y47980920D01*
X84136666Y47980920D02*
X84175714Y47824730D01*
X84175714Y47824730D02*
X84214761Y47746635D01*
X84214761Y47746635D02*
X84292856Y47668539D01*
X84292856Y47668539D02*
X84409999Y47629492D01*
X84409999Y47629492D02*
X84605237Y47629492D01*
X83394761Y48449492D02*
X83785237Y48449492D01*
X83785237Y48449492D02*
X83824285Y48059016D01*
X83824285Y48059016D02*
X83785237Y48098063D01*
X83785237Y48098063D02*
X83707142Y48137111D01*
X83707142Y48137111D02*
X83511904Y48137111D01*
X83511904Y48137111D02*
X83433809Y48098063D01*
X83433809Y48098063D02*
X83394761Y48059016D01*
X83394761Y48059016D02*
X83355714Y47980920D01*
X83355714Y47980920D02*
X83355714Y47785682D01*
X83355714Y47785682D02*
X83394761Y47707587D01*
X83394761Y47707587D02*
X83433809Y47668539D01*
X83433809Y47668539D02*
X83511904Y47629492D01*
X83511904Y47629492D02*
X83707142Y47629492D01*
X83707142Y47629492D02*
X83785237Y47668539D01*
X83785237Y47668539D02*
X83824285Y47707587D01*
X71237286Y22225652D02*
X71198239Y22186604D01*
X71198239Y22186604D02*
X71159191Y22069462D01*
X71159191Y22069462D02*
X71159191Y21991366D01*
X71159191Y21991366D02*
X71198239Y21874223D01*
X71198239Y21874223D02*
X71276334Y21796128D01*
X71276334Y21796128D02*
X71354429Y21757081D01*
X71354429Y21757081D02*
X71510619Y21718033D01*
X71510619Y21718033D02*
X71627762Y21718033D01*
X71627762Y21718033D02*
X71783953Y21757081D01*
X71783953Y21757081D02*
X71862048Y21796128D01*
X71862048Y21796128D02*
X71940143Y21874223D01*
X71940143Y21874223D02*
X71979191Y21991366D01*
X71979191Y21991366D02*
X71979191Y22069462D01*
X71979191Y22069462D02*
X71940143Y22186604D01*
X71940143Y22186604D02*
X71901096Y22225652D01*
X71705858Y22928509D02*
X71159191Y22928509D01*
X72018239Y22733271D02*
X71432524Y22538033D01*
X71432524Y22538033D02*
X71432524Y23045652D01*
X69447285Y7185651D02*
X69408238Y7146603D01*
X69408238Y7146603D02*
X69369190Y7029461D01*
X69369190Y7029461D02*
X69369190Y6951365D01*
X69369190Y6951365D02*
X69408238Y6834222D01*
X69408238Y6834222D02*
X69486333Y6756127D01*
X69486333Y6756127D02*
X69564428Y6717080D01*
X69564428Y6717080D02*
X69720618Y6678032D01*
X69720618Y6678032D02*
X69837761Y6678032D01*
X69837761Y6678032D02*
X69993952Y6717080D01*
X69993952Y6717080D02*
X70072047Y6756127D01*
X70072047Y6756127D02*
X70150142Y6834222D01*
X70150142Y6834222D02*
X70189190Y6951365D01*
X70189190Y6951365D02*
X70189190Y7029461D01*
X70189190Y7029461D02*
X70150142Y7146603D01*
X70150142Y7146603D02*
X70111095Y7185651D01*
X69369190Y7966603D02*
X69369190Y7498032D01*
X69369190Y7732318D02*
X70189190Y7732318D01*
X70189190Y7732318D02*
X70072047Y7654222D01*
X70072047Y7654222D02*
X69993952Y7576127D01*
X69993952Y7576127D02*
X69954904Y7498032D01*
X69837761Y8435174D02*
X69876809Y8357079D01*
X69876809Y8357079D02*
X69915857Y8318032D01*
X69915857Y8318032D02*
X69993952Y8278984D01*
X69993952Y8278984D02*
X70032999Y8278984D01*
X70032999Y8278984D02*
X70111095Y8318032D01*
X70111095Y8318032D02*
X70150142Y8357079D01*
X70150142Y8357079D02*
X70189190Y8435174D01*
X70189190Y8435174D02*
X70189190Y8591365D01*
X70189190Y8591365D02*
X70150142Y8669460D01*
X70150142Y8669460D02*
X70111095Y8708508D01*
X70111095Y8708508D02*
X70032999Y8747555D01*
X70032999Y8747555D02*
X69993952Y8747555D01*
X69993952Y8747555D02*
X69915857Y8708508D01*
X69915857Y8708508D02*
X69876809Y8669460D01*
X69876809Y8669460D02*
X69837761Y8591365D01*
X69837761Y8591365D02*
X69837761Y8435174D01*
X69837761Y8435174D02*
X69798714Y8357079D01*
X69798714Y8357079D02*
X69759666Y8318032D01*
X69759666Y8318032D02*
X69681571Y8278984D01*
X69681571Y8278984D02*
X69525380Y8278984D01*
X69525380Y8278984D02*
X69447285Y8318032D01*
X69447285Y8318032D02*
X69408238Y8357079D01*
X69408238Y8357079D02*
X69369190Y8435174D01*
X69369190Y8435174D02*
X69369190Y8591365D01*
X69369190Y8591365D02*
X69408238Y8669460D01*
X69408238Y8669460D02*
X69447285Y8708508D01*
X69447285Y8708508D02*
X69525380Y8747555D01*
X69525380Y8747555D02*
X69681571Y8747555D01*
X69681571Y8747555D02*
X69759666Y8708508D01*
X69759666Y8708508D02*
X69798714Y8669460D01*
X69798714Y8669460D02*
X69837761Y8591365D01*
X60724348Y52609192D02*
X60997681Y52999668D01*
X61192919Y52609192D02*
X61192919Y53429192D01*
X61192919Y53429192D02*
X60880538Y53429192D01*
X60880538Y53429192D02*
X60802443Y53390144D01*
X60802443Y53390144D02*
X60763396Y53351097D01*
X60763396Y53351097D02*
X60724348Y53273001D01*
X60724348Y53273001D02*
X60724348Y53155859D01*
X60724348Y53155859D02*
X60763396Y53077763D01*
X60763396Y53077763D02*
X60802443Y53038716D01*
X60802443Y53038716D02*
X60880538Y52999668D01*
X60880538Y52999668D02*
X61192919Y52999668D01*
X60451015Y53429192D02*
X59943396Y53429192D01*
X59943396Y53429192D02*
X60216729Y53116811D01*
X60216729Y53116811D02*
X60099586Y53116811D01*
X60099586Y53116811D02*
X60021491Y53077763D01*
X60021491Y53077763D02*
X59982443Y53038716D01*
X59982443Y53038716D02*
X59943396Y52960620D01*
X59943396Y52960620D02*
X59943396Y52765382D01*
X59943396Y52765382D02*
X59982443Y52687287D01*
X59982443Y52687287D02*
X60021491Y52648239D01*
X60021491Y52648239D02*
X60099586Y52609192D01*
X60099586Y52609192D02*
X60333872Y52609192D01*
X60333872Y52609192D02*
X60411967Y52648239D01*
X60411967Y52648239D02*
X60451015Y52687287D01*
X59162444Y52609192D02*
X59631015Y52609192D01*
X59396729Y52609192D02*
X59396729Y53429192D01*
X59396729Y53429192D02*
X59474825Y53312049D01*
X59474825Y53312049D02*
X59552920Y53233954D01*
X59552920Y53233954D02*
X59631015Y53194906D01*
X84605237Y44629492D02*
X84605237Y45449492D01*
X84605237Y45449492D02*
X84409999Y45449492D01*
X84409999Y45449492D02*
X84292856Y45410444D01*
X84292856Y45410444D02*
X84214761Y45332349D01*
X84214761Y45332349D02*
X84175714Y45254254D01*
X84175714Y45254254D02*
X84136666Y45098063D01*
X84136666Y45098063D02*
X84136666Y44980920D01*
X84136666Y44980920D02*
X84175714Y44824730D01*
X84175714Y44824730D02*
X84214761Y44746635D01*
X84214761Y44746635D02*
X84292856Y44668539D01*
X84292856Y44668539D02*
X84409999Y44629492D01*
X84409999Y44629492D02*
X84605237Y44629492D01*
X83433809Y45176159D02*
X83433809Y44629492D01*
X83629047Y45488539D02*
X83824285Y44902825D01*
X83824285Y44902825D02*
X83316666Y44902825D01*
X74012713Y32274349D02*
X74051761Y32313397D01*
X74051761Y32313397D02*
X74090808Y32430539D01*
X74090808Y32430539D02*
X74090808Y32508635D01*
X74090808Y32508635D02*
X74051761Y32625778D01*
X74051761Y32625778D02*
X73973665Y32703873D01*
X73973665Y32703873D02*
X73895570Y32742920D01*
X73895570Y32742920D02*
X73739380Y32781968D01*
X73739380Y32781968D02*
X73622237Y32781968D01*
X73622237Y32781968D02*
X73466046Y32742920D01*
X73466046Y32742920D02*
X73387951Y32703873D01*
X73387951Y32703873D02*
X73309856Y32625778D01*
X73309856Y32625778D02*
X73270808Y32508635D01*
X73270808Y32508635D02*
X73270808Y32430539D01*
X73270808Y32430539D02*
X73309856Y32313397D01*
X73309856Y32313397D02*
X73348903Y32274349D01*
X73622237Y31805778D02*
X73583189Y31883873D01*
X73583189Y31883873D02*
X73544141Y31922920D01*
X73544141Y31922920D02*
X73466046Y31961968D01*
X73466046Y31961968D02*
X73426999Y31961968D01*
X73426999Y31961968D02*
X73348903Y31922920D01*
X73348903Y31922920D02*
X73309856Y31883873D01*
X73309856Y31883873D02*
X73270808Y31805778D01*
X73270808Y31805778D02*
X73270808Y31649587D01*
X73270808Y31649587D02*
X73309856Y31571492D01*
X73309856Y31571492D02*
X73348903Y31532444D01*
X73348903Y31532444D02*
X73426999Y31493397D01*
X73426999Y31493397D02*
X73466046Y31493397D01*
X73466046Y31493397D02*
X73544141Y31532444D01*
X73544141Y31532444D02*
X73583189Y31571492D01*
X73583189Y31571492D02*
X73622237Y31649587D01*
X73622237Y31649587D02*
X73622237Y31805778D01*
X73622237Y31805778D02*
X73661284Y31883873D01*
X73661284Y31883873D02*
X73700332Y31922920D01*
X73700332Y31922920D02*
X73778427Y31961968D01*
X73778427Y31961968D02*
X73934618Y31961968D01*
X73934618Y31961968D02*
X74012713Y31922920D01*
X74012713Y31922920D02*
X74051761Y31883873D01*
X74051761Y31883873D02*
X74090808Y31805778D01*
X74090808Y31805778D02*
X74090808Y31649587D01*
X74090808Y31649587D02*
X74051761Y31571492D01*
X74051761Y31571492D02*
X74012713Y31532444D01*
X74012713Y31532444D02*
X73934618Y31493397D01*
X73934618Y31493397D02*
X73778427Y31493397D01*
X73778427Y31493397D02*
X73700332Y31532444D01*
X73700332Y31532444D02*
X73661284Y31571492D01*
X73661284Y31571492D02*
X73622237Y31649587D01*
D12*
X74261904Y51045181D02*
X74261904Y50235658D01*
X74261904Y50235658D02*
X74214285Y50140420D01*
X74214285Y50140420D02*
X74166666Y50092800D01*
X74166666Y50092800D02*
X74071428Y50045181D01*
X74071428Y50045181D02*
X73880952Y50045181D01*
X73880952Y50045181D02*
X73785714Y50092800D01*
X73785714Y50092800D02*
X73738095Y50140420D01*
X73738095Y50140420D02*
X73690476Y50235658D01*
X73690476Y50235658D02*
X73690476Y51045181D01*
X73309523Y51045181D02*
X72642857Y51045181D01*
X72642857Y51045181D02*
X73071428Y50045181D01*
D11*
X76012713Y32274349D02*
X76051761Y32313397D01*
X76051761Y32313397D02*
X76090808Y32430539D01*
X76090808Y32430539D02*
X76090808Y32508635D01*
X76090808Y32508635D02*
X76051761Y32625778D01*
X76051761Y32625778D02*
X75973665Y32703873D01*
X75973665Y32703873D02*
X75895570Y32742920D01*
X75895570Y32742920D02*
X75739380Y32781968D01*
X75739380Y32781968D02*
X75622237Y32781968D01*
X75622237Y32781968D02*
X75466046Y32742920D01*
X75466046Y32742920D02*
X75387951Y32703873D01*
X75387951Y32703873D02*
X75309856Y32625778D01*
X75309856Y32625778D02*
X75270808Y32508635D01*
X75270808Y32508635D02*
X75270808Y32430539D01*
X75270808Y32430539D02*
X75309856Y32313397D01*
X75309856Y32313397D02*
X75348903Y32274349D01*
X76090808Y31883873D02*
X76090808Y31727682D01*
X76090808Y31727682D02*
X76051761Y31649587D01*
X76051761Y31649587D02*
X76012713Y31610539D01*
X76012713Y31610539D02*
X75895570Y31532444D01*
X75895570Y31532444D02*
X75739380Y31493397D01*
X75739380Y31493397D02*
X75426999Y31493397D01*
X75426999Y31493397D02*
X75348903Y31532444D01*
X75348903Y31532444D02*
X75309856Y31571492D01*
X75309856Y31571492D02*
X75270808Y31649587D01*
X75270808Y31649587D02*
X75270808Y31805778D01*
X75270808Y31805778D02*
X75309856Y31883873D01*
X75309856Y31883873D02*
X75348903Y31922920D01*
X75348903Y31922920D02*
X75426999Y31961968D01*
X75426999Y31961968D02*
X75622237Y31961968D01*
X75622237Y31961968D02*
X75700332Y31922920D01*
X75700332Y31922920D02*
X75739380Y31883873D01*
X75739380Y31883873D02*
X75778427Y31805778D01*
X75778427Y31805778D02*
X75778427Y31649587D01*
X75778427Y31649587D02*
X75739380Y31571492D01*
X75739380Y31571492D02*
X75700332Y31532444D01*
X75700332Y31532444D02*
X75622237Y31493397D01*
X60724348Y54109192D02*
X60997681Y54499668D01*
X61192919Y54109192D02*
X61192919Y54929192D01*
X61192919Y54929192D02*
X60880538Y54929192D01*
X60880538Y54929192D02*
X60802443Y54890144D01*
X60802443Y54890144D02*
X60763396Y54851097D01*
X60763396Y54851097D02*
X60724348Y54773001D01*
X60724348Y54773001D02*
X60724348Y54655859D01*
X60724348Y54655859D02*
X60763396Y54577763D01*
X60763396Y54577763D02*
X60802443Y54538716D01*
X60802443Y54538716D02*
X60880538Y54499668D01*
X60880538Y54499668D02*
X61192919Y54499668D01*
X60451015Y54929192D02*
X59943396Y54929192D01*
X59943396Y54929192D02*
X60216729Y54616811D01*
X60216729Y54616811D02*
X60099586Y54616811D01*
X60099586Y54616811D02*
X60021491Y54577763D01*
X60021491Y54577763D02*
X59982443Y54538716D01*
X59982443Y54538716D02*
X59943396Y54460620D01*
X59943396Y54460620D02*
X59943396Y54265382D01*
X59943396Y54265382D02*
X59982443Y54187287D01*
X59982443Y54187287D02*
X60021491Y54148239D01*
X60021491Y54148239D02*
X60099586Y54109192D01*
X60099586Y54109192D02*
X60333872Y54109192D01*
X60333872Y54109192D02*
X60411967Y54148239D01*
X60411967Y54148239D02*
X60451015Y54187287D01*
X59435777Y54929192D02*
X59357682Y54929192D01*
X59357682Y54929192D02*
X59279586Y54890144D01*
X59279586Y54890144D02*
X59240539Y54851097D01*
X59240539Y54851097D02*
X59201491Y54773001D01*
X59201491Y54773001D02*
X59162444Y54616811D01*
X59162444Y54616811D02*
X59162444Y54421573D01*
X59162444Y54421573D02*
X59201491Y54265382D01*
X59201491Y54265382D02*
X59240539Y54187287D01*
X59240539Y54187287D02*
X59279586Y54148239D01*
X59279586Y54148239D02*
X59357682Y54109192D01*
X59357682Y54109192D02*
X59435777Y54109192D01*
X59435777Y54109192D02*
X59513872Y54148239D01*
X59513872Y54148239D02*
X59552920Y54187287D01*
X59552920Y54187287D02*
X59591967Y54265382D01*
X59591967Y54265382D02*
X59631015Y54421573D01*
X59631015Y54421573D02*
X59631015Y54616811D01*
X59631015Y54616811D02*
X59591967Y54773001D01*
X59591967Y54773001D02*
X59552920Y54851097D01*
X59552920Y54851097D02*
X59513872Y54890144D01*
X59513872Y54890144D02*
X59435777Y54929192D01*
X68724348Y38609192D02*
X68997681Y38999668D01*
X69192919Y38609192D02*
X69192919Y39429192D01*
X69192919Y39429192D02*
X68880538Y39429192D01*
X68880538Y39429192D02*
X68802443Y39390144D01*
X68802443Y39390144D02*
X68763396Y39351097D01*
X68763396Y39351097D02*
X68724348Y39273001D01*
X68724348Y39273001D02*
X68724348Y39155859D01*
X68724348Y39155859D02*
X68763396Y39077763D01*
X68763396Y39077763D02*
X68802443Y39038716D01*
X68802443Y39038716D02*
X68880538Y38999668D01*
X68880538Y38999668D02*
X69192919Y38999668D01*
X67943396Y38609192D02*
X68411967Y38609192D01*
X68177681Y38609192D02*
X68177681Y39429192D01*
X68177681Y39429192D02*
X68255777Y39312049D01*
X68255777Y39312049D02*
X68333872Y39233954D01*
X68333872Y39233954D02*
X68411967Y39194906D01*
X67201491Y39429192D02*
X67591967Y39429192D01*
X67591967Y39429192D02*
X67631015Y39038716D01*
X67631015Y39038716D02*
X67591967Y39077763D01*
X67591967Y39077763D02*
X67513872Y39116811D01*
X67513872Y39116811D02*
X67318634Y39116811D01*
X67318634Y39116811D02*
X67240539Y39077763D01*
X67240539Y39077763D02*
X67201491Y39038716D01*
X67201491Y39038716D02*
X67162444Y38960620D01*
X67162444Y38960620D02*
X67162444Y38765382D01*
X67162444Y38765382D02*
X67201491Y38687287D01*
X67201491Y38687287D02*
X67240539Y38648239D01*
X67240539Y38648239D02*
X67318634Y38609192D01*
X67318634Y38609192D02*
X67513872Y38609192D01*
X67513872Y38609192D02*
X67591967Y38648239D01*
X67591967Y38648239D02*
X67631015Y38687287D01*
X67275651Y54890809D02*
X67002318Y54500333D01*
X66807080Y54890809D02*
X66807080Y54070809D01*
X66807080Y54070809D02*
X67119461Y54070809D01*
X67119461Y54070809D02*
X67197556Y54109857D01*
X67197556Y54109857D02*
X67236603Y54148904D01*
X67236603Y54148904D02*
X67275651Y54227000D01*
X67275651Y54227000D02*
X67275651Y54344142D01*
X67275651Y54344142D02*
X67236603Y54422238D01*
X67236603Y54422238D02*
X67197556Y54461285D01*
X67197556Y54461285D02*
X67119461Y54500333D01*
X67119461Y54500333D02*
X66807080Y54500333D01*
X68056603Y54890809D02*
X67588032Y54890809D01*
X67822318Y54890809D02*
X67822318Y54070809D01*
X67822318Y54070809D02*
X67744222Y54187952D01*
X67744222Y54187952D02*
X67666127Y54266047D01*
X67666127Y54266047D02*
X67588032Y54305095D01*
X68837555Y54890809D02*
X68368984Y54890809D01*
X68603270Y54890809D02*
X68603270Y54070809D01*
X68603270Y54070809D02*
X68525174Y54187952D01*
X68525174Y54187952D02*
X68447079Y54266047D01*
X68447079Y54266047D02*
X68368984Y54305095D01*
X72012713Y32274349D02*
X72051761Y32313397D01*
X72051761Y32313397D02*
X72090808Y32430539D01*
X72090808Y32430539D02*
X72090808Y32508635D01*
X72090808Y32508635D02*
X72051761Y32625778D01*
X72051761Y32625778D02*
X71973665Y32703873D01*
X71973665Y32703873D02*
X71895570Y32742920D01*
X71895570Y32742920D02*
X71739380Y32781968D01*
X71739380Y32781968D02*
X71622237Y32781968D01*
X71622237Y32781968D02*
X71466046Y32742920D01*
X71466046Y32742920D02*
X71387951Y32703873D01*
X71387951Y32703873D02*
X71309856Y32625778D01*
X71309856Y32625778D02*
X71270808Y32508635D01*
X71270808Y32508635D02*
X71270808Y32430539D01*
X71270808Y32430539D02*
X71309856Y32313397D01*
X71309856Y32313397D02*
X71348903Y32274349D01*
X71270808Y32001016D02*
X71270808Y31454349D01*
X71270808Y31454349D02*
X72090808Y31805778D01*
X60724348Y48109192D02*
X60997681Y48499668D01*
X61192919Y48109192D02*
X61192919Y48929192D01*
X61192919Y48929192D02*
X60880538Y48929192D01*
X60880538Y48929192D02*
X60802443Y48890144D01*
X60802443Y48890144D02*
X60763396Y48851097D01*
X60763396Y48851097D02*
X60724348Y48773001D01*
X60724348Y48773001D02*
X60724348Y48655859D01*
X60724348Y48655859D02*
X60763396Y48577763D01*
X60763396Y48577763D02*
X60802443Y48538716D01*
X60802443Y48538716D02*
X60880538Y48499668D01*
X60880538Y48499668D02*
X61192919Y48499668D01*
X60451015Y48929192D02*
X59943396Y48929192D01*
X59943396Y48929192D02*
X60216729Y48616811D01*
X60216729Y48616811D02*
X60099586Y48616811D01*
X60099586Y48616811D02*
X60021491Y48577763D01*
X60021491Y48577763D02*
X59982443Y48538716D01*
X59982443Y48538716D02*
X59943396Y48460620D01*
X59943396Y48460620D02*
X59943396Y48265382D01*
X59943396Y48265382D02*
X59982443Y48187287D01*
X59982443Y48187287D02*
X60021491Y48148239D01*
X60021491Y48148239D02*
X60099586Y48109192D01*
X60099586Y48109192D02*
X60333872Y48109192D01*
X60333872Y48109192D02*
X60411967Y48148239D01*
X60411967Y48148239D02*
X60451015Y48187287D01*
X59240539Y48655859D02*
X59240539Y48109192D01*
X59435777Y48968239D02*
X59631015Y48382525D01*
X59631015Y48382525D02*
X59123396Y48382525D01*
X68737286Y22225652D02*
X68698239Y22186604D01*
X68698239Y22186604D02*
X68659191Y22069462D01*
X68659191Y22069462D02*
X68659191Y21991366D01*
X68659191Y21991366D02*
X68698239Y21874223D01*
X68698239Y21874223D02*
X68776334Y21796128D01*
X68776334Y21796128D02*
X68854429Y21757081D01*
X68854429Y21757081D02*
X69010619Y21718033D01*
X69010619Y21718033D02*
X69127762Y21718033D01*
X69127762Y21718033D02*
X69283953Y21757081D01*
X69283953Y21757081D02*
X69362048Y21796128D01*
X69362048Y21796128D02*
X69440143Y21874223D01*
X69440143Y21874223D02*
X69479191Y21991366D01*
X69479191Y21991366D02*
X69479191Y22069462D01*
X69479191Y22069462D02*
X69440143Y22186604D01*
X69440143Y22186604D02*
X69401096Y22225652D01*
X69479191Y22967557D02*
X69479191Y22577081D01*
X69479191Y22577081D02*
X69088715Y22538033D01*
X69088715Y22538033D02*
X69127762Y22577081D01*
X69127762Y22577081D02*
X69166810Y22655176D01*
X69166810Y22655176D02*
X69166810Y22850414D01*
X69166810Y22850414D02*
X69127762Y22928509D01*
X69127762Y22928509D02*
X69088715Y22967557D01*
X69088715Y22967557D02*
X69010619Y23006604D01*
X69010619Y23006604D02*
X68815381Y23006604D01*
X68815381Y23006604D02*
X68737286Y22967557D01*
X68737286Y22967557D02*
X68698239Y22928509D01*
X68698239Y22928509D02*
X68659191Y22850414D01*
X68659191Y22850414D02*
X68659191Y22655176D01*
X68659191Y22655176D02*
X68698239Y22577081D01*
X68698239Y22577081D02*
X68737286Y22538033D01*
X68724348Y41609192D02*
X68997681Y41999668D01*
X69192919Y41609192D02*
X69192919Y42429192D01*
X69192919Y42429192D02*
X68880538Y42429192D01*
X68880538Y42429192D02*
X68802443Y42390144D01*
X68802443Y42390144D02*
X68763396Y42351097D01*
X68763396Y42351097D02*
X68724348Y42273001D01*
X68724348Y42273001D02*
X68724348Y42155859D01*
X68724348Y42155859D02*
X68763396Y42077763D01*
X68763396Y42077763D02*
X68802443Y42038716D01*
X68802443Y42038716D02*
X68880538Y41999668D01*
X68880538Y41999668D02*
X69192919Y41999668D01*
X67943396Y41609192D02*
X68411967Y41609192D01*
X68177681Y41609192D02*
X68177681Y42429192D01*
X68177681Y42429192D02*
X68255777Y42312049D01*
X68255777Y42312049D02*
X68333872Y42233954D01*
X68333872Y42233954D02*
X68411967Y42194906D01*
X67240539Y42429192D02*
X67396729Y42429192D01*
X67396729Y42429192D02*
X67474825Y42390144D01*
X67474825Y42390144D02*
X67513872Y42351097D01*
X67513872Y42351097D02*
X67591967Y42233954D01*
X67591967Y42233954D02*
X67631015Y42077763D01*
X67631015Y42077763D02*
X67631015Y41765382D01*
X67631015Y41765382D02*
X67591967Y41687287D01*
X67591967Y41687287D02*
X67552920Y41648239D01*
X67552920Y41648239D02*
X67474825Y41609192D01*
X67474825Y41609192D02*
X67318634Y41609192D01*
X67318634Y41609192D02*
X67240539Y41648239D01*
X67240539Y41648239D02*
X67201491Y41687287D01*
X67201491Y41687287D02*
X67162444Y41765382D01*
X67162444Y41765382D02*
X67162444Y41960620D01*
X67162444Y41960620D02*
X67201491Y42038716D01*
X67201491Y42038716D02*
X67240539Y42077763D01*
X67240539Y42077763D02*
X67318634Y42116811D01*
X67318634Y42116811D02*
X67474825Y42116811D01*
X67474825Y42116811D02*
X67552920Y42077763D01*
X67552920Y42077763D02*
X67591967Y42038716D01*
X67591967Y42038716D02*
X67631015Y41960620D01*
X60724348Y51109192D02*
X60997681Y51499668D01*
X61192919Y51109192D02*
X61192919Y51929192D01*
X61192919Y51929192D02*
X60880538Y51929192D01*
X60880538Y51929192D02*
X60802443Y51890144D01*
X60802443Y51890144D02*
X60763396Y51851097D01*
X60763396Y51851097D02*
X60724348Y51773001D01*
X60724348Y51773001D02*
X60724348Y51655859D01*
X60724348Y51655859D02*
X60763396Y51577763D01*
X60763396Y51577763D02*
X60802443Y51538716D01*
X60802443Y51538716D02*
X60880538Y51499668D01*
X60880538Y51499668D02*
X61192919Y51499668D01*
X60451015Y51929192D02*
X59943396Y51929192D01*
X59943396Y51929192D02*
X60216729Y51616811D01*
X60216729Y51616811D02*
X60099586Y51616811D01*
X60099586Y51616811D02*
X60021491Y51577763D01*
X60021491Y51577763D02*
X59982443Y51538716D01*
X59982443Y51538716D02*
X59943396Y51460620D01*
X59943396Y51460620D02*
X59943396Y51265382D01*
X59943396Y51265382D02*
X59982443Y51187287D01*
X59982443Y51187287D02*
X60021491Y51148239D01*
X60021491Y51148239D02*
X60099586Y51109192D01*
X60099586Y51109192D02*
X60333872Y51109192D01*
X60333872Y51109192D02*
X60411967Y51148239D01*
X60411967Y51148239D02*
X60451015Y51187287D01*
X59631015Y51851097D02*
X59591967Y51890144D01*
X59591967Y51890144D02*
X59513872Y51929192D01*
X59513872Y51929192D02*
X59318634Y51929192D01*
X59318634Y51929192D02*
X59240539Y51890144D01*
X59240539Y51890144D02*
X59201491Y51851097D01*
X59201491Y51851097D02*
X59162444Y51773001D01*
X59162444Y51773001D02*
X59162444Y51694906D01*
X59162444Y51694906D02*
X59201491Y51577763D01*
X59201491Y51577763D02*
X59670063Y51109192D01*
X59670063Y51109192D02*
X59162444Y51109192D01*
X71447285Y7185651D02*
X71408238Y7146603D01*
X71408238Y7146603D02*
X71369190Y7029461D01*
X71369190Y7029461D02*
X71369190Y6951365D01*
X71369190Y6951365D02*
X71408238Y6834222D01*
X71408238Y6834222D02*
X71486333Y6756127D01*
X71486333Y6756127D02*
X71564428Y6717080D01*
X71564428Y6717080D02*
X71720618Y6678032D01*
X71720618Y6678032D02*
X71837761Y6678032D01*
X71837761Y6678032D02*
X71993952Y6717080D01*
X71993952Y6717080D02*
X72072047Y6756127D01*
X72072047Y6756127D02*
X72150142Y6834222D01*
X72150142Y6834222D02*
X72189190Y6951365D01*
X72189190Y6951365D02*
X72189190Y7029461D01*
X72189190Y7029461D02*
X72150142Y7146603D01*
X72150142Y7146603D02*
X72111095Y7185651D01*
X71369190Y7966603D02*
X71369190Y7498032D01*
X71369190Y7732318D02*
X72189190Y7732318D01*
X72189190Y7732318D02*
X72072047Y7654222D01*
X72072047Y7654222D02*
X71993952Y7576127D01*
X71993952Y7576127D02*
X71954904Y7498032D01*
X72189190Y8239936D02*
X72189190Y8786603D01*
X72189190Y8786603D02*
X71369190Y8435174D01*
X84605237Y52129492D02*
X84605237Y52949492D01*
X84605237Y52949492D02*
X84409999Y52949492D01*
X84409999Y52949492D02*
X84292856Y52910444D01*
X84292856Y52910444D02*
X84214761Y52832349D01*
X84214761Y52832349D02*
X84175714Y52754254D01*
X84175714Y52754254D02*
X84136666Y52598063D01*
X84136666Y52598063D02*
X84136666Y52480920D01*
X84136666Y52480920D02*
X84175714Y52324730D01*
X84175714Y52324730D02*
X84214761Y52246635D01*
X84214761Y52246635D02*
X84292856Y52168539D01*
X84292856Y52168539D02*
X84409999Y52129492D01*
X84409999Y52129492D02*
X84605237Y52129492D01*
X83824285Y52871397D02*
X83785237Y52910444D01*
X83785237Y52910444D02*
X83707142Y52949492D01*
X83707142Y52949492D02*
X83511904Y52949492D01*
X83511904Y52949492D02*
X83433809Y52910444D01*
X83433809Y52910444D02*
X83394761Y52871397D01*
X83394761Y52871397D02*
X83355714Y52793301D01*
X83355714Y52793301D02*
X83355714Y52715206D01*
X83355714Y52715206D02*
X83394761Y52598063D01*
X83394761Y52598063D02*
X83863333Y52129492D01*
X83863333Y52129492D02*
X83355714Y52129492D01*
X75737286Y22225652D02*
X75698239Y22186604D01*
X75698239Y22186604D02*
X75659191Y22069462D01*
X75659191Y22069462D02*
X75659191Y21991366D01*
X75659191Y21991366D02*
X75698239Y21874223D01*
X75698239Y21874223D02*
X75776334Y21796128D01*
X75776334Y21796128D02*
X75854429Y21757081D01*
X75854429Y21757081D02*
X76010619Y21718033D01*
X76010619Y21718033D02*
X76127762Y21718033D01*
X76127762Y21718033D02*
X76283953Y21757081D01*
X76283953Y21757081D02*
X76362048Y21796128D01*
X76362048Y21796128D02*
X76440143Y21874223D01*
X76440143Y21874223D02*
X76479191Y21991366D01*
X76479191Y21991366D02*
X76479191Y22069462D01*
X76479191Y22069462D02*
X76440143Y22186604D01*
X76440143Y22186604D02*
X76401096Y22225652D01*
X76401096Y22538033D02*
X76440143Y22577081D01*
X76440143Y22577081D02*
X76479191Y22655176D01*
X76479191Y22655176D02*
X76479191Y22850414D01*
X76479191Y22850414D02*
X76440143Y22928509D01*
X76440143Y22928509D02*
X76401096Y22967557D01*
X76401096Y22967557D02*
X76323000Y23006604D01*
X76323000Y23006604D02*
X76244905Y23006604D01*
X76244905Y23006604D02*
X76127762Y22967557D01*
X76127762Y22967557D02*
X75659191Y22498985D01*
X75659191Y22498985D02*
X75659191Y23006604D01*
X78512713Y33184349D02*
X78551761Y33223397D01*
X78551761Y33223397D02*
X78590808Y33340539D01*
X78590808Y33340539D02*
X78590808Y33418635D01*
X78590808Y33418635D02*
X78551761Y33535778D01*
X78551761Y33535778D02*
X78473665Y33613873D01*
X78473665Y33613873D02*
X78395570Y33652920D01*
X78395570Y33652920D02*
X78239380Y33691968D01*
X78239380Y33691968D02*
X78122237Y33691968D01*
X78122237Y33691968D02*
X77966046Y33652920D01*
X77966046Y33652920D02*
X77887951Y33613873D01*
X77887951Y33613873D02*
X77809856Y33535778D01*
X77809856Y33535778D02*
X77770808Y33418635D01*
X77770808Y33418635D02*
X77770808Y33340539D01*
X77770808Y33340539D02*
X77809856Y33223397D01*
X77809856Y33223397D02*
X77848903Y33184349D01*
X78590808Y32403397D02*
X78590808Y32871968D01*
X78590808Y32637682D02*
X77770808Y32637682D01*
X77770808Y32637682D02*
X77887951Y32715778D01*
X77887951Y32715778D02*
X77966046Y32793873D01*
X77966046Y32793873D02*
X78005094Y32871968D01*
X77770808Y31895778D02*
X77770808Y31817683D01*
X77770808Y31817683D02*
X77809856Y31739587D01*
X77809856Y31739587D02*
X77848903Y31700540D01*
X77848903Y31700540D02*
X77926999Y31661492D01*
X77926999Y31661492D02*
X78083189Y31622445D01*
X78083189Y31622445D02*
X78278427Y31622445D01*
X78278427Y31622445D02*
X78434618Y31661492D01*
X78434618Y31661492D02*
X78512713Y31700540D01*
X78512713Y31700540D02*
X78551761Y31739587D01*
X78551761Y31739587D02*
X78590808Y31817683D01*
X78590808Y31817683D02*
X78590808Y31895778D01*
X78590808Y31895778D02*
X78551761Y31973873D01*
X78551761Y31973873D02*
X78512713Y32012921D01*
X78512713Y32012921D02*
X78434618Y32051968D01*
X78434618Y32051968D02*
X78278427Y32091016D01*
X78278427Y32091016D02*
X78083189Y32091016D01*
X78083189Y32091016D02*
X77926999Y32051968D01*
X77926999Y32051968D02*
X77848903Y32012921D01*
X77848903Y32012921D02*
X77809856Y31973873D01*
X77809856Y31973873D02*
X77770808Y31895778D01*
D12*
X74261904Y43545181D02*
X74261904Y42735658D01*
X74261904Y42735658D02*
X74214285Y42640420D01*
X74214285Y42640420D02*
X74166666Y42592800D01*
X74166666Y42592800D02*
X74071428Y42545181D01*
X74071428Y42545181D02*
X73880952Y42545181D01*
X73880952Y42545181D02*
X73785714Y42592800D01*
X73785714Y42592800D02*
X73738095Y42640420D01*
X73738095Y42640420D02*
X73690476Y42735658D01*
X73690476Y42735658D02*
X73690476Y43545181D01*
X73071428Y43116610D02*
X73166666Y43164229D01*
X73166666Y43164229D02*
X73214285Y43211848D01*
X73214285Y43211848D02*
X73261904Y43307086D01*
X73261904Y43307086D02*
X73261904Y43354705D01*
X73261904Y43354705D02*
X73214285Y43449943D01*
X73214285Y43449943D02*
X73166666Y43497562D01*
X73166666Y43497562D02*
X73071428Y43545181D01*
X73071428Y43545181D02*
X72880952Y43545181D01*
X72880952Y43545181D02*
X72785714Y43497562D01*
X72785714Y43497562D02*
X72738095Y43449943D01*
X72738095Y43449943D02*
X72690476Y43354705D01*
X72690476Y43354705D02*
X72690476Y43307086D01*
X72690476Y43307086D02*
X72738095Y43211848D01*
X72738095Y43211848D02*
X72785714Y43164229D01*
X72785714Y43164229D02*
X72880952Y43116610D01*
X72880952Y43116610D02*
X73071428Y43116610D01*
X73071428Y43116610D02*
X73166666Y43068991D01*
X73166666Y43068991D02*
X73214285Y43021372D01*
X73214285Y43021372D02*
X73261904Y42926134D01*
X73261904Y42926134D02*
X73261904Y42735658D01*
X73261904Y42735658D02*
X73214285Y42640420D01*
X73214285Y42640420D02*
X73166666Y42592800D01*
X73166666Y42592800D02*
X73071428Y42545181D01*
X73071428Y42545181D02*
X72880952Y42545181D01*
X72880952Y42545181D02*
X72785714Y42592800D01*
X72785714Y42592800D02*
X72738095Y42640420D01*
X72738095Y42640420D02*
X72690476Y42735658D01*
X72690476Y42735658D02*
X72690476Y42926134D01*
X72690476Y42926134D02*
X72738095Y43021372D01*
X72738095Y43021372D02*
X72785714Y43068991D01*
X72785714Y43068991D02*
X72880952Y43116610D01*
D11*
X69762713Y18524349D02*
X69801761Y18563397D01*
X69801761Y18563397D02*
X69840808Y18680539D01*
X69840808Y18680539D02*
X69840808Y18758635D01*
X69840808Y18758635D02*
X69801761Y18875778D01*
X69801761Y18875778D02*
X69723665Y18953873D01*
X69723665Y18953873D02*
X69645570Y18992920D01*
X69645570Y18992920D02*
X69489380Y19031968D01*
X69489380Y19031968D02*
X69372237Y19031968D01*
X69372237Y19031968D02*
X69216046Y18992920D01*
X69216046Y18992920D02*
X69137951Y18953873D01*
X69137951Y18953873D02*
X69059856Y18875778D01*
X69059856Y18875778D02*
X69020808Y18758635D01*
X69020808Y18758635D02*
X69020808Y18680539D01*
X69020808Y18680539D02*
X69059856Y18563397D01*
X69059856Y18563397D02*
X69098903Y18524349D01*
X69840808Y17743397D02*
X69840808Y18211968D01*
X69840808Y17977682D02*
X69020808Y17977682D01*
X69020808Y17977682D02*
X69137951Y18055778D01*
X69137951Y18055778D02*
X69216046Y18133873D01*
X69216046Y18133873D02*
X69255094Y18211968D01*
X69840808Y17352921D02*
X69840808Y17196730D01*
X69840808Y17196730D02*
X69801761Y17118635D01*
X69801761Y17118635D02*
X69762713Y17079587D01*
X69762713Y17079587D02*
X69645570Y17001492D01*
X69645570Y17001492D02*
X69489380Y16962445D01*
X69489380Y16962445D02*
X69176999Y16962445D01*
X69176999Y16962445D02*
X69098903Y17001492D01*
X69098903Y17001492D02*
X69059856Y17040540D01*
X69059856Y17040540D02*
X69020808Y17118635D01*
X69020808Y17118635D02*
X69020808Y17274826D01*
X69020808Y17274826D02*
X69059856Y17352921D01*
X69059856Y17352921D02*
X69098903Y17391968D01*
X69098903Y17391968D02*
X69176999Y17431016D01*
X69176999Y17431016D02*
X69372237Y17431016D01*
X69372237Y17431016D02*
X69450332Y17391968D01*
X69450332Y17391968D02*
X69489380Y17352921D01*
X69489380Y17352921D02*
X69528427Y17274826D01*
X69528427Y17274826D02*
X69528427Y17118635D01*
X69528427Y17118635D02*
X69489380Y17040540D01*
X69489380Y17040540D02*
X69450332Y17001492D01*
X69450332Y17001492D02*
X69372237Y16962445D01*
X73447285Y7185651D02*
X73408238Y7146603D01*
X73408238Y7146603D02*
X73369190Y7029461D01*
X73369190Y7029461D02*
X73369190Y6951365D01*
X73369190Y6951365D02*
X73408238Y6834222D01*
X73408238Y6834222D02*
X73486333Y6756127D01*
X73486333Y6756127D02*
X73564428Y6717080D01*
X73564428Y6717080D02*
X73720618Y6678032D01*
X73720618Y6678032D02*
X73837761Y6678032D01*
X73837761Y6678032D02*
X73993952Y6717080D01*
X73993952Y6717080D02*
X74072047Y6756127D01*
X74072047Y6756127D02*
X74150142Y6834222D01*
X74150142Y6834222D02*
X74189190Y6951365D01*
X74189190Y6951365D02*
X74189190Y7029461D01*
X74189190Y7029461D02*
X74150142Y7146603D01*
X74150142Y7146603D02*
X74111095Y7185651D01*
X73369190Y7966603D02*
X73369190Y7498032D01*
X73369190Y7732318D02*
X74189190Y7732318D01*
X74189190Y7732318D02*
X74072047Y7654222D01*
X74072047Y7654222D02*
X73993952Y7576127D01*
X73993952Y7576127D02*
X73954904Y7498032D01*
X74189190Y8669460D02*
X74189190Y8513270D01*
X74189190Y8513270D02*
X74150142Y8435174D01*
X74150142Y8435174D02*
X74111095Y8396127D01*
X74111095Y8396127D02*
X73993952Y8318032D01*
X73993952Y8318032D02*
X73837761Y8278984D01*
X73837761Y8278984D02*
X73525380Y8278984D01*
X73525380Y8278984D02*
X73447285Y8318032D01*
X73447285Y8318032D02*
X73408238Y8357079D01*
X73408238Y8357079D02*
X73369190Y8435174D01*
X73369190Y8435174D02*
X73369190Y8591365D01*
X73369190Y8591365D02*
X73408238Y8669460D01*
X73408238Y8669460D02*
X73447285Y8708508D01*
X73447285Y8708508D02*
X73525380Y8747555D01*
X73525380Y8747555D02*
X73720618Y8747555D01*
X73720618Y8747555D02*
X73798714Y8708508D01*
X73798714Y8708508D02*
X73837761Y8669460D01*
X73837761Y8669460D02*
X73876809Y8591365D01*
X73876809Y8591365D02*
X73876809Y8435174D01*
X73876809Y8435174D02*
X73837761Y8357079D01*
X73837761Y8357079D02*
X73798714Y8318032D01*
X73798714Y8318032D02*
X73720618Y8278984D01*
X84605237Y55129492D02*
X84605237Y55949492D01*
X84605237Y55949492D02*
X84409999Y55949492D01*
X84409999Y55949492D02*
X84292856Y55910444D01*
X84292856Y55910444D02*
X84214761Y55832349D01*
X84214761Y55832349D02*
X84175714Y55754254D01*
X84175714Y55754254D02*
X84136666Y55598063D01*
X84136666Y55598063D02*
X84136666Y55480920D01*
X84136666Y55480920D02*
X84175714Y55324730D01*
X84175714Y55324730D02*
X84214761Y55246635D01*
X84214761Y55246635D02*
X84292856Y55168539D01*
X84292856Y55168539D02*
X84409999Y55129492D01*
X84409999Y55129492D02*
X84605237Y55129492D01*
X83863333Y55949492D02*
X83355714Y55949492D01*
X83355714Y55949492D02*
X83629047Y55637111D01*
X83629047Y55637111D02*
X83511904Y55637111D01*
X83511904Y55637111D02*
X83433809Y55598063D01*
X83433809Y55598063D02*
X83394761Y55559016D01*
X83394761Y55559016D02*
X83355714Y55480920D01*
X83355714Y55480920D02*
X83355714Y55285682D01*
X83355714Y55285682D02*
X83394761Y55207587D01*
X83394761Y55207587D02*
X83433809Y55168539D01*
X83433809Y55168539D02*
X83511904Y55129492D01*
X83511904Y55129492D02*
X83746190Y55129492D01*
X83746190Y55129492D02*
X83824285Y55168539D01*
X83824285Y55168539D02*
X83863333Y55207587D01*
X73237286Y22225652D02*
X73198239Y22186604D01*
X73198239Y22186604D02*
X73159191Y22069462D01*
X73159191Y22069462D02*
X73159191Y21991366D01*
X73159191Y21991366D02*
X73198239Y21874223D01*
X73198239Y21874223D02*
X73276334Y21796128D01*
X73276334Y21796128D02*
X73354429Y21757081D01*
X73354429Y21757081D02*
X73510619Y21718033D01*
X73510619Y21718033D02*
X73627762Y21718033D01*
X73627762Y21718033D02*
X73783953Y21757081D01*
X73783953Y21757081D02*
X73862048Y21796128D01*
X73862048Y21796128D02*
X73940143Y21874223D01*
X73940143Y21874223D02*
X73979191Y21991366D01*
X73979191Y21991366D02*
X73979191Y22069462D01*
X73979191Y22069462D02*
X73940143Y22186604D01*
X73940143Y22186604D02*
X73901096Y22225652D01*
X73979191Y22498985D02*
X73979191Y23006604D01*
X73979191Y23006604D02*
X73666810Y22733271D01*
X73666810Y22733271D02*
X73666810Y22850414D01*
X73666810Y22850414D02*
X73627762Y22928509D01*
X73627762Y22928509D02*
X73588715Y22967557D01*
X73588715Y22967557D02*
X73510619Y23006604D01*
X73510619Y23006604D02*
X73315381Y23006604D01*
X73315381Y23006604D02*
X73237286Y22967557D01*
X73237286Y22967557D02*
X73198239Y22928509D01*
X73198239Y22928509D02*
X73159191Y22850414D01*
X73159191Y22850414D02*
X73159191Y22616128D01*
X73159191Y22616128D02*
X73198239Y22538033D01*
X73198239Y22538033D02*
X73237286Y22498985D01*
X67275651Y47390809D02*
X67002318Y47000333D01*
X66807080Y47390809D02*
X66807080Y46570809D01*
X66807080Y46570809D02*
X67119461Y46570809D01*
X67119461Y46570809D02*
X67197556Y46609857D01*
X67197556Y46609857D02*
X67236603Y46648904D01*
X67236603Y46648904D02*
X67275651Y46727000D01*
X67275651Y46727000D02*
X67275651Y46844142D01*
X67275651Y46844142D02*
X67236603Y46922238D01*
X67236603Y46922238D02*
X67197556Y46961285D01*
X67197556Y46961285D02*
X67119461Y47000333D01*
X67119461Y47000333D02*
X66807080Y47000333D01*
X68056603Y47390809D02*
X67588032Y47390809D01*
X67822318Y47390809D02*
X67822318Y46570809D01*
X67822318Y46570809D02*
X67744222Y46687952D01*
X67744222Y46687952D02*
X67666127Y46766047D01*
X67666127Y46766047D02*
X67588032Y46805095D01*
X68329936Y46570809D02*
X68837555Y46570809D01*
X68837555Y46570809D02*
X68564222Y46883190D01*
X68564222Y46883190D02*
X68681365Y46883190D01*
X68681365Y46883190D02*
X68759460Y46922238D01*
X68759460Y46922238D02*
X68798508Y46961285D01*
X68798508Y46961285D02*
X68837555Y47039381D01*
X68837555Y47039381D02*
X68837555Y47234619D01*
X68837555Y47234619D02*
X68798508Y47312714D01*
X68798508Y47312714D02*
X68759460Y47351761D01*
X68759460Y47351761D02*
X68681365Y47390809D01*
X68681365Y47390809D02*
X68447079Y47390809D01*
X68447079Y47390809D02*
X68368984Y47351761D01*
X68368984Y47351761D02*
X68329936Y47312714D01*
X78237286Y22225652D02*
X78198239Y22186604D01*
X78198239Y22186604D02*
X78159191Y22069462D01*
X78159191Y22069462D02*
X78159191Y21991366D01*
X78159191Y21991366D02*
X78198239Y21874223D01*
X78198239Y21874223D02*
X78276334Y21796128D01*
X78276334Y21796128D02*
X78354429Y21757081D01*
X78354429Y21757081D02*
X78510619Y21718033D01*
X78510619Y21718033D02*
X78627762Y21718033D01*
X78627762Y21718033D02*
X78783953Y21757081D01*
X78783953Y21757081D02*
X78862048Y21796128D01*
X78862048Y21796128D02*
X78940143Y21874223D01*
X78940143Y21874223D02*
X78979191Y21991366D01*
X78979191Y21991366D02*
X78979191Y22069462D01*
X78979191Y22069462D02*
X78940143Y22186604D01*
X78940143Y22186604D02*
X78901096Y22225652D01*
X78159191Y23006604D02*
X78159191Y22538033D01*
X78159191Y22772319D02*
X78979191Y22772319D01*
X78979191Y22772319D02*
X78862048Y22694223D01*
X78862048Y22694223D02*
X78783953Y22616128D01*
X78783953Y22616128D02*
X78744905Y22538033D01*
D13*
G04 #@! TO.C,M1*
X39475002Y2800001D02*
X39475002Y2500003D01*
X39475004Y21650003D02*
X39474999Y20100003D01*
X39475004Y18100001D02*
X39475004Y16999998D01*
X39475004Y15400003D02*
X39475004Y12700003D01*
X39475004Y9200001D02*
X39475004Y4400001D01*
X54775001Y2500005D02*
X39475002Y2500003D01*
X56275001Y23100003D02*
X40875001Y23100003D01*
X56275001Y23100003D02*
X56275001Y22800003D01*
X56275001Y21200003D02*
X56275001Y10800001D01*
X56275001Y9100003D02*
X56275001Y5900000D01*
G04 #@! TO.C,M2*
X16574999Y40425000D02*
X16574999Y31325000D01*
X16574999Y40425000D02*
X17575001Y40425000D01*
X19675002Y40425000D02*
X19675002Y31325000D01*
D14*
G04 #@! TO.C,F1*
X72600000Y6500000D02*
X77450000Y6500000D01*
X72600000Y4500000D02*
X77450000Y4500000D01*
X72550000Y4500000D02*
G75*
G02*
X72550000Y6500000I0J1000000D01*
G01*
X77450000Y6500000D02*
G75*
G02*
X77450000Y4500000I0J-1000000D01*
G01*
D13*
G04 #@! TO.C,CAN1*
X27537499Y77529490D02*
X38712499Y77568337D01*
X27537499Y71831668D02*
X27537499Y77529490D01*
X27537499Y71831668D02*
X27812503Y71556662D01*
X27812503Y70731663D02*
X27812503Y71556662D01*
X27812503Y70731663D02*
X27868705Y70681663D01*
X27868705Y70681663D02*
X38712499Y70681663D01*
X38712499Y70675460D02*
X38712499Y77568337D01*
G04 #@! TO.C,MCU1*
X21699990Y66899980D02*
X55500000Y66899980D01*
X21699990Y31099990D02*
X21699990Y66899980D01*
X21699990Y31099990D02*
X55500000Y31099990D01*
X55500000Y31099990D02*
X55500000Y66899980D01*
D15*
G04 #@! TO.C,R4*
X46381000Y71200000D02*
X47397000Y71200000D01*
X47397000Y72800000D02*
X46381000Y72800000D01*
X48413000Y71200000D02*
X49429000Y71200000D01*
X49429000Y72800000D02*
X48413000Y72800000D01*
D14*
X46330000Y71200000D02*
G75*
G02*
X46321398Y72803495I-330000J800000D01*
G01*
X49484000Y72801638D02*
G75*
G02*
X49480000Y71200000I326000J-801638D01*
G01*
G04 #@! TO.C,F4*
X64900000Y22000000D02*
X60050000Y22000000D01*
X64900000Y20000000D02*
X60050000Y20000000D01*
X60050000Y20000000D02*
G75*
G02*
X60050000Y22000000I0J1000000D01*
G01*
X64950000Y22000000D02*
G75*
G02*
X64950000Y20000000I0J-1000000D01*
G01*
G04 #@! TO.C,F2*
X77400000Y4000000D02*
X72550000Y4000000D01*
X77400000Y2000000D02*
X72550000Y2000000D01*
X72550000Y2000000D02*
G75*
G02*
X72550000Y4000000I0J1000000D01*
G01*
X77450000Y4000000D02*
G75*
G02*
X77450000Y2000000I0J-1000000D01*
G01*
G04 #@! TO.C,F3*
X64900000Y19500000D02*
X60050000Y19500000D01*
X64900000Y17500000D02*
X60050000Y17500000D01*
X60050000Y17500000D02*
G75*
G02*
X60050000Y19500000I0J1000000D01*
G01*
X64950000Y19500000D02*
G75*
G02*
X64950000Y17500000I0J-1000000D01*
G01*
D13*
G04 #@! TO.C,M4*
X65050000Y76482500D02*
X65050000Y71382500D01*
X65650000Y66882500D02*
X80050000Y66882500D01*
X80050000Y76482500D02*
X65050000Y76482500D01*
X80050000Y76482500D02*
X80050000Y75182500D01*
X80050000Y66882500D02*
X80050000Y73282500D01*
D16*
G04 #@! TO.C,R12*
X68198943Y45370851D02*
X67798944Y45370840D01*
X68200000Y44625015D02*
X67800000Y44625005D01*
D13*
G04 #@! TO.C,C14*
X77959999Y10709999D02*
X78959999Y10709999D01*
G04 #@! TO.C,C21*
X74500000Y15000000D02*
X73500000Y15000000D01*
D16*
G04 #@! TO.C,R33*
X62800000Y50374985D02*
X63200000Y50374995D01*
X62801057Y49629149D02*
X63201056Y49629160D01*
G04 #@! TO.C,R10*
X68198943Y52870851D02*
X67798944Y52870840D01*
X68200000Y52125015D02*
X67800000Y52125005D01*
D13*
G04 #@! TO.C,C22*
X76750000Y15000000D02*
X75750000Y15000000D01*
G04 #@! TO.C,C6*
X69750000Y29500000D02*
X68750000Y29500000D01*
G04 #@! TO.C,C15*
X75709999Y10709999D02*
X76709999Y10709999D01*
G04 #@! TO.C,C20*
X72250000Y15000000D02*
X71250000Y15000000D01*
G04 #@! TO.C,C23*
X79000000Y15000000D02*
X78000000Y15000000D01*
D14*
G04 #@! TO.C,U6*
X71550000Y42060000D02*
X73500000Y42060000D01*
X71550000Y36940000D02*
X73500000Y36940000D01*
X75450000Y42060000D02*
X73500000Y42060000D01*
X75450000Y36940000D02*
X73500000Y36940000D01*
X71040000Y36705000D02*
X70560000Y36705000D01*
X70800000Y37035000D01*
X71040000Y36705000D01*
G36*
X71040000Y36705000D02*
G01*
X70560000Y36705000D01*
X70800000Y37035000D01*
X71040000Y36705000D01*
G37*
D16*
G04 #@! TO.C,R29*
X62800000Y56374985D02*
X63200000Y56374995D01*
X62801057Y55629149D02*
X63201056Y55629160D01*
D14*
G04 #@! TO.C,D5*
X78850000Y49000000D02*
X82750000Y49000000D01*
X78850000Y47000000D02*
X82750000Y47000000D01*
D11*
X79850000Y48000000D02*
X80150000Y48000000D01*
X80150000Y48350000D02*
X80150000Y47650000D01*
X80150000Y48350000D02*
X80850000Y48000000D01*
X80150000Y47650000D02*
X80850000Y48000000D01*
X80850000Y48350000D02*
X80850000Y47650000D01*
X80850000Y48000000D02*
X81050000Y48000000D01*
D14*
X82750000Y47000000D02*
X82750000Y49000000D01*
D13*
G04 #@! TO.C,C4*
X71000000Y25000000D02*
X72000000Y25000000D01*
G04 #@! TO.C,C18*
X68959999Y10709999D02*
X69959999Y10709999D01*
D16*
G04 #@! TO.C,R31*
X62800000Y53374985D02*
X63200000Y53374995D01*
X62801057Y52629149D02*
X63201056Y52629160D01*
D14*
G04 #@! TO.C,D4*
X78850000Y46000000D02*
X82750000Y46000000D01*
X78850000Y44000000D02*
X82750000Y44000000D01*
D11*
X79850000Y45000000D02*
X80150000Y45000000D01*
X80150000Y45350000D02*
X80150000Y44650000D01*
X80150000Y45350000D02*
X80850000Y45000000D01*
X80150000Y44650000D02*
X80850000Y45000000D01*
X80850000Y45350000D02*
X80850000Y44650000D01*
X80850000Y45000000D02*
X81050000Y45000000D01*
D14*
X82750000Y44000000D02*
X82750000Y46000000D01*
D13*
G04 #@! TO.C,C8*
X74250000Y29500000D02*
X73250000Y29500000D01*
D14*
G04 #@! TO.C,SAGSOKET1*
X87670000Y53070000D02*
X90270000Y53070000D01*
X87670000Y2150000D02*
X87670000Y53070000D01*
X87670000Y2150000D02*
X92870000Y2150000D01*
X90270000Y53070000D02*
X90270000Y50470000D01*
X90270000Y50470000D02*
X92870000Y50470000D01*
X91540000Y53070000D02*
X92870000Y53070000D01*
X92870000Y53070000D02*
X92870000Y51740000D01*
X92870000Y2150000D02*
X92870000Y50470000D01*
G04 #@! TO.C,U7*
X71550000Y57060000D02*
X73500000Y57060000D01*
X71550000Y51940000D02*
X73500000Y51940000D01*
X75450000Y57060000D02*
X73500000Y57060000D01*
X75450000Y51940000D02*
X73500000Y51940000D01*
X71040000Y51705000D02*
X70560000Y51705000D01*
X70800000Y52035000D01*
X71040000Y51705000D01*
G36*
X71040000Y51705000D02*
G01*
X70560000Y51705000D01*
X70800000Y52035000D01*
X71040000Y51705000D01*
G37*
D13*
G04 #@! TO.C,C9*
X76500000Y29500000D02*
X75500000Y29500000D01*
D16*
G04 #@! TO.C,R30*
X62800000Y54874985D02*
X63200000Y54874995D01*
X62801057Y54129149D02*
X63201056Y54129160D01*
G04 #@! TO.C,R15*
X67800000Y37874985D02*
X68200000Y37874995D01*
X67801057Y37129149D02*
X68201056Y37129160D01*
G04 #@! TO.C,R11*
X68198943Y56370851D02*
X67798944Y56370840D01*
X68200000Y55625015D02*
X67800000Y55625005D01*
D13*
G04 #@! TO.C,C7*
X72000000Y29500000D02*
X71000000Y29500000D01*
D16*
G04 #@! TO.C,R34*
X62800000Y48874985D02*
X63200000Y48874995D01*
X62801057Y48129149D02*
X63201056Y48129160D01*
D13*
G04 #@! TO.C,C5*
X68750000Y25000000D02*
X69750000Y25000000D01*
D16*
G04 #@! TO.C,R16*
X67800000Y40874985D02*
X68200000Y40874995D01*
X67801057Y40129149D02*
X68201056Y40129160D01*
G04 #@! TO.C,R32*
X62800000Y51874985D02*
X63200000Y51874995D01*
X62801057Y51129149D02*
X63201056Y51129160D01*
D13*
G04 #@! TO.C,C17*
X71209999Y10709999D02*
X72209999Y10709999D01*
D14*
G04 #@! TO.C,D2*
X78850000Y53500000D02*
X82750000Y53500000D01*
X78850000Y51500000D02*
X82750000Y51500000D01*
D11*
X79850000Y52500000D02*
X80150000Y52500000D01*
X80150000Y52850000D02*
X80150000Y52150000D01*
X80150000Y52850000D02*
X80850000Y52500000D01*
X80150000Y52150000D02*
X80850000Y52500000D01*
X80850000Y52850000D02*
X80850000Y52150000D01*
X80850000Y52500000D02*
X81050000Y52500000D01*
D14*
X82750000Y51500000D02*
X82750000Y53500000D01*
D13*
G04 #@! TO.C,C2*
X75500000Y25000000D02*
X76500000Y25000000D01*
G04 #@! TO.C,C10*
X78750000Y29500000D02*
X77750000Y29500000D01*
D14*
G04 #@! TO.C,U8*
X71550000Y49560000D02*
X73500000Y49560000D01*
X71550000Y44440000D02*
X73500000Y44440000D01*
X75450000Y49560000D02*
X73500000Y49560000D01*
X75450000Y44440000D02*
X73500000Y44440000D01*
X71040000Y44205000D02*
X70560000Y44205000D01*
X70800000Y44535000D01*
X71040000Y44205000D01*
G36*
X71040000Y44205000D02*
G01*
X70560000Y44205000D01*
X70800000Y44535000D01*
X71040000Y44205000D01*
G37*
D13*
G04 #@! TO.C,C19*
X70000000Y15000000D02*
X69000000Y15000000D01*
G04 #@! TO.C,C16*
X73459999Y10709999D02*
X74459999Y10709999D01*
D14*
G04 #@! TO.C,D3*
X78850000Y56500000D02*
X82750000Y56500000D01*
X78850000Y54500000D02*
X82750000Y54500000D01*
D11*
X79850000Y55500000D02*
X80150000Y55500000D01*
X80150000Y55850000D02*
X80150000Y55150000D01*
X80150000Y55850000D02*
X80850000Y55500000D01*
X80150000Y55150000D02*
X80850000Y55500000D01*
X80850000Y55850000D02*
X80850000Y55150000D01*
X80850000Y55500000D02*
X81050000Y55500000D01*
D14*
X82750000Y54500000D02*
X82750000Y56500000D01*
D13*
G04 #@! TO.C,C3*
X73250000Y25000000D02*
X74250000Y25000000D01*
D14*
G04 #@! TO.C,SOLSOKET1*
X2130000Y53110000D02*
X4730000Y53110000D01*
X2130000Y2190000D02*
X2130000Y53110000D01*
X2130000Y2190000D02*
X7330000Y2190000D01*
X4730000Y53110000D02*
X4730000Y50510000D01*
X4730000Y50510000D02*
X7330000Y50510000D01*
X6000000Y53110000D02*
X7330000Y53110000D01*
X7330000Y53110000D02*
X7330000Y51780000D01*
X7330000Y2190000D02*
X7330000Y50510000D01*
D16*
G04 #@! TO.C,R13*
X68198943Y48870851D02*
X67798944Y48870840D01*
X68200000Y48125015D02*
X67800000Y48125005D01*
D13*
G04 #@! TO.C,C1*
X77750000Y25000000D02*
X78750000Y25000000D01*
G04 #@! TD*
M02*
