%TF.GenerationSoftware,KiCad,Pcbnew,8.0.7*%
%TF.CreationDate,2024-12-26T23:24:23+03:00*%
%TF.ProjectId,uaefi,75616566-692e-46b6-9963-61645f706362,D*%
%TF.SameCoordinates,Original*%
%TF.FileFunction,Copper,L1,Top*%
%TF.FilePolarity,Positive*%
%FSLAX46Y46*%
G04 Gerber Fmt 4.6, Leading zero omitted, Abs format (unit mm)*
G04 Created by KiCad (PCBNEW 8.0.7) date 2024-12-26 23:24:23*
%MOMM*%
%LPD*%
G01*
G04 APERTURE LIST*
G04 Aperture macros list*
%AMRoundRect*
0 Rectangle with rounded corners*
0 $1 Rounding radius*
0 $2 $3 $4 $5 $6 $7 $8 $9 X,Y pos of 4 corners*
0 Add a 4 corners polygon primitive as box body*
4,1,4,$2,$3,$4,$5,$6,$7,$8,$9,$2,$3,0*
0 Add four circle primitives for the rounded corners*
1,1,$1+$1,$2,$3*
1,1,$1+$1,$4,$5*
1,1,$1+$1,$6,$7*
1,1,$1+$1,$8,$9*
0 Add four rect primitives between the rounded corners*
20,1,$1+$1,$2,$3,$4,$5,0*
20,1,$1+$1,$4,$5,$6,$7,0*
20,1,$1+$1,$6,$7,$8,$9,0*
20,1,$1+$1,$8,$9,$2,$3,0*%
G04 Aperture macros list end*
%TA.AperFunction,EtchedComponent*%
%ADD10C,0.200000*%
%TD*%
%TA.AperFunction,SMDPad,CuDef*%
%ADD11RoundRect,0.085000X-0.340000X-0.340000X0.340000X-0.340000X0.340000X0.340000X-0.340000X0.340000X0*%
%TD*%
%TA.AperFunction,SMDPad,CuDef*%
%ADD12RoundRect,0.070000X-0.280000X-0.390000X0.280000X-0.390000X0.280000X0.390000X-0.280000X0.390000X0*%
%TD*%
%TA.AperFunction,ComponentPad*%
%ADD13C,1.500000*%
%TD*%
%TA.AperFunction,ComponentPad*%
%ADD14C,0.600000*%
%TD*%
%TA.AperFunction,SMDPad,CuDef*%
%ADD15O,3.300000X0.200000*%
%TD*%
%TA.AperFunction,SMDPad,CuDef*%
%ADD16O,10.200000X0.200000*%
%TD*%
%TA.AperFunction,SMDPad,CuDef*%
%ADD17O,0.300000X0.200000*%
%TD*%
%TA.AperFunction,SMDPad,CuDef*%
%ADD18O,0.200000X17.000000*%
%TD*%
%TA.AperFunction,SMDPad,CuDef*%
%ADD19O,0.200000X15.400000*%
%TD*%
%TA.AperFunction,SMDPad,CuDef*%
%ADD20O,4.800000X0.200000*%
%TD*%
%TA.AperFunction,SMDPad,CuDef*%
%ADD21O,2.600000X0.200000*%
%TD*%
%TA.AperFunction,SMDPad,CuDef*%
%ADD22O,1.000000X0.200000*%
%TD*%
%TA.AperFunction,SMDPad,CuDef*%
%ADD23O,1.500000X0.200000*%
%TD*%
%TA.AperFunction,SMDPad,CuDef*%
%ADD24RoundRect,0.218750X-0.218750X-0.256250X0.218750X-0.256250X0.218750X0.256250X-0.218750X0.256250X0*%
%TD*%
%TA.AperFunction,SMDPad,CuDef*%
%ADD25RoundRect,0.070000X0.390000X-0.280000X0.390000X0.280000X-0.390000X0.280000X-0.390000X-0.280000X0*%
%TD*%
%TA.AperFunction,ComponentPad*%
%ADD26R,1.700000X1.700000*%
%TD*%
%TA.AperFunction,ComponentPad*%
%ADD27O,1.700000X1.700000*%
%TD*%
%TA.AperFunction,ComponentPad*%
%ADD28RoundRect,0.250000X-0.350000X-0.625000X0.350000X-0.625000X0.350000X0.625000X-0.350000X0.625000X0*%
%TD*%
%TA.AperFunction,ComponentPad*%
%ADD29O,1.200000X1.750000*%
%TD*%
%TA.AperFunction,SMDPad,CuDef*%
%ADD30RoundRect,0.100000X-0.400000X-0.625000X0.400000X-0.625000X0.400000X0.625000X-0.400000X0.625000X0*%
%TD*%
%TA.AperFunction,SMDPad,CuDef*%
%ADD31RoundRect,0.150000X-0.825000X-0.150000X0.825000X-0.150000X0.825000X0.150000X-0.825000X0.150000X0*%
%TD*%
%TA.AperFunction,SMDPad,CuDef*%
%ADD32RoundRect,0.090000X0.360000X0.510000X-0.360000X0.510000X-0.360000X-0.510000X0.360000X-0.510000X0*%
%TD*%
%TA.AperFunction,SMDPad,CuDef*%
%ADD33O,0.200000X1.225000*%
%TD*%
%TA.AperFunction,SMDPad,CuDef*%
%ADD34O,9.300000X0.200000*%
%TD*%
%TA.AperFunction,ComponentPad*%
%ADD35C,1.524000*%
%TD*%
%TA.AperFunction,SMDPad,CuDef*%
%ADD36RoundRect,0.230000X-0.345000X0.670000X-0.345000X-0.670000X0.345000X-0.670000X0.345000X0.670000X0*%
%TD*%
%TA.AperFunction,SMDPad,CuDef*%
%ADD37RoundRect,0.150000X0.587500X0.150000X-0.587500X0.150000X-0.587500X-0.150000X0.587500X-0.150000X0*%
%TD*%
%TA.AperFunction,SMDPad,CuDef*%
%ADD38O,0.200000X5.669999*%
%TD*%
%TA.AperFunction,SMDPad,CuDef*%
%ADD39O,11.100001X0.200000*%
%TD*%
%TA.AperFunction,SMDPad,CuDef*%
%ADD40O,9.800001X0.399999*%
%TD*%
%TA.AperFunction,SMDPad,CuDef*%
%ADD41O,0.499999X0.250000*%
%TD*%
%TA.AperFunction,SMDPad,CuDef*%
%ADD42O,0.200000X6.799999*%
%TD*%
%TA.AperFunction,SMDPad,CuDef*%
%ADD43O,0.250000X0.499999*%
%TD*%
%TA.AperFunction,ComponentPad*%
%ADD44C,0.599999*%
%TD*%
%TA.AperFunction,SMDPad,CuDef*%
%ADD45R,0.200000X3.700000*%
%TD*%
%TA.AperFunction,SMDPad,CuDef*%
%ADD46R,0.200000X0.400000*%
%TD*%
%TA.AperFunction,SMDPad,CuDef*%
%ADD47R,0.200000X1.600000*%
%TD*%
%TA.AperFunction,SMDPad,CuDef*%
%ADD48R,0.200000X9.700000*%
%TD*%
%TA.AperFunction,SMDPad,CuDef*%
%ADD49R,0.200000X2.300000*%
%TD*%
%TA.AperFunction,SMDPad,CuDef*%
%ADD50R,1.400000X0.200000*%
%TD*%
%TA.AperFunction,SMDPad,CuDef*%
%ADD51R,6.400000X0.200000*%
%TD*%
%TA.AperFunction,SMDPad,CuDef*%
%ADD52R,1.700000X0.200000*%
%TD*%
%TA.AperFunction,SMDPad,CuDef*%
%ADD53R,3.300000X0.200000*%
%TD*%
%TA.AperFunction,SMDPad,CuDef*%
%ADD54R,0.200000X7.000000*%
%TD*%
%TA.AperFunction,SMDPad,CuDef*%
%ADD55R,0.200000X3.300000*%
%TD*%
%TA.AperFunction,SMDPad,CuDef*%
%ADD56R,0.200000X6.300000*%
%TD*%
%TA.AperFunction,SMDPad,CuDef*%
%ADD57RoundRect,0.100000X0.400000X0.625000X-0.400000X0.625000X-0.400000X-0.625000X0.400000X-0.625000X0*%
%TD*%
%TA.AperFunction,SMDPad,CuDef*%
%ADD58RoundRect,0.041300X-0.968700X-0.253700X0.968700X-0.253700X0.968700X0.253700X-0.968700X0.253700X0*%
%TD*%
%TA.AperFunction,SMDPad,CuDef*%
%ADD59RoundRect,0.230000X0.345000X-0.670000X0.345000X0.670000X-0.345000X0.670000X-0.345000X-0.670000X0*%
%TD*%
%TA.AperFunction,ComponentPad*%
%ADD60C,0.700000*%
%TD*%
%TA.AperFunction,SMDPad,CuDef*%
%ADD61C,3.000000*%
%TD*%
%TA.AperFunction,SMDPad,CuDef*%
%ADD62R,0.250000X3.000000*%
%TD*%
%TA.AperFunction,SMDPad,CuDef*%
%ADD63R,0.250000X1.100000*%
%TD*%
%TA.AperFunction,SMDPad,CuDef*%
%ADD64R,0.250000X0.980000*%
%TD*%
%TA.AperFunction,SMDPad,CuDef*%
%ADD65R,0.250000X1.450000*%
%TD*%
%TA.AperFunction,SMDPad,CuDef*%
%ADD66R,27.600000X0.250000*%
%TD*%
%TA.AperFunction,SMDPad,CuDef*%
%ADD67R,0.250000X1.950000*%
%TD*%
%TA.AperFunction,SMDPad,CuDef*%
%ADD68R,0.250000X0.950000*%
%TD*%
%TA.AperFunction,SMDPad,CuDef*%
%ADD69RoundRect,0.125000X0.125000X0.625000X-0.125000X0.625000X-0.125000X-0.625000X0.125000X-0.625000X0*%
%TD*%
%TA.AperFunction,SMDPad,CuDef*%
%ADD70RoundRect,0.125000X0.625000X0.125000X-0.625000X0.125000X-0.625000X-0.125000X0.625000X-0.125000X0*%
%TD*%
%TA.AperFunction,SMDPad,CuDef*%
%ADD71RoundRect,0.125000X-0.125000X0.125000X-0.125000X-0.125000X0.125000X-0.125000X0.125000X0.125000X0*%
%TD*%
%TA.AperFunction,SMDPad,CuDef*%
%ADD72RoundRect,0.125000X0.125000X0.125000X-0.125000X0.125000X-0.125000X-0.125000X0.125000X-0.125000X0*%
%TD*%
%TA.AperFunction,SMDPad,CuDef*%
%ADD73RoundRect,0.125000X-0.125000X-0.000010X0.125000X-0.000010X0.125000X0.000010X-0.125000X0.000010X0*%
%TD*%
%TA.AperFunction,SMDPad,CuDef*%
%ADD74R,0.250000X6.185000*%
%TD*%
%TA.AperFunction,SMDPad,CuDef*%
%ADD75R,0.250000X1.115000*%
%TD*%
%TA.AperFunction,SMDPad,CuDef*%
%ADD76R,14.275000X0.250000*%
%TD*%
%TA.AperFunction,SMDPad,CuDef*%
%ADD77R,15.100000X0.250000*%
%TD*%
%TA.AperFunction,SMDPad,CuDef*%
%ADD78R,0.250000X5.175000*%
%TD*%
%TA.AperFunction,Conductor*%
%ADD79C,0.150000*%
%TD*%
G04 APERTURE END LIST*
D10*
%TO.C,G2*%
X193400409Y-53727092D02*
X193400409Y-52227092D01*
X193400409Y-53727092D02*
X194900409Y-53727092D01*
X194900409Y-53727092D02*
X194900409Y-58727092D01*
X194900409Y-58727092D02*
X197400409Y-58727092D01*
X197400409Y-50727092D02*
X195400409Y-50727092D01*
X197400409Y-58727092D02*
X197400409Y-50727092D01*
X195400409Y-50727092D02*
G75*
G02*
X193400409Y-52227092I-1921601J478801D01*
G01*
%TD*%
D11*
%TO.P,C28,1*%
%TO.N,GND*%
X109209999Y-46000000D03*
%TO.P,C28,2*%
%TO.N,Net-(U4-T-)*%
X110790001Y-46000000D03*
%TD*%
D12*
%TO.P,R12,1*%
%TO.N,GND*%
X139200000Y-85000000D03*
%TO.P,R12,2*%
%TO.N,/LS3*%
X140800000Y-85000000D03*
%TD*%
D13*
%TO.P,M1,E1,VBAT*%
%TO.N,/VBAT*%
X132500000Y-47250002D03*
%TO.P,M1,E2,V12*%
%TO.N,unconnected-(M1-V12-PadE2)*%
X138899997Y-47250002D03*
%TO.P,M1,E3,VIGN*%
%TO.N,/VIGN*%
X140800000Y-47250002D03*
%TO.P,M1,E4,V5*%
%TO.N,+5V*%
X145100000Y-47250002D03*
D14*
%TO.P,M1,E5,EN_5VP*%
%TO.N,/PWR_EN*%
X147499997Y-46800003D03*
%TO.P,M1,E6,PG_5VP*%
%TO.N,Net-(M1-PG_5VP)*%
X148499998Y-46800003D03*
D15*
%TO.P,M1,S1,GND*%
%TO.N,GND*%
X136350000Y-63399998D03*
D16*
X144849998Y-63399998D03*
D17*
X151950000Y-63399998D03*
D18*
X152000000Y-55000000D03*
D19*
X131400000Y-54199999D03*
D13*
X151350000Y-47250002D03*
D17*
X131450000Y-46600001D03*
D20*
X135649998Y-46600001D03*
D21*
X143000000Y-46600001D03*
D22*
X146499997Y-46600001D03*
D23*
X149799998Y-46600001D03*
D13*
%TO.P,M1,V1,V12_PERM*%
%TO.N,+12V_RAW*%
X132049998Y-62749999D03*
%TO.P,M1,V2,IN_VIGN*%
%TO.N,/IN_VIGN*%
X133899997Y-62749999D03*
%TO.P,M1,V3,V12_RAW*%
%TO.N,+12V_RAW*%
X138850000Y-62749999D03*
%TO.P,M1,V4,5VP*%
%TO.N,+5VP*%
X150899998Y-62749999D03*
%TD*%
D24*
%TO.P,F6,1*%
%TO.N,Net-(F6-Pad1)*%
X88000000Y-69500000D03*
%TO.P,F6,2*%
%TO.N,/IGN1*%
X89575000Y-69500000D03*
%TD*%
D25*
%TO.P,R33,1*%
%TO.N,GND*%
X134000000Y-69300000D03*
%TO.P,R33,2*%
%TO.N,/INJ5*%
X134000000Y-67700000D03*
%TD*%
D26*
%TO.P,BLUETOOTH1,1,Pin_1*%
%TO.N,/BT_TX*%
X164000000Y-46960000D03*
D27*
%TO.P,BLUETOOTH1,2,Pin_2*%
%TO.N,/BT_RX*%
X164000000Y-49500000D03*
%TO.P,BLUETOOTH1,3,Pin_3*%
%TO.N,GND*%
X164000000Y-52040000D03*
%TO.P,BLUETOOTH1,4,Pin_4*%
%TO.N,+5VA*%
X164000000Y-54580000D03*
%TD*%
D12*
%TO.P,R10,1*%
%TO.N,GND*%
X139200000Y-92000000D03*
%TO.P,R10,2*%
%TO.N,/LS1*%
X140800000Y-92000000D03*
%TD*%
D24*
%TO.P,L1,1,1*%
%TO.N,/EGT+*%
X102925000Y-47500000D03*
%TO.P,L1,2,2*%
%TO.N,Net-(U4-T+)*%
X104500000Y-47500000D03*
%TD*%
D28*
%TO.P,USB1,1,Pin_1*%
%TO.N,GND*%
X157500000Y-61000000D03*
D29*
%TO.P,USB1,2,Pin_2*%
%TO.N,/USB+*%
X159500000Y-61000000D03*
%TO.P,USB1,3,Pin_3*%
%TO.N,/USB-*%
X161500000Y-61000000D03*
%TO.P,USB1,4,Pin_4*%
%TO.N,/VBUS*%
X163500000Y-61000000D03*
%TD*%
D11*
%TO.P,C31,1*%
%TO.N,GND*%
X109209999Y-50470000D03*
%TO.P,C31,2*%
%TO.N,+3.3VA*%
X110790001Y-50470000D03*
%TD*%
D30*
%TO.P,R8,1*%
%TO.N,/IN_BUTTON3*%
X84049999Y-99005856D03*
%TO.P,R8,2*%
%TO.N,+5VA*%
X85950021Y-99005856D03*
%TD*%
D11*
%TO.P,C29,1*%
%TO.N,Net-(U4-T-)*%
X109209999Y-47470000D03*
%TO.P,C29,2*%
%TO.N,Net-(U4-T+)*%
X110790001Y-47470000D03*
%TD*%
%TO.P,C30,1*%
%TO.N,GND*%
X109209999Y-48970000D03*
%TO.P,C30,2*%
%TO.N,Net-(U4-T+)*%
X110790001Y-48970000D03*
%TD*%
D31*
%TO.P,U9,1,IN1*%
%TO.N,/INJ1*%
X152025000Y-68095000D03*
%TO.P,U9,2,STATUS1*%
%TO.N,unconnected-(U9-STATUS1-Pad2)*%
X152025000Y-69365000D03*
%TO.P,U9,3,IN2*%
%TO.N,/INJ2*%
X152025000Y-70635000D03*
%TO.P,U9,4,STATUS2*%
%TO.N,unconnected-(U9-STATUS2-Pad4)*%
X152025000Y-71905000D03*
%TO.P,U9,5,S2*%
%TO.N,GND*%
X156975000Y-71905000D03*
%TO.P,U9,6,D2*%
%TO.N,/OUT_INJ2*%
X156975000Y-70635000D03*
%TO.P,U9,7,S1*%
%TO.N,GND*%
X156975000Y-69365000D03*
%TO.P,U9,8,D1*%
%TO.N,/OUT_INJ1*%
X156975000Y-68095000D03*
%TD*%
%TO.P,U6,1,IN1*%
%TO.N,/LS_HOT2*%
X152025000Y-82095000D03*
%TO.P,U6,2,STATUS1*%
%TO.N,unconnected-(U6-STATUS1-Pad2)*%
X152025000Y-83365000D03*
%TO.P,U6,3,IN2*%
%TO.N,/LS_HOT1*%
X152025000Y-84635000D03*
%TO.P,U6,4,STATUS2*%
%TO.N,unconnected-(U6-STATUS2-Pad4)*%
X152025000Y-85905000D03*
%TO.P,U6,5,S2*%
%TO.N,GND*%
X156975000Y-85905000D03*
%TO.P,U6,6,D2*%
%TO.N,/OUT_LS_HOT1*%
X156975000Y-84635000D03*
%TO.P,U6,7,S1*%
%TO.N,GND*%
X156975000Y-83365000D03*
%TO.P,U6,8,D1*%
%TO.N,/OUT_LS_HOT2*%
X156975000Y-82095000D03*
%TD*%
D25*
%TO.P,R29,1*%
%TO.N,GND*%
X140000000Y-69300000D03*
%TO.P,R29,2*%
%TO.N,/INJ1*%
X140000000Y-67700000D03*
%TD*%
D32*
%TO.P,D5,1,K*%
%TO.N,+12V_RAW*%
X157150000Y-90500000D03*
%TO.P,D5,2,A*%
%TO.N,/OUT_LS4*%
X153850000Y-90500000D03*
%TD*%
D30*
%TO.P,R7,1*%
%TO.N,/IN_BUTTON2*%
X84049999Y-96502928D03*
%TO.P,R7,2*%
%TO.N,+5VA*%
X85950021Y-96502928D03*
%TD*%
D14*
%TO.P,M2,E1,V5A*%
%TO.N,+5VA*%
X91475000Y-85425002D03*
D33*
%TO.P,M2,E2,GND*%
%TO.N,GND*%
X82575000Y-87400002D03*
D34*
X87125000Y-84825002D03*
X87125000Y-87925002D03*
D14*
X91475000Y-86375002D03*
%TO.P,M2,E3,OUT_KNOCK*%
%TO.N,/IN_KNOCK*%
X91475000Y-87325000D03*
%TO.P,M2,W1,IN_KNOCK*%
%TO.N,/IN_KNOCK_RAW*%
X82775000Y-86325002D03*
%TO.P,M2,W2,VREF*%
%TO.N,/VREF1*%
X82775000Y-85425002D03*
%TD*%
D12*
%TO.P,R21,1*%
%TO.N,/OUT_IGN2*%
X84987500Y-71500000D03*
%TO.P,R21,2*%
%TO.N,Net-(F5-Pad1)*%
X86587500Y-71500000D03*
%TD*%
D25*
%TO.P,R31,1*%
%TO.N,GND*%
X137000000Y-69300000D03*
%TO.P,R31,2*%
%TO.N,/INJ3*%
X137000000Y-67700000D03*
%TD*%
D32*
%TO.P,D4,1,K*%
%TO.N,+12V_RAW*%
X157150000Y-88500000D03*
%TO.P,D4,2,A*%
%TO.N,/OUT_LS3*%
X153850000Y-88500000D03*
%TD*%
D11*
%TO.P,C27,1*%
%TO.N,GND*%
X91419998Y-47500000D03*
%TO.P,C27,2*%
%TO.N,+5VA*%
X93000000Y-47500000D03*
%TD*%
D31*
%TO.P,U11,1,IN1*%
%TO.N,/INJ5*%
X152025000Y-75095000D03*
%TO.P,U11,2,STATUS1*%
%TO.N,unconnected-(U11-STATUS1-Pad2)*%
X152025000Y-76365000D03*
%TO.P,U11,3,IN2*%
%TO.N,/INJ6*%
X152025000Y-77635000D03*
%TO.P,U11,4,STATUS2*%
%TO.N,unconnected-(U11-STATUS2-Pad4)*%
X152025000Y-78905000D03*
%TO.P,U11,5,S2*%
%TO.N,GND*%
X156975000Y-78905000D03*
%TO.P,U11,6,D2*%
%TO.N,/OUT_INJ6*%
X156975000Y-77635000D03*
%TO.P,U11,7,S1*%
%TO.N,GND*%
X156975000Y-76365000D03*
%TO.P,U11,8,D1*%
%TO.N,/OUT_INJ5*%
X156975000Y-75095000D03*
%TD*%
D35*
%TO.P,F1,1,1*%
%TO.N,/12V_KEY*%
X154450000Y-113500000D03*
D36*
X153450010Y-113500000D03*
%TO.P,F1,2,2*%
%TO.N,/IN_VIGN*%
X150549990Y-113500000D03*
D35*
X149550000Y-113500000D03*
%TD*%
D31*
%TO.P,U4,1,GND*%
%TO.N,GND*%
X114025000Y-47595000D03*
%TO.P,U4,2,T-*%
%TO.N,Net-(U4-T-)*%
X114025000Y-48865000D03*
%TO.P,U4,3,T+*%
%TO.N,Net-(U4-T+)*%
X114025000Y-50135000D03*
%TO.P,U4,4,V_CC*%
%TO.N,+3.3VA*%
X114025000Y-51405000D03*
%TO.P,U4,5,SCK*%
%TO.N,/EGT/SPI_SCK*%
X118975000Y-51405000D03*
%TO.P,U4,6,~{CS}*%
%TO.N,/EGT/SPI_CS*%
X118975000Y-50135000D03*
%TO.P,U4,7,SO*%
%TO.N,/EGT/SPI_SO*%
X118975000Y-48865000D03*
%TO.P,U4,8*%
%TO.N,N/C*%
X118975000Y-47595000D03*
%TD*%
D37*
%TO.P,D8,1,K*%
%TO.N,Net-(U4-T-)*%
X99650000Y-49950000D03*
%TO.P,D8,2,K*%
%TO.N,Net-(U4-T+)*%
X99650000Y-48050000D03*
%TO.P,D8,3,A*%
%TO.N,GND*%
X97775000Y-49000000D03*
%TD*%
D24*
%TO.P,L2,1,1*%
%TO.N,/EGT-*%
X102925000Y-50500000D03*
%TO.P,L2,2,2*%
%TO.N,Net-(U4-T-)*%
X104500000Y-50500000D03*
%TD*%
D31*
%TO.P,U7,1,IN1*%
%TO.N,/LS1*%
X143025000Y-92095000D03*
%TO.P,U7,2,STATUS1*%
%TO.N,unconnected-(U7-STATUS1-Pad2)*%
X143025000Y-93365000D03*
%TO.P,U7,3,IN2*%
%TO.N,/LS2*%
X143025000Y-94635000D03*
%TO.P,U7,4,STATUS2*%
%TO.N,unconnected-(U7-STATUS2-Pad4)*%
X143025000Y-95905000D03*
%TO.P,U7,5,S2*%
%TO.N,GND*%
X147975000Y-95905000D03*
%TO.P,U7,6,D2*%
%TO.N,/OUT_LS2*%
X147975000Y-94635000D03*
%TO.P,U7,7,S1*%
%TO.N,GND*%
X147975000Y-93365000D03*
%TO.P,U7,8,D1*%
%TO.N,/OUT_LS1*%
X147975000Y-92095000D03*
%TD*%
D38*
%TO.P,CAN1,E1,GND*%
%TO.N,GND*%
X114637499Y-97780837D03*
D39*
X120112500Y-95043337D03*
D40*
X120812501Y-101643334D03*
D41*
X125437495Y-101643334D03*
D42*
X125612499Y-98380836D03*
D43*
%TO.P,CAN1,S1,CANL*%
%TO.N,/CAN2-*%
X115087501Y-101593336D03*
%TO.P,CAN1,S2,CANH*%
%TO.N,/CAN2+*%
X115587502Y-101593336D03*
D44*
%TO.P,CAN1,V1,V5*%
%TO.N,+5VA*%
X122137499Y-100543338D03*
%TO.P,CAN1,V2,CAN_VIO*%
%TO.N,+3.3VA*%
X121262497Y-100018338D03*
%TO.P,CAN1,V5,CAN_TX*%
%TO.N,/MCU-CAN2TX*%
X122437501Y-99268340D03*
%TO.P,CAN1,V6,CAN_RX*%
%TO.N,/MCU-CAN2RX*%
X122362498Y-95718339D03*
%TD*%
D14*
%TO.P,MCU1,E1,V5A_SWITCHABLE*%
%TO.N,+5VA*%
X128299990Y-84200010D03*
%TO.P,MCU1,E2,GNDA*%
%TO.N,unconnected-(MCU1-GNDA-PadE2)*%
X128300000Y-79900010D03*
%TO.P,MCU1,E3,I2C_SCL_(PB10)*%
%TO.N,unconnected-(MCU1-I2C_SCL_(PB10)-PadE3)*%
X128300000Y-79100020D03*
%TO.P,MCU1,E4,I2C_SDA_(PB11)*%
%TO.N,unconnected-(MCU1-I2C_SDA_(PB11)-PadE4)*%
X128300000Y-78300010D03*
%TO.P,MCU1,E5,IN_VIGN_(PA5)*%
%TO.N,/VIGN*%
X128300000Y-77500010D03*
%TO.P,MCU1,E6,SPI2_CS_/_CAN2_RX_(PB12)*%
%TO.N,/MCU-CAN2RX*%
X128300000Y-76700010D03*
%TO.P,MCU1,E7,SPI2_SCK_/_CAN2_TX_(PB13)*%
%TO.N,/MCU-CAN2TX*%
X128300000Y-75900010D03*
%TO.P,MCU1,E8,SPI2_MISO_(PB14)*%
%TO.N,/DC1_DIS*%
X128300000Y-75100010D03*
%TO.P,MCU1,E9,SPI2_MOSI_(PB15)*%
%TO.N,/DC2_DIR*%
X128300000Y-74300010D03*
%TO.P,MCU1,E10,OUT_INJ8_(PD12)*%
%TO.N,/LS2*%
X128300000Y-73500010D03*
%TO.P,MCU1,E11,OUT_INJ7_(PD15)*%
%TO.N,/LS1*%
X128300000Y-72700010D03*
%TO.P,MCU1,E12,OUT_INJ6_(PA8)*%
%TO.N,/INJ6*%
X128300000Y-71900010D03*
%TO.P,MCU1,E13,OUT_INJ5_(PD2)*%
%TO.N,/INJ5*%
X128300000Y-71100010D03*
%TO.P,MCU1,E14,OUT_INJ4_(PD10)*%
%TO.N,/INJ4*%
X128300000Y-70300010D03*
%TO.P,MCU1,E15,OUT_INJ3_(PD11)*%
%TO.N,/INJ3*%
X128300000Y-69500010D03*
%TO.P,MCU1,E16,OUT_INJ2_(PA9)*%
%TO.N,/INJ2*%
X128299990Y-68700020D03*
%TO.P,MCU1,E17,OUT_INJ1_(PD3)*%
%TO.N,/INJ1*%
X128300000Y-67900010D03*
%TO.P,MCU1,E18,OUT_PWM1_(PD13)*%
%TO.N,/LS3*%
X128300000Y-66500010D03*
%TO.P,MCU1,E19,OUT_PWM2_(PC6)*%
%TO.N,/LS4*%
X128300000Y-65700020D03*
%TO.P,MCU1,E20,OUT_PWM3_(PC7)*%
%TO.N,/DC1_PWM*%
X128300000Y-64900020D03*
%TO.P,MCU1,E21,OUT_PWM4_(PC8)*%
%TO.N,/DC1_DIR*%
X128300000Y-64100020D03*
%TO.P,MCU1,E22,OUT_PWM5_(PC9)*%
%TO.N,/DC2_PWM*%
X128300000Y-63300020D03*
%TO.P,MCU1,E23,OUT_PWM6_(PD14)*%
%TO.N,unconnected-(MCU1-OUT_PWM6_(PD14)-PadE23)*%
X128300000Y-62500010D03*
D45*
%TO.P,MCU1,G,GND*%
%TO.N,GND*%
X94699990Y-57650020D03*
D46*
X94699990Y-60700010D03*
D45*
X94699990Y-63750020D03*
D47*
X94699990Y-68200010D03*
D48*
X94699990Y-81850010D03*
D49*
X94699990Y-89850010D03*
D50*
X96500000Y-90900020D03*
D51*
X98599990Y-55100020D03*
D52*
X104649990Y-55100020D03*
D53*
X108149990Y-55100020D03*
D50*
X117899990Y-55100020D03*
D51*
X125399990Y-90900020D03*
D54*
X128500000Y-58500000D03*
D46*
X128500000Y-67200020D03*
D55*
X128500000Y-82050020D03*
D56*
X128500000Y-87850020D03*
D14*
%TO.P,MCU1,N1,VBUS*%
%TO.N,/VBUS*%
X127900000Y-55300010D03*
%TO.P,MCU1,N2,USBM_(PA11)*%
%TO.N,/USB-*%
X127100000Y-55300010D03*
%TO.P,MCU1,N3,USBP_(PA12)*%
%TO.N,/USB+*%
X126300000Y-55300010D03*
%TO.P,MCU1,N4,USBID_(PA10)*%
%TO.N,/DC2_DIS*%
X125499990Y-55300010D03*
%TO.P,MCU1,N5,SWDIO_(PA13)*%
%TO.N,unconnected-(MCU1-SWDIO_(PA13)-PadN5)*%
X124700000Y-55300010D03*
%TO.P,MCU1,N6,SWCLK_(PA14)*%
%TO.N,unconnected-(MCU1-SWCLK_(PA14)-PadN6)*%
X123900000Y-55300010D03*
%TO.P,MCU1,N7,nReset*%
%TO.N,unconnected-(MCU1-nReset-PadN7)*%
X123100000Y-55300010D03*
%TO.P,MCU1,N8,SWO_(PB3)*%
%TO.N,unconnected-(MCU1-SWO_(PB3)-PadN8)*%
X122299990Y-55300010D03*
%TO.P,MCU1,N9,SPI3_CS_(PA15)*%
%TO.N,/EGT/SPI_CS*%
X121500000Y-55300020D03*
%TO.P,MCU1,N10,SPI3_SCK_(PC10)*%
%TO.N,/EGT/SPI_SCK*%
X120700000Y-55300020D03*
%TO.P,MCU1,N11,SPI3_MISO_(PC11)*%
%TO.N,/EGT/SPI_SO*%
X119900000Y-55300020D03*
%TO.P,MCU1,N12,SPI3_MOSI_(PC12)*%
%TO.N,/PG_5VP*%
X119100000Y-55300020D03*
%TO.P,MCU1,N13,UART2_TX_(PD5)*%
%TO.N,/BT_TX*%
X116699990Y-55300020D03*
%TO.P,MCU1,N14,UART2_RX_(PD6)*%
%TO.N,/BT_RX*%
X115899990Y-55300020D03*
%TO.P,MCU1,N14a,LED_GREEN*%
%TO.N,unconnected-(MCU1-LED_GREEN-PadN14a)*%
X115100000Y-55300010D03*
%TO.P,MCU1,N14b,LED_YELLOW*%
%TO.N,unconnected-(MCU1-LED_YELLOW-PadN14b)*%
X114299990Y-55300010D03*
%TO.P,MCU1,N15,V33_SWITCHABLE*%
%TO.N,+3.3VA*%
X113499990Y-55300010D03*
%TO.P,MCU1,N16,BOOT0*%
%TO.N,unconnected-(MCU1-BOOT0-PadN16)*%
X112699990Y-55300010D03*
%TO.P,MCU1,N17,VBAT*%
%TO.N,/VBAT*%
X111899990Y-55300010D03*
%TO.P,MCU1,N18,UART8_RX_(PE0)*%
%TO.N,unconnected-(MCU1-UART8_RX_(PE0)-PadN18)*%
X111099990Y-55300020D03*
%TO.P,MCU1,N19,UART8_TX_(PE1)*%
%TO.N,/VR_MAX9924*%
X110299990Y-55300020D03*
%TO.P,MCU1,N20,OUT_PWR_EN_(PE10)*%
%TO.N,/PWR_EN*%
X105999990Y-55300020D03*
%TO.P,MCU1,N21,V33*%
%TO.N,+3.3V*%
X103299990Y-55300020D03*
%TO.P,MCU1,N22,VCC*%
%TO.N,+5V*%
X102300000Y-55300020D03*
%TO.P,MCU1,N23,V33*%
%TO.N,unconnected-(MCU1-V33-PadN23)*%
X94899990Y-55300020D03*
%TO.P,MCU1,S1,IN_D4_(PE15)*%
%TO.N,/IN_BUTTON3*%
X121700010Y-90700020D03*
%TO.P,MCU1,S2,IN_D3_(PE14)*%
%TO.N,/IN_HALL3*%
X120500000Y-90700020D03*
%TO.P,MCU1,S3,IN_D2_(PE13)*%
%TO.N,/IN_HALL2*%
X119300000Y-90700020D03*
%TO.P,MCU1,S4,IN_D1_(PE12)*%
%TO.N,/IN_HALL1*%
X118100000Y-90700020D03*
%TO.P,MCU1,S5,VREF2*%
%TO.N,unconnected-(MCU1-VREF2-PadS5)*%
X116900000Y-90700020D03*
%TO.P,MCU1,S6,IN_AUX4_(PC5)*%
%TO.N,/IN_VMAIN*%
X115700000Y-90700020D03*
%TO.P,MCU1,S7,IN_AUX3_(PA7)*%
%TO.N,/IN_AUX3*%
X114500000Y-90700020D03*
%TO.P,MCU1,S8,IN_AUX2_(PC4/PE9)*%
%TO.N,/IN_PPS2*%
X113300000Y-90700020D03*
%TO.P,MCU1,S9,IN_AUX1_(PB0)*%
%TO.N,/IN_TPS2*%
X112100000Y-90700020D03*
%TO.P,MCU1,S10,IN_O2S2_(PA1)*%
%TO.N,/IN_AUX2*%
X110900000Y-90700020D03*
%TO.P,MCU1,S11,IN_O2S_/_CAN_WAKEUP_(PA0)*%
%TO.N,/IN_AUX1*%
X109700000Y-90700020D03*
%TO.P,MCU1,S12,IN_MAP2_(PC1)*%
%TO.N,/INTERNAL_MAP*%
X108500000Y-90700020D03*
%TO.P,MCU1,S13,IN_MAP1_(PC0)*%
%TO.N,/IN_MAP*%
X107300000Y-90700020D03*
%TO.P,MCU1,S14,IN_CRANK_(PB1)*%
%TO.N,/IN_BUTTON1*%
X106100000Y-90700020D03*
%TO.P,MCU1,S15,IN_KNOCK_(PA2)*%
%TO.N,/ADC3*%
X104900000Y-90700020D03*
%TO.P,MCU1,S16,IN_CAM_(PA6)*%
%TO.N,/IN_BUTTON2*%
X103700000Y-90700020D03*
%TO.P,MCU1,S17,IN_VSS_(PE11)*%
%TO.N,/IN_FLEX*%
X102500000Y-90700020D03*
%TO.P,MCU1,S18,IN_TPS_(PA4)*%
%TO.N,/IN_TPS1*%
X101299990Y-90700020D03*
%TO.P,MCU1,S19,IN_PPS_(PA3)*%
%TO.N,/IN_PPS1*%
X100099990Y-90700020D03*
%TO.P,MCU1,S20,IN_IAT_(PC3)*%
%TO.N,/IN_IAT*%
X98899990Y-90700020D03*
%TO.P,MCU1,S21,IN_CLT_(PC2)*%
%TO.N,/IN_CLT*%
X97699990Y-90700020D03*
%TO.P,MCU1,S22,VREF1*%
%TO.N,/VREF1*%
X95299990Y-90700020D03*
%TO.P,MCU1,W1,GNDA*%
%TO.N,GNDA*%
X94899990Y-88200010D03*
%TO.P,MCU1,W2,V5A_SWITCHABLE*%
%TO.N,+5VA*%
X94899990Y-87200010D03*
%TO.P,MCU1,W3,IGN8_(PE6)*%
%TO.N,/LS_HOT2*%
X94899990Y-76500020D03*
%TO.P,MCU1,W4,IGN7_(PB9)*%
%TO.N,/LS_HOT1*%
X94899990Y-75500010D03*
%TO.P,MCU1,W5,IGN6_(PB8)*%
%TO.N,/IGN6*%
X94899990Y-74500020D03*
%TO.P,MCU1,W6,IGN5_(PE2)*%
%TO.N,/IGN5*%
X94899990Y-73500020D03*
%TO.P,MCU1,W7,IGN4_(PE3)*%
%TO.N,/IGN4*%
X94899990Y-72500020D03*
%TO.P,MCU1,W8,IGN3_(PE4)*%
%TO.N,/IGN3*%
X94899990Y-71500020D03*
%TO.P,MCU1,W9,IGN2_(PE5)*%
%TO.N,/IGN2*%
X94899990Y-70500020D03*
%TO.P,MCU1,W10,IGN1_(PC13)*%
%TO.N,/IGN1*%
X94899990Y-69500020D03*
%TO.P,MCU1,W11,CANH*%
%TO.N,/CAN1+*%
X94899990Y-66900020D03*
%TO.P,MCU1,W12,CANL*%
%TO.N,/CAN1-*%
X94899990Y-66100020D03*
%TO.P,MCU1,W13,V33_REF*%
%TO.N,unconnected-(MCU1-V33_REF-PadW13)*%
X94899990Y-61400010D03*
%TO.P,MCU1,W14,V5A_SWITCHABLE*%
%TO.N,unconnected-(MCU1-V5A_SWITCHABLE-PadW14)*%
X94899990Y-60000020D03*
%TD*%
D24*
%TO.P,F7,1*%
%TO.N,Net-(F7-Pad1)*%
X88000000Y-73500000D03*
%TO.P,F7,2*%
%TO.N,/IGN3*%
X89575000Y-73500000D03*
%TD*%
D35*
%TO.P,R4,1,1*%
%TO.N,Net-(M1-PG_5VP)*%
X127905000Y-46500000D03*
D57*
X126950001Y-46500000D03*
%TO.P,R4,2,2*%
%TO.N,/PG_5VP*%
X125049979Y-46500000D03*
D35*
X124095000Y-46500000D03*
%TD*%
D12*
%TO.P,R2,1*%
%TO.N,/IN_VMAIN*%
X107700000Y-103000000D03*
%TO.P,R2,2*%
%TO.N,+12V*%
X109300000Y-103000000D03*
%TD*%
%TO.P,R6,1*%
%TO.N,/IN_KNOCK*%
X107700000Y-106949046D03*
%TO.P,R6,2*%
%TO.N,/ADC3*%
X109300000Y-106949046D03*
%TD*%
%TO.P,R20,1*%
%TO.N,/OUT_IGN1*%
X84987500Y-69500000D03*
%TO.P,R20,2*%
%TO.N,Net-(F6-Pad1)*%
X86587500Y-69500000D03*
%TD*%
D25*
%TO.P,R30,1*%
%TO.N,GND*%
X138500000Y-69300000D03*
%TO.P,R30,2*%
%TO.N,/INJ2*%
X138500000Y-67700000D03*
%TD*%
D12*
%TO.P,R15,1*%
%TO.N,/LS_HOT2*%
X146700000Y-79500000D03*
%TO.P,R15,2*%
%TO.N,GND*%
X148300000Y-79500000D03*
%TD*%
%TO.P,R11,1*%
%TO.N,GND*%
X139200000Y-95500000D03*
%TO.P,R11,2*%
%TO.N,/LS2*%
X140800000Y-95500000D03*
%TD*%
%TO.P,R26,1*%
%TO.N,/OUT_IGN4*%
X84987500Y-75500000D03*
%TO.P,R26,2*%
%TO.N,Net-(F8-Pad1)*%
X86587500Y-75500000D03*
%TD*%
%TO.P,R28,1*%
%TO.N,/OUT_IGN6*%
X84987500Y-79500000D03*
%TO.P,R28,2*%
%TO.N,Net-(F10-Pad1)*%
X86587500Y-79500000D03*
%TD*%
D25*
%TO.P,R34,1*%
%TO.N,GND*%
X132500000Y-69300000D03*
%TO.P,R34,2*%
%TO.N,/INJ6*%
X132500000Y-67700000D03*
%TD*%
D31*
%TO.P,U10,1,IN1*%
%TO.N,/INJ3*%
X143025000Y-68095000D03*
%TO.P,U10,2,STATUS1*%
%TO.N,unconnected-(U10-STATUS1-Pad2)*%
X143025000Y-69365000D03*
%TO.P,U10,3,IN2*%
%TO.N,/INJ4*%
X143025000Y-70635000D03*
%TO.P,U10,4,STATUS2*%
%TO.N,unconnected-(U10-STATUS2-Pad4)*%
X143025000Y-71905000D03*
%TO.P,U10,5,S2*%
%TO.N,GND*%
X147975000Y-71905000D03*
%TO.P,U10,6,D2*%
%TO.N,/OUT_INJ4*%
X147975000Y-70635000D03*
%TO.P,U10,7,S1*%
%TO.N,GND*%
X147975000Y-69365000D03*
%TO.P,U10,8,D1*%
%TO.N,/OUT_INJ3*%
X147975000Y-68095000D03*
%TD*%
D12*
%TO.P,R22,1*%
%TO.N,/OUT_IGN3*%
X84987500Y-73500000D03*
%TO.P,R22,2*%
%TO.N,Net-(F7-Pad1)*%
X86587500Y-73500000D03*
%TD*%
%TO.P,R16,1*%
%TO.N,/LS_HOT1*%
X146700000Y-81449046D03*
%TO.P,R16,2*%
%TO.N,GND*%
X148300000Y-81449046D03*
%TD*%
D25*
%TO.P,R32,1*%
%TO.N,GND*%
X135500000Y-69300000D03*
%TO.P,R32,2*%
%TO.N,/INJ4*%
X135500000Y-67700000D03*
%TD*%
D24*
%TO.P,F8,1*%
%TO.N,Net-(F8-Pad1)*%
X88000000Y-75500000D03*
%TO.P,F8,2*%
%TO.N,/IGN4*%
X89575000Y-75500000D03*
%TD*%
D11*
%TO.P,C32,1*%
%TO.N,GND*%
X109209999Y-51970000D03*
%TO.P,C32,2*%
%TO.N,+3.3VA*%
X110790001Y-51970000D03*
%TD*%
D58*
%TO.P,MAP1,1*%
%TO.N,unconnected-(MAP1-Pad1)*%
X77820000Y-48595000D03*
%TO.P,MAP1,2,Vs*%
%TO.N,+5VA*%
X77820000Y-49865000D03*
%TO.P,MAP1,3,GND*%
%TO.N,GND*%
X77820000Y-51135000D03*
%TO.P,MAP1,4,Vout*%
%TO.N,/INTERNAL_MAP*%
X77820000Y-52405000D03*
%TO.P,MAP1,5*%
%TO.N,unconnected-(MAP1-Pad5)*%
X87180000Y-52405000D03*
%TO.P,MAP1,6*%
%TO.N,unconnected-(MAP1-Pad6)*%
X87180000Y-51135000D03*
%TO.P,MAP1,7*%
%TO.N,unconnected-(MAP1-Pad7)*%
X87180000Y-49865000D03*
%TO.P,MAP1,8*%
%TO.N,unconnected-(MAP1-Pad8)*%
X87180000Y-48595000D03*
%TD*%
D12*
%TO.P,R3,1*%
%TO.N,GND*%
X107700000Y-105000000D03*
%TO.P,R3,2*%
%TO.N,/IN_VMAIN*%
X109300000Y-105000000D03*
%TD*%
D32*
%TO.P,D2,1,K*%
%TO.N,+12V_RAW*%
X157150000Y-92500000D03*
%TO.P,D2,2,A*%
%TO.N,/OUT_LS1*%
X153850000Y-92500000D03*
%TD*%
D35*
%TO.P,F4,1,1*%
%TO.N,+12V*%
X149550000Y-118500000D03*
D59*
X150549990Y-118500000D03*
%TO.P,F4,2,2*%
%TO.N,/DC Driver 1/PWR*%
X153450010Y-118500000D03*
D35*
X154450000Y-118500000D03*
%TD*%
D31*
%TO.P,U8,1,IN1*%
%TO.N,/LS3*%
X143025000Y-85095000D03*
%TO.P,U8,2,STATUS1*%
%TO.N,unconnected-(U8-STATUS1-Pad2)*%
X143025000Y-86365000D03*
%TO.P,U8,3,IN2*%
%TO.N,/LS4*%
X143025000Y-87635000D03*
%TO.P,U8,4,STATUS2*%
%TO.N,unconnected-(U8-STATUS2-Pad4)*%
X143025000Y-88905000D03*
%TO.P,U8,5,S2*%
%TO.N,GND*%
X147975000Y-88905000D03*
%TO.P,U8,6,D2*%
%TO.N,/OUT_LS4*%
X147975000Y-87635000D03*
%TO.P,U8,7,S1*%
%TO.N,GND*%
X147975000Y-86365000D03*
%TO.P,U8,8,D1*%
%TO.N,/OUT_LS3*%
X147975000Y-85095000D03*
%TD*%
D24*
%TO.P,F9,1*%
%TO.N,Net-(F9-Pad1)*%
X88000000Y-77500000D03*
%TO.P,F9,2*%
%TO.N,/IGN5*%
X89575000Y-77500000D03*
%TD*%
D32*
%TO.P,D3,1,K*%
%TO.N,+12V_RAW*%
X157150000Y-94500000D03*
%TO.P,D3,2,A*%
%TO.N,/OUT_LS2*%
X153850000Y-94500000D03*
%TD*%
D35*
%TO.P,F2,1,1*%
%TO.N,+12V*%
X149550000Y-116000000D03*
D59*
X150549990Y-116000000D03*
%TO.P,F2,2,2*%
%TO.N,+12V_RAW*%
X153450010Y-116000000D03*
D35*
X154450000Y-116000000D03*
%TD*%
%TO.P,F3,1,1*%
%TO.N,+12V*%
X149550000Y-121000000D03*
D59*
X150549990Y-121000000D03*
%TO.P,F3,2,2*%
%TO.N,/DC Driver 2/PWR*%
X153450010Y-121000000D03*
D35*
X154450000Y-121000000D03*
%TD*%
D24*
%TO.P,F5,1*%
%TO.N,Net-(F5-Pad1)*%
X88000000Y-71500000D03*
%TO.P,F5,2*%
%TO.N,/IGN2*%
X89575000Y-71500000D03*
%TD*%
D12*
%TO.P,R27,1*%
%TO.N,/OUT_IGN5*%
X84987500Y-77500000D03*
%TO.P,R27,2*%
%TO.N,Net-(F9-Pad1)*%
X86587500Y-77500000D03*
%TD*%
D60*
%TO.P,M3,E1,LSU_Un*%
%TO.N,/WBO_Un*%
X158425000Y-109775000D03*
%TO.P,M3,E2,LSU_Vm*%
%TO.N,/WBO_Vm*%
X158425000Y-106775000D03*
%TO.P,M3,E3,LSU_Ip*%
%TO.N,/WBO_Ip*%
X158425000Y-107775000D03*
%TO.P,M3,E4,LSU_Rtrim*%
%TO.N,/WBO_Rtrim*%
X158425000Y-108775000D03*
D61*
%TO.P,M3,E5,LSU_H+*%
%TO.N,/WBO_Heater*%
X157175000Y-104625000D03*
D62*
%TO.P,M3,E6,LSU_H-*%
%TO.N,GND*%
X158800000Y-101125000D03*
D63*
%TO.P,M3,G,GND*%
X131450000Y-97925000D03*
D64*
X131450000Y-102265000D03*
X131450000Y-105565000D03*
D65*
X131450000Y-110650000D03*
D66*
X145125000Y-97500000D03*
X145125000Y-111250000D03*
D67*
X158800000Y-98350000D03*
D68*
X158800000Y-110900000D03*
D69*
%TO.P,M3,J1,SEL1*%
%TO.N,Net-(M3-PULL_DOWN1)*%
X140625000Y-99150000D03*
D70*
%TO.P,M3,J2,SEL2*%
%TO.N,unconnected-(M3-SEL2-PadJ2)*%
X138450000Y-101325000D03*
D69*
%TO.P,M3,J_GND1,PULL_DOWN1*%
%TO.N,Net-(M3-PULL_DOWN1)*%
X139825000Y-99150000D03*
D71*
%TO.P,M3,J_GND2,PULL_DOWN2*%
%TO.N,unconnected-(M3-PULL_DOWN2-PadJ_GND2)*%
X139875000Y-101325000D03*
D72*
%TO.P,M3,J_VCC1,PULL_UP1*%
%TO.N,unconnected-(M3-PULL_UP1-PadJ_VCC1)*%
X140625000Y-100525000D03*
D70*
%TO.P,M3,J_VCC2,PULL_UP2*%
%TO.N,unconnected-(M3-PULL_UP2-PadJ_VCC2)*%
X138450000Y-100525000D03*
D60*
%TO.P,M3,W1,V5_IN*%
%TO.N,+5VA*%
X131833800Y-100125000D03*
%TO.P,M3,W2,CAN_VIO*%
%TO.N,unconnected-(M3-CAN_VIO-PadW2)*%
X131833800Y-101125000D03*
%TO.P,M3,W3,CANL*%
%TO.N,/CAN1-*%
X131833800Y-104421000D03*
%TO.P,M3,W4,CANH*%
%TO.N,/CAN1+*%
X131833800Y-103405000D03*
D73*
%TO.P,M3,W5,nReset*%
%TO.N,unconnected-(M3-nReset-PadW5)*%
X131575000Y-106425000D03*
%TO.P,M3,W6,SWDIO*%
%TO.N,unconnected-(M3-SWDIO-PadW6)*%
X131575000Y-106925000D03*
%TO.P,M3,W7,SWCLK*%
%TO.N,unconnected-(M3-SWCLK-PadW7)*%
X131575000Y-107425000D03*
%TO.P,M3,W8,V33_OUT*%
%TO.N,unconnected-(M3-V33_OUT-PadW8)*%
X131575000Y-109525000D03*
D60*
%TO.P,M3,W9,VDDA*%
%TO.N,unconnected-(M3-VDDA-PadW9)*%
X131833800Y-99125000D03*
%TD*%
D30*
%TO.P,R5,1*%
%TO.N,/IN_BUTTON1*%
X84049999Y-94000000D03*
%TO.P,R5,2*%
%TO.N,+5VA*%
X85950021Y-94000000D03*
%TD*%
D24*
%TO.P,F10,1*%
%TO.N,Net-(F10-Pad1)*%
X88000000Y-79500000D03*
%TO.P,F10,2*%
%TO.N,/IGN6*%
X89575000Y-79500000D03*
%TD*%
D12*
%TO.P,R13,1*%
%TO.N,GND*%
X139200000Y-88500000D03*
%TO.P,R13,2*%
%TO.N,/LS4*%
X140800000Y-88500000D03*
%TD*%
D14*
%TO.P,M4,E1,NC*%
%TO.N,unconnected-(M4-NC-PadE1)*%
X90137500Y-58200000D03*
%TO.P,M4,E2,NC*%
%TO.N,unconnected-(M4-NC-PadE2)*%
X90137500Y-59400000D03*
%TO.P,M4,E3,OUT*%
%TO.N,/VR_MAX9924*%
X90137500Y-57000000D03*
%TO.P,M4,E4,V5_IN*%
%TO.N,+5VA*%
X90137500Y-55800000D03*
D74*
%TO.P,M4,G,GND*%
%TO.N,GND*%
X75487500Y-58467500D03*
D75*
X75487500Y-64517500D03*
D76*
X82500000Y-55500000D03*
D77*
X82912500Y-64950000D03*
D78*
X90337500Y-62487500D03*
D14*
%TO.P,M4,W1,VR-*%
%TO.N,/VR_MAX9924-*%
X75712500Y-62260000D03*
%TO.P,M4,W2,VR+*%
%TO.N,/VR_MAX9924+*%
X75712500Y-63260000D03*
%TD*%
D12*
%TO.P,R1,1*%
%TO.N,+5VP*%
X107700000Y-101101908D03*
%TO.P,R1,2*%
%TO.N,/VR_MAX9924-*%
X109300000Y-101101908D03*
%TD*%
D26*
%TO.P,SAGSOKET1,1,Pin_1*%
%TO.N,/OUT_INJ1*%
X164540000Y-70260000D03*
D27*
%TO.P,SAGSOKET1,2,Pin_2*%
%TO.N,/OUT_INJ2*%
X162000000Y-70260000D03*
%TO.P,SAGSOKET1,3,Pin_3*%
%TO.N,/OUT_INJ3*%
X164540000Y-72800000D03*
%TO.P,SAGSOKET1,4,Pin_4*%
%TO.N,/OUT_INJ4*%
X162000000Y-72800000D03*
%TO.P,SAGSOKET1,5,Pin_5*%
%TO.N,/OUT_INJ5*%
X164540000Y-75340000D03*
%TO.P,SAGSOKET1,6,Pin_6*%
%TO.N,/OUT_INJ6*%
X162000000Y-75340000D03*
%TO.P,SAGSOKET1,7,Pin_7*%
%TO.N,/OUT_LS1*%
X164540000Y-77880000D03*
%TO.P,SAGSOKET1,8,Pin_8*%
%TO.N,/OUT_LS2*%
X162000000Y-77880000D03*
%TO.P,SAGSOKET1,9,Pin_9*%
%TO.N,/OUT_LS3*%
X164540000Y-80420000D03*
%TO.P,SAGSOKET1,10,Pin_10*%
%TO.N,/OUT_LS4*%
X162000000Y-80420000D03*
%TO.P,SAGSOKET1,11,Pin_11*%
%TO.N,/OUT_LS_HOT1*%
X164540000Y-82960000D03*
%TO.P,SAGSOKET1,12,Pin_12*%
%TO.N,/OUT_LS_HOT2*%
X162000000Y-82960000D03*
%TO.P,SAGSOKET1,13,Pin_13*%
%TO.N,unconnected-(SAGSOKET1-Pin_13-Pad13)*%
X164540000Y-85500000D03*
%TO.P,SAGSOKET1,14,Pin_14*%
%TO.N,unconnected-(SAGSOKET1-Pin_14-Pad14)*%
X162000000Y-85500000D03*
%TO.P,SAGSOKET1,15,Pin_15*%
%TO.N,unconnected-(SAGSOKET1-Pin_15-Pad15)*%
X164540000Y-88040000D03*
%TO.P,SAGSOKET1,16,Pin_16*%
%TO.N,unconnected-(SAGSOKET1-Pin_16-Pad16)*%
X162000000Y-88040000D03*
%TO.P,SAGSOKET1,17,Pin_17*%
%TO.N,unconnected-(SAGSOKET1-Pin_17-Pad17)*%
X164540000Y-90580000D03*
%TO.P,SAGSOKET1,18,Pin_18*%
%TO.N,unconnected-(SAGSOKET1-Pin_18-Pad18)*%
X162000000Y-90580000D03*
%TO.P,SAGSOKET1,19,Pin_19*%
%TO.N,unconnected-(SAGSOKET1-Pin_19-Pad19)*%
X164540000Y-93120000D03*
%TO.P,SAGSOKET1,20,Pin_20*%
%TO.N,unconnected-(SAGSOKET1-Pin_20-Pad20)*%
X162000000Y-93120000D03*
%TO.P,SAGSOKET1,21,Pin_21*%
%TO.N,/OUT_DC2-*%
X164540000Y-95660000D03*
%TO.P,SAGSOKET1,22,Pin_22*%
%TO.N,/OUT_DC2+*%
X162000000Y-95660000D03*
%TO.P,SAGSOKET1,23,Pin_23*%
%TO.N,/OUT_DC1-*%
X164540000Y-98200000D03*
%TO.P,SAGSOKET1,24,Pin_24*%
%TO.N,/OUT_DC1+*%
X162000000Y-98200000D03*
%TO.P,SAGSOKET1,25,Pin_25*%
%TO.N,unconnected-(SAGSOKET1-Pin_25-Pad25)*%
X164540000Y-100740000D03*
%TO.P,SAGSOKET1,26,Pin_26*%
%TO.N,/WBO_Heater*%
X162000000Y-100740000D03*
%TO.P,SAGSOKET1,27,Pin_27*%
%TO.N,/WBO_Vm*%
X164540000Y-103280000D03*
%TO.P,SAGSOKET1,28,Pin_28*%
%TO.N,/WBO_Rtrim*%
X162000000Y-103280000D03*
%TO.P,SAGSOKET1,29,Pin_29*%
%TO.N,/WBO_Un*%
X164540000Y-105820000D03*
%TO.P,SAGSOKET1,30,Pin_30*%
%TO.N,/WBO_Ip*%
X162000000Y-105820000D03*
%TO.P,SAGSOKET1,31,Pin_31*%
%TO.N,unconnected-(SAGSOKET1-Pin_31-Pad31)*%
X164540000Y-108360000D03*
%TO.P,SAGSOKET1,32,Pin_32*%
%TO.N,unconnected-(SAGSOKET1-Pin_32-Pad32)*%
X162000000Y-108360000D03*
%TO.P,SAGSOKET1,33,Pin_33*%
%TO.N,unconnected-(SAGSOKET1-Pin_33-Pad33)*%
X164540000Y-110900000D03*
%TO.P,SAGSOKET1,34,Pin_34*%
%TO.N,unconnected-(SAGSOKET1-Pin_34-Pad34)*%
X162000000Y-110900000D03*
%TO.P,SAGSOKET1,35,Pin_35*%
%TO.N,unconnected-(SAGSOKET1-Pin_35-Pad35)*%
X164540000Y-113440000D03*
%TO.P,SAGSOKET1,36,Pin_36*%
%TO.N,/12V_KEY*%
X162000000Y-113440000D03*
%TO.P,SAGSOKET1,37,Pin_37*%
%TO.N,+12V_RAW*%
X164540000Y-115980000D03*
%TO.P,SAGSOKET1,38,Pin_38*%
%TO.N,+5VP*%
X162000000Y-115980000D03*
%TO.P,SAGSOKET1,39,Pin_39*%
%TO.N,GND*%
X164540000Y-118520000D03*
%TO.P,SAGSOKET1,40,Pin_40*%
X162000000Y-118520000D03*
%TD*%
D26*
%TO.P,SOLSOKET1,1,Pin_1*%
%TO.N,/OUT_IGN1*%
X79000000Y-70220000D03*
D27*
%TO.P,SOLSOKET1,2,Pin_2*%
%TO.N,unconnected-(SOLSOKET1-Pin_2-Pad2)*%
X76460000Y-70220000D03*
%TO.P,SOLSOKET1,3,Pin_3*%
%TO.N,/OUT_IGN2*%
X79000000Y-72760000D03*
%TO.P,SOLSOKET1,4,Pin_4*%
%TO.N,unconnected-(SOLSOKET1-Pin_4-Pad4)*%
X76460000Y-72760000D03*
%TO.P,SOLSOKET1,5,Pin_5*%
%TO.N,/OUT_IGN3*%
X79000000Y-75300000D03*
%TO.P,SOLSOKET1,6,Pin_6*%
%TO.N,unconnected-(SOLSOKET1-Pin_6-Pad6)*%
X76460000Y-75300000D03*
%TO.P,SOLSOKET1,7,Pin_7*%
%TO.N,/OUT_IGN4*%
X79000000Y-77840000D03*
%TO.P,SOLSOKET1,8,Pin_8*%
%TO.N,unconnected-(SOLSOKET1-Pin_8-Pad8)*%
X76460000Y-77840000D03*
%TO.P,SOLSOKET1,9,Pin_9*%
%TO.N,/OUT_IGN5*%
X79000000Y-80380000D03*
%TO.P,SOLSOKET1,10,Pin_10*%
%TO.N,unconnected-(SOLSOKET1-Pin_10-Pad10)*%
X76460000Y-80380000D03*
%TO.P,SOLSOKET1,11,Pin_11*%
%TO.N,/OUT_IGN6*%
X79000000Y-82920000D03*
%TO.P,SOLSOKET1,12,Pin_12*%
%TO.N,unconnected-(SOLSOKET1-Pin_12-Pad12)*%
X76460000Y-82920000D03*
%TO.P,SOLSOKET1,13,Pin_13*%
%TO.N,unconnected-(SOLSOKET1-Pin_13-Pad13)*%
X79000000Y-85460000D03*
%TO.P,SOLSOKET1,14,Pin_14*%
%TO.N,unconnected-(SOLSOKET1-Pin_14-Pad14)*%
X76460000Y-85460000D03*
%TO.P,SOLSOKET1,15,Pin_15*%
%TO.N,unconnected-(SOLSOKET1-Pin_15-Pad15)*%
X79000000Y-88000000D03*
%TO.P,SOLSOKET1,16,Pin_16*%
%TO.N,unconnected-(SOLSOKET1-Pin_16-Pad16)*%
X76460000Y-88000000D03*
%TO.P,SOLSOKET1,17,Pin_17*%
%TO.N,unconnected-(SOLSOKET1-Pin_17-Pad17)*%
X79000000Y-90540000D03*
%TO.P,SOLSOKET1,18,Pin_18*%
%TO.N,/IN_AUX3*%
X76460000Y-90540000D03*
%TO.P,SOLSOKET1,19,Pin_19*%
%TO.N,/IN_AUX2*%
X79000000Y-93080000D03*
%TO.P,SOLSOKET1,20,Pin_20*%
%TO.N,/IN_AUX1*%
X76460000Y-93080000D03*
%TO.P,SOLSOKET1,21,Pin_21*%
%TO.N,/IN_BUTTON1*%
X79000000Y-95620000D03*
%TO.P,SOLSOKET1,22,Pin_22*%
%TO.N,/IN_BUTTON2*%
X76460000Y-95620000D03*
%TO.P,SOLSOKET1,23,Pin_23*%
%TO.N,/IN_BUTTON3*%
X79000000Y-98160000D03*
%TO.P,SOLSOKET1,24,Pin_24*%
%TO.N,unconnected-(SOLSOKET1-Pin_24-Pad24)*%
X76460000Y-98160000D03*
%TO.P,SOLSOKET1,25,Pin_25*%
%TO.N,unconnected-(SOLSOKET1-Pin_25-Pad25)*%
X79000000Y-100700000D03*
%TO.P,SOLSOKET1,26,Pin_26*%
%TO.N,unconnected-(SOLSOKET1-Pin_26-Pad26)*%
X76460000Y-100700000D03*
%TO.P,SOLSOKET1,27,Pin_27*%
%TO.N,unconnected-(SOLSOKET1-Pin_27-Pad27)*%
X79000000Y-103240000D03*
%TO.P,SOLSOKET1,28,Pin_28*%
%TO.N,unconnected-(SOLSOKET1-Pin_28-Pad28)*%
X76460000Y-103240000D03*
%TO.P,SOLSOKET1,29,Pin_29*%
%TO.N,unconnected-(SOLSOKET1-Pin_29-Pad29)*%
X79000000Y-105780000D03*
%TO.P,SOLSOKET1,30,Pin_30*%
%TO.N,unconnected-(SOLSOKET1-Pin_30-Pad30)*%
X76460000Y-105780000D03*
%TO.P,SOLSOKET1,31,Pin_31*%
%TO.N,unconnected-(SOLSOKET1-Pin_31-Pad31)*%
X79000000Y-108320000D03*
%TO.P,SOLSOKET1,32,Pin_32*%
%TO.N,unconnected-(SOLSOKET1-Pin_32-Pad32)*%
X76460000Y-108320000D03*
%TO.P,SOLSOKET1,33,Pin_33*%
%TO.N,/EGT-*%
X79000000Y-110860000D03*
%TO.P,SOLSOKET1,34,Pin_34*%
%TO.N,/EGT+*%
X76460000Y-110860000D03*
%TO.P,SOLSOKET1,35,Pin_35*%
%TO.N,/IN_KNOCK_RAW*%
X79000000Y-113400000D03*
%TO.P,SOLSOKET1,36,Pin_36*%
%TO.N,/IN_MAP*%
X76460000Y-113400000D03*
%TO.P,SOLSOKET1,37,Pin_37*%
%TO.N,/IN_FLEX*%
X79000000Y-115940000D03*
%TO.P,SOLSOKET1,38,Pin_38*%
%TO.N,+5VP*%
X76460000Y-115940000D03*
%TO.P,SOLSOKET1,39,Pin_39*%
%TO.N,GNDA*%
X79000000Y-118480000D03*
%TO.P,SOLSOKET1,40,Pin_40*%
X76460000Y-118480000D03*
%TD*%
D79*
%TO.N,GND*%
X147975000Y-93365000D02*
X147000001Y-93365000D01*
X147000001Y-95905000D02*
X147975000Y-95905000D01*
X155775000Y-85679999D02*
X155775000Y-83590001D01*
X156000001Y-69365000D02*
X155775000Y-69590001D01*
X146775000Y-71679999D02*
X147000001Y-71905000D01*
X147000001Y-86365000D02*
X146775000Y-86590001D01*
X156000001Y-83365000D02*
X156975000Y-83365000D01*
X156000001Y-76365000D02*
X156975000Y-76365000D01*
X155775000Y-78679999D02*
X155775000Y-76590001D01*
X155775000Y-76590001D02*
X156000001Y-76365000D01*
X156000001Y-85905000D02*
X155775000Y-85679999D01*
X147975000Y-69365000D02*
X147000001Y-69365000D01*
X146775000Y-88679999D02*
X147000001Y-88905000D01*
X156000001Y-78905000D02*
X155775000Y-78679999D01*
X146775000Y-93590001D02*
X146775000Y-95679999D01*
X146775000Y-69590001D02*
X146775000Y-71679999D01*
X146775000Y-95679999D02*
X147000001Y-95905000D01*
X147000001Y-69365000D02*
X146775000Y-69590001D01*
X156975000Y-69365000D02*
X156000001Y-69365000D01*
X156000001Y-71905000D02*
X156975000Y-71905000D01*
X156975000Y-85905000D02*
X156000001Y-85905000D01*
X148949999Y-88635000D02*
X147975000Y-88635000D01*
X147975000Y-86365000D02*
X147000001Y-86365000D01*
X156975000Y-78905000D02*
X156000001Y-78905000D01*
X147000001Y-88905000D02*
X147975000Y-88905000D01*
X147000001Y-93365000D02*
X146775000Y-93590001D01*
X155775000Y-71679999D02*
X156000001Y-71905000D01*
X155775000Y-69590001D02*
X155775000Y-71679999D01*
X155775000Y-83590001D02*
X156000001Y-83365000D01*
X146775000Y-86590001D02*
X146775000Y-88679999D01*
X147000001Y-71905000D02*
X147975000Y-71905000D01*
%TO.N,+12V_RAW*%
X157150000Y-92500000D02*
X157150000Y-90500000D01*
X157150000Y-94500000D02*
X157150000Y-92500000D01*
X157150000Y-90500000D02*
X157150000Y-88500000D01*
%TO.N,/OUT_LS1*%
X147975000Y-92095000D02*
X151095000Y-92095000D01*
X151095000Y-92095000D02*
X151500000Y-92500000D01*
X151500000Y-92500000D02*
X153850000Y-92500000D01*
%TO.N,/OUT_LS2*%
X153850000Y-94500000D02*
X148110000Y-94500000D01*
X148110000Y-94500000D02*
X147975000Y-94635000D01*
%TO.N,/OUT_LS3*%
X151619486Y-88500000D02*
X150000000Y-86880514D01*
X149595000Y-85095000D02*
X147975000Y-85095000D01*
X150000000Y-85500000D02*
X149595000Y-85095000D01*
X150000000Y-86880514D02*
X150000000Y-85500000D01*
X153850000Y-88500000D02*
X151619486Y-88500000D01*
%TO.N,/OUT_LS4*%
X150330222Y-87635000D02*
X153195222Y-90500000D01*
X153195222Y-90500000D02*
X153850000Y-90500000D01*
X147975000Y-87635000D02*
X150330222Y-87635000D01*
%TO.N,/OUT_IGN6*%
X79000000Y-82920000D02*
X81567500Y-82920000D01*
X81567500Y-82920000D02*
X84987500Y-79500000D01*
%TO.N,/OUT_IGN5*%
X82107500Y-80380000D02*
X84987500Y-77500000D01*
X79000000Y-80380000D02*
X82107500Y-80380000D01*
%TO.N,/OUT_IGN4*%
X79000000Y-77840000D02*
X82647500Y-77840000D01*
X82647500Y-77840000D02*
X84987500Y-75500000D01*
%TO.N,/OUT_IGN3*%
X83187500Y-75300000D02*
X84987500Y-73500000D01*
X79000000Y-75300000D02*
X83187500Y-75300000D01*
%TO.N,/OUT_IGN2*%
X79000000Y-72760000D02*
X83727500Y-72760000D01*
X83727500Y-72760000D02*
X84987500Y-71500000D01*
%TO.N,/OUT_IGN1*%
X84267500Y-70220000D02*
X84987500Y-69500000D01*
X79000000Y-70220000D02*
X84267500Y-70220000D01*
%TO.N,/OUT_INJ6*%
X159705000Y-77635000D02*
X162000000Y-75340000D01*
X156975000Y-77635000D02*
X159705000Y-77635000D01*
%TO.N,/OUT_INJ5*%
X163465000Y-74265000D02*
X164540000Y-75340000D01*
X156975000Y-75095000D02*
X157805000Y-74265000D01*
X157805000Y-74265000D02*
X163465000Y-74265000D01*
%TO.N,/OUT_INJ4*%
X161000000Y-73500000D02*
X150500000Y-73500000D01*
X150000000Y-71685001D02*
X148949999Y-70635000D01*
X162000000Y-72800000D02*
X161700000Y-72800000D01*
X150000000Y-73000000D02*
X150000000Y-71685001D01*
X150500000Y-73500000D02*
X150000000Y-73000000D01*
X148949999Y-70635000D02*
X147975000Y-70635000D01*
X161700000Y-72800000D02*
X161000000Y-73500000D01*
%TO.N,/OUT_INJ3*%
X149500000Y-68095000D02*
X147975000Y-68095000D01*
X150300000Y-68895000D02*
X149500000Y-68095000D01*
X151000000Y-73000000D02*
X150300000Y-72300000D01*
X160500000Y-71500000D02*
X159000000Y-73000000D01*
X163240000Y-71500000D02*
X160500000Y-71500000D01*
X164540000Y-72800000D02*
X163240000Y-71500000D01*
X159000000Y-73000000D02*
X151000000Y-73000000D01*
X150300000Y-72300000D02*
X150300000Y-68895000D01*
%TO.N,/OUT_INJ2*%
X161625000Y-70635000D02*
X162000000Y-70260000D01*
X156975000Y-70635000D02*
X161625000Y-70635000D01*
%TO.N,/OUT_INJ1*%
X162375000Y-68095000D02*
X164540000Y-70260000D01*
X156975000Y-68095000D02*
X162375000Y-68095000D01*
%TO.N,/LS2*%
X141665000Y-94635000D02*
X143025000Y-94635000D01*
X140800000Y-95500000D02*
X141665000Y-94635000D01*
%TO.N,/LS1*%
X140800000Y-92000000D02*
X142930000Y-92000000D01*
X142930000Y-92000000D02*
X143025000Y-92095000D01*
%TO.N,/INJ6*%
X132500000Y-67000000D02*
X132500000Y-67700000D01*
X130325000Y-68175000D02*
X131500000Y-67000000D01*
X130325000Y-69875010D02*
X130325000Y-68175000D01*
X131815000Y-70315000D02*
X139135000Y-77635000D01*
X131500000Y-67000000D02*
X132500000Y-67000000D01*
X128300000Y-71900010D02*
X130325000Y-69875010D01*
X132500000Y-67700000D02*
X131815000Y-68385000D01*
X131815000Y-68385000D02*
X131815000Y-70315000D01*
X139135000Y-77635000D02*
X152025000Y-77635000D01*
%TO.N,/INJ5*%
X150000000Y-76835000D02*
X150000000Y-76000000D01*
X131500000Y-66525000D02*
X131500000Y-66500000D01*
X131500000Y-66500000D02*
X133500000Y-66500000D01*
X130025000Y-68000000D02*
X131500000Y-66525000D01*
X149500000Y-77335000D02*
X150000000Y-76835000D01*
X150905000Y-75095000D02*
X152025000Y-75095000D01*
X133315000Y-68385000D02*
X133315000Y-71315000D01*
X150000000Y-76000000D02*
X150905000Y-75095000D01*
X134000000Y-67700000D02*
X133315000Y-68385000D01*
X130025000Y-69375010D02*
X130025000Y-68000000D01*
X134000000Y-67000000D02*
X134000000Y-67700000D01*
X128300000Y-71100010D02*
X130025000Y-69375010D01*
X133500000Y-66500000D02*
X134000000Y-67000000D01*
X133315000Y-71315000D02*
X139335000Y-77335000D01*
X139335000Y-77335000D02*
X149500000Y-77335000D01*
%TO.N,/INJ4*%
X135500000Y-73000000D02*
X139000000Y-73000000D01*
X129725000Y-68875010D02*
X129725000Y-67775000D01*
X135000000Y-66000000D02*
X135500000Y-66500000D01*
X139000000Y-73000000D02*
X141365000Y-70635000D01*
X135500000Y-67700000D02*
X134815000Y-68385000D01*
X135500000Y-66500000D02*
X135500000Y-67700000D01*
X131500000Y-66000000D02*
X135000000Y-66000000D01*
X141365000Y-70635000D02*
X143025000Y-70635000D01*
X134815000Y-68385000D02*
X134815000Y-72315000D01*
X134815000Y-72315000D02*
X135500000Y-73000000D01*
X129725000Y-67775000D02*
X131500000Y-66000000D01*
X128300000Y-70300010D02*
X129725000Y-68875010D01*
%TO.N,/INJ3*%
X136500000Y-72700000D02*
X138800000Y-72700000D01*
X142050001Y-68095000D02*
X143025000Y-68095000D01*
X136185000Y-72385000D02*
X136500000Y-72700000D01*
X136500000Y-65500000D02*
X137000000Y-66000000D01*
X131500000Y-65500000D02*
X136500000Y-65500000D01*
X137000000Y-66000000D02*
X137000000Y-67700000D01*
X141500000Y-70000000D02*
X141500000Y-68645001D01*
X129425000Y-68375010D02*
X129425000Y-67575000D01*
X136185000Y-68515000D02*
X136185000Y-72385000D01*
X138800000Y-72700000D02*
X141500000Y-70000000D01*
X128300000Y-69500010D02*
X129425000Y-68375010D01*
X129425000Y-67575000D02*
X131500000Y-65500000D01*
X141500000Y-68645001D02*
X142050001Y-68095000D01*
X137000000Y-67700000D02*
X136185000Y-68515000D01*
%TO.N,/INJ2*%
X150500000Y-66500000D02*
X150600000Y-66600000D01*
X138500000Y-67700000D02*
X137685000Y-68515000D01*
X137900000Y-72400000D02*
X138600000Y-72400000D01*
X128299990Y-68700020D02*
X129125000Y-67875010D01*
X137500000Y-65000000D02*
X138500000Y-66000000D01*
X138500000Y-66000000D02*
X138500000Y-67700000D01*
X150600000Y-66600000D02*
X150600000Y-70500000D01*
X129125000Y-67875010D02*
X129125000Y-67375000D01*
X150600000Y-70500000D02*
X150735000Y-70635000D01*
X131500000Y-65000000D02*
X137500000Y-65000000D01*
X141624264Y-66500000D02*
X150500000Y-66500000D01*
X138600000Y-72400000D02*
X141200000Y-69800000D01*
X137685000Y-68515000D02*
X137685000Y-72185000D01*
X137685000Y-72185000D02*
X137900000Y-72400000D01*
X150735000Y-70635000D02*
X152025000Y-70635000D01*
X141200000Y-66924264D02*
X141624264Y-66500000D01*
X129125000Y-67375000D02*
X131500000Y-65000000D01*
X141200000Y-69800000D02*
X141200000Y-66924264D01*
%TO.N,/INJ1*%
X140000000Y-66000000D02*
X140000000Y-67700000D01*
X152025000Y-68095000D02*
X152025000Y-66525000D01*
X138500000Y-64500000D02*
X140000000Y-66000000D01*
X152025000Y-66525000D02*
X151500000Y-66000000D01*
X141700000Y-66000000D02*
X140000000Y-67700000D01*
X131500000Y-64500000D02*
X138500000Y-64500000D01*
X128825000Y-67175000D02*
X131500000Y-64500000D01*
X151500000Y-66000000D02*
X141700000Y-66000000D01*
X128550010Y-67900010D02*
X128825000Y-67625020D01*
X128300000Y-67900010D02*
X128550010Y-67900010D01*
X128825000Y-67625020D02*
X128825000Y-67175000D01*
%TO.N,/LS3*%
X140800000Y-85000000D02*
X142930000Y-85000000D01*
X142930000Y-85000000D02*
X143025000Y-85095000D01*
%TO.N,/LS4*%
X141665000Y-87635000D02*
X143025000Y-87635000D01*
X140800000Y-88500000D02*
X141665000Y-87635000D01*
%TO.N,/IGN6*%
X89900010Y-79500000D02*
X94899990Y-74500020D01*
X89575000Y-79500000D02*
X89900010Y-79500000D01*
%TO.N,/IGN5*%
X89575000Y-77500000D02*
X90900010Y-77500000D01*
X90900010Y-77500000D02*
X94899990Y-73500020D01*
%TO.N,/IGN4*%
X89575000Y-75500000D02*
X91900010Y-75500000D01*
X94899970Y-72500000D02*
X94899990Y-72500020D01*
X91900010Y-75500000D02*
X94899990Y-72500020D01*
%TO.N,/IGN3*%
X89575000Y-73500000D02*
X92900010Y-73500000D01*
X92900010Y-73500000D02*
X94899990Y-71500020D01*
%TO.N,/IGN2*%
X89575000Y-71500000D02*
X93900010Y-71500000D01*
X93900010Y-71500000D02*
X94899990Y-70500020D01*
%TO.N,/IGN1*%
X89575000Y-69500000D02*
X94899970Y-69500000D01*
X94899970Y-69500000D02*
X94899990Y-69500020D01*
%TO.N,Net-(F5-Pad1)*%
X88000000Y-71500000D02*
X86587500Y-71500000D01*
%TO.N,Net-(F6-Pad1)*%
X88000000Y-69500000D02*
X86587500Y-69500000D01*
%TO.N,Net-(F7-Pad1)*%
X88000000Y-73500000D02*
X86587500Y-73500000D01*
%TO.N,Net-(F8-Pad1)*%
X88000000Y-75500000D02*
X86587500Y-75500000D01*
%TO.N,Net-(F9-Pad1)*%
X88000000Y-77500000D02*
X86587500Y-77500000D01*
%TO.N,Net-(F10-Pad1)*%
X88000000Y-79500000D02*
X86587500Y-79500000D01*
%TO.N,/OUT_LS_HOT1*%
X157185000Y-84425000D02*
X156975000Y-84635000D01*
X163075000Y-84425000D02*
X157185000Y-84425000D01*
X164540000Y-82960000D02*
X163075000Y-84425000D01*
%TO.N,/OUT_LS_HOT2*%
X161135000Y-82095000D02*
X162000000Y-82960000D01*
X156975000Y-82095000D02*
X161135000Y-82095000D01*
%TD*%
M02*
