%TF.GenerationSoftware,KiCad,Pcbnew,8.0.7*%
%TF.CreationDate,2024-12-26T23:24:23+03:00*%
%TF.ProjectId,uaefi,75616566-692e-46b6-9963-61645f706362,D*%
%TF.SameCoordinates,Original*%
%TF.FileFunction,Copper,L3,Inr*%
%TF.FilePolarity,Positive*%
%FSLAX46Y46*%
G04 Gerber Fmt 4.6, Leading zero omitted, Abs format (unit mm)*
G04 Created by KiCad (PCBNEW 8.0.7) date 2024-12-26 23:24:23*
%MOMM*%
%LPD*%
G01*
G04 APERTURE LIST*
G04 Aperture macros list*
%AMRoundRect*
0 Rectangle with rounded corners*
0 $1 Rounding radius*
0 $2 $3 $4 $5 $6 $7 $8 $9 X,Y pos of 4 corners*
0 Add a 4 corners polygon primitive as box body*
4,1,4,$2,$3,$4,$5,$6,$7,$8,$9,$2,$3,0*
0 Add four circle primitives for the rounded corners*
1,1,$1+$1,$2,$3*
1,1,$1+$1,$4,$5*
1,1,$1+$1,$6,$7*
1,1,$1+$1,$8,$9*
0 Add four rect primitives between the rounded corners*
20,1,$1+$1,$2,$3,$4,$5,0*
20,1,$1+$1,$4,$5,$6,$7,0*
20,1,$1+$1,$6,$7,$8,$9,0*
20,1,$1+$1,$8,$9,$2,$3,0*%
G04 Aperture macros list end*
%TA.AperFunction,ComponentPad*%
%ADD10C,1.500000*%
%TD*%
%TA.AperFunction,ComponentPad*%
%ADD11C,0.600000*%
%TD*%
%TA.AperFunction,Conductor*%
%ADD12O,3.300000X0.200000*%
%TD*%
%TA.AperFunction,Conductor*%
%ADD13O,10.200000X0.200000*%
%TD*%
%TA.AperFunction,Conductor*%
%ADD14O,0.300000X0.200000*%
%TD*%
%TA.AperFunction,Conductor*%
%ADD15O,0.200000X17.000000*%
%TD*%
%TA.AperFunction,Conductor*%
%ADD16O,0.200000X15.400000*%
%TD*%
%TA.AperFunction,Conductor*%
%ADD17O,4.800000X0.200000*%
%TD*%
%TA.AperFunction,Conductor*%
%ADD18O,2.600000X0.200000*%
%TD*%
%TA.AperFunction,Conductor*%
%ADD19O,1.000000X0.200000*%
%TD*%
%TA.AperFunction,Conductor*%
%ADD20O,1.500000X0.200000*%
%TD*%
%TA.AperFunction,ComponentPad*%
%ADD21R,1.700000X1.700000*%
%TD*%
%TA.AperFunction,ComponentPad*%
%ADD22O,1.700000X1.700000*%
%TD*%
%TA.AperFunction,ComponentPad*%
%ADD23RoundRect,0.250000X-0.350000X-0.625000X0.350000X-0.625000X0.350000X0.625000X-0.350000X0.625000X0*%
%TD*%
%TA.AperFunction,ComponentPad*%
%ADD24O,1.200000X1.750000*%
%TD*%
%TA.AperFunction,Conductor*%
%ADD25O,0.200000X1.225000*%
%TD*%
%TA.AperFunction,Conductor*%
%ADD26O,9.300000X0.200000*%
%TD*%
%TA.AperFunction,ComponentPad*%
%ADD27C,1.524000*%
%TD*%
%TA.AperFunction,ComponentPad*%
%ADD28C,0.599999*%
%TD*%
%TA.AperFunction,Conductor*%
%ADD29R,0.200000X3.700000*%
%TD*%
%TA.AperFunction,Conductor*%
%ADD30R,0.200000X0.400000*%
%TD*%
%TA.AperFunction,Conductor*%
%ADD31R,0.200000X1.600000*%
%TD*%
%TA.AperFunction,Conductor*%
%ADD32R,0.200000X9.700000*%
%TD*%
%TA.AperFunction,Conductor*%
%ADD33R,0.200000X2.300000*%
%TD*%
%TA.AperFunction,Conductor*%
%ADD34R,1.400000X0.200000*%
%TD*%
%TA.AperFunction,Conductor*%
%ADD35R,6.400000X0.200000*%
%TD*%
%TA.AperFunction,Conductor*%
%ADD36R,1.700000X0.200000*%
%TD*%
%TA.AperFunction,Conductor*%
%ADD37R,3.300000X0.200000*%
%TD*%
%TA.AperFunction,Conductor*%
%ADD38R,0.200000X7.000000*%
%TD*%
%TA.AperFunction,Conductor*%
%ADD39R,0.200000X3.300000*%
%TD*%
%TA.AperFunction,Conductor*%
%ADD40R,0.200000X6.300000*%
%TD*%
%TA.AperFunction,ComponentPad*%
%ADD41C,0.700000*%
%TD*%
%TA.AperFunction,Conductor*%
%ADD42R,0.250000X1.100000*%
%TD*%
%TA.AperFunction,Conductor*%
%ADD43R,0.250000X0.980000*%
%TD*%
%TA.AperFunction,Conductor*%
%ADD44R,0.250000X6.300000*%
%TD*%
%TA.AperFunction,Conductor*%
%ADD45R,27.600000X0.250000*%
%TD*%
%TA.AperFunction,Conductor*%
%ADD46R,0.250000X8.750000*%
%TD*%
%TA.AperFunction,Conductor*%
%ADD47R,0.250000X0.950000*%
%TD*%
%TA.AperFunction,Conductor*%
%ADD48R,0.250000X6.185000*%
%TD*%
%TA.AperFunction,Conductor*%
%ADD49R,0.250000X1.115000*%
%TD*%
%TA.AperFunction,Conductor*%
%ADD50R,14.275000X0.250000*%
%TD*%
%TA.AperFunction,Conductor*%
%ADD51R,15.100000X0.250000*%
%TD*%
%TA.AperFunction,Conductor*%
%ADD52R,0.250000X5.175000*%
%TD*%
G04 APERTURE END LIST*
D10*
%TO.N,/VBAT*%
%TO.C,M1*%
X132500000Y-47250002D03*
%TO.N,unconnected-(M1-V12-PadE2)*%
X138899997Y-47250002D03*
%TO.N,/VIGN*%
X140800000Y-47250002D03*
%TO.N,+5V*%
X145100000Y-47250002D03*
D11*
%TO.N,/PWR_EN*%
X147499997Y-46800003D03*
%TO.N,Net-(M1-PG_5VP)*%
X148499998Y-46800003D03*
D12*
%TO.N,GND*%
X136350000Y-63399998D03*
D13*
X144849998Y-63399998D03*
D14*
X151950000Y-63399998D03*
D15*
X152000000Y-55000000D03*
D16*
X131400000Y-54199999D03*
D10*
X151350000Y-47250002D03*
D14*
X131450000Y-46600001D03*
D17*
X135649998Y-46600001D03*
D18*
X143000000Y-46600001D03*
D19*
X146499997Y-46600001D03*
D20*
X149799998Y-46600001D03*
D10*
%TO.N,+12V_RAW*%
X132049998Y-62749999D03*
%TO.N,/IN_VIGN*%
X133899997Y-62749999D03*
%TO.N,+12V_RAW*%
X138850000Y-62749999D03*
%TO.N,+5VP*%
X150899998Y-62749999D03*
%TD*%
D21*
%TO.N,/BT_TX*%
%TO.C,BLUETOOTH1*%
X164000000Y-46960000D03*
D22*
%TO.N,/BT_RX*%
X164000000Y-49500000D03*
%TO.N,GND*%
X164000000Y-52040000D03*
%TO.N,+5VA*%
X164000000Y-54580000D03*
%TD*%
D23*
%TO.N,GND*%
%TO.C,USB1*%
X157500000Y-61000000D03*
D24*
%TO.N,/USB+*%
X159500000Y-61000000D03*
%TO.N,/USB-*%
X161500000Y-61000000D03*
%TO.N,/VBUS*%
X163500000Y-61000000D03*
%TD*%
D11*
%TO.N,+5VA*%
%TO.C,M2*%
X91475000Y-85425002D03*
D25*
%TO.N,GND*%
X82575000Y-87400002D03*
D26*
X87125000Y-84825002D03*
X87125000Y-87925002D03*
D11*
X91475000Y-86375002D03*
%TO.N,/IN_KNOCK*%
X91475000Y-87325000D03*
%TO.N,/IN_KNOCK_RAW*%
X82775000Y-86325002D03*
%TO.N,/VREF1*%
X82775000Y-85425002D03*
%TD*%
D27*
%TO.N,/12V_KEY*%
%TO.C,F1*%
X154450000Y-113500000D03*
%TO.N,/IN_VIGN*%
X149550000Y-113500000D03*
%TD*%
D28*
%TO.N,+5VA*%
%TO.C,CAN1*%
X122137499Y-100543338D03*
%TO.N,+3.3VA*%
X121262497Y-100018338D03*
%TO.N,/MCU-CAN2TX*%
X122437501Y-99268340D03*
%TO.N,/MCU-CAN2RX*%
X122362498Y-95718339D03*
%TD*%
D11*
%TO.N,+5VA*%
%TO.C,MCU1*%
X128299990Y-84200010D03*
%TO.N,unconnected-(MCU1-GNDA-PadE2)*%
X128300000Y-79900010D03*
%TO.N,unconnected-(MCU1-I2C_SCL_(PB10)-PadE3)*%
X128300000Y-79100020D03*
%TO.N,unconnected-(MCU1-I2C_SDA_(PB11)-PadE4)*%
X128300000Y-78300010D03*
%TO.N,/VIGN*%
X128300000Y-77500010D03*
%TO.N,/MCU-CAN2RX*%
X128300000Y-76700010D03*
%TO.N,/MCU-CAN2TX*%
X128300000Y-75900010D03*
%TO.N,/DC1_DIS*%
X128300000Y-75100010D03*
%TO.N,/DC2_DIR*%
X128300000Y-74300010D03*
%TO.N,/LS2*%
X128300000Y-73500010D03*
%TO.N,/LS1*%
X128300000Y-72700010D03*
%TO.N,/INJ6*%
X128300000Y-71900010D03*
%TO.N,/INJ5*%
X128300000Y-71100010D03*
%TO.N,/INJ4*%
X128300000Y-70300010D03*
%TO.N,/INJ3*%
X128300000Y-69500010D03*
%TO.N,/INJ2*%
X128299990Y-68700020D03*
%TO.N,/INJ1*%
X128300000Y-67900010D03*
%TO.N,/LS3*%
X128300000Y-66500010D03*
%TO.N,/LS4*%
X128300000Y-65700020D03*
%TO.N,/DC1_PWM*%
X128300000Y-64900020D03*
%TO.N,/DC1_DIR*%
X128300000Y-64100020D03*
%TO.N,/DC2_PWM*%
X128300000Y-63300020D03*
%TO.N,unconnected-(MCU1-OUT_PWM6_(PD14)-PadE23)*%
X128300000Y-62500010D03*
D29*
%TO.N,GND*%
X94699990Y-57650020D03*
D30*
X94699990Y-60700010D03*
D29*
X94699990Y-63750020D03*
D31*
X94699990Y-68200010D03*
D32*
X94699990Y-81850010D03*
D33*
X94699990Y-89850010D03*
D34*
X96500000Y-90900020D03*
D35*
X98599990Y-55100020D03*
D36*
X104649990Y-55100020D03*
D37*
X108149990Y-55100020D03*
D34*
X117899990Y-55100020D03*
D35*
X125399990Y-90900020D03*
D38*
X128500000Y-58500000D03*
D30*
X128500000Y-67200020D03*
D39*
X128500000Y-82050020D03*
D40*
X128500000Y-87850020D03*
D11*
%TO.N,/VBUS*%
X127900000Y-55300010D03*
%TO.N,/USB-*%
X127100000Y-55300010D03*
%TO.N,/USB+*%
X126300000Y-55300010D03*
%TO.N,/DC2_DIS*%
X125499990Y-55300010D03*
%TO.N,unconnected-(MCU1-SWDIO_(PA13)-PadN5)*%
X124700000Y-55300010D03*
%TO.N,unconnected-(MCU1-SWCLK_(PA14)-PadN6)*%
X123900000Y-55300010D03*
%TO.N,unconnected-(MCU1-nReset-PadN7)*%
X123100000Y-55300010D03*
%TO.N,unconnected-(MCU1-SWO_(PB3)-PadN8)*%
X122299990Y-55300010D03*
%TO.N,/EGT/SPI_CS*%
X121500000Y-55300020D03*
%TO.N,/EGT/SPI_SCK*%
X120700000Y-55300020D03*
%TO.N,/EGT/SPI_SO*%
X119900000Y-55300020D03*
%TO.N,/PG_5VP*%
X119100000Y-55300020D03*
%TO.N,/BT_TX*%
X116699990Y-55300020D03*
%TO.N,/BT_RX*%
X115899990Y-55300020D03*
%TO.N,unconnected-(MCU1-LED_GREEN-PadN14a)*%
X115100000Y-55300010D03*
%TO.N,unconnected-(MCU1-LED_YELLOW-PadN14b)*%
X114299990Y-55300010D03*
%TO.N,+3.3VA*%
X113499990Y-55300010D03*
%TO.N,unconnected-(MCU1-BOOT0-PadN16)*%
X112699990Y-55300010D03*
%TO.N,/VBAT*%
X111899990Y-55300010D03*
%TO.N,unconnected-(MCU1-UART8_RX_(PE0)-PadN18)*%
X111099990Y-55300020D03*
%TO.N,/VR_MAX9924*%
X110299990Y-55300020D03*
%TO.N,/PWR_EN*%
X105999990Y-55300020D03*
%TO.N,+3.3V*%
X103299990Y-55300020D03*
%TO.N,+5V*%
X102300000Y-55300020D03*
%TO.N,unconnected-(MCU1-V33-PadN23)*%
X94899990Y-55300020D03*
%TO.N,/IN_BUTTON3*%
X121700010Y-90700020D03*
%TO.N,/IN_HALL3*%
X120500000Y-90700020D03*
%TO.N,/IN_HALL2*%
X119300000Y-90700020D03*
%TO.N,/IN_HALL1*%
X118100000Y-90700020D03*
%TO.N,unconnected-(MCU1-VREF2-PadS5)*%
X116900000Y-90700020D03*
%TO.N,/IN_VMAIN*%
X115700000Y-90700020D03*
%TO.N,/IN_AUX3*%
X114500000Y-90700020D03*
%TO.N,/IN_PPS2*%
X113300000Y-90700020D03*
%TO.N,/IN_TPS2*%
X112100000Y-90700020D03*
%TO.N,/IN_AUX2*%
X110900000Y-90700020D03*
%TO.N,/IN_AUX1*%
X109700000Y-90700020D03*
%TO.N,/INTERNAL_MAP*%
X108500000Y-90700020D03*
%TO.N,/IN_MAP*%
X107300000Y-90700020D03*
%TO.N,/IN_BUTTON1*%
X106100000Y-90700020D03*
%TO.N,/ADC3*%
X104900000Y-90700020D03*
%TO.N,/IN_BUTTON2*%
X103700000Y-90700020D03*
%TO.N,/IN_FLEX*%
X102500000Y-90700020D03*
%TO.N,/IN_TPS1*%
X101299990Y-90700020D03*
%TO.N,/IN_PPS1*%
X100099990Y-90700020D03*
%TO.N,/IN_IAT*%
X98899990Y-90700020D03*
%TO.N,/IN_CLT*%
X97699990Y-90700020D03*
%TO.N,/VREF1*%
X95299990Y-90700020D03*
%TO.N,GNDA*%
X94899990Y-88200010D03*
%TO.N,+5VA*%
X94899990Y-87200010D03*
%TO.N,/LS_HOT2*%
X94899990Y-76500020D03*
%TO.N,/LS_HOT1*%
X94899990Y-75500010D03*
%TO.N,/IGN6*%
X94899990Y-74500020D03*
%TO.N,/IGN5*%
X94899990Y-73500020D03*
%TO.N,/IGN4*%
X94899990Y-72500020D03*
%TO.N,/IGN3*%
X94899990Y-71500020D03*
%TO.N,/IGN2*%
X94899990Y-70500020D03*
%TO.N,/IGN1*%
X94899990Y-69500020D03*
%TO.N,/CAN1+*%
X94899990Y-66900020D03*
%TO.N,/CAN1-*%
X94899990Y-66100020D03*
%TO.N,unconnected-(MCU1-V33_REF-PadW13)*%
X94899990Y-61400010D03*
%TO.N,unconnected-(MCU1-V5A_SWITCHABLE-PadW14)*%
X94899990Y-60000020D03*
%TD*%
D27*
%TO.N,Net-(M1-PG_5VP)*%
%TO.C,R4*%
X127905000Y-46500000D03*
%TO.N,/PG_5VP*%
X124095000Y-46500000D03*
%TD*%
%TO.N,+12V*%
%TO.C,F4*%
X149550000Y-118500000D03*
%TO.N,/DC Driver 1/PWR*%
X154450000Y-118500000D03*
%TD*%
%TO.N,+12V*%
%TO.C,F2*%
X149550000Y-116000000D03*
%TO.N,+12V_RAW*%
X154450000Y-116000000D03*
%TD*%
%TO.N,+12V*%
%TO.C,F3*%
X149550000Y-121000000D03*
%TO.N,/DC Driver 2/PWR*%
X154450000Y-121000000D03*
%TD*%
D41*
%TO.N,/WBO_Un*%
%TO.C,M3*%
X158425000Y-109775000D03*
%TO.N,/WBO_Vm*%
X158425000Y-106775000D03*
%TO.N,/WBO_Ip*%
X158425000Y-107775000D03*
%TO.N,/WBO_Rtrim*%
X158425000Y-108775000D03*
D42*
%TO.N,GND*%
X131450000Y-97925000D03*
X131450000Y-97925000D03*
D43*
X131450000Y-102265000D03*
D44*
X131450000Y-108225000D03*
D45*
X145125000Y-97500000D03*
X145125000Y-111250000D03*
D46*
X158800000Y-101750000D03*
D47*
X158800000Y-110900000D03*
D41*
%TO.N,+5VA*%
X131833800Y-100125000D03*
%TO.N,unconnected-(M3-CAN_VIO-PadW2)*%
X131833800Y-101125000D03*
%TO.N,/CAN1-*%
X131833800Y-104421000D03*
%TO.N,/CAN1+*%
X131833800Y-103405000D03*
%TO.N,unconnected-(M3-VDDA-PadW9)*%
X131833800Y-99125000D03*
%TD*%
D11*
%TO.N,unconnected-(M4-NC-PadE1)*%
%TO.C,M4*%
X90137500Y-58200000D03*
%TO.N,unconnected-(M4-NC-PadE2)*%
X90137500Y-59400000D03*
%TO.N,/VR_MAX9924*%
X90137500Y-57000000D03*
%TO.N,+5VA*%
X90137500Y-55800000D03*
D48*
%TO.N,GND*%
X75487500Y-58467500D03*
D49*
X75487500Y-64517500D03*
D50*
X82500000Y-55500000D03*
D51*
X82912500Y-64950000D03*
D52*
X90337500Y-62487500D03*
D11*
%TO.N,/VR_MAX9924-*%
X75712500Y-62260000D03*
%TO.N,/VR_MAX9924+*%
X75712500Y-63260000D03*
%TD*%
D21*
%TO.N,/OUT_INJ1*%
%TO.C,SAGSOKET1*%
X164540000Y-70260000D03*
D22*
%TO.N,/OUT_INJ2*%
X162000000Y-70260000D03*
%TO.N,/OUT_INJ3*%
X164540000Y-72800000D03*
%TO.N,/OUT_INJ4*%
X162000000Y-72800000D03*
%TO.N,/OUT_INJ5*%
X164540000Y-75340000D03*
%TO.N,/OUT_INJ6*%
X162000000Y-75340000D03*
%TO.N,/OUT_LS1*%
X164540000Y-77880000D03*
%TO.N,/OUT_LS2*%
X162000000Y-77880000D03*
%TO.N,/OUT_LS3*%
X164540000Y-80420000D03*
%TO.N,/OUT_LS4*%
X162000000Y-80420000D03*
%TO.N,/OUT_LS_HOT1*%
X164540000Y-82960000D03*
%TO.N,/OUT_LS_HOT2*%
X162000000Y-82960000D03*
%TO.N,unconnected-(SAGSOKET1-Pin_13-Pad13)*%
X164540000Y-85500000D03*
%TO.N,unconnected-(SAGSOKET1-Pin_14-Pad14)*%
X162000000Y-85500000D03*
%TO.N,unconnected-(SAGSOKET1-Pin_15-Pad15)*%
X164540000Y-88040000D03*
%TO.N,unconnected-(SAGSOKET1-Pin_16-Pad16)*%
X162000000Y-88040000D03*
%TO.N,unconnected-(SAGSOKET1-Pin_17-Pad17)*%
X164540000Y-90580000D03*
%TO.N,unconnected-(SAGSOKET1-Pin_18-Pad18)*%
X162000000Y-90580000D03*
%TO.N,unconnected-(SAGSOKET1-Pin_19-Pad19)*%
X164540000Y-93120000D03*
%TO.N,unconnected-(SAGSOKET1-Pin_20-Pad20)*%
X162000000Y-93120000D03*
%TO.N,/OUT_DC2-*%
X164540000Y-95660000D03*
%TO.N,/OUT_DC2+*%
X162000000Y-95660000D03*
%TO.N,/OUT_DC1-*%
X164540000Y-98200000D03*
%TO.N,/OUT_DC1+*%
X162000000Y-98200000D03*
%TO.N,unconnected-(SAGSOKET1-Pin_25-Pad25)*%
X164540000Y-100740000D03*
%TO.N,/WBO_Heater*%
X162000000Y-100740000D03*
%TO.N,/WBO_Vm*%
X164540000Y-103280000D03*
%TO.N,/WBO_Rtrim*%
X162000000Y-103280000D03*
%TO.N,/WBO_Un*%
X164540000Y-105820000D03*
%TO.N,/WBO_Ip*%
X162000000Y-105820000D03*
%TO.N,unconnected-(SAGSOKET1-Pin_31-Pad31)*%
X164540000Y-108360000D03*
%TO.N,unconnected-(SAGSOKET1-Pin_32-Pad32)*%
X162000000Y-108360000D03*
%TO.N,unconnected-(SAGSOKET1-Pin_33-Pad33)*%
X164540000Y-110900000D03*
%TO.N,unconnected-(SAGSOKET1-Pin_34-Pad34)*%
X162000000Y-110900000D03*
%TO.N,unconnected-(SAGSOKET1-Pin_35-Pad35)*%
X164540000Y-113440000D03*
%TO.N,/12V_KEY*%
X162000000Y-113440000D03*
%TO.N,+12V_RAW*%
X164540000Y-115980000D03*
%TO.N,+5VP*%
X162000000Y-115980000D03*
%TO.N,GND*%
X164540000Y-118520000D03*
X162000000Y-118520000D03*
%TD*%
D21*
%TO.N,/OUT_IGN1*%
%TO.C,SOLSOKET1*%
X79000000Y-70220000D03*
D22*
%TO.N,unconnected-(SOLSOKET1-Pin_2-Pad2)*%
X76460000Y-70220000D03*
%TO.N,/OUT_IGN2*%
X79000000Y-72760000D03*
%TO.N,unconnected-(SOLSOKET1-Pin_4-Pad4)*%
X76460000Y-72760000D03*
%TO.N,/OUT_IGN3*%
X79000000Y-75300000D03*
%TO.N,unconnected-(SOLSOKET1-Pin_6-Pad6)*%
X76460000Y-75300000D03*
%TO.N,/OUT_IGN4*%
X79000000Y-77840000D03*
%TO.N,unconnected-(SOLSOKET1-Pin_8-Pad8)*%
X76460000Y-77840000D03*
%TO.N,/OUT_IGN5*%
X79000000Y-80380000D03*
%TO.N,unconnected-(SOLSOKET1-Pin_10-Pad10)*%
X76460000Y-80380000D03*
%TO.N,/OUT_IGN6*%
X79000000Y-82920000D03*
%TO.N,unconnected-(SOLSOKET1-Pin_12-Pad12)*%
X76460000Y-82920000D03*
%TO.N,unconnected-(SOLSOKET1-Pin_13-Pad13)*%
X79000000Y-85460000D03*
%TO.N,unconnected-(SOLSOKET1-Pin_14-Pad14)*%
X76460000Y-85460000D03*
%TO.N,unconnected-(SOLSOKET1-Pin_15-Pad15)*%
X79000000Y-88000000D03*
%TO.N,unconnected-(SOLSOKET1-Pin_16-Pad16)*%
X76460000Y-88000000D03*
%TO.N,unconnected-(SOLSOKET1-Pin_17-Pad17)*%
X79000000Y-90540000D03*
%TO.N,/IN_AUX3*%
X76460000Y-90540000D03*
%TO.N,/IN_AUX2*%
X79000000Y-93080000D03*
%TO.N,/IN_AUX1*%
X76460000Y-93080000D03*
%TO.N,/IN_BUTTON1*%
X79000000Y-95620000D03*
%TO.N,/IN_BUTTON2*%
X76460000Y-95620000D03*
%TO.N,/IN_BUTTON3*%
X79000000Y-98160000D03*
%TO.N,unconnected-(SOLSOKET1-Pin_24-Pad24)*%
X76460000Y-98160000D03*
%TO.N,unconnected-(SOLSOKET1-Pin_25-Pad25)*%
X79000000Y-100700000D03*
%TO.N,unconnected-(SOLSOKET1-Pin_26-Pad26)*%
X76460000Y-100700000D03*
%TO.N,unconnected-(SOLSOKET1-Pin_27-Pad27)*%
X79000000Y-103240000D03*
%TO.N,unconnected-(SOLSOKET1-Pin_28-Pad28)*%
X76460000Y-103240000D03*
%TO.N,unconnected-(SOLSOKET1-Pin_29-Pad29)*%
X79000000Y-105780000D03*
%TO.N,unconnected-(SOLSOKET1-Pin_30-Pad30)*%
X76460000Y-105780000D03*
%TO.N,unconnected-(SOLSOKET1-Pin_31-Pad31)*%
X79000000Y-108320000D03*
%TO.N,unconnected-(SOLSOKET1-Pin_32-Pad32)*%
X76460000Y-108320000D03*
%TO.N,/EGT-*%
X79000000Y-110860000D03*
%TO.N,/EGT+*%
X76460000Y-110860000D03*
%TO.N,/IN_KNOCK_RAW*%
X79000000Y-113400000D03*
%TO.N,/IN_MAP*%
X76460000Y-113400000D03*
%TO.N,/IN_FLEX*%
X79000000Y-115940000D03*
%TO.N,+5VP*%
X76460000Y-115940000D03*
%TO.N,GNDA*%
X79000000Y-118480000D03*
X76460000Y-118480000D03*
%TD*%
M02*
