G04 #@! TF.GenerationSoftware,KiCad,Pcbnew,8.0.7-8.0.7-0~ubuntu24.04.1*
G04 #@! TF.CreationDate,2025-01-03T15:31:29+00:00*
G04 #@! TF.ProjectId,stabildaytona,73746162-696c-4646-9179-746f6e612e6b,D*
G04 #@! TF.SameCoordinates,PX2faf080PY9896800*
G04 #@! TF.FileFunction,Soldermask,Bot*
G04 #@! TF.FilePolarity,Negative*
%FSLAX46Y46*%
G04 Gerber Fmt 4.6, Leading zero omitted, Abs format (unit mm)*
G04 Created by KiCad (PCBNEW 8.0.7-8.0.7-0~ubuntu24.04.1) date 2025-01-03 15:31:29*
%MOMM*%
%LPD*%
G01*
G04 APERTURE LIST*
%ADD10C,1.500000*%
%ADD11C,0.600000*%
%ADD12R,1.700000X1.700000*%
%ADD13O,1.700000X1.700000*%
%ADD14O,1.200000X1.750000*%
%ADD15C,1.524000*%
%ADD16C,0.599999*%
G04 APERTURE END LIST*
D10*
G04 #@! TO.C,M1*
X40125005Y3600003D03*
X40125005Y10000000D03*
X40125005Y11900003D03*
X40125005Y16200003D03*
D11*
X39675006Y18600000D03*
X39675006Y19600001D03*
D10*
X40125005Y22450003D03*
X55625002Y3150001D03*
X55625002Y5000000D03*
X55625002Y9950003D03*
X55625002Y22000001D03*
G04 #@! TD*
D12*
G04 #@! TO.C,BLUETOOTH1*
X91000000Y75040000D03*
D13*
X91000000Y72500000D03*
X91000000Y69960000D03*
X91000000Y67420000D03*
G04 #@! TD*
G04 #@! TO.C,USB1*
G36*
G01*
X91100000Y60125000D02*
X91100000Y58875000D01*
G75*
G02*
X90850000Y58625000I-250000J0D01*
G01*
X90150000Y58625000D01*
G75*
G02*
X89900000Y58875000I0J250000D01*
G01*
X89900000Y60125000D01*
G75*
G02*
X90150000Y60375000I250000J0D01*
G01*
X90850000Y60375000D01*
G75*
G02*
X91100000Y60125000I0J-250000D01*
G01*
G37*
D14*
X88500000Y59500000D03*
X86500000Y59500000D03*
X84500000Y59500000D03*
G04 #@! TD*
D11*
G04 #@! TO.C,M2*
X19074999Y31525000D03*
X18124999Y31525000D03*
X17175001Y31525000D03*
X18174999Y40225000D03*
X19074999Y40225000D03*
G04 #@! TD*
D15*
G04 #@! TO.C,F1*
X77450000Y5500000D03*
X72550000Y5500000D03*
G04 #@! TD*
D16*
G04 #@! TO.C,CAN1*
X35137499Y71956662D03*
X34262497Y72481662D03*
X35437501Y73231660D03*
X35362498Y76781661D03*
G04 #@! TD*
D15*
G04 #@! TO.C,R4*
X49810000Y72000000D03*
X46000000Y72000000D03*
G04 #@! TD*
G04 #@! TO.C,F4*
X60050000Y21000000D03*
X64950000Y21000000D03*
G04 #@! TD*
G04 #@! TO.C,F2*
X72550000Y3000000D03*
X77450000Y3000000D03*
G04 #@! TD*
G04 #@! TO.C,F3*
X60050000Y18500000D03*
X64950000Y18500000D03*
G04 #@! TD*
D11*
G04 #@! TO.C,M4*
X65350000Y69682500D03*
X65350000Y70882500D03*
X65350000Y68482500D03*
X65350000Y67282500D03*
X79775000Y73742500D03*
X79775000Y74742500D03*
G04 #@! TD*
G04 #@! TO.C,R12*
G36*
G01*
X66850000Y44610000D02*
X66850000Y45390000D01*
G75*
G02*
X66920000Y45460000I70000J0D01*
G01*
X67480000Y45460000D01*
G75*
G02*
X67550000Y45390000I0J-70000D01*
G01*
X67550000Y44610000D01*
G75*
G02*
X67480000Y44540000I-70000J0D01*
G01*
X66920000Y44540000D01*
G75*
G02*
X66850000Y44610000I0J70000D01*
G01*
G37*
G36*
G01*
X68450000Y44610000D02*
X68450000Y45390000D01*
G75*
G02*
X68520000Y45460000I70000J0D01*
G01*
X69080000Y45460000D01*
G75*
G02*
X69150000Y45390000I0J-70000D01*
G01*
X69150000Y44610000D01*
G75*
G02*
X69080000Y44540000I-70000J0D01*
G01*
X68520000Y44540000D01*
G75*
G02*
X68450000Y44610000I0J70000D01*
G01*
G37*
G04 #@! TD*
G04 #@! TO.C,C14*
G36*
G01*
X78984999Y9209999D02*
X77934999Y9209999D01*
G75*
G02*
X77834999Y9309999I0J100000D01*
G01*
X77834999Y10109999D01*
G75*
G02*
X77934999Y10209999I100000J0D01*
G01*
X78984999Y10209999D01*
G75*
G02*
X79084999Y10109999I0J-100000D01*
G01*
X79084999Y9309999D01*
G75*
G02*
X78984999Y9209999I-100000J0D01*
G01*
G37*
G36*
G01*
X78984999Y11209999D02*
X77934999Y11209999D01*
G75*
G02*
X77834999Y11309999I0J100000D01*
G01*
X77834999Y12109999D01*
G75*
G02*
X77934999Y12209999I100000J0D01*
G01*
X78984999Y12209999D01*
G75*
G02*
X79084999Y12109999I0J-100000D01*
G01*
X79084999Y11309999D01*
G75*
G02*
X78984999Y11209999I-100000J0D01*
G01*
G37*
G04 #@! TD*
G04 #@! TO.C,C21*
G36*
G01*
X73475000Y16500000D02*
X74525000Y16500000D01*
G75*
G02*
X74625000Y16400000I0J-100000D01*
G01*
X74625000Y15600000D01*
G75*
G02*
X74525000Y15500000I-100000J0D01*
G01*
X73475000Y15500000D01*
G75*
G02*
X73375000Y15600000I0J100000D01*
G01*
X73375000Y16400000D01*
G75*
G02*
X73475000Y16500000I100000J0D01*
G01*
G37*
G36*
G01*
X73475000Y14500000D02*
X74525000Y14500000D01*
G75*
G02*
X74625000Y14400000I0J-100000D01*
G01*
X74625000Y13600000D01*
G75*
G02*
X74525000Y13500000I-100000J0D01*
G01*
X73475000Y13500000D01*
G75*
G02*
X73375000Y13600000I0J100000D01*
G01*
X73375000Y14400000D01*
G75*
G02*
X73475000Y14500000I100000J0D01*
G01*
G37*
G04 #@! TD*
G04 #@! TO.C,R33*
G36*
G01*
X64150000Y50390000D02*
X64150000Y49610000D01*
G75*
G02*
X64080000Y49540000I-70000J0D01*
G01*
X63520000Y49540000D01*
G75*
G02*
X63450000Y49610000I0J70000D01*
G01*
X63450000Y50390000D01*
G75*
G02*
X63520000Y50460000I70000J0D01*
G01*
X64080000Y50460000D01*
G75*
G02*
X64150000Y50390000I0J-70000D01*
G01*
G37*
G36*
G01*
X62550000Y50390000D02*
X62550000Y49610000D01*
G75*
G02*
X62480000Y49540000I-70000J0D01*
G01*
X61920000Y49540000D01*
G75*
G02*
X61850000Y49610000I0J70000D01*
G01*
X61850000Y50390000D01*
G75*
G02*
X61920000Y50460000I70000J0D01*
G01*
X62480000Y50460000D01*
G75*
G02*
X62550000Y50390000I0J-70000D01*
G01*
G37*
G04 #@! TD*
G04 #@! TO.C,R10*
G36*
G01*
X66850000Y52110000D02*
X66850000Y52890000D01*
G75*
G02*
X66920000Y52960000I70000J0D01*
G01*
X67480000Y52960000D01*
G75*
G02*
X67550000Y52890000I0J-70000D01*
G01*
X67550000Y52110000D01*
G75*
G02*
X67480000Y52040000I-70000J0D01*
G01*
X66920000Y52040000D01*
G75*
G02*
X66850000Y52110000I0J70000D01*
G01*
G37*
G36*
G01*
X68450000Y52110000D02*
X68450000Y52890000D01*
G75*
G02*
X68520000Y52960000I70000J0D01*
G01*
X69080000Y52960000D01*
G75*
G02*
X69150000Y52890000I0J-70000D01*
G01*
X69150000Y52110000D01*
G75*
G02*
X69080000Y52040000I-70000J0D01*
G01*
X68520000Y52040000D01*
G75*
G02*
X68450000Y52110000I0J70000D01*
G01*
G37*
G04 #@! TD*
G04 #@! TO.C,C22*
G36*
G01*
X75725000Y16500000D02*
X76775000Y16500000D01*
G75*
G02*
X76875000Y16400000I0J-100000D01*
G01*
X76875000Y15600000D01*
G75*
G02*
X76775000Y15500000I-100000J0D01*
G01*
X75725000Y15500000D01*
G75*
G02*
X75625000Y15600000I0J100000D01*
G01*
X75625000Y16400000D01*
G75*
G02*
X75725000Y16500000I100000J0D01*
G01*
G37*
G36*
G01*
X75725000Y14500000D02*
X76775000Y14500000D01*
G75*
G02*
X76875000Y14400000I0J-100000D01*
G01*
X76875000Y13600000D01*
G75*
G02*
X76775000Y13500000I-100000J0D01*
G01*
X75725000Y13500000D01*
G75*
G02*
X75625000Y13600000I0J100000D01*
G01*
X75625000Y14400000D01*
G75*
G02*
X75725000Y14500000I100000J0D01*
G01*
G37*
G04 #@! TD*
G04 #@! TO.C,C6*
G36*
G01*
X68725000Y31000000D02*
X69775000Y31000000D01*
G75*
G02*
X69875000Y30900000I0J-100000D01*
G01*
X69875000Y30100000D01*
G75*
G02*
X69775000Y30000000I-100000J0D01*
G01*
X68725000Y30000000D01*
G75*
G02*
X68625000Y30100000I0J100000D01*
G01*
X68625000Y30900000D01*
G75*
G02*
X68725000Y31000000I100000J0D01*
G01*
G37*
G36*
G01*
X68725000Y29000000D02*
X69775000Y29000000D01*
G75*
G02*
X69875000Y28900000I0J-100000D01*
G01*
X69875000Y28100000D01*
G75*
G02*
X69775000Y28000000I-100000J0D01*
G01*
X68725000Y28000000D01*
G75*
G02*
X68625000Y28100000I0J100000D01*
G01*
X68625000Y28900000D01*
G75*
G02*
X68725000Y29000000I100000J0D01*
G01*
G37*
G04 #@! TD*
G04 #@! TO.C,C15*
G36*
G01*
X76734999Y9209999D02*
X75684999Y9209999D01*
G75*
G02*
X75584999Y9309999I0J100000D01*
G01*
X75584999Y10109999D01*
G75*
G02*
X75684999Y10209999I100000J0D01*
G01*
X76734999Y10209999D01*
G75*
G02*
X76834999Y10109999I0J-100000D01*
G01*
X76834999Y9309999D01*
G75*
G02*
X76734999Y9209999I-100000J0D01*
G01*
G37*
G36*
G01*
X76734999Y11209999D02*
X75684999Y11209999D01*
G75*
G02*
X75584999Y11309999I0J100000D01*
G01*
X75584999Y12109999D01*
G75*
G02*
X75684999Y12209999I100000J0D01*
G01*
X76734999Y12209999D01*
G75*
G02*
X76834999Y12109999I0J-100000D01*
G01*
X76834999Y11309999D01*
G75*
G02*
X76734999Y11209999I-100000J0D01*
G01*
G37*
G04 #@! TD*
G04 #@! TO.C,C20*
G36*
G01*
X71225000Y16500000D02*
X72275000Y16500000D01*
G75*
G02*
X72375000Y16400000I0J-100000D01*
G01*
X72375000Y15600000D01*
G75*
G02*
X72275000Y15500000I-100000J0D01*
G01*
X71225000Y15500000D01*
G75*
G02*
X71125000Y15600000I0J100000D01*
G01*
X71125000Y16400000D01*
G75*
G02*
X71225000Y16500000I100000J0D01*
G01*
G37*
G36*
G01*
X71225000Y14500000D02*
X72275000Y14500000D01*
G75*
G02*
X72375000Y14400000I0J-100000D01*
G01*
X72375000Y13600000D01*
G75*
G02*
X72275000Y13500000I-100000J0D01*
G01*
X71225000Y13500000D01*
G75*
G02*
X71125000Y13600000I0J100000D01*
G01*
X71125000Y14400000D01*
G75*
G02*
X71225000Y14500000I100000J0D01*
G01*
G37*
G04 #@! TD*
G04 #@! TO.C,C23*
G36*
G01*
X77975000Y16500000D02*
X79025000Y16500000D01*
G75*
G02*
X79125000Y16400000I0J-100000D01*
G01*
X79125000Y15600000D01*
G75*
G02*
X79025000Y15500000I-100000J0D01*
G01*
X77975000Y15500000D01*
G75*
G02*
X77875000Y15600000I0J100000D01*
G01*
X77875000Y16400000D01*
G75*
G02*
X77975000Y16500000I100000J0D01*
G01*
G37*
G36*
G01*
X77975000Y14500000D02*
X79025000Y14500000D01*
G75*
G02*
X79125000Y14400000I0J-100000D01*
G01*
X79125000Y13600000D01*
G75*
G02*
X79025000Y13500000I-100000J0D01*
G01*
X77975000Y13500000D01*
G75*
G02*
X77875000Y13600000I0J100000D01*
G01*
X77875000Y14400000D01*
G75*
G02*
X77975000Y14500000I100000J0D01*
G01*
G37*
G04 #@! TD*
G04 #@! TO.C,U6*
G36*
G01*
X70050000Y37445000D02*
X70050000Y37745000D01*
G75*
G02*
X70200000Y37895000I150000J0D01*
G01*
X71850000Y37895000D01*
G75*
G02*
X72000000Y37745000I0J-150000D01*
G01*
X72000000Y37445000D01*
G75*
G02*
X71850000Y37295000I-150000J0D01*
G01*
X70200000Y37295000D01*
G75*
G02*
X70050000Y37445000I0J150000D01*
G01*
G37*
G36*
G01*
X70050000Y38715000D02*
X70050000Y39015000D01*
G75*
G02*
X70200000Y39165000I150000J0D01*
G01*
X71850000Y39165000D01*
G75*
G02*
X72000000Y39015000I0J-150000D01*
G01*
X72000000Y38715000D01*
G75*
G02*
X71850000Y38565000I-150000J0D01*
G01*
X70200000Y38565000D01*
G75*
G02*
X70050000Y38715000I0J150000D01*
G01*
G37*
G36*
G01*
X70050000Y39985000D02*
X70050000Y40285000D01*
G75*
G02*
X70200000Y40435000I150000J0D01*
G01*
X71850000Y40435000D01*
G75*
G02*
X72000000Y40285000I0J-150000D01*
G01*
X72000000Y39985000D01*
G75*
G02*
X71850000Y39835000I-150000J0D01*
G01*
X70200000Y39835000D01*
G75*
G02*
X70050000Y39985000I0J150000D01*
G01*
G37*
G36*
G01*
X70050000Y41255000D02*
X70050000Y41555000D01*
G75*
G02*
X70200000Y41705000I150000J0D01*
G01*
X71850000Y41705000D01*
G75*
G02*
X72000000Y41555000I0J-150000D01*
G01*
X72000000Y41255000D01*
G75*
G02*
X71850000Y41105000I-150000J0D01*
G01*
X70200000Y41105000D01*
G75*
G02*
X70050000Y41255000I0J150000D01*
G01*
G37*
G36*
G01*
X75000000Y41255000D02*
X75000000Y41555000D01*
G75*
G02*
X75150000Y41705000I150000J0D01*
G01*
X76800000Y41705000D01*
G75*
G02*
X76950000Y41555000I0J-150000D01*
G01*
X76950000Y41255000D01*
G75*
G02*
X76800000Y41105000I-150000J0D01*
G01*
X75150000Y41105000D01*
G75*
G02*
X75000000Y41255000I0J150000D01*
G01*
G37*
G36*
G01*
X75000000Y39985000D02*
X75000000Y40285000D01*
G75*
G02*
X75150000Y40435000I150000J0D01*
G01*
X76800000Y40435000D01*
G75*
G02*
X76950000Y40285000I0J-150000D01*
G01*
X76950000Y39985000D01*
G75*
G02*
X76800000Y39835000I-150000J0D01*
G01*
X75150000Y39835000D01*
G75*
G02*
X75000000Y39985000I0J150000D01*
G01*
G37*
G36*
G01*
X75000000Y38715000D02*
X75000000Y39015000D01*
G75*
G02*
X75150000Y39165000I150000J0D01*
G01*
X76800000Y39165000D01*
G75*
G02*
X76950000Y39015000I0J-150000D01*
G01*
X76950000Y38715000D01*
G75*
G02*
X76800000Y38565000I-150000J0D01*
G01*
X75150000Y38565000D01*
G75*
G02*
X75000000Y38715000I0J150000D01*
G01*
G37*
G36*
G01*
X75000000Y37445000D02*
X75000000Y37745000D01*
G75*
G02*
X75150000Y37895000I150000J0D01*
G01*
X76800000Y37895000D01*
G75*
G02*
X76950000Y37745000I0J-150000D01*
G01*
X76950000Y37445000D01*
G75*
G02*
X76800000Y37295000I-150000J0D01*
G01*
X75150000Y37295000D01*
G75*
G02*
X75000000Y37445000I0J150000D01*
G01*
G37*
G04 #@! TD*
G04 #@! TO.C,R29*
G36*
G01*
X64150000Y56390000D02*
X64150000Y55610000D01*
G75*
G02*
X64080000Y55540000I-70000J0D01*
G01*
X63520000Y55540000D01*
G75*
G02*
X63450000Y55610000I0J70000D01*
G01*
X63450000Y56390000D01*
G75*
G02*
X63520000Y56460000I70000J0D01*
G01*
X64080000Y56460000D01*
G75*
G02*
X64150000Y56390000I0J-70000D01*
G01*
G37*
G36*
G01*
X62550000Y56390000D02*
X62550000Y55610000D01*
G75*
G02*
X62480000Y55540000I-70000J0D01*
G01*
X61920000Y55540000D01*
G75*
G02*
X61850000Y55610000I0J70000D01*
G01*
X61850000Y56390000D01*
G75*
G02*
X61920000Y56460000I70000J0D01*
G01*
X62480000Y56460000D01*
G75*
G02*
X62550000Y56390000I0J-70000D01*
G01*
G37*
G04 #@! TD*
G04 #@! TO.C,D5*
G36*
G01*
X82600000Y48510000D02*
X82600000Y47490000D01*
G75*
G02*
X82510000Y47400000I-90000J0D01*
G01*
X81790000Y47400000D01*
G75*
G02*
X81700000Y47490000I0J90000D01*
G01*
X81700000Y48510000D01*
G75*
G02*
X81790000Y48600000I90000J0D01*
G01*
X82510000Y48600000D01*
G75*
G02*
X82600000Y48510000I0J-90000D01*
G01*
G37*
G36*
G01*
X79300000Y48510000D02*
X79300000Y47490000D01*
G75*
G02*
X79210000Y47400000I-90000J0D01*
G01*
X78490000Y47400000D01*
G75*
G02*
X78400000Y47490000I0J90000D01*
G01*
X78400000Y48510000D01*
G75*
G02*
X78490000Y48600000I90000J0D01*
G01*
X79210000Y48600000D01*
G75*
G02*
X79300000Y48510000I0J-90000D01*
G01*
G37*
G04 #@! TD*
G04 #@! TO.C,C4*
G36*
G01*
X72025000Y23500000D02*
X70975000Y23500000D01*
G75*
G02*
X70875000Y23600000I0J100000D01*
G01*
X70875000Y24400000D01*
G75*
G02*
X70975000Y24500000I100000J0D01*
G01*
X72025000Y24500000D01*
G75*
G02*
X72125000Y24400000I0J-100000D01*
G01*
X72125000Y23600000D01*
G75*
G02*
X72025000Y23500000I-100000J0D01*
G01*
G37*
G36*
G01*
X72025000Y25500000D02*
X70975000Y25500000D01*
G75*
G02*
X70875000Y25600000I0J100000D01*
G01*
X70875000Y26400000D01*
G75*
G02*
X70975000Y26500000I100000J0D01*
G01*
X72025000Y26500000D01*
G75*
G02*
X72125000Y26400000I0J-100000D01*
G01*
X72125000Y25600000D01*
G75*
G02*
X72025000Y25500000I-100000J0D01*
G01*
G37*
G04 #@! TD*
G04 #@! TO.C,C18*
G36*
G01*
X69984999Y9209999D02*
X68934999Y9209999D01*
G75*
G02*
X68834999Y9309999I0J100000D01*
G01*
X68834999Y10109999D01*
G75*
G02*
X68934999Y10209999I100000J0D01*
G01*
X69984999Y10209999D01*
G75*
G02*
X70084999Y10109999I0J-100000D01*
G01*
X70084999Y9309999D01*
G75*
G02*
X69984999Y9209999I-100000J0D01*
G01*
G37*
G36*
G01*
X69984999Y11209999D02*
X68934999Y11209999D01*
G75*
G02*
X68834999Y11309999I0J100000D01*
G01*
X68834999Y12109999D01*
G75*
G02*
X68934999Y12209999I100000J0D01*
G01*
X69984999Y12209999D01*
G75*
G02*
X70084999Y12109999I0J-100000D01*
G01*
X70084999Y11309999D01*
G75*
G02*
X69984999Y11209999I-100000J0D01*
G01*
G37*
G04 #@! TD*
G04 #@! TO.C,R31*
G36*
G01*
X64150000Y53390000D02*
X64150000Y52610000D01*
G75*
G02*
X64080000Y52540000I-70000J0D01*
G01*
X63520000Y52540000D01*
G75*
G02*
X63450000Y52610000I0J70000D01*
G01*
X63450000Y53390000D01*
G75*
G02*
X63520000Y53460000I70000J0D01*
G01*
X64080000Y53460000D01*
G75*
G02*
X64150000Y53390000I0J-70000D01*
G01*
G37*
G36*
G01*
X62550000Y53390000D02*
X62550000Y52610000D01*
G75*
G02*
X62480000Y52540000I-70000J0D01*
G01*
X61920000Y52540000D01*
G75*
G02*
X61850000Y52610000I0J70000D01*
G01*
X61850000Y53390000D01*
G75*
G02*
X61920000Y53460000I70000J0D01*
G01*
X62480000Y53460000D01*
G75*
G02*
X62550000Y53390000I0J-70000D01*
G01*
G37*
G04 #@! TD*
G04 #@! TO.C,D4*
G36*
G01*
X82600000Y45510000D02*
X82600000Y44490000D01*
G75*
G02*
X82510000Y44400000I-90000J0D01*
G01*
X81790000Y44400000D01*
G75*
G02*
X81700000Y44490000I0J90000D01*
G01*
X81700000Y45510000D01*
G75*
G02*
X81790000Y45600000I90000J0D01*
G01*
X82510000Y45600000D01*
G75*
G02*
X82600000Y45510000I0J-90000D01*
G01*
G37*
G36*
G01*
X79300000Y45510000D02*
X79300000Y44490000D01*
G75*
G02*
X79210000Y44400000I-90000J0D01*
G01*
X78490000Y44400000D01*
G75*
G02*
X78400000Y44490000I0J90000D01*
G01*
X78400000Y45510000D01*
G75*
G02*
X78490000Y45600000I90000J0D01*
G01*
X79210000Y45600000D01*
G75*
G02*
X79300000Y45510000I0J-90000D01*
G01*
G37*
G04 #@! TD*
G04 #@! TO.C,C8*
G36*
G01*
X73225000Y31000000D02*
X74275000Y31000000D01*
G75*
G02*
X74375000Y30900000I0J-100000D01*
G01*
X74375000Y30100000D01*
G75*
G02*
X74275000Y30000000I-100000J0D01*
G01*
X73225000Y30000000D01*
G75*
G02*
X73125000Y30100000I0J100000D01*
G01*
X73125000Y30900000D01*
G75*
G02*
X73225000Y31000000I100000J0D01*
G01*
G37*
G36*
G01*
X73225000Y29000000D02*
X74275000Y29000000D01*
G75*
G02*
X74375000Y28900000I0J-100000D01*
G01*
X74375000Y28100000D01*
G75*
G02*
X74275000Y28000000I-100000J0D01*
G01*
X73225000Y28000000D01*
G75*
G02*
X73125000Y28100000I0J100000D01*
G01*
X73125000Y28900000D01*
G75*
G02*
X73225000Y29000000I100000J0D01*
G01*
G37*
G04 #@! TD*
D12*
G04 #@! TO.C,SAGSOKET1*
X91540000Y51740000D03*
D13*
X89000000Y51740000D03*
X91540000Y49200000D03*
X89000000Y49200000D03*
X91540000Y46660000D03*
X89000000Y46660000D03*
X91540000Y44120000D03*
X89000000Y44120000D03*
X91540000Y41580000D03*
X89000000Y41580000D03*
X91540000Y39040000D03*
X89000000Y39040000D03*
X91540000Y36500000D03*
X89000000Y36500000D03*
X91540000Y33960000D03*
X89000000Y33960000D03*
X91540000Y31420000D03*
X89000000Y31420000D03*
X91540000Y28880000D03*
X89000000Y28880000D03*
X91540000Y26340000D03*
X89000000Y26340000D03*
X91540000Y23800000D03*
X89000000Y23800000D03*
X91540000Y21260000D03*
X89000000Y21260000D03*
X91540000Y18720000D03*
X89000000Y18720000D03*
X91540000Y16180000D03*
X89000000Y16180000D03*
X91540000Y13640000D03*
X89000000Y13640000D03*
X91540000Y11100000D03*
X89000000Y11100000D03*
X91540000Y8560000D03*
X89000000Y8560000D03*
X91540000Y6020000D03*
X89000000Y6020000D03*
X91540000Y3480000D03*
X89000000Y3480000D03*
G04 #@! TD*
G04 #@! TO.C,U7*
G36*
G01*
X70050000Y52445000D02*
X70050000Y52745000D01*
G75*
G02*
X70200000Y52895000I150000J0D01*
G01*
X71850000Y52895000D01*
G75*
G02*
X72000000Y52745000I0J-150000D01*
G01*
X72000000Y52445000D01*
G75*
G02*
X71850000Y52295000I-150000J0D01*
G01*
X70200000Y52295000D01*
G75*
G02*
X70050000Y52445000I0J150000D01*
G01*
G37*
G36*
G01*
X70050000Y53715000D02*
X70050000Y54015000D01*
G75*
G02*
X70200000Y54165000I150000J0D01*
G01*
X71850000Y54165000D01*
G75*
G02*
X72000000Y54015000I0J-150000D01*
G01*
X72000000Y53715000D01*
G75*
G02*
X71850000Y53565000I-150000J0D01*
G01*
X70200000Y53565000D01*
G75*
G02*
X70050000Y53715000I0J150000D01*
G01*
G37*
G36*
G01*
X70050000Y54985000D02*
X70050000Y55285000D01*
G75*
G02*
X70200000Y55435000I150000J0D01*
G01*
X71850000Y55435000D01*
G75*
G02*
X72000000Y55285000I0J-150000D01*
G01*
X72000000Y54985000D01*
G75*
G02*
X71850000Y54835000I-150000J0D01*
G01*
X70200000Y54835000D01*
G75*
G02*
X70050000Y54985000I0J150000D01*
G01*
G37*
G36*
G01*
X70050000Y56255000D02*
X70050000Y56555000D01*
G75*
G02*
X70200000Y56705000I150000J0D01*
G01*
X71850000Y56705000D01*
G75*
G02*
X72000000Y56555000I0J-150000D01*
G01*
X72000000Y56255000D01*
G75*
G02*
X71850000Y56105000I-150000J0D01*
G01*
X70200000Y56105000D01*
G75*
G02*
X70050000Y56255000I0J150000D01*
G01*
G37*
G36*
G01*
X75000000Y56255000D02*
X75000000Y56555000D01*
G75*
G02*
X75150000Y56705000I150000J0D01*
G01*
X76800000Y56705000D01*
G75*
G02*
X76950000Y56555000I0J-150000D01*
G01*
X76950000Y56255000D01*
G75*
G02*
X76800000Y56105000I-150000J0D01*
G01*
X75150000Y56105000D01*
G75*
G02*
X75000000Y56255000I0J150000D01*
G01*
G37*
G36*
G01*
X75000000Y54985000D02*
X75000000Y55285000D01*
G75*
G02*
X75150000Y55435000I150000J0D01*
G01*
X76800000Y55435000D01*
G75*
G02*
X76950000Y55285000I0J-150000D01*
G01*
X76950000Y54985000D01*
G75*
G02*
X76800000Y54835000I-150000J0D01*
G01*
X75150000Y54835000D01*
G75*
G02*
X75000000Y54985000I0J150000D01*
G01*
G37*
G36*
G01*
X75000000Y53715000D02*
X75000000Y54015000D01*
G75*
G02*
X75150000Y54165000I150000J0D01*
G01*
X76800000Y54165000D01*
G75*
G02*
X76950000Y54015000I0J-150000D01*
G01*
X76950000Y53715000D01*
G75*
G02*
X76800000Y53565000I-150000J0D01*
G01*
X75150000Y53565000D01*
G75*
G02*
X75000000Y53715000I0J150000D01*
G01*
G37*
G36*
G01*
X75000000Y52445000D02*
X75000000Y52745000D01*
G75*
G02*
X75150000Y52895000I150000J0D01*
G01*
X76800000Y52895000D01*
G75*
G02*
X76950000Y52745000I0J-150000D01*
G01*
X76950000Y52445000D01*
G75*
G02*
X76800000Y52295000I-150000J0D01*
G01*
X75150000Y52295000D01*
G75*
G02*
X75000000Y52445000I0J150000D01*
G01*
G37*
G04 #@! TD*
G04 #@! TO.C,C9*
G36*
G01*
X75475000Y31000000D02*
X76525000Y31000000D01*
G75*
G02*
X76625000Y30900000I0J-100000D01*
G01*
X76625000Y30100000D01*
G75*
G02*
X76525000Y30000000I-100000J0D01*
G01*
X75475000Y30000000D01*
G75*
G02*
X75375000Y30100000I0J100000D01*
G01*
X75375000Y30900000D01*
G75*
G02*
X75475000Y31000000I100000J0D01*
G01*
G37*
G36*
G01*
X75475000Y29000000D02*
X76525000Y29000000D01*
G75*
G02*
X76625000Y28900000I0J-100000D01*
G01*
X76625000Y28100000D01*
G75*
G02*
X76525000Y28000000I-100000J0D01*
G01*
X75475000Y28000000D01*
G75*
G02*
X75375000Y28100000I0J100000D01*
G01*
X75375000Y28900000D01*
G75*
G02*
X75475000Y29000000I100000J0D01*
G01*
G37*
G04 #@! TD*
G04 #@! TO.C,R30*
G36*
G01*
X64150000Y54890000D02*
X64150000Y54110000D01*
G75*
G02*
X64080000Y54040000I-70000J0D01*
G01*
X63520000Y54040000D01*
G75*
G02*
X63450000Y54110000I0J70000D01*
G01*
X63450000Y54890000D01*
G75*
G02*
X63520000Y54960000I70000J0D01*
G01*
X64080000Y54960000D01*
G75*
G02*
X64150000Y54890000I0J-70000D01*
G01*
G37*
G36*
G01*
X62550000Y54890000D02*
X62550000Y54110000D01*
G75*
G02*
X62480000Y54040000I-70000J0D01*
G01*
X61920000Y54040000D01*
G75*
G02*
X61850000Y54110000I0J70000D01*
G01*
X61850000Y54890000D01*
G75*
G02*
X61920000Y54960000I70000J0D01*
G01*
X62480000Y54960000D01*
G75*
G02*
X62550000Y54890000I0J-70000D01*
G01*
G37*
G04 #@! TD*
G04 #@! TO.C,R15*
G36*
G01*
X69150000Y37890000D02*
X69150000Y37110000D01*
G75*
G02*
X69080000Y37040000I-70000J0D01*
G01*
X68520000Y37040000D01*
G75*
G02*
X68450000Y37110000I0J70000D01*
G01*
X68450000Y37890000D01*
G75*
G02*
X68520000Y37960000I70000J0D01*
G01*
X69080000Y37960000D01*
G75*
G02*
X69150000Y37890000I0J-70000D01*
G01*
G37*
G36*
G01*
X67550000Y37890000D02*
X67550000Y37110000D01*
G75*
G02*
X67480000Y37040000I-70000J0D01*
G01*
X66920000Y37040000D01*
G75*
G02*
X66850000Y37110000I0J70000D01*
G01*
X66850000Y37890000D01*
G75*
G02*
X66920000Y37960000I70000J0D01*
G01*
X67480000Y37960000D01*
G75*
G02*
X67550000Y37890000I0J-70000D01*
G01*
G37*
G04 #@! TD*
G04 #@! TO.C,R11*
G36*
G01*
X66850000Y55610000D02*
X66850000Y56390000D01*
G75*
G02*
X66920000Y56460000I70000J0D01*
G01*
X67480000Y56460000D01*
G75*
G02*
X67550000Y56390000I0J-70000D01*
G01*
X67550000Y55610000D01*
G75*
G02*
X67480000Y55540000I-70000J0D01*
G01*
X66920000Y55540000D01*
G75*
G02*
X66850000Y55610000I0J70000D01*
G01*
G37*
G36*
G01*
X68450000Y55610000D02*
X68450000Y56390000D01*
G75*
G02*
X68520000Y56460000I70000J0D01*
G01*
X69080000Y56460000D01*
G75*
G02*
X69150000Y56390000I0J-70000D01*
G01*
X69150000Y55610000D01*
G75*
G02*
X69080000Y55540000I-70000J0D01*
G01*
X68520000Y55540000D01*
G75*
G02*
X68450000Y55610000I0J70000D01*
G01*
G37*
G04 #@! TD*
G04 #@! TO.C,C7*
G36*
G01*
X70975000Y31000000D02*
X72025000Y31000000D01*
G75*
G02*
X72125000Y30900000I0J-100000D01*
G01*
X72125000Y30100000D01*
G75*
G02*
X72025000Y30000000I-100000J0D01*
G01*
X70975000Y30000000D01*
G75*
G02*
X70875000Y30100000I0J100000D01*
G01*
X70875000Y30900000D01*
G75*
G02*
X70975000Y31000000I100000J0D01*
G01*
G37*
G36*
G01*
X70975000Y29000000D02*
X72025000Y29000000D01*
G75*
G02*
X72125000Y28900000I0J-100000D01*
G01*
X72125000Y28100000D01*
G75*
G02*
X72025000Y28000000I-100000J0D01*
G01*
X70975000Y28000000D01*
G75*
G02*
X70875000Y28100000I0J100000D01*
G01*
X70875000Y28900000D01*
G75*
G02*
X70975000Y29000000I100000J0D01*
G01*
G37*
G04 #@! TD*
G04 #@! TO.C,R34*
G36*
G01*
X64150000Y48890000D02*
X64150000Y48110000D01*
G75*
G02*
X64080000Y48040000I-70000J0D01*
G01*
X63520000Y48040000D01*
G75*
G02*
X63450000Y48110000I0J70000D01*
G01*
X63450000Y48890000D01*
G75*
G02*
X63520000Y48960000I70000J0D01*
G01*
X64080000Y48960000D01*
G75*
G02*
X64150000Y48890000I0J-70000D01*
G01*
G37*
G36*
G01*
X62550000Y48890000D02*
X62550000Y48110000D01*
G75*
G02*
X62480000Y48040000I-70000J0D01*
G01*
X61920000Y48040000D01*
G75*
G02*
X61850000Y48110000I0J70000D01*
G01*
X61850000Y48890000D01*
G75*
G02*
X61920000Y48960000I70000J0D01*
G01*
X62480000Y48960000D01*
G75*
G02*
X62550000Y48890000I0J-70000D01*
G01*
G37*
G04 #@! TD*
G04 #@! TO.C,C5*
G36*
G01*
X69775000Y23500000D02*
X68725000Y23500000D01*
G75*
G02*
X68625000Y23600000I0J100000D01*
G01*
X68625000Y24400000D01*
G75*
G02*
X68725000Y24500000I100000J0D01*
G01*
X69775000Y24500000D01*
G75*
G02*
X69875000Y24400000I0J-100000D01*
G01*
X69875000Y23600000D01*
G75*
G02*
X69775000Y23500000I-100000J0D01*
G01*
G37*
G36*
G01*
X69775000Y25500000D02*
X68725000Y25500000D01*
G75*
G02*
X68625000Y25600000I0J100000D01*
G01*
X68625000Y26400000D01*
G75*
G02*
X68725000Y26500000I100000J0D01*
G01*
X69775000Y26500000D01*
G75*
G02*
X69875000Y26400000I0J-100000D01*
G01*
X69875000Y25600000D01*
G75*
G02*
X69775000Y25500000I-100000J0D01*
G01*
G37*
G04 #@! TD*
G04 #@! TO.C,R16*
G36*
G01*
X69150000Y40890000D02*
X69150000Y40110000D01*
G75*
G02*
X69080000Y40040000I-70000J0D01*
G01*
X68520000Y40040000D01*
G75*
G02*
X68450000Y40110000I0J70000D01*
G01*
X68450000Y40890000D01*
G75*
G02*
X68520000Y40960000I70000J0D01*
G01*
X69080000Y40960000D01*
G75*
G02*
X69150000Y40890000I0J-70000D01*
G01*
G37*
G36*
G01*
X67550000Y40890000D02*
X67550000Y40110000D01*
G75*
G02*
X67480000Y40040000I-70000J0D01*
G01*
X66920000Y40040000D01*
G75*
G02*
X66850000Y40110000I0J70000D01*
G01*
X66850000Y40890000D01*
G75*
G02*
X66920000Y40960000I70000J0D01*
G01*
X67480000Y40960000D01*
G75*
G02*
X67550000Y40890000I0J-70000D01*
G01*
G37*
G04 #@! TD*
G04 #@! TO.C,R32*
G36*
G01*
X64150000Y51890000D02*
X64150000Y51110000D01*
G75*
G02*
X64080000Y51040000I-70000J0D01*
G01*
X63520000Y51040000D01*
G75*
G02*
X63450000Y51110000I0J70000D01*
G01*
X63450000Y51890000D01*
G75*
G02*
X63520000Y51960000I70000J0D01*
G01*
X64080000Y51960000D01*
G75*
G02*
X64150000Y51890000I0J-70000D01*
G01*
G37*
G36*
G01*
X62550000Y51890000D02*
X62550000Y51110000D01*
G75*
G02*
X62480000Y51040000I-70000J0D01*
G01*
X61920000Y51040000D01*
G75*
G02*
X61850000Y51110000I0J70000D01*
G01*
X61850000Y51890000D01*
G75*
G02*
X61920000Y51960000I70000J0D01*
G01*
X62480000Y51960000D01*
G75*
G02*
X62550000Y51890000I0J-70000D01*
G01*
G37*
G04 #@! TD*
G04 #@! TO.C,C17*
G36*
G01*
X72234999Y9209999D02*
X71184999Y9209999D01*
G75*
G02*
X71084999Y9309999I0J100000D01*
G01*
X71084999Y10109999D01*
G75*
G02*
X71184999Y10209999I100000J0D01*
G01*
X72234999Y10209999D01*
G75*
G02*
X72334999Y10109999I0J-100000D01*
G01*
X72334999Y9309999D01*
G75*
G02*
X72234999Y9209999I-100000J0D01*
G01*
G37*
G36*
G01*
X72234999Y11209999D02*
X71184999Y11209999D01*
G75*
G02*
X71084999Y11309999I0J100000D01*
G01*
X71084999Y12109999D01*
G75*
G02*
X71184999Y12209999I100000J0D01*
G01*
X72234999Y12209999D01*
G75*
G02*
X72334999Y12109999I0J-100000D01*
G01*
X72334999Y11309999D01*
G75*
G02*
X72234999Y11209999I-100000J0D01*
G01*
G37*
G04 #@! TD*
G04 #@! TO.C,D2*
G36*
G01*
X82600000Y53010000D02*
X82600000Y51990000D01*
G75*
G02*
X82510000Y51900000I-90000J0D01*
G01*
X81790000Y51900000D01*
G75*
G02*
X81700000Y51990000I0J90000D01*
G01*
X81700000Y53010000D01*
G75*
G02*
X81790000Y53100000I90000J0D01*
G01*
X82510000Y53100000D01*
G75*
G02*
X82600000Y53010000I0J-90000D01*
G01*
G37*
G36*
G01*
X79300000Y53010000D02*
X79300000Y51990000D01*
G75*
G02*
X79210000Y51900000I-90000J0D01*
G01*
X78490000Y51900000D01*
G75*
G02*
X78400000Y51990000I0J90000D01*
G01*
X78400000Y53010000D01*
G75*
G02*
X78490000Y53100000I90000J0D01*
G01*
X79210000Y53100000D01*
G75*
G02*
X79300000Y53010000I0J-90000D01*
G01*
G37*
G04 #@! TD*
G04 #@! TO.C,C2*
G36*
G01*
X76525000Y23500000D02*
X75475000Y23500000D01*
G75*
G02*
X75375000Y23600000I0J100000D01*
G01*
X75375000Y24400000D01*
G75*
G02*
X75475000Y24500000I100000J0D01*
G01*
X76525000Y24500000D01*
G75*
G02*
X76625000Y24400000I0J-100000D01*
G01*
X76625000Y23600000D01*
G75*
G02*
X76525000Y23500000I-100000J0D01*
G01*
G37*
G36*
G01*
X76525000Y25500000D02*
X75475000Y25500000D01*
G75*
G02*
X75375000Y25600000I0J100000D01*
G01*
X75375000Y26400000D01*
G75*
G02*
X75475000Y26500000I100000J0D01*
G01*
X76525000Y26500000D01*
G75*
G02*
X76625000Y26400000I0J-100000D01*
G01*
X76625000Y25600000D01*
G75*
G02*
X76525000Y25500000I-100000J0D01*
G01*
G37*
G04 #@! TD*
G04 #@! TO.C,C10*
G36*
G01*
X77725000Y31000000D02*
X78775000Y31000000D01*
G75*
G02*
X78875000Y30900000I0J-100000D01*
G01*
X78875000Y30100000D01*
G75*
G02*
X78775000Y30000000I-100000J0D01*
G01*
X77725000Y30000000D01*
G75*
G02*
X77625000Y30100000I0J100000D01*
G01*
X77625000Y30900000D01*
G75*
G02*
X77725000Y31000000I100000J0D01*
G01*
G37*
G36*
G01*
X77725000Y29000000D02*
X78775000Y29000000D01*
G75*
G02*
X78875000Y28900000I0J-100000D01*
G01*
X78875000Y28100000D01*
G75*
G02*
X78775000Y28000000I-100000J0D01*
G01*
X77725000Y28000000D01*
G75*
G02*
X77625000Y28100000I0J100000D01*
G01*
X77625000Y28900000D01*
G75*
G02*
X77725000Y29000000I100000J0D01*
G01*
G37*
G04 #@! TD*
G04 #@! TO.C,U8*
G36*
G01*
X70050000Y44945000D02*
X70050000Y45245000D01*
G75*
G02*
X70200000Y45395000I150000J0D01*
G01*
X71850000Y45395000D01*
G75*
G02*
X72000000Y45245000I0J-150000D01*
G01*
X72000000Y44945000D01*
G75*
G02*
X71850000Y44795000I-150000J0D01*
G01*
X70200000Y44795000D01*
G75*
G02*
X70050000Y44945000I0J150000D01*
G01*
G37*
G36*
G01*
X70050000Y46215000D02*
X70050000Y46515000D01*
G75*
G02*
X70200000Y46665000I150000J0D01*
G01*
X71850000Y46665000D01*
G75*
G02*
X72000000Y46515000I0J-150000D01*
G01*
X72000000Y46215000D01*
G75*
G02*
X71850000Y46065000I-150000J0D01*
G01*
X70200000Y46065000D01*
G75*
G02*
X70050000Y46215000I0J150000D01*
G01*
G37*
G36*
G01*
X70050000Y47485000D02*
X70050000Y47785000D01*
G75*
G02*
X70200000Y47935000I150000J0D01*
G01*
X71850000Y47935000D01*
G75*
G02*
X72000000Y47785000I0J-150000D01*
G01*
X72000000Y47485000D01*
G75*
G02*
X71850000Y47335000I-150000J0D01*
G01*
X70200000Y47335000D01*
G75*
G02*
X70050000Y47485000I0J150000D01*
G01*
G37*
G36*
G01*
X70050000Y48755000D02*
X70050000Y49055000D01*
G75*
G02*
X70200000Y49205000I150000J0D01*
G01*
X71850000Y49205000D01*
G75*
G02*
X72000000Y49055000I0J-150000D01*
G01*
X72000000Y48755000D01*
G75*
G02*
X71850000Y48605000I-150000J0D01*
G01*
X70200000Y48605000D01*
G75*
G02*
X70050000Y48755000I0J150000D01*
G01*
G37*
G36*
G01*
X75000000Y48755000D02*
X75000000Y49055000D01*
G75*
G02*
X75150000Y49205000I150000J0D01*
G01*
X76800000Y49205000D01*
G75*
G02*
X76950000Y49055000I0J-150000D01*
G01*
X76950000Y48755000D01*
G75*
G02*
X76800000Y48605000I-150000J0D01*
G01*
X75150000Y48605000D01*
G75*
G02*
X75000000Y48755000I0J150000D01*
G01*
G37*
G36*
G01*
X75000000Y47485000D02*
X75000000Y47785000D01*
G75*
G02*
X75150000Y47935000I150000J0D01*
G01*
X76800000Y47935000D01*
G75*
G02*
X76950000Y47785000I0J-150000D01*
G01*
X76950000Y47485000D01*
G75*
G02*
X76800000Y47335000I-150000J0D01*
G01*
X75150000Y47335000D01*
G75*
G02*
X75000000Y47485000I0J150000D01*
G01*
G37*
G36*
G01*
X75000000Y46215000D02*
X75000000Y46515000D01*
G75*
G02*
X75150000Y46665000I150000J0D01*
G01*
X76800000Y46665000D01*
G75*
G02*
X76950000Y46515000I0J-150000D01*
G01*
X76950000Y46215000D01*
G75*
G02*
X76800000Y46065000I-150000J0D01*
G01*
X75150000Y46065000D01*
G75*
G02*
X75000000Y46215000I0J150000D01*
G01*
G37*
G36*
G01*
X75000000Y44945000D02*
X75000000Y45245000D01*
G75*
G02*
X75150000Y45395000I150000J0D01*
G01*
X76800000Y45395000D01*
G75*
G02*
X76950000Y45245000I0J-150000D01*
G01*
X76950000Y44945000D01*
G75*
G02*
X76800000Y44795000I-150000J0D01*
G01*
X75150000Y44795000D01*
G75*
G02*
X75000000Y44945000I0J150000D01*
G01*
G37*
G04 #@! TD*
G04 #@! TO.C,C19*
G36*
G01*
X68975000Y16500000D02*
X70025000Y16500000D01*
G75*
G02*
X70125000Y16400000I0J-100000D01*
G01*
X70125000Y15600000D01*
G75*
G02*
X70025000Y15500000I-100000J0D01*
G01*
X68975000Y15500000D01*
G75*
G02*
X68875000Y15600000I0J100000D01*
G01*
X68875000Y16400000D01*
G75*
G02*
X68975000Y16500000I100000J0D01*
G01*
G37*
G36*
G01*
X68975000Y14500000D02*
X70025000Y14500000D01*
G75*
G02*
X70125000Y14400000I0J-100000D01*
G01*
X70125000Y13600000D01*
G75*
G02*
X70025000Y13500000I-100000J0D01*
G01*
X68975000Y13500000D01*
G75*
G02*
X68875000Y13600000I0J100000D01*
G01*
X68875000Y14400000D01*
G75*
G02*
X68975000Y14500000I100000J0D01*
G01*
G37*
G04 #@! TD*
G04 #@! TO.C,C16*
G36*
G01*
X74484999Y9209999D02*
X73434999Y9209999D01*
G75*
G02*
X73334999Y9309999I0J100000D01*
G01*
X73334999Y10109999D01*
G75*
G02*
X73434999Y10209999I100000J0D01*
G01*
X74484999Y10209999D01*
G75*
G02*
X74584999Y10109999I0J-100000D01*
G01*
X74584999Y9309999D01*
G75*
G02*
X74484999Y9209999I-100000J0D01*
G01*
G37*
G36*
G01*
X74484999Y11209999D02*
X73434999Y11209999D01*
G75*
G02*
X73334999Y11309999I0J100000D01*
G01*
X73334999Y12109999D01*
G75*
G02*
X73434999Y12209999I100000J0D01*
G01*
X74484999Y12209999D01*
G75*
G02*
X74584999Y12109999I0J-100000D01*
G01*
X74584999Y11309999D01*
G75*
G02*
X74484999Y11209999I-100000J0D01*
G01*
G37*
G04 #@! TD*
G04 #@! TO.C,D3*
G36*
G01*
X82600000Y56010000D02*
X82600000Y54990000D01*
G75*
G02*
X82510000Y54900000I-90000J0D01*
G01*
X81790000Y54900000D01*
G75*
G02*
X81700000Y54990000I0J90000D01*
G01*
X81700000Y56010000D01*
G75*
G02*
X81790000Y56100000I90000J0D01*
G01*
X82510000Y56100000D01*
G75*
G02*
X82600000Y56010000I0J-90000D01*
G01*
G37*
G36*
G01*
X79300000Y56010000D02*
X79300000Y54990000D01*
G75*
G02*
X79210000Y54900000I-90000J0D01*
G01*
X78490000Y54900000D01*
G75*
G02*
X78400000Y54990000I0J90000D01*
G01*
X78400000Y56010000D01*
G75*
G02*
X78490000Y56100000I90000J0D01*
G01*
X79210000Y56100000D01*
G75*
G02*
X79300000Y56010000I0J-90000D01*
G01*
G37*
G04 #@! TD*
G04 #@! TO.C,C3*
G36*
G01*
X74275000Y23500000D02*
X73225000Y23500000D01*
G75*
G02*
X73125000Y23600000I0J100000D01*
G01*
X73125000Y24400000D01*
G75*
G02*
X73225000Y24500000I100000J0D01*
G01*
X74275000Y24500000D01*
G75*
G02*
X74375000Y24400000I0J-100000D01*
G01*
X74375000Y23600000D01*
G75*
G02*
X74275000Y23500000I-100000J0D01*
G01*
G37*
G36*
G01*
X74275000Y25500000D02*
X73225000Y25500000D01*
G75*
G02*
X73125000Y25600000I0J100000D01*
G01*
X73125000Y26400000D01*
G75*
G02*
X73225000Y26500000I100000J0D01*
G01*
X74275000Y26500000D01*
G75*
G02*
X74375000Y26400000I0J-100000D01*
G01*
X74375000Y25600000D01*
G75*
G02*
X74275000Y25500000I-100000J0D01*
G01*
G37*
G04 #@! TD*
D12*
G04 #@! TO.C,SOLSOKET1*
X6000000Y51780000D03*
D13*
X3460000Y51780000D03*
X6000000Y49240000D03*
X3460000Y49240000D03*
X6000000Y46700000D03*
X3460000Y46700000D03*
X6000000Y44160000D03*
X3460000Y44160000D03*
X6000000Y41620000D03*
X3460000Y41620000D03*
X6000000Y39080000D03*
X3460000Y39080000D03*
X6000000Y36540000D03*
X3460000Y36540000D03*
X6000000Y34000000D03*
X3460000Y34000000D03*
X6000000Y31460000D03*
X3460000Y31460000D03*
X6000000Y28920000D03*
X3460000Y28920000D03*
X6000000Y26380000D03*
X3460000Y26380000D03*
X6000000Y23840000D03*
X3460000Y23840000D03*
X6000000Y21300000D03*
X3460000Y21300000D03*
X6000000Y18760000D03*
X3460000Y18760000D03*
X6000000Y16220000D03*
X3460000Y16220000D03*
X6000000Y13680000D03*
X3460000Y13680000D03*
X6000000Y11140000D03*
X3460000Y11140000D03*
X6000000Y8600000D03*
X3460000Y8600000D03*
X6000000Y6060000D03*
X3460000Y6060000D03*
X6000000Y3520000D03*
X3460000Y3520000D03*
G04 #@! TD*
G04 #@! TO.C,R13*
G36*
G01*
X66850000Y48110000D02*
X66850000Y48890000D01*
G75*
G02*
X66920000Y48960000I70000J0D01*
G01*
X67480000Y48960000D01*
G75*
G02*
X67550000Y48890000I0J-70000D01*
G01*
X67550000Y48110000D01*
G75*
G02*
X67480000Y48040000I-70000J0D01*
G01*
X66920000Y48040000D01*
G75*
G02*
X66850000Y48110000I0J70000D01*
G01*
G37*
G36*
G01*
X68450000Y48110000D02*
X68450000Y48890000D01*
G75*
G02*
X68520000Y48960000I70000J0D01*
G01*
X69080000Y48960000D01*
G75*
G02*
X69150000Y48890000I0J-70000D01*
G01*
X69150000Y48110000D01*
G75*
G02*
X69080000Y48040000I-70000J0D01*
G01*
X68520000Y48040000D01*
G75*
G02*
X68450000Y48110000I0J70000D01*
G01*
G37*
G04 #@! TD*
G04 #@! TO.C,C1*
G36*
G01*
X78775000Y23500000D02*
X77725000Y23500000D01*
G75*
G02*
X77625000Y23600000I0J100000D01*
G01*
X77625000Y24400000D01*
G75*
G02*
X77725000Y24500000I100000J0D01*
G01*
X78775000Y24500000D01*
G75*
G02*
X78875000Y24400000I0J-100000D01*
G01*
X78875000Y23600000D01*
G75*
G02*
X78775000Y23500000I-100000J0D01*
G01*
G37*
G36*
G01*
X78775000Y25500000D02*
X77725000Y25500000D01*
G75*
G02*
X77625000Y25600000I0J100000D01*
G01*
X77625000Y26400000D01*
G75*
G02*
X77725000Y26500000I100000J0D01*
G01*
X78775000Y26500000D01*
G75*
G02*
X78875000Y26400000I0J-100000D01*
G01*
X78875000Y25600000D01*
G75*
G02*
X78775000Y25500000I-100000J0D01*
G01*
G37*
G04 #@! TD*
M02*
