%TF.GenerationSoftware,KiCad,Pcbnew,8.0.7*%
%TF.CreationDate,2024-12-26T23:24:23+03:00*%
%TF.ProjectId,uaefi,75616566-692e-46b6-9963-61645f706362,D*%
%TF.SameCoordinates,Original*%
%TF.FileFunction,Legend,Top*%
%TF.FilePolarity,Positive*%
%FSLAX46Y46*%
G04 Gerber Fmt 4.6, Leading zero omitted, Abs format (unit mm)*
G04 Created by KiCad (PCBNEW 8.0.7) date 2024-12-26 23:24:23*
%MOMM*%
%LPD*%
G01*
G04 APERTURE LIST*
%ADD10C,0.170000*%
%ADD11C,0.150000*%
%ADD12C,0.127000*%
%ADD13C,0.200000*%
%ADD14C,0.203200*%
%ADD15C,0.120000*%
%ADD16C,0.099060*%
%ADD17C,0.002540*%
%ADD18C,0.000000*%
G04 APERTURE END LIST*
D10*
X106655651Y-46282712D02*
X106616603Y-46321760D01*
X106616603Y-46321760D02*
X106499460Y-46360807D01*
X106499460Y-46360807D02*
X106421365Y-46360807D01*
X106421365Y-46360807D02*
X106304222Y-46321760D01*
X106304222Y-46321760D02*
X106226127Y-46243664D01*
X106226127Y-46243664D02*
X106187079Y-46165569D01*
X106187079Y-46165569D02*
X106148031Y-46009378D01*
X106148031Y-46009378D02*
X106148031Y-45892235D01*
X106148031Y-45892235D02*
X106187079Y-45736045D01*
X106187079Y-45736045D02*
X106226127Y-45657949D01*
X106226127Y-45657949D02*
X106304222Y-45579854D01*
X106304222Y-45579854D02*
X106421365Y-45540806D01*
X106421365Y-45540806D02*
X106499460Y-45540806D01*
X106499460Y-45540806D02*
X106616603Y-45579854D01*
X106616603Y-45579854D02*
X106655651Y-45618902D01*
X106968032Y-45618902D02*
X107007080Y-45579854D01*
X107007080Y-45579854D02*
X107085175Y-45540806D01*
X107085175Y-45540806D02*
X107280414Y-45540806D01*
X107280414Y-45540806D02*
X107358509Y-45579854D01*
X107358509Y-45579854D02*
X107397557Y-45618902D01*
X107397557Y-45618902D02*
X107436604Y-45696997D01*
X107436604Y-45696997D02*
X107436604Y-45775092D01*
X107436604Y-45775092D02*
X107397557Y-45892235D01*
X107397557Y-45892235D02*
X106928985Y-46360807D01*
X106928985Y-46360807D02*
X107436604Y-46360807D01*
X107905176Y-45892235D02*
X107827081Y-45853188D01*
X107827081Y-45853188D02*
X107788033Y-45814140D01*
X107788033Y-45814140D02*
X107748985Y-45736045D01*
X107748985Y-45736045D02*
X107748985Y-45696997D01*
X107748985Y-45696997D02*
X107788033Y-45618902D01*
X107788033Y-45618902D02*
X107827081Y-45579854D01*
X107827081Y-45579854D02*
X107905176Y-45540806D01*
X107905176Y-45540806D02*
X108061367Y-45540806D01*
X108061367Y-45540806D02*
X108139462Y-45579854D01*
X108139462Y-45579854D02*
X108178510Y-45618902D01*
X108178510Y-45618902D02*
X108217557Y-45696997D01*
X108217557Y-45696997D02*
X108217557Y-45736045D01*
X108217557Y-45736045D02*
X108178510Y-45814140D01*
X108178510Y-45814140D02*
X108139462Y-45853188D01*
X108139462Y-45853188D02*
X108061367Y-45892235D01*
X108061367Y-45892235D02*
X107905176Y-45892235D01*
X107905176Y-45892235D02*
X107827081Y-45931283D01*
X107827081Y-45931283D02*
X107788033Y-45970331D01*
X107788033Y-45970331D02*
X107748985Y-46048426D01*
X107748985Y-46048426D02*
X107748985Y-46204617D01*
X107748985Y-46204617D02*
X107788033Y-46282712D01*
X107788033Y-46282712D02*
X107827081Y-46321760D01*
X107827081Y-46321760D02*
X107905176Y-46360807D01*
X107905176Y-46360807D02*
X108061367Y-46360807D01*
X108061367Y-46360807D02*
X108139462Y-46321760D01*
X108139462Y-46321760D02*
X108178510Y-46282712D01*
X108178510Y-46282712D02*
X108217557Y-46204617D01*
X108217557Y-46204617D02*
X108217557Y-46048426D01*
X108217557Y-46048426D02*
X108178510Y-45970331D01*
X108178510Y-45970331D02*
X108139462Y-45931283D01*
X108139462Y-45931283D02*
X108061367Y-45892235D01*
X139275651Y-83890808D02*
X139002318Y-83500332D01*
X138807080Y-83890808D02*
X138807080Y-83070808D01*
X138807080Y-83070808D02*
X139119461Y-83070808D01*
X139119461Y-83070808D02*
X139197556Y-83109856D01*
X139197556Y-83109856D02*
X139236603Y-83148903D01*
X139236603Y-83148903D02*
X139275651Y-83226999D01*
X139275651Y-83226999D02*
X139275651Y-83344141D01*
X139275651Y-83344141D02*
X139236603Y-83422237D01*
X139236603Y-83422237D02*
X139197556Y-83461284D01*
X139197556Y-83461284D02*
X139119461Y-83500332D01*
X139119461Y-83500332D02*
X138807080Y-83500332D01*
X140056603Y-83890808D02*
X139588032Y-83890808D01*
X139822318Y-83890808D02*
X139822318Y-83070808D01*
X139822318Y-83070808D02*
X139744222Y-83187951D01*
X139744222Y-83187951D02*
X139666127Y-83266046D01*
X139666127Y-83266046D02*
X139588032Y-83305094D01*
X140368984Y-83148903D02*
X140408032Y-83109856D01*
X140408032Y-83109856D02*
X140486127Y-83070808D01*
X140486127Y-83070808D02*
X140681365Y-83070808D01*
X140681365Y-83070808D02*
X140759460Y-83109856D01*
X140759460Y-83109856D02*
X140798508Y-83148903D01*
X140798508Y-83148903D02*
X140837555Y-83226999D01*
X140837555Y-83226999D02*
X140837555Y-83305094D01*
X140837555Y-83305094D02*
X140798508Y-83422237D01*
X140798508Y-83422237D02*
X140329936Y-83890808D01*
X140329936Y-83890808D02*
X140837555Y-83890808D01*
D11*
X90954166Y-69431009D02*
X90620833Y-69431009D01*
X90620833Y-69954819D02*
X90620833Y-68954819D01*
X90620833Y-68954819D02*
X91097023Y-68954819D01*
X91906547Y-68954819D02*
X91716071Y-68954819D01*
X91716071Y-68954819D02*
X91620833Y-69002438D01*
X91620833Y-69002438D02*
X91573214Y-69050057D01*
X91573214Y-69050057D02*
X91477976Y-69192914D01*
X91477976Y-69192914D02*
X91430357Y-69383390D01*
X91430357Y-69383390D02*
X91430357Y-69764342D01*
X91430357Y-69764342D02*
X91477976Y-69859580D01*
X91477976Y-69859580D02*
X91525595Y-69907200D01*
X91525595Y-69907200D02*
X91620833Y-69954819D01*
X91620833Y-69954819D02*
X91811309Y-69954819D01*
X91811309Y-69954819D02*
X91906547Y-69907200D01*
X91906547Y-69907200D02*
X91954166Y-69859580D01*
X91954166Y-69859580D02*
X92001785Y-69764342D01*
X92001785Y-69764342D02*
X92001785Y-69526247D01*
X92001785Y-69526247D02*
X91954166Y-69431009D01*
X91954166Y-69431009D02*
X91906547Y-69383390D01*
X91906547Y-69383390D02*
X91811309Y-69335771D01*
X91811309Y-69335771D02*
X91620833Y-69335771D01*
X91620833Y-69335771D02*
X91525595Y-69383390D01*
X91525595Y-69383390D02*
X91477976Y-69431009D01*
X91477976Y-69431009D02*
X91430357Y-69526247D01*
D10*
X134390808Y-66224348D02*
X134000332Y-66497681D01*
X134390808Y-66692919D02*
X133570808Y-66692919D01*
X133570808Y-66692919D02*
X133570808Y-66380538D01*
X133570808Y-66380538D02*
X133609856Y-66302443D01*
X133609856Y-66302443D02*
X133648903Y-66263396D01*
X133648903Y-66263396D02*
X133726999Y-66224348D01*
X133726999Y-66224348D02*
X133844141Y-66224348D01*
X133844141Y-66224348D02*
X133922237Y-66263396D01*
X133922237Y-66263396D02*
X133961284Y-66302443D01*
X133961284Y-66302443D02*
X134000332Y-66380538D01*
X134000332Y-66380538D02*
X134000332Y-66692919D01*
X133570808Y-65951015D02*
X133570808Y-65443396D01*
X133570808Y-65443396D02*
X133883189Y-65716729D01*
X133883189Y-65716729D02*
X133883189Y-65599586D01*
X133883189Y-65599586D02*
X133922237Y-65521491D01*
X133922237Y-65521491D02*
X133961284Y-65482443D01*
X133961284Y-65482443D02*
X134039380Y-65443396D01*
X134039380Y-65443396D02*
X134234618Y-65443396D01*
X134234618Y-65443396D02*
X134312713Y-65482443D01*
X134312713Y-65482443D02*
X134351761Y-65521491D01*
X134351761Y-65521491D02*
X134390808Y-65599586D01*
X134390808Y-65599586D02*
X134390808Y-65833872D01*
X134390808Y-65833872D02*
X134351761Y-65911967D01*
X134351761Y-65911967D02*
X134312713Y-65951015D01*
X133570808Y-65170063D02*
X133570808Y-64662444D01*
X133570808Y-64662444D02*
X133883189Y-64935777D01*
X133883189Y-64935777D02*
X133883189Y-64818634D01*
X133883189Y-64818634D02*
X133922237Y-64740539D01*
X133922237Y-64740539D02*
X133961284Y-64701491D01*
X133961284Y-64701491D02*
X134039380Y-64662444D01*
X134039380Y-64662444D02*
X134234618Y-64662444D01*
X134234618Y-64662444D02*
X134312713Y-64701491D01*
X134312713Y-64701491D02*
X134351761Y-64740539D01*
X134351761Y-64740539D02*
X134390808Y-64818634D01*
X134390808Y-64818634D02*
X134390808Y-65052920D01*
X134390808Y-65052920D02*
X134351761Y-65131015D01*
X134351761Y-65131015D02*
X134312713Y-65170063D01*
D11*
X160431009Y-54619047D02*
X160478628Y-54476190D01*
X160478628Y-54476190D02*
X160526247Y-54428571D01*
X160526247Y-54428571D02*
X160621485Y-54380952D01*
X160621485Y-54380952D02*
X160764342Y-54380952D01*
X160764342Y-54380952D02*
X160859580Y-54428571D01*
X160859580Y-54428571D02*
X160907200Y-54476190D01*
X160907200Y-54476190D02*
X160954819Y-54571428D01*
X160954819Y-54571428D02*
X160954819Y-54952380D01*
X160954819Y-54952380D02*
X159954819Y-54952380D01*
X159954819Y-54952380D02*
X159954819Y-54619047D01*
X159954819Y-54619047D02*
X160002438Y-54523809D01*
X160002438Y-54523809D02*
X160050057Y-54476190D01*
X160050057Y-54476190D02*
X160145295Y-54428571D01*
X160145295Y-54428571D02*
X160240533Y-54428571D01*
X160240533Y-54428571D02*
X160335771Y-54476190D01*
X160335771Y-54476190D02*
X160383390Y-54523809D01*
X160383390Y-54523809D02*
X160431009Y-54619047D01*
X160431009Y-54619047D02*
X160431009Y-54952380D01*
X160954819Y-53476190D02*
X160954819Y-53952380D01*
X160954819Y-53952380D02*
X159954819Y-53952380D01*
X159954819Y-53142856D02*
X160764342Y-53142856D01*
X160764342Y-53142856D02*
X160859580Y-53095237D01*
X160859580Y-53095237D02*
X160907200Y-53047618D01*
X160907200Y-53047618D02*
X160954819Y-52952380D01*
X160954819Y-52952380D02*
X160954819Y-52761904D01*
X160954819Y-52761904D02*
X160907200Y-52666666D01*
X160907200Y-52666666D02*
X160859580Y-52619047D01*
X160859580Y-52619047D02*
X160764342Y-52571428D01*
X160764342Y-52571428D02*
X159954819Y-52571428D01*
X160431009Y-52095237D02*
X160431009Y-51761904D01*
X160954819Y-51619047D02*
X160954819Y-52095237D01*
X160954819Y-52095237D02*
X159954819Y-52095237D01*
X159954819Y-52095237D02*
X159954819Y-51619047D01*
X159954819Y-51333332D02*
X159954819Y-50761904D01*
X160954819Y-51047618D02*
X159954819Y-51047618D01*
X159954819Y-50238094D02*
X159954819Y-50047618D01*
X159954819Y-50047618D02*
X160002438Y-49952380D01*
X160002438Y-49952380D02*
X160097676Y-49857142D01*
X160097676Y-49857142D02*
X160288152Y-49809523D01*
X160288152Y-49809523D02*
X160621485Y-49809523D01*
X160621485Y-49809523D02*
X160811961Y-49857142D01*
X160811961Y-49857142D02*
X160907200Y-49952380D01*
X160907200Y-49952380D02*
X160954819Y-50047618D01*
X160954819Y-50047618D02*
X160954819Y-50238094D01*
X160954819Y-50238094D02*
X160907200Y-50333332D01*
X160907200Y-50333332D02*
X160811961Y-50428570D01*
X160811961Y-50428570D02*
X160621485Y-50476189D01*
X160621485Y-50476189D02*
X160288152Y-50476189D01*
X160288152Y-50476189D02*
X160097676Y-50428570D01*
X160097676Y-50428570D02*
X160002438Y-50333332D01*
X160002438Y-50333332D02*
X159954819Y-50238094D01*
X159954819Y-49190475D02*
X159954819Y-48999999D01*
X159954819Y-48999999D02*
X160002438Y-48904761D01*
X160002438Y-48904761D02*
X160097676Y-48809523D01*
X160097676Y-48809523D02*
X160288152Y-48761904D01*
X160288152Y-48761904D02*
X160621485Y-48761904D01*
X160621485Y-48761904D02*
X160811961Y-48809523D01*
X160811961Y-48809523D02*
X160907200Y-48904761D01*
X160907200Y-48904761D02*
X160954819Y-48999999D01*
X160954819Y-48999999D02*
X160954819Y-49190475D01*
X160954819Y-49190475D02*
X160907200Y-49285713D01*
X160907200Y-49285713D02*
X160811961Y-49380951D01*
X160811961Y-49380951D02*
X160621485Y-49428570D01*
X160621485Y-49428570D02*
X160288152Y-49428570D01*
X160288152Y-49428570D02*
X160097676Y-49380951D01*
X160097676Y-49380951D02*
X160002438Y-49285713D01*
X160002438Y-49285713D02*
X159954819Y-49190475D01*
X159954819Y-48476189D02*
X159954819Y-47904761D01*
X160954819Y-48190475D02*
X159954819Y-48190475D01*
X160954819Y-47571427D02*
X159954819Y-47571427D01*
X160431009Y-47571427D02*
X160431009Y-46999999D01*
X160954819Y-46999999D02*
X159954819Y-46999999D01*
X160954819Y-45999999D02*
X160954819Y-46571427D01*
X160954819Y-46285713D02*
X159954819Y-46285713D01*
X159954819Y-46285713D02*
X160097676Y-46380951D01*
X160097676Y-46380951D02*
X160192914Y-46476189D01*
X160192914Y-46476189D02*
X160240533Y-46571427D01*
D10*
X139275651Y-90890808D02*
X139002318Y-90500332D01*
X138807080Y-90890808D02*
X138807080Y-90070808D01*
X138807080Y-90070808D02*
X139119461Y-90070808D01*
X139119461Y-90070808D02*
X139197556Y-90109856D01*
X139197556Y-90109856D02*
X139236603Y-90148903D01*
X139236603Y-90148903D02*
X139275651Y-90226999D01*
X139275651Y-90226999D02*
X139275651Y-90344141D01*
X139275651Y-90344141D02*
X139236603Y-90422237D01*
X139236603Y-90422237D02*
X139197556Y-90461284D01*
X139197556Y-90461284D02*
X139119461Y-90500332D01*
X139119461Y-90500332D02*
X138807080Y-90500332D01*
X140056603Y-90890808D02*
X139588032Y-90890808D01*
X139822318Y-90890808D02*
X139822318Y-90070808D01*
X139822318Y-90070808D02*
X139744222Y-90187951D01*
X139744222Y-90187951D02*
X139666127Y-90266046D01*
X139666127Y-90266046D02*
X139588032Y-90305094D01*
X140564222Y-90070808D02*
X140642317Y-90070808D01*
X140642317Y-90070808D02*
X140720413Y-90109856D01*
X140720413Y-90109856D02*
X140759460Y-90148903D01*
X140759460Y-90148903D02*
X140798508Y-90226999D01*
X140798508Y-90226999D02*
X140837555Y-90383189D01*
X140837555Y-90383189D02*
X140837555Y-90578427D01*
X140837555Y-90578427D02*
X140798508Y-90734618D01*
X140798508Y-90734618D02*
X140759460Y-90812713D01*
X140759460Y-90812713D02*
X140720413Y-90851761D01*
X140720413Y-90851761D02*
X140642317Y-90890808D01*
X140642317Y-90890808D02*
X140564222Y-90890808D01*
X140564222Y-90890808D02*
X140486127Y-90851761D01*
X140486127Y-90851761D02*
X140447079Y-90812713D01*
X140447079Y-90812713D02*
X140408032Y-90734618D01*
X140408032Y-90734618D02*
X140368984Y-90578427D01*
X140368984Y-90578427D02*
X140368984Y-90383189D01*
X140368984Y-90383189D02*
X140408032Y-90226999D01*
X140408032Y-90226999D02*
X140447079Y-90148903D01*
X140447079Y-90148903D02*
X140486127Y-90109856D01*
X140486127Y-90109856D02*
X140564222Y-90070808D01*
D11*
X103545833Y-46524819D02*
X103069643Y-46524819D01*
X103069643Y-46524819D02*
X103069643Y-45524819D01*
X104402976Y-46524819D02*
X103831548Y-46524819D01*
X104117262Y-46524819D02*
X104117262Y-45524819D01*
X104117262Y-45524819D02*
X104022024Y-45667676D01*
X104022024Y-45667676D02*
X103926786Y-45762914D01*
X103926786Y-45762914D02*
X103831548Y-45810533D01*
X158761905Y-56954819D02*
X158761905Y-57764342D01*
X158761905Y-57764342D02*
X158809524Y-57859580D01*
X158809524Y-57859580D02*
X158857143Y-57907200D01*
X158857143Y-57907200D02*
X158952381Y-57954819D01*
X158952381Y-57954819D02*
X159142857Y-57954819D01*
X159142857Y-57954819D02*
X159238095Y-57907200D01*
X159238095Y-57907200D02*
X159285714Y-57859580D01*
X159285714Y-57859580D02*
X159333333Y-57764342D01*
X159333333Y-57764342D02*
X159333333Y-56954819D01*
X159761905Y-57907200D02*
X159904762Y-57954819D01*
X159904762Y-57954819D02*
X160142857Y-57954819D01*
X160142857Y-57954819D02*
X160238095Y-57907200D01*
X160238095Y-57907200D02*
X160285714Y-57859580D01*
X160285714Y-57859580D02*
X160333333Y-57764342D01*
X160333333Y-57764342D02*
X160333333Y-57669104D01*
X160333333Y-57669104D02*
X160285714Y-57573866D01*
X160285714Y-57573866D02*
X160238095Y-57526247D01*
X160238095Y-57526247D02*
X160142857Y-57478628D01*
X160142857Y-57478628D02*
X159952381Y-57431009D01*
X159952381Y-57431009D02*
X159857143Y-57383390D01*
X159857143Y-57383390D02*
X159809524Y-57335771D01*
X159809524Y-57335771D02*
X159761905Y-57240533D01*
X159761905Y-57240533D02*
X159761905Y-57145295D01*
X159761905Y-57145295D02*
X159809524Y-57050057D01*
X159809524Y-57050057D02*
X159857143Y-57002438D01*
X159857143Y-57002438D02*
X159952381Y-56954819D01*
X159952381Y-56954819D02*
X160190476Y-56954819D01*
X160190476Y-56954819D02*
X160333333Y-57002438D01*
X161095238Y-57431009D02*
X161238095Y-57478628D01*
X161238095Y-57478628D02*
X161285714Y-57526247D01*
X161285714Y-57526247D02*
X161333333Y-57621485D01*
X161333333Y-57621485D02*
X161333333Y-57764342D01*
X161333333Y-57764342D02*
X161285714Y-57859580D01*
X161285714Y-57859580D02*
X161238095Y-57907200D01*
X161238095Y-57907200D02*
X161142857Y-57954819D01*
X161142857Y-57954819D02*
X160761905Y-57954819D01*
X160761905Y-57954819D02*
X160761905Y-56954819D01*
X160761905Y-56954819D02*
X161095238Y-56954819D01*
X161095238Y-56954819D02*
X161190476Y-57002438D01*
X161190476Y-57002438D02*
X161238095Y-57050057D01*
X161238095Y-57050057D02*
X161285714Y-57145295D01*
X161285714Y-57145295D02*
X161285714Y-57240533D01*
X161285714Y-57240533D02*
X161238095Y-57335771D01*
X161238095Y-57335771D02*
X161190476Y-57383390D01*
X161190476Y-57383390D02*
X161095238Y-57431009D01*
X161095238Y-57431009D02*
X160761905Y-57431009D01*
X162285714Y-57954819D02*
X161714286Y-57954819D01*
X162000000Y-57954819D02*
X162000000Y-56954819D01*
X162000000Y-56954819D02*
X161904762Y-57097676D01*
X161904762Y-57097676D02*
X161809524Y-57192914D01*
X161809524Y-57192914D02*
X161714286Y-57240533D01*
D10*
X106655651Y-50902757D02*
X106616603Y-50941805D01*
X106616603Y-50941805D02*
X106499460Y-50980852D01*
X106499460Y-50980852D02*
X106421365Y-50980852D01*
X106421365Y-50980852D02*
X106304222Y-50941805D01*
X106304222Y-50941805D02*
X106226127Y-50863709D01*
X106226127Y-50863709D02*
X106187079Y-50785614D01*
X106187079Y-50785614D02*
X106148031Y-50629423D01*
X106148031Y-50629423D02*
X106148031Y-50512280D01*
X106148031Y-50512280D02*
X106187079Y-50356090D01*
X106187079Y-50356090D02*
X106226127Y-50277994D01*
X106226127Y-50277994D02*
X106304222Y-50199899D01*
X106304222Y-50199899D02*
X106421365Y-50160851D01*
X106421365Y-50160851D02*
X106499460Y-50160851D01*
X106499460Y-50160851D02*
X106616603Y-50199899D01*
X106616603Y-50199899D02*
X106655651Y-50238947D01*
X106928985Y-50160851D02*
X107436604Y-50160851D01*
X107436604Y-50160851D02*
X107163271Y-50473233D01*
X107163271Y-50473233D02*
X107280414Y-50473233D01*
X107280414Y-50473233D02*
X107358509Y-50512280D01*
X107358509Y-50512280D02*
X107397557Y-50551328D01*
X107397557Y-50551328D02*
X107436604Y-50629423D01*
X107436604Y-50629423D02*
X107436604Y-50824662D01*
X107436604Y-50824662D02*
X107397557Y-50902757D01*
X107397557Y-50902757D02*
X107358509Y-50941805D01*
X107358509Y-50941805D02*
X107280414Y-50980852D01*
X107280414Y-50980852D02*
X107046128Y-50980852D01*
X107046128Y-50980852D02*
X106968032Y-50941805D01*
X106968032Y-50941805D02*
X106928985Y-50902757D01*
X108217557Y-50980852D02*
X107748985Y-50980852D01*
X107983271Y-50980852D02*
X107983271Y-50160851D01*
X107983271Y-50160851D02*
X107905176Y-50277994D01*
X107905176Y-50277994D02*
X107827081Y-50356090D01*
X107827081Y-50356090D02*
X107748985Y-50395137D01*
X82275652Y-99390807D02*
X82002318Y-99000331D01*
X81807080Y-99390807D02*
X81807080Y-98570806D01*
X81807080Y-98570806D02*
X82119461Y-98570806D01*
X82119461Y-98570806D02*
X82197557Y-98609854D01*
X82197557Y-98609854D02*
X82236604Y-98648902D01*
X82236604Y-98648902D02*
X82275652Y-98726997D01*
X82275652Y-98726997D02*
X82275652Y-98844140D01*
X82275652Y-98844140D02*
X82236604Y-98922235D01*
X82236604Y-98922235D02*
X82197557Y-98961283D01*
X82197557Y-98961283D02*
X82119461Y-99000331D01*
X82119461Y-99000331D02*
X81807080Y-99000331D01*
X82744224Y-98922235D02*
X82666129Y-98883188D01*
X82666129Y-98883188D02*
X82627081Y-98844140D01*
X82627081Y-98844140D02*
X82588033Y-98766045D01*
X82588033Y-98766045D02*
X82588033Y-98726997D01*
X82588033Y-98726997D02*
X82627081Y-98648902D01*
X82627081Y-98648902D02*
X82666129Y-98609854D01*
X82666129Y-98609854D02*
X82744224Y-98570806D01*
X82744224Y-98570806D02*
X82900415Y-98570806D01*
X82900415Y-98570806D02*
X82978510Y-98609854D01*
X82978510Y-98609854D02*
X83017558Y-98648902D01*
X83017558Y-98648902D02*
X83056605Y-98726997D01*
X83056605Y-98726997D02*
X83056605Y-98766045D01*
X83056605Y-98766045D02*
X83017558Y-98844140D01*
X83017558Y-98844140D02*
X82978510Y-98883188D01*
X82978510Y-98883188D02*
X82900415Y-98922235D01*
X82900415Y-98922235D02*
X82744224Y-98922235D01*
X82744224Y-98922235D02*
X82666129Y-98961283D01*
X82666129Y-98961283D02*
X82627081Y-99000331D01*
X82627081Y-99000331D02*
X82588033Y-99078426D01*
X82588033Y-99078426D02*
X82588033Y-99234617D01*
X82588033Y-99234617D02*
X82627081Y-99312712D01*
X82627081Y-99312712D02*
X82666129Y-99351760D01*
X82666129Y-99351760D02*
X82744224Y-99390807D01*
X82744224Y-99390807D02*
X82900415Y-99390807D01*
X82900415Y-99390807D02*
X82978510Y-99351760D01*
X82978510Y-99351760D02*
X83017558Y-99312712D01*
X83017558Y-99312712D02*
X83056605Y-99234617D01*
X83056605Y-99234617D02*
X83056605Y-99078426D01*
X83056605Y-99078426D02*
X83017558Y-99000331D01*
X83017558Y-99000331D02*
X82978510Y-98961283D01*
X82978510Y-98961283D02*
X82900415Y-98922235D01*
X106655651Y-47802727D02*
X106616603Y-47841775D01*
X106616603Y-47841775D02*
X106499460Y-47880822D01*
X106499460Y-47880822D02*
X106421365Y-47880822D01*
X106421365Y-47880822D02*
X106304222Y-47841775D01*
X106304222Y-47841775D02*
X106226127Y-47763679D01*
X106226127Y-47763679D02*
X106187079Y-47685584D01*
X106187079Y-47685584D02*
X106148031Y-47529393D01*
X106148031Y-47529393D02*
X106148031Y-47412250D01*
X106148031Y-47412250D02*
X106187079Y-47256060D01*
X106187079Y-47256060D02*
X106226127Y-47177964D01*
X106226127Y-47177964D02*
X106304222Y-47099869D01*
X106304222Y-47099869D02*
X106421365Y-47060821D01*
X106421365Y-47060821D02*
X106499460Y-47060821D01*
X106499460Y-47060821D02*
X106616603Y-47099869D01*
X106616603Y-47099869D02*
X106655651Y-47138917D01*
X106968032Y-47138917D02*
X107007080Y-47099869D01*
X107007080Y-47099869D02*
X107085175Y-47060821D01*
X107085175Y-47060821D02*
X107280414Y-47060821D01*
X107280414Y-47060821D02*
X107358509Y-47099869D01*
X107358509Y-47099869D02*
X107397557Y-47138917D01*
X107397557Y-47138917D02*
X107436604Y-47217012D01*
X107436604Y-47217012D02*
X107436604Y-47295107D01*
X107436604Y-47295107D02*
X107397557Y-47412250D01*
X107397557Y-47412250D02*
X106928985Y-47880822D01*
X106928985Y-47880822D02*
X107436604Y-47880822D01*
X107827081Y-47880822D02*
X107983271Y-47880822D01*
X107983271Y-47880822D02*
X108061367Y-47841775D01*
X108061367Y-47841775D02*
X108100414Y-47802727D01*
X108100414Y-47802727D02*
X108178510Y-47685584D01*
X108178510Y-47685584D02*
X108217557Y-47529393D01*
X108217557Y-47529393D02*
X108217557Y-47217012D01*
X108217557Y-47217012D02*
X108178510Y-47138917D01*
X108178510Y-47138917D02*
X108139462Y-47099869D01*
X108139462Y-47099869D02*
X108061367Y-47060821D01*
X108061367Y-47060821D02*
X107905176Y-47060821D01*
X107905176Y-47060821D02*
X107827081Y-47099869D01*
X107827081Y-47099869D02*
X107788033Y-47138917D01*
X107788033Y-47138917D02*
X107748985Y-47217012D01*
X107748985Y-47217012D02*
X107748985Y-47412250D01*
X107748985Y-47412250D02*
X107788033Y-47490346D01*
X107788033Y-47490346D02*
X107827081Y-47529393D01*
X107827081Y-47529393D02*
X107905176Y-47568441D01*
X107905176Y-47568441D02*
X108061367Y-47568441D01*
X108061367Y-47568441D02*
X108139462Y-47529393D01*
X108139462Y-47529393D02*
X108178510Y-47490346D01*
X108178510Y-47490346D02*
X108217557Y-47412250D01*
X106655651Y-49352742D02*
X106616603Y-49391790D01*
X106616603Y-49391790D02*
X106499460Y-49430837D01*
X106499460Y-49430837D02*
X106421365Y-49430837D01*
X106421365Y-49430837D02*
X106304222Y-49391790D01*
X106304222Y-49391790D02*
X106226127Y-49313694D01*
X106226127Y-49313694D02*
X106187079Y-49235599D01*
X106187079Y-49235599D02*
X106148031Y-49079408D01*
X106148031Y-49079408D02*
X106148031Y-48962265D01*
X106148031Y-48962265D02*
X106187079Y-48806075D01*
X106187079Y-48806075D02*
X106226127Y-48727979D01*
X106226127Y-48727979D02*
X106304222Y-48649884D01*
X106304222Y-48649884D02*
X106421365Y-48610836D01*
X106421365Y-48610836D02*
X106499460Y-48610836D01*
X106499460Y-48610836D02*
X106616603Y-48649884D01*
X106616603Y-48649884D02*
X106655651Y-48688932D01*
X106928985Y-48610836D02*
X107436604Y-48610836D01*
X107436604Y-48610836D02*
X107163271Y-48923218D01*
X107163271Y-48923218D02*
X107280414Y-48923218D01*
X107280414Y-48923218D02*
X107358509Y-48962265D01*
X107358509Y-48962265D02*
X107397557Y-49001313D01*
X107397557Y-49001313D02*
X107436604Y-49079408D01*
X107436604Y-49079408D02*
X107436604Y-49274647D01*
X107436604Y-49274647D02*
X107397557Y-49352742D01*
X107397557Y-49352742D02*
X107358509Y-49391790D01*
X107358509Y-49391790D02*
X107280414Y-49430837D01*
X107280414Y-49430837D02*
X107046128Y-49430837D01*
X107046128Y-49430837D02*
X106968032Y-49391790D01*
X106968032Y-49391790D02*
X106928985Y-49352742D01*
X107944224Y-48610836D02*
X108022319Y-48610836D01*
X108022319Y-48610836D02*
X108100414Y-48649884D01*
X108100414Y-48649884D02*
X108139462Y-48688932D01*
X108139462Y-48688932D02*
X108178510Y-48767027D01*
X108178510Y-48767027D02*
X108217557Y-48923218D01*
X108217557Y-48923218D02*
X108217557Y-49118456D01*
X108217557Y-49118456D02*
X108178510Y-49274647D01*
X108178510Y-49274647D02*
X108139462Y-49352742D01*
X108139462Y-49352742D02*
X108100414Y-49391790D01*
X108100414Y-49391790D02*
X108022319Y-49430837D01*
X108022319Y-49430837D02*
X107944224Y-49430837D01*
X107944224Y-49430837D02*
X107866128Y-49391790D01*
X107866128Y-49391790D02*
X107827081Y-49352742D01*
X107827081Y-49352742D02*
X107788033Y-49274647D01*
X107788033Y-49274647D02*
X107748985Y-49118456D01*
X107748985Y-49118456D02*
X107748985Y-48923218D01*
X107748985Y-48923218D02*
X107788033Y-48767027D01*
X107788033Y-48767027D02*
X107827081Y-48688932D01*
X107827081Y-48688932D02*
X107866128Y-48649884D01*
X107866128Y-48649884D02*
X107944224Y-48610836D01*
D11*
X153738095Y-65954819D02*
X153738095Y-66764342D01*
X153738095Y-66764342D02*
X153785714Y-66859580D01*
X153785714Y-66859580D02*
X153833333Y-66907200D01*
X153833333Y-66907200D02*
X153928571Y-66954819D01*
X153928571Y-66954819D02*
X154119047Y-66954819D01*
X154119047Y-66954819D02*
X154214285Y-66907200D01*
X154214285Y-66907200D02*
X154261904Y-66859580D01*
X154261904Y-66859580D02*
X154309523Y-66764342D01*
X154309523Y-66764342D02*
X154309523Y-65954819D01*
X154833333Y-66954819D02*
X155023809Y-66954819D01*
X155023809Y-66954819D02*
X155119047Y-66907200D01*
X155119047Y-66907200D02*
X155166666Y-66859580D01*
X155166666Y-66859580D02*
X155261904Y-66716723D01*
X155261904Y-66716723D02*
X155309523Y-66526247D01*
X155309523Y-66526247D02*
X155309523Y-66145295D01*
X155309523Y-66145295D02*
X155261904Y-66050057D01*
X155261904Y-66050057D02*
X155214285Y-66002438D01*
X155214285Y-66002438D02*
X155119047Y-65954819D01*
X155119047Y-65954819D02*
X154928571Y-65954819D01*
X154928571Y-65954819D02*
X154833333Y-66002438D01*
X154833333Y-66002438D02*
X154785714Y-66050057D01*
X154785714Y-66050057D02*
X154738095Y-66145295D01*
X154738095Y-66145295D02*
X154738095Y-66383390D01*
X154738095Y-66383390D02*
X154785714Y-66478628D01*
X154785714Y-66478628D02*
X154833333Y-66526247D01*
X154833333Y-66526247D02*
X154928571Y-66573866D01*
X154928571Y-66573866D02*
X155119047Y-66573866D01*
X155119047Y-66573866D02*
X155214285Y-66526247D01*
X155214285Y-66526247D02*
X155261904Y-66478628D01*
X155261904Y-66478628D02*
X155309523Y-66383390D01*
X153738095Y-80054819D02*
X153738095Y-80864342D01*
X153738095Y-80864342D02*
X153785714Y-80959580D01*
X153785714Y-80959580D02*
X153833333Y-81007200D01*
X153833333Y-81007200D02*
X153928571Y-81054819D01*
X153928571Y-81054819D02*
X154119047Y-81054819D01*
X154119047Y-81054819D02*
X154214285Y-81007200D01*
X154214285Y-81007200D02*
X154261904Y-80959580D01*
X154261904Y-80959580D02*
X154309523Y-80864342D01*
X154309523Y-80864342D02*
X154309523Y-80054819D01*
X155214285Y-80054819D02*
X155023809Y-80054819D01*
X155023809Y-80054819D02*
X154928571Y-80102438D01*
X154928571Y-80102438D02*
X154880952Y-80150057D01*
X154880952Y-80150057D02*
X154785714Y-80292914D01*
X154785714Y-80292914D02*
X154738095Y-80483390D01*
X154738095Y-80483390D02*
X154738095Y-80864342D01*
X154738095Y-80864342D02*
X154785714Y-80959580D01*
X154785714Y-80959580D02*
X154833333Y-81007200D01*
X154833333Y-81007200D02*
X154928571Y-81054819D01*
X154928571Y-81054819D02*
X155119047Y-81054819D01*
X155119047Y-81054819D02*
X155214285Y-81007200D01*
X155214285Y-81007200D02*
X155261904Y-80959580D01*
X155261904Y-80959580D02*
X155309523Y-80864342D01*
X155309523Y-80864342D02*
X155309523Y-80626247D01*
X155309523Y-80626247D02*
X155261904Y-80531009D01*
X155261904Y-80531009D02*
X155214285Y-80483390D01*
X155214285Y-80483390D02*
X155119047Y-80435771D01*
X155119047Y-80435771D02*
X154928571Y-80435771D01*
X154928571Y-80435771D02*
X154833333Y-80483390D01*
X154833333Y-80483390D02*
X154785714Y-80531009D01*
X154785714Y-80531009D02*
X154738095Y-80626247D01*
D10*
X140390808Y-66224348D02*
X140000332Y-66497681D01*
X140390808Y-66692919D02*
X139570808Y-66692919D01*
X139570808Y-66692919D02*
X139570808Y-66380538D01*
X139570808Y-66380538D02*
X139609856Y-66302443D01*
X139609856Y-66302443D02*
X139648903Y-66263396D01*
X139648903Y-66263396D02*
X139726999Y-66224348D01*
X139726999Y-66224348D02*
X139844141Y-66224348D01*
X139844141Y-66224348D02*
X139922237Y-66263396D01*
X139922237Y-66263396D02*
X139961284Y-66302443D01*
X139961284Y-66302443D02*
X140000332Y-66380538D01*
X140000332Y-66380538D02*
X140000332Y-66692919D01*
X139648903Y-65911967D02*
X139609856Y-65872919D01*
X139609856Y-65872919D02*
X139570808Y-65794824D01*
X139570808Y-65794824D02*
X139570808Y-65599586D01*
X139570808Y-65599586D02*
X139609856Y-65521491D01*
X139609856Y-65521491D02*
X139648903Y-65482443D01*
X139648903Y-65482443D02*
X139726999Y-65443396D01*
X139726999Y-65443396D02*
X139805094Y-65443396D01*
X139805094Y-65443396D02*
X139922237Y-65482443D01*
X139922237Y-65482443D02*
X140390808Y-65951015D01*
X140390808Y-65951015D02*
X140390808Y-65443396D01*
X140390808Y-65052920D02*
X140390808Y-64896729D01*
X140390808Y-64896729D02*
X140351761Y-64818634D01*
X140351761Y-64818634D02*
X140312713Y-64779586D01*
X140312713Y-64779586D02*
X140195570Y-64701491D01*
X140195570Y-64701491D02*
X140039380Y-64662444D01*
X140039380Y-64662444D02*
X139726999Y-64662444D01*
X139726999Y-64662444D02*
X139648903Y-64701491D01*
X139648903Y-64701491D02*
X139609856Y-64740539D01*
X139609856Y-64740539D02*
X139570808Y-64818634D01*
X139570808Y-64818634D02*
X139570808Y-64974825D01*
X139570808Y-64974825D02*
X139609856Y-65052920D01*
X139609856Y-65052920D02*
X139648903Y-65091967D01*
X139648903Y-65091967D02*
X139726999Y-65131015D01*
X139726999Y-65131015D02*
X139922237Y-65131015D01*
X139922237Y-65131015D02*
X140000332Y-65091967D01*
X140000332Y-65091967D02*
X140039380Y-65052920D01*
X140039380Y-65052920D02*
X140078427Y-64974825D01*
X140078427Y-64974825D02*
X140078427Y-64818634D01*
X140078427Y-64818634D02*
X140039380Y-64740539D01*
X140039380Y-64740539D02*
X140000332Y-64701491D01*
X140000332Y-64701491D02*
X139922237Y-64662444D01*
X158394762Y-90870508D02*
X158394762Y-90050508D01*
X158394762Y-90050508D02*
X158590000Y-90050508D01*
X158590000Y-90050508D02*
X158707143Y-90089556D01*
X158707143Y-90089556D02*
X158785238Y-90167651D01*
X158785238Y-90167651D02*
X158824285Y-90245746D01*
X158824285Y-90245746D02*
X158863333Y-90401937D01*
X158863333Y-90401937D02*
X158863333Y-90519080D01*
X158863333Y-90519080D02*
X158824285Y-90675270D01*
X158824285Y-90675270D02*
X158785238Y-90753365D01*
X158785238Y-90753365D02*
X158707143Y-90831461D01*
X158707143Y-90831461D02*
X158590000Y-90870508D01*
X158590000Y-90870508D02*
X158394762Y-90870508D01*
X159605238Y-90050508D02*
X159214762Y-90050508D01*
X159214762Y-90050508D02*
X159175714Y-90440984D01*
X159175714Y-90440984D02*
X159214762Y-90401937D01*
X159214762Y-90401937D02*
X159292857Y-90362889D01*
X159292857Y-90362889D02*
X159488095Y-90362889D01*
X159488095Y-90362889D02*
X159566190Y-90401937D01*
X159566190Y-90401937D02*
X159605238Y-90440984D01*
X159605238Y-90440984D02*
X159644285Y-90519080D01*
X159644285Y-90519080D02*
X159644285Y-90714318D01*
X159644285Y-90714318D02*
X159605238Y-90792413D01*
X159605238Y-90792413D02*
X159566190Y-90831461D01*
X159566190Y-90831461D02*
X159488095Y-90870508D01*
X159488095Y-90870508D02*
X159292857Y-90870508D01*
X159292857Y-90870508D02*
X159214762Y-90831461D01*
X159214762Y-90831461D02*
X159175714Y-90792413D01*
X82275652Y-96890807D02*
X82002318Y-96500331D01*
X81807080Y-96890807D02*
X81807080Y-96070806D01*
X81807080Y-96070806D02*
X82119461Y-96070806D01*
X82119461Y-96070806D02*
X82197557Y-96109854D01*
X82197557Y-96109854D02*
X82236604Y-96148902D01*
X82236604Y-96148902D02*
X82275652Y-96226997D01*
X82275652Y-96226997D02*
X82275652Y-96344140D01*
X82275652Y-96344140D02*
X82236604Y-96422235D01*
X82236604Y-96422235D02*
X82197557Y-96461283D01*
X82197557Y-96461283D02*
X82119461Y-96500331D01*
X82119461Y-96500331D02*
X81807080Y-96500331D01*
X82548986Y-96070806D02*
X83095653Y-96070806D01*
X83095653Y-96070806D02*
X82744224Y-96890807D01*
D11*
X82616741Y-83905573D02*
X82616741Y-83305573D01*
X82616741Y-83305573D02*
X82816741Y-83734144D01*
X82816741Y-83734144D02*
X83016741Y-83305573D01*
X83016741Y-83305573D02*
X83016741Y-83905573D01*
X83273883Y-83362716D02*
X83302455Y-83334144D01*
X83302455Y-83334144D02*
X83359598Y-83305573D01*
X83359598Y-83305573D02*
X83502455Y-83305573D01*
X83502455Y-83305573D02*
X83559598Y-83334144D01*
X83559598Y-83334144D02*
X83588169Y-83362716D01*
X83588169Y-83362716D02*
X83616740Y-83419859D01*
X83616740Y-83419859D02*
X83616740Y-83477002D01*
X83616740Y-83477002D02*
X83588169Y-83562716D01*
X83588169Y-83562716D02*
X83245312Y-83905573D01*
X83245312Y-83905573D02*
X83616740Y-83905573D01*
D10*
X82563151Y-71890808D02*
X82289818Y-71500332D01*
X82094580Y-71890808D02*
X82094580Y-71070808D01*
X82094580Y-71070808D02*
X82406961Y-71070808D01*
X82406961Y-71070808D02*
X82485056Y-71109856D01*
X82485056Y-71109856D02*
X82524103Y-71148903D01*
X82524103Y-71148903D02*
X82563151Y-71226999D01*
X82563151Y-71226999D02*
X82563151Y-71344141D01*
X82563151Y-71344141D02*
X82524103Y-71422237D01*
X82524103Y-71422237D02*
X82485056Y-71461284D01*
X82485056Y-71461284D02*
X82406961Y-71500332D01*
X82406961Y-71500332D02*
X82094580Y-71500332D01*
X82875532Y-71148903D02*
X82914580Y-71109856D01*
X82914580Y-71109856D02*
X82992675Y-71070808D01*
X82992675Y-71070808D02*
X83187913Y-71070808D01*
X83187913Y-71070808D02*
X83266008Y-71109856D01*
X83266008Y-71109856D02*
X83305056Y-71148903D01*
X83305056Y-71148903D02*
X83344103Y-71226999D01*
X83344103Y-71226999D02*
X83344103Y-71305094D01*
X83344103Y-71305094D02*
X83305056Y-71422237D01*
X83305056Y-71422237D02*
X82836484Y-71890808D01*
X82836484Y-71890808D02*
X83344103Y-71890808D01*
X84125055Y-71890808D02*
X83656484Y-71890808D01*
X83890770Y-71890808D02*
X83890770Y-71070808D01*
X83890770Y-71070808D02*
X83812674Y-71187951D01*
X83812674Y-71187951D02*
X83734579Y-71266046D01*
X83734579Y-71266046D02*
X83656484Y-71305094D01*
X137390808Y-66224348D02*
X137000332Y-66497681D01*
X137390808Y-66692919D02*
X136570808Y-66692919D01*
X136570808Y-66692919D02*
X136570808Y-66380538D01*
X136570808Y-66380538D02*
X136609856Y-66302443D01*
X136609856Y-66302443D02*
X136648903Y-66263396D01*
X136648903Y-66263396D02*
X136726999Y-66224348D01*
X136726999Y-66224348D02*
X136844141Y-66224348D01*
X136844141Y-66224348D02*
X136922237Y-66263396D01*
X136922237Y-66263396D02*
X136961284Y-66302443D01*
X136961284Y-66302443D02*
X137000332Y-66380538D01*
X137000332Y-66380538D02*
X137000332Y-66692919D01*
X136570808Y-65951015D02*
X136570808Y-65443396D01*
X136570808Y-65443396D02*
X136883189Y-65716729D01*
X136883189Y-65716729D02*
X136883189Y-65599586D01*
X136883189Y-65599586D02*
X136922237Y-65521491D01*
X136922237Y-65521491D02*
X136961284Y-65482443D01*
X136961284Y-65482443D02*
X137039380Y-65443396D01*
X137039380Y-65443396D02*
X137234618Y-65443396D01*
X137234618Y-65443396D02*
X137312713Y-65482443D01*
X137312713Y-65482443D02*
X137351761Y-65521491D01*
X137351761Y-65521491D02*
X137390808Y-65599586D01*
X137390808Y-65599586D02*
X137390808Y-65833872D01*
X137390808Y-65833872D02*
X137351761Y-65911967D01*
X137351761Y-65911967D02*
X137312713Y-65951015D01*
X137390808Y-64662444D02*
X137390808Y-65131015D01*
X137390808Y-64896729D02*
X136570808Y-64896729D01*
X136570808Y-64896729D02*
X136687951Y-64974825D01*
X136687951Y-64974825D02*
X136766046Y-65052920D01*
X136766046Y-65052920D02*
X136805094Y-65131015D01*
X158394762Y-88870508D02*
X158394762Y-88050508D01*
X158394762Y-88050508D02*
X158590000Y-88050508D01*
X158590000Y-88050508D02*
X158707143Y-88089556D01*
X158707143Y-88089556D02*
X158785238Y-88167651D01*
X158785238Y-88167651D02*
X158824285Y-88245746D01*
X158824285Y-88245746D02*
X158863333Y-88401937D01*
X158863333Y-88401937D02*
X158863333Y-88519080D01*
X158863333Y-88519080D02*
X158824285Y-88675270D01*
X158824285Y-88675270D02*
X158785238Y-88753365D01*
X158785238Y-88753365D02*
X158707143Y-88831461D01*
X158707143Y-88831461D02*
X158590000Y-88870508D01*
X158590000Y-88870508D02*
X158394762Y-88870508D01*
X159566190Y-88323841D02*
X159566190Y-88870508D01*
X159370952Y-88011461D02*
X159175714Y-88597175D01*
X159175714Y-88597175D02*
X159683333Y-88597175D01*
X91485651Y-46572582D02*
X91446603Y-46611630D01*
X91446603Y-46611630D02*
X91329460Y-46650677D01*
X91329460Y-46650677D02*
X91251365Y-46650677D01*
X91251365Y-46650677D02*
X91134222Y-46611630D01*
X91134222Y-46611630D02*
X91056127Y-46533534D01*
X91056127Y-46533534D02*
X91017079Y-46455439D01*
X91017079Y-46455439D02*
X90978031Y-46299248D01*
X90978031Y-46299248D02*
X90978031Y-46182105D01*
X90978031Y-46182105D02*
X91017079Y-46025915D01*
X91017079Y-46025915D02*
X91056127Y-45947819D01*
X91056127Y-45947819D02*
X91134222Y-45869724D01*
X91134222Y-45869724D02*
X91251365Y-45830676D01*
X91251365Y-45830676D02*
X91329460Y-45830676D01*
X91329460Y-45830676D02*
X91446603Y-45869724D01*
X91446603Y-45869724D02*
X91485651Y-45908772D01*
X91798032Y-45908772D02*
X91837080Y-45869724D01*
X91837080Y-45869724D02*
X91915175Y-45830676D01*
X91915175Y-45830676D02*
X92110414Y-45830676D01*
X92110414Y-45830676D02*
X92188509Y-45869724D01*
X92188509Y-45869724D02*
X92227557Y-45908772D01*
X92227557Y-45908772D02*
X92266604Y-45986867D01*
X92266604Y-45986867D02*
X92266604Y-46064962D01*
X92266604Y-46064962D02*
X92227557Y-46182105D01*
X92227557Y-46182105D02*
X91758985Y-46650677D01*
X91758985Y-46650677D02*
X92266604Y-46650677D01*
X92539938Y-45830676D02*
X93086605Y-45830676D01*
X93086605Y-45830676D02*
X92735176Y-46650677D01*
D11*
X153261905Y-72954819D02*
X153261905Y-73764342D01*
X153261905Y-73764342D02*
X153309524Y-73859580D01*
X153309524Y-73859580D02*
X153357143Y-73907200D01*
X153357143Y-73907200D02*
X153452381Y-73954819D01*
X153452381Y-73954819D02*
X153642857Y-73954819D01*
X153642857Y-73954819D02*
X153738095Y-73907200D01*
X153738095Y-73907200D02*
X153785714Y-73859580D01*
X153785714Y-73859580D02*
X153833333Y-73764342D01*
X153833333Y-73764342D02*
X153833333Y-72954819D01*
X154833333Y-73954819D02*
X154261905Y-73954819D01*
X154547619Y-73954819D02*
X154547619Y-72954819D01*
X154547619Y-72954819D02*
X154452381Y-73097676D01*
X154452381Y-73097676D02*
X154357143Y-73192914D01*
X154357143Y-73192914D02*
X154261905Y-73240533D01*
X155785714Y-73954819D02*
X155214286Y-73954819D01*
X155500000Y-73954819D02*
X155500000Y-72954819D01*
X155500000Y-72954819D02*
X155404762Y-73097676D01*
X155404762Y-73097676D02*
X155309524Y-73192914D01*
X155309524Y-73192914D02*
X155214286Y-73240533D01*
D12*
X147946768Y-113753999D02*
X147946768Y-114007999D01*
X148345911Y-114007999D02*
X147583911Y-114007999D01*
X147583911Y-114007999D02*
X147583911Y-113645142D01*
X148345911Y-112955713D02*
X148345911Y-113391142D01*
X148345911Y-113173427D02*
X147583911Y-113173427D01*
X147583911Y-113173427D02*
X147692768Y-113245999D01*
X147692768Y-113245999D02*
X147765340Y-113318570D01*
X147765340Y-113318570D02*
X147801626Y-113391142D01*
D11*
X115738095Y-45554819D02*
X115738095Y-46364342D01*
X115738095Y-46364342D02*
X115785714Y-46459580D01*
X115785714Y-46459580D02*
X115833333Y-46507200D01*
X115833333Y-46507200D02*
X115928571Y-46554819D01*
X115928571Y-46554819D02*
X116119047Y-46554819D01*
X116119047Y-46554819D02*
X116214285Y-46507200D01*
X116214285Y-46507200D02*
X116261904Y-46459580D01*
X116261904Y-46459580D02*
X116309523Y-46364342D01*
X116309523Y-46364342D02*
X116309523Y-45554819D01*
X117214285Y-45888152D02*
X117214285Y-46554819D01*
X116976190Y-45507200D02*
X116738095Y-46221485D01*
X116738095Y-46221485D02*
X117357142Y-46221485D01*
X98474405Y-46954819D02*
X98474405Y-45954819D01*
X98474405Y-45954819D02*
X98712500Y-45954819D01*
X98712500Y-45954819D02*
X98855357Y-46002438D01*
X98855357Y-46002438D02*
X98950595Y-46097676D01*
X98950595Y-46097676D02*
X98998214Y-46192914D01*
X98998214Y-46192914D02*
X99045833Y-46383390D01*
X99045833Y-46383390D02*
X99045833Y-46526247D01*
X99045833Y-46526247D02*
X98998214Y-46716723D01*
X98998214Y-46716723D02*
X98950595Y-46811961D01*
X98950595Y-46811961D02*
X98855357Y-46907200D01*
X98855357Y-46907200D02*
X98712500Y-46954819D01*
X98712500Y-46954819D02*
X98474405Y-46954819D01*
X99617262Y-46383390D02*
X99522024Y-46335771D01*
X99522024Y-46335771D02*
X99474405Y-46288152D01*
X99474405Y-46288152D02*
X99426786Y-46192914D01*
X99426786Y-46192914D02*
X99426786Y-46145295D01*
X99426786Y-46145295D02*
X99474405Y-46050057D01*
X99474405Y-46050057D02*
X99522024Y-46002438D01*
X99522024Y-46002438D02*
X99617262Y-45954819D01*
X99617262Y-45954819D02*
X99807738Y-45954819D01*
X99807738Y-45954819D02*
X99902976Y-46002438D01*
X99902976Y-46002438D02*
X99950595Y-46050057D01*
X99950595Y-46050057D02*
X99998214Y-46145295D01*
X99998214Y-46145295D02*
X99998214Y-46192914D01*
X99998214Y-46192914D02*
X99950595Y-46288152D01*
X99950595Y-46288152D02*
X99902976Y-46335771D01*
X99902976Y-46335771D02*
X99807738Y-46383390D01*
X99807738Y-46383390D02*
X99617262Y-46383390D01*
X99617262Y-46383390D02*
X99522024Y-46431009D01*
X99522024Y-46431009D02*
X99474405Y-46478628D01*
X99474405Y-46478628D02*
X99426786Y-46573866D01*
X99426786Y-46573866D02*
X99426786Y-46764342D01*
X99426786Y-46764342D02*
X99474405Y-46859580D01*
X99474405Y-46859580D02*
X99522024Y-46907200D01*
X99522024Y-46907200D02*
X99617262Y-46954819D01*
X99617262Y-46954819D02*
X99807738Y-46954819D01*
X99807738Y-46954819D02*
X99902976Y-46907200D01*
X99902976Y-46907200D02*
X99950595Y-46859580D01*
X99950595Y-46859580D02*
X99998214Y-46764342D01*
X99998214Y-46764342D02*
X99998214Y-46573866D01*
X99998214Y-46573866D02*
X99950595Y-46478628D01*
X99950595Y-46478628D02*
X99902976Y-46431009D01*
X99902976Y-46431009D02*
X99807738Y-46383390D01*
X103545833Y-49524819D02*
X103069643Y-49524819D01*
X103069643Y-49524819D02*
X103069643Y-48524819D01*
X103831548Y-48620057D02*
X103879167Y-48572438D01*
X103879167Y-48572438D02*
X103974405Y-48524819D01*
X103974405Y-48524819D02*
X104212500Y-48524819D01*
X104212500Y-48524819D02*
X104307738Y-48572438D01*
X104307738Y-48572438D02*
X104355357Y-48620057D01*
X104355357Y-48620057D02*
X104402976Y-48715295D01*
X104402976Y-48715295D02*
X104402976Y-48810533D01*
X104402976Y-48810533D02*
X104355357Y-48953390D01*
X104355357Y-48953390D02*
X103783929Y-49524819D01*
X103783929Y-49524819D02*
X104402976Y-49524819D01*
X144738095Y-89954819D02*
X144738095Y-90764342D01*
X144738095Y-90764342D02*
X144785714Y-90859580D01*
X144785714Y-90859580D02*
X144833333Y-90907200D01*
X144833333Y-90907200D02*
X144928571Y-90954819D01*
X144928571Y-90954819D02*
X145119047Y-90954819D01*
X145119047Y-90954819D02*
X145214285Y-90907200D01*
X145214285Y-90907200D02*
X145261904Y-90859580D01*
X145261904Y-90859580D02*
X145309523Y-90764342D01*
X145309523Y-90764342D02*
X145309523Y-89954819D01*
X145690476Y-89954819D02*
X146357142Y-89954819D01*
X146357142Y-89954819D02*
X145928571Y-90954819D01*
X90954166Y-73431009D02*
X90620833Y-73431009D01*
X90620833Y-73954819D02*
X90620833Y-72954819D01*
X90620833Y-72954819D02*
X91097023Y-72954819D01*
X91382738Y-72954819D02*
X92049404Y-72954819D01*
X92049404Y-72954819D02*
X91620833Y-73954819D01*
D12*
X129845911Y-46626999D02*
X129483054Y-46880999D01*
X129845911Y-47062428D02*
X129083911Y-47062428D01*
X129083911Y-47062428D02*
X129083911Y-46772142D01*
X129083911Y-46772142D02*
X129120197Y-46699571D01*
X129120197Y-46699571D02*
X129156483Y-46663285D01*
X129156483Y-46663285D02*
X129229054Y-46626999D01*
X129229054Y-46626999D02*
X129337911Y-46626999D01*
X129337911Y-46626999D02*
X129410483Y-46663285D01*
X129410483Y-46663285D02*
X129446768Y-46699571D01*
X129446768Y-46699571D02*
X129483054Y-46772142D01*
X129483054Y-46772142D02*
X129483054Y-47062428D01*
X129337911Y-45973857D02*
X129845911Y-45973857D01*
X129047626Y-46155285D02*
X129591911Y-46336714D01*
X129591911Y-46336714D02*
X129591911Y-45864999D01*
D10*
X106275651Y-103339854D02*
X106002318Y-102949378D01*
X105807080Y-103339854D02*
X105807080Y-102519854D01*
X105807080Y-102519854D02*
X106119461Y-102519854D01*
X106119461Y-102519854D02*
X106197556Y-102558902D01*
X106197556Y-102558902D02*
X106236603Y-102597949D01*
X106236603Y-102597949D02*
X106275651Y-102676045D01*
X106275651Y-102676045D02*
X106275651Y-102793187D01*
X106275651Y-102793187D02*
X106236603Y-102871283D01*
X106236603Y-102871283D02*
X106197556Y-102910330D01*
X106197556Y-102910330D02*
X106119461Y-102949378D01*
X106119461Y-102949378D02*
X105807080Y-102949378D01*
X106588032Y-102597949D02*
X106627080Y-102558902D01*
X106627080Y-102558902D02*
X106705175Y-102519854D01*
X106705175Y-102519854D02*
X106900413Y-102519854D01*
X106900413Y-102519854D02*
X106978508Y-102558902D01*
X106978508Y-102558902D02*
X107017556Y-102597949D01*
X107017556Y-102597949D02*
X107056603Y-102676045D01*
X107056603Y-102676045D02*
X107056603Y-102754140D01*
X107056603Y-102754140D02*
X107017556Y-102871283D01*
X107017556Y-102871283D02*
X106548984Y-103339854D01*
X106548984Y-103339854D02*
X107056603Y-103339854D01*
X106275651Y-107390808D02*
X106002318Y-107000332D01*
X105807080Y-107390808D02*
X105807080Y-106570808D01*
X105807080Y-106570808D02*
X106119461Y-106570808D01*
X106119461Y-106570808D02*
X106197556Y-106609856D01*
X106197556Y-106609856D02*
X106236603Y-106648903D01*
X106236603Y-106648903D02*
X106275651Y-106726999D01*
X106275651Y-106726999D02*
X106275651Y-106844141D01*
X106275651Y-106844141D02*
X106236603Y-106922237D01*
X106236603Y-106922237D02*
X106197556Y-106961284D01*
X106197556Y-106961284D02*
X106119461Y-107000332D01*
X106119461Y-107000332D02*
X105807080Y-107000332D01*
X106978508Y-106570808D02*
X106822318Y-106570808D01*
X106822318Y-106570808D02*
X106744222Y-106609856D01*
X106744222Y-106609856D02*
X106705175Y-106648903D01*
X106705175Y-106648903D02*
X106627080Y-106766046D01*
X106627080Y-106766046D02*
X106588032Y-106922237D01*
X106588032Y-106922237D02*
X106588032Y-107234618D01*
X106588032Y-107234618D02*
X106627080Y-107312713D01*
X106627080Y-107312713D02*
X106666127Y-107351761D01*
X106666127Y-107351761D02*
X106744222Y-107390808D01*
X106744222Y-107390808D02*
X106900413Y-107390808D01*
X106900413Y-107390808D02*
X106978508Y-107351761D01*
X106978508Y-107351761D02*
X107017556Y-107312713D01*
X107017556Y-107312713D02*
X107056603Y-107234618D01*
X107056603Y-107234618D02*
X107056603Y-107039380D01*
X107056603Y-107039380D02*
X107017556Y-106961284D01*
X107017556Y-106961284D02*
X106978508Y-106922237D01*
X106978508Y-106922237D02*
X106900413Y-106883189D01*
X106900413Y-106883189D02*
X106744222Y-106883189D01*
X106744222Y-106883189D02*
X106666127Y-106922237D01*
X106666127Y-106922237D02*
X106627080Y-106961284D01*
X106627080Y-106961284D02*
X106588032Y-107039380D01*
X82563151Y-69890808D02*
X82289818Y-69500332D01*
X82094580Y-69890808D02*
X82094580Y-69070808D01*
X82094580Y-69070808D02*
X82406961Y-69070808D01*
X82406961Y-69070808D02*
X82485056Y-69109856D01*
X82485056Y-69109856D02*
X82524103Y-69148903D01*
X82524103Y-69148903D02*
X82563151Y-69226999D01*
X82563151Y-69226999D02*
X82563151Y-69344141D01*
X82563151Y-69344141D02*
X82524103Y-69422237D01*
X82524103Y-69422237D02*
X82485056Y-69461284D01*
X82485056Y-69461284D02*
X82406961Y-69500332D01*
X82406961Y-69500332D02*
X82094580Y-69500332D01*
X82875532Y-69148903D02*
X82914580Y-69109856D01*
X82914580Y-69109856D02*
X82992675Y-69070808D01*
X82992675Y-69070808D02*
X83187913Y-69070808D01*
X83187913Y-69070808D02*
X83266008Y-69109856D01*
X83266008Y-69109856D02*
X83305056Y-69148903D01*
X83305056Y-69148903D02*
X83344103Y-69226999D01*
X83344103Y-69226999D02*
X83344103Y-69305094D01*
X83344103Y-69305094D02*
X83305056Y-69422237D01*
X83305056Y-69422237D02*
X82836484Y-69890808D01*
X82836484Y-69890808D02*
X83344103Y-69890808D01*
X83851722Y-69070808D02*
X83929817Y-69070808D01*
X83929817Y-69070808D02*
X84007913Y-69109856D01*
X84007913Y-69109856D02*
X84046960Y-69148903D01*
X84046960Y-69148903D02*
X84086008Y-69226999D01*
X84086008Y-69226999D02*
X84125055Y-69383189D01*
X84125055Y-69383189D02*
X84125055Y-69578427D01*
X84125055Y-69578427D02*
X84086008Y-69734618D01*
X84086008Y-69734618D02*
X84046960Y-69812713D01*
X84046960Y-69812713D02*
X84007913Y-69851761D01*
X84007913Y-69851761D02*
X83929817Y-69890808D01*
X83929817Y-69890808D02*
X83851722Y-69890808D01*
X83851722Y-69890808D02*
X83773627Y-69851761D01*
X83773627Y-69851761D02*
X83734579Y-69812713D01*
X83734579Y-69812713D02*
X83695532Y-69734618D01*
X83695532Y-69734618D02*
X83656484Y-69578427D01*
X83656484Y-69578427D02*
X83656484Y-69383189D01*
X83656484Y-69383189D02*
X83695532Y-69226999D01*
X83695532Y-69226999D02*
X83734579Y-69148903D01*
X83734579Y-69148903D02*
X83773627Y-69109856D01*
X83773627Y-69109856D02*
X83851722Y-69070808D01*
X138890808Y-66224348D02*
X138500332Y-66497681D01*
X138890808Y-66692919D02*
X138070808Y-66692919D01*
X138070808Y-66692919D02*
X138070808Y-66380538D01*
X138070808Y-66380538D02*
X138109856Y-66302443D01*
X138109856Y-66302443D02*
X138148903Y-66263396D01*
X138148903Y-66263396D02*
X138226999Y-66224348D01*
X138226999Y-66224348D02*
X138344141Y-66224348D01*
X138344141Y-66224348D02*
X138422237Y-66263396D01*
X138422237Y-66263396D02*
X138461284Y-66302443D01*
X138461284Y-66302443D02*
X138500332Y-66380538D01*
X138500332Y-66380538D02*
X138500332Y-66692919D01*
X138070808Y-65951015D02*
X138070808Y-65443396D01*
X138070808Y-65443396D02*
X138383189Y-65716729D01*
X138383189Y-65716729D02*
X138383189Y-65599586D01*
X138383189Y-65599586D02*
X138422237Y-65521491D01*
X138422237Y-65521491D02*
X138461284Y-65482443D01*
X138461284Y-65482443D02*
X138539380Y-65443396D01*
X138539380Y-65443396D02*
X138734618Y-65443396D01*
X138734618Y-65443396D02*
X138812713Y-65482443D01*
X138812713Y-65482443D02*
X138851761Y-65521491D01*
X138851761Y-65521491D02*
X138890808Y-65599586D01*
X138890808Y-65599586D02*
X138890808Y-65833872D01*
X138890808Y-65833872D02*
X138851761Y-65911967D01*
X138851761Y-65911967D02*
X138812713Y-65951015D01*
X138070808Y-64935777D02*
X138070808Y-64857682D01*
X138070808Y-64857682D02*
X138109856Y-64779586D01*
X138109856Y-64779586D02*
X138148903Y-64740539D01*
X138148903Y-64740539D02*
X138226999Y-64701491D01*
X138226999Y-64701491D02*
X138383189Y-64662444D01*
X138383189Y-64662444D02*
X138578427Y-64662444D01*
X138578427Y-64662444D02*
X138734618Y-64701491D01*
X138734618Y-64701491D02*
X138812713Y-64740539D01*
X138812713Y-64740539D02*
X138851761Y-64779586D01*
X138851761Y-64779586D02*
X138890808Y-64857682D01*
X138890808Y-64857682D02*
X138890808Y-64935777D01*
X138890808Y-64935777D02*
X138851761Y-65013872D01*
X138851761Y-65013872D02*
X138812713Y-65052920D01*
X138812713Y-65052920D02*
X138734618Y-65091967D01*
X138734618Y-65091967D02*
X138578427Y-65131015D01*
X138578427Y-65131015D02*
X138383189Y-65131015D01*
X138383189Y-65131015D02*
X138226999Y-65091967D01*
X138226999Y-65091967D02*
X138148903Y-65052920D01*
X138148903Y-65052920D02*
X138109856Y-65013872D01*
X138109856Y-65013872D02*
X138070808Y-64935777D01*
X144275651Y-79839854D02*
X144002318Y-79449378D01*
X143807080Y-79839854D02*
X143807080Y-79019854D01*
X143807080Y-79019854D02*
X144119461Y-79019854D01*
X144119461Y-79019854D02*
X144197556Y-79058902D01*
X144197556Y-79058902D02*
X144236603Y-79097949D01*
X144236603Y-79097949D02*
X144275651Y-79176045D01*
X144275651Y-79176045D02*
X144275651Y-79293187D01*
X144275651Y-79293187D02*
X144236603Y-79371283D01*
X144236603Y-79371283D02*
X144197556Y-79410330D01*
X144197556Y-79410330D02*
X144119461Y-79449378D01*
X144119461Y-79449378D02*
X143807080Y-79449378D01*
X145056603Y-79839854D02*
X144588032Y-79839854D01*
X144822318Y-79839854D02*
X144822318Y-79019854D01*
X144822318Y-79019854D02*
X144744222Y-79136997D01*
X144744222Y-79136997D02*
X144666127Y-79215092D01*
X144666127Y-79215092D02*
X144588032Y-79254140D01*
X145798508Y-79019854D02*
X145408032Y-79019854D01*
X145408032Y-79019854D02*
X145368984Y-79410330D01*
X145368984Y-79410330D02*
X145408032Y-79371283D01*
X145408032Y-79371283D02*
X145486127Y-79332235D01*
X145486127Y-79332235D02*
X145681365Y-79332235D01*
X145681365Y-79332235D02*
X145759460Y-79371283D01*
X145759460Y-79371283D02*
X145798508Y-79410330D01*
X145798508Y-79410330D02*
X145837555Y-79488426D01*
X145837555Y-79488426D02*
X145837555Y-79683664D01*
X145837555Y-79683664D02*
X145798508Y-79761759D01*
X145798508Y-79761759D02*
X145759460Y-79800807D01*
X145759460Y-79800807D02*
X145681365Y-79839854D01*
X145681365Y-79839854D02*
X145486127Y-79839854D01*
X145486127Y-79839854D02*
X145408032Y-79800807D01*
X145408032Y-79800807D02*
X145368984Y-79761759D01*
X139275651Y-94390808D02*
X139002318Y-94000332D01*
X138807080Y-94390808D02*
X138807080Y-93570808D01*
X138807080Y-93570808D02*
X139119461Y-93570808D01*
X139119461Y-93570808D02*
X139197556Y-93609856D01*
X139197556Y-93609856D02*
X139236603Y-93648903D01*
X139236603Y-93648903D02*
X139275651Y-93726999D01*
X139275651Y-93726999D02*
X139275651Y-93844141D01*
X139275651Y-93844141D02*
X139236603Y-93922237D01*
X139236603Y-93922237D02*
X139197556Y-93961284D01*
X139197556Y-93961284D02*
X139119461Y-94000332D01*
X139119461Y-94000332D02*
X138807080Y-94000332D01*
X140056603Y-94390808D02*
X139588032Y-94390808D01*
X139822318Y-94390808D02*
X139822318Y-93570808D01*
X139822318Y-93570808D02*
X139744222Y-93687951D01*
X139744222Y-93687951D02*
X139666127Y-93766046D01*
X139666127Y-93766046D02*
X139588032Y-93805094D01*
X140837555Y-94390808D02*
X140368984Y-94390808D01*
X140603270Y-94390808D02*
X140603270Y-93570808D01*
X140603270Y-93570808D02*
X140525174Y-93687951D01*
X140525174Y-93687951D02*
X140447079Y-93766046D01*
X140447079Y-93766046D02*
X140368984Y-93805094D01*
X82563151Y-75890808D02*
X82289818Y-75500332D01*
X82094580Y-75890808D02*
X82094580Y-75070808D01*
X82094580Y-75070808D02*
X82406961Y-75070808D01*
X82406961Y-75070808D02*
X82485056Y-75109856D01*
X82485056Y-75109856D02*
X82524103Y-75148903D01*
X82524103Y-75148903D02*
X82563151Y-75226999D01*
X82563151Y-75226999D02*
X82563151Y-75344141D01*
X82563151Y-75344141D02*
X82524103Y-75422237D01*
X82524103Y-75422237D02*
X82485056Y-75461284D01*
X82485056Y-75461284D02*
X82406961Y-75500332D01*
X82406961Y-75500332D02*
X82094580Y-75500332D01*
X82875532Y-75148903D02*
X82914580Y-75109856D01*
X82914580Y-75109856D02*
X82992675Y-75070808D01*
X82992675Y-75070808D02*
X83187913Y-75070808D01*
X83187913Y-75070808D02*
X83266008Y-75109856D01*
X83266008Y-75109856D02*
X83305056Y-75148903D01*
X83305056Y-75148903D02*
X83344103Y-75226999D01*
X83344103Y-75226999D02*
X83344103Y-75305094D01*
X83344103Y-75305094D02*
X83305056Y-75422237D01*
X83305056Y-75422237D02*
X82836484Y-75890808D01*
X82836484Y-75890808D02*
X83344103Y-75890808D01*
X84046960Y-75070808D02*
X83890770Y-75070808D01*
X83890770Y-75070808D02*
X83812674Y-75109856D01*
X83812674Y-75109856D02*
X83773627Y-75148903D01*
X83773627Y-75148903D02*
X83695532Y-75266046D01*
X83695532Y-75266046D02*
X83656484Y-75422237D01*
X83656484Y-75422237D02*
X83656484Y-75734618D01*
X83656484Y-75734618D02*
X83695532Y-75812713D01*
X83695532Y-75812713D02*
X83734579Y-75851761D01*
X83734579Y-75851761D02*
X83812674Y-75890808D01*
X83812674Y-75890808D02*
X83968865Y-75890808D01*
X83968865Y-75890808D02*
X84046960Y-75851761D01*
X84046960Y-75851761D02*
X84086008Y-75812713D01*
X84086008Y-75812713D02*
X84125055Y-75734618D01*
X84125055Y-75734618D02*
X84125055Y-75539380D01*
X84125055Y-75539380D02*
X84086008Y-75461284D01*
X84086008Y-75461284D02*
X84046960Y-75422237D01*
X84046960Y-75422237D02*
X83968865Y-75383189D01*
X83968865Y-75383189D02*
X83812674Y-75383189D01*
X83812674Y-75383189D02*
X83734579Y-75422237D01*
X83734579Y-75422237D02*
X83695532Y-75461284D01*
X83695532Y-75461284D02*
X83656484Y-75539380D01*
X82563151Y-79890808D02*
X82289818Y-79500332D01*
X82094580Y-79890808D02*
X82094580Y-79070808D01*
X82094580Y-79070808D02*
X82406961Y-79070808D01*
X82406961Y-79070808D02*
X82485056Y-79109856D01*
X82485056Y-79109856D02*
X82524103Y-79148903D01*
X82524103Y-79148903D02*
X82563151Y-79226999D01*
X82563151Y-79226999D02*
X82563151Y-79344141D01*
X82563151Y-79344141D02*
X82524103Y-79422237D01*
X82524103Y-79422237D02*
X82485056Y-79461284D01*
X82485056Y-79461284D02*
X82406961Y-79500332D01*
X82406961Y-79500332D02*
X82094580Y-79500332D01*
X82875532Y-79148903D02*
X82914580Y-79109856D01*
X82914580Y-79109856D02*
X82992675Y-79070808D01*
X82992675Y-79070808D02*
X83187913Y-79070808D01*
X83187913Y-79070808D02*
X83266008Y-79109856D01*
X83266008Y-79109856D02*
X83305056Y-79148903D01*
X83305056Y-79148903D02*
X83344103Y-79226999D01*
X83344103Y-79226999D02*
X83344103Y-79305094D01*
X83344103Y-79305094D02*
X83305056Y-79422237D01*
X83305056Y-79422237D02*
X82836484Y-79890808D01*
X82836484Y-79890808D02*
X83344103Y-79890808D01*
X83812674Y-79422237D02*
X83734579Y-79383189D01*
X83734579Y-79383189D02*
X83695532Y-79344141D01*
X83695532Y-79344141D02*
X83656484Y-79266046D01*
X83656484Y-79266046D02*
X83656484Y-79226999D01*
X83656484Y-79226999D02*
X83695532Y-79148903D01*
X83695532Y-79148903D02*
X83734579Y-79109856D01*
X83734579Y-79109856D02*
X83812674Y-79070808D01*
X83812674Y-79070808D02*
X83968865Y-79070808D01*
X83968865Y-79070808D02*
X84046960Y-79109856D01*
X84046960Y-79109856D02*
X84086008Y-79148903D01*
X84086008Y-79148903D02*
X84125055Y-79226999D01*
X84125055Y-79226999D02*
X84125055Y-79266046D01*
X84125055Y-79266046D02*
X84086008Y-79344141D01*
X84086008Y-79344141D02*
X84046960Y-79383189D01*
X84046960Y-79383189D02*
X83968865Y-79422237D01*
X83968865Y-79422237D02*
X83812674Y-79422237D01*
X83812674Y-79422237D02*
X83734579Y-79461284D01*
X83734579Y-79461284D02*
X83695532Y-79500332D01*
X83695532Y-79500332D02*
X83656484Y-79578427D01*
X83656484Y-79578427D02*
X83656484Y-79734618D01*
X83656484Y-79734618D02*
X83695532Y-79812713D01*
X83695532Y-79812713D02*
X83734579Y-79851761D01*
X83734579Y-79851761D02*
X83812674Y-79890808D01*
X83812674Y-79890808D02*
X83968865Y-79890808D01*
X83968865Y-79890808D02*
X84046960Y-79851761D01*
X84046960Y-79851761D02*
X84086008Y-79812713D01*
X84086008Y-79812713D02*
X84125055Y-79734618D01*
X84125055Y-79734618D02*
X84125055Y-79578427D01*
X84125055Y-79578427D02*
X84086008Y-79500332D01*
X84086008Y-79500332D02*
X84046960Y-79461284D01*
X84046960Y-79461284D02*
X83968865Y-79422237D01*
X132890808Y-66224348D02*
X132500332Y-66497681D01*
X132890808Y-66692919D02*
X132070808Y-66692919D01*
X132070808Y-66692919D02*
X132070808Y-66380538D01*
X132070808Y-66380538D02*
X132109856Y-66302443D01*
X132109856Y-66302443D02*
X132148903Y-66263396D01*
X132148903Y-66263396D02*
X132226999Y-66224348D01*
X132226999Y-66224348D02*
X132344141Y-66224348D01*
X132344141Y-66224348D02*
X132422237Y-66263396D01*
X132422237Y-66263396D02*
X132461284Y-66302443D01*
X132461284Y-66302443D02*
X132500332Y-66380538D01*
X132500332Y-66380538D02*
X132500332Y-66692919D01*
X132070808Y-65951015D02*
X132070808Y-65443396D01*
X132070808Y-65443396D02*
X132383189Y-65716729D01*
X132383189Y-65716729D02*
X132383189Y-65599586D01*
X132383189Y-65599586D02*
X132422237Y-65521491D01*
X132422237Y-65521491D02*
X132461284Y-65482443D01*
X132461284Y-65482443D02*
X132539380Y-65443396D01*
X132539380Y-65443396D02*
X132734618Y-65443396D01*
X132734618Y-65443396D02*
X132812713Y-65482443D01*
X132812713Y-65482443D02*
X132851761Y-65521491D01*
X132851761Y-65521491D02*
X132890808Y-65599586D01*
X132890808Y-65599586D02*
X132890808Y-65833872D01*
X132890808Y-65833872D02*
X132851761Y-65911967D01*
X132851761Y-65911967D02*
X132812713Y-65951015D01*
X132344141Y-64740539D02*
X132890808Y-64740539D01*
X132031761Y-64935777D02*
X132617475Y-65131015D01*
X132617475Y-65131015D02*
X132617475Y-64623396D01*
D11*
X144261905Y-65954819D02*
X144261905Y-66764342D01*
X144261905Y-66764342D02*
X144309524Y-66859580D01*
X144309524Y-66859580D02*
X144357143Y-66907200D01*
X144357143Y-66907200D02*
X144452381Y-66954819D01*
X144452381Y-66954819D02*
X144642857Y-66954819D01*
X144642857Y-66954819D02*
X144738095Y-66907200D01*
X144738095Y-66907200D02*
X144785714Y-66859580D01*
X144785714Y-66859580D02*
X144833333Y-66764342D01*
X144833333Y-66764342D02*
X144833333Y-65954819D01*
X145833333Y-66954819D02*
X145261905Y-66954819D01*
X145547619Y-66954819D02*
X145547619Y-65954819D01*
X145547619Y-65954819D02*
X145452381Y-66097676D01*
X145452381Y-66097676D02*
X145357143Y-66192914D01*
X145357143Y-66192914D02*
X145261905Y-66240533D01*
X146452381Y-65954819D02*
X146547619Y-65954819D01*
X146547619Y-65954819D02*
X146642857Y-66002438D01*
X146642857Y-66002438D02*
X146690476Y-66050057D01*
X146690476Y-66050057D02*
X146738095Y-66145295D01*
X146738095Y-66145295D02*
X146785714Y-66335771D01*
X146785714Y-66335771D02*
X146785714Y-66573866D01*
X146785714Y-66573866D02*
X146738095Y-66764342D01*
X146738095Y-66764342D02*
X146690476Y-66859580D01*
X146690476Y-66859580D02*
X146642857Y-66907200D01*
X146642857Y-66907200D02*
X146547619Y-66954819D01*
X146547619Y-66954819D02*
X146452381Y-66954819D01*
X146452381Y-66954819D02*
X146357143Y-66907200D01*
X146357143Y-66907200D02*
X146309524Y-66859580D01*
X146309524Y-66859580D02*
X146261905Y-66764342D01*
X146261905Y-66764342D02*
X146214286Y-66573866D01*
X146214286Y-66573866D02*
X146214286Y-66335771D01*
X146214286Y-66335771D02*
X146261905Y-66145295D01*
X146261905Y-66145295D02*
X146309524Y-66050057D01*
X146309524Y-66050057D02*
X146357143Y-66002438D01*
X146357143Y-66002438D02*
X146452381Y-65954819D01*
D10*
X82563151Y-73890808D02*
X82289818Y-73500332D01*
X82094580Y-73890808D02*
X82094580Y-73070808D01*
X82094580Y-73070808D02*
X82406961Y-73070808D01*
X82406961Y-73070808D02*
X82485056Y-73109856D01*
X82485056Y-73109856D02*
X82524103Y-73148903D01*
X82524103Y-73148903D02*
X82563151Y-73226999D01*
X82563151Y-73226999D02*
X82563151Y-73344141D01*
X82563151Y-73344141D02*
X82524103Y-73422237D01*
X82524103Y-73422237D02*
X82485056Y-73461284D01*
X82485056Y-73461284D02*
X82406961Y-73500332D01*
X82406961Y-73500332D02*
X82094580Y-73500332D01*
X82875532Y-73148903D02*
X82914580Y-73109856D01*
X82914580Y-73109856D02*
X82992675Y-73070808D01*
X82992675Y-73070808D02*
X83187913Y-73070808D01*
X83187913Y-73070808D02*
X83266008Y-73109856D01*
X83266008Y-73109856D02*
X83305056Y-73148903D01*
X83305056Y-73148903D02*
X83344103Y-73226999D01*
X83344103Y-73226999D02*
X83344103Y-73305094D01*
X83344103Y-73305094D02*
X83305056Y-73422237D01*
X83305056Y-73422237D02*
X82836484Y-73890808D01*
X82836484Y-73890808D02*
X83344103Y-73890808D01*
X83656484Y-73148903D02*
X83695532Y-73109856D01*
X83695532Y-73109856D02*
X83773627Y-73070808D01*
X83773627Y-73070808D02*
X83968865Y-73070808D01*
X83968865Y-73070808D02*
X84046960Y-73109856D01*
X84046960Y-73109856D02*
X84086008Y-73148903D01*
X84086008Y-73148903D02*
X84125055Y-73226999D01*
X84125055Y-73226999D02*
X84125055Y-73305094D01*
X84125055Y-73305094D02*
X84086008Y-73422237D01*
X84086008Y-73422237D02*
X83617436Y-73890808D01*
X83617436Y-73890808D02*
X84125055Y-73890808D01*
X144275651Y-81839854D02*
X144002318Y-81449378D01*
X143807080Y-81839854D02*
X143807080Y-81019854D01*
X143807080Y-81019854D02*
X144119461Y-81019854D01*
X144119461Y-81019854D02*
X144197556Y-81058902D01*
X144197556Y-81058902D02*
X144236603Y-81097949D01*
X144236603Y-81097949D02*
X144275651Y-81176045D01*
X144275651Y-81176045D02*
X144275651Y-81293187D01*
X144275651Y-81293187D02*
X144236603Y-81371283D01*
X144236603Y-81371283D02*
X144197556Y-81410330D01*
X144197556Y-81410330D02*
X144119461Y-81449378D01*
X144119461Y-81449378D02*
X143807080Y-81449378D01*
X145056603Y-81839854D02*
X144588032Y-81839854D01*
X144822318Y-81839854D02*
X144822318Y-81019854D01*
X144822318Y-81019854D02*
X144744222Y-81136997D01*
X144744222Y-81136997D02*
X144666127Y-81215092D01*
X144666127Y-81215092D02*
X144588032Y-81254140D01*
X145759460Y-81019854D02*
X145603270Y-81019854D01*
X145603270Y-81019854D02*
X145525174Y-81058902D01*
X145525174Y-81058902D02*
X145486127Y-81097949D01*
X145486127Y-81097949D02*
X145408032Y-81215092D01*
X145408032Y-81215092D02*
X145368984Y-81371283D01*
X145368984Y-81371283D02*
X145368984Y-81683664D01*
X145368984Y-81683664D02*
X145408032Y-81761759D01*
X145408032Y-81761759D02*
X145447079Y-81800807D01*
X145447079Y-81800807D02*
X145525174Y-81839854D01*
X145525174Y-81839854D02*
X145681365Y-81839854D01*
X145681365Y-81839854D02*
X145759460Y-81800807D01*
X145759460Y-81800807D02*
X145798508Y-81761759D01*
X145798508Y-81761759D02*
X145837555Y-81683664D01*
X145837555Y-81683664D02*
X145837555Y-81488426D01*
X145837555Y-81488426D02*
X145798508Y-81410330D01*
X145798508Y-81410330D02*
X145759460Y-81371283D01*
X145759460Y-81371283D02*
X145681365Y-81332235D01*
X145681365Y-81332235D02*
X145525174Y-81332235D01*
X145525174Y-81332235D02*
X145447079Y-81371283D01*
X145447079Y-81371283D02*
X145408032Y-81410330D01*
X145408032Y-81410330D02*
X145368984Y-81488426D01*
X135890808Y-66224348D02*
X135500332Y-66497681D01*
X135890808Y-66692919D02*
X135070808Y-66692919D01*
X135070808Y-66692919D02*
X135070808Y-66380538D01*
X135070808Y-66380538D02*
X135109856Y-66302443D01*
X135109856Y-66302443D02*
X135148903Y-66263396D01*
X135148903Y-66263396D02*
X135226999Y-66224348D01*
X135226999Y-66224348D02*
X135344141Y-66224348D01*
X135344141Y-66224348D02*
X135422237Y-66263396D01*
X135422237Y-66263396D02*
X135461284Y-66302443D01*
X135461284Y-66302443D02*
X135500332Y-66380538D01*
X135500332Y-66380538D02*
X135500332Y-66692919D01*
X135070808Y-65951015D02*
X135070808Y-65443396D01*
X135070808Y-65443396D02*
X135383189Y-65716729D01*
X135383189Y-65716729D02*
X135383189Y-65599586D01*
X135383189Y-65599586D02*
X135422237Y-65521491D01*
X135422237Y-65521491D02*
X135461284Y-65482443D01*
X135461284Y-65482443D02*
X135539380Y-65443396D01*
X135539380Y-65443396D02*
X135734618Y-65443396D01*
X135734618Y-65443396D02*
X135812713Y-65482443D01*
X135812713Y-65482443D02*
X135851761Y-65521491D01*
X135851761Y-65521491D02*
X135890808Y-65599586D01*
X135890808Y-65599586D02*
X135890808Y-65833872D01*
X135890808Y-65833872D02*
X135851761Y-65911967D01*
X135851761Y-65911967D02*
X135812713Y-65951015D01*
X135148903Y-65131015D02*
X135109856Y-65091967D01*
X135109856Y-65091967D02*
X135070808Y-65013872D01*
X135070808Y-65013872D02*
X135070808Y-64818634D01*
X135070808Y-64818634D02*
X135109856Y-64740539D01*
X135109856Y-64740539D02*
X135148903Y-64701491D01*
X135148903Y-64701491D02*
X135226999Y-64662444D01*
X135226999Y-64662444D02*
X135305094Y-64662444D01*
X135305094Y-64662444D02*
X135422237Y-64701491D01*
X135422237Y-64701491D02*
X135890808Y-65170063D01*
X135890808Y-65170063D02*
X135890808Y-64662444D01*
D11*
X90954166Y-75431009D02*
X90620833Y-75431009D01*
X90620833Y-75954819D02*
X90620833Y-74954819D01*
X90620833Y-74954819D02*
X91097023Y-74954819D01*
X91620833Y-75383390D02*
X91525595Y-75335771D01*
X91525595Y-75335771D02*
X91477976Y-75288152D01*
X91477976Y-75288152D02*
X91430357Y-75192914D01*
X91430357Y-75192914D02*
X91430357Y-75145295D01*
X91430357Y-75145295D02*
X91477976Y-75050057D01*
X91477976Y-75050057D02*
X91525595Y-75002438D01*
X91525595Y-75002438D02*
X91620833Y-74954819D01*
X91620833Y-74954819D02*
X91811309Y-74954819D01*
X91811309Y-74954819D02*
X91906547Y-75002438D01*
X91906547Y-75002438D02*
X91954166Y-75050057D01*
X91954166Y-75050057D02*
X92001785Y-75145295D01*
X92001785Y-75145295D02*
X92001785Y-75192914D01*
X92001785Y-75192914D02*
X91954166Y-75288152D01*
X91954166Y-75288152D02*
X91906547Y-75335771D01*
X91906547Y-75335771D02*
X91811309Y-75383390D01*
X91811309Y-75383390D02*
X91620833Y-75383390D01*
X91620833Y-75383390D02*
X91525595Y-75431009D01*
X91525595Y-75431009D02*
X91477976Y-75478628D01*
X91477976Y-75478628D02*
X91430357Y-75573866D01*
X91430357Y-75573866D02*
X91430357Y-75764342D01*
X91430357Y-75764342D02*
X91477976Y-75859580D01*
X91477976Y-75859580D02*
X91525595Y-75907200D01*
X91525595Y-75907200D02*
X91620833Y-75954819D01*
X91620833Y-75954819D02*
X91811309Y-75954819D01*
X91811309Y-75954819D02*
X91906547Y-75907200D01*
X91906547Y-75907200D02*
X91954166Y-75859580D01*
X91954166Y-75859580D02*
X92001785Y-75764342D01*
X92001785Y-75764342D02*
X92001785Y-75573866D01*
X92001785Y-75573866D02*
X91954166Y-75478628D01*
X91954166Y-75478628D02*
X91906547Y-75431009D01*
X91906547Y-75431009D02*
X91811309Y-75383390D01*
D10*
X106655651Y-52452772D02*
X106616603Y-52491820D01*
X106616603Y-52491820D02*
X106499460Y-52530867D01*
X106499460Y-52530867D02*
X106421365Y-52530867D01*
X106421365Y-52530867D02*
X106304222Y-52491820D01*
X106304222Y-52491820D02*
X106226127Y-52413724D01*
X106226127Y-52413724D02*
X106187079Y-52335629D01*
X106187079Y-52335629D02*
X106148031Y-52179438D01*
X106148031Y-52179438D02*
X106148031Y-52062295D01*
X106148031Y-52062295D02*
X106187079Y-51906105D01*
X106187079Y-51906105D02*
X106226127Y-51828009D01*
X106226127Y-51828009D02*
X106304222Y-51749914D01*
X106304222Y-51749914D02*
X106421365Y-51710866D01*
X106421365Y-51710866D02*
X106499460Y-51710866D01*
X106499460Y-51710866D02*
X106616603Y-51749914D01*
X106616603Y-51749914D02*
X106655651Y-51788962D01*
X106928985Y-51710866D02*
X107436604Y-51710866D01*
X107436604Y-51710866D02*
X107163271Y-52023248D01*
X107163271Y-52023248D02*
X107280414Y-52023248D01*
X107280414Y-52023248D02*
X107358509Y-52062295D01*
X107358509Y-52062295D02*
X107397557Y-52101343D01*
X107397557Y-52101343D02*
X107436604Y-52179438D01*
X107436604Y-52179438D02*
X107436604Y-52374677D01*
X107436604Y-52374677D02*
X107397557Y-52452772D01*
X107397557Y-52452772D02*
X107358509Y-52491820D01*
X107358509Y-52491820D02*
X107280414Y-52530867D01*
X107280414Y-52530867D02*
X107046128Y-52530867D01*
X107046128Y-52530867D02*
X106968032Y-52491820D01*
X106968032Y-52491820D02*
X106928985Y-52452772D01*
X107748985Y-51788962D02*
X107788033Y-51749914D01*
X107788033Y-51749914D02*
X107866128Y-51710866D01*
X107866128Y-51710866D02*
X108061367Y-51710866D01*
X108061367Y-51710866D02*
X108139462Y-51749914D01*
X108139462Y-51749914D02*
X108178510Y-51788962D01*
X108178510Y-51788962D02*
X108217557Y-51867057D01*
X108217557Y-51867057D02*
X108217557Y-51945152D01*
X108217557Y-51945152D02*
X108178510Y-52062295D01*
X108178510Y-52062295D02*
X107709938Y-52530867D01*
X107709938Y-52530867D02*
X108217557Y-52530867D01*
D11*
X80581905Y-46049819D02*
X80581905Y-45049819D01*
X80581905Y-45049819D02*
X80915238Y-45764104D01*
X80915238Y-45764104D02*
X81248571Y-45049819D01*
X81248571Y-45049819D02*
X81248571Y-46049819D01*
X81677143Y-45764104D02*
X82153333Y-45764104D01*
X81581905Y-46049819D02*
X81915238Y-45049819D01*
X81915238Y-45049819D02*
X82248571Y-46049819D01*
X82581905Y-46049819D02*
X82581905Y-45049819D01*
X82581905Y-45049819D02*
X82962857Y-45049819D01*
X82962857Y-45049819D02*
X83058095Y-45097438D01*
X83058095Y-45097438D02*
X83105714Y-45145057D01*
X83105714Y-45145057D02*
X83153333Y-45240295D01*
X83153333Y-45240295D02*
X83153333Y-45383152D01*
X83153333Y-45383152D02*
X83105714Y-45478390D01*
X83105714Y-45478390D02*
X83058095Y-45526009D01*
X83058095Y-45526009D02*
X82962857Y-45573628D01*
X82962857Y-45573628D02*
X82581905Y-45573628D01*
X84105714Y-46049819D02*
X83534286Y-46049819D01*
X83820000Y-46049819D02*
X83820000Y-45049819D01*
X83820000Y-45049819D02*
X83724762Y-45192676D01*
X83724762Y-45192676D02*
X83629524Y-45287914D01*
X83629524Y-45287914D02*
X83534286Y-45335533D01*
D10*
X106275651Y-105390808D02*
X106002318Y-105000332D01*
X105807080Y-105390808D02*
X105807080Y-104570808D01*
X105807080Y-104570808D02*
X106119461Y-104570808D01*
X106119461Y-104570808D02*
X106197556Y-104609856D01*
X106197556Y-104609856D02*
X106236603Y-104648903D01*
X106236603Y-104648903D02*
X106275651Y-104726999D01*
X106275651Y-104726999D02*
X106275651Y-104844141D01*
X106275651Y-104844141D02*
X106236603Y-104922237D01*
X106236603Y-104922237D02*
X106197556Y-104961284D01*
X106197556Y-104961284D02*
X106119461Y-105000332D01*
X106119461Y-105000332D02*
X105807080Y-105000332D01*
X106548984Y-104570808D02*
X107056603Y-104570808D01*
X107056603Y-104570808D02*
X106783270Y-104883189D01*
X106783270Y-104883189D02*
X106900413Y-104883189D01*
X106900413Y-104883189D02*
X106978508Y-104922237D01*
X106978508Y-104922237D02*
X107017556Y-104961284D01*
X107017556Y-104961284D02*
X107056603Y-105039380D01*
X107056603Y-105039380D02*
X107056603Y-105234618D01*
X107056603Y-105234618D02*
X107017556Y-105312713D01*
X107017556Y-105312713D02*
X106978508Y-105351761D01*
X106978508Y-105351761D02*
X106900413Y-105390808D01*
X106900413Y-105390808D02*
X106666127Y-105390808D01*
X106666127Y-105390808D02*
X106588032Y-105351761D01*
X106588032Y-105351761D02*
X106548984Y-105312713D01*
X158394762Y-92870508D02*
X158394762Y-92050508D01*
X158394762Y-92050508D02*
X158590000Y-92050508D01*
X158590000Y-92050508D02*
X158707143Y-92089556D01*
X158707143Y-92089556D02*
X158785238Y-92167651D01*
X158785238Y-92167651D02*
X158824285Y-92245746D01*
X158824285Y-92245746D02*
X158863333Y-92401937D01*
X158863333Y-92401937D02*
X158863333Y-92519080D01*
X158863333Y-92519080D02*
X158824285Y-92675270D01*
X158824285Y-92675270D02*
X158785238Y-92753365D01*
X158785238Y-92753365D02*
X158707143Y-92831461D01*
X158707143Y-92831461D02*
X158590000Y-92870508D01*
X158590000Y-92870508D02*
X158394762Y-92870508D01*
X159175714Y-92128603D02*
X159214762Y-92089556D01*
X159214762Y-92089556D02*
X159292857Y-92050508D01*
X159292857Y-92050508D02*
X159488095Y-92050508D01*
X159488095Y-92050508D02*
X159566190Y-92089556D01*
X159566190Y-92089556D02*
X159605238Y-92128603D01*
X159605238Y-92128603D02*
X159644285Y-92206699D01*
X159644285Y-92206699D02*
X159644285Y-92284794D01*
X159644285Y-92284794D02*
X159605238Y-92401937D01*
X159605238Y-92401937D02*
X159136666Y-92870508D01*
X159136666Y-92870508D02*
X159644285Y-92870508D01*
D12*
X147946768Y-118753999D02*
X147946768Y-119007999D01*
X148345911Y-119007999D02*
X147583911Y-119007999D01*
X147583911Y-119007999D02*
X147583911Y-118645142D01*
X147837911Y-118028285D02*
X148345911Y-118028285D01*
X147547626Y-118209713D02*
X148091911Y-118391142D01*
X148091911Y-118391142D02*
X148091911Y-117919427D01*
D11*
X144738095Y-82954819D02*
X144738095Y-83764342D01*
X144738095Y-83764342D02*
X144785714Y-83859580D01*
X144785714Y-83859580D02*
X144833333Y-83907200D01*
X144833333Y-83907200D02*
X144928571Y-83954819D01*
X144928571Y-83954819D02*
X145119047Y-83954819D01*
X145119047Y-83954819D02*
X145214285Y-83907200D01*
X145214285Y-83907200D02*
X145261904Y-83859580D01*
X145261904Y-83859580D02*
X145309523Y-83764342D01*
X145309523Y-83764342D02*
X145309523Y-82954819D01*
X145928571Y-83383390D02*
X145833333Y-83335771D01*
X145833333Y-83335771D02*
X145785714Y-83288152D01*
X145785714Y-83288152D02*
X145738095Y-83192914D01*
X145738095Y-83192914D02*
X145738095Y-83145295D01*
X145738095Y-83145295D02*
X145785714Y-83050057D01*
X145785714Y-83050057D02*
X145833333Y-83002438D01*
X145833333Y-83002438D02*
X145928571Y-82954819D01*
X145928571Y-82954819D02*
X146119047Y-82954819D01*
X146119047Y-82954819D02*
X146214285Y-83002438D01*
X146214285Y-83002438D02*
X146261904Y-83050057D01*
X146261904Y-83050057D02*
X146309523Y-83145295D01*
X146309523Y-83145295D02*
X146309523Y-83192914D01*
X146309523Y-83192914D02*
X146261904Y-83288152D01*
X146261904Y-83288152D02*
X146214285Y-83335771D01*
X146214285Y-83335771D02*
X146119047Y-83383390D01*
X146119047Y-83383390D02*
X145928571Y-83383390D01*
X145928571Y-83383390D02*
X145833333Y-83431009D01*
X145833333Y-83431009D02*
X145785714Y-83478628D01*
X145785714Y-83478628D02*
X145738095Y-83573866D01*
X145738095Y-83573866D02*
X145738095Y-83764342D01*
X145738095Y-83764342D02*
X145785714Y-83859580D01*
X145785714Y-83859580D02*
X145833333Y-83907200D01*
X145833333Y-83907200D02*
X145928571Y-83954819D01*
X145928571Y-83954819D02*
X146119047Y-83954819D01*
X146119047Y-83954819D02*
X146214285Y-83907200D01*
X146214285Y-83907200D02*
X146261904Y-83859580D01*
X146261904Y-83859580D02*
X146309523Y-83764342D01*
X146309523Y-83764342D02*
X146309523Y-83573866D01*
X146309523Y-83573866D02*
X146261904Y-83478628D01*
X146261904Y-83478628D02*
X146214285Y-83431009D01*
X146214285Y-83431009D02*
X146119047Y-83383390D01*
X90954166Y-77431009D02*
X90620833Y-77431009D01*
X90620833Y-77954819D02*
X90620833Y-76954819D01*
X90620833Y-76954819D02*
X91097023Y-76954819D01*
X91525595Y-77954819D02*
X91716071Y-77954819D01*
X91716071Y-77954819D02*
X91811309Y-77907200D01*
X91811309Y-77907200D02*
X91858928Y-77859580D01*
X91858928Y-77859580D02*
X91954166Y-77716723D01*
X91954166Y-77716723D02*
X92001785Y-77526247D01*
X92001785Y-77526247D02*
X92001785Y-77145295D01*
X92001785Y-77145295D02*
X91954166Y-77050057D01*
X91954166Y-77050057D02*
X91906547Y-77002438D01*
X91906547Y-77002438D02*
X91811309Y-76954819D01*
X91811309Y-76954819D02*
X91620833Y-76954819D01*
X91620833Y-76954819D02*
X91525595Y-77002438D01*
X91525595Y-77002438D02*
X91477976Y-77050057D01*
X91477976Y-77050057D02*
X91430357Y-77145295D01*
X91430357Y-77145295D02*
X91430357Y-77383390D01*
X91430357Y-77383390D02*
X91477976Y-77478628D01*
X91477976Y-77478628D02*
X91525595Y-77526247D01*
X91525595Y-77526247D02*
X91620833Y-77573866D01*
X91620833Y-77573866D02*
X91811309Y-77573866D01*
X91811309Y-77573866D02*
X91906547Y-77526247D01*
X91906547Y-77526247D02*
X91954166Y-77478628D01*
X91954166Y-77478628D02*
X92001785Y-77383390D01*
D10*
X158394762Y-94870508D02*
X158394762Y-94050508D01*
X158394762Y-94050508D02*
X158590000Y-94050508D01*
X158590000Y-94050508D02*
X158707143Y-94089556D01*
X158707143Y-94089556D02*
X158785238Y-94167651D01*
X158785238Y-94167651D02*
X158824285Y-94245746D01*
X158824285Y-94245746D02*
X158863333Y-94401937D01*
X158863333Y-94401937D02*
X158863333Y-94519080D01*
X158863333Y-94519080D02*
X158824285Y-94675270D01*
X158824285Y-94675270D02*
X158785238Y-94753365D01*
X158785238Y-94753365D02*
X158707143Y-94831461D01*
X158707143Y-94831461D02*
X158590000Y-94870508D01*
X158590000Y-94870508D02*
X158394762Y-94870508D01*
X159136666Y-94050508D02*
X159644285Y-94050508D01*
X159644285Y-94050508D02*
X159370952Y-94362889D01*
X159370952Y-94362889D02*
X159488095Y-94362889D01*
X159488095Y-94362889D02*
X159566190Y-94401937D01*
X159566190Y-94401937D02*
X159605238Y-94440984D01*
X159605238Y-94440984D02*
X159644285Y-94519080D01*
X159644285Y-94519080D02*
X159644285Y-94714318D01*
X159644285Y-94714318D02*
X159605238Y-94792413D01*
X159605238Y-94792413D02*
X159566190Y-94831461D01*
X159566190Y-94831461D02*
X159488095Y-94870508D01*
X159488095Y-94870508D02*
X159253809Y-94870508D01*
X159253809Y-94870508D02*
X159175714Y-94831461D01*
X159175714Y-94831461D02*
X159136666Y-94792413D01*
D12*
X147946768Y-116253999D02*
X147946768Y-116507999D01*
X148345911Y-116507999D02*
X147583911Y-116507999D01*
X147583911Y-116507999D02*
X147583911Y-116145142D01*
X147656483Y-115891142D02*
X147620197Y-115854856D01*
X147620197Y-115854856D02*
X147583911Y-115782285D01*
X147583911Y-115782285D02*
X147583911Y-115600856D01*
X147583911Y-115600856D02*
X147620197Y-115528285D01*
X147620197Y-115528285D02*
X147656483Y-115491999D01*
X147656483Y-115491999D02*
X147729054Y-115455713D01*
X147729054Y-115455713D02*
X147801626Y-115455713D01*
X147801626Y-115455713D02*
X147910483Y-115491999D01*
X147910483Y-115491999D02*
X148345911Y-115927427D01*
X148345911Y-115927427D02*
X148345911Y-115455713D01*
X147946768Y-121253999D02*
X147946768Y-121507999D01*
X148345911Y-121507999D02*
X147583911Y-121507999D01*
X147583911Y-121507999D02*
X147583911Y-121145142D01*
X147583911Y-120927427D02*
X147583911Y-120455713D01*
X147583911Y-120455713D02*
X147874197Y-120709713D01*
X147874197Y-120709713D02*
X147874197Y-120600856D01*
X147874197Y-120600856D02*
X147910483Y-120528285D01*
X147910483Y-120528285D02*
X147946768Y-120491999D01*
X147946768Y-120491999D02*
X148019340Y-120455713D01*
X148019340Y-120455713D02*
X148200768Y-120455713D01*
X148200768Y-120455713D02*
X148273340Y-120491999D01*
X148273340Y-120491999D02*
X148309626Y-120528285D01*
X148309626Y-120528285D02*
X148345911Y-120600856D01*
X148345911Y-120600856D02*
X148345911Y-120818570D01*
X148345911Y-120818570D02*
X148309626Y-120891142D01*
X148309626Y-120891142D02*
X148273340Y-120927427D01*
D11*
X91241666Y-71431009D02*
X90908333Y-71431009D01*
X90908333Y-71954819D02*
X90908333Y-70954819D01*
X90908333Y-70954819D02*
X91384523Y-70954819D01*
X92241666Y-70954819D02*
X91765476Y-70954819D01*
X91765476Y-70954819D02*
X91717857Y-71431009D01*
X91717857Y-71431009D02*
X91765476Y-71383390D01*
X91765476Y-71383390D02*
X91860714Y-71335771D01*
X91860714Y-71335771D02*
X92098809Y-71335771D01*
X92098809Y-71335771D02*
X92194047Y-71383390D01*
X92194047Y-71383390D02*
X92241666Y-71431009D01*
X92241666Y-71431009D02*
X92289285Y-71526247D01*
X92289285Y-71526247D02*
X92289285Y-71764342D01*
X92289285Y-71764342D02*
X92241666Y-71859580D01*
X92241666Y-71859580D02*
X92194047Y-71907200D01*
X92194047Y-71907200D02*
X92098809Y-71954819D01*
X92098809Y-71954819D02*
X91860714Y-71954819D01*
X91860714Y-71954819D02*
X91765476Y-71907200D01*
X91765476Y-71907200D02*
X91717857Y-71859580D01*
D10*
X82563151Y-77890808D02*
X82289818Y-77500332D01*
X82094580Y-77890808D02*
X82094580Y-77070808D01*
X82094580Y-77070808D02*
X82406961Y-77070808D01*
X82406961Y-77070808D02*
X82485056Y-77109856D01*
X82485056Y-77109856D02*
X82524103Y-77148903D01*
X82524103Y-77148903D02*
X82563151Y-77226999D01*
X82563151Y-77226999D02*
X82563151Y-77344141D01*
X82563151Y-77344141D02*
X82524103Y-77422237D01*
X82524103Y-77422237D02*
X82485056Y-77461284D01*
X82485056Y-77461284D02*
X82406961Y-77500332D01*
X82406961Y-77500332D02*
X82094580Y-77500332D01*
X82875532Y-77148903D02*
X82914580Y-77109856D01*
X82914580Y-77109856D02*
X82992675Y-77070808D01*
X82992675Y-77070808D02*
X83187913Y-77070808D01*
X83187913Y-77070808D02*
X83266008Y-77109856D01*
X83266008Y-77109856D02*
X83305056Y-77148903D01*
X83305056Y-77148903D02*
X83344103Y-77226999D01*
X83344103Y-77226999D02*
X83344103Y-77305094D01*
X83344103Y-77305094D02*
X83305056Y-77422237D01*
X83305056Y-77422237D02*
X82836484Y-77890808D01*
X82836484Y-77890808D02*
X83344103Y-77890808D01*
X83617436Y-77070808D02*
X84164103Y-77070808D01*
X84164103Y-77070808D02*
X83812674Y-77890808D01*
X82275652Y-94390807D02*
X82002318Y-94000331D01*
X81807080Y-94390807D02*
X81807080Y-93570806D01*
X81807080Y-93570806D02*
X82119461Y-93570806D01*
X82119461Y-93570806D02*
X82197557Y-93609854D01*
X82197557Y-93609854D02*
X82236604Y-93648902D01*
X82236604Y-93648902D02*
X82275652Y-93726997D01*
X82275652Y-93726997D02*
X82275652Y-93844140D01*
X82275652Y-93844140D02*
X82236604Y-93922235D01*
X82236604Y-93922235D02*
X82197557Y-93961283D01*
X82197557Y-93961283D02*
X82119461Y-94000331D01*
X82119461Y-94000331D02*
X81807080Y-94000331D01*
X83017558Y-93570806D02*
X82627081Y-93570806D01*
X82627081Y-93570806D02*
X82588033Y-93961283D01*
X82588033Y-93961283D02*
X82627081Y-93922235D01*
X82627081Y-93922235D02*
X82705176Y-93883188D01*
X82705176Y-93883188D02*
X82900415Y-93883188D01*
X82900415Y-93883188D02*
X82978510Y-93922235D01*
X82978510Y-93922235D02*
X83017558Y-93961283D01*
X83017558Y-93961283D02*
X83056605Y-94039378D01*
X83056605Y-94039378D02*
X83056605Y-94234617D01*
X83056605Y-94234617D02*
X83017558Y-94312712D01*
X83017558Y-94312712D02*
X82978510Y-94351760D01*
X82978510Y-94351760D02*
X82900415Y-94390807D01*
X82900415Y-94390807D02*
X82705176Y-94390807D01*
X82705176Y-94390807D02*
X82627081Y-94351760D01*
X82627081Y-94351760D02*
X82588033Y-94312712D01*
D11*
X90977976Y-79431009D02*
X90644643Y-79431009D01*
X90644643Y-79954819D02*
X90644643Y-78954819D01*
X90644643Y-78954819D02*
X91120833Y-78954819D01*
X92025595Y-79954819D02*
X91454167Y-79954819D01*
X91739881Y-79954819D02*
X91739881Y-78954819D01*
X91739881Y-78954819D02*
X91644643Y-79097676D01*
X91644643Y-79097676D02*
X91549405Y-79192914D01*
X91549405Y-79192914D02*
X91454167Y-79240533D01*
X92644643Y-78954819D02*
X92739881Y-78954819D01*
X92739881Y-78954819D02*
X92835119Y-79002438D01*
X92835119Y-79002438D02*
X92882738Y-79050057D01*
X92882738Y-79050057D02*
X92930357Y-79145295D01*
X92930357Y-79145295D02*
X92977976Y-79335771D01*
X92977976Y-79335771D02*
X92977976Y-79573866D01*
X92977976Y-79573866D02*
X92930357Y-79764342D01*
X92930357Y-79764342D02*
X92882738Y-79859580D01*
X92882738Y-79859580D02*
X92835119Y-79907200D01*
X92835119Y-79907200D02*
X92739881Y-79954819D01*
X92739881Y-79954819D02*
X92644643Y-79954819D01*
X92644643Y-79954819D02*
X92549405Y-79907200D01*
X92549405Y-79907200D02*
X92501786Y-79859580D01*
X92501786Y-79859580D02*
X92454167Y-79764342D01*
X92454167Y-79764342D02*
X92406548Y-79573866D01*
X92406548Y-79573866D02*
X92406548Y-79335771D01*
X92406548Y-79335771D02*
X92454167Y-79145295D01*
X92454167Y-79145295D02*
X92501786Y-79050057D01*
X92501786Y-79050057D02*
X92549405Y-79002438D01*
X92549405Y-79002438D02*
X92644643Y-78954819D01*
D10*
X139275651Y-87390808D02*
X139002318Y-87000332D01*
X138807080Y-87390808D02*
X138807080Y-86570808D01*
X138807080Y-86570808D02*
X139119461Y-86570808D01*
X139119461Y-86570808D02*
X139197556Y-86609856D01*
X139197556Y-86609856D02*
X139236603Y-86648903D01*
X139236603Y-86648903D02*
X139275651Y-86726999D01*
X139275651Y-86726999D02*
X139275651Y-86844141D01*
X139275651Y-86844141D02*
X139236603Y-86922237D01*
X139236603Y-86922237D02*
X139197556Y-86961284D01*
X139197556Y-86961284D02*
X139119461Y-87000332D01*
X139119461Y-87000332D02*
X138807080Y-87000332D01*
X140056603Y-87390808D02*
X139588032Y-87390808D01*
X139822318Y-87390808D02*
X139822318Y-86570808D01*
X139822318Y-86570808D02*
X139744222Y-86687951D01*
X139744222Y-86687951D02*
X139666127Y-86766046D01*
X139666127Y-86766046D02*
X139588032Y-86805094D01*
X140329936Y-86570808D02*
X140837555Y-86570808D01*
X140837555Y-86570808D02*
X140564222Y-86883189D01*
X140564222Y-86883189D02*
X140681365Y-86883189D01*
X140681365Y-86883189D02*
X140759460Y-86922237D01*
X140759460Y-86922237D02*
X140798508Y-86961284D01*
X140798508Y-86961284D02*
X140837555Y-87039380D01*
X140837555Y-87039380D02*
X140837555Y-87234618D01*
X140837555Y-87234618D02*
X140798508Y-87312713D01*
X140798508Y-87312713D02*
X140759460Y-87351761D01*
X140759460Y-87351761D02*
X140681365Y-87390808D01*
X140681365Y-87390808D02*
X140447079Y-87390808D01*
X140447079Y-87390808D02*
X140368984Y-87351761D01*
X140368984Y-87351761D02*
X140329936Y-87312713D01*
X106275651Y-101390808D02*
X106002318Y-101000332D01*
X105807080Y-101390808D02*
X105807080Y-100570808D01*
X105807080Y-100570808D02*
X106119461Y-100570808D01*
X106119461Y-100570808D02*
X106197556Y-100609856D01*
X106197556Y-100609856D02*
X106236603Y-100648903D01*
X106236603Y-100648903D02*
X106275651Y-100726999D01*
X106275651Y-100726999D02*
X106275651Y-100844141D01*
X106275651Y-100844141D02*
X106236603Y-100922237D01*
X106236603Y-100922237D02*
X106197556Y-100961284D01*
X106197556Y-100961284D02*
X106119461Y-101000332D01*
X106119461Y-101000332D02*
X105807080Y-101000332D01*
X107056603Y-101390808D02*
X106588032Y-101390808D01*
X106822318Y-101390808D02*
X106822318Y-100570808D01*
X106822318Y-100570808D02*
X106744222Y-100687951D01*
X106744222Y-100687951D02*
X106666127Y-100766046D01*
X106666127Y-100766046D02*
X106588032Y-100805094D01*
D11*
X159246190Y-67367200D02*
X159389047Y-67414819D01*
X159389047Y-67414819D02*
X159627142Y-67414819D01*
X159627142Y-67414819D02*
X159722380Y-67367200D01*
X159722380Y-67367200D02*
X159769999Y-67319580D01*
X159769999Y-67319580D02*
X159817618Y-67224342D01*
X159817618Y-67224342D02*
X159817618Y-67129104D01*
X159817618Y-67129104D02*
X159769999Y-67033866D01*
X159769999Y-67033866D02*
X159722380Y-66986247D01*
X159722380Y-66986247D02*
X159627142Y-66938628D01*
X159627142Y-66938628D02*
X159436666Y-66891009D01*
X159436666Y-66891009D02*
X159341428Y-66843390D01*
X159341428Y-66843390D02*
X159293809Y-66795771D01*
X159293809Y-66795771D02*
X159246190Y-66700533D01*
X159246190Y-66700533D02*
X159246190Y-66605295D01*
X159246190Y-66605295D02*
X159293809Y-66510057D01*
X159293809Y-66510057D02*
X159341428Y-66462438D01*
X159341428Y-66462438D02*
X159436666Y-66414819D01*
X159436666Y-66414819D02*
X159674761Y-66414819D01*
X159674761Y-66414819D02*
X159817618Y-66462438D01*
X160198571Y-67129104D02*
X160674761Y-67129104D01*
X160103333Y-67414819D02*
X160436666Y-66414819D01*
X160436666Y-66414819D02*
X160769999Y-67414819D01*
X161627142Y-66462438D02*
X161531904Y-66414819D01*
X161531904Y-66414819D02*
X161389047Y-66414819D01*
X161389047Y-66414819D02*
X161246190Y-66462438D01*
X161246190Y-66462438D02*
X161150952Y-66557676D01*
X161150952Y-66557676D02*
X161103333Y-66652914D01*
X161103333Y-66652914D02*
X161055714Y-66843390D01*
X161055714Y-66843390D02*
X161055714Y-66986247D01*
X161055714Y-66986247D02*
X161103333Y-67176723D01*
X161103333Y-67176723D02*
X161150952Y-67271961D01*
X161150952Y-67271961D02*
X161246190Y-67367200D01*
X161246190Y-67367200D02*
X161389047Y-67414819D01*
X161389047Y-67414819D02*
X161484285Y-67414819D01*
X161484285Y-67414819D02*
X161627142Y-67367200D01*
X161627142Y-67367200D02*
X161674761Y-67319580D01*
X161674761Y-67319580D02*
X161674761Y-66986247D01*
X161674761Y-66986247D02*
X161484285Y-66986247D01*
X162055714Y-67367200D02*
X162198571Y-67414819D01*
X162198571Y-67414819D02*
X162436666Y-67414819D01*
X162436666Y-67414819D02*
X162531904Y-67367200D01*
X162531904Y-67367200D02*
X162579523Y-67319580D01*
X162579523Y-67319580D02*
X162627142Y-67224342D01*
X162627142Y-67224342D02*
X162627142Y-67129104D01*
X162627142Y-67129104D02*
X162579523Y-67033866D01*
X162579523Y-67033866D02*
X162531904Y-66986247D01*
X162531904Y-66986247D02*
X162436666Y-66938628D01*
X162436666Y-66938628D02*
X162246190Y-66891009D01*
X162246190Y-66891009D02*
X162150952Y-66843390D01*
X162150952Y-66843390D02*
X162103333Y-66795771D01*
X162103333Y-66795771D02*
X162055714Y-66700533D01*
X162055714Y-66700533D02*
X162055714Y-66605295D01*
X162055714Y-66605295D02*
X162103333Y-66510057D01*
X162103333Y-66510057D02*
X162150952Y-66462438D01*
X162150952Y-66462438D02*
X162246190Y-66414819D01*
X162246190Y-66414819D02*
X162484285Y-66414819D01*
X162484285Y-66414819D02*
X162627142Y-66462438D01*
X163246190Y-66414819D02*
X163436666Y-66414819D01*
X163436666Y-66414819D02*
X163531904Y-66462438D01*
X163531904Y-66462438D02*
X163627142Y-66557676D01*
X163627142Y-66557676D02*
X163674761Y-66748152D01*
X163674761Y-66748152D02*
X163674761Y-67081485D01*
X163674761Y-67081485D02*
X163627142Y-67271961D01*
X163627142Y-67271961D02*
X163531904Y-67367200D01*
X163531904Y-67367200D02*
X163436666Y-67414819D01*
X163436666Y-67414819D02*
X163246190Y-67414819D01*
X163246190Y-67414819D02*
X163150952Y-67367200D01*
X163150952Y-67367200D02*
X163055714Y-67271961D01*
X163055714Y-67271961D02*
X163008095Y-67081485D01*
X163008095Y-67081485D02*
X163008095Y-66748152D01*
X163008095Y-66748152D02*
X163055714Y-66557676D01*
X163055714Y-66557676D02*
X163150952Y-66462438D01*
X163150952Y-66462438D02*
X163246190Y-66414819D01*
X164103333Y-67414819D02*
X164103333Y-66414819D01*
X164674761Y-67414819D02*
X164246190Y-66843390D01*
X164674761Y-66414819D02*
X164103333Y-66986247D01*
X165103333Y-66891009D02*
X165436666Y-66891009D01*
X165579523Y-67414819D02*
X165103333Y-67414819D01*
X165103333Y-67414819D02*
X165103333Y-66414819D01*
X165103333Y-66414819D02*
X165579523Y-66414819D01*
X165865238Y-66414819D02*
X166436666Y-66414819D01*
X166150952Y-67414819D02*
X166150952Y-66414819D01*
X167293809Y-67414819D02*
X166722381Y-67414819D01*
X167008095Y-67414819D02*
X167008095Y-66414819D01*
X167008095Y-66414819D02*
X166912857Y-66557676D01*
X166912857Y-66557676D02*
X166817619Y-66652914D01*
X166817619Y-66652914D02*
X166722381Y-66700533D01*
X73706190Y-67287200D02*
X73849047Y-67334819D01*
X73849047Y-67334819D02*
X74087142Y-67334819D01*
X74087142Y-67334819D02*
X74182380Y-67287200D01*
X74182380Y-67287200D02*
X74229999Y-67239580D01*
X74229999Y-67239580D02*
X74277618Y-67144342D01*
X74277618Y-67144342D02*
X74277618Y-67049104D01*
X74277618Y-67049104D02*
X74229999Y-66953866D01*
X74229999Y-66953866D02*
X74182380Y-66906247D01*
X74182380Y-66906247D02*
X74087142Y-66858628D01*
X74087142Y-66858628D02*
X73896666Y-66811009D01*
X73896666Y-66811009D02*
X73801428Y-66763390D01*
X73801428Y-66763390D02*
X73753809Y-66715771D01*
X73753809Y-66715771D02*
X73706190Y-66620533D01*
X73706190Y-66620533D02*
X73706190Y-66525295D01*
X73706190Y-66525295D02*
X73753809Y-66430057D01*
X73753809Y-66430057D02*
X73801428Y-66382438D01*
X73801428Y-66382438D02*
X73896666Y-66334819D01*
X73896666Y-66334819D02*
X74134761Y-66334819D01*
X74134761Y-66334819D02*
X74277618Y-66382438D01*
X74896666Y-66334819D02*
X75087142Y-66334819D01*
X75087142Y-66334819D02*
X75182380Y-66382438D01*
X75182380Y-66382438D02*
X75277618Y-66477676D01*
X75277618Y-66477676D02*
X75325237Y-66668152D01*
X75325237Y-66668152D02*
X75325237Y-67001485D01*
X75325237Y-67001485D02*
X75277618Y-67191961D01*
X75277618Y-67191961D02*
X75182380Y-67287200D01*
X75182380Y-67287200D02*
X75087142Y-67334819D01*
X75087142Y-67334819D02*
X74896666Y-67334819D01*
X74896666Y-67334819D02*
X74801428Y-67287200D01*
X74801428Y-67287200D02*
X74706190Y-67191961D01*
X74706190Y-67191961D02*
X74658571Y-67001485D01*
X74658571Y-67001485D02*
X74658571Y-66668152D01*
X74658571Y-66668152D02*
X74706190Y-66477676D01*
X74706190Y-66477676D02*
X74801428Y-66382438D01*
X74801428Y-66382438D02*
X74896666Y-66334819D01*
X76229999Y-67334819D02*
X75753809Y-67334819D01*
X75753809Y-67334819D02*
X75753809Y-66334819D01*
X76515714Y-67287200D02*
X76658571Y-67334819D01*
X76658571Y-67334819D02*
X76896666Y-67334819D01*
X76896666Y-67334819D02*
X76991904Y-67287200D01*
X76991904Y-67287200D02*
X77039523Y-67239580D01*
X77039523Y-67239580D02*
X77087142Y-67144342D01*
X77087142Y-67144342D02*
X77087142Y-67049104D01*
X77087142Y-67049104D02*
X77039523Y-66953866D01*
X77039523Y-66953866D02*
X76991904Y-66906247D01*
X76991904Y-66906247D02*
X76896666Y-66858628D01*
X76896666Y-66858628D02*
X76706190Y-66811009D01*
X76706190Y-66811009D02*
X76610952Y-66763390D01*
X76610952Y-66763390D02*
X76563333Y-66715771D01*
X76563333Y-66715771D02*
X76515714Y-66620533D01*
X76515714Y-66620533D02*
X76515714Y-66525295D01*
X76515714Y-66525295D02*
X76563333Y-66430057D01*
X76563333Y-66430057D02*
X76610952Y-66382438D01*
X76610952Y-66382438D02*
X76706190Y-66334819D01*
X76706190Y-66334819D02*
X76944285Y-66334819D01*
X76944285Y-66334819D02*
X77087142Y-66382438D01*
X77706190Y-66334819D02*
X77896666Y-66334819D01*
X77896666Y-66334819D02*
X77991904Y-66382438D01*
X77991904Y-66382438D02*
X78087142Y-66477676D01*
X78087142Y-66477676D02*
X78134761Y-66668152D01*
X78134761Y-66668152D02*
X78134761Y-67001485D01*
X78134761Y-67001485D02*
X78087142Y-67191961D01*
X78087142Y-67191961D02*
X77991904Y-67287200D01*
X77991904Y-67287200D02*
X77896666Y-67334819D01*
X77896666Y-67334819D02*
X77706190Y-67334819D01*
X77706190Y-67334819D02*
X77610952Y-67287200D01*
X77610952Y-67287200D02*
X77515714Y-67191961D01*
X77515714Y-67191961D02*
X77468095Y-67001485D01*
X77468095Y-67001485D02*
X77468095Y-66668152D01*
X77468095Y-66668152D02*
X77515714Y-66477676D01*
X77515714Y-66477676D02*
X77610952Y-66382438D01*
X77610952Y-66382438D02*
X77706190Y-66334819D01*
X78563333Y-67334819D02*
X78563333Y-66334819D01*
X79134761Y-67334819D02*
X78706190Y-66763390D01*
X79134761Y-66334819D02*
X78563333Y-66906247D01*
X79563333Y-66811009D02*
X79896666Y-66811009D01*
X80039523Y-67334819D02*
X79563333Y-67334819D01*
X79563333Y-67334819D02*
X79563333Y-66334819D01*
X79563333Y-66334819D02*
X80039523Y-66334819D01*
X80325238Y-66334819D02*
X80896666Y-66334819D01*
X80610952Y-67334819D02*
X80610952Y-66334819D01*
X81753809Y-67334819D02*
X81182381Y-67334819D01*
X81468095Y-67334819D02*
X81468095Y-66334819D01*
X81468095Y-66334819D02*
X81372857Y-66477676D01*
X81372857Y-66477676D02*
X81277619Y-66572914D01*
X81277619Y-66572914D02*
X81182381Y-66620533D01*
D13*
%TO.C,C28*%
X110000000Y-45650014D02*
X110000000Y-46399999D01*
D14*
%TO.C,R12*%
X139798944Y-85370840D02*
X140198943Y-85370851D01*
X139800000Y-84625005D02*
X140200000Y-84625015D01*
D13*
%TO.C,M1*%
X131400002Y-61899998D02*
X131400000Y-46599999D01*
X131699998Y-46599999D02*
X131400000Y-46599999D01*
X138000000Y-63399998D02*
X134799997Y-63399998D01*
X138099998Y-46600001D02*
X133299998Y-46600001D01*
X144300000Y-46600001D02*
X141600000Y-46600001D01*
X146999998Y-46600001D02*
X145899995Y-46600001D01*
X150100000Y-63399998D02*
X139699998Y-63399998D01*
X150550000Y-46600001D02*
X149000000Y-46599996D01*
X152000000Y-63399998D02*
X151700000Y-63399998D01*
X152000000Y-63399998D02*
X152000000Y-47999998D01*
D15*
%TO.C,F6*%
X88624721Y-68990000D02*
X88950279Y-68990000D01*
X88624721Y-70010000D02*
X88950279Y-70010000D01*
D14*
%TO.C,R33*%
X133625005Y-68700000D02*
X133625015Y-68300000D01*
X134370840Y-68701056D02*
X134370851Y-68301057D01*
D15*
%TO.C,BLUETOOTH1*%
X162670000Y-48230000D02*
X162670000Y-55910000D01*
X162670000Y-48230000D02*
X165330000Y-48230000D01*
X162670000Y-55910000D02*
X165330000Y-55910000D01*
X164000000Y-45630000D02*
X165330000Y-45630000D01*
X165330000Y-45630000D02*
X165330000Y-46960000D01*
X165330000Y-48230000D02*
X165330000Y-55910000D01*
D14*
%TO.C,R10*%
X139798944Y-92370840D02*
X140198943Y-92370851D01*
X139800000Y-91625005D02*
X140200000Y-91625015D01*
D15*
%TO.C,L1*%
X103549721Y-46990000D02*
X103875279Y-46990000D01*
X103549721Y-48010000D02*
X103875279Y-48010000D01*
%TO.C,USB1*%
X155140000Y-58890000D02*
X155140000Y-60140000D01*
X155440000Y-59190000D02*
X155440000Y-63910000D01*
X155440000Y-60500000D02*
X156050000Y-60500000D01*
X155440000Y-61800000D02*
X156050000Y-61800000D01*
X155440000Y-63910000D02*
X165560000Y-63910000D01*
X156050000Y-59800000D02*
X156050000Y-63300000D01*
X156050000Y-63300000D02*
X164950000Y-63300000D01*
X156390000Y-58890000D02*
X155140000Y-58890000D01*
X156900000Y-58990000D02*
X156900000Y-59190000D01*
X157200000Y-58990000D02*
X156900000Y-58990000D01*
X157200000Y-59090000D02*
X156900000Y-59090000D01*
X157200000Y-59190000D02*
X157200000Y-58990000D01*
X158000000Y-59190000D02*
X158000000Y-59800000D01*
X158000000Y-59800000D02*
X156050000Y-59800000D01*
X158400000Y-62800000D02*
X158600000Y-62800000D01*
X158400000Y-63300000D02*
X158400000Y-62800000D01*
X158500000Y-63300000D02*
X158500000Y-62800000D01*
X158600000Y-62800000D02*
X158600000Y-63300000D01*
X160400000Y-62800000D02*
X160600000Y-62800000D01*
X160400000Y-63300000D02*
X160400000Y-62800000D01*
X160500000Y-63300000D02*
X160500000Y-62800000D01*
X160600000Y-62800000D02*
X160600000Y-63300000D01*
X162400000Y-62800000D02*
X162600000Y-62800000D01*
X162400000Y-63300000D02*
X162400000Y-62800000D01*
X162500000Y-63300000D02*
X162500000Y-62800000D01*
X162600000Y-62800000D02*
X162600000Y-63300000D01*
X163000000Y-59800000D02*
X163000000Y-59190000D01*
X164950000Y-59800000D02*
X163000000Y-59800000D01*
X164950000Y-63300000D02*
X164950000Y-59800000D01*
X165560000Y-59190000D02*
X155440000Y-59190000D01*
X165560000Y-60500000D02*
X164950000Y-60500000D01*
X165560000Y-61800000D02*
X164950000Y-61800000D01*
X165560000Y-63910000D02*
X165560000Y-59190000D01*
D13*
%TO.C,C31*%
X110000000Y-50120014D02*
X110000000Y-50869999D01*
%TO.C,R8*%
X84795611Y-99658783D02*
X85195611Y-99658783D01*
X84800000Y-98355855D02*
X85200000Y-98355855D01*
%TO.C,C29*%
X110000000Y-47120014D02*
X110000000Y-47869999D01*
%TO.C,C30*%
X110000000Y-48620014D02*
X110000000Y-49369999D01*
D15*
%TO.C,U9*%
X154500000Y-67440000D02*
X152550000Y-67440000D01*
X154500000Y-67440000D02*
X156450000Y-67440000D01*
X154500000Y-72560000D02*
X152550000Y-72560000D01*
X154500000Y-72560000D02*
X156450000Y-72560000D01*
X151800000Y-67535000D02*
X151560000Y-67205000D01*
X152040000Y-67205000D01*
X151800000Y-67535000D01*
G36*
X151800000Y-67535000D02*
G01*
X151560000Y-67205000D01*
X152040000Y-67205000D01*
X151800000Y-67535000D01*
G37*
%TO.C,U6*%
X154500000Y-81440000D02*
X152550000Y-81440000D01*
X154500000Y-81440000D02*
X156450000Y-81440000D01*
X154500000Y-86560000D02*
X152550000Y-86560000D01*
X154500000Y-86560000D02*
X156450000Y-86560000D01*
X151800000Y-81535000D02*
X151560000Y-81205000D01*
X152040000Y-81205000D01*
X151800000Y-81535000D01*
G36*
X151800000Y-81535000D02*
G01*
X151560000Y-81205000D01*
X152040000Y-81205000D01*
X151800000Y-81535000D01*
G37*
D14*
%TO.C,R29*%
X139625005Y-68700000D02*
X139625015Y-68300000D01*
X140370840Y-68701056D02*
X140370851Y-68301057D01*
D10*
%TO.C,D5*%
X155150000Y-90150000D02*
X155150000Y-90850000D01*
X155150000Y-90500000D02*
X154850000Y-90500000D01*
X155850000Y-90150000D02*
X155850000Y-90850000D01*
X155850000Y-90500000D02*
X155150000Y-90150000D01*
X155850000Y-90500000D02*
X155150000Y-90850000D01*
X156050000Y-90500000D02*
X155850000Y-90500000D01*
D15*
X157750000Y-89500000D02*
X153850000Y-89500000D01*
X157750000Y-91500000D02*
X153850000Y-91500000D01*
X157750000Y-91500000D02*
X157750000Y-89500000D01*
D13*
%TO.C,R7*%
X84795611Y-97155855D02*
X85195611Y-97155855D01*
X84800000Y-95852927D02*
X85200000Y-95852927D01*
%TO.C,M2*%
X82575000Y-84824999D02*
X91675000Y-84824999D01*
X82575000Y-87925002D02*
X82575000Y-86925000D01*
X82575000Y-87925002D02*
X91675000Y-87925002D01*
D14*
%TO.C,R21*%
X85586444Y-71870840D02*
X85986443Y-71870851D01*
X85587500Y-71125005D02*
X85987500Y-71125015D01*
%TO.C,R31*%
X136625005Y-68700000D02*
X136625015Y-68300000D01*
X137370840Y-68701056D02*
X137370851Y-68301057D01*
D10*
%TO.C,D4*%
X155150000Y-88150000D02*
X155150000Y-88850000D01*
X155150000Y-88500000D02*
X154850000Y-88500000D01*
X155850000Y-88150000D02*
X155850000Y-88850000D01*
X155850000Y-88500000D02*
X155150000Y-88150000D01*
X155850000Y-88500000D02*
X155150000Y-88850000D01*
X156050000Y-88500000D02*
X155850000Y-88500000D01*
D15*
X157750000Y-87500000D02*
X153850000Y-87500000D01*
X157750000Y-89500000D02*
X153850000Y-89500000D01*
X157750000Y-89500000D02*
X157750000Y-87500000D01*
D13*
%TO.C,C27*%
X92209999Y-47150014D02*
X92209999Y-47899999D01*
D15*
%TO.C,U11*%
X154500000Y-74440000D02*
X152550000Y-74440000D01*
X154500000Y-74440000D02*
X156450000Y-74440000D01*
X154500000Y-79560000D02*
X152550000Y-79560000D01*
X154500000Y-79560000D02*
X156450000Y-79560000D01*
X151800000Y-74535000D02*
X151560000Y-74205000D01*
X152040000Y-74205000D01*
X151800000Y-74535000D01*
G36*
X151800000Y-74535000D02*
G01*
X151560000Y-74205000D01*
X152040000Y-74205000D01*
X151800000Y-74535000D01*
G37*
%TO.C,F1*%
X154400000Y-112500000D02*
X149550000Y-112500000D01*
X154400000Y-114500000D02*
X149550000Y-114500000D01*
X149550000Y-114500000D02*
G75*
G02*
X149550000Y-112500000I0J1000000D01*
G01*
X154450000Y-112500000D02*
G75*
G02*
X154450000Y-114500000I0J-1000000D01*
G01*
%TO.C,U4*%
X116500000Y-46940000D02*
X114550000Y-46940000D01*
X116500000Y-46940000D02*
X118450000Y-46940000D01*
X116500000Y-52060000D02*
X114550000Y-52060000D01*
X116500000Y-52060000D02*
X118450000Y-52060000D01*
X113800000Y-47035000D02*
X113560000Y-46705000D01*
X114040000Y-46705000D01*
X113800000Y-47035000D01*
G36*
X113800000Y-47035000D02*
G01*
X113560000Y-46705000D01*
X114040000Y-46705000D01*
X113800000Y-47035000D01*
G37*
%TO.C,D8*%
X98712500Y-47440000D02*
X98062500Y-47440000D01*
X98712500Y-47440000D02*
X99362500Y-47440000D01*
X98712500Y-50560000D02*
X98062500Y-50560000D01*
X98712500Y-50560000D02*
X99362500Y-50560000D01*
X100115000Y-50840000D02*
X99635000Y-50840000D01*
X99875000Y-50510000D01*
X100115000Y-50840000D01*
G36*
X100115000Y-50840000D02*
G01*
X99635000Y-50840000D01*
X99875000Y-50510000D01*
X100115000Y-50840000D01*
G37*
%TO.C,L2*%
X103549721Y-49990000D02*
X103875279Y-49990000D01*
X103549721Y-51010000D02*
X103875279Y-51010000D01*
%TO.C,U7*%
X145500000Y-91440000D02*
X143550000Y-91440000D01*
X145500000Y-91440000D02*
X147450000Y-91440000D01*
X145500000Y-96560000D02*
X143550000Y-96560000D01*
X145500000Y-96560000D02*
X147450000Y-96560000D01*
X142800000Y-91535000D02*
X142560000Y-91205000D01*
X143040000Y-91205000D01*
X142800000Y-91535000D01*
G36*
X142800000Y-91535000D02*
G01*
X142560000Y-91205000D01*
X143040000Y-91205000D01*
X142800000Y-91535000D01*
G37*
D13*
%TO.C,CAN1*%
X114537499Y-94970858D02*
X125712499Y-94932011D01*
X114537499Y-100668339D02*
X114537499Y-94970858D01*
X114537499Y-100668339D02*
X114812503Y-100943343D01*
X114812503Y-101818337D02*
X114812503Y-100943343D01*
X114812503Y-101818337D02*
X114812505Y-101818340D01*
X114812505Y-101818340D02*
X125712499Y-101818340D01*
X125712499Y-101818340D02*
X125712499Y-94932011D01*
%TO.C,MCU1*%
X94699990Y-55100020D02*
X128500000Y-55100020D01*
X94699990Y-90900010D02*
X94699990Y-55100020D01*
X94699990Y-90900010D02*
X128499990Y-90900010D01*
X128500000Y-90900010D02*
X128500000Y-55100020D01*
D15*
%TO.C,F7*%
X88624721Y-72990000D02*
X88950279Y-72990000D01*
X88624721Y-74010000D02*
X88950279Y-74010000D01*
D16*
%TO.C,R4*%
X124476000Y-45700000D02*
X125492000Y-45700000D01*
X125492000Y-47300000D02*
X124476000Y-47300000D01*
X126508000Y-45700000D02*
X127524000Y-45700000D01*
X127524000Y-47300000D02*
X126508000Y-47300000D01*
D15*
X124425000Y-47300000D02*
G75*
G02*
X124421000Y-45698362I-330000J800000D01*
G01*
X127583602Y-45696505D02*
G75*
G02*
X127575000Y-47300000I321398J-803495D01*
G01*
D14*
%TO.C,R2*%
X108298944Y-103370840D02*
X108698943Y-103370851D01*
X108300000Y-102625005D02*
X108700000Y-102625015D01*
%TO.C,R6*%
X108298944Y-107319886D02*
X108698943Y-107319897D01*
X108300000Y-106574051D02*
X108700000Y-106574061D01*
%TO.C,R20*%
X85586444Y-69870840D02*
X85986443Y-69870851D01*
X85587500Y-69125005D02*
X85987500Y-69125015D01*
%TO.C,R30*%
X138125005Y-68700000D02*
X138125015Y-68300000D01*
X138870840Y-68701056D02*
X138870851Y-68301057D01*
%TO.C,R15*%
X147298944Y-79870840D02*
X147698943Y-79870851D01*
X147300000Y-79125005D02*
X147700000Y-79125015D01*
%TO.C,R11*%
X139798944Y-95870840D02*
X140198943Y-95870851D01*
X139800000Y-95125005D02*
X140200000Y-95125015D01*
%TO.C,R26*%
X85586444Y-75870840D02*
X85986443Y-75870851D01*
X85587500Y-75125005D02*
X85987500Y-75125015D01*
%TO.C,R28*%
X85586444Y-79870840D02*
X85986443Y-79870851D01*
X85587500Y-79125005D02*
X85987500Y-79125015D01*
%TO.C,R34*%
X132125005Y-68700000D02*
X132125015Y-68300000D01*
X132870840Y-68701056D02*
X132870851Y-68301057D01*
D15*
%TO.C,U10*%
X145500000Y-67440000D02*
X143550000Y-67440000D01*
X145500000Y-67440000D02*
X147450000Y-67440000D01*
X145500000Y-72560000D02*
X143550000Y-72560000D01*
X145500000Y-72560000D02*
X147450000Y-72560000D01*
X142800000Y-67535000D02*
X142560000Y-67205000D01*
X143040000Y-67205000D01*
X142800000Y-67535000D01*
G36*
X142800000Y-67535000D02*
G01*
X142560000Y-67205000D01*
X143040000Y-67205000D01*
X142800000Y-67535000D01*
G37*
D14*
%TO.C,R22*%
X85586444Y-73870840D02*
X85986443Y-73870851D01*
X85587500Y-73125005D02*
X85987500Y-73125015D01*
%TO.C,R16*%
X147298944Y-81819886D02*
X147698943Y-81819897D01*
X147300000Y-81074051D02*
X147700000Y-81074061D01*
%TO.C,R32*%
X135125005Y-68700000D02*
X135125015Y-68300000D01*
X135870840Y-68701056D02*
X135870851Y-68301057D01*
D15*
%TO.C,F8*%
X88624721Y-74990000D02*
X88950279Y-74990000D01*
X88624721Y-76010000D02*
X88950279Y-76010000D01*
D13*
%TO.C,C32*%
X110000000Y-51620014D02*
X110000000Y-52369999D01*
D12*
%TO.C,MAP1*%
X78817500Y-46817500D02*
X78817500Y-47980000D01*
X78817500Y-46817500D02*
X86182500Y-46817500D01*
X78817500Y-54182500D02*
X78817500Y-53020000D01*
X78817500Y-54182500D02*
X86182500Y-54182500D01*
X86182500Y-46817500D02*
X86182500Y-47980000D01*
X86182500Y-54182500D02*
X86182500Y-53020000D01*
D13*
X76300000Y-48005000D02*
G75*
G02*
X76100000Y-48005000I-100000J0D01*
G01*
X76100000Y-48005000D02*
G75*
G02*
X76300000Y-48005000I100000J0D01*
G01*
D14*
%TO.C,R3*%
X108298944Y-105370840D02*
X108698943Y-105370851D01*
X108300000Y-104625005D02*
X108700000Y-104625015D01*
D10*
%TO.C,D2*%
X155150000Y-92150000D02*
X155150000Y-92850000D01*
X155150000Y-92500000D02*
X154850000Y-92500000D01*
X155850000Y-92150000D02*
X155850000Y-92850000D01*
X155850000Y-92500000D02*
X155150000Y-92150000D01*
X155850000Y-92500000D02*
X155150000Y-92850000D01*
X156050000Y-92500000D02*
X155850000Y-92500000D01*
D15*
X157750000Y-91500000D02*
X153850000Y-91500000D01*
X157750000Y-93500000D02*
X153850000Y-93500000D01*
X157750000Y-93500000D02*
X157750000Y-91500000D01*
%TO.C,F4*%
X149600000Y-117500000D02*
X154450000Y-117500000D01*
X149600000Y-119500000D02*
X154450000Y-119500000D01*
X149550000Y-119500000D02*
G75*
G02*
X149550000Y-117500000I0J1000000D01*
G01*
X154450000Y-117500000D02*
G75*
G02*
X154450000Y-119500000I0J-1000000D01*
G01*
%TO.C,U8*%
X145500000Y-84440000D02*
X143550000Y-84440000D01*
X145500000Y-84440000D02*
X147450000Y-84440000D01*
X145500000Y-89560000D02*
X143550000Y-89560000D01*
X145500000Y-89560000D02*
X147450000Y-89560000D01*
X142800000Y-84535000D02*
X142560000Y-84205000D01*
X143040000Y-84205000D01*
X142800000Y-84535000D01*
G36*
X142800000Y-84535000D02*
G01*
X142560000Y-84205000D01*
X143040000Y-84205000D01*
X142800000Y-84535000D01*
G37*
%TO.C,F9*%
X88624721Y-76990000D02*
X88950279Y-76990000D01*
X88624721Y-78010000D02*
X88950279Y-78010000D01*
D10*
%TO.C,D3*%
X155150000Y-94150000D02*
X155150000Y-94850000D01*
X155150000Y-94500000D02*
X154850000Y-94500000D01*
X155850000Y-94150000D02*
X155850000Y-94850000D01*
X155850000Y-94500000D02*
X155150000Y-94150000D01*
X155850000Y-94500000D02*
X155150000Y-94850000D01*
X156050000Y-94500000D02*
X155850000Y-94500000D01*
D15*
X157750000Y-93500000D02*
X153850000Y-93500000D01*
X157750000Y-95500000D02*
X153850000Y-95500000D01*
X157750000Y-95500000D02*
X157750000Y-93500000D01*
D17*
%TO.C,G1*%
X191878460Y-60659900D02*
X192180720Y-60675140D01*
X192409320Y-60710700D01*
X192617600Y-60776740D01*
X192853820Y-60883420D01*
X192940180Y-60926600D01*
X193476120Y-61264420D01*
X193979040Y-61711460D01*
X194387980Y-62216920D01*
X194456560Y-62328680D01*
X194647060Y-62646180D01*
X194139060Y-62646180D01*
X193826640Y-62658880D01*
X193648840Y-62704600D01*
X193585340Y-62770640D01*
X193600580Y-62879860D01*
X193671700Y-62897640D01*
X193763140Y-62940820D01*
X193765680Y-63093220D01*
X193758060Y-63131320D01*
X193722500Y-63314200D01*
X193669160Y-63613920D01*
X193600580Y-63982220D01*
X193562480Y-64203200D01*
X193483740Y-64604520D01*
X193415160Y-64866140D01*
X193346580Y-65016000D01*
X193270380Y-65076960D01*
X193260220Y-65079500D01*
X193247520Y-65084580D01*
X193115440Y-65140460D01*
X193123060Y-65198880D01*
X193262760Y-65244600D01*
X193519300Y-65267460D01*
X193615820Y-65270000D01*
X193887600Y-65257300D01*
X194070480Y-65224280D01*
X194123820Y-65186180D01*
X194055240Y-65109980D01*
X193996820Y-65099820D01*
X193935860Y-65094740D01*
X193897760Y-65064260D01*
X193887600Y-64982980D01*
X193902840Y-64822960D01*
X193946020Y-64561340D01*
X194022220Y-64172720D01*
X194073020Y-63918720D01*
X194177160Y-63436120D01*
X194273680Y-63105920D01*
X194354960Y-62935740D01*
X194385440Y-62912880D01*
X194532760Y-62818900D01*
X194563240Y-62783340D01*
X194626740Y-62775720D01*
X194700400Y-62907800D01*
X194774060Y-63149100D01*
X194835020Y-63466600D01*
X194852800Y-63603760D01*
X194850260Y-64299720D01*
X194695320Y-64990600D01*
X194395600Y-65643380D01*
X193966340Y-66219960D01*
X193813940Y-66377440D01*
X193300860Y-66794000D01*
X192775080Y-67070860D01*
X192188340Y-67225800D01*
X191627000Y-67274060D01*
X191032640Y-67268980D01*
X190572900Y-67200400D01*
X190443360Y-67164840D01*
X189765180Y-66862580D01*
X189178440Y-66418080D01*
X188680600Y-65831340D01*
X188391040Y-65346200D01*
X188312891Y-65186180D01*
X188579000Y-65186180D01*
X188634880Y-65224280D01*
X188850780Y-65252220D01*
X189221620Y-65267460D01*
X189546740Y-65270000D01*
X190567820Y-65270000D01*
X190567820Y-65186180D01*
X190908180Y-65186180D01*
X190984380Y-65229360D01*
X191185040Y-65259840D01*
X191416180Y-65270000D01*
X191685420Y-65257300D01*
X191868300Y-65224280D01*
X191924180Y-65186180D01*
X191853060Y-65112520D01*
X191787020Y-65099820D01*
X191705740Y-65074420D01*
X191680340Y-64967740D01*
X191703200Y-64741680D01*
X191708280Y-64708660D01*
X191754000Y-64447040D01*
X191797180Y-64248920D01*
X191812420Y-64200660D01*
X191908940Y-64129540D01*
X192084200Y-64088900D01*
X192274700Y-64088900D01*
X192406780Y-64127000D01*
X192432180Y-64170180D01*
X192472820Y-64259080D01*
X192566800Y-64241300D01*
X192665860Y-64137160D01*
X192709040Y-64020320D01*
X192729360Y-63806960D01*
X192678560Y-63746000D01*
X192582040Y-63814580D01*
X192432180Y-63883160D01*
X192208660Y-63913640D01*
X192190880Y-63916180D01*
X191901320Y-63916180D01*
X191959740Y-63474220D01*
X192000380Y-63212600D01*
X192041020Y-63022100D01*
X192058800Y-62966220D01*
X192160400Y-62930660D01*
X192378840Y-62905260D01*
X192571880Y-62900180D01*
X192841120Y-62907800D01*
X192973200Y-62938280D01*
X193001140Y-62999240D01*
X192993520Y-63024640D01*
X193003680Y-63136400D01*
X193059560Y-63154180D01*
X193151000Y-63077980D01*
X193209420Y-62902720D01*
X193211960Y-62900180D01*
X193247520Y-62646180D01*
X192289940Y-62646180D01*
X191865760Y-62648720D01*
X191583820Y-62661420D01*
X191418720Y-62686820D01*
X191345060Y-62727460D01*
X191329820Y-62773180D01*
X191398400Y-62884940D01*
X191456820Y-62900180D01*
X191515240Y-62895100D01*
X191553340Y-62902720D01*
X191568580Y-62945900D01*
X191560960Y-63050040D01*
X191525400Y-63245620D01*
X191464440Y-63552960D01*
X191373000Y-64000000D01*
X191291720Y-64396240D01*
X191225680Y-64728980D01*
X191179960Y-64962660D01*
X191162180Y-65066800D01*
X191162180Y-65069340D01*
X191091060Y-65097280D01*
X191035180Y-65099820D01*
X190961520Y-65127760D01*
X190920880Y-65145540D01*
X190908180Y-65186180D01*
X190567820Y-65186180D01*
X190567820Y-65016000D01*
X190529720Y-64812800D01*
X190440820Y-64762000D01*
X190329060Y-64825500D01*
X190313820Y-64881380D01*
X190240160Y-64949960D01*
X190054740Y-65018540D01*
X189821060Y-65071880D01*
X189595000Y-65099820D01*
X189437520Y-65087120D01*
X189409580Y-65069340D01*
X189394340Y-64967740D01*
X189401960Y-64749300D01*
X189422280Y-64553720D01*
X189480700Y-64083820D01*
X189813440Y-64083820D01*
X190021720Y-64104140D01*
X190138560Y-64157480D01*
X190146180Y-64175260D01*
X190179200Y-64259080D01*
X190255400Y-64223520D01*
X190344300Y-64104140D01*
X190407800Y-63931420D01*
X190407800Y-63928880D01*
X190425580Y-63735840D01*
X190369700Y-63662180D01*
X190346840Y-63662180D01*
X190240160Y-63710440D01*
X190230000Y-63746000D01*
X190153800Y-63799340D01*
X189968380Y-63829820D01*
X189904880Y-63829820D01*
X189582300Y-63829820D01*
X189666120Y-63365000D01*
X189749940Y-62897640D01*
X190252860Y-62900180D01*
X190534800Y-62905260D01*
X190679580Y-62933200D01*
X190715140Y-62991620D01*
X190707520Y-63027180D01*
X190717680Y-63136400D01*
X190773560Y-63154180D01*
X190865000Y-63077980D01*
X190923420Y-62902720D01*
X190925960Y-62900180D01*
X190961520Y-62646180D01*
X190003940Y-62646180D01*
X189579760Y-62648720D01*
X189297820Y-62661420D01*
X189132720Y-62686820D01*
X189059060Y-62727460D01*
X189043820Y-62773180D01*
X189112400Y-62882400D01*
X189175900Y-62900180D01*
X189272420Y-62956060D01*
X189267340Y-63047500D01*
X189234320Y-63187200D01*
X189175900Y-63453900D01*
X189104780Y-63804420D01*
X189036200Y-64147320D01*
X188934600Y-64624840D01*
X188843160Y-64939800D01*
X188766960Y-65087120D01*
X188741560Y-65099820D01*
X188601860Y-65158240D01*
X188579000Y-65186180D01*
X188312891Y-65186180D01*
X188284360Y-65127760D01*
X188215780Y-64929640D01*
X188177680Y-64708660D01*
X188159900Y-64419100D01*
X188154820Y-64010160D01*
X188154820Y-63956820D01*
X188159900Y-63532640D01*
X188175140Y-63227840D01*
X188213240Y-62996700D01*
X188279280Y-62788420D01*
X188383420Y-62557280D01*
X188398660Y-62531880D01*
X188731400Y-62003560D01*
X189183520Y-61505720D01*
X189701680Y-61094240D01*
X190024260Y-60906280D01*
X190263020Y-60797060D01*
X190468760Y-60723400D01*
X190694820Y-60682760D01*
X190984380Y-60662440D01*
X191390780Y-60657360D01*
X191459360Y-60657360D01*
X191878460Y-60659900D01*
G36*
X191878460Y-60659900D02*
G01*
X192180720Y-60675140D01*
X192409320Y-60710700D01*
X192617600Y-60776740D01*
X192853820Y-60883420D01*
X192940180Y-60926600D01*
X193476120Y-61264420D01*
X193979040Y-61711460D01*
X194387980Y-62216920D01*
X194456560Y-62328680D01*
X194647060Y-62646180D01*
X194139060Y-62646180D01*
X193826640Y-62658880D01*
X193648840Y-62704600D01*
X193585340Y-62770640D01*
X193600580Y-62879860D01*
X193671700Y-62897640D01*
X193763140Y-62940820D01*
X193765680Y-63093220D01*
X193758060Y-63131320D01*
X193722500Y-63314200D01*
X193669160Y-63613920D01*
X193600580Y-63982220D01*
X193562480Y-64203200D01*
X193483740Y-64604520D01*
X193415160Y-64866140D01*
X193346580Y-65016000D01*
X193270380Y-65076960D01*
X193260220Y-65079500D01*
X193247520Y-65084580D01*
X193115440Y-65140460D01*
X193123060Y-65198880D01*
X193262760Y-65244600D01*
X193519300Y-65267460D01*
X193615820Y-65270000D01*
X193887600Y-65257300D01*
X194070480Y-65224280D01*
X194123820Y-65186180D01*
X194055240Y-65109980D01*
X193996820Y-65099820D01*
X193935860Y-65094740D01*
X193897760Y-65064260D01*
X193887600Y-64982980D01*
X193902840Y-64822960D01*
X193946020Y-64561340D01*
X194022220Y-64172720D01*
X194073020Y-63918720D01*
X194177160Y-63436120D01*
X194273680Y-63105920D01*
X194354960Y-62935740D01*
X194385440Y-62912880D01*
X194532760Y-62818900D01*
X194563240Y-62783340D01*
X194626740Y-62775720D01*
X194700400Y-62907800D01*
X194774060Y-63149100D01*
X194835020Y-63466600D01*
X194852800Y-63603760D01*
X194850260Y-64299720D01*
X194695320Y-64990600D01*
X194395600Y-65643380D01*
X193966340Y-66219960D01*
X193813940Y-66377440D01*
X193300860Y-66794000D01*
X192775080Y-67070860D01*
X192188340Y-67225800D01*
X191627000Y-67274060D01*
X191032640Y-67268980D01*
X190572900Y-67200400D01*
X190443360Y-67164840D01*
X189765180Y-66862580D01*
X189178440Y-66418080D01*
X188680600Y-65831340D01*
X188391040Y-65346200D01*
X188312891Y-65186180D01*
X188579000Y-65186180D01*
X188634880Y-65224280D01*
X188850780Y-65252220D01*
X189221620Y-65267460D01*
X189546740Y-65270000D01*
X190567820Y-65270000D01*
X190567820Y-65186180D01*
X190908180Y-65186180D01*
X190984380Y-65229360D01*
X191185040Y-65259840D01*
X191416180Y-65270000D01*
X191685420Y-65257300D01*
X191868300Y-65224280D01*
X191924180Y-65186180D01*
X191853060Y-65112520D01*
X191787020Y-65099820D01*
X191705740Y-65074420D01*
X191680340Y-64967740D01*
X191703200Y-64741680D01*
X191708280Y-64708660D01*
X191754000Y-64447040D01*
X191797180Y-64248920D01*
X191812420Y-64200660D01*
X191908940Y-64129540D01*
X192084200Y-64088900D01*
X192274700Y-64088900D01*
X192406780Y-64127000D01*
X192432180Y-64170180D01*
X192472820Y-64259080D01*
X192566800Y-64241300D01*
X192665860Y-64137160D01*
X192709040Y-64020320D01*
X192729360Y-63806960D01*
X192678560Y-63746000D01*
X192582040Y-63814580D01*
X192432180Y-63883160D01*
X192208660Y-63913640D01*
X192190880Y-63916180D01*
X191901320Y-63916180D01*
X191959740Y-63474220D01*
X192000380Y-63212600D01*
X192041020Y-63022100D01*
X192058800Y-62966220D01*
X192160400Y-62930660D01*
X192378840Y-62905260D01*
X192571880Y-62900180D01*
X192841120Y-62907800D01*
X192973200Y-62938280D01*
X193001140Y-62999240D01*
X192993520Y-63024640D01*
X193003680Y-63136400D01*
X193059560Y-63154180D01*
X193151000Y-63077980D01*
X193209420Y-62902720D01*
X193211960Y-62900180D01*
X193247520Y-62646180D01*
X192289940Y-62646180D01*
X191865760Y-62648720D01*
X191583820Y-62661420D01*
X191418720Y-62686820D01*
X191345060Y-62727460D01*
X191329820Y-62773180D01*
X191398400Y-62884940D01*
X191456820Y-62900180D01*
X191515240Y-62895100D01*
X191553340Y-62902720D01*
X191568580Y-62945900D01*
X191560960Y-63050040D01*
X191525400Y-63245620D01*
X191464440Y-63552960D01*
X191373000Y-64000000D01*
X191291720Y-64396240D01*
X191225680Y-64728980D01*
X191179960Y-64962660D01*
X191162180Y-65066800D01*
X191162180Y-65069340D01*
X191091060Y-65097280D01*
X191035180Y-65099820D01*
X190961520Y-65127760D01*
X190920880Y-65145540D01*
X190908180Y-65186180D01*
X190567820Y-65186180D01*
X190567820Y-65016000D01*
X190529720Y-64812800D01*
X190440820Y-64762000D01*
X190329060Y-64825500D01*
X190313820Y-64881380D01*
X190240160Y-64949960D01*
X190054740Y-65018540D01*
X189821060Y-65071880D01*
X189595000Y-65099820D01*
X189437520Y-65087120D01*
X189409580Y-65069340D01*
X189394340Y-64967740D01*
X189401960Y-64749300D01*
X189422280Y-64553720D01*
X189480700Y-64083820D01*
X189813440Y-64083820D01*
X190021720Y-64104140D01*
X190138560Y-64157480D01*
X190146180Y-64175260D01*
X190179200Y-64259080D01*
X190255400Y-64223520D01*
X190344300Y-64104140D01*
X190407800Y-63931420D01*
X190407800Y-63928880D01*
X190425580Y-63735840D01*
X190369700Y-63662180D01*
X190346840Y-63662180D01*
X190240160Y-63710440D01*
X190230000Y-63746000D01*
X190153800Y-63799340D01*
X189968380Y-63829820D01*
X189904880Y-63829820D01*
X189582300Y-63829820D01*
X189666120Y-63365000D01*
X189749940Y-62897640D01*
X190252860Y-62900180D01*
X190534800Y-62905260D01*
X190679580Y-62933200D01*
X190715140Y-62991620D01*
X190707520Y-63027180D01*
X190717680Y-63136400D01*
X190773560Y-63154180D01*
X190865000Y-63077980D01*
X190923420Y-62902720D01*
X190925960Y-62900180D01*
X190961520Y-62646180D01*
X190003940Y-62646180D01*
X189579760Y-62648720D01*
X189297820Y-62661420D01*
X189132720Y-62686820D01*
X189059060Y-62727460D01*
X189043820Y-62773180D01*
X189112400Y-62882400D01*
X189175900Y-62900180D01*
X189272420Y-62956060D01*
X189267340Y-63047500D01*
X189234320Y-63187200D01*
X189175900Y-63453900D01*
X189104780Y-63804420D01*
X189036200Y-64147320D01*
X188934600Y-64624840D01*
X188843160Y-64939800D01*
X188766960Y-65087120D01*
X188741560Y-65099820D01*
X188601860Y-65158240D01*
X188579000Y-65186180D01*
X188312891Y-65186180D01*
X188284360Y-65127760D01*
X188215780Y-64929640D01*
X188177680Y-64708660D01*
X188159900Y-64419100D01*
X188154820Y-64010160D01*
X188154820Y-63956820D01*
X188159900Y-63532640D01*
X188175140Y-63227840D01*
X188213240Y-62996700D01*
X188279280Y-62788420D01*
X188383420Y-62557280D01*
X188398660Y-62531880D01*
X188731400Y-62003560D01*
X189183520Y-61505720D01*
X189701680Y-61094240D01*
X190024260Y-60906280D01*
X190263020Y-60797060D01*
X190468760Y-60723400D01*
X190694820Y-60682760D01*
X190984380Y-60662440D01*
X191390780Y-60657360D01*
X191459360Y-60657360D01*
X191878460Y-60659900D01*
G37*
D15*
%TO.C,F2*%
X149600000Y-115000000D02*
X154450000Y-115000000D01*
X149600000Y-117000000D02*
X154450000Y-117000000D01*
X149550000Y-117000000D02*
G75*
G02*
X149550000Y-115000000I0J1000000D01*
G01*
X154450000Y-115000000D02*
G75*
G02*
X154450000Y-117000000I0J-1000000D01*
G01*
%TO.C,F3*%
X149600000Y-120000000D02*
X154450000Y-120000000D01*
X149600000Y-122000000D02*
X154450000Y-122000000D01*
X149550000Y-122000000D02*
G75*
G02*
X149550000Y-120000000I0J1000000D01*
G01*
X154450000Y-120000000D02*
G75*
G02*
X154450000Y-122000000I0J-1000000D01*
G01*
%TO.C,F5*%
X88624721Y-70990000D02*
X88950279Y-70990000D01*
X88624721Y-72010000D02*
X88950279Y-72010000D01*
D14*
%TO.C,R27*%
X85586444Y-77870840D02*
X85986443Y-77870851D01*
X85587500Y-77125005D02*
X85987500Y-77125015D01*
%TO.C,M3*%
D13*
X158875000Y-97425000D02*
X131375000Y-97425000D01*
X131375000Y-111325000D01*
X158875000Y-111325000D01*
X158875000Y-97425000D01*
D18*
%TO.C,G2*%
G36*
X189910758Y-50845979D02*
G01*
X189914868Y-50868810D01*
X189914900Y-50872326D01*
X189925493Y-50935377D01*
X189954937Y-51011910D01*
X189999727Y-51096837D01*
X190056358Y-51185070D01*
X190121327Y-51271522D01*
X190191127Y-51351105D01*
X190262255Y-51418732D01*
X190322285Y-51463750D01*
X190385163Y-51516508D01*
X190447137Y-51590839D01*
X190503219Y-51679541D01*
X190548420Y-51775413D01*
X190559902Y-51806812D01*
X190577826Y-51863046D01*
X190586430Y-51904104D01*
X190586766Y-51941959D01*
X190579889Y-51988581D01*
X190577172Y-52002980D01*
X190552078Y-52094508D01*
X190514965Y-52179460D01*
X190470103Y-52249072D01*
X190442999Y-52278261D01*
X190408837Y-52307128D01*
X190367238Y-52339408D01*
X190325167Y-52370073D01*
X190289588Y-52394098D01*
X190267468Y-52406457D01*
X190264411Y-52407131D01*
X190247443Y-52401644D01*
X190212745Y-52388456D01*
X190186373Y-52377927D01*
X190115453Y-52344846D01*
X190055505Y-52305551D01*
X189997886Y-52253428D01*
X189940773Y-52189960D01*
X189847251Y-52074230D01*
X189775229Y-51972880D01*
X189722853Y-51882996D01*
X189688268Y-51801665D01*
X189682931Y-51784859D01*
X189671353Y-51744570D01*
X189663708Y-51710805D01*
X189659832Y-51677238D01*
X189659564Y-51637545D01*
X189662742Y-51585401D01*
X189669203Y-51514480D01*
X189674600Y-51460157D01*
X189685375Y-51367435D01*
X189699138Y-51270431D01*
X189714269Y-51179525D01*
X189729145Y-51105099D01*
X189732001Y-51092878D01*
X189749045Y-51025462D01*
X189763654Y-50979130D01*
X189779375Y-50946528D01*
X189799755Y-50920300D01*
X189828341Y-50893092D01*
X189828357Y-50893078D01*
X189871005Y-50857274D01*
X189897305Y-50841854D01*
X189910758Y-50845979D01*
G37*
G36*
X196709018Y-57992250D02*
G01*
X197051840Y-57992425D01*
X197391573Y-57992688D01*
X197726979Y-57993038D01*
X198056823Y-57993476D01*
X198379867Y-57994001D01*
X198694876Y-57994614D01*
X199000612Y-57995314D01*
X199295840Y-57996102D01*
X199579321Y-57996978D01*
X199849821Y-57997941D01*
X200106102Y-57998991D01*
X200346927Y-58000130D01*
X200571061Y-58001355D01*
X200777266Y-58002669D01*
X200964306Y-58004070D01*
X201130945Y-58005558D01*
X201275945Y-58007134D01*
X201398070Y-58008798D01*
X201496084Y-58010549D01*
X201568750Y-58012388D01*
X201614832Y-58014314D01*
X201633092Y-58016328D01*
X201633104Y-58016335D01*
X201679256Y-58056750D01*
X201707087Y-58115825D01*
X201713984Y-58170154D01*
X201707665Y-58212668D01*
X201684789Y-58250712D01*
X201664579Y-58272592D01*
X201615174Y-58321997D01*
X190769316Y-58321997D01*
X190719911Y-58272592D01*
X190686192Y-58232090D01*
X190672063Y-58193404D01*
X190670506Y-58170154D01*
X190682006Y-58100927D01*
X190714334Y-58045590D01*
X190751386Y-58016335D01*
X190769556Y-58014320D01*
X190815551Y-58012394D01*
X190888135Y-58010555D01*
X190986070Y-58008803D01*
X191108121Y-58007139D01*
X191253051Y-58005563D01*
X191419622Y-58004074D01*
X191606600Y-58002673D01*
X191812746Y-58001359D01*
X192036825Y-58000133D01*
X192277599Y-57998995D01*
X192533833Y-57997944D01*
X192804289Y-57996981D01*
X193087732Y-57996105D01*
X193382924Y-57995317D01*
X193688629Y-57994616D01*
X194003610Y-57994003D01*
X194326631Y-57993477D01*
X194656455Y-57993039D01*
X194991846Y-57992689D01*
X195331567Y-57992426D01*
X195674381Y-57992251D01*
X196019052Y-57992163D01*
X196364343Y-57992163D01*
X196709018Y-57992250D01*
G37*
G36*
X190097145Y-50485911D02*
G01*
X190110072Y-50511534D01*
X190129766Y-50558513D01*
X190137508Y-50577218D01*
X190169170Y-50641858D01*
X190209901Y-50709944D01*
X190239780Y-50752103D01*
X190261583Y-50778960D01*
X190282779Y-50801428D01*
X190307381Y-50821962D01*
X190339404Y-50843016D01*
X190382861Y-50867046D01*
X190441767Y-50896507D01*
X190520134Y-50933854D01*
X190591984Y-50967529D01*
X190693554Y-51015592D01*
X190772211Y-51054379D01*
X190831759Y-51086050D01*
X190876004Y-51112762D01*
X190908750Y-51136676D01*
X190933802Y-51159948D01*
X190936823Y-51163182D01*
X191029164Y-51274319D01*
X191102803Y-51385524D01*
X191155870Y-51493168D01*
X191186497Y-51593619D01*
X191193618Y-51662153D01*
X191179820Y-51824141D01*
X191138791Y-51977150D01*
X191071082Y-52119479D01*
X191021584Y-52194062D01*
X190980964Y-52239504D01*
X190922506Y-52292819D01*
X190853201Y-52348769D01*
X190780040Y-52402116D01*
X190710013Y-52447622D01*
X190650111Y-52480048D01*
X190627741Y-52489178D01*
X190562629Y-52508081D01*
X190506847Y-52517692D01*
X190467394Y-52517040D01*
X190456508Y-52512929D01*
X190456183Y-52499415D01*
X190475457Y-52471036D01*
X190515346Y-52426507D01*
X190562967Y-52378210D01*
X190622435Y-52317425D01*
X190666322Y-52266359D01*
X190701233Y-52215961D01*
X190733774Y-52157181D01*
X190753388Y-52117306D01*
X190785084Y-52048398D01*
X190805523Y-51994802D01*
X190817590Y-51946441D01*
X190824172Y-51893240D01*
X190826231Y-51863015D01*
X190825694Y-51756532D01*
X190812844Y-51654220D01*
X190789196Y-51563527D01*
X190756267Y-51491897D01*
X190748215Y-51479834D01*
X190708504Y-51437951D01*
X190654193Y-51397456D01*
X190627636Y-51382065D01*
X190572008Y-51349620D01*
X190504437Y-51305149D01*
X190431010Y-51253214D01*
X190357817Y-51198379D01*
X190290946Y-51145205D01*
X190236485Y-51098256D01*
X190200522Y-51062094D01*
X190200273Y-51061797D01*
X190121653Y-50947544D01*
X190066204Y-50821725D01*
X190036116Y-50690165D01*
X190031147Y-50612024D01*
X190033389Y-50557194D01*
X190041585Y-50522494D01*
X190057936Y-50499237D01*
X190060298Y-50497031D01*
X190076123Y-50482674D01*
X190087117Y-50477629D01*
X190097145Y-50485911D01*
G37*
G36*
X196118879Y-54420753D02*
G01*
X196193830Y-54448968D01*
X196250422Y-54492905D01*
X196284517Y-54550233D01*
X196286067Y-54555058D01*
X196288262Y-54579001D01*
X196288698Y-54627119D01*
X196287475Y-54694584D01*
X196284694Y-54776568D01*
X196280457Y-54868244D01*
X196278938Y-54896534D01*
X196274894Y-54970026D01*
X196271748Y-55033809D01*
X196269773Y-55091107D01*
X196269242Y-55145144D01*
X196270425Y-55199146D01*
X196273597Y-55256336D01*
X196279030Y-55319939D01*
X196286995Y-55393179D01*
X196297766Y-55479281D01*
X196311615Y-55581469D01*
X196328814Y-55702968D01*
X196349635Y-55847003D01*
X196372535Y-56004320D01*
X196388017Y-56112462D01*
X196403064Y-56220912D01*
X196416803Y-56323127D01*
X196428361Y-56412560D01*
X196436865Y-56482668D01*
X196439408Y-56505636D01*
X196449159Y-56591297D01*
X196460406Y-56675188D01*
X196474111Y-56762999D01*
X196491236Y-56860422D01*
X196512746Y-56973149D01*
X196539602Y-57106870D01*
X196548356Y-57149554D01*
X196565317Y-57235697D01*
X196579871Y-57316758D01*
X196590992Y-57386436D01*
X196597652Y-57438428D01*
X196599110Y-57460905D01*
X196588330Y-57542895D01*
X196555880Y-57605724D01*
X196501596Y-57649527D01*
X196425314Y-57674443D01*
X196337554Y-57680831D01*
X196279577Y-57678459D01*
X196226254Y-57673510D01*
X196196242Y-57668529D01*
X196127653Y-57641635D01*
X196073465Y-57599632D01*
X196056103Y-57577086D01*
X196048676Y-57553487D01*
X196038819Y-57504346D01*
X196026977Y-57433042D01*
X196013595Y-57342953D01*
X195999119Y-57237457D01*
X195983995Y-57119931D01*
X195968668Y-56993755D01*
X195953584Y-56862305D01*
X195939188Y-56728961D01*
X195925926Y-56597099D01*
X195923554Y-56572312D01*
X195914839Y-56490546D01*
X195902381Y-56387583D01*
X195887171Y-56270900D01*
X195870200Y-56147973D01*
X195852460Y-56026278D01*
X195842647Y-55962014D01*
X195808795Y-55740538D01*
X195780370Y-55545567D01*
X195757199Y-55375089D01*
X195739109Y-55227092D01*
X195725927Y-55099563D01*
X195717479Y-54990491D01*
X195713593Y-54897864D01*
X195714096Y-54819670D01*
X195718814Y-54753896D01*
X195727574Y-54698530D01*
X195732233Y-54678609D01*
X195769285Y-54575319D01*
X195820765Y-54497194D01*
X195886861Y-54444063D01*
X195967762Y-54415757D01*
X196029704Y-54410592D01*
X196118879Y-54420753D01*
G37*
G36*
X197133474Y-54412446D02*
G01*
X197207391Y-54429308D01*
X197271265Y-54462613D01*
X197318894Y-54512146D01*
X197328998Y-54529955D01*
X197338026Y-54551003D01*
X197344064Y-54574186D01*
X197347257Y-54604391D01*
X197347755Y-54646507D01*
X197345706Y-54705422D01*
X197341257Y-54786026D01*
X197338234Y-54835104D01*
X197332681Y-54932881D01*
X197329299Y-55020574D01*
X197328395Y-55102749D01*
X197330273Y-55183973D01*
X197335236Y-55268814D01*
X197343589Y-55361837D01*
X197355637Y-55467610D01*
X197371684Y-55590699D01*
X197392034Y-55735672D01*
X197403573Y-55815418D01*
X197420793Y-55935187D01*
X197437381Y-56053402D01*
X197452642Y-56164891D01*
X197465879Y-56264478D01*
X197476397Y-56346991D01*
X197483499Y-56407254D01*
X197484681Y-56418450D01*
X197494822Y-56510034D01*
X197506898Y-56602094D01*
X197521768Y-56699850D01*
X197540294Y-56808524D01*
X197563336Y-56933336D01*
X197591754Y-57079507D01*
X197602566Y-57133861D01*
X197620285Y-57225303D01*
X197635778Y-57310543D01*
X197648138Y-57384158D01*
X197656459Y-57440725D01*
X197659835Y-57474820D01*
X197659865Y-57476821D01*
X197646367Y-57543136D01*
X197609681Y-57603730D01*
X197555518Y-57649813D01*
X197543100Y-57656511D01*
X197498970Y-57669806D01*
X197437068Y-57678210D01*
X197368378Y-57681048D01*
X197303880Y-57677644D01*
X197274797Y-57673002D01*
X197217275Y-57654747D01*
X197163720Y-57627881D01*
X197124514Y-57598008D01*
X197115536Y-57587031D01*
X197103621Y-57557189D01*
X197091529Y-57507804D01*
X197081462Y-57448298D01*
X197079513Y-57432887D01*
X197073330Y-57380528D01*
X197064478Y-57306046D01*
X197053760Y-57216171D01*
X197041977Y-57117633D01*
X197029934Y-57017163D01*
X197028708Y-57006951D01*
X197016400Y-56902407D01*
X197004192Y-56795069D01*
X196992953Y-56692828D01*
X196983548Y-56603574D01*
X196976845Y-56535198D01*
X196976799Y-56534697D01*
X196970462Y-56475432D01*
X196960343Y-56393151D01*
X196947212Y-56293540D01*
X196931839Y-56182286D01*
X196914991Y-56065077D01*
X196897438Y-55947600D01*
X196897224Y-55946196D01*
X196863905Y-55724998D01*
X196835682Y-55530299D01*
X196812501Y-55359994D01*
X196794311Y-55211979D01*
X196781058Y-55084151D01*
X196772691Y-54974405D01*
X196769157Y-54880638D01*
X196770403Y-54800746D01*
X196776378Y-54732625D01*
X196787028Y-54674171D01*
X196802301Y-54623279D01*
X196822144Y-54577847D01*
X196846506Y-54535770D01*
X196861501Y-54513731D01*
X196913530Y-54462669D01*
X196980339Y-54428911D01*
X197055722Y-54412242D01*
X197133474Y-54412446D01*
G37*
G36*
X201234023Y-55574118D02*
G01*
X201329698Y-55613001D01*
X201412142Y-55677641D01*
X201481206Y-55767903D01*
X201536739Y-55883654D01*
X201559434Y-55951210D01*
X201573498Y-56012538D01*
X201587421Y-56099806D01*
X201600886Y-56209892D01*
X201613575Y-56339674D01*
X201625172Y-56486030D01*
X201635358Y-56645840D01*
X201640938Y-56752661D01*
X201646092Y-56859217D01*
X201651487Y-56969078D01*
X201656725Y-57074245D01*
X201661406Y-57166718D01*
X201665133Y-57238498D01*
X201665263Y-57240944D01*
X201668178Y-57313042D01*
X201669113Y-57377576D01*
X201668068Y-57427281D01*
X201665241Y-57454154D01*
X201642819Y-57502011D01*
X201603438Y-57551724D01*
X201556306Y-57592500D01*
X201537684Y-57603716D01*
X201459719Y-57631960D01*
X201376531Y-57641773D01*
X201294663Y-57634291D01*
X201220658Y-57610653D01*
X201161059Y-57571996D01*
X201129086Y-57532686D01*
X201124361Y-57517008D01*
X201120452Y-57486613D01*
X201117304Y-57439446D01*
X201114858Y-57373454D01*
X201113057Y-57286582D01*
X201111845Y-57176775D01*
X201111162Y-57041979D01*
X201110952Y-56883439D01*
X201110837Y-56729576D01*
X201110417Y-56601680D01*
X201109579Y-56496657D01*
X201108212Y-56411415D01*
X201106203Y-56342858D01*
X201103441Y-56287892D01*
X201099814Y-56243425D01*
X201095209Y-56206362D01*
X201089514Y-56173609D01*
X201084373Y-56149629D01*
X201058591Y-56053394D01*
X201030835Y-55983924D01*
X200999773Y-55938930D01*
X200964078Y-55916122D01*
X200946625Y-55912531D01*
X200885541Y-55919727D01*
X200816734Y-55949581D01*
X200744647Y-55998358D01*
X200673721Y-56062320D01*
X200608396Y-56137731D01*
X200553114Y-56220856D01*
X200531928Y-56261393D01*
X200493612Y-56353883D01*
X200465501Y-56451066D01*
X200447423Y-56556474D01*
X200439207Y-56673637D01*
X200440682Y-56806086D01*
X200451677Y-56957351D01*
X200472022Y-57130963D01*
X200485302Y-57224915D01*
X200501859Y-57341369D01*
X200513138Y-57432875D01*
X200519265Y-57503039D01*
X200520368Y-57555466D01*
X200516572Y-57593764D01*
X200508006Y-57621538D01*
X200499773Y-57635895D01*
X200451263Y-57680767D01*
X200383892Y-57707565D01*
X200302432Y-57715128D01*
X200219245Y-57704122D01*
X200144960Y-57676846D01*
X200092680Y-57637112D01*
X200074419Y-57617280D01*
X200058509Y-57595553D01*
X200044436Y-57569359D01*
X200031690Y-57536123D01*
X200019756Y-57493272D01*
X200008124Y-57438234D01*
X199996280Y-57368433D01*
X199983712Y-57281298D01*
X199969909Y-57174253D01*
X199954357Y-57044727D01*
X199936545Y-56890144D01*
X199926728Y-56803519D01*
X199906252Y-56621065D01*
X199889084Y-56465383D01*
X199875032Y-56334396D01*
X199863905Y-56226025D01*
X199855510Y-56138192D01*
X199849655Y-56068819D01*
X199846147Y-56015829D01*
X199844796Y-55977144D01*
X199845408Y-55950684D01*
X199846790Y-55938931D01*
X199875844Y-55846324D01*
X199924605Y-55772583D01*
X199989977Y-55719866D01*
X200068861Y-55690328D01*
X200158160Y-55686128D01*
X200200140Y-55692904D01*
X200264344Y-55714886D01*
X200313513Y-55751116D01*
X200351279Y-55805924D01*
X200381271Y-55883638D01*
X200391711Y-55921351D01*
X200407639Y-55983691D01*
X200479941Y-55898194D01*
X200595871Y-55779238D01*
X200720815Y-55684951D01*
X200852663Y-55616436D01*
X200989301Y-55574797D01*
X201125268Y-55561128D01*
X201234023Y-55574118D01*
G37*
G36*
X194538013Y-55493966D02*
G01*
X194723609Y-55524318D01*
X194894048Y-55579466D01*
X195049333Y-55659412D01*
X195161753Y-55740481D01*
X195246477Y-55823032D01*
X195302818Y-55908179D01*
X195331442Y-55997704D01*
X195333015Y-56093386D01*
X195319367Y-56161470D01*
X195305099Y-56197856D01*
X195281260Y-56233550D01*
X195245082Y-56270757D01*
X195193800Y-56311682D01*
X195124648Y-56358528D01*
X195034860Y-56413502D01*
X194921668Y-56478807D01*
X194920011Y-56479745D01*
X194813684Y-56539678D01*
X194729736Y-56587022D01*
X194665553Y-56624021D01*
X194618518Y-56652915D01*
X194586019Y-56675947D01*
X194565441Y-56695359D01*
X194554168Y-56713392D01*
X194549588Y-56732288D01*
X194549084Y-56754290D01*
X194550042Y-56781639D01*
X194550254Y-56796804D01*
X194555066Y-56886516D01*
X194568390Y-56974285D01*
X194588560Y-57054701D01*
X194613907Y-57122356D01*
X194642764Y-57171841D01*
X194673466Y-57197745D01*
X194673883Y-57197908D01*
X194705879Y-57202596D01*
X194744571Y-57193177D01*
X194792036Y-57168203D01*
X194850354Y-57126228D01*
X194921601Y-57065806D01*
X195007858Y-56985489D01*
X195079098Y-56915845D01*
X195169382Y-56827245D01*
X195242764Y-56757796D01*
X195302111Y-56705345D01*
X195350290Y-56667740D01*
X195390167Y-56642827D01*
X195424608Y-56628454D01*
X195456480Y-56622468D01*
X195470446Y-56621937D01*
X195531322Y-56631243D01*
X195584629Y-56655915D01*
X195622248Y-56691251D01*
X195634217Y-56716783D01*
X195633781Y-56762119D01*
X195616917Y-56815317D01*
X195588217Y-56862306D01*
X195538501Y-56923071D01*
X195470664Y-56994865D01*
X195387598Y-57074944D01*
X195292197Y-57160561D01*
X195187354Y-57248970D01*
X195075963Y-57337425D01*
X195029774Y-57372540D01*
X194916763Y-57456866D01*
X194823815Y-57524766D01*
X194748108Y-57577726D01*
X194686818Y-57617230D01*
X194637124Y-57644764D01*
X194596203Y-57661814D01*
X194561231Y-57669865D01*
X194529387Y-57670401D01*
X194497847Y-57664910D01*
X194482263Y-57660650D01*
X194389600Y-57620688D01*
X194310198Y-57558571D01*
X194242381Y-57472508D01*
X194184477Y-57360707D01*
X194170904Y-57327369D01*
X194142778Y-57241927D01*
X194118004Y-57142713D01*
X194098811Y-57040890D01*
X194087426Y-56947618D01*
X194085266Y-56898445D01*
X194085266Y-56830072D01*
X194025440Y-56831326D01*
X193968618Y-56821120D01*
X193929597Y-56788225D01*
X193908943Y-56733353D01*
X193905757Y-56680757D01*
X193912113Y-56618448D01*
X193930384Y-56575176D01*
X193966243Y-56541593D01*
X194003602Y-56519503D01*
X194068837Y-56484896D01*
X194077862Y-56375386D01*
X194089287Y-56279246D01*
X194535723Y-56279246D01*
X194536439Y-56293752D01*
X194541398Y-56301558D01*
X194554814Y-56301587D01*
X194580906Y-56292757D01*
X194623887Y-56273992D01*
X194687975Y-56244210D01*
X194706461Y-56235539D01*
X194772463Y-56203798D01*
X194829890Y-56174732D01*
X194873013Y-56151344D01*
X194896101Y-56136634D01*
X194897252Y-56135596D01*
X194906268Y-56107995D01*
X194896432Y-56068317D01*
X194871358Y-56022922D01*
X194834658Y-55978172D01*
X194789946Y-55940426D01*
X194784287Y-55936716D01*
X194726086Y-55906261D01*
X194681185Y-55899518D01*
X194645255Y-55917096D01*
X194613967Y-55959602D01*
X194613350Y-55960727D01*
X194594289Y-56006114D01*
X194574489Y-56069958D01*
X194556489Y-56141840D01*
X194542829Y-56211340D01*
X194536047Y-56268040D01*
X194535723Y-56279246D01*
X194089287Y-56279246D01*
X194102544Y-56167681D01*
X194140343Y-55985485D01*
X194191433Y-55828285D01*
X194255989Y-55695569D01*
X194334187Y-55586825D01*
X194355117Y-55564120D01*
X194432559Y-55484165D01*
X194538013Y-55493966D01*
G37*
G36*
X198504640Y-55493938D02*
G01*
X198690242Y-55524256D01*
X198860609Y-55579307D01*
X199015807Y-55659119D01*
X199128686Y-55740481D01*
X199213411Y-55823032D01*
X199269751Y-55908179D01*
X199298375Y-55997704D01*
X199299949Y-56093386D01*
X199286301Y-56161470D01*
X199271721Y-56198463D01*
X199247278Y-56234741D01*
X199210182Y-56272538D01*
X199157644Y-56314086D01*
X199086875Y-56361617D01*
X198995086Y-56417364D01*
X198894292Y-56475225D01*
X198786827Y-56535668D01*
X198701817Y-56583593D01*
X198636655Y-56621198D01*
X198588733Y-56650680D01*
X198555445Y-56674235D01*
X198534183Y-56694060D01*
X198522342Y-56712352D01*
X198517313Y-56731308D01*
X198516490Y-56753125D01*
X198517266Y-56780000D01*
X198517440Y-56792803D01*
X198522650Y-56887671D01*
X198536721Y-56977583D01*
X198558057Y-57058142D01*
X198585063Y-57124951D01*
X198616143Y-57173616D01*
X198649701Y-57199740D01*
X198666336Y-57202982D01*
X198705825Y-57194391D01*
X198756635Y-57168174D01*
X198820221Y-57123233D01*
X198898041Y-57058471D01*
X198991550Y-56972791D01*
X199062096Y-56904712D01*
X199149168Y-56819812D01*
X199218906Y-56753438D01*
X199274400Y-56703442D01*
X199318744Y-56667680D01*
X199355030Y-56644002D01*
X199386349Y-56630264D01*
X199415793Y-56624318D01*
X199446454Y-56624017D01*
X199464365Y-56625423D01*
X199516992Y-56634273D01*
X199552522Y-56651716D01*
X199574944Y-56673416D01*
X199598471Y-56713070D01*
X199603204Y-56757626D01*
X199588108Y-56809089D01*
X199552145Y-56869465D01*
X199494276Y-56940760D01*
X199413466Y-57024979D01*
X199372716Y-57064419D01*
X199320828Y-57111205D01*
X199252525Y-57168964D01*
X199172122Y-57234395D01*
X199083932Y-57304200D01*
X198992268Y-57375080D01*
X198901445Y-57443735D01*
X198815774Y-57506867D01*
X198739570Y-57561176D01*
X198677147Y-57603363D01*
X198633676Y-57629672D01*
X198577075Y-57657880D01*
X198535008Y-57671779D01*
X198497765Y-57673089D01*
X198455636Y-57663527D01*
X198450793Y-57662043D01*
X198355223Y-57617380D01*
X198271066Y-57547266D01*
X198199243Y-57453348D01*
X198140673Y-57337278D01*
X198096278Y-57200704D01*
X198066978Y-57045276D01*
X198058062Y-56958210D01*
X198048410Y-56830352D01*
X197990479Y-56831466D01*
X197935048Y-56820867D01*
X197896786Y-56787172D01*
X197876377Y-56731221D01*
X197872985Y-56687272D01*
X197884457Y-56616943D01*
X197920143Y-56560219D01*
X197981950Y-56514098D01*
X197983554Y-56513215D01*
X198012065Y-56495863D01*
X198028694Y-56477300D01*
X198037741Y-56448823D01*
X198043508Y-56401733D01*
X198044611Y-56389702D01*
X198057647Y-56280808D01*
X198502657Y-56280808D01*
X198503624Y-56294541D01*
X198509320Y-56301543D01*
X198523940Y-56300685D01*
X198551679Y-56290839D01*
X198596731Y-56270879D01*
X198663291Y-56239675D01*
X198673395Y-56234898D01*
X198738949Y-56203983D01*
X198795798Y-56177329D01*
X198838354Y-56157547D01*
X198861026Y-56147245D01*
X198862297Y-56146707D01*
X198876679Y-56134814D01*
X198877657Y-56112423D01*
X198864673Y-56073737D01*
X198852661Y-56046226D01*
X198812733Y-55984595D01*
X198758594Y-55936929D01*
X198697875Y-55909022D01*
X198665758Y-55904228D01*
X198632252Y-55905524D01*
X198610628Y-55916447D01*
X198591771Y-55943723D01*
X198579346Y-55967993D01*
X198559226Y-56018569D01*
X198538856Y-56085705D01*
X198520880Y-56158625D01*
X198507937Y-56226550D01*
X198502672Y-56278704D01*
X198502657Y-56280808D01*
X198057647Y-56280808D01*
X198068547Y-56189752D01*
X198102265Y-56015569D01*
X198146372Y-55865349D01*
X198201475Y-55737284D01*
X198268179Y-55629568D01*
X198320844Y-55566631D01*
X198398880Y-55484108D01*
X198504640Y-55493938D01*
G37*
G36*
X191017154Y-52606195D02*
G01*
X191054840Y-52628853D01*
X191056175Y-52629983D01*
X191075310Y-52649169D01*
X191087604Y-52671630D01*
X191095233Y-52704805D01*
X191100375Y-52756132D01*
X191102532Y-52788313D01*
X191105095Y-52850347D01*
X191105039Y-52905124D01*
X191102441Y-52943223D01*
X191101163Y-52950055D01*
X191084489Y-52978895D01*
X191051224Y-53014100D01*
X191022865Y-53037362D01*
X190985023Y-53067373D01*
X190961048Y-53095309D01*
X190944614Y-53131277D01*
X190929397Y-53185381D01*
X190928848Y-53187572D01*
X190916184Y-53242715D01*
X190900849Y-53316319D01*
X190884907Y-53398175D01*
X190872270Y-53467467D01*
X190858829Y-53547860D01*
X190850958Y-53608173D01*
X190848227Y-53656761D01*
X190850208Y-53701982D01*
X190856473Y-53752191D01*
X190857360Y-53758084D01*
X190864305Y-53819412D01*
X190869856Y-53898298D01*
X190873337Y-53983246D01*
X190874178Y-54042649D01*
X190875483Y-54133071D01*
X190879118Y-54235390D01*
X190884738Y-54345655D01*
X190891993Y-54459917D01*
X190900537Y-54574225D01*
X190910022Y-54684630D01*
X190920099Y-54787182D01*
X190930422Y-54877930D01*
X190940643Y-54952924D01*
X190950414Y-55008216D01*
X190959388Y-55039854D01*
X190962374Y-55044711D01*
X190983026Y-55048529D01*
X191028136Y-55045694D01*
X191094067Y-55036996D01*
X191177182Y-55023222D01*
X191273846Y-55005161D01*
X191380422Y-54983601D01*
X191493275Y-54959329D01*
X191608768Y-54933135D01*
X191723264Y-54905806D01*
X191833129Y-54878131D01*
X191934724Y-54850897D01*
X192024416Y-54824894D01*
X192098566Y-54800910D01*
X192116330Y-54794560D01*
X192232577Y-54751852D01*
X192227890Y-54651541D01*
X192223698Y-54592505D01*
X192215692Y-54515701D01*
X192203604Y-54419163D01*
X192187168Y-54300927D01*
X192166115Y-54159028D01*
X192140179Y-53991501D01*
X192125260Y-53897286D01*
X192099120Y-53724530D01*
X192078643Y-53570422D01*
X192064033Y-53437016D01*
X192055494Y-53326366D01*
X192053231Y-53240524D01*
X192055483Y-53196373D01*
X192079630Y-53100268D01*
X192130958Y-53013618D01*
X192208953Y-52937074D01*
X192312497Y-52871596D01*
X192385963Y-52846506D01*
X192473304Y-52835925D01*
X192563232Y-52839852D01*
X192644456Y-52858287D01*
X192675769Y-52871629D01*
X192731778Y-52903217D01*
X192774665Y-52935761D01*
X192806492Y-52973823D01*
X192829317Y-53021965D01*
X192845201Y-53084748D01*
X192856203Y-53166735D01*
X192864385Y-53272487D01*
X192865572Y-53291952D01*
X192873794Y-53424277D01*
X192882632Y-53553908D01*
X192892550Y-53686729D01*
X192904014Y-53828623D01*
X192917487Y-53985475D01*
X192933435Y-54163166D01*
X192940038Y-54235184D01*
X192971161Y-54573027D01*
X193019126Y-54573027D01*
X193070877Y-54586573D01*
X193121027Y-54623462D01*
X193165659Y-54678064D01*
X193200853Y-54744752D01*
X193222689Y-54817900D01*
X193227943Y-54872852D01*
X193221752Y-54930795D01*
X193205030Y-54999870D01*
X193180552Y-55073273D01*
X193151094Y-55144204D01*
X193119429Y-55205862D01*
X193088335Y-55251445D01*
X193064997Y-55272172D01*
X193053287Y-55287275D01*
X193045578Y-55318714D01*
X193041978Y-55367640D01*
X193042596Y-55435202D01*
X193047540Y-55522551D01*
X193056917Y-55630837D01*
X193070837Y-55761210D01*
X193089408Y-55914820D01*
X193112737Y-56092818D01*
X193140934Y-56296354D01*
X193174106Y-56526577D01*
X193198902Y-56694537D01*
X193224956Y-56871273D01*
X193246482Y-57021838D01*
X193263644Y-57148738D01*
X193276608Y-57254483D01*
X193285539Y-57341581D01*
X193290604Y-57412539D01*
X193291968Y-57469867D01*
X193289797Y-57516071D01*
X193284257Y-57553661D01*
X193275513Y-57585144D01*
X193263730Y-57613029D01*
X193260056Y-57620255D01*
X193210872Y-57683162D01*
X193137917Y-57731348D01*
X193043145Y-57763613D01*
X193018209Y-57768702D01*
X192965036Y-57778094D01*
X192929076Y-57781988D01*
X192898882Y-57779684D01*
X192863003Y-57770485D01*
X192818893Y-57756531D01*
X192733098Y-57721904D01*
X192669132Y-57677970D01*
X192620070Y-57619647D01*
X192609773Y-57602993D01*
X192588292Y-57564004D01*
X192571624Y-57526352D01*
X192558627Y-57484763D01*
X192548156Y-57433966D01*
X192539067Y-57368689D01*
X192530215Y-57283658D01*
X192522989Y-57203118D01*
X192507780Y-57033210D01*
X192490995Y-56856188D01*
X192473124Y-56676581D01*
X192454659Y-56498917D01*
X192436091Y-56327723D01*
X192417909Y-56167526D01*
X192400606Y-56022855D01*
X192384670Y-55898237D01*
X192370998Y-55800887D01*
X192363827Y-55748959D01*
X192354958Y-55678808D01*
X192345714Y-55601118D01*
X192340014Y-55550572D01*
X192331922Y-55480051D01*
X192325180Y-55433724D01*
X192318335Y-55406862D01*
X192309935Y-55394733D01*
X192298529Y-55392606D01*
X192291865Y-55393685D01*
X192264049Y-55399214D01*
X192216478Y-55408464D01*
X192157947Y-55419730D01*
X192138126Y-55423522D01*
X191865825Y-55478213D01*
X191571610Y-55542344D01*
X191294846Y-55606613D01*
X190981943Y-55681248D01*
X190987306Y-55733802D01*
X190998933Y-55835143D01*
X191013199Y-55939837D01*
X191029058Y-56041660D01*
X191045467Y-56134390D01*
X191061381Y-56211803D01*
X191075755Y-56267675D01*
X191078190Y-56275237D01*
X191097838Y-56346643D01*
X191103130Y-56407591D01*
X191100762Y-56440247D01*
X191099865Y-56499631D01*
X191108028Y-56586407D01*
X191125228Y-56700360D01*
X191129257Y-56723599D01*
X191148890Y-56834788D01*
X191164342Y-56920786D01*
X191176519Y-56985014D01*
X191186329Y-57030894D01*
X191194680Y-57061847D01*
X191202479Y-57081294D01*
X191210633Y-57092658D01*
X191220049Y-57099359D01*
X191230173Y-57104150D01*
X191268552Y-57136296D01*
X191289564Y-57186011D01*
X191293124Y-57247497D01*
X191279149Y-57314959D01*
X191247554Y-57382601D01*
X191234515Y-57402217D01*
X191171545Y-57475300D01*
X191095278Y-57540887D01*
X191012244Y-57594920D01*
X190928971Y-57633344D01*
X190851987Y-57652104D01*
X190830346Y-57653292D01*
X190753978Y-57641465D01*
X190672913Y-57609009D01*
X190596987Y-57560463D01*
X190561781Y-57529351D01*
X190508692Y-57464835D01*
X190465687Y-57386096D01*
X190431766Y-57289962D01*
X190405933Y-57173259D01*
X190387189Y-57032816D01*
X190380083Y-56951623D01*
X190372884Y-56859194D01*
X190363982Y-56749997D01*
X190354389Y-56636196D01*
X190345118Y-56529960D01*
X190342936Y-56505636D01*
X190334122Y-56406239D01*
X190324013Y-56289319D01*
X190313585Y-56166326D01*
X190303811Y-56048708D01*
X190299014Y-55989789D01*
X190290378Y-55888610D01*
X190282685Y-55813013D01*
X190275402Y-55759558D01*
X190267997Y-55724800D01*
X190259938Y-55705300D01*
X190254089Y-55699171D01*
X190203096Y-55661969D01*
X190165173Y-55621072D01*
X190131861Y-55566437D01*
X190116900Y-55536331D01*
X190092320Y-55481164D01*
X190079638Y-55439030D01*
X190076306Y-55397742D01*
X190078900Y-55354480D01*
X190094411Y-55278892D01*
X190124182Y-55212243D01*
X190164221Y-55161509D01*
X190204078Y-55135827D01*
X190215185Y-55132504D01*
X190224198Y-55129812D01*
X190230898Y-55124983D01*
X190235063Y-55115252D01*
X190236474Y-55097852D01*
X190234909Y-55070017D01*
X190230148Y-55028981D01*
X190221970Y-54971978D01*
X190210156Y-54896241D01*
X190194483Y-54799005D01*
X190174732Y-54677503D01*
X190160568Y-54590170D01*
X190142772Y-54479180D01*
X190126599Y-54376345D01*
X190112623Y-54285473D01*
X190101418Y-54210373D01*
X190093559Y-54154854D01*
X190089620Y-54122725D01*
X190089270Y-54117372D01*
X190083449Y-54079036D01*
X190067259Y-54019416D01*
X190042612Y-53943567D01*
X190011418Y-53856546D01*
X189975589Y-53763407D01*
X189937036Y-53669206D01*
X189897669Y-53578999D01*
X189859400Y-53497842D01*
X189842565Y-53464702D01*
X189801680Y-53387361D01*
X189770149Y-53330966D01*
X189744285Y-53290491D01*
X189720404Y-53260908D01*
X189694822Y-53237192D01*
X189663853Y-53214314D01*
X189654135Y-53207660D01*
X189609251Y-53175694D01*
X189582998Y-53150690D01*
X189569242Y-53124401D01*
X189561848Y-53088582D01*
X189560989Y-53082464D01*
X189555984Y-53030397D01*
X189552587Y-52965304D01*
X189551627Y-52914477D01*
X189556307Y-52843873D01*
X189572377Y-52796323D01*
X189602884Y-52767044D01*
X189650875Y-52751252D01*
X189656166Y-52750327D01*
X189686375Y-52746033D01*
X189740555Y-52739069D01*
X189815071Y-52729857D01*
X189906290Y-52718818D01*
X190010575Y-52706373D01*
X190124293Y-52692944D01*
X190243808Y-52678951D01*
X190365485Y-52664818D01*
X190485691Y-52650963D01*
X190600789Y-52637810D01*
X190707146Y-52625780D01*
X190801126Y-52615292D01*
X190879095Y-52606770D01*
X190937418Y-52600635D01*
X190972460Y-52597307D01*
X190980378Y-52596825D01*
X191017154Y-52606195D01*
G37*
G36*
X189838958Y-49614016D02*
G01*
X189846751Y-49616943D01*
X189874824Y-49637622D01*
X189890423Y-49677515D01*
X189892064Y-49685965D01*
X189901401Y-49737669D01*
X189911134Y-49767463D01*
X189927810Y-49778778D01*
X189957975Y-49775043D01*
X190008174Y-49759686D01*
X190023453Y-49754805D01*
X190210045Y-49705416D01*
X190416433Y-49668843D01*
X190621174Y-49647336D01*
X190654555Y-49645992D01*
X190715658Y-49644712D01*
X190803144Y-49643496D01*
X190915675Y-49642342D01*
X191051909Y-49641252D01*
X191210510Y-49640226D01*
X191390136Y-49639262D01*
X191589449Y-49638363D01*
X191807109Y-49637526D01*
X192041778Y-49636753D01*
X192292115Y-49636043D01*
X192556783Y-49635397D01*
X192834440Y-49634814D01*
X193123749Y-49634294D01*
X193423369Y-49633838D01*
X193731962Y-49633445D01*
X194048189Y-49633116D01*
X194370709Y-49632849D01*
X194698184Y-49632647D01*
X195029274Y-49632507D01*
X195362641Y-49632431D01*
X195696944Y-49632419D01*
X196030845Y-49632469D01*
X196363005Y-49632583D01*
X196692083Y-49632761D01*
X197016741Y-49633002D01*
X197335640Y-49633306D01*
X197647440Y-49633674D01*
X197950802Y-49634105D01*
X198244386Y-49634599D01*
X198526854Y-49635157D01*
X198796865Y-49635778D01*
X199053082Y-49636462D01*
X199294164Y-49637210D01*
X199518773Y-49638021D01*
X199725568Y-49638896D01*
X199913211Y-49639834D01*
X200080363Y-49640835D01*
X200225683Y-49641900D01*
X200347834Y-49643028D01*
X200445475Y-49644219D01*
X200517267Y-49645474D01*
X200561872Y-49646792D01*
X200571783Y-49647336D01*
X200778100Y-49668737D01*
X200969845Y-49703173D01*
X201159513Y-49753096D01*
X201238243Y-49778167D01*
X201492812Y-49877863D01*
X201732816Y-50001850D01*
X201956941Y-50148553D01*
X202163870Y-50316395D01*
X202352286Y-50503802D01*
X202520874Y-50709197D01*
X202668316Y-50931004D01*
X202793297Y-51167647D01*
X202894500Y-51417552D01*
X202970609Y-51679142D01*
X203013711Y-51903548D01*
X203016579Y-51925457D01*
X203019199Y-51951715D01*
X203021584Y-51983626D01*
X203023743Y-52022498D01*
X203025687Y-52069634D01*
X203027429Y-52126339D01*
X203028978Y-52193920D01*
X203030345Y-52273681D01*
X203031542Y-52366928D01*
X203032579Y-52474965D01*
X203033467Y-52599098D01*
X203034217Y-52740633D01*
X203034841Y-52900874D01*
X203035348Y-53081127D01*
X203035751Y-53282696D01*
X203036059Y-53506888D01*
X203036284Y-53755007D01*
X203036437Y-54028359D01*
X203036529Y-54328248D01*
X203036569Y-54633367D01*
X203036510Y-55008209D01*
X203036282Y-55354218D01*
X203035884Y-55671621D01*
X203035313Y-55960645D01*
X203034570Y-56221519D01*
X203033653Y-56454470D01*
X203032559Y-56659725D01*
X203031289Y-56837513D01*
X203029841Y-56988061D01*
X203028213Y-57111596D01*
X203026404Y-57208346D01*
X203024413Y-57278539D01*
X203022238Y-57322403D01*
X203021164Y-57333896D01*
X202972665Y-57606738D01*
X202898080Y-57868901D01*
X202798724Y-58118957D01*
X202675918Y-58355482D01*
X202530978Y-58577049D01*
X202365224Y-58782232D01*
X202179973Y-58969605D01*
X201976543Y-59137742D01*
X201756254Y-59285217D01*
X201520422Y-59410604D01*
X201270366Y-59512476D01*
X201007404Y-59589408D01*
X200918144Y-59609054D01*
X200828406Y-59624928D01*
X200728742Y-59638911D01*
X200633247Y-59649184D01*
X200575820Y-59653223D01*
X200545171Y-59653991D01*
X200486947Y-59654733D01*
X200402468Y-59655449D01*
X200293056Y-59656137D01*
X200160031Y-59656797D01*
X200004714Y-59657429D01*
X199828426Y-59658033D01*
X199632486Y-59658607D01*
X199418217Y-59659152D01*
X199186939Y-59659668D01*
X198939972Y-59660152D01*
X198678637Y-59660607D01*
X198404255Y-59661030D01*
X198118147Y-59661421D01*
X197821633Y-59661780D01*
X197516034Y-59662107D01*
X197202671Y-59662402D01*
X196882864Y-59662662D01*
X196557934Y-59662890D01*
X196229203Y-59663082D01*
X195897990Y-59663241D01*
X195565616Y-59663364D01*
X195233403Y-59663452D01*
X194902670Y-59663504D01*
X194574739Y-59663520D01*
X194250929Y-59663499D01*
X193932563Y-59663441D01*
X193620961Y-59663345D01*
X193317443Y-59663212D01*
X193023330Y-59663039D01*
X192739943Y-59662828D01*
X192468602Y-59662578D01*
X192210629Y-59662288D01*
X191967343Y-59661958D01*
X191740067Y-59661587D01*
X191530119Y-59661176D01*
X191338822Y-59660723D01*
X191167496Y-59660228D01*
X191017461Y-59659690D01*
X190890039Y-59659110D01*
X190786549Y-59658487D01*
X190708313Y-59657821D01*
X190656652Y-59657110D01*
X190634179Y-59656445D01*
X190360908Y-59625888D01*
X190096749Y-59568616D01*
X189843138Y-59485941D01*
X189601512Y-59379178D01*
X189373307Y-59249642D01*
X189159961Y-59098646D01*
X188962910Y-58927504D01*
X188783592Y-58737532D01*
X188623442Y-58530041D01*
X188483898Y-58306348D01*
X188366396Y-58067765D01*
X188272373Y-57815607D01*
X188203267Y-57551189D01*
X188177726Y-57409747D01*
X188174676Y-57374977D01*
X188171833Y-57312982D01*
X188169198Y-57225596D01*
X188166770Y-57114656D01*
X188164548Y-56981997D01*
X188162531Y-56829453D01*
X188160720Y-56658861D01*
X188159113Y-56472056D01*
X188157711Y-56270873D01*
X188156512Y-56057149D01*
X188156018Y-55945831D01*
X188477590Y-55945831D01*
X188477714Y-56151086D01*
X188478088Y-56335446D01*
X188478742Y-56500273D01*
X188479707Y-56646929D01*
X188481015Y-56776773D01*
X188482699Y-56891168D01*
X188484788Y-56991474D01*
X188487315Y-57079053D01*
X188490311Y-57155265D01*
X188493808Y-57221474D01*
X188497836Y-57279038D01*
X188502429Y-57329320D01*
X188507616Y-57373681D01*
X188513430Y-57413481D01*
X188519902Y-57450083D01*
X188527064Y-57484848D01*
X188534947Y-57519136D01*
X188543582Y-57554308D01*
X188549442Y-57577610D01*
X188625875Y-57823261D01*
X188727017Y-58055505D01*
X188851228Y-58272939D01*
X188996868Y-58474159D01*
X189162298Y-58657761D01*
X189345875Y-58822343D01*
X189545961Y-58966499D01*
X189760915Y-59088826D01*
X189989097Y-59187921D01*
X190228866Y-59262379D01*
X190478583Y-59310797D01*
X190589270Y-59323320D01*
X190616436Y-59324440D01*
X190671345Y-59325510D01*
X190752680Y-59326532D01*
X190859123Y-59327503D01*
X190989355Y-59328426D01*
X191142059Y-59329298D01*
X191315917Y-59330121D01*
X191509611Y-59330894D01*
X191721823Y-59331617D01*
X191951235Y-59332290D01*
X192196528Y-59332913D01*
X192456386Y-59333485D01*
X192729489Y-59334006D01*
X193014520Y-59334477D01*
X193310161Y-59334897D01*
X193615094Y-59335266D01*
X193928001Y-59335584D01*
X194247564Y-59335851D01*
X194572464Y-59336066D01*
X194901385Y-59336230D01*
X195233008Y-59336343D01*
X195566014Y-59336403D01*
X195899087Y-59336412D01*
X196230908Y-59336369D01*
X196560159Y-59336274D01*
X196885521Y-59336126D01*
X197205678Y-59335926D01*
X197519311Y-59335674D01*
X197825102Y-59335369D01*
X198121733Y-59335011D01*
X198407886Y-59334600D01*
X198682243Y-59334136D01*
X198943486Y-59333620D01*
X199190298Y-59333049D01*
X199421359Y-59332426D01*
X199635353Y-59331749D01*
X199830961Y-59331018D01*
X200006865Y-59330233D01*
X200161747Y-59329395D01*
X200294290Y-59328502D01*
X200403175Y-59327555D01*
X200487083Y-59326554D01*
X200544698Y-59325498D01*
X200574702Y-59324388D01*
X200575781Y-59324304D01*
X200836309Y-59288480D01*
X201086513Y-59225754D01*
X201325389Y-59136575D01*
X201551929Y-59021394D01*
X201765127Y-58880660D01*
X201963976Y-58714822D01*
X201985488Y-58694535D01*
X202166566Y-58502546D01*
X202321975Y-58296965D01*
X202451580Y-58078077D01*
X202555244Y-57846169D01*
X202632833Y-57601527D01*
X202684210Y-57344438D01*
X202702748Y-57180069D01*
X202704795Y-57139134D01*
X202706633Y-57069660D01*
X202708259Y-56972172D01*
X202709672Y-56847191D01*
X202710869Y-56695241D01*
X202711850Y-56516845D01*
X202712612Y-56312526D01*
X202713153Y-56082806D01*
X202713471Y-55828209D01*
X202713565Y-55549257D01*
X202713432Y-55246475D01*
X202713071Y-54920383D01*
X202712480Y-54571507D01*
X202712358Y-54510877D01*
X202711724Y-54191518D01*
X202711160Y-53899828D01*
X202710623Y-53634415D01*
X202710068Y-53393888D01*
X202709450Y-53176854D01*
X202708726Y-52981920D01*
X202707851Y-52807695D01*
X202706780Y-52652787D01*
X202705470Y-52515803D01*
X202703877Y-52395351D01*
X202701955Y-52290040D01*
X202699661Y-52198477D01*
X202696950Y-52119269D01*
X202693778Y-52051026D01*
X202690101Y-51992354D01*
X202685874Y-51941861D01*
X202681053Y-51898156D01*
X202675594Y-51859846D01*
X202669453Y-51825539D01*
X202662585Y-51793843D01*
X202654946Y-51763366D01*
X202646492Y-51732716D01*
X202637178Y-51700500D01*
X202626960Y-51665326D01*
X202621175Y-51645052D01*
X202541207Y-51413994D01*
X202434819Y-51190101D01*
X202304452Y-50977138D01*
X202152548Y-50778870D01*
X201981549Y-50599061D01*
X201889642Y-50517247D01*
X201689760Y-50366225D01*
X201477547Y-50239233D01*
X201250689Y-50135183D01*
X201006868Y-50052989D01*
X200787811Y-50000153D01*
X200775116Y-49997804D01*
X200760378Y-49995599D01*
X200742665Y-49993533D01*
X200721049Y-49991599D01*
X200694601Y-49989793D01*
X200662390Y-49988109D01*
X200623488Y-49986541D01*
X200576964Y-49985084D01*
X200521890Y-49983732D01*
X200457335Y-49982480D01*
X200382371Y-49981321D01*
X200296068Y-49980251D01*
X200197496Y-49979264D01*
X200085726Y-49978354D01*
X199959829Y-49977515D01*
X199818874Y-49976743D01*
X199661933Y-49976031D01*
X199488077Y-49975374D01*
X199296374Y-49974767D01*
X199085897Y-49974203D01*
X198855715Y-49973678D01*
X198604900Y-49973185D01*
X198332521Y-49972719D01*
X198037649Y-49972275D01*
X197719355Y-49971847D01*
X197376710Y-49971429D01*
X197008782Y-49971016D01*
X196614645Y-49970602D01*
X196193367Y-49970182D01*
X195744019Y-49969750D01*
X195712726Y-49969720D01*
X195209500Y-49969278D01*
X194734903Y-49968934D01*
X194288501Y-49968688D01*
X193869863Y-49968542D01*
X193478555Y-49968496D01*
X193114145Y-49968552D01*
X192776200Y-49968709D01*
X192464286Y-49968971D01*
X192177971Y-49969336D01*
X191916822Y-49969806D01*
X191680407Y-49970383D01*
X191468293Y-49971067D01*
X191280046Y-49971858D01*
X191115233Y-49972759D01*
X190973423Y-49973769D01*
X190854183Y-49974890D01*
X190757078Y-49976123D01*
X190681677Y-49977469D01*
X190627547Y-49978928D01*
X190594255Y-49980502D01*
X190589518Y-49980879D01*
X190374436Y-50009758D01*
X190166411Y-50058098D01*
X190056576Y-50091780D01*
X190001101Y-50110613D01*
X189967698Y-50124799D01*
X189950771Y-50138587D01*
X189944724Y-50156228D01*
X189943961Y-50177337D01*
X189940634Y-50211552D01*
X189931654Y-50265594D01*
X189918519Y-50331122D01*
X189907512Y-50379973D01*
X189890967Y-50443727D01*
X189871313Y-50505256D01*
X189846120Y-50570589D01*
X189812958Y-50645758D01*
X189769395Y-50736793D01*
X189738873Y-50798302D01*
X189662594Y-50954620D01*
X189598850Y-51093578D01*
X189548294Y-51213582D01*
X189511577Y-51313039D01*
X189489350Y-51390358D01*
X189483621Y-51422194D01*
X189484293Y-51507454D01*
X189503819Y-51609130D01*
X189540302Y-51723291D01*
X189591846Y-51846005D01*
X189656555Y-51973340D01*
X189732533Y-52101366D01*
X189817883Y-52226150D01*
X189910710Y-52343760D01*
X189949218Y-52387595D01*
X189990224Y-52435065D01*
X190011964Y-52466695D01*
X190016682Y-52486188D01*
X190012969Y-52492944D01*
X189997691Y-52504631D01*
X189978719Y-52507886D01*
X189949590Y-52501751D01*
X189903842Y-52485271D01*
X189870180Y-52471826D01*
X189778862Y-52424337D01*
X189680364Y-52354714D01*
X189579216Y-52267421D01*
X189479951Y-52166921D01*
X189387098Y-52057677D01*
X189305190Y-51944155D01*
X189260690Y-51871464D01*
X189231262Y-51812680D01*
X189199586Y-51738485D01*
X189170925Y-51661541D01*
X189161234Y-51632036D01*
X189140622Y-51563376D01*
X189128200Y-51511070D01*
X189122573Y-51464040D01*
X189122344Y-51411203D01*
X189125614Y-51349306D01*
X189129562Y-51294715D01*
X189134852Y-51250951D01*
X189143563Y-51211359D01*
X189157769Y-51169282D01*
X189179549Y-51118065D01*
X189210978Y-51051053D01*
X189232820Y-51005693D01*
X189275862Y-50919379D01*
X189328328Y-50818446D01*
X189384732Y-50713217D01*
X189439583Y-50614016D01*
X189461919Y-50574751D01*
X189505139Y-50499476D01*
X189544243Y-50431155D01*
X189576540Y-50374503D01*
X189599341Y-50334239D01*
X189609324Y-50316273D01*
X189609636Y-50304608D01*
X189590409Y-50309593D01*
X189554498Y-50329350D01*
X189504759Y-50362007D01*
X189444046Y-50405687D01*
X189375214Y-50458515D01*
X189301118Y-50518617D01*
X189300634Y-50519021D01*
X189123376Y-50685106D01*
X188963230Y-50872637D01*
X188822504Y-51078052D01*
X188703505Y-51297786D01*
X188608543Y-51528276D01*
X188571291Y-51644736D01*
X188560609Y-51681065D01*
X188550841Y-51713982D01*
X188541947Y-51744864D01*
X188533881Y-51775086D01*
X188526601Y-51806024D01*
X188520063Y-51839052D01*
X188514224Y-51875548D01*
X188509041Y-51916885D01*
X188504471Y-51964441D01*
X188500470Y-52019590D01*
X188496995Y-52083708D01*
X188494002Y-52158170D01*
X188491449Y-52244353D01*
X188489292Y-52343632D01*
X188487487Y-52457382D01*
X188485992Y-52586980D01*
X188484764Y-52733799D01*
X188483758Y-52899218D01*
X188482932Y-53084609D01*
X188482242Y-53291351D01*
X188481645Y-53520817D01*
X188481098Y-53774384D01*
X188480557Y-54053427D01*
X188479980Y-54359322D01*
X188479593Y-54558496D01*
X188478947Y-54888641D01*
X188478392Y-55191087D01*
X188477960Y-55467192D01*
X188477682Y-55718320D01*
X188477590Y-55945831D01*
X188156018Y-55945831D01*
X188155516Y-55832717D01*
X188154722Y-55599415D01*
X188154130Y-55359076D01*
X188153740Y-55113537D01*
X188153550Y-54864633D01*
X188153561Y-54614199D01*
X188153771Y-54364072D01*
X188154181Y-54116085D01*
X188154789Y-53872076D01*
X188155595Y-53633878D01*
X188156599Y-53403328D01*
X188157800Y-53182261D01*
X188159197Y-52972513D01*
X188160790Y-52775918D01*
X188162578Y-52594313D01*
X188164561Y-52429533D01*
X188166738Y-52283413D01*
X188169109Y-52157788D01*
X188171674Y-52054494D01*
X188174430Y-51975367D01*
X188177379Y-51922242D01*
X188179366Y-51902741D01*
X188233345Y-51634780D01*
X188313621Y-51376076D01*
X188418857Y-51128473D01*
X188547714Y-50893813D01*
X188698855Y-50673940D01*
X188870942Y-50470696D01*
X189062638Y-50285925D01*
X189272603Y-50121469D01*
X189499502Y-49979172D01*
X189621989Y-49915394D01*
X189691136Y-49880902D01*
X189738170Y-49852970D01*
X189767304Y-49825851D01*
X189782752Y-49793797D01*
X189788728Y-49751060D01*
X189789446Y-49691892D01*
X189789408Y-49687014D01*
X189790092Y-49637621D01*
X189795867Y-49612302D01*
X189810800Y-49606090D01*
X189838958Y-49614016D01*
G37*
D13*
%TO.C,R5*%
X84795611Y-94652927D02*
X85195611Y-94652927D01*
X84800000Y-93349999D02*
X85200000Y-93349999D01*
D15*
%TO.C,F10*%
X88624721Y-78990000D02*
X88950279Y-78990000D01*
X88624721Y-80010000D02*
X88950279Y-80010000D01*
D14*
%TO.C,R13*%
X139798944Y-88870840D02*
X140198943Y-88870851D01*
X139800000Y-88125005D02*
X140200000Y-88125015D01*
D13*
%TO.C,M4*%
X75437500Y-55400000D02*
X75437500Y-61800000D01*
X75437500Y-65000000D02*
X75437500Y-63700000D01*
X75437500Y-65000000D02*
X90437500Y-65000000D01*
X89837500Y-55400000D02*
X75437500Y-55400000D01*
X90437500Y-65000000D02*
X90437500Y-59900000D01*
D14*
%TO.C,R1*%
X108298944Y-101472748D02*
X108698943Y-101472759D01*
X108300000Y-100726913D02*
X108700000Y-100726923D01*
%TD*%
M02*
